<svg xmlns="http://www.w3.org/2000/svg" xmlns:xlink="http://www.w3.org/1999/xlink" width="398" height="250" viewBox="0 0 398 250">
  <defs>
    <clipPath id="clip-path">
      <rect id="displeased-university-student-bites-lips-and-looks-above-with-unhappy-tired-expression-drinks-takeaway-coffee-works-with-papers-wears-round-spectacles" width="398" height="250" rx="11" transform="translate(182 404)" fill="#fc5f65"/>
    </clipPath>
    <clipPath id="clip-path-2">
      <rect id="Rectangle_38709" data-name="Rectangle 38709" width="165.255" height="362.958" fill="none"/>
    </clipPath>
    <clipPath id="clip-path-4">
      <rect id="Rectangle_38701" data-name="Rectangle 38701" width="23.325" height="30.196" fill="none"/>
    </clipPath>
    <clipPath id="clip-path-5">
      <rect id="Rectangle_38702" data-name="Rectangle 38702" width="23.326" height="30.197" fill="none"/>
    </clipPath>
    <clipPath id="clip-path-6">
      <rect id="Rectangle_38703" data-name="Rectangle 38703" width="6.338" height="2.968" fill="none"/>
    </clipPath>
    <clipPath id="clip-path-7">
      <rect id="Rectangle_38704" data-name="Rectangle 38704" width="12.894" height="3.221" fill="none"/>
    </clipPath>
    <clipPath id="clip-path-8">
      <rect id="Rectangle_38705" data-name="Rectangle 38705" width="40.929" height="62.877" fill="none"/>
    </clipPath>
    <clipPath id="clip-path-9">
      <rect id="Rectangle_38706" data-name="Rectangle 38706" width="78.154" height="53.887" fill="none"/>
    </clipPath>
    <clipPath id="clip-path-10">
      <rect id="Rectangle_38707" data-name="Rectangle 38707" width="74.789" height="51.833" fill="none"/>
    </clipPath>
  </defs>
  <g id="_1" data-name="1" transform="translate(-182 -404)">
    <path id="displeased-university-student-bites-lips-and-looks-above-with-unhappy-tired-expression-drinks-takeaway-coffee-works-with-papers-wears-round-spectacles-2" data-name="displeased-university-student-bites-lips-and-looks-above-with-unhappy-tired-expression-drinks-takeaway-coffee-works-with-papers-wears-round-spectacles" d="M11,0H387a11,11,0,0,1,11,11V239a11,11,0,0,1-11,11H11A11,11,0,0,1,0,239V11A11,11,0,0,1,11,0Z" transform="translate(182 404)" fill="#ffbfc1"/>
    <g id="Mask_Group_460" data-name="Mask Group 460" clip-path="url(#clip-path)">
      <g id="Group_983649" data-name="Group 983649" transform="translate(330.512 278.398) rotate(45)">
        <g id="Group_157493" data-name="Group 157493" transform="translate(389.969 270.376) rotate(119)">
          <path id="Path_114544" data-name="Path 114544" d="M114.463,387.387c29.259-12.432,59.6-29.207,71.387-57.26,13.078-31.134-.611-66-.282-99.468.261-26.512,9.409-52.116,16.607-77.752s12.485-52.877,5.058-78.456C202.26,57.327,191.7,41.833,178.068,29.539,154.062,7.89,119.474-3.825,86.611,1.126S23.892,28.638,14.284,58.564c-13.612,42.4,12.977,87.658,7.326,131.623-2.211,17.2-9.288,33.471-14.086,50.2A193.9,193.9,0,0,0,0,295.009c.179,28.221,7.8,58.331,30.214,77.124C52.832,391.091,86.484,399.276,114.463,387.387Z" transform="translate(0 0)" fill="#ffedee"/>
        </g>
      </g>
      <g id="Group_983651" data-name="Group 983651" transform="translate(784.983 175.388) rotate(88)">
        <g id="Group_157493-2" data-name="Group 157493" transform="translate(47.425 293.811) rotate(-103)">
          <path id="Path_114544-2" data-name="Path 114544" d="M114.463,5.551c29.259,12.432,59.6,29.207,71.387,57.26,13.078,31.134-.611,66-.282,99.468.261,26.512,9.409,52.116,16.607,77.752s12.485,52.877,5.058,78.456c-4.972,17.124-15.531,32.617-29.164,44.911-24.006,21.649-58.594,33.364-91.457,28.412S23.892,364.3,14.284,334.375c-13.612-42.4,12.977-87.658,7.326-131.623-2.211-17.2-9.288-33.471-14.086-50.2A193.9,193.9,0,0,1,0,97.929C.183,69.708,7.8,39.6,30.218,20.8,52.832,1.847,86.484-6.337,114.463,5.551Z" transform="translate(0)" fill="#ffedee"/>
        </g>
      </g>
      <g id="Group_983650" data-name="Group 983650" transform="translate(594.096 553.311) rotate(45)">
        <g id="Group_157493-3" data-name="Group 157493" transform="translate(0 0)">
          <path id="Path_114544-3" data-name="Path 114544" d="M66.726,202c17.057-6.483,34.746-15.229,41.615-29.858,7.624-16.235-.356-34.416-.165-51.867.152-13.824,5.485-27.175,9.681-40.543s7.278-27.572,2.949-40.91c-2.9-8.929-9.054-17.008-17-23.419A71.961,71.961,0,0,0,50.49.587C31.333,3.169,13.928,14.933,8.327,30.537.392,52.646,15.892,76.246,12.6,99.171c-1.289,8.97-5.414,17.453-8.212,26.178A91.178,91.178,0,0,0,0,153.83c.1,14.716,4.544,30.416,17.614,40.216C30.8,203.931,50.416,208.2,66.726,202Z" fill="#fff0f1"/>
        </g>
      </g>
      <g id="Group_161771" data-name="Group 161771" transform="translate(204.745 414.043)">
        <g id="Group_161794" data-name="Group 161794" transform="translate(0 0)" clip-path="url(#clip-path-2)">
          <g id="Group_161793" data-name="Group 161793">
            <g id="Group_161792" data-name="Group 161792" clip-path="url(#clip-path-2)">
              <path id="Path_142697" data-name="Path 142697" d="M65.363,4.534s22.8-4.978,34.046-1.175,20.4,16.1,18.658,38.1-2.723,43.782,7.695,60.492c10.559,16.936-1.123,25.073-11.64,33.231s-43.465-26.818-43.465-26.818Z" transform="translate(-8.597 -0.632)" fill="#6b1536"/>
              <path id="Path_142698" data-name="Path 142698" d="M62.312,4.457a66.429,66.429,0,0,1,7.4-1.484,64.005,64.005,0,0,1,8.611-.733,43.613,43.613,0,0,1,5.289.249,28.681,28.681,0,0,1,5.707,1.164,24.279,24.279,0,0,1,10.749,7.124,32.135,32.135,0,0,1,6.63,12.843A52.032,52.032,0,0,1,108.24,39.17c-.317,5.362-.731,10.89-.881,16.4a151.548,151.548,0,0,0,.383,16.479,80.89,80.89,0,0,0,2.79,15.759,51.553,51.553,0,0,0,6.131,13.671,34.466,34.466,0,0,1,3.2,5.969,18.37,18.37,0,0,1,1.37,6.1,14.7,14.7,0,0,1-.892,5.655,19.168,19.168,0,0,1-2.5,4.6,40.344,40.344,0,0,1-5.9,6.271c-1.8,1.584-3.261,2.792-4.252,3.615l-1.521,1.262,1.572-1.2c1.021-.787,2.54-1.914,4.394-3.457a40.75,40.75,0,0,0,6.161-6.158,19.816,19.816,0,0,0,2.729-4.673,15.091,15.091,0,0,0,1.064-5.937,19.275,19.275,0,0,0-1.313-6.422,35.64,35.64,0,0,0-3.177-6.207,53.476,53.476,0,0,1-5.8-13.449,79.485,79.485,0,0,1-2.644-15.51,149.958,149.958,0,0,1-.277-16.321q.113-4.11.33-8.211c.13-2.739.341-5.429.456-8.173a53.34,53.34,0,0,0-1.685-15.955,36.063,36.063,0,0,0-2.823-7.18,29.6,29.6,0,0,0-4.251-6.057,25.268,25.268,0,0,0-11.323-7.2A34.363,34.363,0,0,0,78.312,1.67a64.391,64.391,0,0,0-8.645,1.009c-2.373.43-4.208.9-5.454,1.231s-1.9.547-1.9.547" transform="translate(1.274 -0.534)" fill="#6b1536"/>
              <path id="Path_142699" data-name="Path 142699" d="M134.195,118.165s-4.057,18.761,4.564,22.818,27.381,4.564,31.437,17.747-41.578,22.818-53.748,20.282S73.855,168.87,79.433,158.222s30.931-9.127,30.423-23.324,1.014-33.465,1.014-33.465Z" transform="translate(-58.136 -33.248)" fill="#ffb99a"/>
              <path id="Path_142700" data-name="Path 142700" d="M156.682,136.182c-9.894-3.839-17.851-11.356-24.589-19.556.329-8.449.862-15.194.862-15.194l23.325,16.733s-2.383,11.044.4,18.017" transform="translate(-80.222 -33.248)" fill="#e09577"/>
              <path id="Path_142701" data-name="Path 142701" d="M120.411,20.231s23.207.294,28.189,27.91-7.177,48.678-22.5,48.987S94.439,85.552,92.576,63.057s5.331-42.34,27.835-42.826" transform="translate(-46.52 -6.631)" fill="#ffb99a"/>
              <path id="Path_142702" data-name="Path 142702" d="M114.434,71.173a4.093,4.093,0,0,1,2.234-1.193,4.628,4.628,0,0,1,3.086.684,4.79,4.79,0,0,0-.216,1.48l0-.477a3.53,3.53,0,0,0-2.522-.789,3.4,3.4,0,0,0-2.222,1.855l-.45.406a4.82,4.82,0,0,0,.086-1.966" transform="translate(-31.365 -22.922)" fill="#1b262c"/>
              <g id="Group_161773" data-name="Group 161773" transform="translate(87.925 31.995)" opacity="0.4">
                <g id="Group_161772" data-name="Group 161772">
                  <g id="Group_161771-2" data-name="Group 161771" clip-path="url(#clip-path-4)">
                    <path id="Path_142703" data-name="Path 142703" d="M103.662,62.817c-.087,8.338-5.379,15.043-11.82,14.976s-11.591-6.881-11.5-15.22S85.718,47.53,92.158,47.6s11.591,6.882,11.5,15.22" transform="translate(-80.337 -47.597)" fill="#fff"/>
                  </g>
                </g>
              </g>
              <g id="Group_161776" data-name="Group 161776" transform="translate(60.182 32.468)" opacity="0.4">
                <g id="Group_161775" data-name="Group 161775" transform="translate(0)">
                  <g id="Group_161774" data-name="Group 161774" clip-path="url(#clip-path-5)">
                    <path id="Path_142704" data-name="Path 142704" d="M144.933,63.522c-.087,8.338-5.379,15.043-11.82,14.976s-11.591-6.881-11.5-15.22,5.379-15.043,11.82-14.976,11.591,6.882,11.5,15.22" transform="translate(-121.607 -48.301)" fill="#fff"/>
                  </g>
                </g>
              </g>
              <path id="Path_142705" data-name="Path 142705" d="M103.969,62.856c-.1,5.708-2.757,12.162-8.41,14.394-5.046,1.992-10.452-.657-13.274-4.977a18.633,18.633,0,0,1-.78-18.148c2.446-4.754,7.41-8,12.831-6.486,6.545,1.825,9.658,8.906,9.633,15.217,0,.2-1.1.039-1.1-.3.021-5.292-2.14-11.426-7.145-13.963-4.859-2.462-10.072.682-12.617,4.926a18.63,18.63,0,0,0-.968,16.634c2.039,4.666,6.627,8.583,11.961,6.85,5.917-1.923,8.672-8.7,8.77-14.447,0-.208,1.108-.037,1.1.3" transform="translate(7.832 -15.493)" fill="#1b262c"/>
              <path id="Path_142706" data-name="Path 142706" d="M145.156,63.618c-.1,5.7-2.766,12.2-8.421,14.434-5.134,2.027-10.539-.657-13.35-5.1a18.745,18.745,0,0,1-.693-18.06c2.439-4.738,7.42-8.079,12.852-6.564,6.551,1.828,9.637,9.007,9.613,15.3,0,.325-1.1.122-1.1-.3.02-5.281-2.161-11.432-7.191-13.907-4.819-2.372-9.9.555-12.493,4.743A18.53,18.53,0,0,0,123.33,70.9c2.026,4.636,6.672,8.525,11.965,6.832,5.919-1.894,8.662-8.676,8.76-14.408.005-.329,1.109-.122,1.1.3" transform="translate(-61.042 -15.718)" fill="#1b262c"/>
              <path id="Path_142707" data-name="Path 142707" d="M108.877,86.456a4.605,4.605,0,0,0,1.2-.264c.19-.058.359-.145.54-.216a5.561,5.561,0,0,0,.51-.256,7.6,7.6,0,0,0,1.789-1.377l.372-.388-.15-.354c-1.478-3.485-2.993-6.955-4.687-10.357,1.039,3.655,2.255,7.242,3.509,10.813l.222-.741a7.587,7.587,0,0,0-1.882,1.25,5.435,5.435,0,0,0-.407.4c-.126.148-.262.28-.378.441a4.606,4.606,0,0,0-.637,1.049" transform="translate(-20.932 -24.009)" fill="#af593c"/>
              <g id="Group_161779" data-name="Group 161779" transform="translate(85.033 59.512)" opacity="0.5">
                <g id="Group_161778" data-name="Group 161778" transform="translate(0)">
                  <g id="Group_161777" data-name="Group 161777" clip-path="url(#clip-path-6)">
                    <path id="Path_142708" data-name="Path 142708" d="M116.249,88.532l-6.338,2.5L113,91.5Z" transform="translate(-109.911 -88.532)" fill="#af593c"/>
                  </g>
                </g>
              </g>
              <path id="Path_142709" data-name="Path 142709" d="M128.939,105.582s-.33.1-.906.243-1.4.348-2.372.57c-.494.091-1.02.218-1.583.31l-.862.152c-.3.032-.6.082-.9.126-.608.114-1.248.116-1.887.2-.641.041-1.3.072-1.945.071l-.973-.017-.485-.009-.476-.054a15.6,15.6,0,0,1-1.856-.243c-.3-.054-.59-.12-.882-.163s-.558-.153-.829-.225a11.634,11.634,0,0,1-1.508-.484c-.454-.19-.884-.348-1.266-.5-.352-.2-.672-.355-.935-.49-.529-.268-.847-.413-.847-.413s.234.243.672.659c.22.206.487.462.808.741.345.24.742.506,1.188.784a8.12,8.12,0,0,0,1.51.768c.279.114.559.262.86.358s.617.175.935.266a11.508,11.508,0,0,0,2,.4l.518.071.522.025,1.052.044c.7-.017,1.4-.069,2.083-.131a19.366,19.366,0,0,0,1.982-.348c.317-.075.63-.14.932-.221l.874-.274c.571-.161,1.088-.392,1.568-.578a14.731,14.731,0,0,0,3.016-1.642" transform="translate(-36.568 -34.307)" fill="#af593c"/>
              <g id="Group_161782" data-name="Group 161782" transform="translate(74.218 74.268)" opacity="0.5">
                <g id="Group_161781" data-name="Group 161781" transform="translate(0)">
                  <g id="Group_161780" data-name="Group 161780" clip-path="url(#clip-path-7)">
                    <path id="Path_142710" data-name="Path 142710" d="M129.14,111.569l-.591.116c-.371.073-.9.165-1.519.258-.31.049-.646.087-1,.13s-.725.05-1.1.1c-.382,0-.772.044-1.168.034s-.8,0-1.193-.043a9.833,9.833,0,0,1-1.184-.123c-.394-.035-.766-.138-1.137-.208a10.863,10.863,0,0,1-1.059-.269,8.841,8.841,0,0,1-.946-.309c-.286-.116-.577-.183-.809-.291s-.445-.192-.62-.265c-.352-.143-.569-.214-.569-.214s.132.175.393.461c.13.142.289.319.484.51a5.875,5.875,0,0,0,.711.571,4.755,4.755,0,0,0,.918.584,6.779,6.779,0,0,0,1.111.515,7.444,7.444,0,0,0,1.262.367l.666.127c.225.032.452.041.679.061a8.844,8.844,0,0,0,1.355,0,10.9,10.9,0,0,0,1.292-.174,10.428,10.428,0,0,0,1.168-.327,7.139,7.139,0,0,0,1-.4,7.781,7.781,0,0,0,.8-.423c.231-.143.427-.272.581-.391a3.664,3.664,0,0,0,.469-.391" transform="translate(-116.246 -110.483)" fill="#af593c"/>
                  </g>
                </g>
              </g>
              <path id="Path_142711" data-name="Path 142711" d="M104.357,71.813l-.184.731c-.069.226-.138.493-.249.8a10.218,10.218,0,0,1-.4.983,8.272,8.272,0,0,1-.6,1.059,6.05,6.05,0,0,1-.834,1,3.863,3.863,0,0,1-1.068.739,2.453,2.453,0,0,1-.595.21c-.1.015-.2.048-.308.052l-.155.007-.078,0-.038,0h-.034c.022,0-.056,0,.049,0l-.4-.023c-.13-.009-.184-.04-.282-.052a2.512,2.512,0,0,1-.582-.206,3.94,3.94,0,0,1-1.067-.741,6.131,6.131,0,0,1-.833-1,9.765,9.765,0,0,1-.6-1.059,10.386,10.386,0,0,1-.4-.982c-.11-.3-.18-.575-.249-.8-.118-.462-.184-.726-.184-.726s-.012.067-.034.194a5.618,5.618,0,0,0-.083.557,6.121,6.121,0,0,0-.021.881,5.866,5.866,0,0,0,.142,1.15,5.768,5.768,0,0,0,.432,1.33,5.308,5.308,0,0,0,.848,1.365,4.459,4.459,0,0,0,1.387,1.14,3.89,3.89,0,0,0,.911.353c.165.036.371.086.508.1l.4.034h.085l.031,0,.062,0,.124-.01.247-.022a4.721,4.721,0,0,0,.483-.1,3.939,3.939,0,0,0,.9-.35,4.5,4.5,0,0,0,1.386-1.141,5.332,5.332,0,0,0,.848-1.364,5.811,5.811,0,0,0,.432-1.33,5.924,5.924,0,0,0,.142-1.15,6.205,6.205,0,0,0-.02-.885c-.016-.241-.066-.424-.083-.552l-.034-.195" transform="translate(-3.19 -23.539)" fill="#1b262c"/>
              <path id="Path_142712" data-name="Path 142712" d="M142.877,74.619l-.184.731c-.069.227-.138.493-.249.8a10,10,0,0,1-.4.982,8.233,8.233,0,0,1-.6,1.059,6.055,6.055,0,0,1-.834,1,3.865,3.865,0,0,1-1.068.739,2.484,2.484,0,0,1-.595.211c-.1.015-.2.047-.308.052l-.155.006-.078,0-.038,0h-.034c.022,0-.056,0,.049,0l-.4-.023c-.13-.009-.184-.04-.282-.052a2.513,2.513,0,0,1-.582-.206,3.941,3.941,0,0,1-1.067-.741,6.108,6.108,0,0,1-.833-1,5.253,5.253,0,0,1-.323-.532,5.41,5.41,0,0,1-.276-.526,10.309,10.309,0,0,1-.4-.982c-.11-.3-.18-.575-.249-.8-.118-.462-.184-.726-.184-.726s-.012.067-.034.194-.067.316-.083.557a6.123,6.123,0,0,0-.021.881,5.857,5.857,0,0,0,.142,1.15,5.748,5.748,0,0,0,.432,1.33,5.308,5.308,0,0,0,.848,1.365,4.47,4.47,0,0,0,1.387,1.141,3.871,3.871,0,0,0,.911.352,5.1,5.1,0,0,0,.508.1l.4.034h.069l.015,0,.031,0,.062,0,.124-.01.247-.022a4.544,4.544,0,0,0,.483-.1,3.939,3.939,0,0,0,.9-.35,4.5,4.5,0,0,0,1.386-1.14,5.369,5.369,0,0,0,.848-1.365,5.84,5.84,0,0,0,.432-1.33,5.918,5.918,0,0,0,.142-1.15,6.209,6.209,0,0,0-.02-.885c-.016-.241-.066-.424-.083-.552l-.034-.195" transform="translate(-67.604 -24.459)" fill="#1b262c"/>
              <path id="Path_142713" data-name="Path 142713" d="M195.767,14.31S177.808,13,175.539,29.646s15.837,65.678-2.724,77.789-22.576,7.9-39.757,17.539c0,0-7.878-13.582-1.217-20.643s12.517-13.144,10.366-27.452-9.857-57.543,8.934-69.136,42.864-10.769,44.626,6.568" transform="translate(-117.34 0)" fill="#851d41"/>
              <path id="Path_142714" data-name="Path 142714" d="M154.56,146.119c5.1-5.407,9.724-10.244,10.647-18.634a27.966,27.966,0,0,0,13.774,10.292c8.549,2.727,16.727,1.568,24.233-1.938-1.083,5.852-3.409,10.6-7.681,13.384-18.561,12.112-22.575,7.9-39.757,17.539,0,0-7.878-13.582-1.217-20.643" transform="translate(-140.058 -41.788)" fill="#6b1536"/>
              <path id="Path_142715" data-name="Path 142715" d="M188.924,21.146a16.144,16.144,0,0,0-1.691-.225,21.967,21.967,0,0,0-4.851.159,17.063,17.063,0,0,0-7.183,2.712,14.885,14.885,0,0,0-5.821,8.251,13.365,13.365,0,0,0-.354,1.372,13.208,13.208,0,0,0-.265,1.414,18.773,18.773,0,0,0-.253,2.94,47.584,47.584,0,0,0,.319,6.034c.444,4.084,1.223,8.3,2.064,12.646.825,4.345,1.769,8.8,2.619,13.35s1.6,9.177,2.113,13.831a72.715,72.715,0,0,1,.336,13.9,32.61,32.61,0,0,1-1.221,6.647,18.464,18.464,0,0,1-2.868,5.839,14.14,14.14,0,0,1-2.2,2.274c-.4.331-.827.639-1.272.953s-.869.629-1.307.916a53.27,53.27,0,0,1-5.28,3.2,44.408,44.408,0,0,1-10.6,3.92c-3.424.815-6.627,1.379-9.4,2.167a44.176,44.176,0,0,0-6.983,2.571c-1.87.875-3.267,1.7-4.224,2.252l-1.441.888,1.459-.858c.967-.53,2.379-1.326,4.261-2.16a43.973,43.973,0,0,1,7-2.417c2.771-.727,5.967-1.222,9.432-1.971A44.993,44.993,0,0,0,162.139,118a54.178,54.178,0,0,0,5.428-3.144c.456-.287.893-.592,1.336-.9s.894-.609,1.337-.962a15.119,15.119,0,0,0,2.4-2.387,19.494,19.494,0,0,0,3.151-6.107,33.76,33.76,0,0,0,1.4-6.857,75.726,75.726,0,0,0-.056-14.165c-.388-4.724-1.049-9.412-1.755-14.006s-1.484-9.1-2.243-13.441c-.373-2.172-.729-4.307-1.045-6.395s-.627-4.126-.841-6.108a48.748,48.748,0,0,1-.365-5.732,19.809,19.809,0,0,1,.181-2.652,11.525,11.525,0,0,1,.2-1.275,11.4,11.4,0,0,1,.275-1.228,15.421,15.421,0,0,1,1.855-4.318,13.512,13.512,0,0,1,2.833-3.157,17.441,17.441,0,0,1,6.362-3.125,26.092,26.092,0,0,1,4.649-.819,16.131,16.131,0,0,1,1.69-.085" transform="translate(-110.497 -6.836)" fill="#851d41"/>
              <path id="Path_142716" data-name="Path 142716" d="M81.029,268.262S67.294,310.52,50.146,310.52,43,247.643,43,247.643Z" transform="translate(57.27 -81.174)" fill="#ff6464"/>
              <g id="Group_161785" data-name="Group 161785" transform="translate(97.37 166.469)" opacity="0.8">
                <g id="Group_161784" data-name="Group 161784">
                  <g id="Group_161783" data-name="Group 161783" clip-path="url(#clip-path-8)">
                    <path id="Path_142717" data-name="Path 142717" d="M81.029,268.262S67.294,310.52,50.146,310.52,43,247.643,43,247.643Z" transform="translate(-40.1 -247.643)" fill="#ba3a3a"/>
                  </g>
                </g>
              </g>
              <path id="Path_142718" data-name="Path 142718" d="M40.11,284.393C39.9,267.119,43,247.643,43,247.643l38.028,20.619s-1.679,5.164-4.594,11.879q-18.122,2.484-36.323,4.251" transform="translate(57.272 -81.174)" fill="#ba3a3a"/>
              <path id="Path_142719" data-name="Path 142719" d="M154.115,304.65s29.409,27.635,26.367,69.466c-2.115,29.086-12.075,55.721-17.948,69.251a16.1,16.1,0,0,1-14.223,9.681l-68.918,2.363a16.091,16.091,0,0,1-14.985-8.944c-11.33-22.93-34.883-84.02,5.028-134.211,50.2-63.129,84.679-7.606,84.679-7.606" transform="translate(-47.126 -92.463)" fill="#1b262c"/>
              <path id="Path_142720" data-name="Path 142720" d="M169.113,312.541c-4.939,3.387-10.948,5.057-16.791,6.094-12.406,2.2-25.369,2.119-37.938,2.13a133.353,133.353,0,0,1-36.179-5.146c.818-1.126,1.663-2.248,2.55-3.363,50.2-63.128,84.678-7.605,84.678-7.605a67.385,67.385,0,0,1,5.695,6.375c-.651.528-1.318,1.038-2.015,1.516" transform="translate(-58.445 -92.463)" fill="#151f23"/>
              <path id="Path_142721" data-name="Path 142721" d="M48.317,460.512c.416-8.864.771-17.742,1.728-26.569.547-5.044,1.121-3.257.995-8.288,16.758-2.466,33.883-14.59,44.834-27.228a83.177,83.177,0,0,1,.148,13.826c-2.122,29.177-12.137,55.886-18,69.377a16.107,16.107,0,0,1-30.775-8.262q.761-6.359,1.072-12.856" transform="translate(37.334 -130.6)" fill="#151f23"/>
              <path id="Path_142722" data-name="Path 142722" d="M98.967,405.684a24.355,24.355,0,0,1-1.939,2.2c-.682.7-1.382,1.377-2.107,2.028s-1.467,1.283-2.231,1.888-1.537,1.2-2.328,1.763a72.749,72.749,0,0,1-9.983,6.012c-.865.442-1.745.854-2.627,1.262s-1.777.787-2.669,1.17-1.792.751-2.7,1.087c-.9.355-1.817.687-2.736,1-.912.334-1.842.618-2.765.922s-1.859.567-2.788.852l-2.81.778-2.83.7-.487.121-.052.5c-.385,3.7-.713,7.4-1.069,11.1l-.979,11.108q-.465,5.557-.875,11.118l-.376,5.565q-.195,2.781-.344,5.568.4-2.763.743-5.53l.71-5.532q.679-5.536,1.3-11.077L58.212,439.2c.367-3.7.764-7.394,1.1-11.1l-.539.617,2.862-.727,2.842-.8c.938-.3,1.888-.563,2.817-.887s1.868-.625,2.788-.979c.926-.336,1.846-.687,2.757-1.061.919-.356,1.818-.759,2.724-1.146s1.791-.819,2.676-1.252,1.763-.878,2.628-1.35c.874-.454,1.724-.953,2.579-1.441s1.685-1.019,2.51-1.557,1.643-1.085,2.44-1.662,1.591-1.16,2.358-1.776,1.525-1.243,2.258-1.9,1.451-1.326,2.15-2.016a30.618,30.618,0,0,0,3.8-4.481" transform="translate(29.809 -132.978)" fill="#2e4149"/>
              <path id="Path_142723" data-name="Path 142723" d="M190.077,334.569s-.754,1.3-1.892,3.842" transform="translate(-151.322 -109.668)" fill="none" stroke="#2e4149" stroke-miterlimit="10" stroke-width="1.063"/>
              <path id="Path_142724" data-name="Path 142724" d="M203.165,351.618c-5.486,15.847-12.483,47.715-3.157,93.034" transform="translate(-169.293 -115.256)" fill="none" stroke="#2e4149" stroke-miterlimit="10" stroke-width="1.063" stroke-dasharray="12.181 12.181"/>
              <path id="Path_142725" data-name="Path 142725" d="M197.42,495.985q.463,2.07.971,4.176" transform="translate(-165.844 -162.578)" fill="none" stroke="#2e4149" stroke-miterlimit="10" stroke-width="1.063"/>
              <path id="Path_142726" data-name="Path 142726" d="M103.231,332.313s.2,1.007.559,2.769l.629,3.178c.229,1.229.486,2.616.768,4.128l.879,4.887c.32,1.732.6,3.569.93,5.46.3,1.9.608,3.856.922,5.848.278,2,.6,4.019.849,6.051s.561,4.057.757,6.062.475,3.97.622,5.883c.168,1.912.372,3.757.473,5.513q.094,1.317.182,2.558c.073.826.12,1.624.146,2.391.062,1.535.141,2.942.211,4.191.048,1.249.046,2.338.067,3.236.034,1.8.074,2.825.074,2.825s.087-1.023.2-2.819c.05-.9.137-1.989.188-3.242.031-1.253.065-2.668.077-4.212.048-1.546-.043-3.216-.083-4.985s-.15-3.633-.284-5.559c-.112-1.928-.294-3.914-.5-5.93-.182-2.02-.469-4.058-.713-6.1-.266-2.042-.608-4.072-.9-6.075-.336-2-.687-3.96-1.049-5.854s-.733-3.722-1.123-5.446c-.366-1.73-.756-3.354-1.123-4.853-.35-1.5-.733-2.864-1.051-4.076l-.875-3.124c-.243-.866-.462-1.539-.6-2l-.224-.7" transform="translate(-15.918 -108.928)" fill="#2e4149"/>
              <path id="Path_142727" data-name="Path 142727" d="M82.392,327.2l1.245,3.914q.618,1.958,1.2,3.926L86,338.971l1.128,3.943c.379,1.313.726,2.634,1.091,3.951s.7,2.641,1.052,3.96.688,2.643,1.006,3.971.682,2.645.972,3.978l.92,3.99.851,4c.3,1.332.549,2.673.8,4.014s.526,2.678.744,4.024l.665,4.037c.229,1.345.373,2.7.573,4.05s.384,2.7.5,4.061l.426,4.072.247-.388c-1.736.729-3.455,1.5-5.183,2.247s-3.453,1.5-5.168,2.285c1.783-.609,3.557-1.242,5.328-1.882s3.55-1.26,5.313-1.921l.263-.1-.016-.289-.233-4.113c-.065-1.374-.214-2.739-.356-4.1s-.251-2.738-.459-4.1l-.584-4.078c-.184-1.362-.46-2.707-.7-4.06s-.483-2.7-.774-4.045-.55-2.69-.851-4.029l-.953-4.005c-.307-1.338-.668-2.661-1.018-3.988s-.709-2.651-1.094-3.967-.737-2.642-1.159-3.948-.805-2.622-1.231-3.925-.858-2.6-1.305-3.9-.891-2.593-1.383-3.873c-.955-2.569-1.926-5.133-3.015-7.648" transform="translate(12.351 -107.252)" fill="#2e4149"/>
              <path id="Path_142728" data-name="Path 142728" d="M151.972,169.319s-24.846,17.24-60.34,0c0,0-24.846,2.536-28.395,15.719S69.322,245.377,82,265.152c0,0,32.959,15.719,74.538,2.536V247.913s15.292-12.988,16.226-34.48c.507-11.662-5.071-36.508-20.79-44.114" transform="translate(-49.547 -55.501)" fill="#ff6464"/>
              <path id="Path_142729" data-name="Path 142729" d="M98.823,237.907c12.657,5.37,26.254,7.775,39.96,6a76.072,76.072,0,0,0,34.1-13.685,51.84,51.84,0,0,1-15.9,30.622v19.775c-41.578,13.183-74.537-2.535-74.537-2.535C72.19,262.071,63.921,228.11,63.03,208.765a85.859,85.859,0,0,0,35.793,29.142" transform="translate(-50.003 -68.431)" fill="#e04c4c"/>
              <g id="Group_161788" data-name="Group 161788" transform="translate(16.226 163.564)" opacity="0.5">
                <g id="Group_161787" data-name="Group 161787">
                  <g id="Group_161786" data-name="Group 161786" clip-path="url(#clip-path-9)">
                    <path id="Path_142730" data-name="Path 142730" d="M112.577,250.61c11.342,10.942,22.572,22.389,35.891,30.97a91.559,91.559,0,0,0,35.122,13.577c-35.439,6.881-61.928-5.747-61.928-5.747-6.814-10.629-12.744-29.165-16.225-46.088,2.266,2.571,4.739,4.971,7.14,7.287" transform="translate(-105.437 -243.322)" fill="#ba3a3a"/>
                  </g>
                </g>
              </g>
              <path id="Path_142731" data-name="Path 142731" d="M15.772,164.475s-3.364-.934-5.228.631S1.529,186.5,3.032,191.643s12.74-27.168,12.74-27.168" transform="translate(147.583 -53.822)" fill="#c4cace"/>
              <path id="Path_142732" data-name="Path 142732" d="M20.982,161.513s-3.9,1.383-4.7,3.476-8.659,26.4-8.659,26.4l4.355-.546s3.893-22.286,9.006-29.327" transform="translate(139.15 -52.942)" fill="#d9dbdd"/>
              <path id="Path_142733" data-name="Path 142733" d="M23.182,160.776s-7.538,15.837-6.35,29.448l-5.207-1.764s5.749-21.331,11.557-27.684" transform="translate(134.258 -52.7)" fill="#e8ebed"/>
              <path id="Path_142734" data-name="Path 142734" d="M94.376,201.562s-10.421-8.816-50.889-5.414l-22.414,54.8,15.864-.02Z" transform="translate(56.714 -64.039)" fill="#fff"/>
              <path id="Path_142735" data-name="Path 142735" d="M93.815,202.433s-10.526-6.826-49.948-3.491L21.072,253.377l15.447-.085Z" transform="translate(57.275 -64.91)" fill="#e8ebed"/>
              <path id="Path_142736" data-name="Path 142736" d="M91.814,203.248s-10.081-4.872-48.481-1.617L21.072,254.052l15.046-.1Z" transform="translate(59.276 -65.725)" fill="#d9dbdd"/>
              <path id="Path_142737" data-name="Path 142737" d="M90.312,203.991s-9.7-2.912-47.331.286L21.072,254.7l14.743-.122Z" transform="translate(60.778 -66.468)" fill="#c4cace"/>
              <path id="Path_142738" data-name="Path 142738" d="M91.294,204.583l-46.545.462L21.072,257.193,72,257.819Z" transform="translate(59.796 -67.06)" fill="#1b262c"/>
              <path id="Path_142739" data-name="Path 142739" d="M31.863,161.569,19.291,190.484,0,243.72l3.075-2.06,30.381-79.238Z" transform="translate(131.799 -52.96)" fill="#151f23"/>
              <path id="Path_142740" data-name="Path 142740" d="M50.115,253.3l-.994,2.1s-13.2-1.852-14.147-1.535c-6.189,2.07,11.03,4.724,11.03,4.724s-14.065-1.077-14.84-.007c-1.54,2.128,13.585,4.523,13.585,4.523s-14.05-1-13.5.434c.59,1.539,10.487,3.078,10.487,3.078s2.731,4.449,4.578,3.442c0,0,4.43.737,3.056-3.9,0,0,3.48-2.372,2.755-5.878,0,0,1.3-4.795-2.013-6.971" transform="translate(92 -83.029)" fill="#ffb99a"/>
              <path id="Path_142741" data-name="Path 142741" d="M50.228,273.1s-9.708-.706-10.078.191c-1.026,2.489,14.071,3.233,14.071,3.233Z" transform="translate(84.078 -89.431)" fill="#ffb99a"/>
              <path id="Path_142742" data-name="Path 142742" d="M97.483,259.257S81.511,264.581,79,267.008c-1.734,1.677.355,11.351,2.787,11.884s6.382,5.143,7.679,4.859,3.23,3.335,5.17,2.8,8.645-12.572,3-11.849c0,0,3.879-6.253-2.759-3.512,0,0,5.284-6.16-2.969-5.087,0,0,19.664-9.307,5.577-6.845" transform="translate(10.012 -84.845)" fill="#ffb99a"/>
              <path id="Path_142743" data-name="Path 142743" d="M149.308,270.991l-2.647,10.845-34.9,15.63S68.914,330.171,103.9,321.3s52.227-27.888,52.227-27.888l8.817-2.876Z" transform="translate(-60.294 -88.828)" fill="#ffb99a"/>
              <g id="Group_161791" data-name="Group 161791" transform="translate(29.862 182.163)" opacity="0.5">
                <g id="Group_161790" data-name="Group 161790">
                  <g id="Group_161789" data-name="Group 161789" clip-path="url(#clip-path-10)">
                    <path id="Path_142744" data-name="Path 142744" d="M149.308,270.991l-2.647,10.845-34.9,15.63S68.914,330.171,103.9,321.3s52.227-27.888,52.227-27.888l8.817-2.876Z" transform="translate(-90.156 -270.991)" fill="#e09577"/>
                  </g>
                </g>
              </g>
              <path id="Path_142745" data-name="Path 142745" d="M142.935,304.811,168.414,293.4c2.087,5.862,4.166,11.729,6.75,17.383a124.423,124.423,0,0,1-40.088,17.859c-34.987,8.874,7.86-23.831,7.86-23.831" transform="translate(-91.469 -96.173)" fill="#e09577"/>
              <path id="Path_142746" data-name="Path 142746" d="M158.2,216.772s-13.476-35.617-25.828-34.068-11.23,32-6.738,66.588c3.907,30.084,2.246,44.908,20.213,45.941s39.831-10.243,49.719-18.609c0,0-6.935-10.61-9.634-19.522,0,0-16.5,6.644-20.995,6.644,0,0,2.247-3.614-2.246-3.614s2.246-23.745-4.492-43.36" transform="translate(-112.667 -59.872)" fill="#ff6464"/>
            </g>
          </g>
        </g>
      </g>
    </g>
    <path id="Path_210824" data-name="Path 210824" d="M10.7,12.764l.018.053A4.707,4.707,0,0,1,9,16.064a5.874,5.874,0,0,1-3.727,1.121,4.228,4.228,0,0,1-3.45-1.494,4.652,4.652,0,0,1-.892-3.814l.387-2.54A6.3,6.3,0,0,1,3.265,5.464,5.516,5.516,0,0,1,7.119,4.019a4.728,4.728,0,0,1,3.437,1.156,3.415,3.415,0,0,1,.844,3.2l-.026.053h-2.5a2.266,2.266,0,0,0-.308-1.854A2.219,2.219,0,0,0,6.82,6a2.454,2.454,0,0,0-1.916.94A4.637,4.637,0,0,0,3.876,9.318l-.387,2.558A3.644,3.644,0,0,0,3.8,14.311a1.894,1.894,0,0,0,1.762.905A2.578,2.578,0,0,0,7.352,14.6a2.972,2.972,0,0,0,.866-1.841Zm12.375-1.011A6.35,6.35,0,0,1,21,15.695a5.989,5.989,0,0,1-4.1,1.49,4.392,4.392,0,0,1-3.568-1.551,4.691,4.691,0,0,1-.94-3.88l.343-2.3a6.316,6.316,0,0,1,2.043-3.933,5.924,5.924,0,0,1,4.083-1.5,4.427,4.427,0,0,1,3.595,1.56,4.693,4.693,0,0,1,.958,3.872Zm-2.215-2.32a3.525,3.525,0,0,0-.374-2.479,2.127,2.127,0,0,0-1.929-.932,2.82,2.82,0,0,0-2.149.967,4.475,4.475,0,0,0-1.112,2.443l-.343,2.32a3.64,3.64,0,0,0,.343,2.5,2.073,2.073,0,0,0,1.907.932,2.87,2.87,0,0,0,2.171-.967,4.551,4.551,0,0,0,1.143-2.47ZM34.655,17H32.089L28.213,8.369l-.053.009L26.877,17H24.311L26.227,4.2h2.566l3.867,8.622.053-.009L34,4.2h2.566Zm12.7,0H44.789L40.913,8.369l-.053.009L39.577,17H37.011L38.927,4.2h2.566l3.867,8.622.053-.009L46.705,4.2h2.566Zm10.512-5.625H53.121l-.554,3.656h5.651L57.92,17H49.711L51.627,4.2h8.191l-.29,1.978H53.895L53.411,9.4h4.755Zm12.076,1.389.018.053a4.707,4.707,0,0,1-1.714,3.248,5.874,5.874,0,0,1-3.727,1.121,4.228,4.228,0,0,1-3.45-1.494,4.652,4.652,0,0,1-.892-3.814l.387-2.54a6.3,6.3,0,0,1,1.947-3.872,5.516,5.516,0,0,1,3.854-1.446A4.728,4.728,0,0,1,69.8,5.174a3.415,3.415,0,0,1,.844,3.2l-.026.053h-2.5a2.266,2.266,0,0,0-.308-1.854A2.219,2.219,0,0,0,66.067,6a2.454,2.454,0,0,0-1.916.94,4.637,4.637,0,0,0-1.028,2.382l-.387,2.558a3.644,3.644,0,0,0,.312,2.435,1.894,1.894,0,0,0,1.762.905A2.578,2.578,0,0,0,66.6,14.6a2.972,2.972,0,0,0,.866-1.841ZM81.466,6.181H77.8L76.184,17H73.617L75.234,6.181H71.64L71.93,4.2h9.826Zm10.679,5.572a6.35,6.35,0,0,1-2.07,3.942,5.989,5.989,0,0,1-4.1,1.49,4.392,4.392,0,0,1-3.568-1.551,4.691,4.691,0,0,1-.94-3.88l.343-2.3a6.316,6.316,0,0,1,2.043-3.933,5.924,5.924,0,0,1,4.083-1.5,4.427,4.427,0,0,1,3.595,1.56,4.693,4.693,0,0,1,.958,3.872ZM89.93,9.433a3.525,3.525,0,0,0-.374-2.479,2.127,2.127,0,0,0-1.929-.932,2.82,2.82,0,0,0-2.149.967,4.475,4.475,0,0,0-1.112,2.443l-.343,2.32a3.64,3.64,0,0,0,.343,2.5,2.073,2.073,0,0,0,1.907.932,2.87,2.87,0,0,0,2.171-.967,4.551,4.551,0,0,0,1.143-2.47Zm6.785,2.452L95.95,17H93.384L95.3,4.2h4.43a4.7,4.7,0,0,1,3.23,1.006,2.9,2.9,0,0,1,.866,2.773,3.307,3.307,0,0,1-.782,1.74,4.406,4.406,0,0,1-1.714,1.134,2.374,2.374,0,0,1,1.455,1.134,3.094,3.094,0,0,1,.233,1.9l-.141.94a4.686,4.686,0,0,0-.022,1.129,1.287,1.287,0,0,0,.365.857l-.026.185h-2.646a1.239,1.239,0,0,1-.308-.918,8.379,8.379,0,0,1,.079-1.27l.141-.905a1.823,1.823,0,0,0-.29-1.507,1.766,1.766,0,0,0-1.415-.514Zm.3-1.978h1.819a2.691,2.691,0,0,0,1.652-.461,2,2,0,0,0,.756-1.349,1.669,1.669,0,0,0-.316-1.411,1.9,1.9,0,0,0-1.485-.505H97.576Zm15.205,3.99a1.39,1.39,0,0,0-.378-1.305,5.945,5.945,0,0,0-1.9-.962,8.5,8.5,0,0,1-3.256-1.687,2.786,2.786,0,0,1-.813-2.61,3.385,3.385,0,0,1,1.582-2.43,5.884,5.884,0,0,1,3.287-.883A4.976,4.976,0,0,1,114.1,5.064a2.883,2.883,0,0,1,.9,2.874l-.018.053h-2.487a1.594,1.594,0,0,0-.444-1.441,2.2,2.2,0,0,0-1.6-.554,2.386,2.386,0,0,0-1.34.378,1.34,1.34,0,0,0-.655.94,1.254,1.254,0,0,0,.4,1.248,7.962,7.962,0,0,0,2.171.984,7.5,7.5,0,0,1,3.045,1.666,2.978,2.978,0,0,1,.725,2.667,3.366,3.366,0,0,1-1.591,2.461,6.171,6.171,0,0,1-3.34.844,6.263,6.263,0,0,1-3.533-.954,2.687,2.687,0,0,1-1.09-2.966l.018-.053h2.487a1.4,1.4,0,0,0,.576,1.551,3.462,3.462,0,0,0,1.833.453,2.577,2.577,0,0,0,1.38-.374A1.347,1.347,0,0,0,112.219,13.9ZM123.144,17h-2.566l1.916-12.8h2.566Zm12.885,0h-2.566l-3.876-8.631-.053.009L128.25,17h-2.566L127.6,4.2h2.566l3.867,8.622.053-.009L135.378,4.2h2.566Zm14.994-5.625h-4.746l-.554,3.656h5.651l-.3,1.969h-8.209l1.916-12.8h8.191l-.29,1.978H147.05L146.566,9.4h4.755ZM163.222,17h-2.566l-3.876-8.631-.053.009L155.443,17h-2.566l1.916-12.8h2.566l3.867,8.622.053-.009L162.571,4.2h2.566Zm12.428-1.749a6.078,6.078,0,0,1-1.991,1.358,7.6,7.6,0,0,1-3.142.576,4.482,4.482,0,0,1-3.538-1.477,4.4,4.4,0,0,1-.954-3.771l.4-2.672a6.062,6.062,0,0,1,2-3.828,5.766,5.766,0,0,1,3.911-1.419,4.584,4.584,0,0,1,3.375,1.125A3.165,3.165,0,0,1,176.52,8.1l-.018.053h-2.426a1.868,1.868,0,0,0-.343-1.6A2.121,2.121,0,0,0,172.1,6a2.728,2.728,0,0,0-2.017.918,4.151,4.151,0,0,0-1.094,2.333l-.4,2.689a3.3,3.3,0,0,0,.369,2.4,2.082,2.082,0,0,0,1.854.883,4.878,4.878,0,0,0,1.463-.189,2.6,2.6,0,0,0,.91-.461l.369-2.479h-2.461l.264-1.775h5.036Zm4.772-.22h5.739l-.3,1.969h-8.3l1.916-12.8h2.566ZM190.31,17h-2.566l1.916-12.8h2.566Zm9.905-3.1a1.39,1.39,0,0,0-.378-1.305,5.945,5.945,0,0,0-1.9-.962,8.5,8.5,0,0,1-3.256-1.687,2.786,2.786,0,0,1-.813-2.61,3.385,3.385,0,0,1,1.582-2.43,5.884,5.884,0,0,1,3.287-.883A4.976,4.976,0,0,1,202.1,5.064a2.883,2.883,0,0,1,.9,2.874l-.018.053h-2.487a1.594,1.594,0,0,0-.444-1.441,2.2,2.2,0,0,0-1.6-.554,2.386,2.386,0,0,0-1.34.378,1.34,1.34,0,0,0-.655.94,1.254,1.254,0,0,0,.4,1.248,7.962,7.962,0,0,0,2.171.984,7.5,7.5,0,0,1,3.045,1.666,2.978,2.978,0,0,1,.725,2.667,3.366,3.366,0,0,1-1.591,2.461,6.171,6.171,0,0,1-3.34.844,6.263,6.263,0,0,1-3.533-.954,2.687,2.687,0,0,1-1.09-2.966l.018-.053h2.487a1.4,1.4,0,0,0,.576,1.551,3.462,3.462,0,0,0,1.833.453,2.577,2.577,0,0,0,1.38-.374A1.347,1.347,0,0,0,200.215,13.9ZM214.26,17h-2.566l.791-5.317h-5.212L206.481,17h-2.566l1.916-12.8H208.4l-.826,5.5h5.212l.826-5.5h2.566Z" transform="translate(334 443)" fill="#fc5f65"/>
    <path id="Path_210823" data-name="Path 210823" d="M43.97,17H42.23L44.146,4.2h1.74ZM49.8,8.853a4.11,4.11,0,0,1,1.358-1.138,3.646,3.646,0,0,1,1.692-.4,2.681,2.681,0,0,1,2.219.91A3.5,3.5,0,0,1,55.519,11l-.9,6H52.891l.9-5.968a2.373,2.373,0,0,0-.22-1.806,1.783,1.783,0,0,0-1.45-.505,2.833,2.833,0,0,0-1.389.338A3.07,3.07,0,0,0,49.692,10l-1.055,7H46.906L48.33,7.49h1.547ZM59.008,17H57.277L58.7,7.49h1.731ZM60.8,5.056H59.07l.264-1.767h1.731Zm5.045.141L65.5,7.49h1.8l-.193,1.283h-1.8l-.861,5.774a1.183,1.183,0,0,0,.127.954.892.892,0,0,0,.7.259,1.767,1.767,0,0,0,.338-.04,2.357,2.357,0,0,0,.321-.083L66,16.824a1.838,1.838,0,0,1-.611.259,3.033,3.033,0,0,1-.76.1,1.952,1.952,0,0,1-1.569-.642,2.423,2.423,0,0,1-.338-2l.861-5.774H62.067L62.26,7.49h1.512L64.115,5.2ZM69.608,17H67.876L69.3,7.49h1.731ZM71.4,5.056H69.669l.264-1.767h1.731ZM78.116,17q-.018-.492-.018-.8a5.61,5.61,0,0,1,.035-.62A5.134,5.134,0,0,1,76.7,16.723a3.592,3.592,0,0,1-1.736.461,2.711,2.711,0,0,1-2.123-.769,2.424,2.424,0,0,1-.488-2.087,2.907,2.907,0,0,1,1.406-2.153,5.843,5.843,0,0,1,3.12-.747h1.881l.141-.94a1.541,1.541,0,0,0-.3-1.34,1.793,1.793,0,0,0-1.375-.47,2.4,2.4,0,0,0-1.406.422,1.468,1.468,0,0,0-.686,1.011l-1.652.018-.009-.053a2.725,2.725,0,0,1,1.257-1.92,4.615,4.615,0,0,1,2.795-.839,3.435,3.435,0,0,1,2.443.831,2.54,2.54,0,0,1,.668,2.36l-.686,4.579a7.521,7.521,0,0,0-.1,1A5.075,5.075,0,0,0,79.9,17Zm-2.681-1.266a3.411,3.411,0,0,0,1.74-.492,2.94,2.94,0,0,0,1.169-1.107l.237-1.538H76.639a2.858,2.858,0,0,0-1.74.536,1.858,1.858,0,0,0-.826,1.23,1.138,1.138,0,0,0,.233,1.015A1.508,1.508,0,0,0,75.435,15.734ZM84.04,17H82.308L84.365,3.289H86.1Zm4.535,0H86.843L88.9,3.289h1.731Zm6.1-3.524.132,1.2.053.009,3.41-7.189h1.925L94.551,18.459a6.177,6.177,0,0,1-1.288,1.67,2.739,2.739,0,0,1-1.92.712,3.572,3.572,0,0,1-.519-.048q-.316-.048-.492-.092l.378-1.362a2.325,2.325,0,0,1,.321.018q.347.026.444.026a1.3,1.3,0,0,0,.98-.514,5.755,5.755,0,0,0,.751-1.068l.571-.993L91.633,7.49h1.934Zm-53.3,25.589a1.794,1.794,0,0,0-.448-1.591,5.755,5.755,0,0,0-2.25-1.151,6.933,6.933,0,0,1-2.931-1.538,2.926,2.926,0,0,1-.655-2.628A3.24,3.24,0,0,1,36.53,29.84a5.243,5.243,0,0,1,3-.822,4.611,4.611,0,0,1,3.217,1.046,2.936,2.936,0,0,1,.835,2.865l-.018.053H41.9a2.112,2.112,0,0,0-.536-1.876,2.724,2.724,0,0,0-2.048-.725,2.809,2.809,0,0,0-1.692.505,1.835,1.835,0,0,0-.8,1.252,1.8,1.8,0,0,0,.374,1.6,6.366,6.366,0,0,0,2.3,1.138,7.532,7.532,0,0,1,2.966,1.578,2.857,2.857,0,0,1,.646,2.588,3.214,3.214,0,0,1-1.481,2.347,5.7,5.7,0,0,1-3.116.791,5.985,5.985,0,0,1-3.45-.949,2.71,2.71,0,0,1-1.05-2.953l.026-.053h1.652a1.845,1.845,0,0,0,.712,2,4.171,4.171,0,0,0,2.312.6,3.186,3.186,0,0,0,1.775-.5A1.836,1.836,0,0,0,41.377,39.064ZM50.7,42l.1-1.362a3.876,3.876,0,0,1-1.323,1.151,3.61,3.61,0,0,1-1.692.4,2.622,2.622,0,0,1-2.25-1.006A4.1,4.1,0,0,1,45.1,38.1l.835-5.607H47.67l-.844,5.625a3.334,3.334,0,0,0,.123,2.118,1.474,1.474,0,0,0,1.327.545,2.932,2.932,0,0,0,2.663-1.494l1.011-6.794h1.731L52.258,42Zm4.368-4.579A7.212,7.212,0,0,1,56.6,33.677a3.75,3.75,0,0,1,2.962-1.362,2.944,2.944,0,0,1,1.419.325,2.576,2.576,0,0,1,.98.94l.791-5.291h1.731L62.427,42H61.1l-.079-1.2a3.861,3.861,0,0,1-1.31,1.037,3.774,3.774,0,0,1-1.644.352,2.782,2.782,0,0,1-2.5-1.274,4.646,4.646,0,0,1-.519-3.3Zm1.705.185a3.693,3.693,0,0,0,.233,2.329,1.772,1.772,0,0,0,1.709.844,2.508,2.508,0,0,0,1.336-.36,3.406,3.406,0,0,0,1.028-1l.659-4.4a2.144,2.144,0,0,0-.725-.945,2.038,2.038,0,0,0-1.226-.347,2.369,2.369,0,0,0-1.973,1.042A5.77,5.77,0,0,0,56.8,37.421Zm8.525-.185a7.212,7.212,0,0,1,1.529-3.744,3.75,3.75,0,0,1,2.962-1.362,2.944,2.944,0,0,1,1.419.325,2.576,2.576,0,0,1,.98.94l.791-5.291h1.731L72.658,42H71.331l-.079-1.2a3.861,3.861,0,0,1-1.31,1.037,3.774,3.774,0,0,1-1.644.352,2.782,2.782,0,0,1-2.5-1.274,4.646,4.646,0,0,1-.519-3.3Zm1.705.185a3.693,3.693,0,0,0,.233,2.329,1.772,1.772,0,0,0,1.709.844,2.508,2.508,0,0,0,1.336-.36,3.406,3.406,0,0,0,1.028-1l.659-4.4a2.144,2.144,0,0,0-.725-.945,2.038,2.038,0,0,0-1.226-.347,2.369,2.369,0,0,0-1.973,1.042,5.77,5.77,0,0,0-1.015,2.659Zm12.146,4.579A3.452,3.452,0,0,1,76.2,40.857a4.425,4.425,0,0,1-.672-3.428l.062-.387a5.694,5.694,0,0,1,1.674-3.428,4.376,4.376,0,0,1,3.1-1.3A2.952,2.952,0,0,1,83,33.519a4.326,4.326,0,0,1,.519,3.138l-.132.914H77.237a3.774,3.774,0,0,0,.3,2.386,1.914,1.914,0,0,0,1.819.875,4.7,4.7,0,0,0,1.569-.255,4.118,4.118,0,0,0,1.252-.686l.51,1.125a5,5,0,0,1-1.468.831A5.782,5.782,0,0,1,79.153,42.185Zm1-8.508a2.191,2.191,0,0,0-1.578.7,4.006,4.006,0,0,0-1.015,1.775l.018.053h4.28l.018-.141a2.539,2.539,0,0,0-.246-1.727A1.586,1.586,0,0,0,80.155,33.677Zm7.4.176a4.11,4.11,0,0,1,1.358-1.138,3.646,3.646,0,0,1,1.692-.4,2.681,2.681,0,0,1,2.219.91A3.5,3.5,0,0,1,93.277,36l-.9,6H90.649l.9-5.968a2.373,2.373,0,0,0-.22-1.806,1.783,1.783,0,0,0-1.45-.505,2.833,2.833,0,0,0-1.389.338A3.07,3.07,0,0,0,87.45,35L86.4,42H84.664l1.424-9.51h1.547ZM96.766,42H95.035l2.057-13.711h1.731Zm6.1-3.524.132,1.2.053.009,3.41-7.189h1.925l-5.643,10.969a6.177,6.177,0,0,1-1.288,1.67,2.739,2.739,0,0,1-1.92.712,3.572,3.572,0,0,1-.519-.048q-.316-.048-.492-.092l.378-1.362a2.325,2.325,0,0,1,.321.018q.347.026.444.026a1.3,1.3,0,0,0,.98-.514A5.755,5.755,0,0,0,101.4,42.8l.571-.993L99.825,32.49h1.934ZM45,67l1.916-12.8h4.175a4.49,4.49,0,0,1,2.966.875,2.637,2.637,0,0,1,.787,2.588,2.814,2.814,0,0,1-.729,1.5,3.787,3.787,0,0,1-1.494.984,2.49,2.49,0,0,1,1.815,1.094,3.01,3.01,0,0,1,.417,2.14,3.881,3.881,0,0,1-1.538,2.72A5.476,5.476,0,0,1,50.074,67Zm2.628-6-.694,4.649h3.34a3.033,3.033,0,0,0,1.907-.589,2.447,2.447,0,0,0,.923-1.652,2.05,2.05,0,0,0-.409-1.736A2.259,2.259,0,0,0,51,61H47.631Zm.2-1.354h2.813a2.621,2.621,0,0,0,1.635-.536,2.184,2.184,0,0,0,.844-1.477,1.633,1.633,0,0,0-.413-1.569,2.739,2.739,0,0,0-1.819-.5H48.448ZM60.12,67.185a3.452,3.452,0,0,1-2.958-1.327,4.425,4.425,0,0,1-.672-3.428l.062-.387a5.694,5.694,0,0,1,1.674-3.428,4.376,4.376,0,0,1,3.1-1.3,2.952,2.952,0,0,1,2.646,1.2,4.326,4.326,0,0,1,.519,3.138l-.132.914H58.2a3.774,3.774,0,0,0,.3,2.386,1.914,1.914,0,0,0,1.819.875,4.7,4.7,0,0,0,1.569-.255,4.118,4.118,0,0,0,1.252-.686l.51,1.125a5,5,0,0,1-1.468.831A5.782,5.782,0,0,1,60.12,67.185Zm1-8.508a2.191,2.191,0,0,0-1.578.7,4.006,4.006,0,0,0-1.015,1.775l.018.053h4.28l.018-.141A2.539,2.539,0,0,0,62.6,59.34,1.586,1.586,0,0,0,61.122,58.677ZM66.352,67l1.23-8.227H66.1l.193-1.283h1.485l.185-1.2A3.806,3.806,0,0,1,69.1,53.9a3.413,3.413,0,0,1,2.347-.8,3.535,3.535,0,0,1,.6.053q.308.053.65.132l-.4,1.318q-.158-.035-.382-.062a3.947,3.947,0,0,0-.461-.026,1.582,1.582,0,0,0-1.182.461,2.277,2.277,0,0,0-.576,1.305l-.185,1.2h1.723l-.193,1.283H69.313L68.083,67Zm5.528-4.843a6.06,6.06,0,0,1,1.657-3.516,4.5,4.5,0,0,1,3.309-1.327,3.309,3.309,0,0,1,2.878,1.375,4.611,4.611,0,0,1,.672,3.467l-.035.193a6.069,6.069,0,0,1-1.661,3.52,4.52,4.52,0,0,1-3.313,1.314,3.313,3.313,0,0,1-2.878-1.371,4.571,4.571,0,0,1-.664-3.463Zm1.7.193a4.141,4.141,0,0,0,.255,2.522,1.8,1.8,0,0,0,1.758.958,2.488,2.488,0,0,0,2-1,5.064,5.064,0,0,0,1.042-2.483l.035-.193a4.143,4.143,0,0,0-.268-2.514,1.8,1.8,0,0,0-1.753-.967,2.488,2.488,0,0,0-2.008,1.006,4.978,4.978,0,0,0-1.024,2.474Zm13.9-3.331-.879-.053a2.138,2.138,0,0,0-1.2.338,2.8,2.8,0,0,0-.879.954L83.517,67H81.785l1.424-9.51h1.547l-.035,1.345a4,4,0,0,1,1.16-1.121,2.682,2.682,0,0,1,1.433-.4,2.163,2.163,0,0,1,.365.031,2.01,2.01,0,0,1,.286.066Zm4.351,8.165a3.452,3.452,0,0,1-2.958-1.327A4.425,4.425,0,0,1,88.2,62.43l.062-.387a5.694,5.694,0,0,1,1.674-3.428,4.376,4.376,0,0,1,3.1-1.3,2.952,2.952,0,0,1,2.646,1.2,4.326,4.326,0,0,1,.519,3.138l-.132.914H89.915a3.774,3.774,0,0,0,.3,2.386,1.914,1.914,0,0,0,1.819.875,4.7,4.7,0,0,0,1.569-.255,4.118,4.118,0,0,0,1.252-.686l.51,1.125a5,5,0,0,1-1.468.831A5.782,5.782,0,0,1,91.831,67.185Zm1-8.508a2.191,2.191,0,0,0-1.578.7,4.006,4.006,0,0,0-1.015,1.775l.018.053h4.28l.018-.141a2.539,2.539,0,0,0-.246-1.727A1.586,1.586,0,0,0,92.833,58.677ZM61.627,80.565H57.409L55.695,92H53.963l1.714-11.435H51.511l.2-1.362H61.83Zm2.839,3.146a4.308,4.308,0,0,1,1.362-1.033,3.768,3.768,0,0,1,1.644-.365,2.643,2.643,0,0,1,2.2.923,3.6,3.6,0,0,1,.461,2.8L69.239,92H67.507l.9-5.977a2.308,2.308,0,0,0-.237-1.758,1.7,1.7,0,0,0-1.433-.545,3.015,3.015,0,0,0-1.375.316,3.123,3.123,0,0,0-1.068.879L63.227,92H61.5l2.057-13.711h1.731Zm11.171,8.473a3.452,3.452,0,0,1-2.958-1.327,4.425,4.425,0,0,1-.672-3.428l.062-.387a5.694,5.694,0,0,1,1.674-3.428,4.376,4.376,0,0,1,3.1-1.3,2.952,2.952,0,0,1,2.646,1.2,4.326,4.326,0,0,1,.519,3.138l-.132.914H73.721a3.774,3.774,0,0,0,.3,2.386,1.914,1.914,0,0,0,1.819.875,4.7,4.7,0,0,0,1.569-.255,4.118,4.118,0,0,0,1.252-.686l.51,1.125a5,5,0,0,1-1.468.831A5.782,5.782,0,0,1,75.637,92.185Zm1-8.508a2.191,2.191,0,0,0-1.578.7,4.006,4.006,0,0,0-1.015,1.775l.018.053h4.28l.018-.141a2.539,2.539,0,0,0-.246-1.727A1.586,1.586,0,0,0,76.639,83.677Zm7.4.176A4.11,4.11,0,0,1,85.4,82.714a3.646,3.646,0,0,1,1.692-.4,2.681,2.681,0,0,1,2.219.91A3.5,3.5,0,0,1,89.761,86l-.9,6H87.133l.9-5.968a2.373,2.373,0,0,0-.22-1.806,1.783,1.783,0,0,0-1.45-.505,2.833,2.833,0,0,0-1.389.338A3.07,3.07,0,0,0,83.934,85l-1.055,7H81.148l1.424-9.51h1.547Zm-52.22,28.015L31.055,117H29.323l1.916-12.8h4.9a3.935,3.935,0,0,1,2.984,1.063,3.144,3.144,0,0,1,.769,2.769,4.292,4.292,0,0,1-1.551,2.821,5.213,5.213,0,0,1-3.344,1.011Zm.2-1.354h3.173a2.833,2.833,0,0,0,2.953-2.461,2.3,2.3,0,0,0-.374-1.793,2.183,2.183,0,0,0-1.841-.694H32.769Zm14.2-1.494-.879-.053a2.138,2.138,0,0,0-1.2.338,2.8,2.8,0,0,0-.879.954L42.261,117H40.529l1.424-9.51H43.5l-.035,1.345a4,4,0,0,1,1.16-1.121,2.682,2.682,0,0,1,1.433-.4,2.163,2.163,0,0,1,.365.031,2.01,2.01,0,0,1,.286.066Zm4.351,8.165a3.452,3.452,0,0,1-2.958-1.327,4.425,4.425,0,0,1-.672-3.428l.062-.387a5.694,5.694,0,0,1,1.674-3.428,4.376,4.376,0,0,1,3.1-1.3,2.952,2.952,0,0,1,2.646,1.2,4.326,4.326,0,0,1,.519,3.138l-.132.914H48.659a3.774,3.774,0,0,0,.3,2.386,1.914,1.914,0,0,0,1.819.875,4.7,4.7,0,0,0,1.569-.255,4.118,4.118,0,0,0,1.252-.686l.51,1.125a5,5,0,0,1-1.468.831A5.782,5.782,0,0,1,50.575,117.185Zm1-8.508a2.191,2.191,0,0,0-1.578.7,4.006,4.006,0,0,0-1.015,1.775l.018.053h4.28l.018-.141a2.539,2.539,0,0,0-.246-1.727A1.586,1.586,0,0,0,51.577,108.677Zm7.989,5.52.053.668.053.009.264-.677,3.19-6.706h1.767L59.971,117h-1.31l-2.118-9.51h1.775ZM66.9,117H65.165l1.424-9.51H68.32Zm1.793-11.944H66.958l.264-1.767h1.731Zm1.2,7.1a6.06,6.06,0,0,1,1.657-3.516,4.5,4.5,0,0,1,3.309-1.327,3.309,3.309,0,0,1,2.878,1.375,4.611,4.611,0,0,1,.672,3.467l-.035.193a6.069,6.069,0,0,1-1.661,3.52,4.52,4.52,0,0,1-3.313,1.314,3.313,3.313,0,0,1-2.878-1.371,4.571,4.571,0,0,1-.664-3.463Zm1.7.193a4.141,4.141,0,0,0,.255,2.522,1.8,1.8,0,0,0,1.758.958,2.488,2.488,0,0,0,2-1,5.064,5.064,0,0,0,1.042-2.483l.035-.193a4.143,4.143,0,0,0-.268-2.514,1.8,1.8,0,0,0-1.753-.967,2.488,2.488,0,0,0-2.008,1.006,4.978,4.978,0,0,0-1.024,2.474ZM85.942,117l.1-1.362a3.876,3.876,0,0,1-1.323,1.151,3.61,3.61,0,0,1-1.692.4,2.622,2.622,0,0,1-2.25-1.006,4.1,4.1,0,0,1-.431-3.081l.835-5.607H82.91l-.844,5.625a3.334,3.334,0,0,0,.123,2.118,1.474,1.474,0,0,0,1.327.545,2.932,2.932,0,0,0,2.663-1.494l1.011-6.794h1.731L87.5,117Zm10.011-2.558a1.021,1.021,0,0,0-.3-.94,3.679,3.679,0,0,0-1.564-.624,6.012,6.012,0,0,1-2.448-1.011,1.757,1.757,0,0,1-.655-1.74,2.93,2.93,0,0,1,1.261-2.013,4.426,4.426,0,0,1,2.685-.8,3.382,3.382,0,0,1,2.461.888,2.186,2.186,0,0,1,.712,2.039l-.018.053H96.428a1.307,1.307,0,0,0-.378-1.125,1.7,1.7,0,0,0-1.3-.492,2.221,2.221,0,0,0-1.411.417,1.5,1.5,0,0,0-.611.98.924.924,0,0,0,.264.879,3.877,3.877,0,0,0,1.547.554,5.869,5.869,0,0,1,2.5,1.046,1.836,1.836,0,0,1,.659,1.767,2.948,2.948,0,0,1-1.31,2.087,4.8,4.8,0,0,1-2.795.778,3.694,3.694,0,0,1-2.694-.932,2.288,2.288,0,0,1-.734-2.145l.018-.053h1.661a1.4,1.4,0,0,0,.5,1.349,2.368,2.368,0,0,0,1.441.426,2.592,2.592,0,0,0,1.477-.4A1.463,1.463,0,0,0,95.953,114.442ZM101.306,117H99.574l2.057-13.711h1.731Zm6.1-3.524.132,1.2.053.009L111,107.49h1.925l-5.643,10.969a6.177,6.177,0,0,1-1.288,1.67,2.739,2.739,0,0,1-1.92.712,3.572,3.572,0,0,1-.519-.048q-.316-.048-.492-.092l.378-1.362a2.325,2.325,0,0,1,.321.018q.347.026.444.026a1.3,1.3,0,0,0,.98-.514,5.755,5.755,0,0,0,.751-1.068l.571-.993-2.145-9.316H106.3ZM10.075,138.7H5.25L3.615,142H1.849l6.53-12.8H9.864l2.6,12.8H10.7Zm-4.1-1.45H9.794l-1.037-5.493-.053-.009ZM18.135,130.2l-.343,2.294h1.8l-.193,1.283H17.6l-.861,5.774a1.183,1.183,0,0,0,.127.954.892.892,0,0,0,.7.259,1.767,1.767,0,0,0,.338-.04,2.357,2.357,0,0,0,.321-.083l.062,1.187a1.838,1.838,0,0,1-.611.259,3.033,3.033,0,0,1-.76.1,1.952,1.952,0,0,1-1.569-.642,2.423,2.423,0,0,1-.338-2l.861-5.774H14.355l.193-1.283h1.512L16.4,130.2Zm10.538,0-.343,2.294h1.8l-.193,1.283h-1.8l-.861,5.774a1.183,1.183,0,0,0,.127.954.892.892,0,0,0,.7.259,1.767,1.767,0,0,0,.338-.04,2.357,2.357,0,0,0,.321-.083l.062,1.187a1.838,1.838,0,0,1-.611.259,3.033,3.033,0,0,1-.76.1,1.952,1.952,0,0,1-1.569-.642,2.423,2.423,0,0,1-.338-2l.861-5.774H24.894l.193-1.283H26.6l.343-2.294Zm4.86,3.516a4.308,4.308,0,0,1,1.362-1.033,3.768,3.768,0,0,1,1.644-.365,2.643,2.643,0,0,1,2.2.923,3.6,3.6,0,0,1,.461,2.8l-.9,5.959H36.574l.9-5.977a2.308,2.308,0,0,0-.237-1.758,1.7,1.7,0,0,0-1.433-.545,3.015,3.015,0,0,0-1.375.316,3.123,3.123,0,0,0-1.068.879L32.294,142H30.563l2.057-13.711h1.731ZM44.7,142.185a3.452,3.452,0,0,1-2.958-1.327,4.425,4.425,0,0,1-.672-3.428l.062-.387a5.694,5.694,0,0,1,1.674-3.428,4.376,4.376,0,0,1,3.1-1.3,2.952,2.952,0,0,1,2.646,1.2,4.326,4.326,0,0,1,.519,3.138l-.132.914H42.788a3.774,3.774,0,0,0,.3,2.386,1.914,1.914,0,0,0,1.819.875,4.7,4.7,0,0,0,1.569-.255,4.118,4.118,0,0,0,1.252-.686l.51,1.125a5,5,0,0,1-1.468.831A5.782,5.782,0,0,1,44.7,142.185Zm1-8.508a2.191,2.191,0,0,0-1.578.7,4.006,4.006,0,0,0-1.015,1.775l.018.053h4.28l.018-.141a2.539,2.539,0,0,0-.246-1.727A1.586,1.586,0,0,0,45.706,133.677Zm14.915,5.766a1.021,1.021,0,0,0-.3-.94,3.679,3.679,0,0,0-1.564-.624,6.012,6.012,0,0,1-2.448-1.011,1.757,1.757,0,0,1-.655-1.74,2.93,2.93,0,0,1,1.261-2.013,4.426,4.426,0,0,1,2.685-.8,3.382,3.382,0,0,1,2.461.888,2.186,2.186,0,0,1,.712,2.039l-.018.053H61.1a1.307,1.307,0,0,0-.378-1.125,1.7,1.7,0,0,0-1.3-.492,2.221,2.221,0,0,0-1.411.417,1.5,1.5,0,0,0-.611.98.924.924,0,0,0,.264.879,3.877,3.877,0,0,0,1.547.554,5.869,5.869,0,0,1,2.5,1.046,1.836,1.836,0,0,1,.659,1.767,2.948,2.948,0,0,1-1.31,2.087,4.8,4.8,0,0,1-2.795.778,3.694,3.694,0,0,1-2.694-.932,2.288,2.288,0,0,1-.734-2.145l.018-.053h1.661a1.4,1.4,0,0,0,.5,1.349,2.368,2.368,0,0,0,1.441.426,2.592,2.592,0,0,0,1.477-.4A1.463,1.463,0,0,0,60.621,139.442ZM69.946,142q-.018-.492-.018-.8a5.61,5.61,0,0,1,.035-.62,5.134,5.134,0,0,1-1.437,1.138,3.592,3.592,0,0,1-1.736.461,2.711,2.711,0,0,1-2.123-.769,2.424,2.424,0,0,1-.488-2.087,2.907,2.907,0,0,1,1.406-2.153,5.843,5.843,0,0,1,3.12-.747h1.881l.141-.94a1.541,1.541,0,0,0-.3-1.34,1.793,1.793,0,0,0-1.375-.47,2.4,2.4,0,0,0-1.406.422,1.468,1.468,0,0,0-.686,1.011l-1.652.018-.009-.053a2.725,2.725,0,0,1,1.257-1.92,4.615,4.615,0,0,1,2.795-.839,3.435,3.435,0,0,1,2.443.831,2.54,2.54,0,0,1,.668,2.36l-.686,4.579a7.521,7.521,0,0,0-.1,1,5.075,5.075,0,0,0,.057.918Zm-2.681-1.266a3.411,3.411,0,0,0,1.74-.492,2.94,2.94,0,0,0,1.169-1.107l.237-1.538H68.47a2.858,2.858,0,0,0-1.74.536,1.858,1.858,0,0,0-.826,1.23,1.138,1.138,0,0,0,.233,1.015A1.508,1.508,0,0,0,67.266,140.734Zm9.642-7.04a3.838,3.838,0,0,1,1.327-1.024,4.056,4.056,0,0,1,1.731-.356,2.589,2.589,0,0,1,1.529.439,2.185,2.185,0,0,1,.844,1.31,4.187,4.187,0,0,1,1.375-1.283,3.585,3.585,0,0,1,1.815-.466,2.428,2.428,0,0,1,2.114,1.006,4.1,4.1,0,0,1,.426,2.993L87.217,142H85.485l.853-5.7a2.954,2.954,0,0,0-.171-2.017,1.553,1.553,0,0,0-1.367-.558,2.121,2.121,0,0,0-1.507.624,3.244,3.244,0,0,0-.9,1.556.071.071,0,0,0-.009.031v.031L81.478,142h-1.74l.853-5.7a2.892,2.892,0,0,0-.189-1.982,1.507,1.507,0,0,0-1.349-.593,2.516,2.516,0,0,0-1.34.347,2.782,2.782,0,0,0-.936.962L75.729,142H74l1.424-9.51h1.547Zm16.734,8.49a3.452,3.452,0,0,1-2.958-1.327,4.425,4.425,0,0,1-.672-3.428l.062-.387a5.694,5.694,0,0,1,1.674-3.428,4.376,4.376,0,0,1,3.1-1.3,2.952,2.952,0,0,1,2.646,1.2,4.326,4.326,0,0,1,.519,3.138l-.132.914H91.726a3.774,3.774,0,0,0,.3,2.386,1.914,1.914,0,0,0,1.819.875,4.7,4.7,0,0,0,1.569-.255,4.118,4.118,0,0,0,1.252-.686l.51,1.125a5,5,0,0,1-1.468.831A5.782,5.782,0,0,1,93.642,142.185Zm1-8.508a2.191,2.191,0,0,0-1.578.7,4.006,4.006,0,0,0-1.015,1.775l.018.053h4.28l.018-.141a2.539,2.539,0,0,0-.246-1.727A1.586,1.586,0,0,0,94.644,133.677ZM107.8,130.2l-.343,2.294h1.8l-.193,1.283h-1.8l-.861,5.774a1.183,1.183,0,0,0,.127.954.892.892,0,0,0,.7.259,1.767,1.767,0,0,0,.338-.04,2.357,2.357,0,0,0,.321-.083l.062,1.187a1.838,1.838,0,0,1-.611.259,3.033,3.033,0,0,1-.76.1,1.952,1.952,0,0,1-1.569-.642,2.423,2.423,0,0,1-.338-2l.861-5.774h-1.512l.193-1.283h1.512l.343-2.294Zm3.762,11.8h-1.731l1.424-9.51h1.731Zm1.793-11.944h-1.731l.264-1.767h1.731Zm3.779,3.639a3.838,3.838,0,0,1,1.327-1.024,4.056,4.056,0,0,1,1.731-.356,2.589,2.589,0,0,1,1.529.439,2.185,2.185,0,0,1,.844,1.31,4.187,4.187,0,0,1,1.375-1.283,3.585,3.585,0,0,1,1.815-.466,2.428,2.428,0,0,1,2.114,1.006,4.1,4.1,0,0,1,.426,2.993L127.444,142h-1.731l.853-5.7a2.954,2.954,0,0,0-.171-2.017,1.553,1.553,0,0,0-1.367-.558,2.121,2.121,0,0,0-1.507.624,3.244,3.244,0,0,0-.9,1.556.071.071,0,0,0-.009.031v.031L121.705,142h-1.74l.853-5.7a2.892,2.892,0,0,0-.189-1.982,1.507,1.507,0,0,0-1.349-.593,2.516,2.516,0,0,0-1.34.347,2.782,2.782,0,0,0-.936.962L115.957,142h-1.731l1.424-9.51H117.2Zm16.734,8.49a3.452,3.452,0,0,1-2.958-1.327,4.425,4.425,0,0,1-.672-3.428l.062-.387a5.694,5.694,0,0,1,1.674-3.428,4.376,4.376,0,0,1,3.1-1.3,2.952,2.952,0,0,1,2.646,1.2,4.326,4.326,0,0,1,.519,3.138l-.132.914h-6.152a3.774,3.774,0,0,0,.3,2.386,1.914,1.914,0,0,0,1.819.875,4.7,4.7,0,0,0,1.569-.255,4.118,4.118,0,0,0,1.252-.686l.51,1.125a5,5,0,0,1-1.468.831A5.782,5.782,0,0,1,133.869,142.185Zm1-8.508a2.191,2.191,0,0,0-1.578.7,4.006,4.006,0,0,0-1.015,1.775l.018.053h4.28l.018-.141a2.539,2.539,0,0,0-.246-1.727A1.586,1.586,0,0,0,134.871,133.677Z" transform="translate(373 480)" fill="#fc5f65"/>
  </g>
</svg>
