<svg xmlns="http://www.w3.org/2000/svg" xmlns:xlink="http://www.w3.org/1999/xlink" width="715" height="250.505" viewBox="0 0 715 250.505">
  <defs>
    <clipPath id="clip-path">
      <rect id="Rectangle_338292" data-name="Rectangle 338292" width="262" height="214" transform="translate(806 3498)" fill="none" stroke="#707070" stroke-width="1"/>
    </clipPath>
    <clipPath id="clip-path-2">
      <rect id="Rectangle_338387" data-name="Rectangle 338387" width="153.537" height="462.331" fill="none"/>
    </clipPath>
    <clipPath id="clip-path-3">
      <path id="Path_204746" data-name="Path 204746" d="M0,0H244l-.406,240.312H89.748S62.356,246.8,50.06,246.8s-25.609-20.705-25.609-20.705H0Z" transform="translate(1068 3470.723)" fill="none" stroke="#707070" stroke-width="1"/>
    </clipPath>
    <clipPath id="clip-path-4">
      <rect id="Rectangle_338386" data-name="Rectangle 338386" width="242.736" height="322.687" fill="none"/>
    </clipPath>
    <clipPath id="clip-path-6">
      <rect id="Rectangle_338383" data-name="Rectangle 338383" width="15.903" height="11.696" fill="none"/>
    </clipPath>
  </defs>
  <g id="_2" data-name="2" transform="translate(-443 -2952.995)">
    <g id="Group_982432" data-name="Group 982432" transform="translate(443 2952.792)">
      <path id="Rectangle_338258" data-name="Rectangle 338258" d="M61,0H654a61,61,0,0,1,61,61v66.708a0,0,0,0,1,0,0H0a0,0,0,0,1,0,0V61A61,61,0,0,1,61,0Z" transform="translate(0 123)" fill="#3c3fa7"/>
    </g>
    <rect id="Rectangle_338291" data-name="Rectangle 338291" width="610" height="9" transform="translate(496 3194.5)" fill="#fff"/>
    <g id="Mask_Group_420" data-name="Mask Group 420" transform="translate(-262 -516.728)" clip-path="url(#clip-path)">
      <g id="Group_982516" data-name="Group 982516" transform="translate(-42.558 41.217)">
        <g id="Group_982515" data-name="Group 982515" transform="translate(0 -22.706)">
          <g id="Group_982513" data-name="Group 982513">
            <path id="Path_204741" data-name="Path 204741" d="M218.109,19.435H163.673c-3.347,0-6.916.163-6.916,5.036s-.756,35.212-.084,39.806c.557,3.817,2.538,5.672,10.793,5.835s45.515-.115,49.751,0c2.676.073,7.7.073,8.031-5.684.34-5.863.248-33.866.213-39.143.035-6.254-7.353-5.848-7.353-5.848" transform="translate(872.258 3466.276)" fill="#e28279"/>
            <path id="Path_204742" data-name="Path 204742" d="M187.775,61.132s-.434,8.686-3.908,15.2c0,0,11.075-1.954,14.549-16.721Z" transform="translate(876.479 3472.449)" fill="#e28279"/>
          </g>
          <path id="Path_204743" data-name="Path 204743" d="M213.23,29.9H165.939c-.323,0-.668.01-.668.33s-.074,2.307-.008,2.608c.053.249.245.371,1.042.382s46.428-.006,46.838,0c.26,0,.744,0,.776-.373s.024-2.218.021-2.564c0-.41-.709-.383-.709-.383" transform="translate(873.616 3467.884)" fill="#fff"/>
          <path id="Path_204744" data-name="Path 204744" d="M213.23,40.836H165.939c-.323,0-.668.01-.668.33s-.074,2.307-.008,2.608c.053.249.245.371,1.042.382s46.428-.006,46.838,0c.26,0,.744,0,.776-.373s.024-2.218.021-2.564c0-.41-.709-.383-.709-.383" transform="translate(873.616 3469.564)" fill="#fff"/>
          <path id="Path_204745" data-name="Path 204745" d="M213.23,52.27H165.939c-.323,0-.668.01-.668.33s-.074,2.307-.008,2.608c.053.249.245.371,1.042.382s46.428-.006,46.838,0c.26,0,.744,0,.776-.373s.024-2.218.021-2.564c0-.41-.709-.383-.709-.383" transform="translate(873.616 3471.32)" fill="#fff"/>
        </g>
        <g id="Group_982714" data-name="Group 982714" transform="translate(891.558 3457)">
          <g id="Group_982713" data-name="Group 982713" clip-path="url(#clip-path-2)">
            <path id="Path_205367" data-name="Path 205367" d="M52.614,120.837s12.222-2.037,25.849-2.9,31.575.953,31.575.953S97.559,147.628,76.62,141.939s-24.006-21.1-24.006-21.1" transform="translate(7.388 16.527)" fill="#050504"/>
            <path id="Path_205368" data-name="Path 205368" d="M3.015,276.723S-.1,233.453,5.9,202.854c8.756-44.683,19.656-58.473,25.218-64.585,7.788-8.561,24.988-12.91,24.988-12.91L69.45,123.63,68.4,105.924l30.894.258,1.559,16.1s10.963,5.416,15.738,7.916c.718,16.535,11.455,16.29,13.526,32.414-.138.056-.269.119-.407.174l1.633,93.647s-32.893,20.938-91.29-1.371l-1.544-82.473s-9.743,38.52-11.889,49-3.579,53.967-3.579,53.967,7.611,12.842,5.546,16.253-6.164-4.237-6.164-4.237,3.558,18.92.286,19.023-5.7-14.546-5.7-14.546.854,18.366-3.5,17.251c-2.537-.758-1.624-16.4-1.624-16.4s-2.015,15.607-4.752,14.965-.167-15.537-.167-15.537-3.031,12.121-5.8,11.266.04-18.6,1.85-26.869" transform="translate(0 14.874)" fill="#e7a17e"/>
            <path id="Path_205369" data-name="Path 205369" d="M60.614,116.656l-.636-10.731,30.894.258,1.245,12.85c-8.025.562-20.09.618-31.5-2.377" transform="translate(8.422 14.874)" fill="#dd8865"/>
            <path id="Path_205370" data-name="Path 205370" d="M70.975,411.705,81.75,253.579l-47.443-5.793S45.714,368.175,51.441,406.928c0,0-30.3,10.925-30.181,16.624s34.961,1.416,34.961,1.416,21.294,5.329,14.755-13.263" transform="translate(2.985 34.794)" fill="#e7a17e"/>
            <path id="Path_205371" data-name="Path 205371" d="M91,413.766S83.165,308.37,78.381,231.7c-.714-11.425,42.459,16.772,42.459,16.772s-6.408,120.759-10.524,159.714c0,0,29.719,9.456,29.838,15.155s-33.866,3.069-33.866,3.069S85.233,432.614,91,413.766" transform="translate(11.005 32.152)" fill="#e7a17e"/>
            <path id="Path_205372" data-name="Path 205372" d="M123.593,391.516c9.44,4.056,12.41,8.081,12.41,8.081s-.441,1.318-13.431,3.027a17.053,17.053,0,0,1,1.021-11.108" transform="translate(17.143 54.976)" fill="#fff"/>
            <path id="Path_205373" data-name="Path 205373" d="M89.056,389.551c12.331,6.3,26.7-1.673,26.7-1.673a81.519,81.519,0,0,1,12.638,4.149,17.053,17.053,0,0,0-1.021,11.108c-3.348.44-7.515.905-12.74,1.382-25.494,2.325-26.694-4.285-26.694-4.285a36.51,36.51,0,0,1,1.116-10.681" transform="translate(12.342 54.465)" fill="#e4bb5b"/>
            <path id="Path_205374" data-name="Path 205374" d="M87.935,398.726a37.943,37.943,0,0,0,.588,3.964s7.414,2.365,27.452,1.95c22.39-.464,25.2-3.377,25.2-3.377a7.042,7.042,0,0,0-.377-2.662,124.046,124.046,0,0,1-52.864.124" transform="translate(12.348 55.971)" fill="#fff"/>
            <path id="Path_205375" data-name="Path 205375" d="M119.1,389.719a8.154,8.154,0,0,0-3.324,7.772" transform="translate(16.249 54.723)" fill="none" stroke="#57687e" stroke-linecap="round" stroke-linejoin="round" stroke-width="0.538"/>
            <path id="Path_205376" data-name="Path 205376" d="M115.093,388.5s-3.357,2.107-3.224,7.765" transform="translate(15.708 54.552)" fill="none" stroke="#57687e" stroke-linecap="round" stroke-linejoin="round" stroke-width="0.538"/>
            <path id="Path_205377" data-name="Path 205377" d="M113.41,390.844s2.661-6.519-.136-6.559S113.41,390.844,113.41,390.844Z" transform="translate(15.736 53.96)" fill="none" stroke="#57687e" stroke-linecap="round" stroke-linejoin="round" stroke-width="0.538"/>
            <path id="Path_205378" data-name="Path 205378" d="M113.994,390.525s-4.64-5.3-5.926-2.812S113.994,390.525,113.994,390.525Z" transform="translate(15.153 54.349)" fill="none" stroke="#57687e" stroke-linecap="round" stroke-linejoin="round" stroke-width="0.538"/>
            <path id="Path_205379" data-name="Path 205379" d="M31.321,226.667s3.242,90.282,10.421,175.47c.689,8.167,32.779-.68,32.779-.68l5.11-134.56L92.387,400.832s24.964,4.391,32.1-.411c0,0,5.8-19.792,2.624-172.38Z" transform="translate(4.398 31.828)" fill="#2e2646"/>
            <path id="Path_205380" data-name="Path 205380" d="M93.587,265.292a.307.307,0,0,0,0-.614c-14.288-.468-34.6-4.656-34.806-4.7a.314.314,0,0,0-.362.239.306.306,0,0,0,.238.363c.2.041,20.567,4.24,34.908,4.71h.017" transform="translate(8.203 36.505)" fill="#1a162b"/>
            <path id="Path_205381" data-name="Path 205381" d="M110.371,397.289a.308.308,0,0,0,.3-.3l1.617-162.813a.307.307,0,0,0-.3-.31h-.009a.307.307,0,0,0-.3.3l-1.618,162.813a.307.307,0,0,0,.3.31h.009" transform="translate(15.454 32.839)" fill="#1a162b"/>
            <path id="Path_205382" data-name="Path 205382" d="M65.955,394.524a.308.308,0,0,0,.3-.3l2.212-131.747a.307.307,0,0,0-.615-.009L65.641,394.213a.307.307,0,0,0,.3.311h.01" transform="translate(9.217 36.812)" fill="#1a162b"/>
            <path id="Path_205383" data-name="Path 205383" d="M71.216,258.177c.169,0,.3-.2.3-.427l-.644-31.1c0-.232-.146-.417-.316-.414s-.3.2-.3.426l.644,31.1c.006.232.147.417.316.414" transform="translate(9.865 31.767)" fill="#1a162b"/>
            <path id="Path_205384" data-name="Path 205384" d="M112.142,261.066a.3.3,0,0,0,.211-.09.308.308,0,0,0,0-.435,42.859,42.859,0,0,1-12.476-32.528.306.306,0,0,0-.289-.324.3.3,0,0,0-.324.289,43.483,43.483,0,0,0,12.656,33,.306.306,0,0,0,.222.089" transform="translate(13.929 31.972)" fill="#1a162b"/>
            <path id="Path_205385" data-name="Path 205385" d="M33.369,256.1a.371.371,0,0,0,.091-.015c4.8-1.594,8.854-6.127,10.574-11.831,1.751-5.807,1.079-12.02.422-16.191a.307.307,0,1,0-.607.1c.649,4.109,1.311,10.231-.4,15.917-1.662,5.515-5.563,9.893-10.181,11.424a.307.307,0,0,0,.1.6" transform="translate(4.642 31.988)" fill="#1a162b"/>
            <path id="Path_205386" data-name="Path 205386" d="M71.115,256.584c.171,0,4.2-.18,5.025-8.32.795-7.887.778-18.548.778-18.655a.306.306,0,0,0-.307-.306h-.006a.308.308,0,0,0-.3.307c0,.107.017,10.736-.775,18.592-.762,7.553-4.392,7.767-4.428,7.769a.307.307,0,0,0,.015.614" transform="translate(9.942 32.198)" fill="#1a162b"/>
            <path id="Path_205387" data-name="Path 205387" d="M125.658,239a.314.314,0,0,1-.079-.009c-31.607-8.224-73.4-6.463-87.131-5.888-4.962.209-4.962.209-5.069-.088a.287.287,0,0,1,.4-.351c.336.046,2.244-.034,4.643-.136,13.755-.575,55.609-2.339,87.3,5.906a.288.288,0,0,1-.067.566" transform="translate(4.685 32.572)" fill="#1a162b"/>
            <path id="Path_205388" data-name="Path 205388" d="M75.025,228.454c.025,1.274-.724,2.322-1.676,2.341s-1.747-1-1.772-2.269.724-2.323,1.676-2.342,1.745,1,1.772,2.271" transform="translate(10.05 31.76)" fill="#1a162b"/>
            <path id="Path_205389" data-name="Path 205389" d="M32.079,393.44c-9.265,4.444-12.064,8.589-12.064,8.589s.495,1.3,13.545,2.468a17.049,17.049,0,0,0-1.48-11.056" transform="translate(2.81 55.246)" fill="#fff"/>
            <path id="Path_205390" data-name="Path 205390" d="M69.795,389.911c-12.06,6.8-26.745-.566-26.745-.566a81.46,81.46,0,0,0-12.456,4.67,17.053,17.053,0,0,1,1.48,11.055c3.363.3,7.546.594,12.785.853,25.568,1.267,26.493-5.386,26.493-5.386a36.466,36.466,0,0,0-1.558-10.626" transform="translate(4.296 54.671)" fill="#e4bb5b"/>
            <path id="Path_205391" data-name="Path 205391" d="M72.875,399.159a37.946,37.946,0,0,1-.423,3.985s-7.31,2.671-27.348,3.087c-22.39.464-25.318-2.33-25.318-2.33a7.035,7.035,0,0,1,.266-2.675,124.042,124.042,0,0,0,52.824-2.066" transform="translate(2.774 56.049)" fill="#fff"/>
            <path id="Path_205392" data-name="Path 205392" d="M35.236,391.449a8.155,8.155,0,0,1,3.644,7.628" transform="translate(4.948 54.966)" fill="none" stroke="#57687e" stroke-linecap="round" stroke-linejoin="round" stroke-width="0.538"/>
            <path id="Path_205393" data-name="Path 205393" d="M39.173,390.064s3.442,1.967,3.543,7.625" transform="translate(5.501 54.772)" fill="none" stroke="#57687e" stroke-linecap="round" stroke-linejoin="round" stroke-width="0.538"/>
            <path id="Path_205394" data-name="Path 205394" d="M40.852,392.348s-2.927-6.4-.136-6.557S40.852,392.348,40.852,392.348Z" transform="translate(5.548 54.171)" fill="none" stroke="#57687e" stroke-linecap="round" stroke-linejoin="round" stroke-width="0.538"/>
            <path id="Path_205395" data-name="Path 205395" d="M40.689,392.054s4.417-5.483,5.8-3.056S40.689,392.054,40.689,392.054Z" transform="translate(5.713 54.535)" fill="none" stroke="#57687e" stroke-linecap="round" stroke-linejoin="round" stroke-width="0.538"/>
            <path id="Path_205396" data-name="Path 205396" d="M45.775,123.285a81.57,81.57,0,0,1,10.2-2.615,59.614,59.614,0,0,0,24.989,4.51,55.645,55.645,0,0,0,24.136-6.289s1.794,9.534,9.941,5.912c5.87,19.527,16.371,27.3,22.238,46.976-.328.179-.657.371-.986.511,0,0-1.246,6.779,1.057,20.518,3.279,19.541.411,49.958-2.413,53.869s-1.621,4-25.215-.262-62.779-5.009-73.186,1.08-7.593-15.827-7.236-16.163,2.072-12.712.116-23.429a14.151,14.151,0,0,1,1.234-8.643" transform="translate(4.028 16.694)" fill="#050504"/>
            <path id="Path_205397" data-name="Path 205397" d="M33.608,198.718c-8.755-1.113-19.158-11.109-26-18.825,3-14.814,7.976-29.728,16.568-39.362,7.05-7.907,12.61-13.8,24.558-17.788" transform="translate(1.068 17.235)" fill="#050504"/>
            <path id="Path_205398" data-name="Path 205398" d="M129.424,193.44s10.035-4.786,5.875-24.3L118,175.6Z" transform="translate(16.57 23.75)" fill="#dd8865"/>
            <path id="Path_205399" data-name="Path 205399" d="M112.61,195.388c8.79-.788,19.556-10.391,26.679-17.848-2.45-14.916-6.868-30-15.1-39.95-6.752-8.161-12.09-14.26-23.881-18.685" transform="translate(14.085 16.697)" fill="#050504"/>
            <path id="Path_205400" data-name="Path 205400" d="M78.46,130.969c20.826.387,31.074-13.83,31.179-13.979a.287.287,0,0,0-.47-.331c-.108.154-11.143,15.429-33.629,13.586a65.282,65.282,0,0,1-25.826-7.483.288.288,0,0,0-.3.493,65.966,65.966,0,0,0,26.077,7.563q1.516.127,2.966.152" transform="translate(6.92 16.364)" fill="#282822"/>
            <path id="Path_205401" data-name="Path 205401" d="M33.746,190.224a.287.287,0,0,0,.066-.568c-16.284-3.58-25.138-19.93-25.226-20.1a.287.287,0,1,0-.507.27c.089.166,9.063,16.749,25.612,20.386a.234.234,0,0,0,.056.007" transform="translate(1.13 23.788)" fill="#282822"/>
            <path id="Path_205402" data-name="Path 205402" d="M31.321,197.709a.276.276,0,0,0,.115-.022.289.289,0,0,0,.156-.375c-.022-.052-2.125-5.506.89-23.893a.288.288,0,0,0-.569-.094c-3.051,18.616-.944,23.986-.852,24.206a.287.287,0,0,0,.26.177" transform="translate(4.25 24.304)" fill="#282822"/>
            <path id="Path_205403" data-name="Path 205403" d="M32.888,173.43a.288.288,0,0,0,.29-.242c4.469-27.635,5.115-45,5.122-45.174a.29.29,0,0,0-.278-.3.293.293,0,0,0-.3.277c-.006.171-.652,17.508-5.115,45.1a.289.289,0,0,0,.239.33.247.247,0,0,0,.04,0" transform="translate(4.578 17.933)" fill="#282822"/>
            <path id="Path_205404" data-name="Path 205404" d="M123.793,167.259a.287.287,0,0,0,.2-.5c-.129-.114-13.011-11.444-16.227-14.721a.288.288,0,0,0-.411.4c3.23,3.292,16.129,14.635,16.258,14.75a.292.292,0,0,0,.185.071" transform="translate(15.062 21.336)" fill="#282822"/>
            <path id="Path_205405" data-name="Path 205405" d="M31.389,229.736a.285.285,0,0,0,.165-.05c.088-.058,9.029-5.926,29.265-5.63.1,0,.208,0,.31,0,8.745.163,21.69,1.845,34.214,3.473,17.293,2.248,33.629,4.369,37.765,2.377a.29.29,0,0,0,.133-.384.285.285,0,0,0-.384-.135c-3.982,1.92-20.236-.19-37.441-2.428-12.539-1.629-25.5-3.314-34.275-3.476l-.314-.006c-20.44-.3-29.5,5.669-29.594,5.731a.288.288,0,0,0,.155.526" transform="translate(4.368 31.379)" fill="#282822"/>
            <path id="Path_205406" data-name="Path 205406" d="M90.993,218.335a.28.28,0,0,0,.153-.042,112.464,112.464,0,0,0,30.825-27.174.287.287,0,0,0-.452-.355A111.955,111.955,0,0,1,90.85,217.8a.285.285,0,0,0-.1.393.29.29,0,0,0,.241.14" transform="translate(12.737 26.771)" fill="#282822"/>
            <path id="Path_205407" data-name="Path 205407" d="M104.107,225.286a.282.282,0,0,0,.217-.092,63.1,63.1,0,0,0,14.613-27.189.287.287,0,1,0-.557-.139A62.539,62.539,0,0,1,103.9,224.8a.287.287,0,0,0,.018.406.275.275,0,0,0,.188.075" transform="translate(14.579 27.753)" fill="#282822"/>
            <path id="Path_205408" data-name="Path 205408" d="M31.775,34.689a14.8,14.8,0,0,0-7.957,23.733,5.467,5.467,0,0,1,1.2,1.845,4.76,4.76,0,0,1-.671,3.217c-1.518,3.238-2.921,6.727-2.531,10.282s3.184,7.09,6.76,7.08" transform="translate(2.88 4.871)" fill="none" stroke="#63453c" stroke-miterlimit="10" stroke-width="1.008"/>
            <path id="Path_205409" data-name="Path 205409" d="M108.3,42.15c-1.14-1.145-2.076-2.1-2.8-2.835,1.868,3.741,4.184,8.106,5.181,8.879,0,0,3.873,21.9,6.468,25.87s4.551-10.672,1.918-19.27c-1.554-5.076-2.967-7.594-3.866-8.813-1.982-.709-5.11-2.03-6.905-3.832" transform="translate(14.815 5.521)" fill="#795948"/>
            <path id="Path_205410" data-name="Path 205410" d="M117.149,40.425s8.21,16.222,10.775,40.889c2,19.247-11.406,39.682-34.746,43.652-21.936,3.73-45.806-2.776-55.91-33.037S34.35,35.988,61.743,26.182s47.672-4.377,55.406,14.244" transform="translate(4.621 3.002)" fill="#e7a17e"/>
            <path id="Path_205411" data-name="Path 205411" d="M75.077,88.963c-.3,3.3-5.565,5.517-11.751,4.946S52.374,90.2,52.679,86.9s5.566-5.517,11.751-4.946,10.951,3.711,10.647,7.014" transform="translate(7.395 11.495)" fill="#dd8865"/>
            <path id="Path_205412" data-name="Path 205412" d="M116.3,79.837c1.04,3.15-2.9,7.282-8.8,9.228s-11.522.973-12.562-2.177,2.9-7.28,8.8-9.228,11.522-.973,12.562,2.177" transform="translate(13.307 10.764)" fill="#dd8865"/>
            <path id="Path_205413" data-name="Path 205413" d="M82.257,32.821c-.138-.155-.227-.239-.227-.239s.082.089.227.239" transform="translate(11.518 4.575)" fill="#795948"/>
            <path id="Path_205414" data-name="Path 205414" d="M135.4,23.369c1.413-7.321-5.166-3.671-5.166-3.671s1.534-6.17-3.364-9.357-14.544,1.511-18.458,1.919c0,0,5.934-7.359.515-11.361S88.778,7.438,83.692,9.395c-10.847,4.172-12.6-1.785-30.749,5.154A21.808,21.808,0,0,0,41.814,24.62s1.105-14.466-3.175-13.8-3.054,18.723-3.054,18.723-11.04-3.713-11.616,1.208,7.117,8.906,7.117,8.906S14.573,51.22,25.932,62.182c0,0-7.41,8.2-4.539,17a5.851,5.851,0,0,0,4.521,3.734s-7.233,9.911,2.405,18.954,15.528,23.868,24.6,21.184-5.29-15.323-9.031-19.935-2.218-10.766-1.063-23.762,3.112-29.725,3.112-29.725,29.414,10.422,40.606,2.3c9.959-7.228,5.44-13.288,4.322-14.537-.145-.152-.228-.241-.228-.241s.09.084.228.241c1.582,1.641,11.344,11.32,20.27,9.805,6.881-1.168,3.562-7.981,3.562-7.981s1.213,2.6,2.716,5.614c.721.737,1.656,1.69,2.8,2.834,1.8,1.8,4.923,3.124,6.9,3.831a4.243,4.243,0,0,0-1-1.072s9.773,2.68,8.462-7.839c-.622-6.021-6.213-9.573-6.213-9.573a13.125,13.125,0,0,0,7.042-9.648" transform="translate(2.911 0)" fill="#795948"/>
            <path id="Path_205415" data-name="Path 205415" d="M49.566,95.674,42.525,78.141s-17.191-4.3-16.284,12.782,18.85,16.088,23.325,4.751" transform="translate(3.68 10.905)" fill="#e7a17e"/>
            <path id="Path_205416" data-name="Path 205416" d="M54.863,70.178s-4.212-3.91,3.189-10.117,10.32-5.313,11.89-2.758c1.432,2.33-.008,6.2-4.224,9.572-5.06,4.05-8.554,5.563-10.854,3.3" transform="translate(7.536 7.773)" fill="#795948"/>
            <path id="Path_205417" data-name="Path 205417" d="M111.509,61.983s2.342-5.248-6.9-8.058-11.576-.844-12.02,2.122c-.4,2.705,2.436,5.7,7.636,7.15,6.243,1.744,10.051,1.765,11.281-1.215" transform="translate(12.996 7.381)" fill="#795948"/>
            <path id="Path_205418" data-name="Path 205418" d="M69.235,75.182c.241,2.316-1.105,4.355-3.006,4.553s-3.637-1.52-3.877-3.836,1.105-4.355,3.005-4.554,3.638,1.52,3.879,3.838" transform="translate(8.751 10.016)"/>
            <path id="Path_205419" data-name="Path 205419" d="M102.845,70.694c.241,2.316-1.105,4.355-3.006,4.553s-3.637-1.52-3.877-3.836,1.105-4.355,3.006-4.554,3.637,1.521,3.877,3.838" transform="translate(13.471 9.386)"/>
            <path id="Path_205420" data-name="Path 205420" d="M43.555,96.583a.347.347,0,0,1-.144-.016.343.343,0,0,1-.217-.433c.03-.087,2.812-8.634-3.282-11.841a7.585,7.585,0,0,0-6.019-.781,9.451,9.451,0,0,0-4.862,4.416.343.343,0,1,1-.617-.3,9.98,9.98,0,0,1,5.258-4.767,8.24,8.24,0,0,1,6.557.823c6.612,3.481,3.645,12.574,3.614,12.665a.344.344,0,0,1-.29.231" transform="translate(3.985 11.585)" fill="#634927"/>
            <path id="Path_205421" data-name="Path 205421" d="M33.77,90.151a.342.342,0,0,1-.268-.592c.052-.048,5.334-4.814,10.015-1.008a.343.343,0,1,1-.432.531c-4.224-3.434-9.07.937-9.119.981a.332.332,0,0,1-.2.088" transform="translate(4.689 12.227)" fill="#634927"/>
            <path id="Path_205422" data-name="Path 205422" d="M88.78,84.4a.343.343,0,0,1-.209-.636,9.25,9.25,0,0,0,3.574-4.124c.749-2.013.155-4.858-1.245-5.97a2.413,2.413,0,0,0-3.018.13c-.036.024-.092.065-.168.12-3.939,2.869-5.944,1.973-6.933.714-1.813-2.31-2.5-21.967-2.568-24.2a.348.348,0,0,1,.332-.354.344.344,0,0,1,.354.332c.193,6.008,1,21.994,2.422,23.8,1.166,1.486,3.182,1.2,5.989-.844.087-.063.152-.111.193-.138a3.084,3.084,0,0,1,3.822-.1c1.633,1.3,2.316,4.449,1.462,6.746a9.778,9.778,0,0,1-3.871,4.476.341.341,0,0,1-.137.046" transform="translate(10.983 7.032)" fill="#634927"/>
            <path id="Path_205423" data-name="Path 205423" d="M37.576,41.249a104.309,104.309,0,0,0,19.745,7.718,64.69,64.69,0,0,0,10.371,1.926,35.449,35.449,0,0,0,10.444-.383,21.423,21.423,0,0,0,4.928-1.682,13.832,13.832,0,0,0,4.173-2.99,9.835,9.835,0,0,0,2.385-4.432,12.5,12.5,0,0,0,.068-5.1,22.914,22.914,0,0,0-4.336-9.42,18.631,18.631,0,0,0-1.706-1.965,5.738,5.738,0,0,0-1.94-1.4c-.155-.04-.2-.007-.162-.03a.511.511,0,0,0-.029.244,3.553,3.553,0,0,0,.334,1.1,15.313,15.313,0,0,0,1.3,2.236,49.136,49.136,0,0,0,7.007,7.91,44.881,44.881,0,0,0,8.479,6.292,22.257,22.257,0,0,0,4.814,2.028,10.49,10.49,0,0,0,5.052.252,5.421,5.421,0,0,0,3.668-3.048,11.81,11.81,0,0,0,1-5,21.97,21.97,0,0,0-.615-5.188,16.163,16.163,0,0,0-1.881-4.813,4.019,4.019,0,0,0-.772-.9,1.082,1.082,0,0,0-.408-.225c-.159-.016-.073-.018-.119.007a2.052,2.052,0,0,0-.117,1,9.813,9.813,0,0,0,.172,1.261,30.813,30.813,0,0,0,1.561,5.021A46.258,46.258,0,0,0,115.928,41a21.377,21.377,0,0,0,3.434,3.918,6.238,6.238,0,0,0,4.437,1.837h.009a.514.514,0,0,1,.1,1.023H123.9a7.2,7.2,0,0,1-5.2-2.094,22.443,22.443,0,0,1-3.588-4.117,47.229,47.229,0,0,1-5.01-9.558,31.708,31.708,0,0,1-1.589-5.19,10.493,10.493,0,0,1-.184-1.387,2.621,2.621,0,0,1,.3-1.6.921.921,0,0,1,.519-.358,1.133,1.133,0,0,1,.557,0,1.985,1.985,0,0,1,.762.4A4.865,4.865,0,0,1,111.438,25a17.005,17.005,0,0,1,2.014,5.1,22.931,22.931,0,0,1,.647,5.41,12.71,12.71,0,0,1-1.09,5.4,6.376,6.376,0,0,1-4.283,3.555,11.422,11.422,0,0,1-5.526-.251,23.279,23.279,0,0,1-5.027-2.107A45.823,45.823,0,0,1,89.5,35.695a50.072,50.072,0,0,1-7.163-8.07,16.319,16.319,0,0,1-1.382-2.388,4.355,4.355,0,0,1-.42-1.448,1.281,1.281,0,0,1,.323-1,1.128,1.128,0,0,1,1.1-.225,6.392,6.392,0,0,1,2.394,1.651,19.791,19.791,0,0,1,1.8,2.069,23.894,23.894,0,0,1,4.538,9.845,13.51,13.51,0,0,1-.074,5.517,10.862,10.862,0,0,1-2.622,4.889,15.507,15.507,0,0,1-4.456,3.234A24.448,24.448,0,0,1,78.4,51.648a33.867,33.867,0,0,1-10.837.769,57.131,57.131,0,0,1-10.639-1.981,89.717,89.717,0,0,1-19.85-8.292.513.513,0,0,1,.485-.9Z" transform="translate(5.169 3.16)" fill="#63453c"/>
            <path id="Path_205424" data-name="Path 205424" d="M95.307,128.528l4.529,33.022,27.982-6.325-22.662-43.606S102.4,98.175,99.277,99.827s-2.736,10.617-2.736,10.617-20.33-4.77-20.59-1.879,12.585,5.794,12.585,5.794-9.251-1.778-8.488,2.131c.542,2.285,7.473,2.358,7.473,2.358s-7.23.151-6.8,2.607,7.057,1.777,7.057,1.777-5.858.71-5.244,3.209S87.78,129.377,95.2,128.2" transform="translate(10.664 13.998)" fill="#e7a17e"/>
            <path id="Path_205425" data-name="Path 205425" d="M124.877,148.388s21.7,36.662,7.391,49.492-24.584,2.472-27.987-9.477-7.386-33.69-7.386-33.69" transform="translate(13.606 20.836)" fill="#e7a17e"/>
            <path id="Path_205426" data-name="Path 205426" d="M114.5,129.606l-9.348-17.987S102.4,98.175,99.277,99.827s-2.736,10.617-2.736,10.617-20.33-4.77-20.59-1.879,12.585,5.794,12.585,5.794-9.251-1.778-8.487,2.131c.541,2.285,7.472,2.358,7.472,2.358s-7.23.151-6.8,2.607,7.056,1.776,7.056,1.776-5.858.712-5.243,3.21,5.249,2.934,12.667,1.757" transform="translate(10.664 13.998)" fill="none" stroke="#634927" stroke-miterlimit="10" stroke-width="0.529"/>
            <path id="Path_205427" data-name="Path 205427" d="M78.323,87.341a9.363,9.363,0,0,1,.392-2.978,47.11,47.11,0,0,1,14.373,3.243,12.976,12.976,0,0,1-1.455,3,35.7,35.7,0,0,0-13.31-3.267" transform="translate(10.997 11.846)"/>
            <path id="Path_205428" data-name="Path 205428" d="M91.632,90.241c-1.362,2.072-3.758,4.291-7.532,3.317-4.656-1.2-5.706-4.249-5.777-6.585a35.7,35.7,0,0,1,13.31,3.267" transform="translate(10.998 12.213)" fill="#7c3645"/>
          </g>
        </g>
      </g>
    </g>
    <g id="Group_421" data-name="Group 421" transform="translate(-262 -517.728)" clip-path="url(#clip-path-3)">
      <g id="Group_982704" data-name="Group 982704" transform="translate(1076.564 3476)">
        <g id="Group_982712" data-name="Group 982712" clip-path="url(#clip-path-4)">
          <g id="Group_982711" data-name="Group 982711">
            <g id="Group_982710" data-name="Group 982710" clip-path="url(#clip-path-4)">
              <path id="Path_205340" data-name="Path 205340" d="M100.469,107.962c5.824.749,11.992,1.485,17.87,1.092,13.648-.91,27.42-1.26,41.138-1.7a46.254,46.254,0,0,1,1.248-11.292,86.142,86.142,0,0,0,1.514,8.756,4.127,4.127,0,0,0,1.294,2.56,4.21,4.21,0,0,0,2.571.514l19.532-.3a121.8,121.8,0,0,0-.247-13.372,60.539,60.539,0,0,1,3.214,11.108,76.751,76.751,0,0,0,26-3.051c.332-4.092.661-8.243-.109-12.277s-2.785-8-6.233-10.234a10.35,10.35,0,0,1-2.393-1.734c-1.7-1.99-.763-5-1-7.611-.635-7.134-7.48-14.75-14.081-16.839-2.72-.86-5.675-1.135-8.113-2.614-3.109-1.883-4.849-5.429-5.669-8.97s-.884-7.212-1.536-10.787C172.489,14.857,160.3,4.175,144.3,1.062a36,36,0,0,0-15.6,0,14.548,14.548,0,0,1-4.687.791A16.815,16.815,0,0,1,120.292.8c-7.665-2.5-16.847,1.226-23.007,5.819A36.17,36.17,0,0,0,83.748,27.478c-1.132,5.034-1.468,10.857-5.456,14.131a20.776,20.776,0,0,1-5.629,2.829c-9.242,3.7-18.248,10.947-19.277,20.85-.458,4.415.653,9.252-1.637,13.056-2.167,3.6-6.7,5.039-9.468,8.2-3.813,4.365-3.463,10.881-2.637,16.617a4.162,4.162,0,0,0,.847,2.333,4.026,4.026,0,0,0,2.435.963,45.622,45.622,0,0,0,9.486.383l2.464-10.158L55.9,106.837a127.216,127.216,0,0,0,23.063,1.021q.81-4.976,1.618-9.952.717,3.974,1.433,7.948a2.819,2.819,0,0,0,3.518,2.808l12.187.1q.645-4.971,1.292-9.943l1.455,9.142" transform="translate(6.718 0)" fill="#feb777"/>
              <path id="Path_205341" data-name="Path 205341" d="M242.264,291.955q-2.57-6.825-4.7-13.807a64.031,64.031,0,0,1-1.486-6.487c.04-.021.082-.036.123-.056-5.8-34.906-23.587-124.685-56.158-148.038a21.185,21.185,0,0,0-4.1-2.269l-34.518-14.6.827-28.779L120.14,82.789l-3.05,24.747s-36.9,2.428-47.726,14.748S44.93,163.727,44.93,163.727L31.684,120.806c-.155-.811-.332-1.617-.471-2.43a27.708,27.708,0,0,1-.7-5.025,21.456,21.456,0,0,1,1.034-5.07c1.325-4.8,4.309-9.018,5.538-13.841-.785-.95-2.324-.252-3.249.562a22.642,22.642,0,0,0-6.55,9.986q-.991-8.395-2.267-16.751A38.2,38.2,0,0,0,23,79.707c-.229-.567-.663-1.227-1.264-1.116-.541.1-.753.752-.838,1.3a38.289,38.289,0,0,0,0,8.691q.562,7.389,1.124,14.781c-1.56-6.241-2.745-12.754-4.654-18.872-.259-.828-3.045-8.938-4.36-7.019a4.452,4.452,0,0,0-.591,2.442c-.084,3.836.741,7.947,1.291,11.754.541,3.743.811,8.263,2.2,11.8l-3.821-9.714c-1.152-2.926-2.068-6.169-3.645-8.9-.4-.684-2.558-3.888-3.439-2.809-.489.6.547,3.6.718,4.318A39.7,39.7,0,0,0,7,90.62c1.685,4.652,3.229,9.344,4.754,14.071C8.867,99.862,6.11,94.623.868,92.1A.777.777,0,0,0,.276,92c-.415.157-.291.772-.091,1.168,2.3,4.568,4.81,9.106,6.71,13.84A33.434,33.434,0,0,1,8.92,119.058a71.334,71.334,0,0,0,.741,8.981c.019.128.049.238.07.362,2.641,32.7,11,99.357,35.18,96.387,0,0,18.37-3.6,30.655-45.477L83.9,215.7s-15.362,38.52-17.69,49.962c0,0,68.178,38.151,118.2,0L169.9,219.447l8.923-36.276S199.2,230.124,211.43,271.9a42.173,42.173,0,0,1,.265,7.1c-.183,3.663-1.829,7.639-2.977,11.137-.469,1.432-3.016,8.527-.326,9,.786.138,1.451-.554,1.93-1.194a39.516,39.516,0,0,0,7.163-16.212c1.174,7.988.42,15.777.859,23.792a2.947,2.947,0,0,0,.435,1.657c1.4,1.846,2.54-1.239,2.729-2.2,1.453-7.388,1.636-14.959,1.813-22.486q.631,6.916,1.26,13.832c.209,2.293.547,4.616.629,6.917.068,1.875.076,3.816,1.1,5.487.233.378.608.766,1.046.69,1.384-.238,1.322-4.5,1.3-5.45q-.239-11.318-.724-22.627a163.4,163.4,0,0,0,5.251,23.014c.316,1.037,1,2.3,2.067,2.122,1.087-.185,1.29-1.648,1.214-2.749a147.072,147.072,0,0,0-3.424-23.021c1.618,5.148,3.089,11.724,6.844,15.79a3.423,3.423,0,0,0,2.169,1.165c1.248.1.432-5.1.2-5.708" transform="translate(0 13.257)" fill="#e99988"/>
              <path id="Path_205342" data-name="Path 205342" d="M85.418,51.482a12.138,12.138,0,0,0-6.788-2.192,7.614,7.614,0,0,0-6.2,3.165,9.316,9.316,0,0,0-1.289,5.234,17.458,17.458,0,0,0,16.488,17.3" transform="translate(12.221 8.467)" fill="#e99988"/>
              <path id="Path_205343" data-name="Path 205343" d="M144.278,51.482a12.132,12.132,0,0,1,6.788-2.192,7.613,7.613,0,0,1,6.2,3.165,9.326,9.326,0,0,1,1.29,5.234A17.665,17.665,0,0,1,153.736,69.6c-4.516,4.736-10.349,7.054-16.834,5.839" transform="translate(23.517 8.467)" fill="#e99988"/>
              <path id="Path_205344" data-name="Path 205344" d="M75.5,54.821c3.883-1.053,7.325,1.919,9.345,4.925a17.309,17.309,0,0,1,2.91,10.321c-.029.779,1.18.777,1.21,0a18.389,18.389,0,0,0-3.487-11.519c-2.356-3.21-6.1-6.032-10.3-4.893a.605.605,0,0,0,.321,1.166" transform="translate(12.84 9.173)" fill="#c97567"/>
              <path id="Path_205345" data-name="Path 205345" d="M81.031,55.748a12.526,12.526,0,0,0-1.213,3.468,8.292,8.292,0,0,0,.159,3.164,8.406,8.406,0,0,0,3.59,5.059c.657.422,1.264-.625.611-1.044a7.181,7.181,0,0,1-3.035-4.336,8.343,8.343,0,0,1,.932-5.7c.327-.7-.716-1.316-1.044-.61" transform="translate(13.697 9.523)" fill="#c97567"/>
              <path id="Path_205346" data-name="Path 205346" d="M141.824,70.381a14.756,14.756,0,0,1,11.871-14.4c.763-.152.439-1.318-.321-1.166a15.966,15.966,0,0,0-12.76,15.571.605.605,0,0,0,1.209,0" transform="translate(24.155 9.413)" fill="#c97567"/>
              <path id="Path_205347" data-name="Path 205347" d="M145.6,58.884a6.084,6.084,0,0,1,1.1,4.541,4.694,4.694,0,0,1-2.469,3.321c-.7.349-.084,1.392.61,1.045a5.841,5.841,0,0,0,3.024-4.045,7.274,7.274,0,0,0-1.22-5.472c-.436-.64-1.485-.035-1.044.61" transform="translate(24.723 9.964)" fill="#c97567"/>
              <path id="Path_205348" data-name="Path 205348" d="M146.268,17.537a23.8,23.8,0,0,0-9.379-5.577,59.829,59.829,0,0,0-28.625-1.206c-6.169,1.23-14.938,3.45-19.007,8.675-6.06,7.779-8.068,20-7.687,29.632a188.662,188.662,0,0,0,3.575,29.365c1.93,9.687,7.47,19.155,17.235,22.256,9.127,2.9,19.38,3.807,28.709,1.316,8.1-2.164,13.783-8.775,17.076-16.208,3.739-8.436,6.746-17.211,7.872-26.438,1.411-11.562,3.2-25.378-4.224-35.517a43.429,43.429,0,0,0-5.544-6.3" transform="translate(14.005 1.643)" fill="#e99988"/>
              <path id="Path_205349" data-name="Path 205349" d="M101.7,51.1c0,2.5-1.039,4.521-2.32,4.521s-2.32-2.024-2.32-4.521,1.038-4.521,2.32-4.521S101.7,48.6,101.7,51.1" transform="translate(16.672 8.002)" fill="#b26356"/>
              <path id="Path_205350" data-name="Path 205350" d="M126.539,51.1c0,2.5-1.038,4.521-2.32,4.521S121.9,53.6,121.9,51.1s1.038-4.521,2.32-4.521,2.32,2.024,2.32,4.521" transform="translate(20.94 8.002)" fill="#b26356"/>
              <path id="Path_205351" data-name="Path 205351" d="M110.54,34.859q1,5.635,2,11.269c.456,2.569-.366,4.47-2.851,5.52a5.833,5.833,0,0,0-2.858,2.141c-2.475,4.186-.008,8.521,4.331,9.938.967.315,1.377-1.2.418-1.516-3.923-1.281-6.188-6.364-1.842-8.868,1.5-.864,3.63-1.223,4.228-3.138.593-1.9.23-3.708-.11-5.621q-.9-5.073-1.8-10.143c-.177-1-1.692-.573-1.516.418" transform="translate(18.183 5.818)" fill="#c97567"/>
              <path id="Path_205352" data-name="Path 205352" d="M107.434,62.712a9.084,9.084,0,0,0,12.588-2.1c.619-.8-.749-1.584-1.358-.793a7.5,7.5,0,0,1-10.437,1.533c-.841-.571-1.626.792-.793,1.358" transform="translate(18.394 10.22)" fill="#c97567"/>
              <path id="Path_205353" data-name="Path 205353" d="M106.348,35.042c.748,2.252-2.269,5.28-6.737,6.762s-8.7.859-9.445-1.393,2.27-5.281,6.738-6.764,8.7-.858,9.443,1.394" transform="translate(15.47 5.642)" fill="#b26356"/>
              <path id="Path_205354" data-name="Path 205354" d="M176.111,190c11.145-6.178,19.525-15.791,25.491-26.9-7.893-19.407-17.5-35.88-28.95-44.118a21.148,21.148,0,0,0-4.094-2.274L145.1,106.743a42.123,42.123,0,0,1-20.662,8.647c-10.173,1.109-21.14-3.263-27.3-11.083-11.751,1.8-28.446,5.6-35.158,13.222-6.215,7.053-13.345,19.612-18.308,29.058A86.446,86.446,0,0,0,51.1,163.845c.641,1.173,1.273,2.383,1.915,3.607a42.828,42.828,0,0,0,13.145,13.181c.657-1.928,1.3-3.937,1.932-6.067l8.282,36.4S60.95,249.465,58.6,260.9c0,0,68.118,38.256,118.2.184l-14.442-46.239,8.978-36.263s1.854,4.291,4.77,11.414" transform="translate(7.502 17.918)" fill="#2e5d91"/>
              <path id="Path_205355" data-name="Path 205355" d="M119.586,35.042c-.748,2.252,2.269,5.28,6.737,6.762s8.7.859,9.445-1.393-2.27-5.281-6.738-6.764-8.7-.858-9.443,1.394" transform="translate(20.523 5.642)" fill="#b26356"/>
              <path id="Path_205356" data-name="Path 205356" d="M111.69,5.611a22.741,22.741,0,0,0,.64,16.442,22.748,22.748,0,0,0,11.659,11.611c2.972,1.288,6.492,2.146,8.163,4.919,1.725,2.866.717,6.56,1.384,9.837a9.614,9.614,0,0,0,12.687,7.126,16.5,16.5,0,0,0,.882,4.742,5.571,5.571,0,0,0,3.27,3.355,5.434,5.434,0,0,0,5.473-1.854,12.69,12.69,0,0,0,2.5-5.51A41.342,41.342,0,0,0,148.666,19,41.346,41.346,0,0,0,112.2,6.588" transform="translate(18.974 0.964)" fill="#feb777"/>
              <g id="Group_982706" data-name="Group 982706" transform="translate(104.817 67.032)" opacity="0.15" style="mix-blend-mode: multiply;isolation: isolate">
                <g id="Group_982705" data-name="Group 982705">
                  <g id="Group_982704-2" data-name="Group 982704" clip-path="url(#clip-path-6)">
                    <path id="Path_205357" data-name="Path 205357" d="M105.354,63.053c0,3.229-3.56,5.847-7.952,5.847s-7.952-2.618-7.952-5.847,3.56-5.848,7.952-5.848,7.952,2.619,7.952,5.848" transform="translate(-89.451 -57.205)" fill="#ea497f"/>
                  </g>
                </g>
              </g>
              <path id="Path_205358" data-name="Path 205358" d="M174.707,260.626,160.193,214.41l8.922-36.276-11.881-32.026,2.026-32.8-4.595-1.944-1.812,32.714L116.717,164.6,83.839,139.784,82.082,106.5c-2.523.63-5.04,1.353-7.463,2.181l3.732,33.33L65.858,174.274,74.2,210.662s-15.361,38.521-17.689,49.964c0,0,68.178,38.151,118.2,0" transform="translate(9.707 18.294)" fill="#ea6eb2"/>
              <g id="Group_982709" data-name="Group 982709" transform="translate(141.458 67.032)" opacity="0.15" style="mix-blend-mode: multiply;isolation: isolate">
                <g id="Group_982708" data-name="Group 982708">
                  <g id="Group_982707" data-name="Group 982707" clip-path="url(#clip-path-6)">
                    <path id="Path_205359" data-name="Path 205359" d="M136.623,63.053c0,3.229-3.56,5.847-7.952,5.847s-7.952-2.618-7.952-5.847,3.56-5.848,7.952-5.848,7.952,2.619,7.952,5.848" transform="translate(-120.72 -57.205)" fill="#ea497f"/>
                  </g>
                </g>
              </g>
              <path id="Path_205360" data-name="Path 205360" d="M145.342,109.629l-6.922-2.927a42.126,42.126,0,0,1-20.648,8.678C107.6,116.5,96.627,112.15,90.452,104.34c-2.688.416-5.64.943-8.666,1.591a30.256,30.256,0,0,0,6.235,7.986,36.907,36.907,0,0,0,18.246,8.745c14.1,2.58,29.235-2.7,39.075-13.033" transform="translate(14.049 17.924)" fill="#244d72"/>
              <path id="Path_205361" data-name="Path 205361" d="M154.579,146.108l2.026-32.8-4.595-1.944L150.2,144.081l-36.138,20.525L81.184,139.784,79.427,106.5c-2.523.63-5.04,1.353-7.463,2.181l3.732,33.33-.93,2.4L113.2,171.78l42.539-22.538Z" transform="translate(12.362 18.294)" fill="#ce599e"/>
              <path id="Path_205362" data-name="Path 205362" d="M178.694,147.058c-5.689,12.181-13.086,23.6-23.57,31.135l.477,1.148c10.5-7.478,17.974-18.763,23.742-30.873-.213-.476-.432-.94-.648-1.411" transform="translate(26.648 25.262)" fill="#244d72"/>
              <path id="Path_205363" data-name="Path 205363" d="M67.033,169.611a79.138,79.138,0,0,1-19.854-35.479q-.427.766-.846,1.526A80.369,80.369,0,0,0,66.6,170.867a5.659,5.659,0,0,1,.43-1.256" transform="translate(7.959 23.041)" fill="#244d72"/>
              <path id="Path_205364" data-name="Path 205364" d="M81.12,57.106c-.36-12.583,12.011-22.251,13.7-34.725,8.631.857,18.084-.288,24.5-6.127,2.385-2.17,4.189-6.121,1.922-8.416a6.454,6.454,0,0,0-3.6-1.5C103.471,3.9,88.146,11.328,81.283,23.961" transform="translate(13.934 1.009)" fill="#feb777"/>
              <path id="Path_205365" data-name="Path 205365" d="M172.492,233.828l-.383-1.217A99.327,99.327,0,0,1,130.347,246.2a117.134,117.134,0,0,1-47.315-5.784,91.877,91.877,0,0,1-23.808-11.565c-.134.4-.26.8-.389,1.189a95.609,95.609,0,0,0,21.917,10.872,118.654,118.654,0,0,0,49.6,6.5,98.121,98.121,0,0,0,42.145-13.586" transform="translate(10.107 39.313)" fill="#ce599e"/>
              <path id="Path_205366" data-name="Path 205366" d="M35.163,144.282a102.272,102.272,0,0,1,7.3,31.625c.053.775,1.262.779,1.209,0a103.3,103.3,0,0,0-7.341-31.946c-.288-.714-1.459-.4-1.166.321" transform="translate(6.032 24.661)" fill="#c97567"/>
            </g>
          </g>
        </g>
      </g>
    </g>
  </g>
</svg>
