<svg xmlns="http://www.w3.org/2000/svg" xmlns:xlink="http://www.w3.org/1999/xlink" width="193" height="197" viewBox="0 0 193 197">
  <defs>
    <clipPath id="clip-path">
      <rect id="Rectangle_338493" data-name="Rectangle 338493" width="158.568" height="117.677" fill="none"/>
    </clipPath>
  </defs>
  <g id="Group_982988" data-name="Group 982988" transform="translate(6488 9616)">
    <rect id="Rectangle_338462" data-name="Rectangle 338462" width="193" height="197" rx="13" transform="translate(-6488 -9616)" fill="#a6bbff"/>
    <g id="Group_982987" data-name="Group 982987" transform="translate(-6471 -9576)">
      <g id="Group_982986" data-name="Group 982986" transform="translate(0 0)" clip-path="url(#clip-path)">
        <path id="Path_207325" data-name="Path 207325" d="M139.045,94.1c2.1,1.186,2.5,2.089,1.923,4.429-.628,2.547-1.218,5.106-1.915,7.635A15.347,15.347,0,0,1,124,117.662q-44.736.028-89.474,0a15.194,15.194,0,0,1-15.011-11.529Q12.6,78.983,5.894,51.78C4.145,44.739,2.186,37.75.762,30.63.5,29.3.668,27.889,0,26.639v-8.67c.568-.349.448-.989.567-1.493A21.283,21.283,0,0,1,21.173.024q58.138-.043,116.276,0a21.325,21.325,0,0,1,21.116,21.107c.072,6.62-1.424,12.97-3.056,19.321-2.522,9.819-4.932,19.667-7.4,29.5-.661,2.63-1.4,3.183-4.091,3.168a2.757,2.757,0,0,1-2.588-2.858,9.522,9.522,0,0,1,.466-2.736c2.768-11.113,5.568-22.219,8.326-33.335A51.056,51.056,0,0,0,151.9,21.342,14.694,14.694,0,0,0,137.178,6.675q-57.893-.036-115.788,0A14.7,14.7,0,0,0,6.655,21.486,50.472,50.472,0,0,0,8.292,34.032Q16.916,68.569,25.562,103.1c1.413,5.638,4.351,7.915,10.179,7.915q43.576,0,87.152,0c5.715,0,8.655-2.292,10.09-7.836.595-2.3,1.034-4.638,1.794-6.887s2.291-2.981,4.269-2.191" transform="translate(0 0)"/>
        <path id="Path_207326" data-name="Path 207326" d="M137.826,92.886c-2.647-.1-3.425.49-4.1,3.127-.6,2.344-1.176,4.693-1.785,7.034a9.23,9.23,0,0,1-9.229,7.209q-44.665.015-89.332,0a9.181,9.181,0,0,1-9.176-7.082Q15.113,66.856,6.11,30.513a31.019,31.019,0,0,1-.758-13.648A15.051,15.051,0,0,1,20.044,5c9.237-.057,18.475-.015,27.713-.015,28.8,0,57.6.2,86.39-.114,9.537-.1,18.359,6.5,16.9,19.007-.856,7.364-3.013,14.4-4.713,21.557-1.736,7.311-3.627,14.585-5.438,21.878-.613,2.473-.255,3.305,1.9,4.591-.224,2.08-.978,4.039-1.379,6.078-.089.447-.145.9-.216,1.349-.4.417-.959.315-1.444.456a2.552,2.552,0,0,0-1.232,4.447c.332.366.877.59.873,1.2-.2,2.09-.978,4.05-1.363,6.1-.084.447-.144.9-.215,1.348" transform="translate(1.219 1.215)" fill="#bedafe"/>
        <path id="Path_207327" data-name="Path 207327" d="M113,70.592c-1.34-.737-2.359-1.709-2.161-3.393a3.048,3.048,0,0,1,2.127-2.607,5.291,5.291,0,0,1,1.836-.106q2.725,1.617,2.091,3.844c-.461,1.613-1.705,2.336-3.894,2.262" transform="translate(27.62 16.066)" fill="#010101"/>
        <path id="Path_207328" data-name="Path 207328" d="M71.339,65.656H35.43c-3.2,0-4.194-.972-4.194-4.112q0-23.755,0-47.51c0-3.1.989-4.11,4.038-4.11q36.22,0,72.439,0c3.048,0,4.04,1.009,4.04,4.11q0,23.755,0,47.51c0,3.142-.992,4.112-4.195,4.112H71.339" transform="translate(7.785 2.474)"/>
        <path id="Path_207329" data-name="Path 207329" d="M35.487,78.074c-1.906,0-3.814.015-5.72,0-2.239-.024-3.468-1.213-3.48-3.417q-.034-5.875,0-11.749a3.088,3.088,0,0,1,3.335-3.4q5.951-.043,11.905,0a3.09,3.09,0,0,1,3.327,3.409q.034,5.875,0,11.749c-.014,2.195-1.253,3.384-3.492,3.407-1.958.019-3.916,0-5.875,0" transform="translate(6.547 14.826)"/>
        <path id="Path_207330" data-name="Path 207330" d="M55.5,59.5c1.959,0,3.918-.026,5.875.006a3.074,3.074,0,0,1,3.305,3.275q.049,6.028,0,12.058a3.041,3.041,0,0,1-3.194,3.224q-6.107.06-12.215,0a3.014,3.014,0,0,1-3.144-3.116q-.067-6.182,0-12.366a3.027,3.027,0,0,1,3.188-3.071c2.061-.042,4.124-.01,6.185-.01" transform="translate(11.488 14.826)"/>
        <path id="Path_207331" data-name="Path 207331" d="M75.353,78.074c-2.01,0-4.02.022-6.03-.006A3.111,3.111,0,0,1,65.951,74.7q-.037-5.951,0-11.9a3.054,3.054,0,0,1,3.284-3.292q6.03-.047,12.06,0a3.041,3.041,0,0,1,3.214,3.2q.058,6.028,0,12.058a3.075,3.075,0,0,1-3.287,3.3c-1.958.035-3.916.007-5.875.007" transform="translate(16.432 14.826)"/>
        <path id="Path_207332" data-name="Path 207332" d="M85.774,68.7c0-1.906-.015-3.814,0-5.72.022-2.239,1.209-3.465,3.415-3.479q5.875-.034,11.75,0c2.2.012,3.4,1.249,3.407,3.488q.026,5.8,0,11.594c-.011,2.3-1.218,3.475-3.569,3.484q-5.721.022-11.442,0c-2.4-.01-3.549-1.2-3.562-3.648-.011-1.908,0-3.814,0-5.72" transform="translate(21.376 14.826)"/>
        <path id="Path_207333" data-name="Path 207333" d="M28.494,19.267a9.289,9.289,0,1,1-9.157-9.342,9.329,9.329,0,0,1,9.157,9.342" transform="translate(2.472 2.474)"/>
        <path id="Path_207334" data-name="Path 207334" d="M120.713,19.23a9.289,9.289,0,1,1-9.193-9.306,9.328,9.328,0,0,1,9.193,9.306" transform="translate(25.456 2.474)"/>
        <path id="Path_207335" data-name="Path 207335" d="M73.594,85.518c-1.287,0-2.573.024-3.86-.006A3.126,3.126,0,0,1,66.44,82.38a3.1,3.1,0,0,1,3.222-3.043c2.676-.04,5.353-.035,8.03,0a3.1,3.1,0,1,1-.082,6.18c-1.338.022-2.677,0-4.015,0" transform="translate(16.559 19.767)"/>
        <path id="Path_207336" data-name="Path 207336" d="M38.5,79.326c1.287,0,2.575-.04,3.86.01a3.083,3.083,0,1,1,.02,6.166q-4.014.081-8.029,0a3.083,3.083,0,1,1-.02-6.166c1.388-.051,2.78-.01,4.169-.01" transform="translate(7.786 19.767)"/>
        <path id="Path_207337" data-name="Path 207337" d="M55.972,85.519c-1.338,0-2.678.04-4.014-.01A3.1,3.1,0,0,1,48.84,82.36a3.067,3.067,0,0,1,3.088-3.017q4.014-.081,8.029,0a3.084,3.084,0,1,1,.029,6.167c-1.335.052-2.676.01-4.014.01" transform="translate(12.172 19.766)"/>
        <path id="Path_207338" data-name="Path 207338" d="M91.28,85.519c-1.287,0-2.575.037-3.86-.01a3.1,3.1,0,0,1-3.129-3.137,3.063,3.063,0,0,1,3.076-3.029q4.014-.082,8.029,0a3.079,3.079,0,0,1,3.131,3.131,3.133,3.133,0,0,1-3.077,3.046c-.1.006-.206,0-.309,0H91.28" transform="translate(21.008 19.766)"/>
        <path id="Path_207339" data-name="Path 207339" d="M70.263,14.886c10.888,0,21.775.02,32.664-.029,1.152,0,1.437.264,1.432,1.425q-.067,20.277,0,40.551c0,1.158-.274,1.43-1.429,1.428q-32.663-.058-65.327,0c-1.151,0-1.437-.262-1.432-1.425q.067-20.275,0-40.551c0-1.157.272-1.434,1.429-1.428,10.888.049,21.775.029,32.664.029" transform="translate(9.015 3.703)" fill="#cff1d1"/>
        <path id="Path_207340" data-name="Path 207340" d="M34.258,70.643c-3.023,0-3.023,0-3.023-3.017,0-3.176,0-3.176,3.172-3.176,3.022,0,3.022,0,3.022,3.017,0,3.176,0,3.176-3.171,3.176" transform="translate(7.785 16.064)" fill="#9fe4a4"/>
        <path id="Path_207341" data-name="Path 207341" d="M54.255,64.451c3.007,0,3.007,0,3.007,3.033,0,3.159,0,3.159-3.188,3.159-3.006,0-3.006,0-3.006-3.032,0-3.161,0-3.161,3.187-3.161" transform="translate(12.728 16.064)" fill="#fecc69"/>
        <path id="Path_207342" data-name="Path 207342" d="M77.093,67.658c0,2.986,0,2.986-3.053,2.986-3.141,0-3.141,0-3.141-3.207,0-2.986,0-2.986,3.053-2.986,3.141,0,3.141,0,3.141,3.207" transform="translate(17.67 16.064)" fill="#fecc69"/>
        <path id="Path_207343" data-name="Path 207343" d="M96.925,67.622c0,3.022,0,3.022-3.017,3.022-3.177,0-3.177,0-3.177-3.171,0-3.022,0-3.022,3.017-3.022,3.177,0,3.177,0,3.177,3.171" transform="translate(22.613 16.064)" fill="#fecc69"/>
        <path id="Path_207344" data-name="Path 207344" d="M21.062,18.043a3.093,3.093,0,1,1-2.948-3.158,3.144,3.144,0,0,1,2.948,3.158" transform="translate(3.708 3.709)" fill="#7fb5fd"/>
        <path id="Path_207345" data-name="Path 207345" d="M110.206,14.883a3.093,3.093,0,1,1-3.109,3,3.139,3.139,0,0,1,3.109-3" transform="translate(26.692 3.71)" fill="#7fb5fd"/>
        <path id="Path_207346" data-name="Path 207346" d="M75.778,36.986q1.2-4.36,2.391-8.722c.515-1.886.991-3.784,1.548-5.657a3.56,3.56,0,0,1,3.63-2.763,3.617,3.617,0,0,1,3.435,3.033q2.224,12,4.359,24.019a3.1,3.1,0,1,1-6.113,1.013c-.765-4.046-1.475-8.1-2.447-12.191q-1.25,4.542-2.5,9.087c-.245.893-.455,1.8-.7,2.688-.595,2.176-1.891,3.323-3.715,3.3-1.765-.019-3.034-1.132-3.623-3.226-1.1-3.91-2.181-7.825-3.3-11.855a4.979,4.979,0,0,0-.691,2.573c-.591,3.086-1.073,6.191-1.609,9.287-.377,2.179-1.809,3.288-3.751,2.932-1.755-.322-2.7-1.975-2.342-4.046q1.968-11.421,3.914-22.846c.389-2.285,1.579-3.617,3.44-3.765,1.911-.152,3.322,1.039,3.971,3.364Q73.6,30.087,75.518,36.96l.26.026" transform="translate(15.022 4.945)"/>
        <path id="Path_207347" data-name="Path 207347" d="M41.9,35.258c0-3.916-.007-7.834,0-11.75.006-2.527,1.151-3.66,3.7-3.667q5.646-.015,11.289,0c2.192.006,3.629,1.289,3.585,3.158-.042,1.813-1.442,3.016-3.565,3.027-2.577.014-5.156.041-7.732-.017-.883-.019-1.148.246-1.1,1.117.087,1.638-.548,3.8.27,4.78.848,1.021,3.086.25,4.715.307,1.39.049,2.783-.017,4.175.017a3.093,3.093,0,1,1-.054,6.176c-2.473.034-4.951.08-7.42-.02-1.28-.052-1.8.176-1.709,1.627.15,2.412.054,4.842.037,7.264-.015,2.106-1.255,3.507-3.074,3.518s-3.1-1.39-3.111-3.478c-.017-4.02,0-8.04,0-12.06" transform="translate(10.441 4.944)"/>
      </g>
    </g>
  </g>
</svg>
