<svg id="bruno" xmlns="http://www.w3.org/2000/svg" width="90" height="90" viewBox="0 0 90 90">
  <circle id="Ellipse_4780" data-name="Ellipse 4780" cx="45" cy="45" r="45" transform="translate(0 0)" fill="#c4d1ff"/>
  <g id="Group_170963" data-name="Group 170963" transform="translate(14.931 15)">
    <g id="Group_170964" data-name="Group 170964" transform="translate(0 0)">
      <path id="Path_166729" data-name="Path 166729" d="M49.641,57.538c-.644.024-1.3.064-1.969.11a13.208,13.208,0,0,0-10.119.581,19.167,19.167,0,0,1-7.047-1.287c.025-.01.054-.017.079-.028,2.559-7.072.832-20.65.6-22.381-.012-.062-.016-.118-.028-.181L49.292,45.463a4.925,4.925,0,0,0-.636,2.018v.007a22.575,22.575,0,0,0,.188,5.682c.246,1.8.584,3.421.8,4.368" transform="translate(-20.078 0)" fill="#fa9778"/>
      <path id="Path_166730" data-name="Path 166730" d="M46.239,53.17C36.121,54.064,31.471,41.847,31.3,41.39A11.887,11.887,0,0,0,38.3,46.816a19.752,19.752,0,0,0,7.692.683c.021-.006.042-.005.063-.011a22.575,22.575,0,0,0,.188,5.682" transform="translate(-17.472 0)" fill="#450d20"/>
      <path id="Path_166731" data-name="Path 166731" d="M21.207,28.581a3.312,3.312,0,0,1,3.816-2.2,2.865,2.865,0,0,1,.471.214c-.02-5.325.973-11.117,4.788-14.189C38.489,5.8,49.8,8.641,51.988,14.953c1.7,4.9,2.159,10.539,2.154,16.013,0,2.333-.077,4.642-.187,6.845-.009.235-.024.463-.033.691a9.032,9.032,0,0,1-.482,2.9c-1.392,3.526-6.569,5.54-10.038,6.123A14.525,14.525,0,0,1,31.169,43.94a16.059,16.059,0,0,1-4.958-9.208,7.065,7.065,0,0,1-2.146-.294,5.525,5.525,0,0,1-2.428-2.188,4.386,4.386,0,0,1-.43-3.669" transform="translate(-15.054 0)" fill="#fa9778"/>
      <path id="Path_166732" data-name="Path 166732" d="M25.293,37.811a3.614,3.614,0,0,1-.91.084,3.534,3.534,0,0,1,.265-7.064,3.35,3.35,0,0,1,.832.135c0,2.333-.077,4.641-.187,6.845" transform="translate(13.608 0)" fill="#fa8864"/>
      <path id="Path_166733" data-name="Path 166733" d="M36,33.572a3.536,3.536,0,1,0,3.666-3.4A3.536,3.536,0,0,0,36,33.572" transform="translate(-18.993 0)" fill="#fa8864"/>
      <path id="Path_166734" data-name="Path 166734" d="M24.98,25.985a2.2,2.2,0,0,1-1.218,1.374.378.378,0,1,0,.338.669l.016-.011a2.42,2.42,0,0,0,.79-.907,3,3,0,0,0,.314-1.084.122.122,0,0,0-.236-.052Z" transform="translate(11.339 0)" fill="#450d20"/>
      <path id="Path_166735" data-name="Path 166735" d="M27.973,27.29a5.04,5.04,0,0,1-1.646.272,7.592,7.592,0,0,1-1.663-.247l-.022-.005a.325.325,0,0,0-.268.572,2.838,2.838,0,0,0,.919.487,3.236,3.236,0,0,0,1.056.137,2.822,2.822,0,0,0,1.915-.832.242.242,0,0,0-.248-.4Z" transform="translate(7.488 0)" fill="#450d20"/>
      <path id="Path_166736" data-name="Path 166736" d="M36.091,25.985a2.2,2.2,0,0,0,1.218,1.374.378.378,0,0,1-.25.713.362.362,0,0,1-.088-.044l-.016-.011a2.42,2.42,0,0,1-.79-.907,3,3,0,0,1-.314-1.084.122.122,0,0,1,.236-.052Z" transform="translate(-13.343 0)" fill="#450d20"/>
      <path id="Path_166737" data-name="Path 166737" d="M32.807,27.674a2.824,2.824,0,0,0,1.915.833,3.26,3.26,0,0,0,1.056-.138,2.827,2.827,0,0,0,.919-.487.325.325,0,0,0-.267-.572l-.022.005a7.6,7.6,0,0,1-1.663.247A5.046,5.046,0,0,1,33.1,27.29l-.042-.013a.243.243,0,0,0-.249.4" transform="translate(-9.492 0)" fill="#450d20"/>
      <path id="Path_166738" data-name="Path 166738" d="M34.549,33.642a5,5,0,0,1-1.6,1.691,3.9,3.9,0,0,1-2.313.673,3.957,3.957,0,0,1-2.244-.87,7.325,7.325,0,0,1-.852-.817c-.229-.318-.452-.636-.65-.964.307.242.585.5.865.748.314.207.592.458.911.633a4.22,4.22,0,0,0,2,.65,4.141,4.141,0,0,0,2.047-.471,8.823,8.823,0,0,0,1.844-1.273" transform="translate(-1.366 0)" fill="#450d20"/>
      <path id="Path_166739" data-name="Path 166739" d="M31.931,37.243a1.679,1.679,0,0,1-1.088.324,1.756,1.756,0,0,1-1.062-.405,5.578,5.578,0,0,0,1.072.161,4.64,4.64,0,0,0,1.078-.08" transform="translate(-1.643 0)" fill="#450d20"/>
      <path id="Path_166740" data-name="Path 166740" d="M38.5,19.836a2.427,2.427,0,0,0-1.559-.645,4.872,4.872,0,0,0-1.693.176,4.109,4.109,0,0,0-1.515.794,4.3,4.3,0,0,0-1.061,1.26.489.489,0,0,0,.735.625l.043-.036a6.007,6.007,0,0,1,1.037-.763,3.545,3.545,0,0,1,1.13-.415,4.318,4.318,0,0,1,1.21-.072,4.617,4.617,0,0,0,1.292-.026l.13-.027a.511.511,0,0,0,.251-.871" transform="translate(-11.19 0)" fill="#450d20"/>
      <path id="Path_166741" data-name="Path 166741" d="M22.1,20.027a2.421,2.421,0,0,1,1.6-.526,4.877,4.877,0,0,1,1.676.3,4.134,4.134,0,0,1,1.451.905,4.312,4.312,0,0,1,.963,1.336.489.489,0,0,1-.78.569l-.039-.04a6.031,6.031,0,0,0-.978-.838,3.534,3.534,0,0,0-1.1-.5,4.32,4.32,0,0,0-1.2-.162,4.651,4.651,0,0,1-1.286-.123l-.128-.036a.512.512,0,0,1-.352-.633.5.5,0,0,1,.167-.255" transform="translate(10.312 0)" fill="#450d20"/>
      <path id="Path_166742" data-name="Path 166742" d="M31.06,23.994c.151.794.255,1.581.371,2.361s.236,1.554.428,2.294c.044.185.094.368.153.545a1.957,1.957,0,0,1,.152.681,1.361,1.361,0,0,1-.779,1.212,1.653,1.653,0,0,1-1.335.021,3.247,3.247,0,0,1-1.031-.671c.722.3,1.57.55,2.1.18a.807.807,0,0,0,.39-.731,1.5,1.5,0,0,0-.136-.47c-.071-.2-.133-.4-.184-.6A11.085,11.085,0,0,1,30.9,26.4a12.761,12.761,0,0,1,.164-2.406" transform="translate(-1.115 0)" fill="#450d20"/>
      <path id="Path_166743" data-name="Path 166743" d="M47.976,28.415a8.77,8.77,0,0,1,2.367.946,6.825,6.825,0,0,1,1.889,1.573l.428-.527a7.915,7.915,0,0,0-2.023-.789,3.029,3.029,0,0,0-1.167-.053,1.32,1.32,0,0,0-1.01.816,1.982,1.982,0,0,0,.571,2.174,2.88,2.88,0,0,0,1.958.8,3.114,3.114,0,0,1-1.654-1.076,1.559,1.559,0,0,1-.3-1.645c.188-.473.817-.461,1.447-.32a8.872,8.872,0,0,1,1.846.7l.018.009a.343.343,0,0,0,.462-.147.347.347,0,0,0-.053-.39,6.241,6.241,0,0,0-2.2-1.554,6.393,6.393,0,0,0-2.579-.516" transform="translate(-40.753 0)" fill="#450d20"/>
      <path id="Path_166744" data-name="Path 166744" d="M1.636,30.534h0a4.285,4.285,0,0,1,1.471-4.29C-2.374,13,9.659,12.581,9.659,12.581,12.737-9.106,31.05,3.826,31.05,3.826c15,1.322,11.84,15.156,11.84,15.156,15.668,4.635,6.984,17.535,6.984,17.535,7.394,2.081,9.771,6.365,10.195,10.369a54.268,54.268,0,0,1-1.37,5.988,7.97,7.97,0,0,1-1.805,3.793c.577-.809-.5.306-1.081.906.03-.155-1.381.773-.838.53-6.555,2.933-17.611,3.273-24.688.668-.393-.436-.6-.72-.6-.72a29.931,29.931,0,0,1-1.1-10.571,25.848,25.848,0,0,0,5.756-2.013c3.7-1.965,4.175-4.416,4.175-4.416.826-3.4.471-14.437.471-14.437a57.275,57.275,0,0,0-1.461-9.773A4.705,4.705,0,0,1,34.161,14.5c-3.916,4.117-9.8,0-9.8,0a7,7,0,0,1-7.607,3.2c2.727,4.133-1.085,11.506-2.651,11.687S10.44,26.6,10.44,26.6a3.129,3.129,0,0,0-3.119.5,3.7,3.7,0,0,0-1.288,3.083c.248,4.448,5.077,4.352,5.077,4.352a47.23,47.23,0,0,1-.6,22.389l-1.4.546-.037-.91-.09-.065A21.87,21.87,0,0,1,1.636,30.534" transform="translate(0 0)" fill="#12263f"/>
    </g>
  </g>
</svg>
