<svg xmlns="http://www.w3.org/2000/svg" xmlns:xlink="http://www.w3.org/1999/xlink" width="715" height="223.228" viewBox="0 0 715 223.228">
  <defs>
    <clipPath id="clip-path">
      <rect id="Rectangle_338292" data-name="Rectangle 338292" width="262" height="218" transform="translate(806 3498)" fill="none" stroke="#707070" stroke-width="1"/>
    </clipPath>
    <clipPath id="clip-path-2">
      <rect id="Rectangle_338808" data-name="Rectangle 338808" width="183.406" height="343.378" fill="none"/>
    </clipPath>
    <clipPath id="clip-path-3">
      <path id="Path_204746" data-name="Path 204746" d="M0,0H214l-1.239,218H43.905c-10.785,0-22.461-18.289-22.461-18.289H0Z" transform="translate(1068 3492)" fill="none" stroke="#707070" stroke-width="1"/>
    </clipPath>
    <clipPath id="clip-path-4">
      <rect id="Rectangle_338386" data-name="Rectangle 338386" width="212.891" height="287.696" fill="none"/>
    </clipPath>
    <clipPath id="clip-path-6">
      <rect id="Rectangle_338383" data-name="Rectangle 338383" width="13.948" height="10.427" fill="none"/>
    </clipPath>
  </defs>
  <g id="c1" transform="translate(-443 -2980.272)">
    <g id="c1-2" data-name="c1">
      <g id="Group_982432" data-name="Group 982432" transform="translate(443 2952.792)">
        <path id="Rectangle_338258" data-name="Rectangle 338258" d="M61,0H654a61,61,0,0,1,61,61v66.708a0,0,0,0,1,0,0H0a0,0,0,0,1,0,0V61A61,61,0,0,1,61,0Z" transform="translate(0 123)" fill="#3c3fa7"/>
      </g>
      <g id="Mask_Group_420" data-name="Mask Group 420" transform="translate(-262 -517.728)" clip-path="url(#clip-path)">
        <g id="Group_982516" data-name="Group 982516" transform="translate(-42.558 41.217)">
          <g id="Group_982515" data-name="Group 982515" transform="translate(0 -22.706)">
            <g id="Group_982513" data-name="Group 982513">
              <path id="Path_204741" data-name="Path 204741" d="M218.109,19.435H163.673c-3.347,0-6.916.163-6.916,5.036s-.756,35.212-.084,39.806c.557,3.817,2.538,5.672,10.793,5.835s45.515-.115,49.751,0c2.676.073,7.7.073,8.031-5.684.34-5.863.248-33.866.213-39.143.035-6.254-7.353-5.848-7.353-5.848" transform="translate(872.258 3466.276)" fill="#e28279"/>
              <path id="Path_204742" data-name="Path 204742" d="M187.775,61.132s-.434,8.686-3.908,15.2c0,0,11.075-1.954,14.549-16.721Z" transform="translate(876.479 3472.449)" fill="#e28279"/>
            </g>
            <path id="Path_204743" data-name="Path 204743" d="M213.23,29.9H165.939c-.323,0-.668.01-.668.33s-.074,2.307-.008,2.608c.053.249.245.371,1.042.382s46.428-.006,46.838,0c.26,0,.744,0,.776-.373s.024-2.218.021-2.564c0-.41-.709-.383-.709-.383" transform="translate(873.616 3467.884)" fill="#fff"/>
            <path id="Path_204744" data-name="Path 204744" d="M213.23,40.836H165.939c-.323,0-.668.01-.668.33s-.074,2.307-.008,2.608c.053.249.245.371,1.042.382s46.428-.006,46.838,0c.26,0,.744,0,.776-.373s.024-2.218.021-2.564c0-.41-.709-.383-.709-.383" transform="translate(873.616 3469.564)" fill="#fff"/>
            <path id="Path_204745" data-name="Path 204745" d="M213.23,52.27H165.939c-.323,0-.668.01-.668.33s-.074,2.307-.008,2.608c.053.249.245.371,1.042.382s46.428-.006,46.838,0c.26,0,.744,0,.776-.373s.024-2.218.021-2.564c0-.41-.709-.383-.709-.383" transform="translate(873.616 3471.32)" fill="#fff"/>
          </g>
          <g id="Group_983803" data-name="Group 983803" transform="translate(290.818 -1470.093)">
            <g id="Group_983804" data-name="Group 983804" transform="translate(603.74 4936.661)">
              <g id="Group_983803-2" data-name="Group 983803" transform="translate(0 0)" clip-path="url(#clip-path-2)">
                <path id="Path_211217" data-name="Path 211217" d="M55.782,330.373l-.4-.561c5.113-3.606,6.236-10.678,5.08-16.087-1.3-6.068-4.972-11.361-8.215-16.03-3.5-5.036-7.092-10.21-8.512-16.187-1.26-5.3-.7-10.819-.155-16.157.259-2.543.526-5.173.592-7.742a50.3,50.3,0,0,0-14.123-36.136c-1.829-1.883-3.883-3.72-5.869-5.5-6.02-5.387-12.245-10.956-13.564-18.852l.677-.113c1.279,7.657,7.413,13.145,13.344,18.452,2,1.785,4.058,3.631,5.9,5.531a50.989,50.989,0,0,1,14.317,36.632c-.067,2.6-.336,5.238-.6,7.795-.537,5.281-1.092,10.742.14,15.928,1.39,5.85,4.946,10.969,8.385,15.921,3.3,4.755,7.021,10.107,8.346,16.311,1.2,5.63.013,13-5.356,16.791" transform="translate(118.662 -138.066)" fill="#211010"/>
                <path id="Path_211218" data-name="Path 211218" d="M179.739,320.149c-6.285-8.2-11.2-18.358-12-24.7-1.488-11.744,8.6-27.48-9.524-47.624-13.071-14.529-11.14-19.354-11.14-19.354l-112.7,3.6s-1.533,17.734-7.445,27.47-16.4,17.607-8.5,36.408c6.477,15.427-2.673,31.985-7.617,41.354-4.871,9.23-1.393,18.021,7.827,38.29,0,0,5.209,2.506,9.389,4.2l.591-9.142c1.573.478,3.979,10.669,5.834,11.018a47.644,47.644,0,0,0,5.879.73c-3.5-6.781-4.945-14-2.8-20.187,7.7-25.148,12.186-49.89,1.4-74.895-7.822-18.787,5.259-35.827,20.918-41.107,21.95-7.175,41.806,3.5,62.186,9.7,6.7,1.349,15.547,2.426,19.582,8.508,7.935,11.081-2.069,26.633,4.931,38.932,4.31,8.244,13.839,14.728,18.286,24.054,4.942,9.265,6.349,19.5,5.208,29.864l.416.634A20.446,20.446,0,0,0,188.157,350c1.647-2.123,2.6-15.491-8.418-29.855" transform="translate(-8.326 -160.113)" fill="#211010"/>
                <path id="Path_211219" data-name="Path 211219" d="M199.54,363.376c-4.447-9.326-13.976-15.81-18.286-24.055-7-12.3,3-27.85-4.931-38.931-4.036-6.082-12.88-7.159-19.582-8.508-20.38-6.209-40.236-16.88-62.186-9.7-15.659,5.28-28.74,22.319-20.918,41.107,10.787,25,6.3,49.746-1.4,74.894-2.146,6.185-.7,13.407,2.8,20.188a47.071,47.071,0,0,0,11.024-.617l.6-19.755,7.343,18.8s11.819,4.9,50.41-8.3,46.219-7.539,48.521-14.615-7.9-30.684-7.9-30.684l19.708,30.045c1.142-10.36-.266-20.6-5.208-29.864" transform="translate(-43.028 -196.073)" fill="#261313"/>
                <path id="Path_211220" data-name="Path 211220" d="M535.741,375.254a42.291,42.291,0,0,1-9-38,85.736,85.736,0,0,1,3.607-10.223c2.189-5.456,4.452-11.1,4.57-17,.1-4.893-1.284-9.838-2.619-14.621-1.809-6.476-3.679-13.173-1.8-19.684,1.545-5.348,5.362-9.563,9.054-13.638a67.227,67.227,0,0,0,5.947-7.208,32.4,32.4,0,0,0,4.768-24.49l.672-.144a33.1,33.1,0,0,1-4.871,25.019,67.67,67.67,0,0,1-6.007,7.285c-3.807,4.2-7.4,8.172-8.9,13.368-1.827,6.323-.066,12.631,1.8,19.308,1.349,4.831,2.744,9.825,2.644,14.819-.12,6.029-2.408,11.73-4.619,17.244a85.11,85.11,0,0,0-3.58,10.14,41.594,41.594,0,0,0,8.85,37.372Z" transform="translate(-525.443 -161.356)" fill="#211010"/>
                <path id="Path_211221" data-name="Path 211221" d="M41.975,583.7s.788,3.173,2.376,8.192a61.1,61.1,0,0,0,22.693-9.812c-1.352-4.029-2.487-7.659-3.127-10.226Z" transform="translate(103.804 -400.749)" fill="#c78743"/>
                <path id="Path_211222" data-name="Path 211222" d="M35.252,672.7,33.444,635.56s-6.473-16.782-10.752-29.534A61.1,61.1,0,0,1,0,615.839c4.287,13.549,18.953,42.29,35.252,56.859" transform="translate(148.154 -424.7)" fill="#e6ac71"/>
                <path id="Path_211223" data-name="Path 211223" d="M152.432,809.4l-76.549,3.192S59.751,865.363,49.237,910.6H180.523c-6.851-25.8-16.321-81.783-28.092-101.2" transform="translate(-11.849 -567.221)" fill="#ff6248"/>
                <path id="Path_211224" data-name="Path 211224" d="M140.882,795.928s.209,3.87.442,5.279,65.633,1.142,77.22-2.266l-1.173-5.99s-32.254,4.973-76.489,2.976" transform="translate(-77.291 -555.696)" fill="#ff3614"/>
                <path id="Path_211225" data-name="Path 211225" d="M388.825,867.273a.357.357,0,0,1-.338-.468,7.2,7.2,0,0,1,.72-1.142c2.426-3.556,9.81-14.377,13.515-32.761a.359.359,0,1,1,.7.141A89.546,89.546,0,0,1,389.8,866.067c-.306.448-.595.872-.635.973a.369.369,0,0,1-.34.233" transform="translate(-336.258 -583.49)" fill="#ff3614"/>
                <path id="Path_211226" data-name="Path 211226" d="M128.1,853.985a.358.358,0,0,1-.312-.181,224.369,224.369,0,0,1-11.944-24.458.359.359,0,0,1,.667-.266,223.5,223.5,0,0,0,11.9,24.37.358.358,0,0,1-.311.535" transform="translate(20.292 -580.857)" fill="#ff3614"/>
                <path id="Path_211227" data-name="Path 211227" d="M458.8,604.243,433.84,589.981s-1.685,4.88-3.749,11.712c7.817,6.218,16.788,11.434,26.176,13.153Z" transform="translate(-404.079 -413.456)" fill="#c78743"/>
                <path id="Path_211228" data-name="Path 211228" d="M427.415,642.276c-9.388-1.719-18.359-6.935-26.176-13.153-3.632,12.024-8.437,30.1-7.289,38.271,1.111,7.913,33.871,57.012,37.756,50.736,6.018-9.724,9.107-23.031,9.107-23.031-5.853-7.958-18.68-30.7-18.68-30.7Z" transform="translate(-375.227 -440.886)" fill="#e6ac71"/>
                <path id="Path_211229" data-name="Path 211229" d="M100.895,454.333S81.3,458,69.688,463.82s-19.479,22.934-19.479,22.934,8.181,12.524,22.369,16.509a208.211,208.211,0,0,1-.79,21.035c-.972,8.882-3.548,30.427,7.247,32.932s33.622,1.829,45.173,2.53,26.222-1.591,33.815-5.2,11.052-7.119,11.171-19.862-4.386-37.976-4.386-37.976,13.959-3.129,21.786-16.1c0,0-13.384-22.6-30.29-25.179-14.5-2.211-30.775-5.03-55.41-1.112" transform="translate(-18.211 -317.024)" fill="#fff"/>
                <path id="Path_211230" data-name="Path 211230" d="M243.515,454.76s-14.424-1.557-21.161,2.233a23.774,23.774,0,0,0,22.716,10.514c15.762-1.528,18.8-13.682,18.8-13.682s-7.775-1.293-20.36.935" transform="translate(-146.998 -317.777)" fill="#244eff"/>
                <path id="Path_211231" data-name="Path 211231" d="M456.4,583.1c.837.283.352,4.548.352,4.548s-14.634,1.443-27.117-15.862c0,0-.55-4.549,5.188-5.484,0,0,8.971,12.531,21.576,16.8" transform="translate(-402.037 -396.863)" fill="#244eff"/>
                <path id="Path_211232" data-name="Path 211232" d="M35.353,557.876c-.8.268.841,4.552.841,4.552s13.8,1.71,25.916-15.366c0,0,.6-4.539-4.8-5.577,0,0-9.964,12.354-21.954,16.391" transform="translate(110.763 -379.47)" fill="#244eff"/>
                <path id="Path_211233" data-name="Path 211233" d="M132.731,643.639c-8.507,0-15.81-.421-15.942-.428l.062-1.059c.239.016,23.965,1.38,35.639-.842,5.458-1.038,13-1.146,20.293-1.251,8.749-.126,17.012-.244,21.13-1.889a39.1,39.1,0,0,1,14.359-2.515,19.358,19.358,0,0,0,2.368-.124l.18,1.045a19.538,19.538,0,0,1-2.527.14,38.128,38.128,0,0,0-13.987,2.44c-4.3,1.717-12.659,1.836-21.508,1.964-7.248.1-14.742.211-20.11,1.233-5.3,1.008-13.027,1.287-19.957,1.287" transform="translate(-62.358 -445.376)" fill="#244eff"/>
                <path id="Path_211234" data-name="Path 211234" d="M125.447,626.87c-3.262,0-5.272-.134-5.316-.138l.073-1.057a117.134,117.134,0,0,0,21.632-.978c3.669-.515,6.592-1.017,9.172-1.46,5.85-1,9.718-1.666,16.038-1.472l1.794.058c8.36.275,17,.555,26.74-1.555a119.771,119.771,0,0,1,16.9-2.619l.056,1.059a118.781,118.781,0,0,0-16.734,2.6c-9.866,2.137-18.575,1.854-27,1.578l-1.793-.057c-6.219-.194-10.041.463-15.826,1.456-2.587.444-5.519.948-9.2,1.465a121.225,121.225,0,0,1-16.537,1.123" transform="translate(-65.076 -432.845)" fill="#244eff"/>
                <path id="Path_211235" data-name="Path 211235" d="M126.4,609.382l-.124-.9c.148-.02,14.968-2.046,25.34-2.927,2.749-.233,7.071-.367,12.543-.535,15.172-.467,38.1-1.173,52.831-4.963l.227.883c-14.828,3.816-37.818,4.524-53.031,4.993-5.458.167-9.769.3-12.494.531-10.348.879-25.145,2.9-25.294,2.922" transform="translate(-71.599 -420.514)" fill="#244eff"/>
                <path id="Path_211236" data-name="Path 211236" d="M175.834,684.28a.234.234,0,0,1-.134-.427,83.2,83.2,0,0,0,23.231-24.482.235.235,0,0,1,.4.247,83.692,83.692,0,0,1-23.363,24.62.233.233,0,0,1-.134.042" transform="translate(-68.5 -462.006)" fill="#d175a2"/>
                <path id="Path_211237" data-name="Path 211237" d="M156.82,700.322a.234.234,0,0,1-.176-.39,75.829,75.829,0,0,0,14.714-25.24.235.235,0,1,1,.444.152A76.306,76.306,0,0,1,157,700.243a.232.232,0,0,1-.176.08" transform="translate(-35.26 -472.71)" fill="#d175a2"/>
                <path id="Path_211238" data-name="Path 211238" d="M265.263,416.55a49.537,49.537,0,0,0,6.427-2.373l-.207-11.017-28.059,2.168.05,11.087c7.175,2.1,15.062,2.309,21.789.136" transform="translate(-161.118 -282.533)" fill="#c78743"/>
                <path id="Path_211239" data-name="Path 211239" d="M265.016,442.354c-6.728,2.173-14.614,1.96-21.789-.136l.031,6.868c10.591,7.916,23.658,5.075,28.294-3.291l-.109-5.815a49.556,49.556,0,0,1-6.427,2.373" transform="translate(-160.92 -308.337)" fill="#e6ac71"/>
                <path id="Path_211240" data-name="Path 211240" d="M438.327,319.853,432.99,303s-15.733-5.218-16.087,10.781,16.455,16.33,21.425,6.069" transform="translate(-379.659 -211.774)" fill="#e6ac71"/>
                <path id="Path_211241" data-name="Path 211241" d="M246.45,119.306s8.018,15,10.933,38.015c2.274,17.957-9.837,37.35-31.581,41.551-20.437,3.948-42.9-1.637-52.98-29.726s-3.9-52.256,21.513-62,44.492-5.091,52.115,12.161" transform="translate(-124.581 -71.571)" fill="#e6ac71"/>
                <path id="Path_211242" data-name="Path 211242" d="M337.634,344.876c-.14,3.1-4.959,5.4-10.763,5.137s-10.4-2.988-10.256-6.087,4.959-5.4,10.763-5.136,10.4,2.988,10.256,6.087" transform="translate(-248.963 -237.408)" fill="#c78743"/>
                <path id="Path_211243" data-name="Path 211243" d="M190.759,309.717c1.11,2.9-2.389,6.931-7.815,9.009s-10.724,1.414-11.834-1.483,2.389-6.931,7.815-9.009,10.724-1.414,11.834,1.483" transform="translate(-58.694 -215.161)" fill="#c78743"/>
                <path id="Path_211244" data-name="Path 211244" d="M336.783,255.579s-3.575-2.323,2.555-6.833,8.588-4.1,9.933-2.509c1.228,1.447.065,4.072-3.429,6.536-4.194,2.957-7.1,4.156-9.059,2.806" transform="translate(-266.796 -171.79)" fill="#211010"/>
                <path id="Path_211245" data-name="Path 211245" d="M221.033,228.558s1.9-3.585-5.874-4.89-9.712.123-10.049,2.1c-.308,1.8,2.108,3.6,6.483,4.251,5.251.78,8.443.571,9.44-1.459" transform="translate(-99.194 -156.395)" fill="#211010"/>
                <path id="Path_211246" data-name="Path 211246" d="M336.185,303.394c.327,2.154-.842,4.118-2.609,4.386s-3.465-1.261-3.792-3.415.842-4.118,2.609-4.386,3.465,1.261,3.792,3.415" transform="translate(-251.49 -210.202)" fill="#211010"/>
                <path id="Path_211247" data-name="Path 211247" d="M217.5,277.3c.326,2.154-.841,4.118-2.609,4.386s-3.465-1.261-3.792-3.415.841-4.118,2.609-4.386,3.466,1.261,3.792,3.415" transform="translate(-97.295 -191.915)" fill="#211010"/>
                <path id="Path_211248" data-name="Path 211248" d="M444.274,332.783a.32.32,0,0,1-.3-.444c.033-.078,3.229-7.856-2.231-11.276a7.1,7.1,0,0,0-5.56-1.151,8.844,8.844,0,0,0-4.845,3.777.32.32,0,0,1-.554-.321,9.335,9.335,0,0,1,5.24-4.078,7.712,7.712,0,0,1,6.059,1.229c5.924,3.71,2.517,11.984,2.481,12.068a.32.32,0,0,1-.286.2" transform="translate(-391.04 -223.621)" fill="#52180d"/>
                <path id="Path_211249" data-name="Path 211249" d="M431.245,338.845a.32.32,0,0,1-.208-.572c.052-.042,5.312-4.116,9.412-.238a.32.32,0,0,1-.44.466c-3.7-3.5-8.527.237-8.575.275a.321.321,0,0,1-.19.068" transform="translate(-386.076 -235.722)" fill="#52180d"/>
                <path id="Path_211250" data-name="Path 211250" d="M264.258,251.606a.32.32,0,0,1-.258-.57,8.656,8.656,0,0,0,2.907-4.2c.493-1.948-.346-4.534-1.761-5.426a2.258,2.258,0,0,0-2.793.426c-.031.025-.08.07-.144.128-3.373,3.067-5.327,2.435-6.374,1.365-1.92-1.966-4.541-20.177-4.834-22.247a.325.325,0,0,1,.273-.362.32.32,0,0,1,.362.273c.786,5.567,3.157,20.353,4.657,21.888,1.235,1.264,3.081.8,5.486-1.391.074-.067.13-.118.165-.147a2.884,2.884,0,0,1,3.545-.475c1.649,1.041,2.6,3.9,2.041,6.125a9.148,9.148,0,0,1-3.147,4.554.315.315,0,0,1-.123.056" transform="translate(-159.384 -154.679)" fill="#52180d"/>
                <path id="Path_211251" data-name="Path 211251" d="M261.751,352.714c2.171.234,3.531-1.19,4.365-2.742a27.466,27.466,0,0,0-9.627-1.679c.894,1.819,2.544,4.129,5.262,4.421" transform="translate(-159.453 -244.082)" fill="#d14f8e"/>
                <path id="Path_211252" data-name="Path 211252" d="M252.477,339.391a13.191,13.191,0,0,0,.867,2.239,27.465,27.465,0,0,1,9.627,1.679,12.5,12.5,0,0,0,1.2-3.566c-4.37-1.927-11.695-.352-11.695-.352" transform="translate(-156.308 -237.419)" fill="#211010"/>
                <path id="Path_211253" data-name="Path 211253" d="M170.732,140.866s38.553-17.038,43.378-50.917c0,0,40.3,38.382,51.923,24,0,0-.12-37.793-28.275-46.572-15.445-4.815-26.71-.658-26.71-.658-20.285-1.072-31.185.851-50.645,21.334-20.037,21.089-10.924,64.857,10.329,52.814" transform="translate(-127.285 -45.588)" fill="#211010"/>
                <path id="Path_211254" data-name="Path 211254" d="M308.8,183.654l0-.686a69.362,69.362,0,0,0,69.357-61.606l.683.077A70.049,70.049,0,0,1,308.8,183.654" transform="translate(-287.826 -85.051)" fill="#211010"/>
                <path id="Path_211255" data-name="Path 211255" d="M217.932,138.206a77.162,77.162,0,0,1-59.6-45.664l.632-.267a76.466,76.466,0,0,0,59.058,45.25Z" transform="translate(-81.993 -64.667)" fill="#211010"/>
                <path id="Path_211256" data-name="Path 211256" d="M175.757,125.629s-5.932-42.683,25.519-55.419c42.017-17.015,60.317,17.871,63.906,29.89a.828.828,0,0,0,1.618-.175c.394-4.036-.99-11.417-6.186-22.689C253.869,62.6,243.75,53.464,219.344,54.563c-19.575.881-45.509,14.5-49.82,37.345-3.693,19.564,3.335,39.126,6.233,33.72" transform="translate(-133.865 -38.176)" fill="#244eff"/>
                <path id="Path_211257" data-name="Path 211257" d="M433.576,129.651a.347.347,0,0,1-.176-.047.352.352,0,0,1-.129-.481,51.829,51.829,0,0,1,7.587-10.062.352.352,0,0,1,.506.489,51.09,51.09,0,0,0-7.483,9.925.352.352,0,0,1-.305.176" transform="translate(-387.681 -83.363)" fill="#1b3abf"/>
                <path id="Path_211258" data-name="Path 211258" d="M441.84,129.827a.352.352,0,0,1-.315-.509,26.643,26.643,0,0,1,10.057-10.874.352.352,0,1,1,.361.6,25.931,25.931,0,0,0-9.788,10.584.352.352,0,0,1-.316.2" transform="translate(-400.805 -82.971)" fill="#1b3abf"/>
                <path id="Path_211259" data-name="Path 211259" d="M368.622,86.883a.352.352,0,0,1-.159-.666,51.826,51.826,0,0,1,11.858-4.264.352.352,0,0,1,.156.686,51.09,51.09,0,0,0-11.7,4.207.355.355,0,0,1-.158.037" transform="translate(-307.533 -57.427)" fill="#1b3abf"/>
                <path id="Path_211260" data-name="Path 211260" d="M361.991,73.994a.352.352,0,0,1-.235-.614A26.645,26.645,0,0,1,375.123,67a.352.352,0,1,1,.113.695,25.939,25.939,0,0,0-13.01,6.212.35.35,0,0,1-.235.09" transform="translate(-300.33 -46.949)" fill="#1b3abf"/>
                <path id="Path_211261" data-name="Path 211261" d="M412.27,33.7S423.75,16.715,410.444,0c0,0-14.327,11.8,1.826,33.7" transform="translate(-354.52 -0.003)" fill="#244eff"/>
                <path id="Path_211262" data-name="Path 211262" d="M454.049,92.731s-14.364-14.628-33.388-4.91c0,0,8.714,16.386,33.388,4.91" transform="translate(-396.508 -59.209)" fill="#244eff"/>
                <path id="Path_211263" data-name="Path 211263" d="M415.54,60.093a.339.339,0,0,1-.111-.018.352.352,0,0,1-.224-.445,24.834,24.834,0,0,0,.148-15.061.352.352,0,0,1,.672-.209,25.546,25.546,0,0,1-.151,15.491.352.352,0,0,1-.334.241" transform="translate(-357.975 -30.915)" fill="#1b3abf"/>
                <path id="Path_211264" data-name="Path 211264" d="M426.262,57.6a.352.352,0,0,1-.346-.293,127.076,127.076,0,0,1-1.585-14.415.352.352,0,0,1,.333-.37.348.348,0,0,1,.37.333,126.182,126.182,0,0,0,1.575,14.335.351.351,0,0,1-.288.405.34.34,0,0,1-.059.005" transform="translate(-370.17 -29.797)" fill="#1b3abf"/>
                <path id="Path_211265" data-name="Path 211265" d="M453.722,101.906a18.917,18.917,0,0,1-2.7-.247l-9.14-1.337a.352.352,0,0,1-.3-.4.355.355,0,0,1,.4-.3l9.14,1.337c1.966.287,3.855.473,5.338-.4a.352.352,0,0,1,.358.606,5.949,5.949,0,0,1-3.1.741" transform="translate(-405.715 -69.816)" fill="#1b3abf"/>
                <path id="Path_211266" data-name="Path 211266" d="M449.87,111.473a25.353,25.353,0,0,1-8.181-1.345.352.352,0,1,1,.228-.666,24.75,24.75,0,0,0,13.452.685.352.352,0,1,1,.16.685,25.034,25.034,0,0,1-5.659.641" transform="translate(-404.48 -76.698)" fill="#1b3abf"/>
                <path id="Path_211267" data-name="Path 211267" d="M411.671,93.041s7.709-5.682,2.948-10.2-13.331,2.833-14.57,6.382,5.69,8.874,11.622,3.819" transform="translate(-352.419 -57.055)" fill="#1b3abf"/>
              </g>
            </g>
          </g>
        </g>
      </g>
      <g id="Group_421" data-name="Group 421" transform="translate(-254 -511.728)" clip-path="url(#clip-path-3)">
        <g id="Group_982704" data-name="Group 982704" transform="translate(1075.511 3495.566)">
          <g id="Group_982712" data-name="Group 982712" clip-path="url(#clip-path-4)">
            <g id="Group_982711" data-name="Group 982711">
              <g id="Group_982710" data-name="Group 982710" clip-path="url(#clip-path-4)">
                <path id="Path_205340" data-name="Path 205340" d="M92.925,96.255a80.889,80.889,0,0,0,15.673.974c11.97-.812,24.048-1.123,36.08-1.516a41.891,41.891,0,0,1,1.094-10.068,77.963,77.963,0,0,0,1.328,7.806,3.7,3.7,0,0,0,1.135,2.283,3.642,3.642,0,0,0,2.255.459l17.131-.268A110.388,110.388,0,0,0,167.4,84a54.659,54.659,0,0,1,2.819,9.9,66.279,66.279,0,0,0,22.8-2.72,41.5,41.5,0,0,0-.1-10.946c-.674-3.6-2.443-7.135-5.466-9.125a9.085,9.085,0,0,1-2.1-1.546c-1.492-1.774-.669-4.461-.874-6.785-.557-6.36-6.56-13.151-12.35-15.013-2.385-.767-4.977-1.012-7.116-2.331-2.727-1.679-4.253-4.84-4.972-8s-.775-6.43-1.347-9.618C156.09,13.246,145.4,3.722,131.371.947a31.073,31.073,0,0,0-13.682,0,12.571,12.571,0,0,1-4.111.705,14.562,14.562,0,0,1-3.267-.935C103.589-1.512,95.535,1.807,90.133,5.9A32.3,32.3,0,0,0,78.26,24.5c-.993,4.488-1.288,9.679-4.785,12.6a18.108,18.108,0,0,1-4.937,2.522c-8.106,3.3-16,9.76-16.907,18.589-.4,3.937.572,8.249-1.436,11.64-1.9,3.21-5.879,4.492-8.3,7.314-3.344,3.892-3.037,9.7-2.312,14.815a3.749,3.749,0,0,0,.743,2.08,3.5,3.5,0,0,0,2.136.859,39.368,39.368,0,0,0,8.319.342L52.938,86.2l.9,9.051a109.776,109.776,0,0,0,20.227.91q.711-4.436,1.419-8.873.629,3.543,1.257,7.086a3.376,3.376,0,0,0,.74,1.863,3.27,3.27,0,0,0,2.345.64l10.688.09q.566-4.432,1.134-8.864l1.276,8.151" transform="translate(1.084 0)" fill="#feb777"/>
                <path id="Path_205341" data-name="Path 205341" d="M212.477,268.666q-2.254-6.085-4.123-12.31a57.893,57.893,0,0,1-1.3-5.784c.035-.019.072-.032.108-.05-5.089-31.121-20.687-111.165-49.253-131.986a18.494,18.494,0,0,0-3.594-2.023L124.037,103.5l.726-25.658L105.369,82.18l-2.675,22.063s-32.366,2.165-41.858,13.149-21.431,36.95-21.431,36.95L27.788,116.075c-.136-.723-.291-1.442-.413-2.167a25.088,25.088,0,0,1-.616-4.48,19.406,19.406,0,0,1,.906-4.521c1.162-4.276,3.779-8.04,4.857-12.34-.689-.847-2.038-.225-2.85.5a20.218,20.218,0,0,0-5.745,8.9q-.869-7.484-1.989-14.934a34.532,34.532,0,0,0-1.764-7.606c-.2-.506-.582-1.094-1.109-.995-.475.089-.661.671-.735,1.155a34.7,34.7,0,0,0,0,7.749q.493,6.588.986,13.178C17.95,94.956,16.91,89.15,15.236,83.7c-.227-.739-2.671-7.969-3.824-6.258a4.022,4.022,0,0,0-.518,2.177,66.641,66.641,0,0,0,1.133,10.48c.475,3.337.711,7.367,1.93,10.516L10.6,91.949a59.326,59.326,0,0,0-3.2-7.934c-.347-.61-2.243-3.466-3.016-2.5-.429.532.48,3.213.63,3.85a35.84,35.84,0,0,0,1.122,3.8c1.478,4.148,2.832,8.331,4.169,12.545C7.777,97.4,5.358,92.731.762,90.486a.672.672,0,0,0-.519-.091c-.364.14-.255.688-.08,1.042,2.013,4.072,4.219,8.119,5.885,12.339a30.254,30.254,0,0,1,1.776,10.741,64.629,64.629,0,0,0,.65,8.007c.016.114.043.212.062.323,2.316,29.156,9.65,88.583,30.855,85.936,0,0,16.111-3.207,26.886-40.546l7.313,32.444s-13.473,34.343-15.515,44.545c0,0,59.8,34.014,103.667,0l-12.729-41.2,7.826-32.342s17.872,41.862,28.6,79.105a38.218,38.218,0,0,1,.232,6.331c-.16,3.266-1.6,6.811-2.611,9.929-.411,1.277-2.645,7.6-.286,8.022.69.123,1.272-.494,1.693-1.065a35.521,35.521,0,0,0,6.282-14.454c1.03,7.122.368,14.066.753,21.212a2.661,2.661,0,0,0,.381,1.477c1.232,1.645,2.228-1.1,2.394-1.958,1.274-6.587,1.435-13.337,1.59-20.048q.553,6.166,1.1,12.332c.183,2.045.48,4.115.552,6.167a9.781,9.781,0,0,0,.969,4.892c.2.337.533.683.918.615,1.214-.212,1.159-4.012,1.142-4.859q-.21-10.09-.635-20.174a147.738,147.738,0,0,0,4.605,20.518c.277.925.875,2.055,1.813,1.892.954-.165,1.132-1.469,1.065-2.451a133.149,133.149,0,0,0-3-20.525c1.419,4.589,2.709,10.452,6,14.078a2.988,2.988,0,0,0,1.9,1.038c1.095.089.379-4.548.179-5.089" transform="translate(0 3.451)" fill="#e99988"/>
                <path id="Path_205342" data-name="Path 205342" d="M83.663,51.244a10.528,10.528,0,0,0-5.954-1.955,6.644,6.644,0,0,0-5.439,2.822,8.415,8.415,0,0,0-1.13,4.667A15.879,15.879,0,0,0,75.368,67.4,15.375,15.375,0,0,0,85.6,72.2" transform="translate(1.971 2.204)" fill="#e99988"/>
                <path id="Path_205343" data-name="Path 205343" d="M143.371,51.244a10.523,10.523,0,0,1,5.954-1.955,6.644,6.644,0,0,1,5.438,2.822,8.424,8.424,0,0,1,1.132,4.667,15.889,15.889,0,0,1-4.228,10.62c-3.961,4.223-9.077,6.289-14.764,5.206" transform="translate(3.794 2.204)" fill="#e99988"/>
                <path id="Path_205344" data-name="Path 205344" d="M75.406,54.666c3.406-.939,6.424,1.711,8.2,4.391a15.621,15.621,0,0,1,2.552,9.2c-.026.695,1.035.693,1.062,0a16.586,16.586,0,0,0-3.058-10.27c-2.067-2.861-5.352-5.378-9.033-4.363a.539.539,0,0,0,.282,1.04" transform="translate(2.071 2.388)" fill="#c97567"/>
                <path id="Path_205345" data-name="Path 205345" d="M80.872,55.714a11.292,11.292,0,0,0-1.064,3.092A7.563,7.563,0,0,0,83.1,66.137c.577.376,1.109-.557.535-.931a6.4,6.4,0,0,1-2.662-3.865,7.545,7.545,0,0,1,.817-5.083c.287-.626-.628-1.173-.916-.544" transform="translate(2.209 2.479)" fill="#c97567"/>
                <path id="Path_205346" data-name="Path 205346" d="M141.676,68.691a13.1,13.1,0,0,1,10.412-12.843c.669-.136.385-1.175-.282-1.04a14.179,14.179,0,0,0-11.191,13.882.53.53,0,0,0,1.061,0" transform="translate(3.897 2.451)" fill="#c97567"/>
                <path id="Path_205347" data-name="Path 205347" d="M145.394,58.789a5.494,5.494,0,0,1,.963,4.048,4.179,4.179,0,0,1-2.165,2.961c-.61.311-.074,1.241.535.932a5.2,5.2,0,0,0,2.653-3.606,6.57,6.57,0,0,0-1.07-4.879c-.382-.57-1.3-.031-.916.544" transform="translate(3.988 2.594)" fill="#c97567"/>
                <path id="Path_205348" data-name="Path 205348" d="M138.308,16.672a20.809,20.809,0,0,0-8.226-4.972,51.648,51.648,0,0,0-25.106-1.075c-5.411,1.1-13.1,3.076-16.67,7.734C82.991,25.3,81.23,36.194,81.564,44.778A170.86,170.86,0,0,0,84.7,70.959C86.392,79.6,91.251,88.037,99.815,90.8c8,2.584,17,3.394,25.179,1.173,7.106-1.93,12.088-7.824,14.977-14.451a84.32,84.32,0,0,0,6.9-23.571c1.237-10.308,2.81-22.627-3.7-31.665a38.53,38.53,0,0,0-4.862-5.615" transform="translate(2.259 0.428)" fill="#e99988"/>
                <path id="Path_205349" data-name="Path 205349" d="M101.125,50.611c0,2.226-.912,4.031-2.035,4.031s-2.035-1.8-2.035-4.031.911-4.031,2.035-4.031,2.035,1.8,2.035,4.031" transform="translate(2.689 2.083)" fill="#b26356"/>
                <path id="Path_205350" data-name="Path 205350" d="M125.969,50.611c0,2.226-.911,4.031-2.035,4.031s-2.035-1.8-2.035-4.031.911-4.031,2.035-4.031,2.035,1.8,2.035,4.031" transform="translate(3.378 2.083)" fill="#b26356"/>
                <path id="Path_205351" data-name="Path 205351" d="M109.963,34.752q.877,5.024,1.755,10.047c.4,2.29-.321,3.986-2.5,4.922a5.124,5.124,0,0,0-2.507,1.909c-2.171,3.732-.007,7.6,3.8,8.86.848.281,1.208-1.073.367-1.352-3.441-1.142-5.427-5.674-1.616-7.906,1.314-.77,3.184-1.091,3.708-2.8a10.4,10.4,0,0,0-.1-5.012q-.789-4.523-1.58-9.043c-.155-.889-1.484-.511-1.33.373" transform="translate(2.933 1.515)" fill="#c97567"/>
                <path id="Path_205352" data-name="Path 205352" d="M107.39,62.363a7.884,7.884,0,0,0,11.041-1.87c.543-.716-.657-1.412-1.191-.707a6.512,6.512,0,0,1-9.154,1.366c-.738-.509-1.426.706-.7,1.211" transform="translate(2.967 2.661)" fill="#c97567"/>
                <path id="Path_205353" data-name="Path 205353" d="M104.344,34.8c.656,2.008-1.99,4.708-5.908,6.029s-7.628.766-8.283-1.242,1.991-4.709,5.909-6.03,7.627-.765,8.282,1.243" transform="translate(2.495 1.469)" fill="#b26356"/>
                <path id="Path_205354" data-name="Path 205354" d="M159.827,180.707c9.775-5.508,17.125-14.079,22.357-23.982-6.923-17.3-15.346-31.989-25.391-39.334a18.463,18.463,0,0,0-3.591-2.028l-20.574-8.885a36.629,36.629,0,0,1-18.122,7.709c-8.923.988-18.541-2.91-23.946-9.881-10.306,1.6-24.949,5-30.835,11.789-5.451,6.288-11.7,17.485-16.057,25.907a77.75,77.75,0,0,0,6.515,15.387c.562,1.046,1.116,2.125,1.679,3.216a37.883,37.883,0,0,0,11.529,11.752c.577-1.719,1.144-3.51,1.695-5.41L72.35,199.4s-13.525,34.323-15.582,44.521c0,0,59.743,34.108,103.667.164l-12.667-41.225,7.874-32.331s1.626,3.826,4.184,10.177" transform="translate(1.21 4.665)" fill="#2e5d91"/>
                <path id="Path_205355" data-name="Path 205355" d="M119.572,34.8c-.656,2.008,1.99,4.708,5.908,6.029s7.628.766,8.283-1.242-1.991-4.709-5.909-6.03-7.627-.765-8.282,1.243" transform="translate(3.311 1.469)" fill="#b26356"/>
                <path id="Path_205356" data-name="Path 205356" d="M111.538,5.611a20.587,20.587,0,0,0,.561,14.66,20.118,20.118,0,0,0,10.226,10.352c2.606,1.148,5.694,1.913,7.159,4.386,1.513,2.555.629,5.848,1.214,8.77a8.682,8.682,0,0,0,4.133,5.765,8.424,8.424,0,0,0,6.994.588,14.924,14.924,0,0,0,.774,4.228,4.929,4.929,0,0,0,2.868,2.991,4.722,4.722,0,0,0,4.8-1.653,11.4,11.4,0,0,0,2.2-4.912,37.293,37.293,0,0,0-8.5-33.236A35.912,35.912,0,0,0,111.989,6.482" transform="translate(3.061 0.251)" fill="#feb777"/>
                <g id="Group_982706" data-name="Group 982706" transform="translate(91.93 59.763)" opacity="0.15" style="mix-blend-mode: multiply;isolation: isolate">
                  <g id="Group_982705" data-name="Group 982705">
                    <g id="Group_982704-2" data-name="Group 982704" clip-path="url(#clip-path-6)">
                      <path id="Path_205357" data-name="Path 205357" d="M103.4,62.419c0,2.879-3.122,5.213-6.974,5.213s-6.974-2.334-6.974-5.213,3.122-5.214,6.974-5.214,6.974,2.335,6.974,5.214" transform="translate(-89.451 -57.205)" fill="#ea497f"/>
                    </g>
                  </g>
                </g>
                <path id="Path_205358" data-name="Path 205358" d="M160.174,243.913l-12.729-41.2,7.825-32.342-10.42-28.553,1.777-29.241-4.03-1.733-1.589,29.167-31.695,18.3L80.478,136.174,78.938,106.5c-2.213.562-4.42,1.207-6.545,1.944l3.273,29.716L64.708,166.925l7.313,32.443s-13.472,34.344-15.514,44.546c0,0,59.8,34.014,103.667,0" transform="translate(1.566 4.763)" fill="#ea6eb2"/>
                <g id="Group_982709" data-name="Group 982709" transform="translate(124.065 59.763)" opacity="0.15" style="mix-blend-mode: multiply;isolation: isolate">
                  <g id="Group_982708" data-name="Group 982708">
                    <g id="Group_982707" data-name="Group 982707" clip-path="url(#clip-path-6)">
                      <path id="Path_205359" data-name="Path 205359" d="M134.668,62.419c0,2.879-3.122,5.213-6.974,5.213s-6.974-2.334-6.974-5.213,3.122-5.214,6.974-5.214,6.974,2.335,6.974,5.214" transform="translate(-120.72 -57.205)" fill="#ea497f"/>
                    </g>
                  </g>
                </g>
                <path id="Path_205360" data-name="Path 205360" d="M137.528,109.056l-6.071-2.61a36.633,36.633,0,0,1-18.109,7.737c-8.922,1-18.546-2.88-23.961-9.843-2.358.371-4.946.841-7.6,1.419a26.918,26.918,0,0,0,5.468,7.12,32.154,32.154,0,0,0,16,7.8c12.362,2.3,25.64-2.4,34.271-11.619" transform="translate(2.266 4.666)" fill="#244d72"/>
                <path id="Path_205361" data-name="Path 205361" d="M144.422,141.813l1.777-29.241-4.03-1.733-1.589,29.167-31.695,18.3L80.05,136.174,78.509,106.5c-2.213.562-4.42,1.207-6.545,1.944l3.273,29.716-.816,2.143,33.711,24.4,37.309-20.094Z" transform="translate(1.994 4.763)" fill="#ce599e"/>
                <path id="Path_205362" data-name="Path 205362" d="M175.8,147.058c-4.99,10.86-11.477,21.038-20.672,27.759l.418,1.024c9.208-6.667,15.764-16.728,20.822-27.525-.187-.424-.379-.838-.568-1.258" transform="translate(4.299 6.577)" fill="#244d72"/>
                <path id="Path_205363" data-name="Path 205363" d="M64.488,165.764a70.877,70.877,0,0,1-17.413-31.632q-.375.683-.742,1.36A71.944,71.944,0,0,0,64.11,166.884a5.1,5.1,0,0,1,.377-1.12" transform="translate(1.284 5.998)" fill="#244d72"/>
                <path id="Path_205364" data-name="Path 205364" d="M81.119,51.55C80.8,40.332,91.653,31.712,93.136,20.591c7.57.764,15.861-.257,21.486-5.463,2.091-1.935,3.674-5.458,1.685-7.5a5.613,5.613,0,0,0-3.159-1.341C100.722,4.112,87.281,10.736,81.262,22" transform="translate(2.248 0.263)" fill="#feb777"/>
                <path id="Path_205365" data-name="Path 205365" d="M158.518,233.289l-.336-1.085a86.136,86.136,0,0,1-36.628,12.119,101.168,101.168,0,0,1-41.5-5.157,80.037,80.037,0,0,1-20.881-10.311c-.117.36-.228.709-.341,1.06a83.312,83.312,0,0,0,19.222,9.693,102.494,102.494,0,0,0,43.5,5.794,85.084,85.084,0,0,0,36.964-12.113" transform="translate(1.63 10.235)" fill="#ce599e"/>
                <path id="Path_205366" data-name="Path 205366" d="M35.157,144.2a92.447,92.447,0,0,1,6.4,28.2c.046.691,1.107.695,1.061,0a93.379,93.379,0,0,0-6.439-28.482c-.253-.636-1.28-.358-1.023.286" transform="translate(0.973 6.42)" fill="#c97567"/>
              </g>
            </g>
          </g>
        </g>
      </g>
      <rect id="Rectangle_338291" data-name="Rectangle 338291" width="610" height="9" transform="translate(496 3194.5)" fill="#fff"/>
    </g>
  </g>
</svg>
