<svg id="Group_176399" data-name="Group 176399" xmlns="http://www.w3.org/2000/svg" xmlns:xlink="http://www.w3.org/1999/xlink" width="402.323" height="285.908" viewBox="0 0 402.323 285.908">
  <defs>
    <clipPath id="clip-path">
      <path id="Path_189400" data-name="Path 189400" d="M12.323,25.908h380a10,10,0,0,1,10,10v240a10,10,0,0,1-10,10h-380a10,10,0,0,1-10-10v-240a10,10,0,0,1,10-10" transform="translate(-2.323 -25.908)" fill="#a6bbff"/>
    </clipPath>
    <clipPath id="clip-path-2">
      <path id="Path_189232" data-name="Path 189232" d="M188.153,30.681s3.617,18.374,17.3,8.556c0,0-1.79-11.167-9.793-11.168a14.361,14.361,0,0,0-7.509,2.612" transform="translate(-188.153 -28.069)" fill="none"/>
    </clipPath>
    <clipPath id="clip-path-3">
      <path id="Path_189234" data-name="Path 189234" d="M217.132,39.106c9.12,12.813,16.982-4.528,16.982-4.528-2.669-3.291-5.125-4.5-7.292-4.5-5.93,0-9.69,9.024-9.69,9.024" transform="translate(-217.132 -30.082)" fill="none"/>
    </clipPath>
    <clipPath id="clip-path-4">
      <rect id="Rectangle_47374" data-name="Rectangle 47374" width="402.323" height="285.908" fill="none"/>
    </clipPath>
  </defs>
  <g id="Group_176387" data-name="Group 176387">
    <path id="Path_189401" data-name="Path 189401" d="M12.323,25.908h380a10,10,0,0,1,10,10v240a10,10,0,0,1-10,10h-380a10,10,0,0,1-10-10v-240a10,10,0,0,1,10-10" transform="translate(-0.323)" fill="#6b8dfc"/>
    <g id="Mask_Group_335" data-name="Mask Group 335" transform="translate(2.001 25.908)" clip-path="url(#clip-path)">
      <g id="Group_176397" data-name="Group 176397" transform="translate(-139.357 38.301) rotate(-6)">
        <g id="Group_176396" data-name="Group 176396" transform="translate(0)">
          <g id="Group_176395" data-name="Group 176395">
            <path id="Path_189395" data-name="Path 189395" d="M524.628,266.941c-39.52,39.759-80.242,78.175-121.687,115.967,18.936-39.074,39.2-77.613,57.278-117.051,20.5-44.718,44.715-105.509,23.421-150.527C435.1,12.716,295.893,121.637,243.994,176.662c-5.534,5.858-10.828,11.959-16.19,18,19.6-43.445,37.5-87.987,35.365-133.9-2.944-63.124-61.283-75.726-113.413-44.04C93.768,50.759,47.5,107.4,8.676,158.7c-32.971,43.572,36.352,80.612,69.052,37.653a629.155,629.155,0,0,1,58.253-66.247q-4.772,8.157-9.628,16.294c-21.447,35.839-42.656,71.805-60.5,109.313C31.666,327.549-18.57,427.109,17.131,499.506c17.995,36.481,63.934,38.241,99.344,21.512,47.59-22.487,81.938-69.012,114.814-108.554,34.317-41.287,64.86-84.868,96.838-127.78,13.368-17.932,26.731-36.11,41.849-52.731.346-.378.714-.733,1.061-1.119l-.412,1.144c-9.094,24.83-20.436,48.772-31.9,72.781-21.341,44.663-48.388,91.883-57.62,139.876-8.168,42.432,7.06,88.913,58.7,83.582,48.538-5.009,89.4-52.631,123.138-84.717C503.81,404.638,544,365.065,584.2,325.539,626.172,284.276,566.133,225.19,524.628,266.941Z" transform="translate(7.938 7.752)" fill="#3c3fa7"/>
            <path id="Path_189396" data-name="Path 189396" d="M342.776,544.03c-19,.838-34.828-5.01-46-17.071-15.526-16.765-21.3-44.934-15.446-75.357,7.62-39.647,26.765-78.152,45.282-115.388,4.426-8.916,8.816-17.739,12.99-26.466,3.95-8.279,8.108-16.975,12.247-25.964-2.432,3.238-4.841,6.475-7.225,9.68l-2.367,3.173c-8.309,11.147-16.518,22.343-24.727,33.523-23.026,31.4-46.844,63.878-72.41,94.624q-5.6,6.748-11.283,13.715c-29.341,35.817-62.594,76.417-106.559,97.194-39.2,18.5-89.331,16.008-109.335-24.572-35.954-72.888,10.778-170.79,44.9-242.28l3.881-8.121c10.04-21.116,21.165-41.787,32.9-62.392q-3.972,5-7.829,10.054c-20.208,26.562-53.578,27.648-74.173,13.35C.591,209.905-8.233,186.914,10.467,162.2,51.9,107.437,97.976,52.059,154,18,185.109-.9,218.4-5.21,243.119,6.462c21.754,10.276,34.475,31.938,35.835,61.018,1.589,34.105-7.391,67.22-19.685,98.961,42.046-40.533,119.038-98.794,178.461-93.1,27.3,2.628,47.831,18.1,61.018,45.981,21.687,45.849.3,105.058-23.481,156.938-11.32,24.689-23.659,49.376-35.593,73.244l-4.224,8.445c33.73-31.322,63.954-60.453,91.744-88.406h0c13.74-13.83,30.659-19.427,47.6-15.8,18.6,3.992,33.974,18.99,38.251,37.339,3.938,16.829-1.6,33.675-15.606,47.44l-4.572,4.5c-38.061,37.427-77.416,76.122-116.786,113.561-4.852,4.617-9.843,9.549-15,14.634-30.61,30.228-68.711,67.858-113.212,72.45C346.145,543.835,344.456,543.956,342.776,544.03Zm36.49-312.835a7.045,7.045,0,0,1,3.754.837,6.9,6.9,0,0,1,3.319,8.606l-.419,1.144c-9.532,26.029-21.573,51.251-32.2,73.5-4.209,8.807-8.643,17.716-13.111,26.711-18.018,36.235-36.647,73.7-43.856,111.169-4.892,25.446-.276,49.525,12.051,62.838,9.13,9.861,22.177,13.943,38.8,12.284,38.528-3.982,72.7-37.721,102.847-67.5,5.229-5.166,10.31-10.178,15.235-14.86,39.263-37.334,78.569-75.98,116.581-113.359l4.564-4.5c12.381-12.167,12.75-24.266,10.877-32.28-3.043-13.021-14.367-24.1-27.549-26.915-8.022-1.728-20.115-1.21-32.223,10.975h0c-35.9,36.106-75.807,74.139-122.006,116.274a8.069,8.069,0,0,1-9.907,1.023,7.228,7.228,0,0,1-2.184-9.288c7.155-14.774,14.5-29.464,21.843-44.161,11.873-23.742,24.143-48.3,35.35-72.732,22.277-48.59,42.48-103.714,23.361-144.124-11.119-23.5-27.331-35.962-49.559-38.1-55.4-5.306-136.454,57.274-177.383,100.665-4.359,4.626-8.576,9.408-12.8,14.182l-3.2,3.627a8.2,8.2,0,0,1-10.107,1.98,7.19,7.19,0,0,1-2.744-9.371c18.679-41.376,36.738-85.532,34.654-130.265-1.119-23.978-10.777-40.933-27.928-49.036-20.013-9.442-47.65-5.532-73.957,10.449-53.491,32.51-98.225,86.378-138.606,139.746C10,187.575,16.8,201.456,27.412,208.822c14.373,9.977,37.517,10.2,52.115-8.984a639.06,639.06,0,0,1,59.078-67.178,8.081,8.081,0,0,1,10.283-1.194,7.313,7.313,0,0,1,1.754,9.793q-4.8,8.2-9.678,16.366c-21.717,36.29-42.653,71.905-60.119,108.6l-3.882,8.144C44.227,342.955-.6,436.886,32.2,503.389c15.933,32.316,57.008,33.727,89.345,18.46,40.355-19.061,70.89-56.349,100.414-92.4q5.73-7,11.366-13.811c25.226-30.338,48.877-62.588,71.761-93.778q12.339-16.83,24.794-33.634l2.366-3.166c12.543-16.847,25.512-34.267,40.028-50.222l.74-.781A9.461,9.461,0,0,1,379.266,231.194Zm153.3,43.5.078,0Z"/>
          </g>
          <path id="Path_189397" data-name="Path 189397" d="M38.011,4.2C6.526,62.685-12.788,130.461,9.855,190.835c3.352,8.92,18.717,4.279,15.324-4.778C3.914,129.37,21.6,66.408,51.216,11.4,56.095,2.327,42.915-4.911,38.011,4.2Z" transform="translate(33.776 298.286)"/>
          <path id="Path_189398" data-name="Path 189398" d="M22.6,41.125c-.133-.009-.256-.043-.381-.06-.2-.415-.385-.854-.45-.975l-.029-.045c-.013-.061.009-.023-.011-.115-.858-3.4-1.431-6.869-2.035-10.343Q17.566,17.477,15.457,5.367C14.771,1.449,9.97-1.007,6.038.4a8.678,8.678,0,0,0-5.9,9.745L4.922,37.532c1.336,7.606,3.561,17.555,12.831,18.681,4,.479,8.7-1.424,9.9-5.826C28.68,46.616,26.889,41.645,22.6,41.125Z" transform="translate(65.718 423.393)"/>
          <path id="Path_189399" data-name="Path 189399" d="M30.963.822c-8.7-4.289-17.238,9.4-8.517,13.693,12.032,5.931,15.193,18.947,15.107,31.867C37.46,61.059,35.1,76.254,32.029,90.84a315.363,315.363,0,0,1-30.961,84.2c-4.887,9.075,8.3,16.313,13.2,7.2A330.86,330.86,0,0,0,49.12,83.146C54.065,55.13,60.269,15.26,30.963.822Z" transform="translate(417.662 118.865)"/>
        </g>
      </g>
    </g>
    <g id="Group_176380" data-name="Group 176380" transform="translate(110.522 3.076)">
      <g id="Group_176398" data-name="Group 176398">
        <rect id="Rectangle_47378" data-name="Rectangle 47378" width="20.959" height="86.907" transform="translate(252.477 100.407)" fill="#5774cd"/>
        <rect id="Rectangle_47379" data-name="Rectangle 47379" width="13.987" height="76.583" transform="translate(238.807 110.731)" fill="#fea41a"/>
        <rect id="Rectangle_47380" data-name="Rectangle 47380" width="25.532" height="121.973" transform="translate(213.275 65.34)" fill="#d7e5ff"/>
        <path id="Path_189204" data-name="Path 189204" d="M380.886,180.851h-14.17a.693.693,0,0,1,0-1.365h14.17a.693.693,0,0,1,0,1.365" transform="translate(-110.845 -3.076)" fill="#fff"/>
        <path id="Path_189205" data-name="Path 189205" d="M380.886,176.217h-14.17a.693.693,0,0,1,0-1.365h14.17a.693.693,0,0,1,0,1.365" transform="translate(-110.845 -3.076)" fill="#fff"/>
        <path id="Path_189206" data-name="Path 189206" d="M361.189,184.969H352.1a.693.693,0,0,1,0-1.365h9.088a.693.693,0,0,1,0,1.365" transform="translate(-110.845 -3.076)" fill="#fff"/>
        <path id="Path_189207" data-name="Path 189207" d="M361.189,180.336H352.1a.693.693,0,0,1,0-1.365h9.088a.693.693,0,0,1,0,1.365" transform="translate(-110.845 -3.076)" fill="#fff"/>
        <path id="Path_189208" data-name="Path 189208" d="M345.907,184.969H329.428a.693.693,0,0,1,0-1.365h16.479a.693.693,0,0,1,0,1.365" transform="translate(-110.845 -3.076)" fill="#fff"/>
        <path id="Path_189209" data-name="Path 189209" d="M345.907,180.336H329.428a.693.693,0,0,1,0-1.365h16.479a.693.693,0,0,1,0,1.365" transform="translate(-110.845 -3.076)" fill="#fff"/>
        <path id="Path_189210" data-name="Path 189210" d="M345.907,176.217H329.428a.693.693,0,0,1,0-1.365h16.479a.693.693,0,0,1,0,1.365" transform="translate(-110.845 -3.076)" fill="#fff"/>
        <path id="Path_189211" data-name="Path 189211" d="M345.907,171.585H329.428a.693.693,0,0,1,0-1.365h16.479a.693.693,0,0,1,0,1.365" transform="translate(-110.845 -3.076)" fill="#fff"/>
        <path id="Path_189212" data-name="Path 189212" d="M251.632,241.829l-139.877,13.4v-13.4Z" transform="translate(-110.845 -3.076)"/>
        <path id="Path_189213" data-name="Path 189213" d="M123.7,261.13H136.03l.045,6.726L123.7,269.939Z" transform="translate(-110.845 -3.076)"/>
        <path id="Path_189214" data-name="Path 189214" d="M251.631,262.04H111.754a.909.909,0,0,1-.909-.91v-19.3a.909.909,0,0,1,.909-.91H251.631a.909.909,0,0,1,.91.91v19.3a.909.909,0,0,1-.91.91m-138.967-1.82H250.721V242.738H112.664Z" transform="translate(-110.845 -3.076)"/>
        <path id="Path_189215" data-name="Path 189215" d="M124.606,285.177V262.04h10.513v23.137h1.82V261.13a.909.909,0,0,0-.91-.91H123.7a.91.91,0,0,0-.91.91v24.047Z" transform="translate(-110.845 -3.076)"/>
        <path id="Path_189216" data-name="Path 189216" d="M226.951,285.177V250.611h10.515v34.566h1.82V249.7a.909.909,0,0,0-.91-.909H226.041a.908.908,0,0,0-.909.909v35.476Z" transform="translate(-110.845 -3.076)"/>
        <path id="Path_189217" data-name="Path 189217" d="M208.411,73.034l1.767-21.746-21.746-1.766-1.767,21.745-25.442-.411L177.307,95.9l21.624,37.179,25.512-55.963Z" transform="translate(-110.845 -3.076)" fill="#c46c3f"/>
        <path id="Path_189218" data-name="Path 189218" d="M207.268,51.052l2.849.978-1.063,13.089c-9.4,3.447-17.171-2.665-21.31-7.133l.674-8.288.153-.165Z" transform="translate(-110.845 -3.076)"/>
        <path id="Path_189219" data-name="Path 189219" d="M179.267,24.2s-10.44-5.47-13.667,2.514,8.169,15.608,14.549,9.571-.882-12.085-.882-12.085" transform="translate(-110.845 -3.076)" fill="#c46c3f"/>
        <path id="Path_189220" data-name="Path 189220" d="M178.1,33.438a.833.833,0,0,0,.63-1.445l-6.94-6.363a.833.833,0,1,0-1.125,1.228l6.94,6.363a.824.824,0,0,0,.495.217" transform="translate(-110.845 -3.076)"/>
        <path id="Path_189221" data-name="Path 189221" d="M172.7,35.081a.83.83,0,0,0,.728-.323l2.7-3.518a.833.833,0,1,0-1.322-1.015l-2.7,3.518a.833.833,0,0,0,.593,1.338" transform="translate(-110.845 -3.076)"/>
        <path id="Path_189222" data-name="Path 189222" d="M232.8,31.994s10.182-.971,10.178,6.477S231.32,48.3,228.153,41.385s4.646-9.391,4.646-9.391" transform="translate(-110.845 -3.076)" fill="#c46c3f"/>
        <path id="Path_189223" data-name="Path 189223" d="M230.877,39.913a.819.819,0,0,0,.357-.049l7.656-2.829a.834.834,0,0,0-.579-1.564l-7.656,2.83a.833.833,0,0,0,.222,1.612" transform="translate(-110.845 -3.076)"/>
        <path id="Path_189224" data-name="Path 189224" d="M234.692,43a.834.834,0,0,0,.871-1.053l-1.029-3.7a.834.834,0,0,0-1.607.446l1.029,3.7a.835.835,0,0,0,.736.608" transform="translate(-110.845 -3.076)"/>
        <path id="Path_189225" data-name="Path 189225" d="M234.118,40.618a29.127,29.127,0,1,0-36.2,20.02,29.253,29.253,0,0,0,36.2-20.02" transform="translate(-110.845 -3.076)" fill="#c46c3f"/>
        <path id="Path_189226" data-name="Path 189226" d="M205.454,39.237s-2.831-17.672-17.3-8.556c0,0,3.617,18.374,17.3,8.556" transform="translate(-110.845 -3.076)" fill="#fff"/>
        <path id="Path_189227" data-name="Path 189227" d="M217.132,39.106s7.009-16.825,16.982-4.528c0,0-7.862,17.34-16.982,4.528" transform="translate(-110.845 -3.076)" fill="#fff"/>
        <path id="Path_189228" data-name="Path 189228" d="M205.635,25.449a.624.624,0,0,0,.4-1.142,12.313,12.313,0,0,0-10.35-1.092.625.625,0,0,0,.414,1.18,11.228,11.228,0,0,1,9.244.953.628.628,0,0,0,.294.1" transform="translate(-110.845 -3.076)"/>
        <path id="Path_189229" data-name="Path 189229" d="M232.151,26.409a.625.625,0,0,0,.495-1.063c-3.747-3.786-10.421-2.047-10.7-1.971a.625.625,0,0,0,.324,1.207c.061-.015,6.253-1.623,9.49,1.644a.622.622,0,0,0,.393.183" transform="translate(-110.845 -3.076)"/>
        <path id="Path_189230" data-name="Path 189230" d="M214.6,44.388a.833.833,0,0,0,.866-1.068l-1.591-5.358a.833.833,0,0,0-1.47-.257l-3.278,4.454a.833.833,0,0,0,1.343.987l2.285-3.1,1.114,3.752a.833.833,0,0,0,.731.593" transform="translate(-110.845 -3.076)"/>
      </g>
    </g>
    <g id="Group_176382" data-name="Group 176382" transform="translate(188.153 28.069)">
      <g id="Group_176381" data-name="Group 176381" transform="translate(0)" clip-path="url(#clip-path-2)">
        <path id="Path_189231" data-name="Path 189231" d="M205.456,37.011a7.138,7.138,0,1,1-6.537-7.693,7.139,7.139,0,0,1,6.537,7.693" transform="translate(-188.153 -28.069)"/>
      </g>
    </g>
    <g id="Group_176384" data-name="Group 176384" transform="translate(217.132 30.082)">
      <g id="Group_176383" data-name="Group 176383" transform="translate(0)" clip-path="url(#clip-path-3)">
        <path id="Path_189233" data-name="Path 189233" d="M232.291,39.088c-.332,4.086-3.648,7.151-7.406,6.845s-6.537-3.865-6.2-7.951,3.648-7.151,7.406-6.845,6.536,3.865,6.2,7.951" transform="translate(-217.132 -30.082)"/>
      </g>
    </g>
    <g id="Group_176386" data-name="Group 176386">
      <g id="Group_176385" data-name="Group 176385" clip-path="url(#clip-path-4)">
        <path id="Path_189235" data-name="Path 189235" d="M212.7,52.358a12.631,12.631,0,0,0,1.33.048.625.625,0,0,0-.042-1.25,17.293,17.293,0,0,1-9.147-2.746.625.625,0,1,0-.7,1.038,18.316,18.316,0,0,0,8.555,2.91" transform="translate(0 0)"/>
        <path id="Path_189236" data-name="Path 189236" d="M177.354,28.681s12.695,3.408,17.911-15.156c0,0,12.7,11.189,21.867,4.433,0,0,9.709,8.162,11.256-.172,0,0,8.18,11.762,9.17,7.665s-2.371-7.362-2.371-7.362,7.424,3.512,7.779-.539c.475-5.42-12.249-7.893-17.343-11.587s-26.239-12-40.279,1.324c-11.693,11.093-7.99,21.394-7.99,21.394" transform="translate(0 0)" fill="#ffb6c8"/>
        <path id="Path_189237" data-name="Path 189237" d="M180.268,243.737l13.79-.2,28.882,41.637h62.931L234.719,201.11l-86.747-5.85L124.82,208.724,136.2,250.333Z" transform="translate(0 0)" fill="#5774cd"/>
        <path id="Path_189238" data-name="Path 189238" d="M174.865,70.279,140.911,72.8c-12.77,1.447-24.019,2.24-32.094,13.092-5.619,7.552-41.645,58.1-58.4,86.2a17.187,17.187,0,0,0,28.72,18.83l46.707-54.081.88,68.344,113.113-3.846,2.589-57.621,19.52,60.168a16.183,16.183,0,0,0,16.631,11.732,15.939,15.939,0,0,0,15.014-18.5L276.33,109.326a33.153,33.153,0,0,0-22.654-25.7l-37.811-8.77L195.85,88.869Z" transform="translate(0 0)" fill="#fea41a"/>
        <path id="Path_189239" data-name="Path 189239" d="M188.658,202.91a.23.23,0,0,1-.037,0,.678.678,0,0,1-.643-.718l5.643-104.138a.692.692,0,0,1,.717-.643.68.68,0,0,1,.644.718l-5.644,104.138a.681.681,0,0,1-.68.645" transform="translate(0 0)"/>
        <path id="Path_189240" data-name="Path 189240" d="M244.494,132.605a.694.694,0,0,1-.217-.035.682.682,0,0,1-.43-.864L257.4,91.1a.675.675,0,0,1,.864-.43.683.683,0,0,1,.43.864l-13.555,40.6a.682.682,0,0,1-.647.465" transform="translate(0 0)"/>
        <path id="Path_189241" data-name="Path 189241" d="M128,117.654a.683.683,0,0,1-.672-.565l-5.755-33.233a.682.682,0,0,1,.555-.789.664.664,0,0,1,.789.554l5.755,33.233a.682.682,0,0,1-.555.789.7.7,0,0,1-.117.011" transform="translate(0 0)"/>
        <path id="Path_189242" data-name="Path 189242" d="M128.988,285.177H177.4l-17.042-63.005c-3.18-11.129-14.5-15.7-24.5-15.793a32.107,32.107,0,0,0-6.185,1.031c-13.229,2.925-21.19,16.093-16.835,28.651Z" transform="translate(0 0)" fill="#5774cd"/>
        <path id="Path_189243" data-name="Path 189243" d="M167.224,246.95a.913.913,0,0,1-.871-.645l-8.516-27.912a.91.91,0,0,1,1.742-.529l8.516,27.911a.913.913,0,0,1-.606,1.136.934.934,0,0,1-.265.039" transform="translate(0 0)"/>
        <path id="Path_189244" data-name="Path 189244" d="M165.308,175.541s8.249-1.165,13.358,1.21a72.618,72.618,0,0,1,10.916,6.958,1.425,1.425,0,0,1,.294,2.054,2.941,2.941,0,0,1-3.4.819l-9.663-5.123-23.65.644-6.853-5.928Z" transform="translate(0 0)" fill="#c46c3f"/>
        <path id="Path_189245" data-name="Path 189245" d="M161.065,178.379s8.249-1.165,13.358,1.211a71.567,71.567,0,0,1,10.724,6.814,1.646,1.646,0,0,1,.342,2.377,2.623,2.623,0,0,1-3.033.732l-8.152-3.378-20.164-5.488Z" transform="translate(0 0)" fill="#c46c3f"/>
        <path id="Path_189246" data-name="Path 189246" d="M159.147,172.353a52.453,52.453,0,0,1,17.639.759c4.777,1.117,9.534,4.326,11.929,6.126a1.927,1.927,0,0,1,.394,2.776,2.287,2.287,0,0,1-2.643.638l-8.39-3.476-31.767-3s7.517-3.106,12.838-3.822" transform="translate(0 0)" fill="#c46c3f"/>
        <path id="Path_189247" data-name="Path 189247" d="M151.773,174.186s17.746,2.6,25.956,11.637a1.9,1.9,0,0,1-.434,2.939,3.406,3.406,0,0,1-3.1-.175c-2.373-1.356-4.084-2.643-12.352-2.2-3.616.195-10.34,2.228-14.487,2.808-8.6,1.2-17.541-13.394-17.541-13.394Z" transform="translate(0 0)" fill="#c46c3f"/>
        <path id="Path_189248" data-name="Path 189248" d="M145.975,189.871c-2.049,0-4.264-.4-5.578-1.833a37.218,37.218,0,0,1-3.888-4.868.7.7,0,0,1,1.18-.736,36.659,36.659,0,0,0,3.732,4.664c1.918,2.093,7.108,1.316,8.951.838,10.948-4.071,23.508-.179,24.036-.012a.695.695,0,1,1-.42,1.325c-.125-.038-12.634-3.913-23.2.012a20.87,20.87,0,0,1-4.812.61" transform="translate(0 0)"/>
        <path id="Path_189249" data-name="Path 189249" d="M177.73,186.518a.7.7,0,0,1-.584-.318c-.039-.057-2.145-3.045-10.647-4.83a18.321,18.321,0,0,0-6.261-.387.695.695,0,0,1-.246-1.368,19.309,19.309,0,0,1,6.792.395c9.224,1.935,11.443,5.3,11.534,5.441a.695.695,0,0,1-.588,1.067" transform="translate(0 0)"/>
        <path id="Path_189250" data-name="Path 189250" d="M184.724,186.349a.691.691,0,0,1-.448-.164,41.831,41.831,0,0,0-14.479-7.344,34.443,34.443,0,0,0-6.75-1.155.7.7,0,1,1,.057-1.39,35.519,35.519,0,0,1,7.051,1.2,42.4,42.4,0,0,1,15.017,7.626.695.695,0,0,1-.448,1.226" transform="translate(0 0)"/>
        <path id="Path_189251" data-name="Path 189251" d="M188.153,183.132a.691.691,0,0,1-.448-.164,41.831,41.831,0,0,0-14.479-7.344,34.617,34.617,0,0,0-6.75-1.154.694.694,0,0,1-.665-.723.7.7,0,0,1,.722-.667,35.558,35.558,0,0,1,7.051,1.2,42.4,42.4,0,0,1,15.017,7.626.695.695,0,0,1-.448,1.226" transform="translate(0 0)"/>
        <path id="Path_189252" data-name="Path 189252" d="M274.8,285.177h2.163L222.8,201.168a.909.909,0,1,0-1.528.985Z" transform="translate(0 0)"/>
        <path id="Path_189253" data-name="Path 189253" d="M141.861,285.177c-11.409-32.214-22.6-69.674-16.4-75.807a.91.91,0,1,0-1.279-1.294c-7.122,7.05,4.809,46.259,15.739,77.1Z" transform="translate(0 0)"/>
        <path id="Path_189254" data-name="Path 189254" d="M295.579,152.863l-1.747,50.6-28.294,4.825-2.677-60.606Z" transform="translate(0 0)"/>
        <path id="Path_189255" data-name="Path 189255" d="M146.116,168.114H71.16l-2.32,29.243h79.952Z" transform="translate(0 0)" fill="#fea41a"/>
        <path id="Path_189256" data-name="Path 189256" d="M262.86,193.534a.47.47,0,0,1-.053,0,.682.682,0,0,1-.627-.734l3.271-42.341a.68.68,0,0,1,.744-.625l24.763,2.352a.682.682,0,0,1-.128,1.358l-24.072-2.287-3.218,41.65a.682.682,0,0,1-.68.629" transform="translate(0 0)" fill="#fff"/>
        <path id="Path_189257" data-name="Path 189257" d="M71.16,168.8a.683.683,0,0,1-.011-1.365l28.028-.406a.65.65,0,0,1,.693.671.683.683,0,0,1-.672.693l-28.027.407Z" transform="translate(0 0)"/>
        <path id="Path_189258" data-name="Path 189258" d="M88.45,165.956a.7.7,0,0,1-.27-.055l-12.716-5.466a.683.683,0,1,1,.54-1.254l12.716,5.466a.682.682,0,0,1-.27,1.309" transform="translate(0 0)"/>
        <path id="Path_189259" data-name="Path 189259" d="M147.971,195.943a.68.68,0,0,1-.68-.636l-1.813-26.51H126.25a.682.682,0,1,1,0-1.365h19.866a.683.683,0,0,1,.681.637l1.854,27.145a.68.68,0,0,1-.634.727.37.37,0,0,1-.046,0" transform="translate(0 0)"/>
        <path id="Path_189260" data-name="Path 189260" d="M280.332,184.9l16.737-87.065-66.087-5.37-16.737,87.065Z" transform="translate(0 0)" fill="#fff"/>
        <path id="Path_189261" data-name="Path 189261" d="M280.331,185.579a.515.515,0,0,1-.055,0l-66.086-5.369a.684.684,0,0,1-.615-.809l16.738-87.064a.7.7,0,0,1,.725-.553l66.086,5.369a.685.685,0,0,1,.615.809L281,185.025a.68.68,0,0,1-.67.554m-65.272-6.67,64.718,5.257L296.255,98.45l-64.718-5.257Z" transform="translate(0 0)"/>
        <path id="Path_189262" data-name="Path 189262" d="M283.817,189.179l16.737-87.065-66.087-5.37L217.73,183.809Z" transform="translate(0 0)" fill="#fff"/>
        <path id="Path_189263" data-name="Path 189263" d="M283.817,189.861a.506.506,0,0,1-.055,0l-66.088-5.369a.684.684,0,0,1-.615-.809L233.8,96.617a.672.672,0,0,1,.725-.553l66.088,5.369a.683.683,0,0,1,.488.269.674.674,0,0,1,.127.54l-16.738,87.065a.681.681,0,0,1-.67.554m-65.274-6.67,64.72,5.257,16.478-85.716-64.72-5.257Z" transform="translate(0 0)"/>
        <path id="Path_189264" data-name="Path 189264" d="M286.944,188.979l15.248-79.321a3.918,3.918,0,0,0-3.532-4.646l-58.226-4.732a3.921,3.921,0,0,0-4.167,3.167l-15.248,79.321a3.92,3.92,0,0,0,3.532,4.647l58.226,4.731a3.92,3.92,0,0,0,4.167-3.167" transform="translate(0 0)" fill="#5774cd"/>
        <path id="Path_189265" data-name="Path 189265" d="M293.539,154.826,227.3,149.334l5.241-26.477,66.063,5.5Z" transform="translate(0 0)" fill="#ffb6c8"/>
        <path id="Path_189266" data-name="Path 189266" d="M289.755,143.053l10.995,2.867a3.105,3.105,0,0,1,1.857,4.415,4.122,4.122,0,0,1-4.881,2.531l-10.636-3.691a2.8,2.8,0,0,1-1.336-4.053,3.654,3.654,0,0,1,4-2.069" transform="translate(0 0)" fill="#c46c3f"/>
        <path id="Path_189267" data-name="Path 189267" d="M283.5,155.375l12.809,4.225a3.732,3.732,0,0,0,4.06-1.6l.2-.286c1.332-1.9.773-4.278-1.145-4.859l-13.009-3.939a3.838,3.838,0,0,0-4.294,2.117c-.931,1.811-.3,3.791,1.378,4.346" transform="translate(0 0)" fill="#c46c3f"/>
        <path id="Path_189268" data-name="Path 189268" d="M282.531,157.892h0a3.293,3.293,0,0,1,3.671-1.68l8.671,2.473a2.627,2.627,0,0,1,1.736,3.347l-.208.751a3.312,3.312,0,0,1-4.179,2.327l-8.464-3.224a2.732,2.732,0,0,1-1.227-3.994" transform="translate(0 0)" fill="#c46c3f"/>
        <path id="Path_189269" data-name="Path 189269" d="M282.168,163.577h0a2.821,2.821,0,0,1,2.934-1.163l7.1,2.188a2.028,2.028,0,0,1,.995,2.974l-.382.815a2.872,2.872,0,0,1-3.494,1.66l-6.714-3c-1.209-.54-1.414-2.176-.436-3.47" transform="translate(0 0)" fill="#c46c3f"/>
        <path id="Path_189270" data-name="Path 189270" d="M286.252,149.413a.337.337,0,0,1-.206-.439.4.4,0,0,1,.5-.206l11.318,3.771a4.772,4.772,0,0,0,1.907.191.386.386,0,0,1,.457.269.35.35,0,0,1-.3.413,5.535,5.535,0,0,1-2.339-.222l-11.313-3.769-.022-.008" transform="translate(0 0)"/>
        <path id="Path_189271" data-name="Path 189271" d="M285.449,156.575a.337.337,0,0,1-.2-.445.4.4,0,0,1,.5-.2l6.71,2.364c.495.173,3.241.985,3.962,1.141a.35.35,0,0,1,.286.42.39.39,0,0,1-.466.257c-.765-.165-3.542-.987-4.062-1.169l-6.711-2.364-.016-.006" transform="translate(0 0)"/>
        <path id="Path_189272" data-name="Path 189272" d="M284.766,162.828a.336.336,0,0,1-.2-.449.4.4,0,0,1,.5-.192c.089.032,2.183.795,2.815,1.055.665.275,4.747,1.749,5.458,1.9a.348.348,0,0,1,.286.419.391.391,0,0,1-.466.258c-.787-.171-4.964-1.684-5.6-1.946-.614-.255-2.761-1.036-2.783-1.044l-.011,0" transform="translate(0 0)"/>
        <path id="Path_189273" data-name="Path 189273" d="M33.452,161.53h9.353a9.13,9.13,0,0,1,8.043,4.757,7.221,7.221,0,0,0-.754-.04H36.15a4.774,4.774,0,0,0-4.809,4.738v5.146a5.469,5.469,0,0,0,5.509,5.429H50.094a7.221,7.221,0,0,0,.754-.04,9.13,9.13,0,0,1-8.043,4.757H33.452A7.629,7.629,0,0,1,26,178.932V168.875c0-4.057,4.273-7.345,7.455-7.345" transform="translate(0 0)" fill="#fc5f65"/>
        <path id="Path_189274" data-name="Path 189274" d="M51.922,167.882a11.692,11.692,0,0,0-1.074-4.929c3.606.434,6.416,3.937,6.416,8.2v1.381c0,4.259-2.81,7.763-6.416,8.2a11.685,11.685,0,0,0,1.074-4.929Z" transform="translate(0 0)" fill="#fd521b"/>
        <path id="Path_189275" data-name="Path 189275" d="M62.68,190.362H40.555a2.448,2.448,0,0,1-2.449-2.449v-30.9a2.448,2.448,0,0,1,2.449-2.449H62.68a2.449,2.449,0,0,1,2.449,2.449v30.9a2.449,2.449,0,0,1-2.449,2.449" transform="translate(0 0)" fill="#fc5f65"/>
        <rect id="Rectangle_47371" data-name="Rectangle 47371" width="393.468" height="13.855" transform="translate(0.433 190.062)" fill="#fff"/>
        <path id="Path_189276" data-name="Path 189276" d="M393.9,204.6H.433c-.239,0-.433-.306-.433-.683V190.062c0-.377.194-.683.433-.683H393.9c.239,0,.433.306.433.683v13.855c0,.377-.194.683-.433.683M.865,203.235h392.6V190.744H.865Z" transform="translate(0 0)"/>
        <rect id="Rectangle_47372" data-name="Rectangle 47372" width="12.846" height="81.26" transform="translate(339.411 203.917)" fill="#fff"/>
        <path id="Path_189277" data-name="Path 189277" d="M339.844,285.177V204.6h11.98v80.578h.865v-81.26c0-.377-.194-.682-.432-.682H339.41c-.238,0-.432.3-.432.682v81.26Z" transform="translate(0 0)"/>
        <path id="Path_189278" data-name="Path 189278" d="M339.411,208.854l12.846,11.1V203.917H339.411Z" transform="translate(0 0)"/>
        <rect id="Rectangle_47373" data-name="Rectangle 47373" width="12.845" height="81.26" transform="translate(28.455 203.917)" fill="#fff"/>
        <path id="Path_189279" data-name="Path 189279" d="M28.887,285.177V204.6h11.98v80.578h.865v-81.26c0-.377-.193-.682-.432-.682H28.454c-.239,0-.432.3-.432.682v81.26Z" transform="translate(0 0)"/>
        <path id="Path_189280" data-name="Path 189280" d="M28.455,208.854l12.845,11.1V203.917H28.455Z" transform="translate(0 0)"/>
      </g>
    </g>
  </g>
</svg>
