<svg xmlns="http://www.w3.org/2000/svg" xmlns:xlink="http://www.w3.org/1999/xlink" width="315" height="553" viewBox="0 0 315 553">
  <defs>
    <clipPath id="clip-path">
      <rect id="Rectangle_338670" data-name="Rectangle 338670" width="315" height="553" transform="translate(390 1263)" fill="#fff" stroke="#707070" stroke-width="1"/>
    </clipPath>
    <clipPath id="clip-path-2">
      <rect id="Rectangle_45292" data-name="Rectangle 45292" width="336.237" height="256.543" fill="#3c3fa7"/>
    </clipPath>
    <clipPath id="clip-path-3">
      <rect id="Rectangle_338668" data-name="Rectangle 338668" width="351.134" height="532.423" fill="none"/>
    </clipPath>
    <clipPath id="clip-path-4">
      <path id="Path_208918" data-name="Path 208918" d="M127.133,37.512c-1.185,1.693,5.615,3.8,7.815,3.681,3.794-.2,4.43-1.976.2-3.564a13.756,13.756,0,0,0-4.8-.925c-1.756,0-2.946.424-3.215.808" transform="translate(-126.996 -36.704)" fill="none"/>
    </clipPath>
    <clipPath id="clip-path-6">
      <path id="Path_209014" data-name="Path 209014" d="M83.026,34.1c.211,4.682,8.8,8.605,12.308,5.047,2.285-2.32-6.107-6.5-10.2-6.5-1.3,0-2.158.42-2.113,1.453" transform="translate(-83.024 -32.645)" fill="none"/>
    </clipPath>
  </defs>
  <g id="Mask_Group_453" data-name="Mask Group 453" transform="translate(-390 -1263)" clip-path="url(#clip-path)">
    <g id="Group_983161" data-name="Group 983161">
      <rect id="Rectangle_338535" data-name="Rectangle 338535" width="317" height="553" transform="translate(387 1263)" fill="#c4d1ff"/>
      <g id="Group_983393" data-name="Group 983393" transform="translate(387 1318.514)">
        <g id="Group_174179" data-name="Group 174179" transform="translate(-18.761 46.005)">
          <g id="Group_174173" data-name="Group 174173" transform="translate(2.9 151.783)">
            <rect id="Rectangle_44927" data-name="Rectangle 44927" width="239.913" height="300.116" transform="translate(96.826)" fill="#6b8dfc"/>
            <path id="Rectangle_44926" data-name="Rectangle 44926" d="M136.632,0H336.739a0,0,0,0,1,0,0V136.632a0,0,0,0,1,0,0H0a0,0,0,0,1,0,0v0A136.632,136.632,0,0,1,136.632,0Z" transform="translate(0 163.484)" fill="#3c3fa7"/>
          </g>
          <g id="Group_175033" data-name="Group 175033" transform="translate(0 10.046)">
            <g id="Group_175032" data-name="Group 175032" clip-path="url(#clip-path-2)">
              <path id="Path_183468" data-name="Path 183468" d="M65.19,165.945H50.28a.754.754,0,0,1-.7-.8V15.248H.7a.807.807,0,0,1,0-1.6H50.28a.753.753,0,0,1,.7.8v149.9H64.492V.8a.794.794,0,0,1,.492-.764.655.655,0,0,1,.783.313L77.041,19.213a.879.879,0,0,1,.121.451V148.938H89.295V75.111a.754.754,0,0,1,.7-.8h74.936V17.482a.753.753,0,0,1,.7-.8h47.959a.753.753,0,0,1,.7.8V119.71h62.752V56.139a.753.753,0,0,1,.7-.8h29.354a.753.753,0,0,1,.7.8V82.174h10.532V15.965a.88.88,0,0,1,.122-.451l8.177-13.681a.652.652,0,0,1,.783-.313.794.794,0,0,1,.492.763V92.212h7.647a.807.807,0,0,1,0,1.6h-8.345a.753.753,0,0,1-.7-.8V4.867l-6.781,11.346v66.76a.753.753,0,0,1-.7.8H307.089a.753.753,0,0,1-.7-.8V56.939H278.433V120.51a.753.753,0,0,1-.7.8H213.586a.753.753,0,0,1-.7-.8V18.282H166.326V75.111a.754.754,0,0,1-.7.8H90.691v73.827a.754.754,0,0,1-.7.8H76.465a.754.754,0,0,1-.7-.8V19.911L65.888,3.384V165.146a.753.753,0,0,1-.7.8" transform="translate(0 0)" fill="#3c3fa7"/>
              <path id="Path_183469" data-name="Path 183469" d="M218.491,288.638h-.034a.766.766,0,0,1-.665-.836c1.38-33.663-3.393-54.358-14.188-61.509-5.649-3.741-11.959-2.866-16.259-1.472a32.206,32.206,0,0,0-8.162,4.025.623.623,0,0,1-.746,0,.843.843,0,0,1-.324-.769,86.5,86.5,0,0,0-1.032-21.544c-2.718-14.623-9.239-23.357-19.382-25.96-6.579-1.688-12.225-.746-16.786,2.8-8.48,6.593-10.431,20.07-10.449,20.2a.744.744,0,0,1-.631.671.7.7,0,0,1-.721-.542,65.371,65.371,0,0,0-10.509-19.5c-6.926-8.8-19.267-19.2-38.785-18.672-15.744.409-28.451,6.355-37.768,17.674-18.394,22.346-17.459,58.5-17.448,58.86a.7.7,0,1,1-1.394.078c-.01-.191-1.114-19.147-9.879-26.457-3.416-2.85-7.608-3.574-12.458-2.15a.7.7,0,0,1-.849-.576.815.815,0,0,1,.5-.973c5.275-1.547,9.859-.736,13.63,2.41,3.92,3.271,6.87,8.929,8.768,16.819.206.856.388,1.691.548,2.492.852-12.29,4.26-35.433,17.557-51.591,9.584-11.646,22.624-17.764,38.759-18.184,20.064-.5,32.766,10.179,39.892,19.249a68.118,68.118,0,0,1,9.906,17.541c1.016-4.434,3.819-13.449,10.544-18.678,4.891-3.806,10.906-4.829,17.876-3.038,22.693,5.825,22.053,39.954,21.607,47.69,3.641-2.292,14.905-8.273,24.684-1.8,11.288,7.47,16.3,28.657,14.891,62.973a.748.748,0,0,1-.7.762" transform="translate(0 -32.895)" fill="#3c3fa7"/>
              <path id="Path_183470" data-name="Path 183470" d="M355.216,302.988h-.024a.76.76,0,0,1-.674-.825,115.185,115.185,0,0,1,2.931-21.192c3.5-14.189,9.505-21.932,17.373-22.394a5.175,5.175,0,0,1,4.246,1.816c2.075,2.261,3.067,6.246,3.541,9.585,2.114-11.212,7.78-35.47,17.614-38.093,10.854-2.9,15.319,9.5,16.438,13.406,2.687-2.23,11.315-8.611,17.8-4.586,8.668,5.38,8.768,26.193,8.768,27.076a.7.7,0,1,1-1.4,0c0-.207-.1-20.743-8.037-25.671-6.8-4.22-16.973,5.041-17.076,5.136a.626.626,0,0,1-.662.133.769.769,0,0,1-.455-.568,27.931,27.931,0,0,0-3.263-7.963c-3.057-4.86-7.026-6.679-11.8-5.407-11.664,3.113-17.448,41.987-17.5,42.38a.721.721,0,0,1-.747.665.764.764,0,0,1-.64-.8c0-.1-.029-10.311-3.545-14.139a3.844,3.844,0,0,0-3.21-1.376c-17.6,1.032-18.968,41.632-18.98,42.042a.75.75,0,0,1-.7.773" transform="translate(-106.99 -46.445)" fill="#3c3fa7"/>
            </g>
          </g>
        </g>
        <g id="Group_983402" data-name="Group 983402" transform="translate(24.531 -34.518)">
          <g id="Group_983395" data-name="Group 983395">
            <g id="Group_983394" data-name="Group 983394" clip-path="url(#clip-path-3)">
              <path id="Path_208900" data-name="Path 208900" d="M157.8,10.111S104.769-8.808,95.491,42.753,91.033,112.807,82,122.577s-19.949,13.46-.748,13.686,26.884,14.679,29.768-9.633S106.38,99.645,118.4,91.4s10.826-27.567,11.51-31.253" transform="translate(33.351 3.175)"/>
              <path id="Path_208901" data-name="Path 208901" d="M143.917,25.948s5.673-17.831-18.049-17.078Z" transform="translate(59.444 4.178)"/>
              <path id="Path_208902" data-name="Path 208902" d="M133.884,51.418c.72-1.463-3.137,20.789-3.137,20.789l-26.109.328,6.94-34.342Z" transform="translate(49.417 18.038)" fill="#ed8c6b"/>
              <path id="Path_208903" data-name="Path 208903" d="M111.515,39.031l20.225,11.992c.343-.7-.35,3.977-1.172,9.065L109.178,41.241Z" transform="translate(51.562 18.433)"/>
              <path id="Path_208904" data-name="Path 208904" d="M137.907,10.081s18.521,6.58,19.574,27.642-4.094,31.448-25.1,29.694c-18.716-1.562-25.095-16.1-25.095-16.1l1.449-20.872,9.446-19.91Z" transform="translate(50.666 4.761)" fill="#ed8c6b"/>
              <path id="Path_208905" data-name="Path 208905" d="M133.367,30.846s-5.966-10.437-17.021-1.537c0,0,8.027,10.871,17.021,1.537" transform="translate(54.947 12.145)" fill="#fff"/>
              <path id="Path_208906" data-name="Path 208906" d="M132.975,31.125s1.7-11.478,11.513-7.672c0,0-.877,12.339-11.513,7.672" transform="translate(62.801 10.711)" fill="#fff"/>
              <path id="Path_208907" data-name="Path 208907" d="M133.259,36.039a1.027,1.027,0,0,1-.885-1.552l2.724-4.6-3.76.474a1.028,1.028,0,1,1-.256-2.039l5.839-.738a1.02,1.02,0,0,1,.988.456,1.032,1.032,0,0,1,.027,1.088l-3.791,6.41a1.03,1.03,0,0,1-.885.5" transform="translate(61.481 13.021)"/>
              <path id="Path_208908" data-name="Path 208908" d="M119.792,22.715a1.028,1.028,0,0,1-.5-1.926c5.536-3.087,9.817-2.281,10-2.245a1.026,1.026,0,0,1,.807,1.207,1.042,1.042,0,0,1-1.2.81c-.052-.01-3.779-.661-8.6,2.023a1.016,1.016,0,0,1-.5.131" transform="translate(56.089 8.701)"/>
              <path id="Path_208909" data-name="Path 208909" d="M133.216,20.383a1.028,1.028,0,0,1-.761-1.717c.121-.13,2.961-3.183,6.808-2.142a1.032,1.032,0,0,1,.721,1.263,1.02,1.02,0,0,1-1.263.72c-2.632-.716-4.661,1.452-4.748,1.544a1.03,1.03,0,0,1-.757.331" transform="translate(62.429 7.702)"/>
              <path id="Path_208910" data-name="Path 208910" d="M120.56,19.211c-1.352-8.111,30.684,3.617,23.709-9.667,0,0-20.61-5.468-33.114,3.681S91.446,44.2,113.255,59.6l.258-12.238s10.154-9.506,7.048-28.148" transform="translate(46.882 3.742)"/>
              <path id="Path_208911" data-name="Path 208911" d="M115.857,32.931c-3.669-3.268-8.841-3.185-11.554.187s-1.936,8.754,1.731,12.023,8.842,3.185,11.554-.187,1.938-8.754-1.731-12.023" transform="translate(48.495 14.42)" fill="#ed8c6b"/>
              <path id="Path_208912" data-name="Path 208912" d="M113.385,38.734a1.023,1.023,0,0,1-.293-.043l-7.828-2.331a1.029,1.029,0,0,1,.587-1.971l7.827,2.331a1.028,1.028,0,0,1-.293,2.014" transform="translate(49.366 16.222)"/>
              <path id="Path_208913" data-name="Path 208913" d="M108.278,41.625a1.028,1.028,0,0,1-.973-1.357l1.276-3.779a1.037,1.037,0,0,1,1.3-.645,1.026,1.026,0,0,1,.643,1.3l-1.276,3.781a1.027,1.027,0,0,1-.973.7" transform="translate(50.651 16.904)"/>
              <path id="Path_208914" data-name="Path 208914" d="M116.083,32.032a6.014,6.014,0,1,0,5.215-6.718,6.016,6.016,0,0,0-5.215,6.718" transform="translate(54.801 11.933)"/>
              <path id="Path_208915" data-name="Path 208915" d="M131.519,29.956c.461,3.664,3.394,6.312,6.549,5.914s5.338-3.69,4.878-7.354S139.551,22.2,136.4,22.6s-5.338,3.69-4.878,7.354" transform="translate(62.084 10.656)"/>
              <path id="Path_208916" data-name="Path 208916" d="M127.133,37.512c.471-.674,3.778-1.472,8.012.116s3.6,3.361-.2,3.564c-2.2.119-9-1.986-7.815-3.681" transform="translate(59.977 17.334)"/>
            </g>
          </g>
          <g id="Group_983397" data-name="Group 983397" transform="translate(186.972 54.038)">
            <g id="Group_983396" data-name="Group 983396" clip-path="url(#clip-path-4)">
              <path id="Path_208917" data-name="Path 208917" d="M141.35,39.964a40.742,40.742,0,0,0-12.974-2.655c-6.491-.046,1.219,5.449,1.219,5.449L139.6,45.165Z" transform="translate(-127.571 -36.418)" fill="#fd521b"/>
            </g>
          </g>
          <g id="Group_983399" data-name="Group 983399">
            <g id="Group_983398" data-name="Group 983398" clip-path="url(#clip-path-3)">
              <path id="Path_208919" data-name="Path 208919" d="M165,315.271l36.234,75.2,71.978-59.358-8.867-12.195a13.353,13.353,0,0,0-18.448-3.093l-27.942,19.522L196.5,300.564Z" transform="translate(77.925 141.949)" fill="#5774cd"/>
              <path id="Path_208920" data-name="Path 208920" d="M100.311,292.7l-49.887,47.06,18.842,38.194a13,13,0,0,0,11.659,7.251h46.449l-.807-16.563a14,14,0,0,0-12.021-13.13L101.724,353.7l-6.058-12.522,31.507-27.67Z" transform="translate(23.814 138.236)" fill="#5774cd"/>
              <path id="Path_208921" data-name="Path 208921" d="M209.332,321.37,196.5,300.564,165,315.271l13.187,27.37Z" transform="translate(77.924 141.949)" fill="#ed8c6b"/>
              <path id="Path_208922" data-name="Path 208922" d="M91.824,335.991l25.6-22.483L90.563,292.7,71.064,311.1Z" transform="translate(33.562 138.237)" fill="#ed8c6b"/>
              <path id="Path_208923" data-name="Path 208923" d="M199.244,337.922a.816.816,0,0,1-.084-.006.574.574,0,0,1-.487-.651l2.678-18.749a.575.575,0,0,1,1.056-.227l7.894,12.528,1.378-15.332a.575.575,0,0,1,1.056-.261l5.932,9.183a.576.576,0,0,1-.967.624l-5.025-7.78-1.38,15.365a.575.575,0,0,1-1.06.255l-7.966-12.642-2.457,17.2a.574.574,0,0,1-.567.495" transform="translate(93.825 148.748)"/>
              <path id="Path_208924" data-name="Path 208924" d="M208.018,299.987l-3.712-6.019L164,312.787l8.255,17.136Z" transform="translate(77.451 138.834)"/>
              <path id="Path_208925" data-name="Path 208925" d="M99.579,325.743l13.932-12.235L86.65,292.7l-7.3,6.883Z" transform="translate(37.476 138.237)"/>
              <path id="Path_208926" data-name="Path 208926" d="M186.768,374.308a.576.576,0,0,1-.358-1.026l71.617-56.731a.575.575,0,0,1,.716.9l-71.617,56.731a.567.567,0,0,1-.358.125" transform="translate(87.934 149.44)"/>
              <path id="Path_208927" data-name="Path 208927" d="M200.273,338.976a9.015,9.015,0,1,1-9.016-9.016,9.017,9.017,0,0,1,9.016,9.016" transform="translate(86.068 155.831)" fill="#fff"/>
              <path id="Path_208928" data-name="Path 208928" d="M79.227,323.06a8.284,8.284,0,1,1-8.284-8.284,8.284,8.284,0,0,1,8.284,8.284" transform="translate(29.592 148.661)" fill="#fff"/>
              <path id="Path_208929" data-name="Path 208929" d="M125.467,366.419H84.36a13.618,13.618,0,0,1-12.145-7.569L53.891,321.513a.529.529,0,1,1,.95-.467l18.324,37.337a12.552,12.552,0,0,0,11.2,6.979h41.107a.529.529,0,1,1,0,1.057" transform="translate(25.426 151.483)"/>
              <path id="Path_208930" data-name="Path 208930" d="M151.952,124.225,249.96,372.01l-61.65,31.616-95.241-263.2Z" transform="translate(43.954 58.668)" fill="#ff9fa3"/>
              <path id="Path_208931" data-name="Path 208931" d="M96.344,152.06s15.482,77.714,13.041,115.4c-3.651,56.372-43.333,97.507-43.333,97.507l56.6,45.294s60.5-72.752,58.4-138.707c-2.682-84.357-13.178-112.376-13.178-112.376l3.24-5.81L158.325,118.84,92.47,133.971Z" transform="translate(31.195 56.125)" fill="#ff9fa3"/>
              <path id="Path_208932" data-name="Path 208932" d="M155.714,314.189a.736.736,0,0,1-.337-1.39L213.7,282.761a.736.736,0,0,1,.673,1.309l-58.323,30.036a.735.735,0,0,1-.337.082" transform="translate(73.192 133.502)"/>
              <path id="Path_208933" data-name="Path 208933" d="M81.833,381.014a.736.736,0,0,1-.6-1.162c.476-.67,47.543-67.731,51.189-122.978,1.907-28.877-5.156-63.717-11.416-87.859-6.789-26.184-14.125-45.78-14.2-45.976a.735.735,0,0,1,1.377-.517c.074.2,7.435,19.849,14.244,46.107,6.29,24.253,13.383,59.265,11.463,88.342-3.675,55.665-50.98,123.057-51.457,123.731a.733.733,0,0,1-.6.311" transform="translate(38.3 57.638)"/>
              <path id="Path_208934" data-name="Path 208934" d="M128.234,323.307a.732.732,0,0,1-.468-.168L72.65,277.645a.736.736,0,0,1,.938-1.135L128.7,322a.736.736,0,0,1-.468,1.3" transform="translate(34.184 130.509)"/>
              <path id="Path_208935" data-name="Path 208935" d="M130.4,57.324s33.06,20.524,36.873,66.648c3.133,37.876-19.07,37.107-30.928,39.224-13.617,2.431-48.435,9.43-48.435,9.43L92.98,67.21Z" transform="translate(41.518 27.073)" fill="#d7e5ff"/>
              <path id="Path_208936" data-name="Path 208936" d="M142.992,74.79s5.076-8.421-2.185-15.683c-4.86-4.86-30.8-17.828-45.707-8.025S83.536,74.461,92.485,78.755s50.508-3.965,50.508-3.965" transform="translate(40.07 22.438)" fill="#d7e5ff"/>
              <path id="Path_208937" data-name="Path 208937" d="M116.3,160.289l-1.337,51.639s12.3,16.581,8.377,31.605-8.731,3.9-8.731,3.9-23.424-8.021-27.015-15.83c-1.2-2.612,4.14-15.088,4.206-20.437.046-3.586-1.731-42.817-1.731-42.817Z" transform="translate(41.285 75.7)" fill="#ed8c6b"/>
              <path id="Path_208938" data-name="Path 208938" d="M109.315,229.608l4.5-15.039a4.785,4.785,0,0,0-3.308-5.914,4.676,4.676,0,0,0-5.935,3.41L101.167,227.4a4.237,4.237,0,0,0,3.288,5.009,4.122,4.122,0,0,0,4.86-2.8" transform="translate(47.733 98.448)" fill="#ed8c6b"/>
              <path id="Path_208939" data-name="Path 208939" d="M95.174,227.111l4.327-18.28a4.317,4.317,0,0,1,4.42-3.267l.431.016a4.466,4.466,0,0,1,4.253,5.481l-4.76,18.264a4.353,4.353,0,0,1-5.109,3.093,4.443,4.443,0,0,1-3.563-5.308" transform="translate(44.895 97.081)" fill="#ed8c6b"/>
              <path id="Path_208940" data-name="Path 208940" d="M93.585,226.944h0a3.755,3.755,0,0,0,4.233-2.756l3.33-12.043a4.14,4.14,0,0,0-2.285-4.86l-.919-.406a3.765,3.765,0,0,0-5.249,2.783l-2.412,12.45a4.11,4.11,0,0,0,3.3,4.833" transform="translate(42.603 97.547)" fill="#ed8c6b"/>
              <path id="Path_208941" data-name="Path 208941" d="M89.7,222.188h0a3.255,3.255,0,0,0,3.2-2.356l2.554-10a3.071,3.071,0,0,0-2.4-3.692l-1.1-.262a3.292,3.292,0,0,0-4.091,2.571l-1.452,10.259a3.165,3.165,0,0,0,3.3,3.477" transform="translate(40.793 97.186)" fill="#ed8c6b"/>
              <path id="Path_208942" data-name="Path 208942" d="M97.48,212.088a.5.5,0,0,1,.649-.314.555.555,0,0,1,.334.683c-.188.6-2.061,7.8-3.024,11.532a.5.5,0,0,1-.635.362.552.552,0,0,1-.368-.664c.113-.442,2.794-10.814,3.039-11.587l0-.013" transform="translate(44.592 100.001)"/>
              <path id="Path_208943" data-name="Path 208943" d="M103.212,213.667a.5.5,0,0,1,.649-.312.551.551,0,0,1,.333.683c-.211.661-2.2,9.031-3.224,13.364a.5.5,0,0,1-.626.377.553.553,0,0,1-.383-.657c.122-.512,2.971-12.578,3.246-13.443l0-.012" transform="translate(47.203 100.747)"/>
              <path id="Path_208944" data-name="Path 208944" d="M92.215,209.963a.5.5,0,0,1,.661-.309.554.554,0,0,1,.318.69c-.264.771-1.683,6.955-2.4,10.117a.505.505,0,0,1-.623.383.552.552,0,0,1-.389-.652c.085-.375,2.079-9.211,2.428-10.228h0" transform="translate(42.398 98.998)"/>
              <path id="Path_208945" data-name="Path 208945" d="M110.752,212.267c.166-.481.493-.826.761-.786.29.044.4.517.252,1.057l-3.719,13.345c-.149.537-.508.942-.8.9s-.4-.517-.252-1.057l3.719-13.343c.01-.038.022-.077.035-.113" transform="translate(50.501 99.875)"/>
              <path id="Path_208946" data-name="Path 208946" d="M110.147,266.075s22.426-2.908,25.675-28.9,19.643-106.185,14.437-141.117C146.4,70.19,134.074,56.656,115.729,58.976,94.376,61.678,90.623,86.129,86,130.327c-5.272,50.381-5.406,79.082-6.454,96.26-2,32.823,19.362,37.4,19.362,37.4Z" transform="translate(37.503 27.732)" fill="#d7e5ff"/>
              <path id="Path_208947" data-name="Path 208947" d="M139.179,70.23a.731.731,0,0,1-.462-.163c-.261-.211-26.24-20.781-44.532-1.862a.735.735,0,1,1-1.056-1.023c19.229-19.89,46.241,1.522,46.512,1.74a.736.736,0,0,1-.462,1.309" transform="translate(43.884 27.735)"/>
              <path id="Path_208948" data-name="Path 208948" d="M138.58,316.119a.757.757,0,0,1-.252-.044.735.735,0,0,1-.44-.944c7.16-19.686,10.524-37.988,10-54.4-2.649-83.27-13.027-111.862-13.131-112.14a.736.736,0,0,1,.047-.617l3.239-5.807a.735.735,0,1,1,1.285.714l-3.079,5.521c1.153,3.4,10.6,33.507,13.111,112.283.529,16.6-2.867,35.084-10.089,54.947a.737.737,0,0,1-.692.484" transform="translate(63.621 66.964)"/>
              <path id="Path_208949" data-name="Path 208949" d="M129.9,161.622h-.049a.736.736,0,0,1-.688-.782c.034-.539,3.458-54.06,1.709-70.812-1.647-15.795-9.426-25.763-14.165-27.527a.737.737,0,1,1,.515-1.381c5.232,1.949,13.382,12.158,15.113,28.756,1.764,16.874-1.67,70.518-1.7,71.058a.737.737,0,0,1-.733.689" transform="translate(54.891 28.843)"/>
              <path id="Path_208950" data-name="Path 208950" d="M137.338,115.464s14.1-14.518,25.076-14.517c6.56,0,10.973-.115,13.462-.208A3.476,3.476,0,0,0,178.9,97.7a2.611,2.611,0,0,0-1.678-3.154,48.227,48.227,0,0,0-21.134,0c-10.075,2.382-25.432,15.532-25.432,15.532Z" transform="translate(61.703 44.094)" fill="#ed8c6b"/>
              <path id="Path_208951" data-name="Path 208951" d="M144.307,108.606s11.906-12.233,22.884-12.232c7.064,0,11.638-.134,14-.23a2.727,2.727,0,0,0,2.363-2.389c.34-1.845-.593-3.586-2.1-3.907a48.225,48.225,0,0,0-20.6.122c-10.075,2.382-25.432,15.532-25.432,15.532Z" transform="translate(63.959 41.934)" fill="#ed8c6b"/>
              <path id="Path_208952" data-name="Path 208952" d="M146.728,104.853s11.906-12.233,22.884-12.232c7.067,0,11.643-.134,14.006-.23a2.727,2.727,0,0,0,2.359-2.385c.34-1.848-.595-3.591-2.1-3.912a48.181,48.181,0,0,0-20.591.122c-10.075,2.382-25.432,15.534-25.432,15.534Z" transform="translate(65.103 40.161)" fill="#ed8c6b"/>
              <path id="Path_208953" data-name="Path 208953" d="M133.352,120.871s26-30.407,36.33-32.3c6.652-1.218,13-1.5,15.216-2a2.843,2.843,0,0,0,1.965-2.657c.128-1.818-.9-3.342-2.348-3.486-4.589-.453-14.5-.851-22.956,2.8-9.23,3.99-34.366,29.4-34.366,29.4Z" transform="translate(60.07 37.85)" fill="#ed8c6b"/>
              <path id="Path_208954" data-name="Path 208954" d="M160.04,91.324l6.431-10.11a4.966,4.966,0,0,0-.654-6.292,2.93,2.93,0,0,0-4.234.6c-2.052,2.485-26.949,27.049-26.949,27.049l-11.506,17.2,31.835-14.592Z" transform="translate(58.151 35.073)" fill="#ed8c6b"/>
              <path id="Path_208955" data-name="Path 208955" d="M148.976,94.916a.541.541,0,0,0-.031.234c.021.233.188.381.377.331a45.023,45.023,0,0,1,19.645-.792.448.448,0,0,0,.184-.85,45.642,45.642,0,0,0-19.9.8.429.429,0,0,0-.272.277" transform="translate(70.342 43.974)"/>
              <path id="Path_208956" data-name="Path 208956" d="M148.885,91.914a.54.54,0,0,0-.015.324.34.34,0,0,0,.471.253,27.517,27.517,0,0,1,5.228-1.914,50.24,50.24,0,0,1,20.893-.253,2.778,2.778,0,0,1,1.453,1.1.329.329,0,0,0,.526.028.525.525,0,0,0,.056-.637,3.473,3.473,0,0,0-1.859-1.381,50.9,50.9,0,0,0-21.167.256,28.323,28.323,0,0,0-5.361,1.961.451.451,0,0,0-.225.261" transform="translate(70.299 41.77)"/>
              <path id="Path_208957" data-name="Path 208957" d="M148.989,88.182a.427.427,0,0,0,0,.3.335.335,0,0,0,.453.2,30.144,30.144,0,0,1,7.221-2.557,45.234,45.234,0,0,1,10.154-.54.362.362,0,0,0,.356-.371.377.377,0,0,0-.336-.4,45.754,45.754,0,0,0-10.293.551,30.773,30.773,0,0,0-7.379,2.607.361.361,0,0,0-.183.209" transform="translate(70.352 40.026)"/>
              <path id="Path_208958" data-name="Path 208958" d="M146.551,84.876a.532.532,0,0,0,0,.375.328.328,0,0,0,.5.177c1.184-.76,7.644-3.248,7.709-3.274a.5.5,0,0,0,.269-.567.344.344,0,0,0-.455-.289c-.268.1-6.593,2.54-7.841,3.341a.472.472,0,0,0-.181.237" transform="translate(69.197 38.384)"/>
              <path id="Path_208959" data-name="Path 208959" d="M141.39,95.852c-.007.06-.015.121-.019.181-.009.125.147.261.349.3s.374-.024.383-.147c0-.056.01-.113.018-.169.511-3.935,8.131-6.3,8.209-6.328.161-.049.187-.188.063-.311a.576.576,0,0,0-.515-.134,23.755,23.755,0,0,0-4.116,1.771c-1.857,1.029-4.094,2.691-4.371,4.832" transform="translate(66.766 42.142)"/>
              <path id="Path_208960" data-name="Path 208960" d="M76.523,294.245a.552.552,0,0,1-.331-1l6.513-4.864-11.94-3.8a.552.552,0,0,1-.081-1.02l5.53-2.772L51.971,257.549a.551.551,0,0,1-.11-.646.558.558,0,0,1,.584-.3l31.967,5.444L59.964,245.528a.552.552,0,1,1,.618-.914l26.566,17.953a.553.553,0,0,1,.2.664.564.564,0,0,1-.605.339L54.036,258l23.508,22.543a.551.551,0,0,1-.134.892l-5.018,2.513,11.671,3.71a.553.553,0,0,1,.163.97l-7.372,5.509a.558.558,0,0,1-.331.109" transform="translate(24.465 115.48)"/>
              <path id="Path_208961" data-name="Path 208961" d="M95.547,19.592S101.729.05,79.561,2.842Z" transform="translate(37.575 1.213)" fill="#ffb6c8"/>
              <path id="Path_208962" data-name="Path 208962" d="M48.858,38.571C46.6,20.627,55.1,6.26,71.156,1.893c27.412-7.456,40.92,8.31,43.179,26.252S106.845,68.362,90.2,68.414c-21.1.063-39.084-11.9-41.344-29.843" transform="translate(22.905 0)" fill="#ffb6c8"/>
              <path id="Path_208963" data-name="Path 208963" d="M63.655,268.611,31.174,282.229,20.564,260.063,57,239.854Z" transform="translate(9.712 113.277)" fill="#ed8c6b"/>
              <path id="Path_208964" data-name="Path 208964" d="M33.662,248.1l9.495,25.245,14.313-6-3.628-15.672-10.135-9.143Z" transform="translate(15.898 114.541)"/>
              <path id="Path_208965" data-name="Path 208965" d="M104.035,310.69l8.953,32.816L89.2,350.575,76.117,313.417Z" transform="translate(35.948 146.731)" fill="#ed8c6b"/>
              <path id="Path_208966" data-name="Path 208966" d="M107.3,145.235s47.6,99.524,40.312,124.071c-9.651,32.515-82.684,63.836-82.684,63.836l-32.309-51.36,49.471-33.089L65.114,222.572l24.237-90.381Z" transform="translate(15.406 62.43)" fill="#ffc849"/>
              <path id="Path_208967" data-name="Path 208967" d="M107.647,323.93l-3.613-13.24-27.917,2.725,5.01,14.227c7.46.328,17.5-.162,26.52-3.712" transform="translate(35.948 146.731)"/>
              <path id="Path_208968" data-name="Path 208968" d="M42.426,187.917s-23.527,18.2-35.335-6.092,1.9-82.107,10.836-98.295C32.048,57.955,57.6,63.472,57.6,63.472Z" transform="translate(1.185 29.739)"/>
              <path id="Path_208969" data-name="Path 208969" d="M78.511,73.459s6.443-13.914-3.339-20.18-10.248-2.23-10.248-2.23Z" transform="translate(30.661 23.505)" fill="#fd521b"/>
              <path id="Path_208970" data-name="Path 208970" d="M71.161,57.836A16.482,16.482,0,0,1,88.489,68.274c5.257,12.367,19.655,58.392,19.655,58.392l54.477-30.145,17.324,33.937s-62.486,66.014-88.469,48.049S71.161,57.836,71.161,57.836" transform="translate(33.36 27.263)" fill="#6b8dfc"/>
              <path id="Path_208971" data-name="Path 208971" d="M28.816,148.388s17.95,140.015,59.6,254.74c0,0,37.014,7.525,57.728-10.446L95.511,174.468l5.96-7.567L89.746,138.572Z" transform="translate(13.609 65.444)" fill="#ffc849"/>
              <path id="Path_208972" data-name="Path 208972" d="M106.572,89.819s13.546,90.819.886,101.615-81.1.112-81.583-8.513,1.942-26.887,1.942-26.887l4.058-48.058L72.2,56.036l22.515,3.039Z" transform="translate(12.19 26.464)" fill="#6b8dfc"/>
              <path id="Path_208973" data-name="Path 208973" d="M84.5,130.266,26,153.549l-.774-14.2,54.063-15.831Z" transform="translate(11.914 58.336)"/>
              <path id="Path_208974" data-name="Path 208974" d="M97.556,58.323S74.9,47.718,43.574,71.5s-58.442,76.651-34.307,87.512,76.047,6.843,76.047,6.843L93,135.3l-43.7-7.525,21.707-22.685Z" transform="translate(0 26.431)" fill="#6b8dfc"/>
              <path id="Path_208975" data-name="Path 208975" d="M74.965,141.609,51.029,56.821l4.317-.875,25.772,83.56Z" transform="translate(24.1 26.422)"/>
              <path id="Path_208976" data-name="Path 208976" d="M85.729,55.532S65.159,42.99,54.172,47.27s-9.218,16.522-9.218,16.522,14.283-6.4,42.59,11.659Z" transform="translate(21.181 21.904)" fill="#6b8dfc"/>
              <path id="Path_208977" data-name="Path 208977" d="M85.769,49.284,82.853,62.911,80.674,73.1,71.161,62.715,59.22,54.325,63.38,36.217Z" transform="translate(27.968 17.105)" fill="#ed8c6b"/>
              <path id="Path_208978" data-name="Path 208978" d="M81.726,62.464l2.821-13.181L62.156,36.217l-.347,1.512Z" transform="translate(29.191 17.104)"/>
              <path id="Path_208979" data-name="Path 208979" d="M89.848,177.59a.553.553,0,0,1-.552-.545c-.009-.695-.973-69.74-6.057-89.357-2.035-7.852-9.044-25.916-9.115-26.1a.553.553,0,0,1,1.031-.4c.069.183,7.1,18.306,9.153,26.221,5.116,19.745,6.083,88.924,6.092,89.619a.552.552,0,0,1-.545.559Z" transform="translate(34.989 28.733)"/>
              <path id="Path_208980" data-name="Path 208980" d="M48.991,151.389c-7.729,0-15.958-.209-22.432-.88a.552.552,0,1,1,.115-1.1c15.836,1.643,42.3.5,45.9.333l7.442-29.579L36.9,112.739a.55.55,0,0,1-.3-.925L58.3,89.131a.551.551,0,0,1,.8.761L38.11,111.828l42.677,7.35a.549.549,0,0,1,.44.679L73.54,150.41a.554.554,0,0,1-.508.417c-.181.009-11.447.562-24.041.562" transform="translate(12.31 42.013)"/>
              <path id="Path_208981" data-name="Path 208981" d="M39.063,106.1a.474.474,0,0,1-.063,0l-16.83-1.948a.55.55,0,0,1-.484-.611.543.543,0,0,1,.611-.484L39.127,105a.552.552,0,0,1-.063,1.1" transform="translate(10.24 48.665)"/>
              <path id="Path_208982" data-name="Path 208982" d="M73.068,65.894a.553.553,0,0,1-.324-1,9.5,9.5,0,0,0,3.572-6.566.551.551,0,0,1,1.1.057,10.437,10.437,0,0,1-4.027,7.407.559.559,0,0,1-.322.1" transform="translate(34.247 27.298)"/>
              <path id="Path_208983" data-name="Path 208983" d="M86.277,69.992a.587.587,0,0,1-.194-.034A211.645,211.645,0,0,0,63.367,63.49C50.9,60.566,45.383,62.972,45.329,63a.553.553,0,0,1-.462-1c.231-.106,5.858-2.6,18.754.42,11.213,2.631,18.863,5.128,21.665,6.091C79.341,55.213,64.174,50.253,64.016,50.2a.552.552,0,0,1,.334-1.053c.166.053,16.684,5.444,22.44,20.088a.551.551,0,0,1-.514.754" transform="translate(21.038 23.2)"/>
              <path id="Path_208984" data-name="Path 208984" d="M80.183,110.038l-15-4.127a4.552,4.552,0,0,0-5.617,3.505,4.883,4.883,0,0,0,3.679,5.9l15.232,3.012a4.038,4.038,0,0,0,4.727-3.461,4.31,4.31,0,0,0-3.02-4.831" transform="translate(28.072 49.943)" fill="#ed8c6b"/>
              <path id="Path_208985" data-name="Path 208985" d="M78.839,124.64l-18.172-3.862a4.5,4.5,0,0,1-3.452-4.371l-.009-.437a4.283,4.283,0,0,1,5.137-4.449l18.181,4.3a4.547,4.547,0,0,1,3.321,5.073,4.239,4.239,0,0,1-5.006,3.747" transform="translate(27.016 52.616)" fill="#ed8c6b"/>
              <path id="Path_208986" data-name="Path 208986" d="M77.79,125.011h0a3.921,3.921,0,0,0-2.942-4.2l-12-3.028a3.921,3.921,0,0,0-4.638,2.444l-.346.939a3.92,3.92,0,0,0,3.024,5.224l12.345,2.089a3.921,3.921,0,0,0,4.555-3.469" transform="translate(27.213 55.569)" fill="#ed8c6b"/>
              <path id="Path_208987" data-name="Path 208987" d="M73.768,128.722h0a3.4,3.4,0,0,0-2.491-3.162l-9.95-2.3a2.931,2.931,0,0,0-3.486,2.531l-.194,1.122a3.427,3.427,0,0,0,2.75,4.061l10.145,1.181a3.053,3.053,0,0,0,3.226-3.427" transform="translate(27.199 58.176)" fill="#ed8c6b"/>
              <path id="Path_208988" data-name="Path 208988" d="M60.44,111.35l.013-.016a.378.378,0,0,1,.531-.044,6.773,6.773,0,0,0,2.45,1.087l16.09,3.371a6.45,6.45,0,0,1,3.707,2.693,4.227,4.227,0,0,1,.2,3.451c-1.55,4.725-8.332,2.9-8.754,2.778l-9.621-1.859c-.724-.141-4.621-1.088-5.6-1.4a.377.377,0,0,1,.228-.718c.966.308,4.805,1.24,5.518,1.378l9.638,1.864a.167.167,0,0,1,.037.009c.065.019,6.478,1.873,7.843-2.285a3.5,3.5,0,0,0-.146-2.858,5.755,5.755,0,0,0-3.218-2.319l-16.067-3.367a7.469,7.469,0,0,1-2.787-1.248.378.378,0,0,1-.057-.515" transform="translate(27.954 52.517)"/>
              <path id="Path_208989" data-name="Path 208989" d="M58.652,124.942a.377.377,0,0,1,.415-.131c.954.3,6.867,1.4,7.862,1.544.932.134,3.956.688,4.084.711.056.01,5.693.973,6.366-2.666a2.882,2.882,0,0,0-1.575-3.126,7.309,7.309,0,0,0-2.141-.857.377.377,0,1,1,.146-.739c1.739.342,4.878,1.8,4.312,4.858-.648,3.5-5.02,3.672-7.244,3.271-.032-.006-3.139-.576-4.056-.707-.935-.134-6.943-1.243-7.983-1.574a.376.376,0,0,1-.187-.586" transform="translate(27.663 56.517)"/>
              <path id="Path_208990" data-name="Path 208990" d="M62.873,105.538a.377.377,0,0,1,.392-.138c.1.025,9.7,2.425,13.6,3.439,4.108,1.069,6.132,3.475,5.553,6.6-.69,3.741-4.63,3.8-4.67,3.8a.377.377,0,0,1,0-.754,4.006,4.006,0,0,0,3.934-3.183c.5-2.727-1.272-4.763-5-5.733-3.894-1.014-13.492-3.414-13.589-3.438a.378.378,0,0,1-.274-.458.372.372,0,0,1,.065-.135" transform="translate(29.658 49.772)"/>
              <path id="Path_208991" data-name="Path 208991" d="M56.646,37.61C54.4,19.8,60.848,7.807,76.731,4.6,96.341.632,110.609,13.4,112.851,31.216s-4.37,36.948-20.574,36.958c-20.543.013-33.388-12.75-35.632-30.564" transform="translate(26.548 1.828)" fill="#ed8c6b"/>
              <path id="Path_208992" data-name="Path 208992" d="M98.212,28.839S95.688,14.394,80.471,22.2c0,0,6.677,9.1,17.741,6.638" transform="translate(38.004 9.392)" fill="#fff"/>
              <path id="Path_208993" data-name="Path 208993" d="M102.846,23.551,94.43,26.6,93.97,38.15Z" transform="translate(44.379 11.123)" fill="#ed8c6b"/>
              <path id="Path_208994" data-name="Path 208994" d="M77.23,4.688C61.347,7.9,53.285,19.761,55.529,37.577c.841,6.675,3.763,17.463,7.429,22.312l8.714-25.154c11.16.827,12.485-14.11,12.485-14.11,12.335-.7,12.289-10.39,11.17-15.385-5.181-2.077-11.409-1.9-18.1-.552" transform="translate(26.05 1.735)" fill="#ffb6c8"/>
              <path id="Path_208995" data-name="Path 208995" d="M83.1,17.495c.452,1.036,2.9.97,5.462-.149s4.277-2.864,3.825-3.9-2.9-.969-5.461.149-4.278,2.864-3.826,3.9" transform="translate(39.21 6.003)"/>
              <path id="Path_208996" data-name="Path 208996" d="M98.407,24.834c.5,3.969-1.924,7.544-5.415,7.983s-6.725-2.422-7.224-6.391,1.924-7.544,5.415-7.983,6.724,2.422,7.224,6.391" transform="translate(40.475 8.689)"/>
              <path id="Path_208997" data-name="Path 208997" d="M74.334,26c-2.668-4.535-8.123-6.273-12.182-3.884s-5.19,8-2.522,12.535,8.123,6.273,12.183,3.884S77,30.529,74.334,26" transform="translate(27.479 9.937)" fill="#ed8c6b"/>
              <path id="Path_208998" data-name="Path 208998" d="M69.041,31.208a.856.856,0,0,1-.486-.152L61.187,25.99a.855.855,0,1,1,.972-1.407l7.369,5.066a.855.855,0,0,1-.486,1.559" transform="translate(28.722 11.538)"/>
              <path id="Path_208999" data-name="Path 208999" d="M63.079,32.135a.839.839,0,0,1-.542-.194.855.855,0,0,1-.119-1.2l2.7-3.3a.855.855,0,1,1,1.324,1.084l-2.7,3.3a.851.851,0,0,1-.661.314" transform="translate(29.387 12.81)"/>
              <path id="Path_209000" data-name="Path 209000" d="M83.866,338.54l-.246,28.2a3.555,3.555,0,0,0,4.167,3.533l75.054-13.1a5.4,5.4,0,0,0,4.37-6.372l-1.173-5.917a15.042,15.042,0,0,0-16.494-12.015l-24.734,2.88-16.329-5.163Z" transform="translate(39.492 156.123)" fill="#d7e5ff"/>
              <path id="Path_209001" data-name="Path 209001" d="M121.945,343.676a.461.461,0,0,1-.461-.458l-.056-6.792-8.461,6.163a.461.461,0,0,1-.726-.451l.87-5.094-27.64,4.826a.462.462,0,0,1-.4-.786l19.472-18.829-23.213,8.292a.462.462,0,0,1-.311-.87l25.224-9.009a.461.461,0,0,1,.476.766L86.791,340.705l26.806-4.68a.462.462,0,0,1,.534.531l-.789,4.62,8.268-6.023a.473.473,0,0,1,.48-.04.464.464,0,0,1,.253.409l.062,7.688a.461.461,0,0,1-.456.465Z" transform="translate(38.118 151.431)"/>
              <path id="Path_209002" data-name="Path 209002" d="M98.307,324.382a.461.461,0,0,1-.355-.166.456.456,0,0,1-.075-.461c.113-.3,2.859-7.286,7.366-8.792a5.589,5.589,0,0,1,4.9.705c1.324.824,1.905,1.727,1.728,2.678-.642,3.455-12.165,5.774-13.477,6.027a.448.448,0,0,1-.087.009m8.635-8.778a4.439,4.439,0,0,0-1.406.233c-3.257,1.088-5.612,5.608-6.457,7.457,4.73-1,11.512-3.1,11.886-5.116.1-.542-.34-1.123-1.309-1.727a5.11,5.11,0,0,0-2.713-.847" transform="translate(46.21 148.614)"/>
              <path id="Path_209003" data-name="Path 209003" d="M112.465,329.344c-4.546,0-13.577-6.426-14.72-7.252a.462.462,0,0,1,.1-.8c.353-.143,8.719-3.482,13.716-.785a6.644,6.644,0,0,1,3.376,4.82c.358,1.8.06,3.021-.886,3.626a2.885,2.885,0,0,1-1.583.392M99,321.85c3.831,2.675,12.183,7.844,14.552,6.326.595-.381.755-1.279.479-2.671a5.756,5.756,0,0,0-2.908-4.187c-3.766-2.033-9.926-.225-12.123.531" transform="translate(46.073 150.871)"/>
              <path id="Path_209004" data-name="Path 209004" d="M83.792,357.647a.461.461,0,0,1-.08-.916l83.036-14.5a.461.461,0,1,1,.159.908l-83.036,14.5a.5.5,0,0,1-.08.007" transform="translate(39.355 161.624)"/>
              <path id="Path_209005" data-name="Path 209005" d="M35.459,250.128,6.574,252.746a3.658,3.658,0,0,0-3.192,4.624l21.051,75.483a5.556,5.556,0,0,0,6.965,3.824l5.938-1.8a15.471,15.471,0,0,0,10.62-18.1l-5.464-25.023,3.623-17.239Z" transform="translate(1.533 118.129)" fill="#d7e5ff"/>
              <path id="Path_209006" data-name="Path 209006" d="M28.435,290.1a.485.485,0,0,1-.052-.967l6.926-.746-7.155-8.016a.485.485,0,0,1-.075-.537.47.47,0,0,1,.47-.269l5.288.371-7.749-27.785a.485.485,0,0,1,.78-.5l21.215,17.981-10.826-22.87a.485.485,0,1,1,.876-.415l11.787,24.9a.488.488,0,0,1-.143.593.481.481,0,0,1-.608-.016L27.447,253.41l7.509,26.923a.492.492,0,0,1-.09.437.474.474,0,0,1-.411.177l-4.783-.336,6.989,7.831a.485.485,0,0,1-.309.805l-7.865.847-.052,0" transform="translate(12.312 116.21)"/>
              <path id="Path_209007" data-name="Path 209007" d="M49.377,276.8c-.054,0-.107,0-.162-.007-3.611-.3-7.158-11.869-7.551-13.187a.486.486,0,0,1,.593-.607c.317.087,7.753,2.186,9.755,6.652a5.75,5.75,0,0,1-.224,5.1c-.671,1.363-1.483,2.054-2.412,2.054m-6.512-12.589c1.5,4.735,4.34,11.44,6.431,11.615.552.063,1.107-.458,1.624-1.508a4.841,4.841,0,0,0,.209-4.27c-1.437-3.2-6.273-5.154-8.264-5.838" transform="translate(19.667 124.198)"/>
              <path id="Path_209008" data-name="Path 209008" d="M40.162,281.171a2.393,2.393,0,0,1-1.995-.852c-2.669-3.369,4.532-15.97,5.362-17.393a.507.507,0,0,1,.43-.241.486.486,0,0,1,.42.258c.183.347,4.452,8.573,2.2,13.969a6.843,6.843,0,0,1-4.6,3.95,6.334,6.334,0,0,1-1.82.311m3.751-16.961c-2.35,4.2-6.777,13.245-4.987,15.507q.676.846,2.772.215a5.907,5.907,0,0,0,3.983-3.4c1.689-4.041-.767-10.14-1.768-12.327" transform="translate(17.747 124.059)"/>
              <path id="Path_209009" data-name="Path 209009" d="M31.77,335.8a.484.484,0,0,1-.467-.355L8.014,251.937a.485.485,0,1,1,.935-.261l23.29,83.513a.488.488,0,0,1-.339.6.436.436,0,0,1-.13.018" transform="translate(3.776 118.692)"/>
              <path id="Path_209010" data-name="Path 209010" d="M57.837,285.663a.553.553,0,0,1-.536-.421L43.094,226.861a.552.552,0,1,1,1.073-.262L58.373,284.98a.552.552,0,0,1-.4.667.508.508,0,0,1-.131.016" transform="translate(20.345 106.817)"/>
              <path id="Path_209011" data-name="Path 209011" d="M102.8,288.935a.552.552,0,0,1-.539-.427l-28.5-122.826a.554.554,0,0,1,.1-.467l5.957-7.567a.552.552,0,1,1,.867.685l-5.793,7.358,28.438,122.567a.552.552,0,0,1-.411.663.535.535,0,0,1-.125.015" transform="translate(34.827 74.354)"/>
              <path id="Path_209012" data-name="Path 209012" d="M83.026,34.1c-.193-4.29,15.318,1.992,12.308,5.047-3.507,3.558-12.1-.364-12.308-5.047" transform="translate(39.21 15.417)"/>
            </g>
          </g>
          <g id="Group_983401" data-name="Group 983401" transform="translate(122.234 48.062)">
            <g id="Group_983400" data-name="Group 983400" clip-path="url(#clip-path-6)">
              <path id="Path_209013" data-name="Path 209013" d="M99.757,35.635S88.15,32.889,82.368,34.342s-1.054,9.7-1.054,9.7l17.868,4.127,4.44-11.4Z" transform="translate(-84.691 -32.044)" fill="#fd521b"/>
            </g>
          </g>
        </g>
      </g>
    </g>
  </g>
</svg>
