<svg xmlns="http://www.w3.org/2000/svg" xmlns:xlink="http://www.w3.org/1999/xlink" width="420" height="412.319" viewBox="0 0 420 412.319">
  <defs>
    <clipPath id="clip-path">
      <rect id="Rectangle_47377" data-name="Rectangle 47377" width="330" height="412" rx="10" transform="translate(0)" fill="#a6bbff"/>
    </clipPath>
    <clipPath id="clip-path-2">
      <rect id="Rectangle_47376" data-name="Rectangle 47376" width="400" height="383.638" fill="none"/>
    </clipPath>
  </defs>
  <g id="Group_983804" data-name="Group 983804" transform="translate(-285 -5732.681)">
    <rect id="Rectangle_338809" data-name="Rectangle 338809" width="257" height="412" transform="translate(448 5733)" fill="#fff"/>
    <g id="Group_176394" data-name="Group 176394" transform="translate(285 5732.681)">
      <rect id="Rectangle_46161" data-name="Rectangle 46161" width="330" height="412" rx="10" transform="translate(35)" fill="#a6bbff"/>
      <g id="Mask_Group_334" data-name="Mask Group 334" transform="translate(35 0.001)" clip-path="url(#clip-path)">
        <path id="Union_18" data-name="Union 18" d="M214.9,83.4a121.215,121.215,0,1,0,3.774,149.726,155.2,155.2,0,0,0,255.687,17.49,121.273,121.273,0,1,0,26.355-141.367A155.184,155.184,0,0,0,214.9,83.4Z" transform="matrix(-0.809, -0.588, 0.588, -0.809, 324.864, 630.318)" fill="#6984dd"/>
      </g>
      <g id="Group_176392" data-name="Group 176392" transform="translate(0 28.362)">
        <g id="Group_176393" data-name="Group 176393" transform="translate(0 0)">
          <g id="Group_176392-2" data-name="Group 176392" clip-path="url(#clip-path-2)">
            <path id="Path_189326" data-name="Path 189326" d="M372.714,520.234s-4.773.155-7.171,2.02,7.2,5.716,7.2,5.716Z" transform="translate(-66.498 -386.663)" fill="#ef8e4d"/>
            <path id="Path_189327" data-name="Path 189327" d="M1055.213,1227.256l8.194,9.13-1.792,6.215-6.711,1.208s-4.477-3.755-4.552-6.918,4.861-9.635,4.861-9.635" transform="translate(-933.089 -912.155)" fill="#ef8e4d"/>
            <path id="Path_189328" data-name="Path 189328" d="M375.688,513.594s-10.771-7.742-10.543-24.587c.111-8.175-15.112-17.995-15.112-17.995l-15.91-3.2-1.646,19.11,15.636,33.1,5.725,9.156,17.5,8.035Z" transform="translate(-61.053 -347.702)" fill="#ef8e4d"/>
            <path id="Path_189329" data-name="Path 189329" d="M439.581,533.221l-2.49,17.359,9.161-1.174,1.138-6.171,5.836,3.707,6.882-4.658-11.9-13.753Z" transform="translate(-172.333 -392.829)" fill="#ff1300"/>
            <path id="Path_189330" data-name="Path 189330" d="M569.139,366.755c-6.7,2.254-9.683,9.558-6.671,16.313s10.882,10.4,17.578,8.149,9.683-9.558,6.672-16.313-10.882-10.4-17.578-8.15" transform="translate(-332.005 -272.095)" fill="#ff1300"/>
            <path id="Path_189331" data-name="Path 189331" d="M529.167,443.688c-6.229,2.9-14.146.856-17.682-4.558s-1.352-12.15,4.877-15.047,14.146-.856,17.682,4.557,1.353,12.15-4.877,15.047" transform="translate(-266.628 -314.221)" fill="#ff1300"/>
            <path id="Path_189332" data-name="Path 189332" d="M490.735,515.205l-12.789,5.3.479.838c1.2,2.1,4.345,2.908,7.02,1.8l3.1-1.285c2.676-1.11,3.871-3.714,2.67-5.817Z" transform="translate(-214.396 -382.926)" fill="#ff1300"/>
            <path id="Path_189333" data-name="Path 189333" d="M495.161,493.031c-5.528,2.57-12.113,1.433-14.708-2.54s-.217-9.278,5.311-11.848,12.113-1.433,14.708,2.54.218,9.278-5.311,11.848" transform="translate(-224.611 -354.729)" fill="#ff1300"/>
            <path id="Path_189334" data-name="Path 189334" d="M1116.947,385.835l-20.712-6.052-.679,9.234,7.3,2.4-5.9,4.956,4.121,7.721,19.617-8.817Z" transform="translate(-1001.992 -282.273)" fill="#ff1300"/>
            <path id="Path_189335" data-name="Path 189335" d="M896.732,295.618c-1.216-7.04-9.482-11.489-18.462-9.938S863,294.2,864.211,301.236s9.482,11.489,18.463,9.938,15.274-8.516,14.058-15.556" transform="translate(-718.734 -212.103)" fill="#ff1300"/>
            <path id="Path_189336" data-name="Path 189336" d="M947.058,344.62c-2.112-6.715,2.221-14.06,9.677-16.4s15.212,1.2,17.325,7.913-2.221,14.06-9.677,16.4-15.212-1.2-17.324-7.913" transform="translate(-817.618 -243.409)" fill="#ff1300"/>
            <path id="Path_189337" data-name="Path 189337" d="M1088.061,405.146l-3.546-13.653a6.52,6.52,0,0,0-4.672,7.95l.268,1.031a6.52,6.52,0,0,0,7.95,4.672Z" transform="translate(-965.261 -290.977)" fill="#3690d1"/>
            <path id="Path_189338" data-name="Path 189338" d="M1024.358,376.127c-1.874-5.959,1.043-12.185,6.515-13.906s11.428,1.715,13.3,7.674-1.043,12.185-6.516,13.906-11.427-1.715-13.3-7.674" transform="translate(-907.605 -268.89)" fill="#ff1300"/>
            <path id="Path_189339" data-name="Path 189339" d="M555.458,1003.041l5.738-21.664,25.548,1.917,83.679,7.985,4.54,17.3Z" transform="translate(-417.579 -729.406)"/>
            <path id="Path_189340" data-name="Path 189340" d="M678.019,467.008,729.278,472l-1.262,12.557-31.994-2.121-10.55-4.415Z" transform="translate(-503.363 -347.103)"/>
            <rect id="Rectangle_47375" data-name="Rectangle 47375" width="30.607" height="91.82" transform="translate(186.034 99.26)" fill="#ef8e4d"/>
            <path id="Path_189341" data-name="Path 189341" d="M563.779,480.089l-25.219-3.217A74.551,74.551,0,0,0,476,498.521l-75.085,76.266a57.04,57.04,0,0,0,6.834,86c21.329,15.639,57.217,25.112,96.158,14.828l10.768-30.656L471,610.02l25.3-17.77L495.1,611.827l180.114,14.758.3-42.746,10.265-52.551-17.584-31.072-59.04-15.506,1.332-12.552-13.057,7.5,1.155,37.684-11.2-36.884-28.174-13.243Z" transform="translate(-384.498 -347.262)" fill="#ffc849"/>
            <path id="Path_189342" data-name="Path 189342" d="M744.75,392.828v17.286c-11.358,4.587-23.928-3.4-30.607-8.763v-12.24l18.276,1.332Z" transform="translate(-528.109 -289.206)"/>
            <path id="Path_189343" data-name="Path 189343" d="M659.932,95.943c0-27.56-21.448-49.9-47.906-49.9s-47.906,22.342-47.906,49.9,21.448,49.9,47.906,49.9,47.906-22.342,47.906-49.9" transform="translate(-404.773 -34.221)" fill="#ef8e4d"/>
            <path id="Path_189344" data-name="Path 189344" d="M933.485,226.749s-11.634-11.438-17.275-.352c-6.659,13.087,12.52,24.689,18.431,13.073s-1.155-12.721-1.155-12.721" transform="translate(-771.882 -164.674)" fill="#ef8e4d"/>
            <path id="Path_189345" data-name="Path 189345" d="M745.19,256.29a.466.466,0,0,0,.363-.758l-3.956-4.91a.466.466,0,0,0-.614-.1l-6.615,4.229a.466.466,0,1,0,.5.785l6.263-4,3.694,4.585a.465.465,0,0,0,.363.173" transform="translate(-534.152 -186.146)"/>
            <path id="Path_189346" data-name="Path 189346" d="M765.571,332.81a.466.466,0,0,0,.044-.93c-9.819-.943-17.539-10.505-17.617-10.6a.466.466,0,0,0-.729.58,35.8,35.8,0,0,0,5.24,5.1c2.984,2.386,7.665,5.339,13.016,5.853l.045,0" transform="translate(-557.875 -238.66)"/>
            <path id="Path_189347" data-name="Path 189347" d="M799.918,149.349a.466.466,0,0,0,.391-.718,13.2,13.2,0,0,0-3.94-3.527c-2.517-1.577-6.934-3.456-13.686-3.456a.466.466,0,1,0,0,.931c6.5,0,10.732,1.785,13.14,3.282a12.628,12.628,0,0,1,3.7,3.277.466.466,0,0,0,.391.212" transform="translate(-601.221 -105.28)"/>
            <path id="Path_189348" data-name="Path 189348" d="M944.628,252.719a.466.466,0,0,0,.407-.691,15.69,15.69,0,0,0-7.687-7.308,10.357,10.357,0,0,0-4.206-.863.466.466,0,0,0,.058.93,9.674,9.674,0,0,1,3.842.815,14.8,14.8,0,0,1,7.177,6.876.465.465,0,0,0,.408.241" transform="translate(-784.569 -181.244)"/>
            <path id="Path_189349" data-name="Path 189349" d="M940.249,272.817a.464.464,0,0,0,.388-.209l4.626-6.995a.466.466,0,1,0-.777-.514l-4.626,6.995a.466.466,0,0,0,.388.723" transform="translate(-786.635 -196.88)"/>
            <path id="Path_189350" data-name="Path 189350" d="M828.377,205.613s.075-28.527-26.8-12.139c0,0,5.715,19.6,26.8,12.139" transform="translate(-634.184 -140.026)" fill="#fff"/>
            <path id="Path_189351" data-name="Path 189351" d="M822.978,202.011a11.324,11.324,0,0,1-18.9-12.287c14.344-5.188,17.98,6.148,18.9,12.287" transform="translate(-629.099 -140.03)"/>
            <path id="Path_189352" data-name="Path 189352" d="M615.161,45.706c22.992,0,42.2,16.872,46.838,39.378C623.2,84.52,606.6,53.4,606.6,53.4c-5.383,17.29-30.011,28.48-38.308,31.813,4.59-22.573,23.828-39.511,46.865-39.511" transform="translate(-407.912 -33.972)" fill="#ff1300"/>
            <path id="Path_189353" data-name="Path 189353" d="M519.352,127.959a32.259,32.259,0,1,0-12.424,43.9,32.259,32.259,0,0,0,12.424-43.9" transform="translate(-241.288 -82.821)" fill="#ce956e"/>
            <path id="Path_189354" data-name="Path 189354" d="M442.415,415.761l-32.569-58.045a1.671,1.671,0,0,0-2.274-.643l-6.213,3.472a1.67,1.67,0,0,0-.643,2.274l32.569,58.045a1.671,1.671,0,0,0,2.274.643l6.213-3.472a1.671,1.671,0,0,0,.643-2.274" transform="translate(-145.458 -265.236)" fill="#7dbcf5"/>
            <path id="Path_189355" data-name="Path 189355" d="M486.208,194.807s14.045-49.386,52.4-7.682c0,0-19.623,31.059-52.4,7.682" transform="translate(-263.44 -126.644)" fill="#fff"/>
            <path id="Path_189356" data-name="Path 189356" d="M541.65,200.521a20.347,20.347,0,0,1-13.205-11.791c4.643-10.162,16.567-27.977,38.81-11.867a20.39,20.39,0,0,1-25.605,23.658" transform="translate(-303.346 -126.644)"/>
            <path id="Path_189357" data-name="Path 189357" d="M481.584,169.636a35.692,35.692,0,1,0-9.744-1.361,35.751,35.751,0,0,0,9.744,1.361m25.2-49.715h0a28.954,28.954,0,0,1-25.213,43.058,29.065,29.065,0,0,1-7.922-1.107,28.932,28.932,0,1,1,33.135-41.952" transform="translate(-231.628 -73.161)" fill="#7dbcf5"/>
            <path id="Path_189358" data-name="Path 189358" d="M448.692,1194.753l28.049-112.958,122.467,9.12,25.542,103.838Z" transform="translate(-339.953 -811.115)" fill="#3c3fa7"/>
            <path id="Path_189359" data-name="Path 189359" d="M371.2,524.1l-9.51-10.656s-10.443-.646-16.7-13.022c-3.529-6.981-3.069-14.477-6.128-22.827-.989-2.7-2.005-5.717-2.757-7.94a4.118,4.118,0,0,1,1.918-4.929,5.5,5.5,0,0,1,7.376,2.014c2.924,4.924,7.918,14.731,8.538,19.466.348,2.661,4.157,7.355,8.532,12.787,10.611,13.176,27.462,30.286,27.462,30.286Z" transform="translate(-76.172 -344.905)" fill="#ef8e4d"/>
            <path id="Path_189360" data-name="Path 189360" d="M691.669,1125.267a5.494,5.494,0,1,0-5.494-5.494,5.5,5.5,0,0,0,5.494,5.494m0-9.832a4.338,4.338,0,1,1-4.337,4.338,4.343,4.343,0,0,1,4.337-4.338" transform="translate(-473.342 -828.185)" fill="#fff"/>
            <path id="Path_189361" data-name="Path 189361" d="M1095.022,595.067a.372.372,0,0,0,.06,0,.405.405,0,0,0,.342-.46c-2.43-16.333-10.183-30.8-23.046-42.993a.4.4,0,1,0-.557.588c12.729,12.068,20.4,26.375,22.8,42.524a.4.4,0,0,0,.4.345" transform="translate(-970.589 -409.901)"/>
            <path id="Path_189362" data-name="Path 189362" d="M1079.652,875.849a.4.4,0,0,0,.344-.191,105.889,105.889,0,0,0,11.019-27.617.4.4,0,0,0-.786-.194,105.023,105.023,0,0,1-10.92,27.383.4.4,0,0,0,.344.619" transform="translate(-968.127 -629.931)"/>
            <path id="Path_189363" data-name="Path 189363" d="M704.228,764.138a.4.4,0,0,0,.4-.4c0-20.768-.591-51.531-3.409-80.146-1.686-17.125-3.4-25.462-3.414-25.544a.4.4,0,0,0-.793.164c.017.082,1.721,8.392,3.4,25.481,1.553,15.773,3.4,42.464,3.4,80.044a.4.4,0,0,0,.405.4" transform="translate(-483.593 -488.849)"/>
            <path id="Path_189364" data-name="Path 189364" d="M440.743,419.6l5.51-13.33a5.135,5.135,0,1,0-9.491-3.923l-5.51,13.33a5.135,5.135,0,0,0,9.491,3.923" transform="translate(-157.269 -296.684)" fill="#ef8e4d"/>
            <path id="Path_189365" data-name="Path 189365" d="M530.277,1153.12a.575.575,0,0,1,.608-.547l129.132,6.712.308,1.174-129.5-6.731a.578.578,0,0,1-.548-.608" transform="translate(-396.475 -856.646)" fill="#fff"/>
            <path id="Path_189366" data-name="Path 189366" d="M407.366,462.819l8.843-15.674a5.141,5.141,0,0,0-2.346-7.2l-1.408-.641a5.141,5.141,0,0,0-6.81,2.546l-7.435,16.316a5.141,5.141,0,0,0,9.155,4.657" transform="translate(-118.997 -326.164)" fill="#ef8e4d"/>
            <path id="Path_189367" data-name="Path 189367" d="M439.333,473.767a5.346,5.346,0,0,0,4.654-2.718.2.2,0,1,0-.351-.2,4.939,4.939,0,0,1-8.8-4.475l7.435-16.316a.2.2,0,0,0-.367-.167l-7.435,16.316a5.344,5.344,0,0,0,4.86,7.558" transform="translate(-155.443 -334.295)"/>
            <path id="Path_189368" data-name="Path 189368" d="M978.307,1144.762a29.919,29.919,0,0,1,1.555-5.257,9.47,9.47,0,0,1,12.5-5.229l13.067,5.524a2.866,2.866,0,0,1,1.315,4.157,5.184,5.184,0,0,1-6.14,2.16l-9.042-3.07Z" transform="translate(-858.364 -842.488)" fill="#ef8e4d"/>
            <path id="Path_189369" data-name="Path 189369" d="M385.814,502.435l6.457-10.841a5.135,5.135,0,0,0-8.823-5.255l-6.457,10.841a5.135,5.135,0,1,0,8.823,5.255" transform="translate(-89.603 -359.607)" fill="#ef8e4d"/>
            <path id="Path_189370" data-name="Path 189370" d="M408.777,511.819a5.337,5.337,0,0,0,4.593-2.6.2.2,0,1,0-.346-.206,4.933,4.933,0,0,1-8.477-5.049l6.457-10.841a.2.2,0,1,0-.346-.206L404.2,503.754a5.334,5.334,0,0,0,4.576,8.066" transform="translate(-116.987 -366.284)"/>
            <path id="Path_189371" data-name="Path 189371" d="M986.181,1181.228l-1.137-5.518a5.429,5.429,0,0,1,.029-2.383,9.044,9.044,0,0,1,6.709-6.656l2.568-.606a11.829,11.829,0,0,1,10.368,2.494l8.629,7.314c4.165,3.535-.063,7.422-4.561,6.784a9.441,9.441,0,0,1-1.34-.287c-3.9-1.147-10.787-6.964-10.787-6.964Z" transform="translate(-867.936 -866.44)" fill="#ef8e4d"/>
            <path id="Path_189372" data-name="Path 189372" d="M1006.489,1201.912s-.018-7.763,1.91-9.973a8.627,8.627,0,0,1,12.421-.752l9.438,8.865a2.7,2.7,0,0,1-.211,4.054,4.875,4.875,0,0,1-2.75,1.067,4.682,4.682,0,0,1-3.219-1.056l-6.774-5.474Z" transform="translate(-889.498 -883.645)" fill="#ef8e4d"/>
            <path id="Path_189373" data-name="Path 189373" d="M1027.842,1220.745c2.168-4.3,7.008-5.426,10.174-2.788l8.451,7.042a2.958,2.958,0,0,1,.135,3.971,4.317,4.317,0,0,1-2.183,1.491,3.222,3.222,0,0,1-2.733-.491l-4.163-3.248c-5.848-4.088-4.119-.995-7.58,6.1,0,0-4.886-6.548-2.1-12.073" transform="translate(-910.98 -904.193)" fill="#ef8e4d"/>
            <path id="Path_189374" data-name="Path 189374" d="M1266.891,952.589a.405.405,0,0,0,.3-.682,85.97,85.97,0,0,0-13.731-11.183,89.95,89.95,0,0,0-15.551-8.34,72.887,72.887,0,0,0-19.941-5.177.4.4,0,0,0-.087.8,72.1,72.1,0,0,1,19.706,5.116,89.077,89.077,0,0,1,15.4,8.257,86.626,86.626,0,0,1,13.608,11.075.4.4,0,0,0,.3.128" transform="translate(-1179.898 -689.143)"/>
            <path id="Path_189375" data-name="Path 189375" d="M1226.312,957.609a.415.415,0,0,0,.114-.016.4.4,0,0,0,.274-.5l-5.362-18.265a.4.4,0,1,0-.777.228l5.362,18.265a.405.405,0,0,0,.388.291" transform="translate(-1140.097 -697.563)"/>
            <path id="Path_189376" data-name="Path 189376" d="M32.381,637.371,43.706,647.2s15.055-8.678,47.45,21.432c6.878,6.393,13.644,14.772,19.615,23.114a41.6,41.6,0,0,1-7.6,56.511,36.094,36.094,0,0,1-37.853,4.759L0,722.927l3.458-70.618s23.049,7.611,28.924-14.937" transform="translate(281.451 -473.725)" fill="#ffc849"/>
            <path id="Path_189377" data-name="Path 189377" d="M289.939,783.518a.4.4,0,0,0,.283-.694c-.051-.049-5.14-5.031-11.247-11.724-5.631-6.17-13.3-15.1-17.877-22.589a41.351,41.351,0,0,1-5.415-13.792,38.554,38.554,0,0,1-.441-11.558,34.156,34.156,0,0,1,2.974-10.921.406.406,0,0,0-.043-.441l-12.513-15.624a.4.4,0,1,0-.632.506L257.38,712.1a35.3,35.3,0,0,0-2.939,10.931,39.349,39.349,0,0,0,.442,11.813,42.144,42.144,0,0,0,5.523,14.085c4.608,7.548,12.317,16.519,17.973,22.717,6.123,6.709,11.225,11.7,11.276,11.753a.4.4,0,0,0,.283.115" transform="translate(46.767 -517.318)"/>
            <path id="Path_189378" data-name="Path 189378" d="M690.38,653.574l7.889,12.764a2.207,2.207,0,0,1-1.867,3.368l-9.573.045a2.208,2.208,0,0,1-2.2-2.495l1.684-12.808a2.207,2.207,0,0,1,4.066-.872" transform="translate(-474.379 -484.988)" fill="#7dbcf5"/>
            <path id="Path_189379" data-name="Path 189379" d="M734.415,14.236a.459.459,0,0,0,.083-.007,29.534,29.534,0,0,0,5.149-1.516c3.647-1.453,5.945-3.306,6.832-5.507.852-2.115.353-4.473-1.485-7.009a.466.466,0,0,0-.754.546c1.636,2.259,2.1,4.316,1.375,6.114-1.9,4.713-11.188,6.439-11.282,6.456a.466.466,0,0,0,.082.924" transform="translate(-535.326 -0.003)" fill="#ff1300"/>
            <path id="Path_189380" data-name="Path 189380" d="M649.666,1194.675l-.051,0a.578.578,0,0,1-.575-.528l-7.7-87.969,1.168.081,7.682,87.788a.579.579,0,0,1-.526.627" transform="translate(-414.861 -822.165)" fill="#fff"/>
            <path id="Path_189381" data-name="Path 189381" d="M732.375,1161.3a.579.579,0,0,1-.626-.526L726.51,1100.9l1.168.082,5.223,59.691a.579.579,0,0,1-.526.627" transform="translate(-519.437 -818.242)" fill="#fff"/>
            <path id="Path_189382" data-name="Path 189382" d="M466.62,461.023c-.918,2.222-3.029,3.457-4.715,2.761s-2.308-3.063-1.39-5.284,3.029-3.457,4.715-2.761,2.308,3.063,1.39,5.284" transform="translate(-185.174 -338.583)"/>
            <path id="Path_189383" data-name="Path 189383" d="M446.136,511.562a3.866,3.866,0,1,1-1.882-5.487,4.118,4.118,0,0,1,1.882,5.487" transform="translate(-159.139 -375.946)"/>
            <path id="Path_189384" data-name="Path 189384" d="M418.959,534.367c-.918,2.221-3.032,3.456-4.722,2.758s-2.315-3.065-1.4-5.287,3.032-3.456,4.722-2.758,2.315,3.065,1.4,5.287" transform="translate(-125.272 -393.093)"/>
            <path id="Path_189385" data-name="Path 189385" d="M354.929,534.326l6.422-6.823a4.332,4.332,0,1,0-6.309-5.939l-6.422,6.823a4.332,4.332,0,0,0,6.309,5.939" transform="translate(-51.736 -386.639)" fill="#ef8e4d"/>
            <path id="Path_189386" data-name="Path 189386" d="M384.239,554.663c-1.3,1.643-3.372,2.172-4.623,1.181s-1.207-3.127.1-4.77,3.372-2.172,4.622-1.181,1.207,3.127-.1,4.77" transform="translate(-82.479 -408.336)"/>
            <path id="Path_189387" data-name="Path 189387" d="M380.347,539.252l.141,0a4.5,4.5,0,0,0,3.164-1.424.2.2,0,1,0-.293-.276,4.131,4.131,0,1,1-6.015-5.662l6.422-6.823a.2.2,0,1,0-.293-.276l-6.422,6.823a4.534,4.534,0,0,0,3.3,7.641" transform="translate(-80.312 -390.001)"/>
            <path id="Path_189388" data-name="Path 189388" d="M985.211,1158.7c-.459,1.294-2.43,1.775-4.4,1.075s-3.2-2.316-2.737-3.609,2.43-1.775,4.4-1.075,3.2,2.316,2.738,3.609" transform="translate(-836.407 -858.278)"/>
            <path id="Path_189389" data-name="Path 189389" d="M994.475,1204.734c-.941,1.428-3.333,1.511-5.343.188s-2.879-3.556-1.938-4.984,3.333-1.512,5.344-.187,2.878,3.556,1.938,4.984" transform="translate(-848.223 -891.012)"/>
            <path id="Path_189390" data-name="Path 189390" d="M1014.705,1229.682c-.923,1.144-3.059.952-4.77-.429s-2.351-3.428-1.427-4.572,3.058-.952,4.77.429,2.35,3.428,1.427,4.572" transform="translate(-873.958 -909.686)"/>
            <path id="Path_189391" data-name="Path 189391" d="M1034.322,1248.18c-.862,1.069-2.858.89-4.457-.4s-2.2-3.2-1.333-4.271,2.857-.889,4.456.4,2.2,3.2,1.333,4.271" transform="translate(-898.695 -923.716)"/>
            <path id="Path_189392" data-name="Path 189392" d="M1045.239,1228.632a.181.181,0,0,0,.141-.068,3.154,3.154,0,0,0-.16-4.226l-8.451-7.042a6.25,6.25,0,0,0-5.3-1.321,7.6,7.6,0,0,0-5.154,4.167.182.182,0,1,0,.326.164,7.238,7.238,0,0,1,4.9-3.973,5.812,5.812,0,0,1,4.993,1.244l8.45,7.042a2.776,2.776,0,0,1,.11,3.717.182.182,0,0,0,.141.3" transform="translate(-909.616 -903.671)"/>
            <path id="Path_189393" data-name="Path 189393" d="M1032.319,1199.729a.182.182,0,0,0,.125-.315l-9.438-8.864a9.27,9.27,0,0,0-8.578-2c-1.923.565-4.429,2.095-5.45,6.175a.182.182,0,1,0,.353.088c.979-3.913,3.368-5.376,5.2-5.914a8.888,8.888,0,0,1,8.226,1.915l9.438,8.864a.181.181,0,0,0,.125.05" transform="translate(-891.558 -883.14)"/>
            <path id="Path_189394" data-name="Path 189394" d="M1024.645,1168.315a.179.179,0,0,0,.084-.021,36.643,36.643,0,0,1,6.429-2.632,11.39,11.39,0,0,1,10.209,2.455.182.182,0,1,0,.235-.277,11.742,11.742,0,0,0-10.527-2.532,36.254,36.254,0,0,0-6.515,2.664.182.182,0,0,0,.085.344" transform="translate(-904.701 -865.859)"/>
          </g>
        </g>
      </g>
    </g>
  </g>
</svg>
