<svg xmlns="http://www.w3.org/2000/svg" width="400" height="204" viewBox="0 0 400 204">
  <g id="_13" data-name="13" transform="translate(-185 -7430)">
    <path id="Path_211223" data-name="Path 211223" d="M14,0H386a14,14,0,0,1,14,14V190a14,14,0,0,1-14,14H14A14,14,0,0,1,0,190V14A14,14,0,0,1,14,0Z" transform="translate(185 7430)" fill="#c4d1ff"/>
    <path id="Path_211224" data-name="Path 211224" d="M8.182,12.915q.109-.547-.759-.793L6.8,11.965q-2.208-.608-2.146-2.146a2.124,2.124,0,0,1,.926-1.706,3.449,3.449,0,0,1,2.15-.646,3.094,3.094,0,0,1,2.023.663,2.184,2.184,0,0,1,.786,1.729L8.626,9.853a.843.843,0,0,0-.943-.964,1.358,1.358,0,0,0-.783.226.929.929,0,0,0-.407.608q-.1.547.827.772l.273.062a5.5,5.5,0,0,1,1.442.516,2.177,2.177,0,0,1,.769.721,1.785,1.785,0,0,1,.25,1.032,1.97,1.97,0,0,1-.455,1.23,2.782,2.782,0,0,1-1.189.813,4.144,4.144,0,0,1-1.589.267,3.122,3.122,0,0,1-2.051-.708,2.281,2.281,0,0,1-.834-1.794l1.818.014A1,1,0,0,0,6.89,13.722a1.614,1.614,0,0,0,.878-.219A.864.864,0,0,0,8.182,12.915Zm5.7-4.491a2.578,2.578,0,0,1,2-.957,1.875,1.875,0,0,1,1.617.79,3.1,3.1,0,0,1,.386,2.082L17.11,15H15.182l.786-4.688a2.272,2.272,0,0,0,.014-.493.775.775,0,0,0-.861-.76,1.665,1.665,0,0,0-1.367.671L12.824,15H10.9L12.714,4.5h1.935Zm8.244,6.713a3.218,3.218,0,0,1-1.719-.475,2.88,2.88,0,0,1-1.118-1.285,3.582,3.582,0,0,1-.287-1.8l.021-.273a4.782,4.782,0,0,1,.629-1.982,3.8,3.8,0,0,1,1.354-1.391,3.349,3.349,0,0,1,1.832-.461A2.559,2.559,0,0,1,25,8.518a3.6,3.6,0,0,1,.557,2.591l-.109.842H20.917a1.587,1.587,0,0,0,.349,1.148,1.331,1.331,0,0,0,1.025.444,2.365,2.365,0,0,0,1.846-.82l.882,1.094a2.743,2.743,0,0,1-1.2.981A3.934,3.934,0,0,1,22.127,15.137Zm.615-6.077a1.37,1.37,0,0,0-.947.335,2.943,2.943,0,0,0-.742,1.21h2.652l.041-.178a1.812,1.812,0,0,0,.007-.52.992.992,0,0,0-.335-.619A1.05,1.05,0,0,0,22.743,9.06Zm6.795,6.077a3.218,3.218,0,0,1-1.719-.475A2.88,2.88,0,0,1,26.7,13.376a3.582,3.582,0,0,1-.287-1.8l.021-.273a4.782,4.782,0,0,1,.629-1.982,3.8,3.8,0,0,1,1.354-1.391,3.349,3.349,0,0,1,1.832-.461,2.559,2.559,0,0,1,2.164,1.051,3.6,3.6,0,0,1,.557,2.591l-.109.842H28.328a1.587,1.587,0,0,0,.349,1.148,1.331,1.331,0,0,0,1.025.444,2.365,2.365,0,0,0,1.846-.82l.882,1.094a2.743,2.743,0,0,1-1.2.981A3.934,3.934,0,0,1,29.538,15.137Zm.615-6.077a1.37,1.37,0,0,0-.947.335,2.943,2.943,0,0,0-.742,1.21h2.652l.041-.178a1.812,1.812,0,0,0,.007-.52.992.992,0,0,0-.335-.619A1.05,1.05,0,0,0,30.153,9.06ZM18.593,16h14.82v1H18.593Zm21.943-4.678a6.109,6.109,0,0,1-.608,2.064,3.347,3.347,0,0,1-1.155,1.34,2.676,2.676,0,0,1-1.531.417,2.135,2.135,0,0,1-1.7-.8l-.677,3.5H32.942L34.712,7.6,36.49,7.6l-.13.745a2.362,2.362,0,0,1,1.887-.875,2.1,2.1,0,0,1,1.688.79,3.432,3.432,0,0,1,.643,2.068A7.991,7.991,0,0,1,40.537,11.322Zm-1.914-.14.041-.657a1.828,1.828,0,0,0-.243-1.054.871.871,0,0,0-.749-.4,1.591,1.591,0,0,0-1.388.712l-.554,3.054a1.079,1.079,0,0,0,1.087.719,1.391,1.391,0,0,0,1.162-.541A3.7,3.7,0,0,0,38.623,11.182Z" transform="translate(218 7483.711)" fill="#12263f"/>
    <path id="Path_210541" data-name="Path 210541" d="M11.967,19.215a4.992,4.992,0,0,1-3.876-1.523A5.581,5.581,0,0,1,6.7,13.771v-.41A6.075,6.075,0,0,1,8.05,9.279,4.6,4.6,0,0,1,11.772,7.7,4.308,4.308,0,0,1,15.2,9.069,5.41,5.41,0,0,1,16.4,12.755V14.3H9.782l-.031.062a3,3,0,0,0,.692,1.846,2.318,2.318,0,0,0,1.841.708,6.159,6.159,0,0,0,1.707-.205,6.966,6.966,0,0,0,1.451-.625l.81,1.846a5.557,5.557,0,0,1-1.8.913A8,8,0,0,1,11.967,19.215Zm-.195-9.208a1.663,1.663,0,0,0-1.389.62,3.112,3.112,0,0,0-.59,1.646l.021.051h3.65V12.1a2.591,2.591,0,0,0-.4-1.533A1.479,1.479,0,0,0,11.772,10.007Z" transform="translate(229.304 7508.711)" fill="#12263f"/>
    <path id="Path_211225" data-name="Path 211225" d="M10.71,11.322a5.3,5.3,0,0,1-1.066,2.8,2.654,2.654,0,0,1-2.229,1.019A2.062,2.062,0,0,1,5.638,14.2l-.28.8H3.6L5.419,4.5H7.354L6.609,8.28a2.3,2.3,0,0,1,1.8-.813,2.087,2.087,0,0,1,1.685.769,3.4,3.4,0,0,1,.653,2.088A7.991,7.991,0,0,1,10.71,11.322ZM8.8,11.178a5.735,5.735,0,0,0,.041-.905Q8.762,9.08,7.853,9.06a1.6,1.6,0,0,0-1.415.775L5.9,12.783a1.1,1.1,0,0,0,1.107.768q1.422.041,1.743-2.071Zm6.029,3.958a3.218,3.218,0,0,1-1.719-.475,2.88,2.88,0,0,1-1.118-1.285,3.582,3.582,0,0,1-.287-1.8l.021-.273a4.782,4.782,0,0,1,.629-1.982A3.8,3.8,0,0,1,13.7,7.928a3.349,3.349,0,0,1,1.832-.461A2.559,2.559,0,0,1,17.7,8.518a3.6,3.6,0,0,1,.557,2.591l-.109.842H13.616a1.587,1.587,0,0,0,.349,1.148,1.331,1.331,0,0,0,1.025.444,2.365,2.365,0,0,0,1.846-.82l.882,1.094a2.743,2.743,0,0,1-1.2.981A3.934,3.934,0,0,1,14.826,15.137Zm.615-6.077a1.37,1.37,0,0,0-.947.335,2.943,2.943,0,0,0-.742,1.21H16.4l.041-.178a1.812,1.812,0,0,0,.007-.52.992.992,0,0,0-.335-.619A1.05,1.05,0,0,0,15.441,9.06ZM11.292,16H18.7v1h-7.41Zm11.1-8.54a2.1,2.1,0,0,1,1.668.827L24.786,4.5H26.72L24.9,15H23.179l.109-.793a2.394,2.394,0,0,1-1.928.937,2.129,2.129,0,0,1-1.21-.362,2.281,2.281,0,0,1-.8-1.022,4.116,4.116,0,0,1-.311-1.487,5.6,5.6,0,0,1,.021-.834l.041-.308a5.921,5.921,0,0,1,.632-2,3.3,3.3,0,0,1,1.148-1.278A2.708,2.708,0,0,1,22.393,7.46Zm-1.4,3.979a5.536,5.536,0,0,0-.034.875q.068,1.2.971,1.224a1.65,1.65,0,0,0,1.415-.766l.526-2.939A1.092,1.092,0,0,0,22.8,9.066a1.4,1.4,0,0,0-1.172.543A3.654,3.654,0,0,0,20.992,11.438Z" transform="translate(226 7539.711)" fill="#12263f"/>
    <path id="Path_211226" data-name="Path 211226" d="M6.684,13.551a1.266,1.266,0,0,0,.889-.291,1.428,1.428,0,0,0,.465-.81l1.812-.007a2.657,2.657,0,0,1-.489,1.4,2.969,2.969,0,0,1-1.176.971,3.366,3.366,0,0,1-1.548.328,2.733,2.733,0,0,1-2.133-.93,3.469,3.469,0,0,1-.759-2.42l.021-.376.007-.075A4.624,4.624,0,0,1,4.988,8.482a3.291,3.291,0,0,1,2.55-1.015,2.666,2.666,0,0,1,1.986.817,2.885,2.885,0,0,1,.721,2.082h-1.8a1.514,1.514,0,0,0-.26-.937.987.987,0,0,0-.779-.369q-1.381-.041-1.675,2.017a6.809,6.809,0,0,0-.075,1.258Q5.727,13.53,6.684,13.551ZM14.873,15a2,2,0,0,1-.075-.67,2.505,2.505,0,0,1-1.887.807A2.27,2.27,0,0,1,11.3,14.5a1.913,1.913,0,0,1-.6-1.528,2.211,2.211,0,0,1,1.015-1.856,4.608,4.608,0,0,1,2.594-.646l.9.014.1-.444a1.543,1.543,0,0,0,.021-.431.74.74,0,0,0-.243-.5.836.836,0,0,0-.55-.188,1.177,1.177,0,0,0-.766.222,1.077,1.077,0,0,0-.4.68l-1.935.007a2.15,2.15,0,0,1,.974-1.719A3.773,3.773,0,0,1,14.7,7.467a2.727,2.727,0,0,1,1.969.749,2.19,2.19,0,0,1,.595,1.856l-.567,3.541-.034.438a2.111,2.111,0,0,0,.116.82l-.007.13ZM13.39,13.64a1.765,1.765,0,0,0,1.456-.725l.239-1.278-.67-.007a1.872,1.872,0,0,0-1.538.649,1.131,1.131,0,0,0-.212.554.656.656,0,0,0,.154.584A.779.779,0,0,0,13.39,13.64ZM10.573,16h7.349v1H10.573ZM21.853,5.785,21.531,7.6h1.23l-.253,1.449h-1.23l-.629,3.705a.942.942,0,0,0,.055.533q.1.185.465.2.109.007.588-.034l-.137,1.511a3.242,3.242,0,0,1-1.107.157,1.737,1.737,0,0,1-1.415-.595,2.149,2.149,0,0,1-.383-1.572l.636-3.9H18.3L18.558,7.6H19.6l.314-1.818Z" transform="translate(228 7586.711)" fill="#12263f"/>
    <path id="Path_210549" data-name="Path 210549" d="M11.3,15.064l.186.977h.059l.2-.977,1.738-6.631h2.979L12.867,19H10.143L6.549,8.434H9.527Z" transform="translate(349.461 7587.711) rotate(180)" fill="#12263f"/>
    <path id="Path_210542" data-name="Path 210542" d="M11.126,7.7A4.992,4.992,0,0,1,15,9.223,5.581,5.581,0,0,1,16.4,13.145v.41a6.074,6.074,0,0,1-1.354,4.081,4.6,4.6,0,0,1-3.722,1.579,4.308,4.308,0,0,1-3.43-1.369A5.41,5.41,0,0,1,6.7,14.16V12.612H13.31l.031-.062a3,3,0,0,0-.692-1.846A2.318,2.318,0,0,0,10.808,10,6.159,6.159,0,0,0,9.1,10.2a6.966,6.966,0,0,0-1.451.625L6.84,8.982a5.557,5.557,0,0,1,1.8-.913A8,8,0,0,1,11.126,7.7Zm.195,9.208a1.663,1.663,0,0,0,1.389-.62,3.112,3.112,0,0,0,.59-1.646l-.021-.051H9.629v.226a2.591,2.591,0,0,0,.4,1.533A1.479,1.479,0,0,0,11.321,16.908Z" transform="translate(326.304 7508.711)" fill="#12263f"/>
    <path id="Path_210538" data-name="Path 210538" d="M12.493.407v9.94h1.441V12H9.057V10.348h1.433V.407H9.057V-1.245h4.878V.407Z" transform="translate(326.943 7463.956)" fill="#12263f"/>
    <path id="Path_211227" data-name="Path 211227" d="M7.257,12.915q.109-.547-.759-.793l-.622-.157q-2.208-.608-2.146-2.146a2.124,2.124,0,0,1,.926-1.706,3.449,3.449,0,0,1,2.15-.646,3.094,3.094,0,0,1,2.023.663,2.184,2.184,0,0,1,.786,1.729L7.7,9.853a.843.843,0,0,0-.943-.964,1.358,1.358,0,0,0-.783.226.929.929,0,0,0-.407.608q-.1.547.827.772l.273.062a5.5,5.5,0,0,1,1.442.516,2.177,2.177,0,0,1,.769.721,1.785,1.785,0,0,1,.25,1.032,1.97,1.97,0,0,1-.455,1.23,2.782,2.782,0,0,1-1.189.813,4.144,4.144,0,0,1-1.589.267,3.122,3.122,0,0,1-2.051-.708,2.281,2.281,0,0,1-.834-1.794l1.818.014a1,1,0,0,0,1.135,1.073,1.614,1.614,0,0,0,.878-.219A.864.864,0,0,0,7.257,12.915Zm5.7-4.491a2.578,2.578,0,0,1,2-.957,1.875,1.875,0,0,1,1.617.79,3.1,3.1,0,0,1,.386,2.082L16.185,15H14.257l.786-4.688a2.272,2.272,0,0,0,.014-.493.775.775,0,0,0-.861-.76,1.665,1.665,0,0,0-1.367.671L11.9,15H9.971L11.789,4.5h1.935ZM19.726,15H17.784l1.285-7.4h1.941Zm-.431-9.276a.963.963,0,0,1,.3-.759,1.157,1.157,0,0,1,1.518-.034.959.959,0,0,1,.335.725.99.99,0,0,1-.284.738,1.063,1.063,0,0,1-.776.328,1.081,1.081,0,0,1-.755-.26A.954.954,0,0,1,19.295,5.724ZM17.668,16h3.671v1H17.668Zm10.794-4.678a6.109,6.109,0,0,1-.608,2.064,3.347,3.347,0,0,1-1.155,1.34,2.676,2.676,0,0,1-1.531.417,2.135,2.135,0,0,1-1.7-.8l-.677,3.5H20.867L22.638,7.6,24.415,7.6l-.13.745a2.362,2.362,0,0,1,1.887-.875,2.1,2.1,0,0,1,1.688.79,3.432,3.432,0,0,1,.643,2.068A7.991,7.991,0,0,1,28.462,11.322Zm-1.914-.14.041-.657a1.828,1.828,0,0,0-.243-1.054.871.871,0,0,0-.749-.4,1.591,1.591,0,0,0-1.388.712l-.554,3.054a1.079,1.079,0,0,0,1.087.719,1.391,1.391,0,0,0,1.162-.541A3.7,3.7,0,0,0,26.548,11.182Z" transform="translate(322 7483.711)" fill="#12263f"/>
    <path id="Path_211228" data-name="Path 211228" d="M9.6,5.785,9.275,7.6h1.23l-.253,1.449H9.022l-.629,3.705a.942.942,0,0,0,.055.533q.1.185.465.2.109.007.588-.034l-.137,1.511a3.242,3.242,0,0,1-1.107.157,1.737,1.737,0,0,1-1.415-.595,2.149,2.149,0,0,1-.383-1.572l.636-3.9H6.048L6.3,7.6H7.347l.314-1.818Zm4.259,9.352a3.218,3.218,0,0,1-1.719-.475,2.88,2.88,0,0,1-1.118-1.285,3.582,3.582,0,0,1-.287-1.8l.021-.273a4.782,4.782,0,0,1,.629-1.982,3.8,3.8,0,0,1,1.354-1.391,3.349,3.349,0,0,1,1.832-.461,2.559,2.559,0,0,1,2.164,1.051,3.6,3.6,0,0,1,.557,2.591l-.109.842H12.645a1.587,1.587,0,0,0,.349,1.148,1.331,1.331,0,0,0,1.025.444,2.365,2.365,0,0,0,1.846-.82l.882,1.094a2.743,2.743,0,0,1-1.2.981A3.934,3.934,0,0,1,13.855,15.137ZM14.47,9.06a1.37,1.37,0,0,0-.947.335,2.943,2.943,0,0,0-.742,1.21h2.652l.041-.178a1.812,1.812,0,0,0,.007-.52.992.992,0,0,0-.335-.619A1.05,1.05,0,0,0,14.47,9.06ZM22.031,15a2,2,0,0,1-.075-.67,2.505,2.505,0,0,1-1.887.807,2.27,2.27,0,0,1-1.61-.632,1.913,1.913,0,0,1-.6-1.528,2.211,2.211,0,0,1,1.015-1.856,4.608,4.608,0,0,1,2.594-.646l.9.014.1-.444a1.543,1.543,0,0,0,.021-.431.74.74,0,0,0-.243-.5.836.836,0,0,0-.55-.188,1.177,1.177,0,0,0-.766.222,1.077,1.077,0,0,0-.4.68l-1.935.007a2.15,2.15,0,0,1,.974-1.719,3.773,3.773,0,0,1,2.287-.646,2.727,2.727,0,0,1,1.969.749,2.19,2.19,0,0,1,.595,1.856l-.567,3.541-.034.438a2.111,2.111,0,0,0,.116.82l-.007.13Zm-1.483-1.36A1.765,1.765,0,0,0,22,12.915l.239-1.278-.67-.007a1.872,1.872,0,0,0-1.538.649,1.131,1.131,0,0,0-.212.554.656.656,0,0,0,.154.584A.779.779,0,0,0,20.547,13.64Zm7.793-.089a1.266,1.266,0,0,0,.889-.291,1.428,1.428,0,0,0,.465-.81l1.812-.007a2.657,2.657,0,0,1-.489,1.4,2.969,2.969,0,0,1-1.176.971,3.366,3.366,0,0,1-1.548.328,2.733,2.733,0,0,1-2.133-.93,3.469,3.469,0,0,1-.759-2.42l.021-.376.007-.075a4.624,4.624,0,0,1,1.217-2.861,3.291,3.291,0,0,1,2.55-1.015,2.666,2.666,0,0,1,1.986.817,2.885,2.885,0,0,1,.721,2.082H30.1a1.514,1.514,0,0,0-.26-.937.987.987,0,0,0-.779-.369q-1.381-.041-1.675,2.017a6.809,6.809,0,0,0-.075,1.258Q27.383,13.53,28.34,13.551Zm6.85-5.127a2.578,2.578,0,0,1,2-.957,1.875,1.875,0,0,1,1.617.79,3.1,3.1,0,0,1,.386,2.082L38.417,15H36.489l.786-4.688a2.272,2.272,0,0,0,.014-.493.775.775,0,0,0-.861-.76,1.665,1.665,0,0,0-1.367.671L34.13,15H32.2L34.021,4.5h1.935Zm8.244,6.713a3.218,3.218,0,0,1-1.719-.475A2.88,2.88,0,0,1,40.6,13.376a3.582,3.582,0,0,1-.287-1.8l.021-.273a4.782,4.782,0,0,1,.629-1.982,3.8,3.8,0,0,1,1.354-1.391,3.349,3.349,0,0,1,1.832-.461,2.559,2.559,0,0,1,2.164,1.051,3.6,3.6,0,0,1,.557,2.591l-.109.842H42.224a1.587,1.587,0,0,0,.349,1.148,1.331,1.331,0,0,0,1.025.444,2.365,2.365,0,0,0,1.846-.82l.882,1.094a2.743,2.743,0,0,1-1.2.981A3.934,3.934,0,0,1,43.434,15.137Zm.615-6.077a1.37,1.37,0,0,0-.947.335,2.943,2.943,0,0,0-.742,1.21h2.652l.041-.178a1.812,1.812,0,0,0,.007-.52.992.992,0,0,0-.335-.619A1.05,1.05,0,0,0,44.049,9.06ZM39.9,16h7.41v1H39.9ZM52.4,9.456a3.98,3.98,0,0,0-.649-.068,1.869,1.869,0,0,0-1.634.772L49.258,15H47.331l1.285-7.4L50.427,7.6l-.178.9a2.034,2.034,0,0,1,1.723-1.046,2.812,2.812,0,0,1,.67.1Z" transform="translate(309 7539.711)" fill="#12263f"/>
    <path id="Path_211229" data-name="Path 211229" d="M7.41,14.234a2.554,2.554,0,0,1-2.037.9,1.9,1.9,0,0,1-1.613-.766,2.8,2.8,0,0,1-.424-1.982l.8-4.785H6.063L5.25,12.415a1.9,1.9,0,0,0-.007.424.7.7,0,0,0,.759.7,1.762,1.762,0,0,0,1.483-.691L8.408,7.6H10.35L9.064,15h-1.8ZM2.81,16h7.67v1H2.81ZM17.6,11.322a6.109,6.109,0,0,1-.608,2.064,3.347,3.347,0,0,1-1.155,1.34,2.676,2.676,0,0,1-1.531.417,2.135,2.135,0,0,1-1.7-.8l-.677,3.5H10.008L11.778,7.6,13.556,7.6l-.13.745a2.362,2.362,0,0,1,1.887-.875A2.1,2.1,0,0,1,17,8.256a3.432,3.432,0,0,1,.643,2.068A7.991,7.991,0,0,1,17.6,11.322Zm-1.914-.14.041-.657a1.828,1.828,0,0,0-.243-1.054.871.871,0,0,0-.749-.4,1.591,1.591,0,0,0-1.388.712L12.8,12.832a1.079,1.079,0,0,0,1.087.719,1.391,1.391,0,0,0,1.162-.541A3.7,3.7,0,0,0,15.688,11.182Z" transform="translate(328 7586.711)" fill="#12263f"/>
    <path id="Path_211230" data-name="Path 211230" d="M8.375,12.915q.109-.547-.759-.793l-.622-.157q-2.208-.608-2.146-2.146a2.124,2.124,0,0,1,.926-1.706,3.449,3.449,0,0,1,2.15-.646,3.094,3.094,0,0,1,2.023.663,2.184,2.184,0,0,1,.786,1.729L8.819,9.853a.843.843,0,0,0-.943-.964,1.358,1.358,0,0,0-.783.226.929.929,0,0,0-.407.608q-.1.547.827.772l.273.062a5.5,5.5,0,0,1,1.442.516,2.177,2.177,0,0,1,.769.721,1.785,1.785,0,0,1,.25,1.032,1.97,1.97,0,0,1-.455,1.23A2.782,2.782,0,0,1,8.6,14.87a4.144,4.144,0,0,1-1.589.267,3.122,3.122,0,0,1-2.051-.708,2.281,2.281,0,0,1-.834-1.794l1.818.014a1,1,0,0,0,1.135,1.073,1.614,1.614,0,0,0,.878-.219A.864.864,0,0,0,8.375,12.915Zm5.7-4.491a2.578,2.578,0,0,1,2-.957,1.875,1.875,0,0,1,1.617.79,3.1,3.1,0,0,1,.386,2.082L17.3,15H15.375l.786-4.688a2.272,2.272,0,0,0,.014-.493.775.775,0,0,0-.861-.76,1.665,1.665,0,0,0-1.367.671L13.017,15H11.089L12.907,4.5h1.935Zm8.962-.957a2.967,2.967,0,0,1,1.685.5,2.83,2.83,0,0,1,1.039,1.347A4.166,4.166,0,0,1,26,11.22a4.5,4.5,0,0,1-1.227,2.854,3.465,3.465,0,0,1-2.642,1.063,2.958,2.958,0,0,1-1.668-.5A2.819,2.819,0,0,1,19.422,13.3a4.075,4.075,0,0,1-.239-1.887,4.633,4.633,0,0,1,1.244-2.912A3.393,3.393,0,0,1,23.038,7.467ZM21.09,12.117a1.707,1.707,0,0,0,.308,1.034,1.022,1.022,0,0,0,.827.392,1.5,1.5,0,0,0,1.395-.816,4.066,4.066,0,0,0,.472-2.215,1.856,1.856,0,0,0-.318-1.048,1,1,0,0,0-.831-.406,1.5,1.5,0,0,0-1.377.809A4.024,4.024,0,0,0,21.09,12.117Zm9.693-4.651a2.967,2.967,0,0,1,1.685.5,2.83,2.83,0,0,1,1.039,1.347,4.166,4.166,0,0,1,.236,1.9,4.5,4.5,0,0,1-1.227,2.854,3.465,3.465,0,0,1-2.642,1.063,2.958,2.958,0,0,1-1.668-.5A2.819,2.819,0,0,1,27.167,13.3a4.075,4.075,0,0,1-.239-1.887,4.633,4.633,0,0,1,1.244-2.912A3.393,3.393,0,0,1,30.783,7.467Zm-1.948,4.651a1.707,1.707,0,0,0,.308,1.034,1.022,1.022,0,0,0,.827.392,1.5,1.5,0,0,0,1.395-.816,4.066,4.066,0,0,0,.472-2.215,1.856,1.856,0,0,0-.318-1.048,1,1,0,0,0-.831-.406,1.5,1.5,0,0,0-1.377.809A4.024,4.024,0,0,0,28.835,12.117ZM18.786,16h15.49v1H18.786ZM38.207,5.785,37.886,7.6h1.23l-.253,1.449h-1.23L37,12.758a.942.942,0,0,0,.055.533q.1.185.465.2.109.007.588-.034l-.137,1.511a3.242,3.242,0,0,1-1.107.157,1.737,1.737,0,0,1-1.415-.595,2.149,2.149,0,0,1-.383-1.572l.636-3.9H34.659L34.912,7.6h1.046l.314-1.818Z" transform="translate(500 7483.711)" fill="#12263f"/>
    <path id="Path_211231" data-name="Path 211231" d="M7.575,7.46a2.1,2.1,0,0,1,1.668.827L9.968,4.5H11.9L10.084,15H8.361l.109-.793a2.394,2.394,0,0,1-1.928.937,2.129,2.129,0,0,1-1.21-.362,2.281,2.281,0,0,1-.8-1.022,4.116,4.116,0,0,1-.311-1.487,5.6,5.6,0,0,1,.021-.834l.041-.308a5.921,5.921,0,0,1,.632-2A3.3,3.3,0,0,1,6.061,7.856,2.708,2.708,0,0,1,7.575,7.46Zm-1.4,3.979a5.536,5.536,0,0,0-.034.875q.068,1.2.971,1.224a1.65,1.65,0,0,0,1.415-.766l.526-2.939a1.092,1.092,0,0,0-1.066-.766,1.4,1.4,0,0,0-1.172.543A3.654,3.654,0,0,0,6.174,11.438Zm9.68-3.972a2.967,2.967,0,0,1,1.685.5,2.83,2.83,0,0,1,1.039,1.347,4.166,4.166,0,0,1,.236,1.9,4.5,4.5,0,0,1-1.227,2.854,3.465,3.465,0,0,1-2.642,1.063,2.958,2.958,0,0,1-1.668-.5A2.819,2.819,0,0,1,12.237,13.3,4.075,4.075,0,0,1,12,11.418a4.633,4.633,0,0,1,1.244-2.912A3.393,3.393,0,0,1,15.854,7.467Zm-1.948,4.651a1.707,1.707,0,0,0,.308,1.034,1.022,1.022,0,0,0,.827.392,1.5,1.5,0,0,0,1.395-.816,4.066,4.066,0,0,0,.472-2.215,1.856,1.856,0,0,0-.318-1.048,1,1,0,0,0-.831-.406,1.5,1.5,0,0,0-1.377.809A4.024,4.024,0,0,0,13.905,12.117ZM23.6,7.467a2.967,2.967,0,0,1,1.685.5,2.83,2.83,0,0,1,1.039,1.347,4.166,4.166,0,0,1,.236,1.9,4.5,4.5,0,0,1-1.227,2.854,3.465,3.465,0,0,1-2.642,1.063,2.958,2.958,0,0,1-1.668-.5A2.819,2.819,0,0,1,19.982,13.3a4.075,4.075,0,0,1-.239-1.887,4.633,4.633,0,0,1,1.244-2.912A3.393,3.393,0,0,1,23.6,7.467ZM21.65,12.117a1.707,1.707,0,0,0,.308,1.034,1.022,1.022,0,0,0,.827.392,1.5,1.5,0,0,0,1.395-.816,4.066,4.066,0,0,0,.472-2.215,1.856,1.856,0,0,0-.318-1.048A1,1,0,0,0,23.5,9.06a1.5,1.5,0,0,0-1.377.809A4.024,4.024,0,0,0,21.65,12.117ZM11.6,16h15.49v1H11.6ZM32.178,9.456a3.98,3.98,0,0,0-.649-.068,1.869,1.869,0,0,0-1.634.772L29.04,15H27.112L28.4,7.6,30.209,7.6l-.178.9a2.034,2.034,0,0,1,1.723-1.046,2.812,2.812,0,0,1,.67.1Z" transform="translate(504 7539.711)" fill="#12263f"/>
    <path id="Path_211232" data-name="Path 211232" d="M7.541,7.467a2.967,2.967,0,0,1,1.685.5,2.83,2.83,0,0,1,1.039,1.347,4.166,4.166,0,0,1,.236,1.9,4.5,4.5,0,0,1-1.227,2.854,3.465,3.465,0,0,1-2.642,1.063,2.958,2.958,0,0,1-1.668-.5A2.819,2.819,0,0,1,3.925,13.3a4.075,4.075,0,0,1-.239-1.887A4.633,4.633,0,0,1,4.93,8.506,3.393,3.393,0,0,1,7.541,7.467ZM5.593,12.117A1.707,1.707,0,0,0,5.9,13.151a1.022,1.022,0,0,0,.827.392,1.5,1.5,0,0,0,1.395-.816,4.066,4.066,0,0,0,.472-2.215,1.856,1.856,0,0,0-.318-1.048,1,1,0,0,0-.831-.406,1.5,1.5,0,0,0-1.377.809A4.024,4.024,0,0,0,5.593,12.117ZM3.289,16h7.745v1H3.289ZM14.1,7.6l-.164.875a2.661,2.661,0,0,1,2.153-1,1.774,1.774,0,0,1,1.545.766A3.085,3.085,0,0,1,18,10.3L17.221,15H15.293l.793-4.724a2.212,2.212,0,0,0,.014-.485.783.783,0,0,0-.875-.718,1.659,1.659,0,0,0-1.36.7L12.941,15H11.014L12.3,7.6Z" transform="translate(511 7586.711)" fill="#12263f"/>
    <path id="Path_210547" data-name="Path 210547" d="M13.856,8.82V19h-3v-.8a5.651,5.651,0,0,1-1.4.87,3.975,3.975,0,0,1-1.6.33,5.471,5.471,0,0,1-3.9-1.61,5.635,5.635,0,0,1-1.17-1.75,5.457,5.457,0,0,1,.01-4.27,5.536,5.536,0,0,1,1.19-1.75,5.635,5.635,0,0,1,1.75-1.17,5.31,5.31,0,0,1,2.12-.43,3.975,3.975,0,0,1,1.6.33,6,6,0,0,1,1.4.85V8.82ZM8.176,16.7a2.673,2.673,0,0,0,1.07-.22,2.92,2.92,0,0,0,.89-.59,2.768,2.768,0,0,0,0-3.94,2.92,2.92,0,0,0-.89-.59,2.673,2.673,0,0,0-1.07-.22,2.722,2.722,0,0,0-1.09.22,2.737,2.737,0,0,0-1.47,1.47,2.81,2.81,0,0,0,0,2.18,2.737,2.737,0,0,0,1.47,1.47A2.722,2.722,0,0,0,8.176,16.7ZM17.193,19V17.076h1.924V19Zm0-8.672V8.395h1.924v1.934Z" transform="translate(422.644 7562.711)" fill="#12263f"/>
    <path id="Path_211233" data-name="Path 211233" d="M5.375,11.295A5.118,5.118,0,0,1,6.493,8.509a2.836,2.836,0,0,1,2.3-1.049,2.074,2.074,0,0,1,1.764.854L10.81,7.6l1.771.007-1.21,7.144a3.485,3.485,0,0,1-1.258,2.338,3.912,3.912,0,0,1-2.625.834,3.647,3.647,0,0,1-1.463-.332,3.128,3.128,0,0,1-1.148-.872l.957-1.176a2.055,2.055,0,0,0,1.613.841,1.9,1.9,0,0,0,1.285-.393A2.1,2.1,0,0,0,9.457,14.8l.109-.444a2.4,2.4,0,0,1-1.812.779,2.125,2.125,0,0,1-1.716-.8,3.454,3.454,0,0,1-.7-2.054A6.9,6.9,0,0,1,5.375,11.295Zm1.894.811a1.768,1.768,0,0,0,.27,1.03.945.945,0,0,0,.783.407,1.726,1.726,0,0,0,1.395-.671l.574-3.136A1.134,1.134,0,0,0,9.2,9.066a1.512,1.512,0,0,0-1.251.6A3.116,3.116,0,0,0,7.31,11.3,7.187,7.187,0,0,0,7.269,12.106Zm9.789-4.639a2.967,2.967,0,0,1,1.685.5,2.83,2.83,0,0,1,1.039,1.347,4.166,4.166,0,0,1,.236,1.9,4.5,4.5,0,0,1-1.227,2.854,3.465,3.465,0,0,1-2.642,1.063,2.958,2.958,0,0,1-1.668-.5A2.819,2.819,0,0,1,13.442,13.3a4.075,4.075,0,0,1-.239-1.887,4.633,4.633,0,0,1,1.244-2.912A3.393,3.393,0,0,1,17.058,7.467ZM15.11,12.117a1.707,1.707,0,0,0,.308,1.034,1.022,1.022,0,0,0,.827.392,1.5,1.5,0,0,0,1.395-.816,4.066,4.066,0,0,0,.472-2.215,1.856,1.856,0,0,0-.318-1.048,1,1,0,0,0-.831-.406,1.5,1.5,0,0,0-1.377.809A4.024,4.024,0,0,0,15.11,12.117ZM24.8,7.467a2.967,2.967,0,0,1,1.685.5,2.83,2.83,0,0,1,1.039,1.347,4.166,4.166,0,0,1,.236,1.9,4.5,4.5,0,0,1-1.227,2.854,3.465,3.465,0,0,1-2.642,1.063,2.958,2.958,0,0,1-1.668-.5A2.819,2.819,0,0,1,21.187,13.3a4.075,4.075,0,0,1-.239-1.887,4.633,4.633,0,0,1,1.244-2.912A3.393,3.393,0,0,1,24.8,7.467Zm-1.948,4.651a1.707,1.707,0,0,0,.308,1.034,1.022,1.022,0,0,0,.827.392,1.5,1.5,0,0,0,1.395-.816,4.066,4.066,0,0,0,.472-2.215,1.856,1.856,0,0,0-.318-1.048,1,1,0,0,0-.831-.406,1.5,1.5,0,0,0-1.377.809A4.024,4.024,0,0,0,22.855,12.117ZM12.806,16H28.3v1H12.806ZM31.988,7.46a2.1,2.1,0,0,1,1.668.827L34.38,4.5h1.935L34.5,15H32.774l.109-.793a2.394,2.394,0,0,1-1.928.937,2.129,2.129,0,0,1-1.21-.362,2.281,2.281,0,0,1-.8-1.022,4.116,4.116,0,0,1-.311-1.487,5.6,5.6,0,0,1,.021-.834l.041-.308a5.921,5.921,0,0,1,.632-2,3.3,3.3,0,0,1,1.148-1.278A2.708,2.708,0,0,1,31.988,7.46Zm-1.4,3.979a5.536,5.536,0,0,0-.034.875q.068,1.2.971,1.224a1.65,1.65,0,0,0,1.415-.766l.526-2.939A1.092,1.092,0,0,0,32.4,9.066a1.4,1.4,0,0,0-1.172.543A3.654,3.654,0,0,0,30.586,11.438Z" transform="translate(413 7483.711)" fill="#12263f"/>
    <path id="Path_211234" data-name="Path 211234" d="M11.068,11.322A5.3,5.3,0,0,1,10,14.125a2.654,2.654,0,0,1-2.229,1.019A2.062,2.062,0,0,1,6,14.2l-.28.8H3.958L5.777,4.5H7.711L6.966,8.28a2.3,2.3,0,0,1,1.8-.813,2.087,2.087,0,0,1,1.685.769,3.4,3.4,0,0,1,.653,2.088A7.991,7.991,0,0,1,11.068,11.322Zm-1.914-.144a5.735,5.735,0,0,0,.041-.905Q9.12,9.08,8.21,9.06A1.6,1.6,0,0,0,6.8,9.834l-.533,2.948a1.1,1.1,0,0,0,1.107.768q1.422.041,1.743-2.071ZM13.707,15H11.765L13.05,7.6h1.941Zm-.431-9.276a.963.963,0,0,1,.3-.759,1.157,1.157,0,0,1,1.518-.034.959.959,0,0,1,.335.725.99.99,0,0,1-.284.738,1.063,1.063,0,0,1-.776.328,1.081,1.081,0,0,1-.755-.26A.954.954,0,0,1,13.276,5.724Zm7.13,3.732a3.98,3.98,0,0,0-.649-.068,1.869,1.869,0,0,0-1.634.772L17.268,15H15.34l1.285-7.4L18.437,7.6l-.178.9a2.034,2.034,0,0,1,1.723-1.046,2.812,2.812,0,0,1,.67.1ZM11.649,16h8.7v1h-8.7ZM24.036,7.46a2.1,2.1,0,0,1,1.668.827L26.428,4.5h1.935L26.544,15H24.822l.109-.793A2.394,2.394,0,0,1,23,15.144a2.129,2.129,0,0,1-1.21-.362,2.281,2.281,0,0,1-.8-1.022,4.116,4.116,0,0,1-.311-1.487,5.6,5.6,0,0,1,.021-.834l.041-.308a5.921,5.921,0,0,1,.632-2,3.3,3.3,0,0,1,1.148-1.278A2.708,2.708,0,0,1,24.036,7.46Zm-1.4,3.979a5.536,5.536,0,0,0-.034.875q.068,1.2.971,1.224a1.65,1.65,0,0,0,1.415-.766l.526-2.939a1.092,1.092,0,0,0-1.066-.766,1.4,1.4,0,0,0-1.172.543A3.654,3.654,0,0,0,22.634,11.438Z" transform="translate(418 7539.711)" fill="#12263f"/>
    <path id="Path_211235" data-name="Path 211235" d="M3.386,15,4.418,9.046H3.352L3.6,7.6,4.671,7.6l.1-.738A2.915,2.915,0,0,1,5.73,5a2.917,2.917,0,0,1,2-.66,6.414,6.414,0,0,1,1.046.143L8.608,6.018a2.39,2.39,0,0,0-.567-.082,1.413,1.413,0,0,0-.878.261,1.186,1.186,0,0,0-.455.8l-.1.6H8.034L7.781,9.046H6.359L5.327,15Zm8.7,0a2,2,0,0,1-.075-.67,2.505,2.505,0,0,1-1.887.807,2.27,2.27,0,0,1-1.61-.632,1.913,1.913,0,0,1-.6-1.528,2.211,2.211,0,0,1,1.015-1.856,4.608,4.608,0,0,1,2.594-.646l.9.014.1-.444a1.543,1.543,0,0,0,.021-.431.74.74,0,0,0-.243-.5.836.836,0,0,0-.55-.188,1.177,1.177,0,0,0-.766.222,1.077,1.077,0,0,0-.4.68l-1.935.007a2.15,2.15,0,0,1,.974-1.719A3.773,3.773,0,0,1,11.9,7.467a2.727,2.727,0,0,1,1.969.749,2.19,2.19,0,0,1,.595,1.856L13.9,13.612l-.034.438a2.111,2.111,0,0,0,.116.82l-.007.13ZM10.6,13.64a1.765,1.765,0,0,0,1.456-.725l.239-1.278-.67-.007a1.872,1.872,0,0,0-1.538.649,1.131,1.131,0,0,0-.212.554.656.656,0,0,0,.154.584A.779.779,0,0,0,10.6,13.64ZM7.781,16H15.13v1H7.781ZM20.216,9.456a3.98,3.98,0,0,0-.649-.068,1.869,1.869,0,0,0-1.634.772L17.078,15H15.15l1.285-7.4L18.247,7.6l-.178.9a2.034,2.034,0,0,1,1.723-1.046,2.812,2.812,0,0,1,.67.1Z" transform="translate(422 7586.711)" fill="#12263f"/>
    <path id="Path_210539" data-name="Path 210539" d="M6149.825-4239.3c1.819-1.617,3.322-.193,2.3,1.429s-3.726,8.582,2.892,8.323" transform="translate(-5720.825 11703.725)" fill="none" stroke="#12263f" stroke-linecap="round" stroke-width="2"/>
    <path id="Path_210540" data-name="Path 210540" d="M6155.016-4239.3c-1.819-1.617-3.322-.193-2.3,1.429s3.726,8.582-2.892,8.323" transform="translate(-5716.199 11703.725)" fill="none" stroke="#12263f" stroke-linecap="round" stroke-width="2"/>
    <path id="Path_211222" data-name="Path 211222" d="M4.063,0H1.23V-10.566H4.063Zm-3-13.3a1.39,1.39,0,0,1,.425-1.045,1.6,1.6,0,0,1,1.157-.41,1.6,1.6,0,0,1,1.152.41,1.382,1.382,0,0,1,.43,1.045,1.386,1.386,0,0,1-.435,1.055,1.6,1.6,0,0,1-1.147.41,1.6,1.6,0,0,1-1.147-.41A1.386,1.386,0,0,1,1.064-13.3ZM6.523-1.387A1.421,1.421,0,0,1,6.978-2.48,1.611,1.611,0,0,1,8.115-2.9a1.624,1.624,0,0,1,1.147.42,1.421,1.421,0,0,1,.454,1.094A1.4,1.4,0,0,1,9.268-.308,1.631,1.631,0,0,1,8.115.107,1.618,1.618,0,0,1,6.973-.308,1.4,1.4,0,0,1,6.523-1.387Zm0-8a1.421,1.421,0,0,1,.454-1.094,1.611,1.611,0,0,1,1.138-.42,1.624,1.624,0,0,1,1.147.42,1.421,1.421,0,0,1,.454,1.094,1.4,1.4,0,0,1-.449,1.079,1.631,1.631,0,0,1-1.152.415,1.618,1.618,0,0,1-1.143-.415A1.4,1.4,0,0,1,6.523-9.385Z" transform="translate(235 7476)" fill="#293a50"/>
    <path id="Path_211221" data-name="Path 211221" d="M7.412-1.074A3.539,3.539,0,0,1,4.521.2,3.338,3.338,0,0,1,1.929-.781a4.169,4.169,0,0,1-.913-2.861v-6.924H3.838v6.834q0,1.652,1.5,1.652a2.038,2.038,0,0,0,1.973-1v-7.489h2.832V0H7.49Zm5-.312a1.421,1.421,0,0,1,.454-1.094A1.611,1.611,0,0,1,14-2.9a1.624,1.624,0,0,1,1.147.42,1.421,1.421,0,0,1,.454,1.094,1.4,1.4,0,0,1-.449,1.079A1.631,1.631,0,0,1,14,.107a1.618,1.618,0,0,1-1.143-.415A1.4,1.4,0,0,1,12.412-1.387Zm0-8a1.421,1.421,0,0,1,.454-1.094A1.611,1.611,0,0,1,14-10.9a1.624,1.624,0,0,1,1.147.42,1.421,1.421,0,0,1,.454,1.094,1.4,1.4,0,0,1-.449,1.079A1.631,1.631,0,0,1,14-7.891a1.618,1.618,0,0,1-1.143-.415A1.4,1.4,0,0,1,12.412-9.385Z" transform="translate(517 7476)" fill="#293a50"/>
    <path id="Path_211220" data-name="Path 211220" d="M9.17-2.725A2.517,2.517,0,0,1,7.646-.4,6.105,6.105,0,0,1,4.775.234q-3.711,0-4.541-2.9l2.51-.508a2.077,2.077,0,0,0,2,1.523A1.958,1.958,0,0,0,5.9-1.992a1.14,1.14,0,0,0,.547-.967q0-1.3-1.748-1.3H4.229V-6.045a2.033,2.033,0,0,0,1.65-.547A1.255,1.255,0,0,0,6.162-7.4a1.216,1.216,0,0,0-.405-.962,1.489,1.489,0,0,0-1.021-.356,1.7,1.7,0,0,0-1.123.342,2.5,2.5,0,0,0-.635,1.006l-2.324-.5a3.312,3.312,0,0,1,1.553-2.09,4.953,4.953,0,0,1,2.578-.645,4.838,4.838,0,0,1,2.676.693,2.588,2.588,0,0,1,1.26,2.324q0,1.445-1.846,2.334Q9.17-4.629,9.17-2.725Zm1.992,1.338a1.421,1.421,0,0,1,.454-1.094,1.611,1.611,0,0,1,1.138-.42,1.624,1.624,0,0,1,1.147.42,1.421,1.421,0,0,1,.454,1.094,1.4,1.4,0,0,1-.449,1.079,1.631,1.631,0,0,1-1.152.415,1.618,1.618,0,0,1-1.143-.415A1.4,1.4,0,0,1,11.162-1.387Zm0-8a1.421,1.421,0,0,1,.454-1.094,1.611,1.611,0,0,1,1.138-.42,1.624,1.624,0,0,1,1.147.42,1.421,1.421,0,0,1,.454,1.094,1.4,1.4,0,0,1-.449,1.079,1.631,1.631,0,0,1-1.152.415,1.618,1.618,0,0,1-1.143-.415A1.4,1.4,0,0,1,11.162-9.385Z" transform="translate(426 7533)" fill="#293a50"/>
    <path id="Path_211219" data-name="Path 211219" d="M10.293-5.176A5.693,5.693,0,0,1,9.033-1.3,4.659,4.659,0,0,1,5.313.234a4.424,4.424,0,0,1-4.8-3.75l2.7-.459Q3.574-2,5.186-2,7.471-2,7.471-5.371q0-3.076-2.246-3.076A1.731,1.731,0,0,0,3.35-6.816L.645-7.3a4.324,4.324,0,0,1,4.619-3.3,4.721,4.721,0,0,1,3.76,1.523A5.687,5.687,0,0,1,10.293-5.176Zm2.051,3.789A1.421,1.421,0,0,1,12.8-2.48a1.611,1.611,0,0,1,1.138-.42,1.624,1.624,0,0,1,1.147.42,1.421,1.421,0,0,1,.454,1.094,1.4,1.4,0,0,1-.449,1.079,1.631,1.631,0,0,1-1.152.415,1.618,1.618,0,0,1-1.143-.415A1.4,1.4,0,0,1,12.344-1.387Zm0-8a1.421,1.421,0,0,1,.454-1.094,1.611,1.611,0,0,1,1.138-.42,1.624,1.624,0,0,1,1.147.42,1.421,1.421,0,0,1,.454,1.094,1.4,1.4,0,0,1-.449,1.079,1.631,1.631,0,0,1-1.152.415,1.618,1.618,0,0,1-1.143-.415A1.4,1.4,0,0,1,12.344-9.385Z" transform="translate(518 7533)" fill="#293a50"/>
    <path id="Path_211218" data-name="Path 211218" d="M12.168.2A4.938,4.938,0,0,1,8.4-1.24,4.22,4.22,0,0,1,6.772-.186,6.2,6.2,0,0,1,4.551.2,4.341,4.341,0,0,1,1.689-.674,3,3,0,0,1,.645-3.115,2.72,2.72,0,0,1,1.855-5.488a6.342,6.342,0,0,1,3.584-.85H7.08V-6.9a1.64,1.64,0,0,0-.4-1.167,1.5,1.5,0,0,0-1.147-.422,2.056,2.056,0,0,0-1.265.35,1.045,1.045,0,0,0-.464.861L.986-7.461A2.818,2.818,0,0,1,2.261-9.839a5.5,5.5,0,0,1,3.306-.923A4.458,4.458,0,0,1,8.76-9.687a4.541,4.541,0,0,1,3.184-1.074A4.2,4.2,0,0,1,15.2-9.478a5.044,5.044,0,0,1,1.182,3.55v1.533H9.854a2.5,2.5,0,0,0,.786,1.721,2.67,2.67,0,0,0,1.821.593,5.932,5.932,0,0,0,1.392-.154,6.968,6.968,0,0,0,1.489-.588l.752,1.846a5.4,5.4,0,0,1-1.763.859A7.541,7.541,0,0,1,12.168.2Zm-7.08-2.07a2.909,2.909,0,0,0,1.045-.22,3.056,3.056,0,0,0,.947-.562V-4.5h-1.6a2.424,2.424,0,0,0-1.47.42,1.224,1.224,0,0,0-.542,1.006,1.077,1.077,0,0,0,.4.874A1.9,1.9,0,0,0,5.088-1.875Zm6.855-6.611a1.849,1.849,0,0,0-1.411.564,2.8,2.8,0,0,0-.659,1.633H13.6v-.275a2.136,2.136,0,0,0-.425-1.422A1.53,1.53,0,0,0,11.943-8.486Zm6.162,7.1A1.421,1.421,0,0,1,18.56-2.48,1.611,1.611,0,0,1,19.7-2.9a1.624,1.624,0,0,1,1.147.42A1.421,1.421,0,0,1,21.3-1.387,1.4,1.4,0,0,1,20.85-.308,1.631,1.631,0,0,1,19.7.107a1.618,1.618,0,0,1-1.143-.415A1.4,1.4,0,0,1,18.105-1.387Zm0-8a1.421,1.421,0,0,1,.454-1.094A1.611,1.611,0,0,1,19.7-10.9a1.624,1.624,0,0,1,1.147.42A1.421,1.421,0,0,1,21.3-9.385a1.4,1.4,0,0,1-.449,1.079,1.631,1.631,0,0,1-1.152.415,1.618,1.618,0,0,1-1.143-.415A1.4,1.4,0,0,1,18.105-9.385Z" transform="translate(231 7580)" fill="#293a50"/>
    <path id="Path_211217" data-name="Path 211217" d="M11.4-5.225A6.42,6.42,0,0,1,10.352-1.5,3.777,3.777,0,0,1,7.061.234,3.833,3.833,0,0,1,3.818-1.523V0H1.27V-10.371H4.014V-9.16a3.883,3.883,0,0,1,3.008-1.445,3.855,3.855,0,0,1,3.359,1.65A6.318,6.318,0,0,1,11.4-5.225Zm-2.8-.186a3.994,3.994,0,0,0-.5-2.1,1.971,1.971,0,0,0-1.8-1Q4-8.506,4-5.146a4.311,4.311,0,0,0,.488,2.139A1.937,1.937,0,0,0,6.279-1.934,2.074,2.074,0,0,0,8.135-3.008,4.749,4.749,0,0,0,8.594-5.41Zm4.844,4.023a1.421,1.421,0,0,1,.454-1.094,1.611,1.611,0,0,1,1.138-.42,1.624,1.624,0,0,1,1.147.42,1.421,1.421,0,0,1,.454,1.094,1.4,1.4,0,0,1-.449,1.079,1.631,1.631,0,0,1-1.152.415,1.618,1.618,0,0,1-1.143-.415A1.4,1.4,0,0,1,13.438-1.387Zm0-8a1.421,1.421,0,0,1,.454-1.094,1.611,1.611,0,0,1,1.138-.42,1.624,1.624,0,0,1,1.147.42,1.421,1.421,0,0,1,.454,1.094,1.4,1.4,0,0,1-.449,1.079,1.631,1.631,0,0,1-1.152.415,1.618,1.618,0,0,1-1.143-.415A1.4,1.4,0,0,1,13.438-9.385Z" transform="translate(513 7582)" fill="#293a50"/>
  </g>
</svg>
