<?xml version="1.0" encoding="UTF-8" standalone="no"?><!DOCTYPE svg PUBLIC "-//W3C//DTD SVG 1.1//EN" "http://www.w3.org/Graphics/SVG/1.1/DTD/svg11.dtd"><svg width="100%" height="100%" viewBox="0 0 1667 850" version="1.1" xmlns="http://www.w3.org/2000/svg" xmlns:xlink="http://www.w3.org/1999/xlink" xml:space="preserve" xmlns:serif="http://www.serif.com/" style="fill-rule:evenodd;clip-rule:evenodd;stroke-linecap:round;"><g id="_13"><path id="Path_211223" d="M58.333,0l1550,0c32.001,-0 58.334,26.333 58.334,58.333l-0,733.334c-0,32 -26.333,58.333 -58.334,58.333l-1550,0c-32,0 -58.333,-26.333 -58.333,-58.333l-0,-733.334c-0,-32 26.333,-58.333 58.333,-58.333Z" style="fill:#c4d1ff;fill-rule:nonzero;"/><path id="Path_211224" d="M171.592,277.608c0.302,-1.519 -0.752,-2.62 -3.163,-3.304l-2.596,-0.654c-6.133,-1.689 -9.114,-4.669 -8.941,-8.942c0.064,-2.85 1.503,-5.501 3.858,-7.108c2.602,-1.871 5.756,-2.819 8.958,-2.692c3.048,-0.105 6.036,0.874 8.429,2.763c2.132,1.775 3.34,4.431 3.276,7.204l-7.971,-0.025c0.027,-0.177 0.041,-0.355 0.041,-0.534c-0,-1.927 -1.586,-3.513 -3.513,-3.513c-0.153,0 -0.306,0.01 -0.458,0.03c-1.158,-0.027 -2.297,0.302 -3.262,0.942c-0.888,0.577 -1.501,1.493 -1.696,2.533c-0.278,1.52 0.871,2.592 3.446,3.217l1.137,0.258c2.094,0.433 4.116,1.157 6.009,2.15c1.298,0.724 2.398,1.756 3.204,3.005c0.775,1.294 1.139,2.794 1.042,4.3c-0.028,1.874 -0.698,3.683 -1.896,5.125c-1.325,1.544 -3.034,2.712 -4.954,3.387c-2.113,0.8 -4.363,1.178 -6.621,1.113c-3.109,0.069 -6.142,-0.978 -8.546,-2.95c-2.233,-1.833 -3.514,-4.587 -3.475,-7.475l7.575,0.058c-0.01,0.116 -0.015,0.232 -0.015,0.349c0,2.286 1.881,4.167 4.167,4.167c0.195,-0 0.389,-0.014 0.581,-0.041c1.282,0.051 2.551,-0.266 3.659,-0.913c0.903,-0.527 1.533,-1.422 1.725,-2.45Zm23.75,-18.712c2.034,-2.515 5.098,-3.982 8.333,-3.988c2.657,-0.122 5.201,1.12 6.737,3.292c1.538,2.613 2.107,5.685 1.609,8.675l-3.229,19.421l-8.034,-0l3.275,-19.533c0.094,-0.681 0.114,-1.37 0.059,-2.055c-0.023,-1.755 -1.474,-3.186 -3.229,-3.186c-0.12,-0 -0.24,0.006 -0.359,0.02c-2.236,-0.042 -4.361,1.001 -5.696,2.796l-3.875,21.958l-8.016,-0l7.558,-43.75l8.063,-0l-3.196,16.35Zm34.35,27.971c-2.526,0.028 -5.01,-0.658 -7.163,-1.979c-2.057,-1.275 -3.681,-3.141 -4.658,-5.355c-1.039,-2.355 -1.451,-4.939 -1.196,-7.5l0.088,-1.137c0.257,-2.912 1.152,-5.731 2.62,-8.258c1.347,-2.388 3.292,-4.385 5.642,-5.796c2.307,-1.36 4.958,-2.027 7.633,-1.921c3.539,-0.132 6.92,1.507 9.009,4.367c2.117,3.171 2.948,7.034 2.321,10.795l-0.455,3.509l-18.879,-0c-0.16,1.722 0.363,3.441 1.454,4.783c1.083,1.212 2.646,1.889 4.271,1.85c2.944,0.068 5.769,-1.186 7.692,-3.417l3.675,4.559c-1.239,1.814 -2.975,3.234 -5,4.087c-2.217,0.987 -4.625,1.469 -7.05,1.413l-0.004,-0Zm2.562,-25.321c-1.444,-0.051 -2.855,0.448 -3.946,1.396c-1.426,1.403 -2.488,3.134 -3.091,5.041l11.05,0l0.171,-0.741c0.113,-0.717 0.123,-1.447 0.029,-2.167c-0.135,-1.001 -0.631,-1.919 -1.396,-2.579c-0.797,-0.634 -1.791,-0.97 -2.809,-0.95l-0.008,-0Zm28.313,25.321c-2.526,0.028 -5.01,-0.658 -7.163,-1.979c-2.056,-1.276 -3.679,-3.145 -4.654,-5.359c-1.039,-2.355 -1.451,-4.939 -1.196,-7.5l0.088,-1.137c0.257,-2.912 1.152,-5.732 2.621,-8.259c1.346,-2.387 3.291,-4.385 5.641,-5.795c2.307,-1.36 4.958,-2.027 7.634,-1.921c3.543,-0.132 6.929,1.512 9.016,4.379c2.118,3.171 2.948,7.034 2.321,10.796l-0.454,3.508l-18.888,0c-0.16,1.723 0.363,3.441 1.454,4.783c1.083,1.213 2.646,1.89 4.271,1.85c2.944,0.069 5.769,-1.186 7.692,-3.416l3.675,4.558c-1.239,1.815 -2.975,3.234 -5,4.088c-2.217,0.983 -4.625,1.463 -7.05,1.404l-0.008,-0Zm2.562,-25.321c-1.444,-0.051 -2.855,0.448 -3.946,1.396c-1.426,1.403 -2.488,3.134 -3.091,5.041l11.05,0l0.17,-0.741c0.114,-0.717 0.124,-1.447 0.03,-2.167c-0.135,-1.001 -0.631,-1.919 -1.396,-2.579c-0.797,-0.634 -1.791,-0.97 -2.809,-0.95l-0.008,-0Zm-48.158,28.917l61.75,-0l-0,4.166l-61.75,0l-0,-4.166Zm91.429,-19.492c-0.329,2.994 -1.187,5.906 -2.533,8.6c-1.075,2.259 -2.737,4.187 -4.813,5.583c-1.901,1.211 -4.126,1.817 -6.379,1.738c-2.747,0.043 -5.365,-1.189 -7.083,-3.334l-2.821,14.584l-8.013,-0l7.375,-42.679l7.409,-0l-0.542,3.104c1.915,-2.365 4.821,-3.712 7.863,-3.646c2.727,-0.06 5.332,1.159 7.033,3.292c1.799,2.507 2.739,5.531 2.679,8.616c0.029,1.383 -0.028,2.766 -0.171,4.142l-0.004,-0Zm-7.975,-0.583l0.171,-2.738c0.113,-1.532 -0.24,-3.064 -1.013,-4.392c-0.68,-1.058 -1.863,-1.69 -3.12,-1.666c-2.311,-0.089 -4.508,1.038 -5.784,2.966l-2.308,12.725c0.666,1.895 2.525,3.125 4.529,2.996c1.883,0.081 3.692,-0.761 4.842,-2.254c1.56,-2.261 2.488,-4.898 2.687,-7.637l-0.004,-0Z" style="fill:#12263f;fill-rule:nonzero;"/><path id="Path_210541" d="M234.463,408.025c-6.048,0.338 -11.951,-1.981 -16.15,-6.346c-3.965,-4.494 -6.042,-10.35 -5.796,-16.337l-0,-1.709c-0.261,-6.164 1.74,-12.215 5.625,-17.008c3.874,-4.466 9.604,-6.897 15.508,-6.579c5.372,-0.338 10.622,1.758 14.283,5.704c3.506,4.325 5.288,9.799 5,15.358l0,6.438l-27.575,-0l-0.129,0.258c0.067,2.815 1.084,5.526 2.883,7.692c1.989,2.075 4.804,3.158 7.671,2.95c2.399,0.049 4.794,-0.238 7.113,-0.854c2.107,-0.636 4.136,-1.51 6.046,-2.604l3.375,7.691c-2.247,1.715 -4.789,3.005 -7.5,3.804c-3.349,1.056 -6.843,1.577 -10.354,1.542Zm-0.813,-38.367c-2.231,-0.123 -4.389,0.84 -5.787,2.584c-1.458,2.004 -2.312,4.384 -2.459,6.858l0.088,0.213l15.208,-0l0,-0.934c0.125,-2.25 -0.458,-4.485 -1.667,-6.387c-1.284,-1.636 -3.312,-2.515 -5.383,-2.334Z" style="fill:#12263f;fill-rule:nonzero;"/><path id="Path_211225" d="M215.458,504.304c-0.327,4.235 -1.87,8.286 -4.441,11.667c-2.216,2.843 -5.688,4.43 -9.288,4.246c-2.978,0.066 -5.785,-1.421 -7.404,-3.921l-1.167,3.333l-7.325,0l7.58,-43.75l8.062,0l-3.104,15.75c1.862,-2.198 4.619,-3.444 7.5,-3.387c2.71,-0.086 5.31,1.1 7.021,3.204c1.84,2.52 2.797,5.58 2.721,8.7c0.035,1.388 -0.017,2.777 -0.155,4.158Zm-7.958,-0.6c0.156,-1.25 0.213,-2.511 0.171,-3.771c-0.22,-3.314 -1.592,-4.998 -4.117,-5.054c-2.401,-0.065 -4.658,1.171 -5.896,3.229l-2.241,12.284c0.626,1.987 2.532,3.309 4.612,3.2c3.95,0.114 6.371,-2.763 7.263,-8.629l0.208,-1.259Zm25.121,16.492c-2.526,0.028 -5.01,-0.658 -7.163,-1.979c-2.056,-1.274 -3.681,-3.141 -4.658,-5.354c-1.039,-2.355 -1.451,-4.939 -1.196,-7.5l0.088,-1.138c0.257,-2.912 1.152,-5.731 2.62,-8.258c1.336,-2.386 3.267,-4.386 5.605,-5.804c2.307,-1.36 4.957,-2.027 7.633,-1.921c3.55,-0.138 6.943,1.507 9.033,4.379c2.118,3.171 2.948,7.034 2.321,10.796l-0.454,3.508l-18.883,0c-0.16,1.723 0.362,3.441 1.454,4.783c1.083,1.213 2.646,1.89 4.271,1.85c2.944,0.069 5.768,-1.186 7.691,-3.416l3.675,4.558c-1.239,1.815 -2.975,3.234 -5,4.088c-2.216,0.986 -4.624,1.469 -7.05,1.412l0.013,-0.004Zm2.562,-25.321c-1.444,-0.051 -2.855,0.448 -3.945,1.396c-1.427,1.403 -2.488,3.134 -3.092,5.042l11.021,-0l0.171,-0.742c0.113,-0.717 0.123,-1.447 0.029,-2.167c-0.135,-1.001 -0.631,-1.919 -1.396,-2.579c-0.795,-0.63 -1.786,-0.965 -2.8,-0.946l0.012,-0.004Zm-17.3,28.921l30.867,-0l0,4.167l-30.875,-0l0.008,-4.167Zm46.25,-35.583c2.725,0.002 5.298,1.278 6.95,3.445l3.025,-15.779l8.059,0l-7.584,43.75l-7.17,0l0.454,-3.304c-1.912,2.493 -4.893,3.941 -8.034,3.904c-1.794,0.019 -3.552,-0.507 -5.041,-1.508c-1.5,-1.067 -2.658,-2.546 -3.334,-4.258c-0.812,-1.967 -1.252,-4.069 -1.295,-6.196c-0.058,-1.159 -0.029,-2.321 0.087,-3.475l0.171,-1.284c0.375,-2.912 1.266,-5.734 2.633,-8.333c1.096,-2.166 2.747,-4.004 4.784,-5.325c1.893,-1.153 4.084,-1.722 6.3,-1.637l-0.005,-0Zm-5.833,16.579c-0.143,1.209 -0.191,2.428 -0.142,3.646c0.189,3.333 1.538,5.033 4.046,5.1c2.384,0.031 4.619,-1.179 5.896,-3.192l2.192,-12.246c-0.603,-1.936 -2.431,-3.247 -4.459,-3.196c-1.897,-0.086 -3.722,0.759 -4.883,2.263c-1.552,2.255 -2.468,4.888 -2.65,7.621l0,0.004Z" style="fill:#12263f;fill-rule:nonzero;"/><path id="Path_211226" d="M207.017,709.425c1.343,0.084 2.67,-0.351 3.704,-1.212c1.006,-0.876 1.688,-2.065 1.937,-3.375l7.55,-0.03c-0.111,2.099 -0.818,4.122 -2.037,5.834c-1.253,1.752 -2.943,3.147 -4.9,4.046c-2.011,0.961 -4.222,1.43 -6.45,1.366c-3.39,0.097 -6.652,-1.325 -8.888,-3.875c-2.288,-2.84 -3.418,-6.445 -3.162,-10.083l0.087,-1.567l0.03,-0.312c0.263,-4.435 2.052,-8.645 5.062,-11.913c2.755,-2.888 6.639,-4.434 10.625,-4.229c3.112,-0.075 6.117,1.161 8.275,3.404c2.109,2.38 3.19,5.501 3.004,8.675l-7.5,0c0.078,-1.385 -0.303,-2.757 -1.083,-3.904c-0.789,-0.982 -1.986,-1.549 -3.246,-1.537c-3.836,-0.114 -6.162,2.687 -6.979,8.404c-0.266,1.733 -0.371,3.488 -0.313,5.241c0.198,3.32 1.625,5.009 4.284,5.067Zm34.121,6.038c-0.262,-0.907 -0.368,-1.851 -0.313,-2.792c-2.019,2.191 -4.883,3.416 -7.862,3.362c-2.5,0.038 -4.915,-0.917 -6.713,-2.654c-1.747,-1.637 -2.666,-3.978 -2.5,-6.366c0.005,-3.126 1.6,-6.043 4.229,-7.734c3.257,-1.945 7.019,-2.882 10.808,-2.691l3.75,0.058l0.417,-1.85c0.113,-0.592 0.143,-1.196 0.088,-1.796c-0.054,-0.799 -0.418,-1.547 -1.013,-2.083c-0.645,-0.527 -1.459,-0.805 -2.292,-0.784c-1.138,-0.072 -2.268,0.255 -3.191,0.925c-0.894,0.7 -1.49,1.713 -1.667,2.834l-8.062,0.029c0.11,-2.902 1.625,-5.576 4.058,-7.163c2.808,-1.899 6.156,-2.841 9.542,-2.683c3.041,-0.101 5.998,1.024 8.204,3.121c1.99,2.046 2.908,4.912 2.479,7.733l-2.363,14.754l-0.141,1.825c-0.066,1.16 0.098,2.321 0.483,3.417l-0.029,0.542l-7.913,-0.004Zm-6.179,-5.667c2.392,0.04 4.658,-1.088 6.067,-3.021l0.996,-5.325l-2.792,-0.029c-2.44,-0.154 -4.816,0.849 -6.408,2.704c-0.495,0.677 -0.8,1.474 -0.884,2.308c-0.194,0.867 0.046,1.776 0.642,2.434c0.633,0.621 1.493,0.957 2.379,0.929Zm-11.737,9.833l30.621,0l-0,4.167l-30.621,-0l-0,-4.167Zm47,-42.562l-1.342,7.562l5.125,0l-1.054,6.038l-5.125,-0l-2.621,15.437c-0.14,0.747 -0.06,1.519 0.229,2.221c0.278,0.514 0.924,0.792 1.938,0.833c0.303,0.02 1.119,-0.027 2.45,-0.141l-0.571,6.296c-1.488,0.483 -3.049,0.704 -4.613,0.654c-2.242,0.133 -4.423,-0.784 -5.895,-2.479c-1.365,-1.892 -1.938,-4.243 -1.596,-6.55l2.65,-16.25l-4.379,-0l1.075,-6.059l4.341,0l1.309,-7.575l8.079,0.013Z" style="fill:#12263f;fill-rule:nonzero;"/><path id="Path_210549" d="M638.171,594.363l-0.775,-4.071l-0.246,-0l-0.833,4.071l-7.242,27.629l-12.413,-0l14.98,-44.029l11.35,-0l14.975,44.025l-12.409,-0l-7.387,-27.625Z" style="fill:#12263f;fill-rule:nonzero;"/><path id="Path_210542" d="M635.125,360.046c6.045,-0.336 11.944,1.983 16.142,6.346c3.978,4.489 6.07,10.348 5.833,16.341l0,1.709c0.256,6.164 -1.752,12.215 -5.642,17.004c-3.874,4.466 -9.604,6.897 -15.508,6.579c-5.375,0.34 -10.628,-1.756 -14.292,-5.704c-3.496,-4.329 -5.269,-9.802 -4.975,-15.358l0,-6.45l27.542,-0l0.129,-0.259c-0.067,-2.815 -1.083,-5.526 -2.883,-7.691c-1.992,-2.07 -4.807,-3.146 -7.671,-2.934c-2.4,-0.056 -4.795,0.224 -7.117,0.834c-2.107,0.635 -4.136,1.509 -6.045,2.604l-3.371,-7.679c2.246,-1.716 4.788,-3.005 7.5,-3.805c3.35,-1.055 6.846,-1.574 10.358,-1.537Zm0.813,38.367c2.231,0.123 4.389,-0.841 5.787,-2.584c1.458,-2.004 2.311,-4.384 2.458,-6.858l-0.087,-0.213l-15.208,0l-0,0.942c-0.125,2.251 0.457,4.485 1.666,6.388c1.286,1.632 3.314,2.507 5.384,2.325Z" style="fill:#12263f;fill-rule:nonzero;"/><path id="Path_210538" d="M643.483,143.179l0,41.417l6.005,-0l-0,6.887l-20.321,0l-0,-6.883l5.971,0l-0,-41.421l-5.971,0l-0,-6.883l20.325,-0l-0,6.883l-6.009,0Z" style="fill:#12263f;fill-rule:nonzero;"/><path id="Path_211227" d="M601.071,277.608c0.303,-1.519 -0.752,-2.62 -3.163,-3.304l-2.591,-0.654c-6.134,-1.689 -9.114,-4.669 -8.942,-8.942c0.065,-2.85 1.503,-5.501 3.858,-7.108c2.602,-1.871 5.757,-2.819 8.959,-2.692c3.047,-0.105 6.035,0.874 8.429,2.763c2.132,1.775 3.339,4.431 3.275,7.204l-7.979,-0.025c0.027,-0.177 0.041,-0.355 0.041,-0.534c-0,-1.927 -1.586,-3.513 -3.513,-3.513c-0.153,0 -0.306,0.01 -0.457,0.03c-1.159,-0.027 -2.298,0.302 -3.263,0.942c-0.888,0.577 -1.501,1.493 -1.696,2.533c-0.278,1.52 0.871,2.592 3.446,3.217l1.138,0.258c2.093,0.433 4.115,1.157 6.008,2.15c1.298,0.724 2.398,1.756 3.204,3.005c0.775,1.294 1.139,2.794 1.042,4.3c-0.028,1.874 -0.698,3.683 -1.896,5.125c-1.325,1.544 -3.034,2.712 -4.954,3.387c-2.113,0.8 -4.363,1.178 -6.621,1.113c-3.109,0.069 -6.142,-0.978 -8.546,-2.95c-2.233,-1.833 -3.514,-4.587 -3.475,-7.475l7.575,0.058c-0.009,0.114 -0.014,0.229 -0.014,0.344c-0,2.286 1.881,4.167 4.166,4.167c0.193,-0 0.386,-0.014 0.577,-0.04c1.282,0.051 2.551,-0.266 3.659,-0.913c0.905,-0.524 1.538,-1.418 1.733,-2.446Zm23.75,-18.712c2.034,-2.515 5.099,-3.982 8.333,-3.988c2.657,-0.122 5.201,1.12 6.738,3.292c1.537,2.613 2.107,5.685 1.608,8.675l-3.229,19.421l-8.033,-0l3.275,-19.533c0.093,-0.681 0.113,-1.37 0.058,-2.055c-0.023,-1.755 -1.474,-3.186 -3.229,-3.186c-0.12,-0 -0.24,0.006 -0.359,0.02c-2.236,-0.042 -4.36,1.001 -5.695,2.796l-3.871,21.958l-8.038,-0l7.575,-43.75l8.063,-0l-3.196,16.35Zm28.204,27.4l-8.092,-0l5.355,-30.833l8.087,-0l-5.35,30.833Zm-1.796,-38.65c-0.073,-1.187 0.386,-2.346 1.25,-3.163c1.77,-1.61 4.485,-1.671 6.325,-0.141c0.882,0.755 1.392,1.859 1.396,3.021c0.05,1.144 -0.379,2.259 -1.183,3.075c-0.844,0.881 -2.014,1.375 -3.234,1.366c-1.148,0.054 -2.274,-0.334 -3.145,-1.083c-0.904,-0.764 -1.421,-1.892 -1.409,-3.075Zm-6.779,42.817l15.296,-0l-0,4.166l-15.296,0l0,-4.166Zm44.975,-19.492c-0.329,2.994 -1.187,5.906 -2.533,8.6c-1.075,2.259 -2.737,4.187 -4.813,5.583c-1.901,1.211 -4.126,1.817 -6.379,1.738c-2.747,0.043 -5.365,-1.189 -7.083,-3.334l-2.821,14.584l-8.017,-0l7.379,-42.679l7.405,-0l-0.542,3.104c1.914,-2.365 4.821,-3.712 7.862,-3.646c2.728,-0.06 5.332,1.159 7.034,3.292c1.799,2.507 2.739,5.531 2.679,8.616c0.029,1.383 -0.028,2.766 -0.171,4.142Zm-7.975,-0.583l0.171,-2.738c0.113,-1.532 -0.24,-3.064 -1.013,-4.392c-0.68,-1.058 -1.863,-1.69 -3.12,-1.666c-2.311,-0.089 -4.508,1.038 -5.784,2.966l-2.308,12.725c0.666,1.895 2.525,3.125 4.529,2.996c1.883,0.081 3.692,-0.761 4.842,-2.254c1.558,-2.261 2.485,-4.898 2.683,-7.637Z" style="fill:#12263f;fill-rule:nonzero;"/><path id="Path_211228" d="M556.667,481.233l-1.354,7.563l5.125,-0l-1.055,6.037l-5.125,0l-2.62,15.438c-0.141,0.747 -0.061,1.518 0.229,2.221c0.277,0.514 0.923,0.791 1.937,0.833c0.303,0.019 1.12,-0.028 2.45,-0.142l-0.571,6.296c-1.488,0.484 -3.048,0.705 -4.612,0.654c-2.242,0.134 -4.423,-0.783 -5.896,-2.479c-1.364,-1.891 -1.937,-4.243 -1.596,-6.55l2.65,-16.25l-4.362,0l1.05,-6.058l4.362,-0l1.308,-7.575l8.08,0.012Zm17.745,38.967c-2.526,0.028 -5.009,-0.658 -7.162,-1.979c-2.057,-1.274 -3.681,-3.141 -4.658,-5.354c-1.039,-2.355 -1.451,-4.939 -1.196,-7.5l0.087,-1.138c0.258,-2.911 1.152,-5.731 2.621,-8.258c1.347,-2.388 3.291,-4.385 5.642,-5.796c2.307,-1.359 4.957,-2.026 7.633,-1.921c3.544,-0.132 6.93,1.512 9.017,4.379c2.117,3.172 2.948,7.035 2.321,10.796l-0.455,3.509l-18.908,-0c-0.16,1.722 0.363,3.441 1.454,4.783c1.083,1.212 2.646,1.889 4.271,1.85c2.944,0.068 5.769,-1.187 7.692,-3.417l3.675,4.559c-1.239,1.814 -2.975,3.234 -5,4.087c-2.218,0.982 -4.626,1.461 -7.05,1.4l0.017,0Zm2.545,-25.321c-1.444,-0.051 -2.855,0.448 -3.946,1.396c-1.426,1.403 -2.487,3.134 -3.091,5.042l11.05,-0l0.171,-0.742c0.114,-0.717 0.123,-1.447 0.029,-2.167c-0.135,-1.001 -0.631,-1.919 -1.396,-2.579c-0.799,-0.635 -1.796,-0.972 -2.817,-0.95Zm31.505,24.75c-0.262,-0.906 -0.368,-1.85 -0.313,-2.791c-2.019,2.191 -4.883,3.415 -7.863,3.362c-2.495,0.042 -4.908,-0.905 -6.708,-2.633c-1.747,-1.638 -2.666,-3.978 -2.5,-6.367c0.005,-3.125 1.601,-6.043 4.229,-7.733c3.258,-1.946 7.02,-2.882 10.809,-2.692l3.75,0.058l0.416,-1.85c0.113,-0.591 0.143,-1.196 0.088,-1.795c-0.054,-0.8 -0.417,-1.548 -1.013,-2.084c-0.645,-0.527 -1.459,-0.805 -2.291,-0.783c-1.139,-0.073 -2.268,0.255 -3.192,0.925c-0.894,0.699 -1.49,1.712 -1.667,2.833l-8.062,0.029c0.11,-2.902 1.626,-5.576 4.058,-7.162c2.803,-1.9 6.146,-2.844 9.529,-2.692c3.041,-0.1 5.999,1.025 8.205,3.121c1.989,2.046 2.908,4.912 2.479,7.733l-2.363,14.755l-0.141,1.825c-0.067,1.159 0.098,2.32 0.483,3.416l-0.029,0.542l-7.904,-0.017Zm-6.18,-5.666c2.386,0.034 4.645,-1.094 6.05,-3.021l0.996,-5.325l-2.791,-0.029c-2.441,-0.154 -4.816,0.848 -6.409,2.704c-0.494,0.677 -0.799,1.474 -0.883,2.308c-0.194,0.866 0.045,1.775 0.642,2.433c0.635,0.625 1.501,0.961 2.391,0.93l0.004,-0Zm32.471,-0.371c1.344,0.083 2.67,-0.351 3.704,-1.213c1.006,-0.876 1.689,-2.065 1.938,-3.375l7.55,-0.029c-0.112,2.098 -0.819,4.122 -2.038,5.833c-1.253,1.752 -2.942,3.147 -4.9,4.046c-2.01,0.962 -4.222,1.43 -6.45,1.367c-3.389,0.097 -6.651,-1.325 -8.887,-3.875c-2.289,-2.841 -3.419,-6.445 -3.163,-10.083l0.088,-1.567l0.029,-0.313c0.264,-4.438 2.056,-8.652 5.071,-11.92c2.755,-2.889 6.638,-4.434 10.625,-4.23c3.112,-0.075 6.117,1.161 8.275,3.405c2.109,2.379 3.19,5.5 3.004,8.675l-7.517,-0c0.078,-1.385 -0.303,-2.758 -1.083,-3.905c-0.789,-0.982 -1.986,-1.549 -3.246,-1.537c-3.836,-0.114 -6.162,2.687 -6.979,8.404c-0.266,1.734 -0.371,3.489 -0.312,5.242c0.2,3.325 1.629,5.016 4.287,5.075l0.004,-0Zm28.542,-21.363c2.034,-2.515 5.099,-3.982 8.333,-3.987c2.657,-0.123 5.201,1.12 6.738,3.291c1.537,2.613 2.107,5.685 1.608,8.675l-3.237,19.421l-8.034,0l3.275,-19.533c0.094,-0.681 0.114,-1.37 0.059,-2.054c-0.024,-1.756 -1.474,-3.187 -3.229,-3.187c-0.12,0 -0.24,0.007 -0.359,0.02c-2.237,-0.042 -4.361,1.001 -5.696,2.796l-3.879,21.958l-8.042,0l7.588,-43.75l8.062,0l-3.187,16.35Zm34.35,27.971c-2.526,0.028 -5.01,-0.658 -7.163,-1.979c-2.054,-1.277 -3.675,-3.145 -4.65,-5.358c-1.038,-2.355 -1.45,-4.939 -1.195,-7.5l0.087,-1.138c0.257,-2.912 1.152,-5.731 2.621,-8.258c1.347,-2.388 3.291,-4.385 5.642,-5.796c2.307,-1.36 4.957,-2.026 7.633,-1.921c3.544,-0.132 6.929,1.512 9.017,4.379c2.117,3.172 2.947,7.034 2.32,10.796l-0.454,3.508l-18.904,0c-0.16,1.723 0.363,3.441 1.454,4.784c1.083,1.212 2.646,1.889 4.271,1.85c2.944,0.068 5.769,-1.187 7.692,-3.417l3.675,4.558c-1.239,1.815 -2.976,3.234 -5,4.088c-2.217,0.984 -4.625,1.463 -7.05,1.404l0.004,0Zm2.562,-25.321c-1.444,-0.051 -2.855,0.448 -3.945,1.396c-1.427,1.403 -2.488,3.134 -3.092,5.042l11.05,-0l0.171,-0.742c0.114,-0.717 0.123,-1.447 0.029,-2.167c-0.135,-1.001 -0.631,-1.919 -1.396,-2.579c-0.8,-0.636 -1.799,-0.973 -2.821,-0.95l0.004,0Zm-17.291,28.917l30.875,-0l-0,4.167l-30.875,-0l-0,-4.167Zm52.083,-27.267c-0.892,-0.168 -1.797,-0.263 -2.704,-0.283c-2.669,-0.169 -5.244,1.048 -6.808,3.217l-3.58,20.166l-8.029,0l5.354,-30.833l7.546,-0l-0.741,3.75c1.452,-2.617 4.187,-4.277 7.179,-4.358c0.944,0.025 1.881,0.165 2.791,0.416l-1.008,7.925Z" style="fill:#12263f;fill-rule:nonzero;"/><path id="Path_211229" d="M626.708,712.271c-2.105,2.481 -5.235,3.864 -8.487,3.75c-2.629,0.12 -5.153,-1.078 -6.721,-3.192c-1.599,-2.435 -2.23,-5.382 -1.767,-8.258l3.334,-19.938l8.029,0l-3.388,20.059c-0.075,0.586 -0.085,1.178 -0.029,1.766c0,0.004 0,0.007 0,0.011c0,1.6 1.317,2.916 2.917,2.916c0.082,0 0.164,-0.003 0.246,-0.01c2.405,0.113 4.718,-0.965 6.179,-2.879l3.846,-21.867l8.091,0l-5.358,30.834l-7.5,-0l0.608,-3.192Zm-19.166,7.358l31.958,0l0,4.167l-31.958,-0l-0,-4.167Zm61.625,-19.491c-0.329,2.993 -1.187,5.905 -2.534,8.6c-1.074,2.258 -2.736,4.187 -4.812,5.583c-1.902,1.21 -4.126,1.816 -6.379,1.737c-2.748,0.044 -5.366,-1.188 -7.084,-3.333l-2.82,14.583l-8.005,0l7.375,-42.679l7.409,0l-0.542,3.104c1.915,-2.364 4.821,-3.712 7.863,-3.645c2.723,-0.063 5.325,1.149 7.029,3.275c1.799,2.507 2.739,5.531 2.679,8.616c0.027,1.389 -0.033,2.777 -0.179,4.159Zm-7.975,-0.584l0.171,-2.737c0.113,-1.533 -0.24,-3.064 -1.013,-4.392c-0.68,-1.058 -1.863,-1.69 -3.121,-1.667c-2.311,-0.088 -4.507,1.038 -5.783,2.967l-2.279,12.704c0.666,1.895 2.524,3.125 4.529,2.996c1.883,0.081 3.692,-0.761 4.842,-2.254c1.547,-2.257 2.466,-4.887 2.662,-7.617l-0.008,0Z" style="fill:#12263f;fill-rule:nonzero;"/><path id="Path_211230" d="M1347.4,277.608c0.303,-1.519 -0.752,-2.62 -3.163,-3.304l-2.591,-0.654c-6.134,-1.689 -9.114,-4.669 -8.942,-8.942c0.065,-2.85 1.503,-5.501 3.858,-7.108c2.602,-1.871 5.757,-2.819 8.959,-2.692c3.047,-0.105 6.035,0.874 8.429,2.763c2.132,1.775 3.339,4.431 3.275,7.204l-7.975,-0.025c0.027,-0.177 0.041,-0.355 0.041,-0.534c-0,-1.927 -1.586,-3.513 -3.513,-3.513c-0.153,0 -0.306,0.01 -0.457,0.03c-1.158,-0.027 -2.298,0.302 -3.263,0.942c-0.887,0.577 -1.501,1.493 -1.696,2.533c-0.277,1.52 0.871,2.592 3.446,3.217l1.138,0.258c2.093,0.433 4.115,1.157 6.008,2.15c1.298,0.724 2.398,1.756 3.204,3.005c0.775,1.294 1.139,2.794 1.042,4.3c-0.028,1.874 -0.698,3.683 -1.896,5.125c-1.328,1.547 -3.042,2.717 -4.967,3.391c-2.113,0.801 -4.362,1.179 -6.62,1.113c-3.109,0.07 -6.143,-0.977 -8.546,-2.95c-2.234,-1.833 -3.514,-4.587 -3.475,-7.475l7.575,0.058c-0.01,0.115 -0.015,0.229 -0.015,0.344c0,2.286 1.881,4.167 4.167,4.167c0.193,-0 0.386,-0.013 0.577,-0.04c1.281,0.051 2.551,-0.266 3.658,-0.913c0.91,-0.523 1.546,-1.419 1.742,-2.45Zm23.75,-18.712c2.034,-2.515 5.099,-3.982 8.333,-3.988c2.657,-0.122 5.201,1.12 6.738,3.292c1.537,2.613 2.107,5.685 1.608,8.675l-3.242,19.421l-8.021,-0l3.275,-19.533c0.094,-0.681 0.114,-1.37 0.059,-2.055c-0.023,-1.755 -1.474,-3.186 -3.229,-3.186c-0.12,-0 -0.24,0.006 -0.359,0.02c-2.236,-0.042 -4.36,1.001 -5.696,2.796l-3.875,21.958l-8.033,-0l7.575,-43.75l8.063,-0l-3.196,16.35Zm37.341,-3.988c2.497,-0.03 4.945,0.696 7.021,2.084c1.985,1.382 3.496,3.342 4.329,5.612c0.947,2.534 1.288,5.253 0.996,7.942c-0.238,4.444 -2.051,8.661 -5.112,11.892c-2.864,2.984 -6.876,4.598 -11.009,4.429c-2.472,0.018 -4.895,-0.708 -6.95,-2.084c-1.982,-1.368 -3.497,-3.313 -4.337,-5.57c-0.947,-2.506 -1.289,-5.2 -0.996,-7.863c0.249,-4.527 2.085,-8.824 5.183,-12.133c2.833,-2.939 6.803,-4.511 10.88,-4.309l-0.005,0Zm-8.112,19.375c-0.049,1.537 0.401,3.049 1.283,4.309c0.827,1.056 2.105,1.662 3.446,1.633c2.431,0.096 4.705,-1.234 5.813,-3.4c1.516,-2.828 2.198,-6.029 1.966,-9.229c0.008,-1.556 -0.454,-3.078 -1.325,-4.367c-0.807,-1.095 -2.102,-1.727 -3.462,-1.691c-2.398,-0.073 -4.634,1.241 -5.738,3.37c-1.559,2.866 -2.248,6.124 -1.983,9.375Zm40.388,-19.379c2.496,-0.03 4.944,0.696 7.02,2.084c1.985,1.382 3.496,3.342 4.33,5.612c0.937,2.527 1.274,5.237 0.983,7.917c-0.239,4.444 -2.052,8.661 -5.113,11.891c-2.863,2.985 -6.876,4.599 -11.008,4.43c-2.473,0.018 -4.895,-0.708 -6.95,-2.084c-1.975,-1.361 -3.486,-3.296 -4.329,-5.541c-0.948,-2.506 -1.289,-5.2 -0.996,-7.863c0.249,-4.527 2.085,-8.824 5.183,-12.133c2.833,-2.939 6.803,-4.511 10.88,-4.309l-0,-0.004Zm-8.117,19.379c-0.049,1.537 0.401,3.049 1.283,4.309c0.827,1.056 2.105,1.662 3.446,1.633c2.43,0.096 4.705,-1.234 5.813,-3.4c1.516,-2.828 2.198,-6.029 1.966,-9.229c0.008,-1.556 -0.454,-3.078 -1.325,-4.367c-0.808,-1.095 -2.102,-1.727 -3.462,-1.691c-2.398,-0.073 -4.634,1.241 -5.738,3.37c-1.559,2.866 -2.248,6.124 -1.983,9.375Zm-41.871,16.18l64.542,-0l-0,4.166l-64.542,0l0,-4.166Zm80.921,-42.563l-1.338,7.563l5.125,-0l-1.054,6.037l-5.125,0l-2.637,15.454c-0.141,0.747 -0.061,1.519 0.229,2.221c0.278,0.514 0.923,0.792 1.937,0.833c0.303,0.02 1.12,-0.027 2.45,-0.141l-0.57,6.296c-1.488,0.483 -3.049,0.704 -4.613,0.654c-2.242,0.133 -4.423,-0.784 -5.896,-2.479c-1.364,-1.892 -1.937,-4.243 -1.596,-6.55l2.65,-16.25l-4.345,-0l1.054,-6.075l4.358,-0l1.308,-7.575l8.063,0.012Z" style="fill:#12263f;fill-rule:nonzero;"/><path id="Path_211231" d="M1360.73,488.213c2.725,0.002 5.298,1.278 6.95,3.445l3.021,-15.779l8.05,0l-7.567,43.75l-7.179,0l0.454,-3.304c-1.911,2.493 -4.892,3.941 -8.033,3.904c-1.794,0.019 -3.553,-0.507 -5.042,-1.508c-1.5,-1.067 -2.658,-2.546 -3.333,-4.258c-0.813,-1.967 -1.252,-4.069 -1.296,-6.196c-0.057,-1.159 -0.028,-2.321 0.088,-3.475l0.171,-1.284c0.374,-2.912 1.266,-5.734 2.633,-8.333c1.096,-2.16 2.743,-3.993 4.775,-5.312c1.894,-1.159 4.089,-1.733 6.308,-1.65Zm-5.833,16.579c-0.144,1.209 -0.191,2.428 -0.142,3.646c0.189,3.333 1.538,5.033 4.046,5.1c2.383,0.031 4.619,-1.179 5.896,-3.192l2.192,-12.246c-0.603,-1.929 -2.422,-3.236 -4.442,-3.192c-1.898,-0.086 -3.723,0.759 -4.883,2.263c-1.56,2.252 -2.483,4.884 -2.671,7.617l0.004,0.004Zm40.333,-16.55c2.497,-0.031 4.945,0.696 7.021,2.083c1.984,1.382 3.496,3.342 4.329,5.613c0.938,2.526 1.275,5.237 0.984,7.916c-0.239,4.444 -2.052,8.661 -5.113,11.892c-2.864,2.984 -6.876,4.598 -11.008,4.429c-2.473,0.019 -4.895,-0.707 -6.95,-2.083c-1.979,-1.362 -3.493,-3.298 -4.338,-5.546c-0.941,-2.5 -1.28,-5.187 -0.987,-7.842c0.249,-4.526 2.085,-8.824 5.183,-12.133c2.828,-2.945 6.797,-4.525 10.875,-4.329l0.004,-0Zm-8.116,19.379c-0.05,1.537 0.401,3.049 1.283,4.308c0.826,1.056 2.105,1.662 3.446,1.634c2.43,0.096 4.705,-1.235 5.812,-3.4c1.516,-2.828 2.199,-6.029 1.967,-9.23c0.007,-1.555 -0.454,-3.077 -1.325,-4.366c-0.808,-1.095 -2.103,-1.728 -3.463,-1.692c-2.397,-0.072 -4.633,1.241 -5.737,3.371c-1.561,2.863 -2.253,6.12 -1.992,9.371l0.009,0.004Zm40.387,-19.379c2.497,-0.031 4.945,0.696 7.021,2.083c1.984,1.382 3.496,3.342 4.329,5.613c0.938,2.526 1.275,5.237 0.983,7.916c-0.238,4.444 -2.051,8.661 -5.112,11.892c-2.864,2.984 -6.876,4.598 -11.008,4.429c-2.473,0.019 -4.896,-0.707 -6.95,-2.083c-1.979,-1.362 -3.493,-3.298 -4.338,-5.546c-0.947,-2.506 -1.289,-5.2 -0.996,-7.863c0.249,-4.526 2.085,-8.824 5.184,-12.133c2.834,-2.941 6.808,-4.513 10.887,-4.308Zm-8.125,19.375c-0.049,1.536 0.401,3.049 1.283,4.308c0.827,1.056 2.105,1.662 3.446,1.633c2.431,0.097 4.705,-1.234 5.813,-3.4c1.516,-2.827 2.198,-6.029 1.966,-9.229c0.008,-1.555 -0.454,-3.078 -1.325,-4.366c-0.812,-1.096 -2.112,-1.726 -3.475,-1.684c-2.397,-0.072 -4.633,1.242 -5.737,3.371c-1.553,2.864 -2.238,6.12 -1.971,9.367Zm-41.875,16.179l64.542,-0l-0,4.167l-64.542,-0l0,-4.167Zm85.742,-27.267c-0.892,-0.168 -1.797,-0.263 -2.704,-0.283c-2.669,-0.169 -5.245,1.048 -6.809,3.217l-3.562,20.166l-8.034,0l5.367,-30.833l7.538,-0l-0.742,3.75c1.452,-2.617 4.187,-4.277 7.179,-4.358c0.944,0.025 1.881,0.165 2.792,0.416l-1.025,7.925Z" style="fill:#12263f;fill-rule:nonzero;"/><path id="Path_211232" d="M1389.75,684.075c2.497,-0.031 4.945,0.696 7.021,2.083c1.984,1.383 3.496,3.343 4.329,5.613c0.938,2.526 1.275,5.237 0.984,7.917c-0.239,4.444 -2.052,8.661 -5.113,11.891c-2.864,2.984 -6.876,4.599 -11.008,4.429c-2.473,0.019 -4.895,-0.707 -6.95,-2.083c-1.976,-1.363 -3.487,-3.299 -4.329,-5.546c-0.948,-2.505 -1.289,-5.2 -0.996,-7.862c0.254,-4.52 2.089,-8.809 5.183,-12.113c2.829,-2.946 6.8,-4.526 10.879,-4.329Zm-8.116,19.375c-0.051,1.536 0.398,3.048 1.279,4.308c0.826,1.057 2.105,1.663 3.446,1.634c2.43,0.096 4.705,-1.235 5.812,-3.4c1.516,-2.828 2.198,-6.029 1.967,-9.229c0.007,-1.556 -0.455,-3.078 -1.325,-4.367c-0.808,-1.095 -2.103,-1.728 -3.463,-1.692c-2.397,-0.072 -4.634,1.242 -5.737,3.371c-1.558,2.866 -2.246,6.124 -1.979,9.375Zm-9.6,16.179l32.27,0l0,4.167l-32.27,-0l-0,-4.167Zm45.045,-35l-0.683,3.646c2.169,-2.718 5.495,-4.262 8.971,-4.167c2.55,-0.12 4.989,1.089 6.437,3.192c1.492,2.594 2.031,5.63 1.525,8.579l-3.245,19.584l-8.034,-0l3.304,-19.684c0.094,-0.669 0.113,-1.347 0.059,-2.021c-0.129,-1.691 -1.557,-3.015 -3.253,-3.015c-0.132,-0 -0.263,0.008 -0.393,0.024c-2.249,-0.009 -4.367,1.081 -5.667,2.916l-3.85,21.78l-8.029,-0l5.358,-30.834l7.5,0Z" style="fill:#12263f;fill-rule:nonzero;"/><path id="Path_210547" d="M1047.92,589.713l-0,42.416l-12.5,0l-0,-3.333c-1.757,1.487 -3.723,2.708 -5.834,3.625c-2.103,0.915 -4.373,1.383 -6.666,1.375c-6.094,0.026 -11.95,-2.391 -16.25,-6.708c-2.069,-2.103 -3.723,-4.577 -4.875,-7.292c-2.403,-5.688 -2.388,-12.116 0.041,-17.792c1.169,-2.727 2.852,-5.202 4.959,-7.291c2.102,-2.069 4.576,-3.723 7.291,-4.875c2.791,-1.197 5.798,-1.807 8.834,-1.792c2.293,-0.008 4.563,0.46 6.666,1.375c2.098,0.908 4.06,2.1 5.834,3.542l-0,-3.25l12.5,-0Zm-23.667,32.833c1.533,0.004 3.051,-0.308 4.458,-0.917c1.377,-0.584 2.634,-1.418 3.709,-2.458c2.194,-2.166 3.431,-5.125 3.431,-8.208c0,-3.084 -1.237,-6.043 -3.431,-8.209c-1.075,-1.04 -2.332,-1.874 -3.709,-2.458c-1.407,-0.609 -2.925,-0.921 -4.458,-0.917c-1.561,-0.01 -3.107,0.302 -4.542,0.917c-2.766,1.156 -4.968,3.358 -6.125,6.125c-1.221,2.903 -1.221,6.18 0,9.083c1.157,2.767 3.359,4.969 6.125,6.125c1.435,0.615 2.981,0.927 4.542,0.917Zm37.571,9.583l-0,-8.016l8.017,-0l-0,8.016l-8.017,0Zm-0,-36.133l-0,-8.054l8.017,-0l-0,8.058l-8.017,-0.004Z" style="fill:#12263f;fill-rule:nonzero;"/><path id="Path_211233" d="M972.396,270.858c0.357,-4.247 1.98,-8.292 4.658,-11.608c2.331,-2.877 5.883,-4.497 9.583,-4.371c2.889,-0.119 5.652,1.219 7.351,3.559l1.054,-2.975l7.379,0.029l-5.042,29.766c-0.393,3.811 -2.278,7.314 -5.241,9.742c-3.104,2.445 -6.993,3.681 -10.938,3.475c-2.106,-0.034 -4.182,-0.505 -6.096,-1.383c-1.855,-0.822 -3.493,-2.067 -4.783,-3.634l3.987,-4.9c1.572,2.149 4.06,3.446 6.721,3.505c1.924,0.124 3.829,-0.459 5.354,-1.638c1.543,-1.262 2.609,-3.013 3.021,-4.962l0.454,-1.85c-1.934,2.112 -4.686,3.295 -7.55,3.245c-2.772,0.071 -5.422,-1.164 -7.15,-3.333c-1.866,-2.465 -2.889,-5.467 -2.916,-8.558c-0.047,-1.372 0.004,-2.745 0.154,-4.109Zm7.892,3.38c-0.075,1.511 0.318,3.01 1.125,4.291c0.739,1.069 1.962,1.704 3.262,1.696c2.268,0.038 4.426,-1 5.813,-2.796l2.391,-13.066c-0.793,-1.775 -2.604,-2.888 -4.546,-2.792c-2.038,-0.06 -3.983,0.873 -5.212,2.5c-1.521,1.967 -2.446,4.331 -2.663,6.808c-0.119,1.116 -0.177,2.237 -0.17,3.359Zm40.787,-19.33c2.497,-0.03 4.945,0.696 7.021,2.084c1.984,1.382 3.496,3.342 4.329,5.612c0.938,2.527 1.275,5.238 0.983,7.917c-0.238,4.444 -2.051,8.661 -5.112,11.892c-2.864,2.984 -6.876,4.598 -11.008,4.429c-2.473,0.018 -4.896,-0.708 -6.95,-2.084c-1.976,-1.362 -3.487,-3.298 -4.33,-5.545c-0.947,-2.506 -1.288,-5.2 -0.995,-7.863c0.249,-4.527 2.084,-8.824 5.183,-12.133c2.832,-2.939 6.803,-4.511 10.879,-4.309Zm-8.117,19.375c-0.049,1.537 0.402,3.049 1.284,4.309c0.826,1.056 2.105,1.662 3.446,1.633c2.43,0.096 4.705,-1.234 5.812,-3.4c1.516,-2.828 2.198,-6.029 1.967,-9.229c0.007,-1.556 -0.455,-3.078 -1.325,-4.367c-0.808,-1.095 -2.103,-1.727 -3.463,-1.691c-2.397,-0.073 -4.634,1.241 -5.737,3.37c-1.559,2.866 -2.249,6.124 -1.984,9.375Zm40.375,-19.375c2.497,-0.03 4.945,0.696 7.021,2.084c1.984,1.382 3.496,3.342 4.329,5.612c0.938,2.527 1.275,5.238 0.984,7.917c-0.239,4.444 -2.052,8.661 -5.113,11.892c-2.863,2.984 -6.876,4.598 -11.008,4.429c-2.473,0.018 -4.895,-0.708 -6.95,-2.084c-1.971,-1.364 -3.478,-3.3 -4.317,-5.545c-0.947,-2.506 -1.289,-5.2 -0.996,-7.863c0.249,-4.527 2.085,-8.824 5.184,-12.133c2.829,-2.935 6.794,-4.507 10.866,-4.309Zm-8.116,19.38c-0.05,1.536 0.401,3.048 1.283,4.308c0.826,1.056 2.105,1.662 3.446,1.633c2.43,0.097 4.705,-1.234 5.812,-3.4c1.517,-2.828 2.199,-6.029 1.967,-9.229c0.008,-1.555 -0.454,-3.078 -1.325,-4.367c-0.808,-1.095 -2.102,-1.727 -3.462,-1.691c-2.398,-0.073 -4.634,1.241 -5.738,3.371c-1.554,2.865 -2.239,6.122 -1.971,9.37l-0.012,0.005Zm-41.859,16.175l64.559,-0l-0,4.166l-64.559,0l0,-4.166Zm79.925,-35.584c2.725,0.003 5.298,1.279 6.95,3.446l3.017,-15.779l8.063,-0l-7.563,43.75l-7.192,-0l0.455,-3.304c-1.912,2.492 -4.893,3.941 -8.034,3.904c-1.794,0.019 -3.552,-0.507 -5.041,-1.508c-1.5,-1.067 -2.659,-2.547 -3.334,-4.259c-0.812,-1.967 -1.252,-4.068 -1.296,-6.196c-0.057,-1.159 -0.028,-2.32 0.088,-3.475l0.171,-1.283c0.375,-2.912 1.266,-5.734 2.633,-8.333c1.096,-2.166 2.747,-4.004 4.783,-5.325c1.894,-1.153 4.085,-1.723 6.3,-1.638Zm-5.833,16.579c-0.143,1.21 -0.191,2.429 -0.142,3.646c0.189,3.334 1.538,5.034 4.046,5.1c2.384,0.032 4.619,-1.179 5.896,-3.191l2.192,-12.246c-0.602,-1.931 -2.421,-3.24 -4.442,-3.196c-1.898,-0.087 -3.723,0.759 -4.883,2.262c-1.562,2.253 -2.486,4.887 -2.675,7.621l0.008,0.004Z" style="fill:#12263f;fill-rule:nonzero;"/><path id="Path_211234" d="M1016.95,504.304c-0.328,4.24 -1.873,8.296 -4.45,11.679c-2.216,2.843 -5.688,4.43 -9.287,4.246c-2.972,0.055 -5.769,-1.436 -7.38,-3.933l-1.166,3.333l-7.342,0l7.579,-43.75l8.059,0l-3.105,15.75c1.862,-2.198 4.62,-3.444 7.5,-3.387c2.71,-0.086 5.31,1.1 7.021,3.204c1.84,2.52 2.797,5.58 2.721,8.7c0.037,1.388 -0.013,2.777 -0.15,4.158Zm-7.975,-0.6c0.156,-1.25 0.213,-2.511 0.171,-3.771c-0.208,-3.314 -1.577,-4.998 -4.104,-5.054c-2.393,-0.059 -4.641,1.175 -5.875,3.225l-2.221,12.284c0.626,1.987 2.532,3.309 4.612,3.2c3.95,0.113 6.371,-2.763 7.263,-8.63l0.154,-1.254Zm18.971,15.925l-8.092,0l5.354,-30.833l8.088,-0l-5.35,30.833Zm-1.796,-38.65c-0.073,-1.186 0.386,-2.346 1.25,-3.162c1.77,-1.611 4.485,-1.671 6.325,-0.142c0.882,0.756 1.392,1.859 1.396,3.021c0.05,1.144 -0.379,2.259 -1.183,3.075c-0.844,0.881 -2.014,1.376 -3.234,1.367c-1.148,0.053 -2.274,-0.335 -3.146,-1.084c-0.903,-0.764 -1.42,-1.892 -1.408,-3.075Zm29.708,15.55c-0.892,-0.168 -1.796,-0.263 -2.704,-0.283c-2.668,-0.169 -5.244,1.048 -6.808,3.217l-3.563,20.166l-8.033,0l5.354,-30.833l7.55,-0l-0.741,3.75c1.452,-2.617 4.187,-4.277 7.179,-4.358c0.944,0.025 1.881,0.165 2.791,0.416l-1.025,7.925Zm-36.487,27.267l36.25,-0l-0,4.167l-36.25,-0l-0,-4.167Zm51.612,-35.583c2.725,0.002 5.298,1.278 6.95,3.445l3.017,-15.779l8.062,0l-7.579,43.75l-7.175,0l0.454,-3.304c-1.914,2.496 -4.9,3.945 -8.045,3.904c-1.795,0.019 -3.553,-0.507 -5.042,-1.508c-1.5,-1.067 -2.658,-2.546 -3.333,-4.258c-0.813,-1.967 -1.252,-4.069 -1.296,-6.196c-0.057,-1.159 -0.028,-2.321 0.087,-3.475l0.171,-1.284c0.375,-2.912 1.267,-5.734 2.633,-8.333c1.097,-2.166 2.747,-4.004 4.784,-5.325c1.897,-1.155 4.093,-1.725 6.312,-1.637Zm-5.833,16.579c-0.143,1.209 -0.191,2.428 -0.142,3.646c0.189,3.333 1.538,5.033 4.046,5.1c2.384,0.031 4.619,-1.179 5.896,-3.192l2.192,-12.246c-0.603,-1.929 -2.422,-3.236 -4.442,-3.192c-1.898,-0.086 -3.723,0.759 -4.883,2.263c-1.561,2.252 -2.485,4.883 -2.675,7.617l0.008,0.004Z" style="fill:#12263f;fill-rule:nonzero;"/><path id="Path_211235" d="M1001.61,715.463l4.3,-24.809l-4.441,0l1.033,-6.025l4.463,0l0.416,-3.075c0.325,-2.991 1.75,-5.757 3.996,-7.758c2.338,-1.922 5.311,-2.903 8.333,-2.75c1.467,0.078 2.925,0.278 4.359,0.596l-0.7,6.396c-0.771,-0.209 -1.564,-0.323 -2.363,-0.342c-1.306,-0.054 -2.594,0.329 -3.658,1.087c-1.055,0.811 -1.739,2.013 -1.896,3.334l-0.417,2.5l5.942,-0l-1.054,6.037l-5.925,0l-4.3,24.809l-8.088,-0Zm36.25,-0c-0.261,-0.907 -0.367,-1.851 -0.312,-2.792c-2.019,2.191 -4.883,3.416 -7.863,3.362c-2.495,0.042 -4.908,-0.905 -6.708,-2.633c-1.747,-1.638 -2.666,-3.978 -2.5,-6.367c0.005,-3.125 1.6,-6.042 4.229,-7.733c3.257,-1.945 7.019,-2.882 10.808,-2.692l3.75,0.059l0.417,-1.85c0.113,-0.592 0.143,-1.196 0.088,-1.796c-0.054,-0.8 -0.418,-1.547 -1.013,-2.083c-0.645,-0.527 -1.459,-0.805 -2.292,-0.784c-1.138,-0.072 -2.268,0.255 -3.191,0.925c-0.894,0.7 -1.49,1.713 -1.667,2.834l-8.062,0.029c0.11,-2.902 1.625,-5.576 4.058,-7.163c2.789,-1.895 6.115,-2.843 9.483,-2.704c3.041,-0.101 5.999,1.024 8.204,3.121c1.99,2.046 2.909,4.912 2.48,7.733l-2.35,14.75l-0.142,1.825c-0.066,1.16 0.098,2.321 0.483,3.417l-0.029,0.542l-7.871,-0Zm-6.191,-5.667c2.391,0.04 4.657,-1.088 6.066,-3.021l0.996,-5.325l-2.792,-0.029c-2.44,-0.154 -4.815,0.849 -6.408,2.704c-0.494,0.677 -0.799,1.474 -0.883,2.308c-0.194,0.867 0.045,1.776 0.641,2.434c0.633,0.621 1.493,0.957 2.38,0.929Zm-11.746,9.833l30.621,0l-0,4.167l-30.621,-0l-0,-4.167Zm51.812,-27.266c-0.892,-0.169 -1.796,-0.264 -2.704,-0.284c-2.668,-0.169 -5.244,1.048 -6.808,3.217l-3.563,20.167l-8.033,-0l5.354,-30.834l7.55,0l-0.742,3.75c1.453,-2.616 4.188,-4.277 7.18,-4.358c0.944,0.026 1.881,0.166 2.791,0.417l-1.025,7.925Z" style="fill:#12263f;fill-rule:nonzero;"/><path id="Path_210539" d="M1016.67,143.438c7.579,-6.738 13.841,-0.805 9.583,5.954c-4.258,6.758 -15.525,35.758 12.05,34.679" style="fill:none;fill-rule:nonzero;stroke:#12263f;stroke-width:8.33px;"/><path id="Path_210540" d="M1057.57,143.438c-7.579,-6.738 -13.842,-0.805 -9.584,5.954c4.259,6.758 15.525,35.758 -12.049,34.679" style="fill:none;fill-rule:nonzero;stroke:#12263f;stroke-width:8.33px;"/><path id="Path_211222" d="M225.263,191.667l-11.805,-0l0,-44.025l11.805,-0l-0,44.025Zm-12.5,-55.417c-0.052,-1.636 0.592,-3.219 1.77,-4.354c1.316,-1.187 3.052,-1.803 4.821,-1.708c1.763,-0.089 3.49,0.526 4.8,1.708c1.19,1.129 1.842,2.714 1.792,4.354c0.055,1.657 -0.606,3.259 -1.813,4.396c-1.305,1.177 -3.024,1.791 -4.779,1.708c-1.755,0.083 -3.474,-0.531 -4.779,-1.708c-1.205,-1.137 -1.864,-2.74 -1.808,-4.396l-0.005,0Zm22.75,49.638c-0.06,-1.721 0.633,-3.385 1.896,-4.555c1.291,-1.177 2.992,-1.805 4.738,-1.75c1.759,-0.06 3.475,0.568 4.779,1.75c1.263,1.171 1.955,2.837 1.892,4.559c0.061,1.696 -0.621,3.338 -1.867,4.491c-1.315,1.179 -3.04,1.799 -4.804,1.73c-1.75,0.063 -3.458,-0.557 -4.759,-1.73c-1.25,-1.152 -1.935,-2.796 -1.875,-4.495Zm0,-33.334c-0.062,-1.721 0.629,-3.387 1.892,-4.558c1.292,-1.179 2.994,-1.807 4.742,-1.75c1.759,-0.061 3.475,0.567 4.779,1.75c1.263,1.171 1.955,2.837 1.892,4.558c0.061,1.699 -0.623,3.342 -1.871,4.496c-1.314,1.177 -3.037,1.798 -4.8,1.729c-1.751,0.065 -3.461,-0.556 -4.763,-1.729c-1.246,-1.152 -1.93,-2.792 -1.87,-4.487l-0,-0.009Z" style="fill:#293a50;fill-rule:nonzero;"/><path id="Path_211221" d="M1414.22,187.192c-2.957,3.56 -7.424,5.528 -12.046,5.308c-4.02,0.267 -7.964,-1.226 -10.8,-4.087c-2.704,-3.363 -4.061,-7.614 -3.804,-11.921l-0,-28.85l11.758,-0l0,28.475c0,4.589 2.083,6.883 6.25,6.883c3.315,0.348 6.541,-1.287 8.221,-4.167l-0,-31.204l11.8,0l-0,44.038l-11.054,-0l-0.325,-4.475Zm20.833,-1.3c-0.063,-1.722 0.628,-3.388 1.892,-4.559c1.287,-1.174 2.983,-1.802 4.725,-1.75c1.759,-0.06 3.475,0.568 4.779,1.75c1.263,1.171 1.954,2.837 1.892,4.559c0.061,1.698 -0.623,3.342 -1.871,4.495c-1.315,1.176 -3.038,1.795 -4.8,1.725c-1.752,0.065 -3.461,-0.555 -4.763,-1.729c-1.242,-1.156 -1.92,-2.799 -1.854,-4.495l0,0.004Zm0,-33.334c-0.063,-1.721 0.628,-3.387 1.892,-4.558c1.287,-1.174 2.983,-1.802 4.725,-1.75c1.759,-0.061 3.475,0.567 4.779,1.75c1.263,1.171 1.954,2.837 1.892,4.558c0.061,1.699 -0.623,3.343 -1.871,4.496c-1.314,1.179 -3.037,1.801 -4.8,1.734c-1.752,0.064 -3.461,-0.556 -4.763,-1.73c-1.242,-1.156 -1.92,-2.799 -1.854,-4.496l0,-0.004Z" style="fill:#293a50;fill-rule:nonzero;"/><path id="Path_211220" d="M1042.38,417.813c0.02,4.202 -2.488,8.029 -6.35,9.687c-3.713,1.842 -7.82,2.749 -11.963,2.642c-10.308,-0 -16.615,-4.028 -18.92,-12.084l10.458,-2.116c1.034,3.735 4.457,6.342 8.333,6.346c1.715,0.044 3.401,-0.453 4.817,-1.421c1.405,-0.856 2.27,-2.384 2.279,-4.029c0,-3.612 -2.428,-5.417 -7.283,-5.417l-1.958,-0l-0,-7.442c2.515,0.308 5.041,-0.53 6.875,-2.279c0.775,-0.949 1.192,-2.141 1.179,-3.367c0.068,-1.521 -0.552,-2.994 -1.688,-4.008c-1.182,-1.01 -2.701,-1.539 -4.254,-1.483c-1.679,-0.096 -3.338,0.409 -4.679,1.425c-1.206,1.164 -2.114,2.602 -2.646,4.191l-9.683,-2.083c0.877,-3.663 3.217,-6.812 6.471,-8.708c3.268,-1.858 6.983,-2.787 10.741,-2.688c3.918,-0.142 7.794,0.861 11.15,2.888c3.386,2.02 5.405,5.743 5.25,9.683c0,4.014 -2.564,7.256 -7.692,9.725c6.375,1.736 9.563,5.249 9.563,10.538Zm8.3,5.575c-0.063,-1.722 0.628,-3.388 1.892,-4.559c1.291,-1.178 2.994,-1.807 4.741,-1.75c1.76,-0.061 3.475,0.568 4.779,1.75c1.264,1.171 1.955,2.837 1.892,4.559c0.062,1.698 -0.622,3.342 -1.871,4.495c-1.314,1.178 -3.036,1.798 -4.8,1.73c-1.751,0.064 -3.46,-0.556 -4.762,-1.73c-1.249,-1.153 -1.933,-2.797 -1.871,-4.495Zm0,-33.334c-0.063,-1.721 0.628,-3.387 1.892,-4.558c1.291,-1.179 2.994,-1.807 4.741,-1.75c1.76,-0.061 3.475,0.567 4.779,1.75c1.264,1.171 1.955,2.837 1.892,4.558c0.062,1.699 -0.622,3.342 -1.871,4.496c-1.314,1.177 -3.036,1.798 -4.8,1.729c-1.751,0.065 -3.46,-0.556 -4.762,-1.729c-1.246,-1.152 -1.93,-2.792 -1.871,-4.487l0,-0.009Z" style="fill:#293a50;fill-rule:nonzero;"/><path id="Path_211219" d="M1430.39,407.6c0.302,5.845 -1.569,11.6 -5.25,16.15c-3.931,4.364 -9.636,6.717 -15.5,6.392c-9.705,0.935 -18.56,-5.982 -20,-15.625l11.25,-1.913c1.002,5.486 3.743,8.229 8.22,8.229c6.348,0 9.521,-4.682 9.521,-14.045c0,-8.545 -3.119,-12.817 -9.358,-12.817c-0.203,-0.017 -0.407,-0.026 -0.611,-0.026c-3.809,-0 -6.995,3.018 -7.202,6.822l-11.27,-2.017c2.077,-8.703 10.339,-14.605 19.245,-13.75c5.908,-0.35 11.669,1.983 15.667,6.346c3.722,4.57 5.608,10.369 5.288,16.254Zm8.545,15.788c-0.059,-1.722 0.635,-3.386 1.9,-4.555c1.292,-1.178 2.994,-1.806 4.742,-1.75c1.759,-0.06 3.475,0.568 4.779,1.75c1.263,1.171 1.955,2.837 1.892,4.559c0.061,1.698 -0.622,3.342 -1.871,4.496c-1.314,1.177 -3.037,1.798 -4.8,1.729c-1.751,0.064 -3.461,-0.556 -4.762,-1.729c-1.253,-1.154 -1.94,-2.799 -1.88,-4.5Zm0,-33.334c-0.063,-1.721 0.629,-3.387 1.892,-4.558c1.292,-1.179 2.994,-1.807 4.742,-1.75c1.759,-0.061 3.475,0.567 4.779,1.75c1.263,1.171 1.954,2.837 1.892,4.558c0.061,1.699 -0.623,3.342 -1.871,4.496c-1.315,1.177 -3.037,1.798 -4.8,1.729c-1.752,0.065 -3.461,-0.556 -4.763,-1.729c-1.246,-1.152 -1.93,-2.792 -1.871,-4.487l0,-0.009Z" style="fill:#293a50;fill-rule:nonzero;"/><path id="Path_211218" d="M254.867,625.833c-5.846,0.326 -11.562,-1.858 -15.7,-6c-1.89,1.971 -4.212,3.475 -6.784,4.392c-2.96,1.097 -6.097,1.642 -9.254,1.608c-4.28,0.238 -8.508,-1.053 -11.925,-3.641c-2.951,-2.528 -4.56,-6.292 -4.35,-10.171c-0.158,-3.945 1.756,-7.699 5.042,-9.888c4.517,-2.631 9.715,-3.864 14.933,-3.541l6.838,-0l-0,-2.342c0.098,-1.775 -0.5,-3.521 -1.667,-4.862c-1.271,-1.238 -3.01,-1.878 -4.779,-1.759c-1.869,-0.103 -3.721,0.41 -5.271,1.459c-1.198,0.801 -1.923,2.146 -1.933,3.587l-11.742,-0.762c-0.028,-3.987 1.976,-7.726 5.312,-9.909c4.064,-2.718 8.892,-4.066 13.775,-3.846c4.849,-0.304 9.628,1.305 13.305,4.48c3.686,-3.133 8.436,-4.735 13.266,-4.475c5.082,-0.277 10.04,1.676 13.567,5.345c3.476,4.116 5.24,9.414 4.925,14.792l-0,6.388l-27.2,-0c0.11,2.726 1.287,5.302 3.275,7.17c2.136,1.733 4.841,2.614 7.587,2.471c1.952,0.016 3.899,-0.199 5.8,-0.641c2.156,-0.576 4.238,-1.398 6.205,-2.451l3.133,7.692c-2.21,1.632 -4.699,2.845 -7.346,3.579c-2.924,0.877 -5.96,1.324 -9.012,1.325Zm-29.5,-8.625c1.495,-0.034 2.971,-0.345 4.354,-0.916c1.446,-0.536 2.783,-1.329 3.946,-2.342l-0,-7.7l-6.667,0c-2.177,-0.093 -4.326,0.521 -6.125,1.75c-1.398,0.938 -2.244,2.509 -2.258,4.192c-0.047,1.407 0.571,2.757 1.666,3.641c1.491,1.018 3.285,1.496 5.084,1.355l-0,0.02Zm28.562,-27.545c-2.205,-0.096 -4.347,0.761 -5.879,2.35c-1.623,1.913 -2.586,4.3 -2.746,6.804l15.529,-0l0,-1.146c0.137,-2.123 -0.491,-4.226 -1.771,-5.925c-1.299,-1.447 -3.192,-2.223 -5.133,-2.104l0,0.021Z" style="fill:#293a50;fill-rule:nonzero;"/><path id="Path_211217" d="M1430.83,611.563c0.176,5.498 -1.35,10.92 -4.366,15.52c-2.983,4.643 -8.197,7.391 -13.713,7.225c-5.454,0.03 -10.559,-2.736 -13.512,-7.32l-0,6.345l-10.617,0l0,-43.212l11.433,-0l0,5.046c3.057,-3.789 7.666,-6.003 12.534,-6.021c5.533,-0.278 10.834,2.325 13.995,6.875c3.005,4.609 4.49,10.045 4.246,15.541Zm-11.666,-0.775c0.122,-3.052 -0.599,-6.08 -2.084,-8.75c-1.515,-2.684 -4.42,-4.297 -7.5,-4.166c-6.389,0.014 -9.583,4.687 -9.583,14.021c-0.102,3.096 0.598,6.167 2.033,8.912c1.401,2.813 4.322,4.563 7.463,4.471c3.204,0.06 6.189,-1.667 7.733,-4.475c1.5,-3.112 2.16,-6.563 1.913,-10.008l0.025,-0.005Z" style="fill:#293a50;fill-rule:nonzero;"/></g></svg>