<svg xmlns="http://www.w3.org/2000/svg" xmlns:xlink="http://www.w3.org/1999/xlink" width="225" height="129" viewBox="0 0 225 129">
  <defs>
    <clipPath id="clip-path">
      <rect id="Rectangle_338751" data-name="Rectangle 338751" width="105.168" height="106.761" fill="none"/>
    </clipPath>
  </defs>
  <g id="_15" data-name="15" transform="translate(-743 -7796)">
    <rect id="Rectangle_338592" data-name="Rectangle 338592" width="225" height="129" rx="11" transform="translate(743 7796)" fill="#3c3fa7"/>
    <g id="Group_983621" data-name="Group 983621" transform="translate(803 7807)">
      <g id="Group_983620" data-name="Group 983620" clip-path="url(#clip-path)">
        <path id="Path_210550" data-name="Path 210550" d="M22.894,1.465A2.928,2.928,0,0,1,23.91,0h1.252a44.313,44.313,0,0,0,4.12,2.894A29.364,29.364,0,0,1,40.062,16.579c.511,1.31.374,1.749-.752,2.545-.79.653-1.339.1-1.855-.409a3.592,3.592,0,0,1-.677-1.278A26.7,26.7,0,0,0,26.842,5.322c-1-.684-2.018-1.345-3.026-2.019a2.189,2.189,0,0,1-1.072-1.578.4.4,0,0,1,.15-.26" transform="translate(-6.798)"/>
        <path id="Path_210551" data-name="Path 210551" d="M16.1,2.088c0,.068,0,.137,0,.2-.544.455-1.2.186-1.942.314.77.549,1.488,1.006,2.192,1.482A28.157,28.157,0,0,1,29.113,24.746a18.122,18.122,0,0,1,.161,2.7,80.179,80.179,0,0,0,.235,8.423,10.655,10.655,0,0,0,4.723,7.871C35.4,44.6,36.7,45.286,37.9,46.123c2.225,1.556,2.621,3.4,1.232,5.75a6.406,6.406,0,0,1-2.648.855,5.237,5.237,0,0,0-3.656,2.685,3.333,3.333,0,0,1-3.258,1.807c-2.847-.01-5.7.065-8.542-.02a7.071,7.071,0,0,0-7.1,7,7.166,7.166,0,0,0,6.915,7.224c2.638.068,5.278.009,7.918.019a3.089,3.089,0,0,1,1.433.167,1.175,1.175,0,0,1,.324,1.05c-.022,3.759-.878,7.234-3.541,10.058a15.891,15.891,0,0,1-3.729,2.813c-3.012,1.728-6.046,3.43-8.971,5.3a14.458,14.458,0,0,0-7.114,13.8c.036.644.327.827.916.831a2.963,2.963,0,0,1,1.728.21.205.205,0,0,1-.033.29c-2.188-.012-4.375-.03-6.563-.03a15.017,15.017,0,0,1-1.958-.175,1.332,1.332,0,0,1-1.23-1.307,5.308,5.308,0,0,1-.011-.832V4.432A6.455,6.455,0,0,1,.02,3.6C.128,2.783.5,2.267,1.431,2.277c2.361.025,4.725-.05,7.084.022,2.535.077,5.052-.259,7.581-.211" transform="translate(0 -0.623)" fill="#fedfce"/>
        <path id="Path_210552" data-name="Path 210552" d="M122.327,67.547c1.252.283,1.528,1.126,1.52,2.313-.04,6.255-.016,12.509-.02,18.765,0,2.646-1.31,3.938-3.984,3.938q-23.456,0-46.913,0c-2.736,0-4.01-1.276-4.016-4.01a4.224,4.224,0,0,1,.007-.832c.433-2.118-.45-3.375-2.472-4a12.1,12.1,0,0,1-1.946-.979,3.44,3.44,0,0,1,.049-6.277c1.207-.606,2.385-1.273,3.607-1.848a1.208,1.208,0,0,0,.768-1.289c-.025-4.8-.018-9.591-.012-14.386,0-2.518,1.339-3.877,3.844-3.877q23.613-.008,47.226,0c2.5,0,3.833,1.361,3.843,3.877,0,1.286-.021,2.572.008,3.857a1.639,1.639,0,0,1-1.5,1.9,1.6,1.6,0,0,1-1.948-1.586,26.939,26.939,0,0,1-.059-3.121c-.02-1.409-.072-1.472-1.462-1.486-9.3-.093-18.606-.022-27.91-.039q-8.541-.017-17.08,0c-.44,0-.914-.109-1.275.271a2.345,2.345,0,0,0-.206,1.421c-.007,4.309-.031,8.619.008,12.928a4.524,4.524,0,0,1-2.847,4.639c-.858.376-1.632.923-2.475,1.339-.268.132-.665.225-.633.6.029.341.4.447.675.588.862.45,1.737.879,2.607,1.312A4.381,4.381,0,0,1,72.4,85.9c-.018.66-.013,1.321,0,1.981.025,1.12.13,1.218,1.286,1.242.313.006.625,0,.938,0q21.062,0,42.123,0c.348,0,.695,0,1.043.015.416-.04.832-.017,1.247-.025,1.184-.023,1.294-.116,1.3-1.329.011-5.753,0-11.507.006-17.261a5.176,5.176,0,0,1,.192-1.851,1.512,1.512,0,0,1,1.8-1.126" transform="translate(-18.678 -16.456)"/>
        <path id="Path_210553" data-name="Path 210553" d="M34.389,80.467c-3.056-.012-6.112-.009-9.169-.04a7.44,7.44,0,0,1-1.594-14.7,11.371,11.371,0,0,1,2.382-.182c2.71-.024,5.42-.042,8.129,0A2.46,2.46,0,0,0,36.7,64a4.974,4.974,0,0,1,3.468-2.745q1.5-.4,3-.8c.452-.522,1.123-.5,1.709-.663.813-.231,1.529-.56,1.66-1.495.126-.9-.487-1.4-1.153-1.812-1.151-.71-2.277-1.458-3.4-2.215a12.858,12.858,0,0,1-5.831-9.84c-.14-1.386-.148-2.765-.177-4.149a54.008,54.008,0,0,0-.182-6.853,2.149,2.149,0,0,1,.142-1.228c.269-.575.578-1.132,1.374-1,1.39.18,1.73.584,1.887,2a85.652,85.652,0,0,1,.246,9.37,10.263,10.263,0,0,0,5.318,9.477c.984.582,1.926,1.235,2.89,1.852a4.965,4.965,0,0,1-1.411,9.075c-1.61.415-3.222.829-4.844,1.193a2.788,2.788,0,0,0-2.127,1.621A4.65,4.65,0,0,1,36.2,68.4a.925.925,0,0,0-.748.921A4.584,4.584,0,0,1,30.9,73.373c-2.987.05-5.976.016-8.963.021-1.067,0-1.124.1-.724,1.128A4.271,4.271,0,0,0,25.338,77.3c3.857.011,7.713,0,11.569,0,2.389,0,3.52,1.191,3.622,3.561.187,4.3-.789,8.184-3.792,11.418A17.726,17.726,0,0,1,32.6,95.4c-2.837,1.669-5.682,3.326-8.507,5.016a13.261,13.261,0,0,0-6.87,11.934c-.006.625,0,1.251,0,1.876,0,.937-.356,1.667-1.338,1.827a1.516,1.516,0,0,1-1.779-1.237,19.787,19.787,0,0,1-.225-4.56,2.876,2.876,0,0,1,.066-.531,4.631,4.631,0,0,0,.179-1.143,9.728,9.728,0,0,1,.855-2.719,16.264,16.264,0,0,0,1.257-2.495,2.426,2.426,0,0,1,.484-.705,7.463,7.463,0,0,0,.8-1.091,2.951,2.951,0,0,1,.467-.513c.5-.58,1.038-1.125,1.565-1.681a25.028,25.028,0,0,1,5.4-3.507,77.992,77.992,0,0,0,7.614-4.515,10.3,10.3,0,0,0,4.477-9.847c-.048-.56-.262-.8-.83-.82a3.158,3.158,0,0,1-1.829-.226" transform="translate(-4.141 -9.321)"/>
        <path id="Path_210554" data-name="Path 210554" d="M39.013,22.6c-.745.323-1.359.776-1.261,1.692.4,3.772.094,7.566.369,11.339a12.51,12.51,0,0,0,5.694,9.8c1.226.845,2.493,1.632,3.756,2.424A1.875,1.875,0,0,1,47,51.392l-2.128.461c.08-.622.538-1.1.612-1.739a3.47,3.47,0,0,0-1.693-3.533c-1.1-.721-2.2-1.433-3.305-2.15a11.031,11.031,0,0,1-5.289-7.6,33.136,33.136,0,0,1-.341-4.431c-.086-3.143.162-6.3-.423-9.423a28.855,28.855,0,0,0-5.39-12.118,32.025,32.025,0,0,0-8.607-7.532c-.34-.22-.732-.384-.891-.944h2.4a2.567,2.567,0,0,0,1.191,1.494c1.167.742,2.305,1.531,3.439,2.323A26.088,26.088,0,0,1,36.141,18.31c.534,1.364.888,1.6,2.212,1.526a15.573,15.573,0,0,1,.66,2.762" transform="translate(-5.84 -0.712)" fill="#fecebf"/>
        <path id="Path_210555" data-name="Path 210555" d="M76.253,59.679c.271-.334.647-.177.972-.177q23.244-.007,46.487-.014c.85,0,1.174.2,1.117,1.094-.073,1.141-.026,2.292-.014,3.438.012,1.286.382,1.725,1.635,1.99q-.006,1.427-.012,2.854c-1.327.4-1.623.773-1.624,2.131,0,6.2-.025,12.4.022,18.592.008.985-.292,1.294-1.226,1.179-.581-.071-1.174-.036-1.762-.05-.463-.534-.323-1.187-.325-1.8q-.014-13.292-.006-26.585c0-.243,0-.487,0-.73-.008-1.554-.021-1.574-1.566-1.575q-19.391,0-38.784,0c-1.251,0-2.5.015-3.753-.009a1.443,1.443,0,0,1-1.162-.339" transform="translate(-22.79 -17.773)" fill="#6be599"/>
        <path id="Path_210556" data-name="Path 210556" d="M13.951,143.645q-.025,2.388-.05,4.777l-.186-.162,0-.212a1.967,1.967,0,0,1-.268-1.2,9,9,0,0,0-.2-2.373c-.153-.527-.035-.983.7-.834" transform="translate(-3.942 -42.924)" fill="#fecebf"/>
        <path id="Path_210557" data-name="Path 210557" d="M12.948,131.024c-.35.038-.725.252-.548.569.7,1.249.224,2.558.31,3.834-.208-.008-.416-.021-.624-.022-2.253-.017-2.258-.016-2.252-2.322.016-5.957,2.887-10.2,7.879-13.2C21.148,117.817,24.744,116,28,113.665a11.579,11.579,0,0,0,5-9.223c.051-1,.21-1.989.18-2.994,3.141-.17,3.175-.168,2.961,2.917a10.607,10.607,0,0,1-5.486,8.795c-3.3,1.96-6.622,3.872-9.934,5.806a8.3,8.3,0,0,0-2.244,1.663,2.153,2.153,0,0,0-1.561,1.557l-.448.491c-.671.082-.567.707-.778,1.111l-.428.562a3.052,3.052,0,0,0-1.246,2.553,16.474,16.474,0,0,0-.848,2.661c-.4.3-.32.672-.17,1.058-.019.134-.037.268-.056.4" transform="translate(-2.939 -30.303)" fill="#fecebf"/>
        <path id="Path_210558" data-name="Path 210558" d="M73.486,59.77l44.257.006c1.345,0,1.346,0,1.346,1.353q0,14.839-.008,29.678c-.276.013-.554.036-.831.036q-21.877,0-43.756.025c-.963,0-1.188-.3-1.124-1.183a30.123,30.123,0,0,0,.009-3.02,3.426,3.426,0,0,0-1.906-3.121c-1.317-.7-2.638-1.389-3.966-2.061-.655-.33-.7-.585-.007-.929,1.21-.6,2.392-1.257,3.606-1.848A3.792,3.792,0,0,0,73.4,74.962c-.025-4.688-.011-9.376,0-14.065a2.4,2.4,0,0,1,.095-1.127" transform="translate(-20.024 -17.864)" fill="#9ef396"/>
        <path id="Path_210559" data-name="Path 210559" d="M25.349,86.235A3.835,3.835,0,0,1,28.175,84.7c2.357-.062,4.717-.039,7.076-.069.622-.008.624.3.406.714a1.6,1.6,0,0,1-1.528.891c-2.844,0-5.688,0-8.779,0" transform="translate(-7.576 -25.294)" fill="#faf6f6"/>
        <path id="Path_210560" data-name="Path 210560" d="M15.751,136.693A1.824,1.824,0,0,1,17,134.14q-.622,1.277-1.244,2.553" transform="translate(-4.667 -40.091)" fill="#fecebf"/>
        <path id="Path_210561" data-name="Path 210561" d="M19.944,130.389c.039-1.185.336-1.481,1.561-1.557l-1.561,1.557" transform="translate(-5.961 -38.505)" fill="#fecebf"/>
        <path id="Path_210562" data-name="Path 210562" d="M18.178,132.831c.17-.433-.537-1.48.778-1.111a2.887,2.887,0,0,1-.778,1.111" transform="translate(-5.421 -39.345)" fill="#fecebf"/>
        <path id="Path_210563" data-name="Path 210563" d="M14.152,142.634c-.667-.469-.659-.829.17-1.058a1.668,1.668,0,0,1-.17,1.058" transform="translate(-4.087 -42.314)" fill="#fecebf"/>
        <path id="Path_210564" data-name="Path 210564" d="M121.19,67.017c-1.571,0-2.941.015-4.311-.006a1.585,1.585,0,0,1-1.608-1.086,1.478,1.478,0,0,1,.477-1.686,1.575,1.575,0,0,1,1.163-.348c2.569,0,5.137.009,7.705,0a1.584,1.584,0,0,1,1.174,2.8q-2.645,2.872-5.291,5.742c-.228.247-.452.5-.829.913,1.435,0,2.664,0,3.894,0a2.708,2.708,0,0,1,1.126.14,1.464,1.464,0,0,1,.973,1.651,1.414,1.414,0,0,1-1.484,1.324c-2.707.018-5.415.006-8.122.009a1.447,1.447,0,0,1-1.4-.9,1.547,1.547,0,0,1,.355-1.815q2.683-2.907,5.367-5.812c.228-.247.444-.5.81-.92" transform="translate(-34.222 -19.094)"/>
        <path id="Path_210565" data-name="Path 210565" d="M95.83,63.9a2.116,2.116,0,0,1,2.228,1.17q1.989,4.627,3.884,9.293a1.52,1.52,0,0,1-.829,2,1.552,1.552,0,0,1-2.019-.782c-.033-.06-.066-.121-.1-.183-.358-.692-.356-1.838-1.069-2.016a14.7,14.7,0,0,0-3.52-.088c-.359,0-.407.318-.513.567-.243.574-.456,1.163-.74,1.715a1.519,1.519,0,0,1-2.014.78,1.5,1.5,0,0,1-.82-1.983q1.872-4.62,3.82-9.208A1.939,1.939,0,0,1,95.83,63.9" transform="translate(-26.959 -19.098)"/>
        <path id="Path_210566" data-name="Path 210566" d="M113.508,86.5q5.361,0,10.724,0c1.244,0,1.953.541,1.988,1.487.036.979-.733,1.634-1.982,1.635q-10.723.009-21.447,0a1.714,1.714,0,0,1-1.831-1.075,1.469,1.469,0,0,1,.384-1.62,1.762,1.762,0,0,1,1.441-.436q5.363,0,10.724,0" transform="translate(-30.143 -25.852)"/>
        <path id="Path_210567" data-name="Path 210567" d="M96.459,98.4q-4.9,0-9.8,0c-1.331,0-2.052-.538-2.073-1.515-.022-1,.751-1.608,2.117-1.609q9.8-.007,19.6,0c.139,0,.278,0,.417,0,1.1.071,1.805.739,1.759,1.65a1.592,1.592,0,0,1-1.8,1.468c-3.405.013-6.811,0-10.216,0" transform="translate(-25.281 -28.474)" fill="#000100"/>
        <path id="Path_210568" data-name="Path 210568" d="M126.25,98.4c-1.351,0-2.7.015-4.054,0-1.113-.016-1.722-.552-1.751-1.486a1.548,1.548,0,0,1,1.745-1.624q4.053-.046,8.107,0a1.612,1.612,0,0,1,1.777,1.618,1.582,1.582,0,0,1-1.771,1.492c-1.351.02-2.7,0-4.054,0" transform="translate(-35.998 -28.471)" fill="#010101"/>
        <path id="Path_210569" data-name="Path 210569" d="M89.573,86.5c1.111,0,2.221-.018,3.331.006a1.484,1.484,0,0,1,1.662,1.468,1.52,1.52,0,0,1-1.625,1.637c-2.22.04-4.442.036-6.661,0a1.564,1.564,0,1,1,.067-3.11c1.075-.017,2.151,0,3.227,0" transform="translate(-25.282 -25.85)" fill="#000100"/>
        <path id="Path_210570" data-name="Path 210570" d="M109.8,73.741a10.261,10.261,0,0,1-1.24-.072,1.39,1.39,0,0,1-1.235-1.437,1.364,1.364,0,0,1,1.113-1.531,7.146,7.146,0,0,1,2.884-.009,1.373,1.373,0,0,1,1.146,1.514,1.409,1.409,0,0,1-1.321,1.475,10.905,10.905,0,0,1-1.346.01c0,.016,0,.033,0,.05" transform="translate(-32.075 -21.086)" fill="#010101"/>
        <path id="Path_210571" data-name="Path 210571" d="M99.059,72.079c-.433.133-.986.242-1.117,0-.257-.486.258-.923.416-1.475a3.824,3.824,0,0,1,.7,1.479" transform="translate(-29.251 -21.101)" fill="#88d181"/>
      </g>
    </g>
  </g>
</svg>
