<svg xmlns="http://www.w3.org/2000/svg" xmlns:xlink="http://www.w3.org/1999/xlink" width="225" height="129" viewBox="0 0 225 129">
  <defs>
    <clipPath id="clip-path">
      <rect id="Rectangle_338753" data-name="Rectangle 338753" width="129.987" height="116.188" fill="none"/>
    </clipPath>
  </defs>
  <g id="_17" data-name="17" transform="translate(-8765 3904)">
    <rect id="Rectangle_338609" data-name="Rectangle 338609" width="225" height="129" rx="11" transform="translate(8765 -3904)" fill="#3c3fa7"/>
    <g id="Group_983627" data-name="Group 983627" transform="translate(8813 -3898)">
      <g id="Group_983626" data-name="Group 983626" clip-path="url(#clip-path)">
        <path id="Path_210585" data-name="Path 210585" d="M32.343,108.261c-.425,1.838-1.543,2.33-3.283,1.44-10.654-5.443-18.9-13.51-25.475-23.392-.934-1.4-1.827-2.84-2.666-4.3a6.538,6.538,0,0,1,.8-7.764Q8.7,66.346,16.25,59c1.279-1.243,2.234-1.175,3.382.2.746.527.483,1.181.191,1.8a5.317,5.317,0,0,1-1.22,1.449c-3.953,3.878-7.768,7.889-11.626,12.176,3.023-.66,5.849-1.257,8.668-1.88,8.219-1.818,16.407-3.777,24.667-5.4a137.059,137.059,0,0,1,15.325-2.038c2.953-.24,5.92-.3,8.859-.342,3.228-.047,6.494.119,9.743.346a129.479,129.479,0,0,1,18.69,2.679q14.133,3.092,28.245,6.268a9.655,9.655,0,0,0,1.81.305c-1.415-1.476-2.617-2.8-3.85-4.074a212.113,212.113,0,0,0-18.977-17.758c-.692-.557-1.441-1.044-2.112-1.624a1.6,1.6,0,0,0-2.271,0c-2.218,1.624-4.451,3.228-6.684,4.834-.378.272-.76.536-1.141.8a4.456,4.456,0,0,1-4.912.4,4.562,4.562,0,0,1-2.361-4.218c-.066-2.071-.014-4.146-.018-6.219a10.344,10.344,0,0,0-.031-1.268,1.557,1.557,0,0,0-2.109-1.526A17.263,17.263,0,0,0,68.335,49.9,4.837,4.837,0,0,1,65.717,52,3.867,3.867,0,0,1,61.6,50.413a15.921,15.921,0,0,0-5.463-4.64c-5.983-2.934-11.8-3.079-17.6.569A100.769,100.769,0,0,0,27,54.833a6,6,0,0,1-1.429,1.043c-.684.294-1.382.463-1.95-.252-1.217-1.131-1.369-2.165-.284-3.107,4.822-4.184,9.776-8.2,15.561-11.021A21.26,21.26,0,0,1,64.15,46.922c.508.606.735.75,1.234.023a11.111,11.111,0,0,1,2.3-2.354c.82-.65,1.669-1.264,2.506-1.894-.169-.335-.551-.352-.839-.507a8.411,8.411,0,0,1-4.737-7.671c-.07-3.127-.03-6.256-.012-9.385.009-1.508.421-1.979,1.917-2.365,1.306-.179,2.047.458,2.117,1.941.084,1.731.02,3.465.029,5.2.007,1.31-.039,2.622.016,3.93.141,3.377,1.94,5.1,5.295,5.117,1.48.006,2.958-.011,4.438,0A6.623,6.623,0,0,1,85.154,45.7c.02,1.9,0,3.8.011,5.705,0,.451-.19,1.061.239,1.3.454.258.827-.276,1.188-.534,5.329-3.808,10.618-7.672,15.925-11.511a8.618,8.618,0,0,1,5.427-1.736c4.309.084,8.62.029,12.931.024a4.526,4.526,0,0,0,4.111-2.052,5.768,5.768,0,0,0,.8-3.153c0-8.159.01-16.319-.01-24.477-.007-3.181-1.742-4.952-4.905-5.087-.929-.04-1.86-.014-2.79-.014q-21.751,0-43.5-.008a7.228,7.228,0,0,0-3.9.89c-1.59,1-1.907,2.616-1.981,4.287-.091,2.066.02,4.139-.041,6.206-.053,1.812-.843,2.39-2.616,2a1.924,1.924,0,0,1-1.439-2c-.009-2.453-.1-4.913.048-7.358.3-4.876,3.938-8.172,8.9-8.176q20.493-.02,40.987,0c2.284,0,4.568-.028,6.852.007a8.574,8.574,0,0,1,8.336,6.521c.054.2.022.429.258.536V36.011c-.884,4.743-4.13,7.415-9.057,7.429-4.187.013-8.375.031-12.562-.014a5.374,5.374,0,0,0-3.542,1.094c-1.034.8-2.078,1.6-3.179,2.315-.65.422-.776.811-.081,1.344,7.437,5.708,14.01,12.352,20.575,19.006,2.227,2.256,4.32,4.639,6.449,6.987a4.551,4.551,0,0,1,1.266,3.472,15.977,15.977,0,0,1-.07,2.348,3.765,3.765,0,0,1-.58,1.789c-6.978,11.961-16.1,21.752-28.589,28.1a59.56,59.56,0,0,1-23.8,6.281c-2.881.17-5.587-.737-8.36-1.247a17.166,17.166,0,0,0-8.161.267c-4.775,1.453-9.53.942-14.3.17a54.678,54.678,0,0,1-6.532-1.5c-1.947-.567-2.378-1.644-1.4-3.413.6-1.056,1.55-.876,2.45-.616a58.976,58.976,0,0,0,9.309,1.874,22.148,22.148,0,0,0,9.025-.459,19.308,19.308,0,0,1,10.657-.3c5.737,1.636,11.308.951,16.893-.32a55.6,55.6,0,0,0,24.693-12.867,72.726,72.726,0,0,0,12.774-15.171,2.586,2.586,0,0,1,.528-.624c-3.12,1.289-6.111,2.415-9.129,3.474a138.564,138.564,0,0,1-13.734,4.05,5.357,5.357,0,0,1-1,.148c-1.689.073-2.442-.623-2.566-2.368.2-1.374,1.244-1.826,2.39-2.118,3.276-.834,6.558-1.643,9.767-2.72.441-.147.879-.3,1.316-.459,2.967-.945,5.9-1.965,8.981-3.286-9.107-2-17.988-3.99-26.888-5.913a139.223,139.223,0,0,0-19.4-2.927c-3.079-.258-6.174-.337-9.235-.341a100.9,100.9,0,0,0-10.121.4A142.131,142.131,0,0,0,36.5,72.77C27.614,74.694,18.732,76.657,9.569,78.7c3.2,1.289,6.151,2.373,9.165,3.3a144.794,144.794,0,0,0,27.525,6.165c4.817.606,9.656.878,14.512,1.073A149.51,149.51,0,0,0,89.4,87.364a13.007,13.007,0,0,1,1.761-.192,2.078,2.078,0,0,1,2.172,1.209c.413,1.974-.163,2.926-2.1,3.26a148.389,148.389,0,0,1-15.6,1.867c-3.542.229-7.094.462-10.63.431a156.58,156.58,0,0,1-44.5-6.591c-4.9-1.492-9.712-3.218-14.474-5.194-.162.285.112.436.217.6a67.007,67.007,0,0,0,17.7,19c2.289,1.613,4.738,2.948,7.136,4.375.78.464,1.719.9,1.27,2.132" transform="translate(0 0)" fill="#060102"/>
        <path id="Path_210586" data-name="Path 210586" d="M157.687,93.99a1.466,1.466,0,0,1,.222.041v2.538l-.2.065q-.011-1.322-.021-2.644" transform="translate(-27.921 -16.643)" fill="#515151"/>
        <path id="Path_210587" data-name="Path 210587" d="M99.3,104.9c.285,1.8,1.131,2.305,3.086,1.834a156.5,156.5,0,0,0,22.471-7.355l1.178-.479c-.351.615-.565,1.033-.816,1.426-6.522,10.2-14.812,18.513-25.771,23.933a55.568,55.568,0,0,1-21.8,5.61,17.118,17.118,0,0,1-5.371-.755,21.078,21.078,0,0,0-11.4-.183c-4.994,1.451-9.868.778-14.778-.137a46.036,46.036,0,0,1-4.539-1.138,2.715,2.715,0,0,0-2.409.3l-5.715-2.183c-.071-1.083-.816-1.564-1.683-2.015-10.766-5.59-18.9-13.934-25.246-24.153-.089-.142-.153-.3-.33-.649,1.9.741,3.631,1.427,5.371,2.093A151.667,151.667,0,0,0,47.6,109.926a156.635,156.635,0,0,0,30.75.658c4.675-.351,9.321-.98,13.947-1.747,1.65-.273,2.144-.968,1.968-2.747.026-.081.045-.194.108-.219A9.9,9.9,0,0,1,99.3,104.9" transform="translate(-1.094 -17.512)" fill="#d72f3c"/>
        <path id="Path_210588" data-name="Path 210588" d="M24.931,64.9c1.164.551,2.01-.035,2.847-.76a85.14,85.14,0,0,1,9.984-7.592A27.618,27.618,0,0,1,46.1,52.657c2.66-.636,5.227.012,7.768.652a16.351,16.351,0,0,1,9.534,6.43A3.255,3.255,0,0,0,68.89,59.6a17.433,17.433,0,0,1,10.818-6.735c1.647-.371,2.578.338,2.612,2.062.045,2.325.039,4.652.007,6.978a4.241,4.241,0,0,0,7.065,3.641c2.585-1.907,5.23-3.734,7.787-5.676a1.477,1.477,0,0,1,2.16.05,195.192,195.192,0,0,1,22.052,20.387c1.168,1.222,2.3,2.476,3.447,3.72.048.052.04.155.092.378-2.926-.648-5.784-1.3-8.652-1.911-9.492-2.014-18.9-4.438-28.462-6.1A130.076,130.076,0,0,0,57.5,74.893c-10.423.64-20.53,3.009-30.666,5.266q-9.326,2.075-18.652,4.153c-.161.035-.331.034-.768.076.99-1.1,1.826-2.053,2.687-2.982q4.917-5.3,10.1-10.349a2.107,2.107,0,0,0,.743-2.574L24.931,64.9" transform="translate(-1.313 -9.278)" fill="#db4955"/>
        <path id="Path_210589" data-name="Path 210589" d="M80.251,18.592c1.768-.006,2.342-.557,2.357-2.335.018-2.112-.008-4.224.012-6.336A4.536,4.536,0,0,1,84.55,5.89c.518.572.355,1.28.356,1.939q.019,12.945.008,25.891c0,.508-.016,1.015.018,1.522a2.54,2.54,0,0,0,2.824,2.712,47.956,47.956,0,0,1,5.7.161c4.862.735,7.709,3.9,7.942,8.858.028.592,0,1.185.023,1.777.018.371-.066.839.321,1.033s.722-.123,1.024-.345c2.079-1.53,4.222-2.969,6.285-4.52,2.232-1.679,4.539-3.253,6.769-4.934a10.553,10.553,0,0,1,6.433-2.012c5.2-.051,10.407-.021,15.61-.01.538,0,1.115-.084,1.549.377a4.533,4.533,0,0,1-4.118,2c-4.436,0-8.873.044-13.308-.019a8.029,8.029,0,0,0-5.051,1.658q-8.228,6.02-16.52,11.951c-.348.251-.67.821-1.17.538-.4-.228-.185-.773-.188-1.174-.017-2.112,0-4.225-.012-6.337a6.293,6.293,0,0,0-6.592-6.614c-1.606-.008-3.211.012-4.817-.006a4.77,4.77,0,0,1-5.013-5.023c-.04-3.042,0-6.084-.016-9.126-.009-1.56-.361-1.978-1.883-2.378,0-1.346-.008-2.693.022-4.039a1.2,1.2,0,0,0-.494-1.183" transform="translate(-14.21 -1.043)" fill="#94cbd3"/>
        <path id="Path_210590" data-name="Path 210590" d="M140.337,38.118c-5.835,0-11.671-.063-17.5.013a10.322,10.322,0,0,0-6.208,2.154c-4.335,3.263-8.757,6.412-13.153,9.6-.328.237-.706.541-1.157.277s-.344-.735-.342-1.146a13.567,13.567,0,0,0-.769-5.838c-1.6-3.513-4.5-4.944-8.193-5.063-1.478-.047-2.959,0-4.439-.008-2.04,0-3.094-1.052-3.1-3.132q-.016-8.753,0-17.505,0-5.9.006-11.8A4.283,4.283,0,0,1,88.519,4.65q23.905-.011,47.811,0a4.748,4.748,0,0,1,4.977,5.056q.015,12.682,0,25.364a4.245,4.245,0,0,1-.975,3.045" transform="translate(-15.133 -0.822)" fill="#a9d7dd"/>
        <path id="Path_210591" data-name="Path 210591" d="M20.364,97.439a60.366,60.366,0,0,1-9.66-3.72q4.567-1.023,9.134-2.047,8.753-1.945,17.51-3.876a6.328,6.328,0,0,1,.752-.077,115.723,115.723,0,0,1,13.81-1.55c2.063-.113,4.123-.334,6.193-.332,5.1.006,10.208-.075,15.313,0A160.61,160.61,0,0,1,93.954,87.4c.574.082,1.145.237,1.724.323,4.485.959,8.973,1.9,13.454,2.882,4.645,1.015,9.283,2.065,14.272,3.177a77.937,77.937,0,0,1-9.972,3.656c-2.918.656-5.8,1.442-8.746,2-6.108,1.159-12.262,1.979-18.439,2.595a196.5,196.5,0,0,1-26.951.775,199.26,199.26,0,0,1-33.413-4.013c-1.856-.39-3.651-1.019-5.519-1.355" transform="translate(-1.895 -15.193)" fill="#f9f7f7"/>
        <path id="Path_210592" data-name="Path 210592" d="M22.442,99.936c2.13-.007,4.121.755,6.183,1.127,4.418.8,8.843,1.54,13.291,2.166,4.785.673,9.595,1.109,14.4,1.452,6.787.483,13.6.388,20.4.26,3.736-.071,7.476-.371,11.2-.754s7.418-.826,11.115-1.373q7.794-1.152,15.473-2.874a4.7,4.7,0,0,1,1.01-.007,94.236,94.236,0,0,1-11.24,3.271c-1.053.262-1.917.661-2.093,1.87l-5.036,1.194c-.682-1.209-1.764-1.21-2.94-1a143.988,143.988,0,0,1-15.218,1.806,148.193,148.193,0,0,1-24.821-.378,146.9,146.9,0,0,1-30.923-6.419c-.273-.089-.532-.226-.8-.342" transform="translate(-3.974 -17.69)" fill="#efe8e5"/>
        <path id="Path_210593" data-name="Path 210593" d="M101.573,87.4c-2.173-.179-4.361-.25-6.511-.574-1.334-.2-2.681-.244-4.005-.347-5.583-.436-11.178-.683-16.785-.579-3.779.069-7.569-.147-11.338.058-4.1.224-8.2.46-12.3.881a42.893,42.893,0,0,1-6.641.557A86.719,86.719,0,0,1,55.407,85.21a123.968,123.968,0,0,1,23.524-1.057,129.388,129.388,0,0,1,22.434,3.113c.076.017.138.091.207.137" transform="translate(-7.79 -14.874)" fill="#efe8e5"/>
        <path id="Path_210594" data-name="Path 210594" d="M114.593,31.386a8.655,8.655,0,0,1-5.719,1.035,7.911,7.911,0,0,1-6.533-5.958,7.743,7.743,0,0,1,2.525-8.361,7.941,7.941,0,0,1,8.753-1.314c.571.233,1.048.727,1.29-.421a1.6,1.6,0,0,1,1.909-1.113,1.718,1.718,0,0,1,1.6,1.4,5.019,5.019,0,0,1,.109,1.127c.007,4.352,0,8.7.007,13.054a2.6,2.6,0,0,1-.593,2c-1.174,1.178-2.736.522-3.347-1.451" transform="translate(-18.061 -2.698)"/>
        <path id="Path_210595" data-name="Path 210595" d="M96.037,10.087c.549,0,1.1-.022,1.647,0a1.853,1.853,0,0,1,1.956,1.871,1.734,1.734,0,0,1-1.806,1.87c-1.7-.2-1.659.7-1.65,1.907q.059,8.047,0,16.093c-.007.876.225,1.162,1.123,1.134,1.542-.048,2.338.64,2.346,1.834.009,1.243-.84,1.93-2.428,1.949-.886.01-1.775.026-2.661-.006-1.4-.049-2.151-.723-2.156-2.108q-.041-11.213,0-22.428c0-1.485.712-2.086,2.238-2.122.465-.011.929,0,1.394,0Z" transform="translate(-16.359 -1.785)"/>
        <path id="Path_210596" data-name="Path 210596" d="M142.464,23.439c0,3.595.007,7.188,0,10.783,0,1.854-.669,2.51-2.526,2.526-.93.007-1.862.04-2.79-.013a1.95,1.95,0,0,1-1.982-2.028,1.837,1.837,0,0,1,2.084-1.735c1.2.09,1.446-.34,1.434-1.469-.058-5.5-.044-10.994-.007-16.491.006-.853-.171-1.174-1.1-1.149-1.541.044-2.453-.78-2.4-1.971.048-1.143.92-1.8,2.431-1.81.846-.007,1.692-.012,2.537,0,1.636.026,2.307.676,2.315,2.317.016,3.679,0,7.358,0,11.036" transform="translate(-23.933 -1.784)"/>
        <path id="Path_210597" data-name="Path 210597" d="M128.945,9.892a1.911,1.911,0,0,1,1.8,2.482c-.542,1.729-1.147,3.441-1.8,5.132a1.852,1.852,0,0,1-2.472,1.15,1.915,1.915,0,0,1-1.053-2.518c.526-1.6,1.1-3.189,1.653-4.781a2.034,2.034,0,0,1,1.871-1.465" transform="translate(-22.186 -1.752)" fill="#000101"/>
        <path id="Path_210598" data-name="Path 210598" d="M111.133,20.9a4.426,4.426,0,0,1,4.4,4.458,4.514,4.514,0,0,1-4.495,4.408,4.439,4.439,0,0,1-4.366-4.5,4.35,4.35,0,0,1,4.458-4.367" transform="translate(-18.889 -3.701)" fill="#a9d7dd"/>
      </g>
    </g>
  </g>
</svg>
