<svg xmlns="http://www.w3.org/2000/svg" xmlns:xlink="http://www.w3.org/1999/xlink" width="225" height="129" viewBox="0 0 225 129">
  <defs>
    <clipPath id="clip-path">
      <rect id="Rectangle_338754" data-name="Rectangle 338754" width="98" height="108.083" fill="none"/>
    </clipPath>
  </defs>
  <g id="_18" data-name="18" transform="translate(-9499 3904)">
    <rect id="Rectangle_338612" data-name="Rectangle 338612" width="225" height="129" rx="11" transform="translate(9499 -3904)" fill="#3c3fa7"/>
    <g id="Group_983630" data-name="Group 983630" transform="translate(9563 -3894)">
      <g id="Group_983629" data-name="Group 983629" clip-path="url(#clip-path)">
        <path id="Path_210599" data-name="Path 210599" d="M42.452,0a8.334,8.334,0,0,1,2.642,1.436A5.445,5.445,0,0,1,46.85,5.477q.02,14.3,0,28.6a3.012,3.012,0,0,1-2.358,3.092,2.969,2.969,0,0,1-3.586-1.479c-1.337-2.144-2.675-4.289-3.958-6.466a1.587,1.587,0,0,0-1.584-.885q-14.776.043-29.552.015c-2.964,0-5.048-1.549-5.671-4.2a7.521,7.521,0,0,1-.136-1.673Q-.008,14.511,0,6.542C0,2.733.958,1.326,4.454,0Z" transform="translate(0)"/>
        <path id="Path_210600" data-name="Path 210600" d="M49.365,142.613c-3.482,0-6.965-.012-10.447,0a30.25,30.25,0,0,1-16.924-4.971q-9.235-5.986-18.471-11.972c-1.141-.74-1.419-1.337-.911-2.442,5.4-11.763,12.8-21.946,23.65-29.293A19.3,19.3,0,0,1,37.619,90.29a19.77,19.77,0,0,1,11.147,3.618c.438.307.729.469,1.274.1,7.369-4.944,14.833-4.933,22.322-.285,6.164,3.826,10.979,9.069,15.294,14.806a68.641,68.641,0,0,1,8.52,14.36c.626,1.473.478,1.978-.826,2.816C88.97,129.8,82.6,133.914,76.2,137.978a29.571,29.571,0,0,1-16.068,4.633c-3.588.012-7.176,0-10.764,0" transform="translate(-0.906 -34.534)"/>
        <path id="Path_210601" data-name="Path 210601" d="M112.351,28.243c1.387-.111,2.8.246,4.168-.211.52.652.919,1.45,1.889,1.56,1.478.106,2.954.01,4.428.049,1.227.031,1.6.34,1.9,1.532a6.447,6.447,0,0,1,.166,1.568q.006,8.064,0,16.128a3.776,3.776,0,0,1-.925,2.924,4,4,0,0,1-1.865.214c-8.26.006-16.521.02-24.781-.01-1.847-.007-3.676-.12-4.975,1.554a2.856,2.856,0,0,1-1.038.141,2.377,2.377,0,0,0-2.07,1.048,4.188,4.188,0,0,1-.537.648c-.509.459-.774.375-.913-.282a3.025,3.025,0,0,1-.037-.63c.006-7.688-.025-15.376.012-23.064a2.4,2.4,0,0,1,2.192-1.961A7.868,7.868,0,0,1,91.44,29.4c5.868,0,11.736-.024,17.6.019a3.785,3.785,0,0,0,3.308-1.171" transform="translate(-33.572 -10.724)" fill="#e9f8f9"/>
        <path id="Path_210602" data-name="Path 210602" d="M90.443,52.473c.676-1.388,1.81-1.661,3.284-1.651,9.023.061,18.045.031,27.068.027.419,0,.838-.042,1.256-.064a2.732,2.732,0,0,1,1.818-.349c1.611-.038,2.212-.608,2.277-2.223.04-.981.012-1.964.012-2.946q0-6.682,0-13.364c0-2.068-.648-2.583-2.676-2.8-2.446-.263-4.894-.07-7.335-.26a1.692,1.692,0,0,1-1.518-1.725A1.739,1.739,0,0,1,116.6,25.64c2.532.025,5.065-.01,7.6.013a5.367,5.367,0,0,1,5.463,5.486q.037,8.652,0,17.3A5.331,5.331,0,0,1,124.181,54c-2.6.057-5.205.014-7.808.014-7.386,0-14.772.009-22.158-.015a1.413,1.413,0,0,0-1.428.779c-1.262,2.147-2.588,4.258-3.9,6.376-.974,1.574-2.136,2.089-3.7,1.663a3.1,3.1,0,0,1-2.373-3.4q0-13.98,0-27.961a5.453,5.453,0,0,1,5.8-5.814q9.866-.01,19.732,0c1.381,0,1.769.318,2.111,1.679-.28,1.15-1.04,1.506-2.179,1.5-6.561-.03-13.122-.017-19.683-.012a2.163,2.163,0,0,0-2.446,1.657,2.383,2.383,0,0,0-.09,1.14c-.007,5.732.031,11.465-.019,17.2-.028,3.231.153,6.452.276,9.775,1.005-1.424,1.789-2.906,2.71-4.3a5.333,5.333,0,0,1,1.415-1.811" transform="translate(-31.681 -9.809)"/>
        <path id="Path_210603" data-name="Path 210603" d="M41.445,29.2a5.187,5.187,0,0,1-.47-.683A2.4,2.4,0,0,0,38.5,27.133c-10.025.03-20.051.017-30.076.016-.387,0-.776.011-1.16-.02a2.128,2.128,0,0,1-2.116-2.181q-.033-8.811,0-17.623A2.182,2.182,0,0,1,7.586,5.13q5.963-.02,11.925,0,10.763.013,21.526.034a1.978,1.978,0,0,1,.953,1.971c.046,1.44.016,2.88.017,4.321,0,5.411.012,10.821-.015,16.231,0,.533.238,1.231-.547,1.515" transform="translate(-1.961 -1.959)" fill="#e9f8f9"/>
        <path id="Path_210604" data-name="Path 210604" d="M63.695,29.2c.383-.339.218-.791.219-1.192.01-6.784,0-13.568.021-20.353a4.248,4.248,0,0,0-.647-2.494c.7-.011,1.4-.04,2.1-.031a2.294,2.294,0,0,1,2.5,2.478c.027,1.685.007,3.371.007,5.057,0,7.688,0,15.377-.2,23.177L63.695,29.2" transform="translate(-24.211 -1.963)" fill="#c8eef1"/>
        <path id="Path_210605" data-name="Path 210605" d="M62.5,159.927c-7.241,0-14.484.093-21.723-.032a22.3,22.3,0,0,1-11.327-3.238c-5.745-3.512-11.366-7.227-17.332-11.044,1.817-.219,3.316-.426,4.819-.576a174.036,174.036,0,0,1,21.993-1.1c4.637.124,9.271.378,13.669,2.1a1.633,1.633,0,0,0,1.233-.015c4.433-1.74,9.1-1.977,13.777-2.089a149.622,149.622,0,0,1,19.155.874c.054.571-.39.786-.763,1.026-6.138,3.95-12.264,7.918-18.441,11.807a16.406,16.406,0,0,1-5.061,2.285" transform="translate(-4.636 -55.049)" fill="#e659a9"/>
        <path id="Path_210606" data-name="Path 210606" d="M13.7,119.021c4.988-8.17,10.827-15.582,19.069-20.732,6.893-4.307,13.474-3.824,19.88,1.248.87.689,1.489.661,2.436-.129a15.486,15.486,0,0,1,7.6-3.6A16.134,16.134,0,0,1,67.2,98.415a59.166,59.166,0,0,1,8.637,8.131,82.345,82.345,0,0,1,7.569,10.086c.268.408.754.8.369,1.4-5.112-2.034-10.27-3.963-15.317-6.147a9.9,9.9,0,0,0-7.406-.461c-5.662,1.756-11.387,1.112-16.986-.7-1.428-.463-2.017-.2-2.541,1.132-.272.571-.811.482-1.286.486-2,.02-4,.053-6-.006a10.8,10.8,0,0,0-4.505.879c-4.735,1.957-9.494,3.852-14.253,5.749a5.515,5.515,0,0,1-1.088.39c-.285.049-.651.17-.7-.33" transform="translate(-5.242 -36.483)" fill="#e659a9"/>
        <path id="Path_210607" data-name="Path 210607" d="M45.768,123.4a2.625,2.625,0,0,0,1.5,1.066,31.978,31.978,0,0,0,20.789.214,1.451,1.451,0,0,1,1.1-.007q10.58,4.263,21.173,8.5a6.224,6.224,0,0,1,.575.345,48.594,48.594,0,0,1-6.078-.292c-7.312-.408-14.618-.648-21.887.538a25.929,25.929,0,0,0-3.786.889,3.749,3.749,0,0,1-2.411-.015,48.082,48.082,0,0,0-12.812-1.7c-6.441-.18-12.862.2-19.321.654q3.481-1.4,6.962-2.794,4.439-1.784,8.876-3.573c1.363-.553,1.543-.855,1.463-2.3a8.08,8.08,0,0,1,3.857-1.53" transform="translate(-9.415 -47.207)" fill="#fefefe"/>
        <path id="Path_210608" data-name="Path 210608" d="M114.127,118.049a2.029,2.029,0,0,0-.5-1.131,82.251,82.251,0,0,0-7.742-10.288,53.673,53.673,0,0,0-9.754-8.869c-1.014-.678-2.07-1.294-3.106-1.939a13.762,13.762,0,0,1,9.242.956A33.74,33.74,0,0,1,112,103.556a74.712,74.712,0,0,1,14.071,18.593c.115.212.218.433.477.95l-12.419-5.051" transform="translate(-35.59 -36.498)" fill="#df3d9b"/>
        <path id="Path_210609" data-name="Path 210609" d="M93.717,160.493c1.891-1.056,3.932-1.807,5.756-3.017,3.556-2.358,7.183-4.61,10.78-6.905q3.45-2.2,6.9-4.4a2.788,2.788,0,0,0,.827-.795l7.144.711c-.155.494-.526.58-.8.757q-7.3,4.7-14.61,9.384a26.808,26.808,0,0,1-16,4.265" transform="translate(-35.852 -55.615)" fill="#df3d9b"/>
        <path id="Path_210610" data-name="Path 210610" d="M40.192,122.889l-3.857,1.53c-.892-1.072-1.342-1.175-2.746-.611l-22.616,9.076c-.253.1-.508.2-.939.372a27.781,27.781,0,0,1,2.265-4.02c.279.355.557.119.842,0q7.681-3.1,15.366-6.194a9.588,9.588,0,0,1,3.873-.793c2.173.06,4.349.017,6.524.015a2.015,2.015,0,0,0,1.223-.2l.067.82" transform="translate(-3.839 -46.699)" fill="#df3d9b"/>
        <path id="Path_210611" data-name="Path 210611" d="M136.8,30.809c2.672-.009,5.345-.04,8.017-.018a2.186,2.186,0,0,1,2.332,2.312q.028,8.7,0,17.41a2.129,2.129,0,0,1-2.132,2.273c-.766.051-1.541-.018-2.311-.033a7.9,7.9,0,0,0,.649-3.373c-.035-5.169-.015-10.34-.015-15.509,0-.211,0-.422,0-.633-.055-1.917-.4-2.214-2.258-2.268a17.333,17.333,0,0,1-4.279-.161" transform="translate(-52.334 -11.777)" fill="#c8eef1"/>
        <path id="Path_210612" data-name="Path 210612" d="M92.39,55.468,88.14,62.523l-.222-.076V57.759q0-11.535,0-23.071c0-.409-.117-.847.174-1.219V57.561c1.033-1.614,2.344-2.494,4.292-2.093" transform="translate(-33.627 -12.804)" fill="#c8eef1"/>
        <path id="Path_210613" data-name="Path 210613" d="M119.941,49.614A1.623,1.623,0,0,1,118.333,48a1.582,1.582,0,0,1,3.159-.054,1.629,1.629,0,0,1-1.551,1.67" transform="translate(-45.269 -17.774)" fill="#030303"/>
        <path id="Path_210614" data-name="Path 210614" d="M107.522,46.465a1.582,1.582,0,0,1,1.608,1.594,1.661,1.661,0,0,1-1.571,1.556,1.589,1.589,0,0,1-1.576-1.625,1.523,1.523,0,0,1,1.539-1.525" transform="translate(-40.545 -17.776)" fill="#020202"/>
        <path id="Path_210615" data-name="Path 210615" d="M133.857,48a1.593,1.593,0,0,1-1.592,1.612,1.657,1.657,0,0,1-1.555-1.571,1.585,1.585,0,0,1,1.62-1.58A1.525,1.525,0,0,1,133.857,48" transform="translate(-50.004 -17.776)" fill="#020202"/>
        <path id="Path_210616" data-name="Path 210616" d="M24.483,20.859a1.581,1.581,0,1,1,.015,3.163,1.581,1.581,0,0,1-.015-3.163" transform="translate(-8.77 -7.98)" fill="#020202"/>
        <path id="Path_210617" data-name="Path 210617" d="M36.861,20.858a1.581,1.581,0,0,1,.007,3.163,1.581,1.581,0,1,1-.007-3.163" transform="translate(-13.497 -7.979)" fill="#020202"/>
        <path id="Path_210618" data-name="Path 210618" d="M49.244,24.022a1.58,1.58,0,1,1,.024-3.159,1.58,1.58,0,0,1-.024,3.159" transform="translate(-18.238 -7.981)" fill="#010101"/>
      </g>
    </g>
  </g>
</svg>
