<svg xmlns="http://www.w3.org/2000/svg" xmlns:xlink="http://www.w3.org/1999/xlink" width="90" height="90" viewBox="0 0 90 90">
  <defs>
    <clipPath id="clip-path">
      <rect id="Rectangle_338756" data-name="Rectangle 338756" width="82.891" height="68.335" fill="none"/>
    </clipPath>
  </defs>
  <g id="_21" data-name="21" transform="translate(-753 -8940)">
    <rect id="Rectangle_338632" data-name="Rectangle 338632" width="90" height="90" rx="11" transform="translate(753 8940)" fill="#6b8dfc"/>
    <g id="Group_983636" data-name="Group 983636" transform="translate(757 8951)">
      <g id="Group_983635" data-name="Group 983635" clip-path="url(#clip-path)">
        <path id="Path_210688" data-name="Path 210688" d="M128.063,73.863a3.49,3.49,0,0,1,1.4,3.591c-.067.32.115.528.259.765a9.832,9.832,0,0,1-8.694,15.126,4.568,4.568,0,0,1-1.735-.255,5.36,5.36,0,0,0-3.7.021A13.286,13.286,0,0,1,99.283,81.7a1.326,1.326,0,0,1-.027-.251c.077-.919-.282-1.282-1.257-1.442a3.37,3.37,0,0,1,.629-6.632c.175-.014.538.191.493-.206-.049-.43-.4-.158-.6-.131-.414.055-.816.2-1.228.268a.986.986,0,0,1-1.282-.776.921.921,0,0,1,.879-1.187c.837-.068.92-.485.925-1.2a64.222,64.222,0,0,1,.129-7.06,15.607,15.607,0,0,1,30.739-1.143,18.981,18.981,0,0,1,.337,4.182c0,2.1-.007,4.207.01,6.311.006.685-.159,1.227-.969,1.437" transform="translate(-48.454 -25.164)"/>
        <path id="Path_210689" data-name="Path 210689" d="M30.526,73.326a8.435,8.435,0,0,1,1.759.321A3.411,3.411,0,0,1,34.3,77.034a3.287,3.287,0,0,1-2.691,3.042c-.81.114-.969.427-1.051,1.18a13.332,13.332,0,0,1-26.525.558c-.009-.084-.026-.167-.027-.251-.011-.849-.138-1.414-1.264-1.539A3.223,3.223,0,0,1,.206,76.944a3.28,3.28,0,0,1,2.123-3.3c.668-.227.552-.495.351-.951A30.857,30.857,0,0,1,.095,64.123a8.119,8.119,0,0,1,.4-4.136A3.778,3.778,0,0,1,2.35,57.894,4.022,4.022,0,0,0,3.72,56.72a10.4,10.4,0,0,1,9.258-3.957,1.628,1.628,0,0,0,.889-.139,5.912,5.912,0,0,1,5.194-.118,1.079,1.079,0,0,0,.872.018,6.089,6.089,0,0,1,6.957,1.725,6.333,6.333,0,0,0,2.516,1.83A4.411,4.411,0,0,1,32.3,60.243c.03.477.15.648.609.776a3.392,3.392,0,0,1,2.347,4.609c-.978,2.885-2.212,5.613-4.728,7.7" transform="translate(0 -26.377)"/>
        <path id="Path_210690" data-name="Path 210690" d="M66.567,0q6.184,0,12.368,0A4.432,4.432,0,0,1,83.6,4.636q.015,6.688,0,13.376a4.392,4.392,0,0,1-4.567,4.55c-4.038.009-8.076.019-12.115-.013-.719-.006-.964.132-1.014.927A8.634,8.634,0,0,1,60.34,31.3c-.487.214-1.007.424-1.508.027s-.362-.958-.265-1.479a12.176,12.176,0,0,0,.122-4.51A2.961,2.961,0,0,0,55.4,22.56a9.833,9.833,0,0,1-2.51-.146A4.366,4.366,0,0,1,49.6,18.241c-.021-4.626-.03-9.254,0-13.881A4.383,4.383,0,0,1,54.031.008c4.179-.016,8.357,0,12.536,0" transform="translate(-25.168 0)"/>
        <path id="Path_210691" data-name="Path 210691" d="M98.071,50.922c-1.262,0-2.525.006-3.787,0-.837-.006-1.267-.358-1.267-1.008s.43-1.005,1.267-1.007c2.525-.006,5.05,0,7.574-.007.69,0,1.154.265,1.234.973.07.615-.448,1.042-1.234,1.049-1.262.011-2.525,0-3.787,0" transform="translate(-47.217 -24.821)"/>
        <path id="Path_210692" data-name="Path 210692" d="M86.431,50.926c-.9,0-1.359-.331-1.371-.992s.444-1.026,1.333-1.029,1.375.353,1.388.991-.487,1.027-1.351,1.03" transform="translate(-43.178 -24.825)" fill="#294369"/>
        <path id="Path_210693" data-name="Path 210693" d="M107.044,92.977c0-1.57.019-2.888-.011-4.206a.65.65,0,0,1,.54-.767,32.651,32.651,0,0,0,13.042-7.035c.538-.493.636-.017.835.277a18.282,18.282,0,0,0,6.768,6.519,2.476,2.476,0,0,1,1.581,2.812c-.161,2.374.159,4.766-.178,7.137a11.362,11.362,0,0,1-22.238,1.035,26.9,26.9,0,0,1-.339-5.774" transform="translate(-54.332 -40.994)" fill="#fed7b6"/>
        <path id="Path_210694" data-name="Path 210694" d="M131.436,73.662a13.6,13.6,0,0,1-6.334-3.323,20.561,20.561,0,0,1-3.722-4.525.686.686,0,0,1,.077-.946,20.429,20.429,0,0,0,2.971-4.948,1.144,1.144,0,0,0-.471-1.628c-.532-.25-1.083.067-1.4.845a18.4,18.4,0,0,1-4.853,6.772,29.218,29.218,0,0,1-9.21,5.425q-1.764.677-3.576,1.209c-.517.151-.622,0-.613-.49.025-1.319.021-2.638,0-3.956-.006-.408.126-.567.539-.672,1.083-.274,2.15-.611,3.214-.952.794-.255,1.125-.762.9-1.338-.289-.727-.826-.812-1.513-.576-.793.273-1.608.476-2.4.747-.488.167-.629-.006-.536-.454a13.649,13.649,0,0,1,6.4-9.25,13.509,13.509,0,0,1,7.7-1.946c.657.024.783.18.495.781a18.788,18.788,0,0,1-7.919,8.431,4.915,4.915,0,0,0-.725.42c-.438.359-.749.787-.381,1.376a.976.976,0,0,0,1.4.322,19.528,19.528,0,0,0,3.666-2.356,19.748,19.748,0,0,0,6.062-8.018c.163-.4.367-.453.777-.313a13.169,13.169,0,0,1,9.272,10.615c.456,2.382.107,4.811.189,7.217.017.5,0,1,0,1.53" transform="translate(-52.946 -27.232)" fill="#6d7485"/>
        <path id="Path_210695" data-name="Path 210695" d="M147.156,122.372c-.344-.081-.954.223-1.106-.186-.143-.385.487-.584.777-.829a13.145,13.145,0,0,0,4.471-7.651,9.145,9.145,0,0,0,.263-1.726c0-.539.217-.752.708-.812a1.394,1.394,0,0,0,.642-.166c.853-.633,1.166-.132,1.469.607a7.835,7.835,0,0,1-7.224,10.763" transform="translate(-74.128 -56.201)" fill="#4a5160"/>
        <path id="Path_210696" data-name="Path 210696" d="M101.243,103.428a4.649,4.649,0,0,1,0,.586c-.033.258.16.621-.161.748a.981.981,0,0,1-.928-.257,1.369,1.369,0,0,1-.382-1.794,1.012,1.012,0,0,1,1.163-.61c.542.127.24.594.308.908a2.006,2.006,0,0,1,0,.418" transform="translate(-50.551 -51.814)" fill="#ecc396"/>
        <path id="Path_210697" data-name="Path 210697" d="M157.312,103.444a4.78,4.78,0,0,1,0-.582c.034-.273-.164-.644.273-.769a.909.909,0,0,1,.909.271,1.414,1.414,0,0,1-.3,2.261c-.653.348-.878.218-.888-.516,0-.222,0-.444,0-.666" transform="translate(-79.849 -51.807)" fill="#ebc296"/>
        <path id="Path_210698" data-name="Path 210698" d="M19.922,75.232a3.016,3.016,0,0,0,.689-.474c.965-1.178,2.053-1.147,3.438-.714a9.1,9.1,0,0,0,6.843-.823c.8-.393,1.576-.854,2.384-1.241,2.633-1.262,4.887.215,5.071,3.128.319,5.043.266,10.088.252,15.133a11.37,11.37,0,0,1-9.4,11.03,6.592,6.592,0,0,1-.671.044c-1.813.435-3.125-.549-4.359-1.618a12.348,12.348,0,0,1-4.479-9.808,29.78,29.78,0,0,1,.081-4.015,13.356,13.356,0,0,0,.534-1.228,1.294,1.294,0,0,1,1.28-1.021,1.309,1.309,0,0,1,1.26,1.048,2.421,2.421,0,0,0,.176.471.709.709,0,0,0,.809.453.721.721,0,0,0,.569-.733,2.794,2.794,0,0,0-3.367-2.8c-.393.079-.8.352-1.191-.01a1.59,1.59,0,0,1-.189-.885q-.017-2.5,0-5a1.48,1.48,0,0,1,.269-.942" transform="translate(-9.973 -36.309)" fill="#fed7b6"/>
        <path id="Path_210699" data-name="Path 210699" d="M18.8,56.869a3.553,3.553,0,0,0,2.087-.436,3.618,3.618,0,0,1,3.619.12,1.8,1.8,0,0,0,1.886.02,4.076,4.076,0,0,1,4.667.763c.363.348.682.742,1.02,1.116a3.952,3.952,0,0,0,2.188,1.414,2.662,2.662,0,0,1,1.874,3.417c-.291,1.07.083,1.594,1.193,1.662a8.971,8.971,0,0,1,.923.043c.718.12,1.373.864,1.18,1.495a15.912,15.912,0,0,1-2.592,5.575A4.777,4.777,0,0,1,36.5,70.2c-.114-1.085-.147-2.179-.172-3.271a5.269,5.269,0,0,0-7.379-4.889,13.835,13.835,0,0,0-2.015,1.035c-3.262,1.956-6.493,1.738-9.711-.1-.292-.167-.586-.329-.88-.493a.95.95,0,0,0-1.381.351.933.933,0,0,0,.34,1.377c.827.616.851.655-.085,1.157a3.8,3.8,0,0,1-3.168.609,4.634,4.634,0,0,1,1.916-5.454,3.522,3.522,0,0,0,1.2-1,11.74,11.74,0,0,1,2.487-2.35,1.193,1.193,0,0,1,1.157-.3" transform="translate(-5.974 -28.429)" fill="#c1684f"/>
        <path id="Path_210700" data-name="Path 210700" d="M16.009,89.646c0,1.427-.032,2.855,0,4.282a12.238,12.238,0,0,0,6.873,11.06c.546.3,1.161.038,1.734.149a9.907,9.907,0,0,1-6.486-1.169,10.941,10.941,0,0,1-6.15-10c-.079-4.488-.007-8.978-.031-13.467,0-.582.114-.752.734-.708a6.9,6.9,0,0,0,3.326-.744c0,2.033-.007,4.066,0,6.1,0,.267-.092.565.17.78.05.35-.26.462-.446.64a3.265,3.265,0,0,0-.91,1.461c-.256.876-.011,1.285.893,1.479a.476.476,0,0,1,.292.133" transform="translate(-6.063 -40.13)" fill="#e4bca0"/>
        <path id="Path_210701" data-name="Path 210701" d="M14.9,57.634a3.965,3.965,0,0,0-2.014,1.275,8.714,8.714,0,0,0-1.806,1.978.843.843,0,0,1-.426.387c-1.929.709-2.468,2.265-2.511,4.122-.01.449,0,.9,0,1.346a4.2,4.2,0,0,1-2.158-.6,1.335,1.335,0,0,0-1.759.147A3.2,3.2,0,0,1,6.163,62.16a3.047,3.047,0,0,0,1-1.107,8.721,8.721,0,0,1,7.257-3.542,1.807,1.807,0,0,1,.475.123" transform="translate(-2.068 -29.194)" fill="#9f5847"/>
        <path id="Path_210702" data-name="Path 210702" d="M4.354,77.773c.563.285.994.524,1.443.722.346.153.293.437.294.709,0,1.287,0,2.573-.069,3.877a28.372,28.372,0,0,1-1.668-5.308" transform="translate(-2.21 -39.479)" fill="#9e5747"/>
        <path id="Path_210703" data-name="Path 210703" d="M6.17,101.105a1.992,1.992,0,0,1,0,.334c-.055.309.188.772-.173.9a1.071,1.071,0,0,1-1.159-.49,1.313,1.313,0,0,1-.137-1.559,1.026,1.026,0,0,1,1.083-.624c.607.086.332.594.384.937a3.335,3.335,0,0,1,0,.5" transform="translate(-2.287 -50.588)" fill="#ebc296"/>
        <path id="Path_210704" data-name="Path 210704" d="M62.223,101.053a4.783,4.783,0,0,1,0-.588c.035-.277-.167-.654.269-.783a.9.9,0,0,1,.973.336,1.315,1.315,0,0,1,.155,1.7,1.115,1.115,0,0,1-1.184.629c-.445-.116-.142-.628-.214-.956a1.59,1.59,0,0,1,0-.336" transform="translate(-31.57 -50.581)" fill="#ebc296"/>
        <path id="Path_210705" data-name="Path 210705" d="M62.914,30.683a13.719,13.719,0,0,0-.272-4.139,4.8,4.8,0,0,0-4.975-3.913c-.533,0-1.067.017-1.6-.006a2.353,2.353,0,0,1-2.357-2.365q-.035-6.859,0-13.719a2.364,2.364,0,0,1,2.471-2.427q12.5-.013,25,0a2.362,2.362,0,0,1,2.477,2.422q.042,6.859,0,13.718a2.359,2.359,0,0,1-2.6,2.374q-6.481.011-12.962,0c-1.539,0-2.085.527-2.076,2.067a6.984,6.984,0,0,1-2.374,5.613,5.12,5.12,0,0,1-.467.353c-.037.025-.1.01-.267.02" transform="translate(-27.256 -2.085)" fill="#f2cd7d"/>
        <path id="Path_210706" data-name="Path 210706" d="M125.408,118.743a6.167,6.167,0,0,1-4.031-1.591c-.5-.455-.719-.968-.25-1.531s.995-.456,1.541-.023c1.906,1.511,3.6,1.507,5.537-.01.552-.433,1.076-.516,1.54.046a.984.984,0,0,1-.212,1.475,6.138,6.138,0,0,1-4.125,1.635" transform="translate(-61.355 -58.497)"/>
        <path id="Path_210707" data-name="Path 210707" d="M115.392,94.728a3.124,3.124,0,0,1,3.087,2.934c.02.654-.222,1.12-.9,1.19a.949.949,0,0,1-1.092-.919c-.1-.7-.413-1.184-1.161-1.17a1.073,1.073,0,0,0-1.086,1.068c-.083.706-.451,1.082-1.162,1.011-.62-.061-.951-.661-.837-1.407a3.172,3.172,0,0,1,3.148-2.707" transform="translate(-56.966 -48.086)"/>
        <path id="Path_210708" data-name="Path 210708" d="M138.469,94.759a3.188,3.188,0,0,1,3.12,2.843c.059.639-.173,1.138-.838,1.247a.929.929,0,0,1-1.158-.907c-.088-.661-.412-1.132-1.106-1.152s-1.051.415-1.146,1.092c-.09.64-.446,1.063-1.121.984-.729-.085-.92-.614-.872-1.289a3.138,3.138,0,0,1,3.12-2.817" transform="translate(-68.703 -48.102)"/>
        <path id="Path_210709" data-name="Path 210709" d="M30.378,116.339a6.155,6.155,0,0,1-4.052-1.6c-.506-.467-.671-.993-.2-1.539.452-.52.964-.415,1.484-.015,1.971,1.517,3.607,1.522,5.541.012.55-.429,1.079-.521,1.543.043a.983.983,0,0,1-.211,1.475,6.146,6.146,0,0,1-4.11,1.629" transform="translate(-13.121 -57.281)"/>
        <path id="Path_210710" data-name="Path 210710" d="M43.419,92.332a3.17,3.17,0,0,1,3.115,2.833,1.058,1.058,0,0,1-.9,1.284.977.977,0,0,1-1.111-.985,1.082,1.082,0,0,0-1.138-1.1A1.05,1.05,0,0,0,42.3,95.414c-.09.666-.431,1.122-1.163,1.022s-.889-.651-.841-1.309a3.112,3.112,0,0,1,3.126-2.795" transform="translate(-20.45 -46.87)"/>
        <path id="Path_210711" data-name="Path 210711" d="M18.664,96.454c-1.185.173-1.679-.379-1.424-1.544a3.51,3.51,0,0,1,1.595-2.17C20.761,92.1,22.3,92.6,23.1,94.117a2.789,2.789,0,0,1,.323,1.458.983.983,0,0,1-1.918.262,4.846,4.846,0,0,1-.113-.492,1.1,1.1,0,0,0-2.169.028,1.579,1.579,0,0,1-.556,1.082" transform="translate(-8.718 -46.938)"/>
        <path id="Path_210712" data-name="Path 210712" d="M92.089,10.946c1.372,0,2.744.008,4.117,0,.7-.005,1.232.194,1.278.993.037.658-.406,1.026-1.237,1.028q-4.242.011-8.486,0c-.831,0-1.275-.371-1.236-1.029.047-.8.58-1,1.279-.992,1.428.01,2.857,0,4.285,0" transform="translate(-43.921 -5.555)"/>
        <path id="Path_210713" data-name="Path 210713" d="M92.056,22.883c-1.428,0-2.857.006-4.285,0-.834-.005-1.26-.361-1.256-1.015s.431-1,1.27-1c2.8-.006,5.6,0,8.4-.006.7,0,1.237.18,1.292.979.047.678-.415,1.039-1.306,1.043-1.372.006-2.745,0-4.117,0" transform="translate(-43.917 -10.588)"/>
        <path id="Path_210714" data-name="Path 210714" d="M91.995,30.779c1.4,0,2.8.008,4.2,0,.7-.005,1.235.189,1.283.987.041.678-.417,1.033-1.315,1.035q-4.159.007-8.318,0c-.906,0-1.341-.345-1.331-1.025s.441-.99,1.363-.993c1.372,0,2.745,0,4.117,0" transform="translate(-43.917 -15.623)"/>
        <path id="Path_210715" data-name="Path 210715" d="M72.571,30.777c.588,0,1.177-.022,1.764.006a.95.95,0,0,1,1.026.989.931.931,0,0,1-1,1.012q-1.762.05-3.527,0a.936.936,0,0,1-.988-1.026.962.962,0,0,1,1.043-.977c.559-.018,1.12,0,1.68,0" transform="translate(-35.456 -15.619)"/>
        <path id="Path_210716" data-name="Path 210716" d="M72.607,22.884h-1.6c-.695,0-1.167-.323-1.157-1.034.009-.662.462-.983,1.121-.985,1.092,0,2.184-.007,3.276,0,.648.005,1.1.305,1.11.989.006.733-.475,1.022-1.158,1.027-.532,0-1.064,0-1.6,0" transform="translate(-35.46 -10.59)"/>
        <path id="Path_210717" data-name="Path 210717" d="M72.571,12.963c-.532,0-1.064,0-1.6,0-.658,0-1.106-.323-1.123-.985a.959.959,0,0,1,1.072-1.03c1.12-.015,2.24-.017,3.359,0,.651.01,1.087.338,1.076,1.021s-.462.978-1.109.991c-.56.011-1.12,0-1.68,0" transform="translate(-35.459 -5.551)"/>
        <path id="Path_210718" data-name="Path 210718" d="M60.767,10.949c.772.007,1.262.416,1.245,1.037s-.511.991-1.3.984c-.8-.006-1.24-.377-1.224-1.037s.463-.992,1.277-.984" transform="translate(-30.198 -5.558)" fill="#2a4368"/>
        <path id="Path_210719" data-name="Path 210719" d="M60.756,30.781c.775,0,1.266.406,1.256,1.027s-.493,1-1.287.995-1.244-.368-1.235-1.027.454-1,1.266-.995" transform="translate(-30.198 -15.625)" fill="#2a4368"/>
        <path id="Path_210720" data-name="Path 210720" d="M60.7,22.886c-.8-.009-1.234-.388-1.211-1.05.023-.644.472-.982,1.29-.971.766.011,1.259.43,1.232,1.05s-.523.981-1.31.971" transform="translate(-30.198 -10.591)" fill="#2a4368"/>
      </g>
    </g>
  </g>
</svg>
