<svg xmlns="http://www.w3.org/2000/svg" xmlns:xlink="http://www.w3.org/1999/xlink" width="90" height="90" viewBox="0 0 90 90">
  <defs>
    <clipPath id="clip-path">
      <rect id="Rectangle_338757" data-name="Rectangle 338757" width="67.765" height="71.414" fill="none"/>
    </clipPath>
  </defs>
  <g id="_22" data-name="22" transform="translate(-753 -9047)">
    <rect id="Rectangle_338636" data-name="Rectangle 338636" width="90" height="90" rx="11" transform="translate(753 9047)" fill="#6b8dfc"/>
    <g id="Group_983639" data-name="Group 983639" transform="translate(764 9056)">
      <g id="Group_983638" data-name="Group 983638" clip-path="url(#clip-path)">
        <path id="Path_210721" data-name="Path 210721" d="M47.671,64.195c.067.97-.054,1.181-.94,1.524Q39.668,68.451,32.6,71.173a2.43,2.43,0,0,1-3.451-1.56c-1.305-3.37-2.617-6.737-3.893-10.118-.182-.482-.394-.567-.859-.461-3.19.72-6.386,1.415-9.579,2.125A4.484,4.484,0,0,1,9.3,55.728a15.754,15.754,0,0,0,.588-3.352c-.011-.654-.087-1.149-.913-1.42a3.236,3.236,0,0,1-2.057-3.811.7.7,0,0,0-.321-.86,2.478,2.478,0,0,1-1.058-2.856c.135-.553.569-1.219.291-1.641s-1-.517-1.526-.747c-.829-.359-1.664-.7-2.493-1.064-1.988-.866-2.389-2.682-.957-4.329Q3.485,32.621,6.127,29.6a1.229,1.229,0,0,0,.362-1.121A24.712,24.712,0,0,1,20.545,2.24a25.107,25.107,0,0,1,7.682-2.1c.129-.014.287.032.357-.139H32.77c1.1.185,2.21.351,3.309.559a18.091,18.091,0,0,1,3.981,1.2,1.388,1.388,0,0,0,.735.124,11.659,11.659,0,0,1,4,.359c.913.227,1.108.5,1.081,1.477-.3.7-.67.9-1.49.73A13.138,13.138,0,0,0,41.7,4.086a10.031,10.031,0,1,0,8.048,4.031,4.588,4.588,0,0,0-.468-.606,9.454,9.454,0,0,1-.819-.915.951.951,0,0,1,.185-1.416c.749-.439,1.076-.417,1.657.169a12.184,12.184,0,0,1,3.62,10.057,1.915,1.915,0,0,0,.089.813A24.307,24.307,0,0,1,50.44,39.666a2.039,2.039,0,0,0-.2,2.148q3.295,8.478,6.562,16.967c.681,1.764.155,2.992-1.578,3.667-1.165.453-2.342.876-3.5,1.346a1.088,1.088,0,0,1-1.542-.458c-.378-.535-.229-1.083.426-1.467a11.189,11.189,0,0,1,1.345-.574c.75-.317,1.519-.583,2.278-.877.493-.191.617-.459.426-.966-.882-2.326-1.791-4.64-2.687-6.961-1.23-3.188-2.422-6.391-3.717-9.553a4.782,4.782,0,0,1,.706-5.079,21.275,21.275,0,0,0,4.28-12.874,21.925,21.925,0,0,0-.487-5.133,12.037,12.037,0,0,1-5.179,5.256,1.219,1.219,0,0,0-.841,1.207,6.6,6.6,0,0,1-6.6,5.956q-1.776.033-3.552,0a1.2,1.2,0,0,0-1.193.637,3.938,3.938,0,0,1-3.149,1.916,1.305,1.305,0,0,1-1.553-1.208,1.243,1.243,0,0,1,1.126-1.149,2.265,2.265,0,0,0,1.862-1.48A1.88,1.88,0,0,1,35.622,29.8c1.532.005,3.065.018,4.6,0a4.052,4.052,0,0,0,3.867-2.772c.182-.587.116-.69-.472-.588a14.961,14.961,0,0,1-3.125.093c-.7-.141-1.418-.228-2.116-.415a12.419,12.419,0,0,1-9-10.547c-.009-.093,0,.023-.006-.069-.155-1.43-.564-1.72-2.01-1.427a4.192,4.192,0,0,0-3.467,4.139,1.984,1.984,0,0,1-1.643,2.18,6.674,6.674,0,0,0-1.733.88,2.429,2.429,0,0,1-1.769.467,4.066,4.066,0,0,0-4.887,4.371,4.15,4.15,0,0,0,4.324,3.7,3.731,3.731,0,0,1,1.645.188,2.116,2.116,0,0,1,1.055,1.154,2.027,2.027,0,0,0,2.088,1.309c1.113-.008,2.227-.009,3.341,0a1.183,1.183,0,0,1,1.292.835c.084,1.007-.29,1.552-1.268,1.591a22.379,22.379,0,0,1-4.383-.086,3.951,3.951,0,0,1-2.879-1.882,1.235,1.235,0,0,0-1.125-.656,6.569,6.569,0,0,1-6.526-6.121,6.1,6.1,0,0,1,1.592-4.62,6.268,6.268,0,0,1,5.646-2.26,1.08,1.08,0,0,0,.726-.177,7.1,7.1,0,0,1,1.67-.857.739.739,0,0,0,.509-.748,6.513,6.513,0,0,1,6.395-5.935,2.625,2.625,0,0,1,.487.03c1,.133.983.128,1.289-.866a12.4,12.4,0,0,1,6.089-7.557.52.52,0,0,0,.3-.257,9.449,9.449,0,0,0-1.346-.3,21.628,21.628,0,0,0-13.968,2.03A22.04,22.04,0,0,0,8.661,21.478a21.345,21.345,0,0,0,.061,6.865,2.885,2.885,0,0,1-.69,2.457c-1.466,1.742-2.973,3.449-4.477,5.158-.277.314-.538.64-.813.955-.54.618-.507.778.221,1.1,1.1.492,2.214.969,3.327,1.442.128.055.257.107.384.166,1.522.705,1.8,1.287,1.387,2.932a1.824,1.824,0,0,1-.07.27,1.574,1.574,0,0,0,.72,2.271,1.584,1.584,0,0,1,.565,1.986c-.334,1.231-.044,1.73,1.209,1.974a1.7,1.7,0,0,1,1.428,1.416,10.43,10.43,0,0,1-.271,5.095,4.935,4.935,0,0,0-.168,1.309,2.16,2.16,0,0,0,2.593,2.119c3.261-.646,6.5-1.408,9.743-2.124.249-.055.5-.113.75-.16A2.065,2.065,0,0,1,27.105,58.1c.967,2.467,1.93,4.935,2.864,7.415.382.971.752,1.948,1.135,2.92.279.71.394.764,1.162.473,2.257-.855,4.5-1.736,6.754-2.609q3.44-1.335,6.883-2.662c.96-.37,1.413-.213,1.768.557" transform="translate(0)"/>
        <path id="Path_210722" data-name="Path 210722" d="M87.674,51.051a12.7,12.7,0,0,0,5.251-5.56,8.592,8.592,0,0,1,.41,1.872,17.192,17.192,0,0,1,.209,1.8,22.4,22.4,0,0,1-4.627,15.382,3.907,3.907,0,0,0-.473,4.068C90.638,74.246,92.8,79.895,95,85.528c.24.614.185.906-.474,1.131-1.161.4-2.3.872-3.437,1.325-.795.316-.937.6-.768,1.445-.865.207-1.624.725-2.514.859a1.291,1.291,0,0,0-1.708-.4c-4.588,1.8-9.187,3.567-13.783,5.345-.863.333-.887.325-1.206-.519-.384-1.015-.757-2.034-1.135-3.051.184-.241.477-.276.732-.376q8.763-3.426,17.555-6.78c1.116-.425,1.364-.994.936-2.121-1.942-5.1-3.967-10.174-5.876-15.289a6.652,6.652,0,0,1,.492-6.044,25.109,25.109,0,0,0,3.754-9.671c.017-.116.087-.215.108-.33" transform="translate(-40.135 -26.092)" fill="#e9ab9c"/>
        <path id="Path_210723" data-name="Path 210723" d="M91.024,10.176a1.139,1.139,0,0,0,.225,1.657,6.506,6.506,0,0,1,.494.569,9.292,9.292,0,0,1,.545,5.725,11.4,11.4,0,0,1-9.729,9.254,9.2,9.2,0,0,1-5.177-.624c-4.088-3.226-4.717-9.824-1.237-14.023A9.9,9.9,0,0,1,86.625,9.228a1.344,1.344,0,0,0,1.629-.519,12.031,12.031,0,0,1,2.771,1.467" transform="translate(-42.377 -4.995)" fill="#fecf64"/>
        <path id="Path_210724" data-name="Path 210724" d="M140.177,24.624a3.1,3.1,0,0,1,1.779.563c.3.228.476.18.769-.006a3.161,3.161,0,0,1,3.486-.07,1.007,1.007,0,0,1,.493,1.408,1.045,1.045,0,0,1-1.433.419c-1.014-.438-1.491-.278-1.948.694a1.05,1.05,0,0,1-1.973-.012,1.222,1.222,0,0,0-1.9-.711,1.056,1.056,0,0,1-1.492-.4,1.075,1.075,0,0,1,.567-1.451,3.753,3.753,0,0,1,1.652-.437" transform="translate(-79.064 -14.122)"/>
        <path id="Path_210725" data-name="Path 210725" d="M133.668,38.97a3.494,3.494,0,0,0,2.513.041,1.751,1.751,0,0,1,1.422.45.948.948,0,0,1,.254,1.307.893.893,0,0,1-1.183.451.674.674,0,0,0-1.012.322.888.888,0,0,1-1.624,0c-.276-.445-.51-.538-1-.32a.875.875,0,0,1-1.165-.482.945.945,0,0,1,.232-1.255,2.578,2.578,0,0,1,1.56-.516" transform="translate(-75.558 -22.352)" fill="#010101"/>
        <path id="Path_210726" data-name="Path 210726" d="M50.328,27.732a3.8,3.8,0,0,1-.213,1.862A25,25,0,0,1,46.64,37.8a6.432,6.432,0,0,0-.533,5.816c1.948,5.229,4.01,10.414,6.022,15.619a1.428,1.428,0,0,1-.944,2.049c-3.323,1.292-6.654,2.566-9.981,3.849l-7.647,2.949a2.483,2.483,0,0,1-.929.261q-1.4-3.557-2.789-7.114c-.59-1.513-1.211-1.845-2.782-1.493q-4.856,1.085-9.715,2.157c-2.264.5-3.694-.942-3.183-3.2a11.314,11.314,0,0,0,.377-5.3c-.226-.924-.514-1.269-1.449-1.406a1.4,1.4,0,0,1-1.226-2.106,1.48,1.48,0,0,0-.538-1.958,4.578,4.578,0,0,0-.569-.4.766.766,0,0,1-.373-1.052c.171-.528.276-1.078.406-1.619A1.638,1.638,0,0,0,9.75,42.709c-1.423-.622-2.855-1.223-4.281-1.837-.731-.315-.78-.512-.268-1.1q2.721-3.132,5.449-6.258a2.783,2.783,0,0,0,.677-2.382A22.593,22.593,0,0,1,39.409,5.6c.007.22-.193.216-.318.281a12.022,12.022,0,0,0-6.509,8.242c-.136.575-.356.575-.823.51a6.152,6.152,0,0,0-7.089,4.9,2.256,2.256,0,0,1-1.56,2.043,6.445,6.445,0,0,1-2.5.64,6.3,6.3,0,0,0-.15,12.593,1.659,1.659,0,0,1,1.636.885,3.676,3.676,0,0,0,3.36,1.761q1.778.012,3.557,0c.976-.007,1.273-.316,1.29-1.3.869.033,1.738.047,2.607.046a.9.9,0,0,1,.7.21c.292.914.6,1.119,1.525,1.006a3.787,3.787,0,0,0,3.041-2.055.868.868,0,0,1,.9-.53,39.6,39.6,0,0,0,4.872-.084,6.213,6.213,0,0,0,5.368-5.718,1.182,1.182,0,0,1,1-1.287" transform="translate(-2.788 -2.772)" fill="#fecabd"/>
        <path id="Path_210727" data-name="Path 210727" d="M32.088,44.669a4.234,4.234,0,0,1,4.966-4.549,2.107,2.107,0,0,0,1.815-.445,4.5,4.5,0,0,1,1.587-.84c1.32-.4,1.646-.814,1.686-2.171a4.273,4.273,0,0,1,5.222-4.15c.31.074.478.16.49.528A12.263,12.263,0,0,0,58.577,44.87a1.774,1.774,0,0,1,.266.076c-.016.349-.313.368-.542.435a5.377,5.377,0,0,1-1.515.194c-1.348-.006-2.7.009-4.042-.007a1.161,1.161,0,0,0-1.207.738,3.162,3.162,0,0,1-3.014,1.9q-4.529.088-9.059,0a3.055,3.055,0,0,1-2.92-1.8,1.265,1.265,0,0,0-1.364-.837,5.947,5.947,0,0,1-2.394-.372.983.983,0,0,1-.7-.526" transform="translate(-18.398 -18.582)" fill="#f8f5f8"/>
        <path id="Path_210728" data-name="Path 210728" d="M32.1,61.174a5.844,5.844,0,0,0,3.213.689,1.166,1.166,0,0,1,1.35.8,2.906,2.906,0,0,0,2.978,1.848c2.925.021,5.852.032,8.777,0a2.979,2.979,0,0,0,3.036-1.991.936.936,0,0,1,1.014-.655q2.3.031,4.6,0a3.282,3.282,0,0,0,1.789-.415,14.548,14.548,0,0,0,3.732-.228c.456-.117.3.211.268.406a4.3,4.3,0,0,1-4.081,3.443c-1.6.022-3.2.013-4.8,0A1.725,1.725,0,0,0,52.173,66.3a1.9,1.9,0,0,1-1.734,1.384,1.2,1.2,0,0,0-1.2,1.028c-.881,0-1.762-.008-2.643,0-.264,0-.51,0-.668-.256a1.159,1.159,0,0,0-1.264-.752c-1.136.024-2.272,0-3.409.008a2.042,2.042,0,0,1-2.14-1.43,1.731,1.731,0,0,0-1.819-1.214A8.136,8.136,0,0,1,35.56,65,4.2,4.2,0,0,1,32.1,61.174" transform="translate(-18.413 -35.087)" fill="#dcd9eb"/>
        <path id="Path_210729" data-name="Path 210729" d="M82.089,31.724a16.692,16.692,0,0,0,3.964.559,11.277,11.277,0,0,0,10.1-6.977,11.134,11.134,0,0,0,.371-7.529c-.038-.132-.051-.271-.076-.407,3.335,3.4,3.421,9.409.189,13.267a10.238,10.238,0,0,1-14.314,1.333,2.8,2.8,0,0,1-.237-.246" transform="translate(-47.083 -9.962)" fill="#fec150"/>
        <path id="Path_210730" data-name="Path 210730" d="M91.288,40.836a6.7,6.7,0,0,1-5.176-2.55c-.494-.617-.48-1.185.012-1.595s1.059-.3,1.571.28a4.559,4.559,0,0,0,7.235.023c.523-.6,1.076-.71,1.568-.323.508.4.525,1.021.012,1.649a6.727,6.727,0,0,1-5.222,2.515" transform="translate(-49.182 -20.904)"/>
        <path id="Path_210731" data-name="Path 210731" d="M105.832,28.538a2.96,2.96,0,0,1-2.284-1.154.976.976,0,0,1,.06-1.386,1.022,1.022,0,0,1,1.441,0c.752.64.818.636,1.63-.023a.978.978,0,0,1,1.389,0,.957.957,0,0,1,.108,1.381,2.928,2.928,0,0,1-2.344,1.182" transform="translate(-59.243 -14.733)" fill="#010000"/>
        <path id="Path_210732" data-name="Path 210732" d="M84.929,28.556a2.968,2.968,0,0,1-2.3-1.124,1.026,1.026,0,0,1,.059-1.444,1.038,1.038,0,0,1,1.442.054c.694.6.851.6,1.583-.023a1.019,1.019,0,0,1,1.441-.008,1,1,0,0,1,.063,1.393,2.945,2.945,0,0,1-2.283,1.151" transform="translate(-47.237 -14.75)" fill="#010000"/>
      </g>
    </g>
  </g>
</svg>
