<svg xmlns="http://www.w3.org/2000/svg" xmlns:xlink="http://www.w3.org/1999/xlink" width="90" height="90" viewBox="0 0 90 90">
  <defs>
    <clipPath id="clip-path">
      <rect id="Rectangle_338759" data-name="Rectangle 338759" width="76.961" height="66.411" fill="none"/>
    </clipPath>
  </defs>
  <g id="_24" data-name="24" transform="translate(-8638 2760)">
    <rect id="Rectangle_338646" data-name="Rectangle 338646" width="90" height="90" rx="11" transform="translate(8638 -2760)" fill="#6b8dfc"/>
    <g id="Group_983645" data-name="Group 983645" transform="translate(8645 -2748)">
      <g id="Group_983644" data-name="Group 983644" clip-path="url(#clip-path)">
        <path id="Path_210755" data-name="Path 210755" d="M73.3,16.446c.778.135.981.69.926,1.364a2.1,2.1,0,0,0,.826,1.96,5.233,5.233,0,0,1,1.7,5.587,5.449,5.449,0,0,1-4.181,4.1c-.555.141-.7.236-.291.762a8.615,8.615,0,0,1,.342,10.533c-.235.345-.307.47.147.7a6.553,6.553,0,0,1,3.8,6.216q.012,5.1,0,10.2c0,1.161-.362,1.517-1.532,1.518-5.715,0-11.43.018-17.145-.02-.71,0-.9.254-1.007.87-.288,1.671-.64,3.331-.942,5a2.061,2.061,0,0,1-.76,1.176H21.632a1.815,1.815,0,0,1-.893-1.435c-.3-1.643-.667-3.274-.931-4.922-.093-.583-.329-.709-.855-.678-.692.04-1.39.03-2.084,0a1.188,1.188,0,0,1-1.276-1.155,1.083,1.083,0,0,1,1.065-1.279,13.813,13.813,0,0,1,1.621-.025c.472,0,.655-.189.557-.666-.2-.959-.371-1.922-.588-2.875a2.647,2.647,0,0,0-.753-1.236c-2.657-2.768-5.516-5.325-8.288-7.974a1.138,1.138,0,0,0-.732-.394,12.588,12.588,0,0,0-2.926.067,3.788,3.788,0,0,0-3,3.664c-.079,2.882-.017,5.767-.027,8.651,0,.708.434.766.972.765q3.63-.006,7.26,0a3.965,3.965,0,0,1,1,.066.965.965,0,0,1,.795,1.239c-.232.915-.508,1.155-1.444,1.158q-4.83.012-9.659,0c-1.035,0-1.434-.422-1.436-1.474-.005-3.426-.024-6.852,0-10.278A6.325,6.325,0,0,1,6.5,41.209a.507.507,0,0,1,.077,0A7.8,7.8,0,0,0,11.745,39.9a1.256,1.256,0,0,0,.072-1.868A14.011,14.011,0,0,1,4.968,29.2c-.13-.482-.5-.4-.771-.475A5.569,5.569,0,0,1,.762,20.7a5.159,5.159,0,0,1,1.686-1.876A.747.747,0,0,0,2.813,18c-.219-2.177-.387-4.36-.616-6.536A6.544,6.544,0,0,1,5.944,4.712,2.362,2.362,0,0,0,6.92,3.9,8.644,8.644,0,0,1,14.253.023q5.215-.046,10.431,0a7.881,7.881,0,0,1,7.156,4.19,1.294,1.294,0,0,0,.529.525,6.519,6.519,0,0,1,3.609,6.9c-.229,2.332-.428,4.666-.672,7a.873.873,0,0,0,.328.795,5.188,5.188,0,0,1,1.431,2.514c.086.359.193.548.592.528a1.743,1.743,0,0,1,.676.122c.414.155.633,0,.753-.39a5.152,5.152,0,0,1,1.62-2.485c.321-.27.273-.583.267-.905a19.362,19.362,0,0,1,.877-7A15.177,15.177,0,0,1,56.137,1.686a27.436,27.436,0,0,1,6.92.4,14.328,14.328,0,0,1,10.366,9.356c.378,1.006.252,1.331-.636,1.933-.781.253-1.326-.034-1.66-.975a12.4,12.4,0,0,0-1.991-3.623,11.467,11.467,0,0,0-7.443-4.366,28.643,28.643,0,0,0-6.846-.091,5.385,5.385,0,0,0-4.727,5.322,8.2,8.2,0,0,0,6.188,8.121,6.705,6.705,0,0,0,1.68.193q5.557,0,11.114,0c.536-.016,1.074-.026,1.608,0a.9.9,0,0,0,1.068-.71,1.058,1.058,0,0,1,1.52-.8" transform="translate(0 0)"/>
        <path id="Path_210756" data-name="Path 210756" d="M14.975,103.872c-.241-.931-.484-1.138-1.451-1.141-2.653-.009-5.306-.022-7.959.01-.629.007-.836-.149-.828-.809.037-2.833.008-5.668.018-8.5a4.131,4.131,0,0,1,4.27-4.289,4.621,4.621,0,0,1,3.848,1.5c2.419,2.42,5.006,4.671,7.347,7.176a2.678,2.678,0,0,1,.757,1.467,21.874,21.874,0,0,0,.521,2.648c.21.732-.065.852-.69.8-.409-.035-.825.015-1.236-.011a1.3,1.3,0,0,0-1.552,1.147l-3.043,0" transform="translate(-2.425 -45.648)" fill="#0ab59e"/>
        <path id="Path_210757" data-name="Path 210757" d="M138.2,20.914c-.971.037-1.3.294-1.4,1.243-.042.415-.2.519-.575.508-.744-.02-1.488-.013-2.233-.018-.371-.538-.179-1.147-.2-1.723a14.139,14.139,0,0,0-2.441-7.83,13.369,13.369,0,0,0-3.978-3.7c-.261-.162-.642-.248-.649-.672a10.932,10.932,0,0,1,5.908,2.751,11.721,11.721,0,0,1,3.548,5.318,1.372,1.372,0,0,0,1.506,1.049,10.128,10.128,0,0,1,.321,2.309c.006.264-.1.565.189.764" transform="translate(-64.901 -4.467)" fill="#444"/>
        <path id="Path_210758" data-name="Path 210758" d="M37.888,20.193c-4.785.078-9.575.263-14.354-.039-4.914-.311-8.718-5.579-7.6-10.335A6.366,6.366,0,0,1,21.9,4.855c3.523-.075,7.05,0,10.575,0a5.662,5.662,0,0,1,2.09,2.211,2.316,2.316,0,0,0,.96.961,5.6,5.6,0,0,1,3.085,6.151c-.238,1.752-.3,3.528-.5,5.288a1.185,1.185,0,0,1-.216.723" transform="translate(-8.061 -2.469)" fill="#d67e4a"/>
        <path id="Path_210759" data-name="Path 210759" d="M29.227,53.773a11.762,11.762,0,0,1-14.376-6.728,9.5,9.5,0,0,1-.841-3.586c-.033-3.078-.416-6.181.52-9.2.128-.414.3-.816.49-1.338a11.408,11.408,0,0,0,7.714,4,21.609,21.609,0,0,0,2.7.047c3.14.011,6.281,0,9.422,0,.833,0,.929.077.944.919.027,1.467.009,2.935.009,4.4a2.195,2.195,0,0,1-.236.965l-1.283,1.678a1.614,1.614,0,0,1-.96.2c-.5.041-1.008.118-1.148.706-.133.558.237.844.679,1.065.133.067.282.141.247.339a18.168,18.168,0,0,0-.8,4.02,7.454,7.454,0,0,1-3.072,2.512" transform="translate(-7.121 -16.858)" fill="#fecdbe"/>
        <path id="Path_210760" data-name="Path 210760" d="M114.176,8.413a20.927,20.927,0,0,1,3.087,2.251,13.472,13.472,0,0,1,4.056,8.379c.116,1.1.064,2.2.126,3.295-3.915,0-7.832.08-11.743-.03-3.751-.105-7.251-3.85-7.466-7.623A5.805,5.805,0,0,1,105.7,8.619a6,6,0,0,1,1.949-.423,37.983,37.983,0,0,1,6.241.113,1.24,1.24,0,0,1,.29.1" transform="translate(-52.352 -4.157)" fill="#5a5a5a"/>
        <path id="Path_210761" data-name="Path 210761" d="M109.49,57.732a11.814,11.814,0,0,1-9.2-.711c-.4-.193-.379-.5-.365-.833a15.782,15.782,0,0,0-.809-6.076.41.41,0,0,1,.033-.29c.412-1.065.323-1.238-.807-1.569a.552.552,0,0,1-.256-.152,12.936,12.936,0,0,0-4.058-3.953.627.627,0,0,1-.372-.608c.023-.875.027-1.751.019-2.626,0-.356.121-.5.492-.5A13.4,13.4,0,0,0,100.1,38.92a.708.708,0,0,1,.778.077,11.015,11.015,0,0,0,4.288,1.409c1.336.124,2.674.039,4.011.05q3.13.025,6.26-.005c.481,0,.753.146.76.632.03,2.138.085,4.276-.033,6.412a1.576,1.576,0,0,1-.166.591c-.16.335-.465.256-.74.248-.694-.02-1.389-.017-2.083-.007-.452.006-.9.059-1.06.581a.858.858,0,0,0,.484,1.026,5.965,5.965,0,0,0,2.049.142c.787.053.92.211.617.952a12.55,12.55,0,0,1-5.771,6.7" transform="translate(-47.966 -19.889)" fill="#fecdbe"/>
        <path id="Path_210762" data-name="Path 210762" d="M76.147,62.253a21.384,21.384,0,0,1-3.543-.086,4.458,4.458,0,0,1-4.009-4.287c-.085-.861-.514-1.337-1.187-1.32s-1.08.5-1.142,1.39a4.526,4.526,0,0,1-4.5,4.308c-1.6.032-3.193,0-4.789.014-.4,0-.589-.065-.615-.539a10.2,10.2,0,0,1,8.5-10.848c.654-.116,1.331-.273,1.8.552a1.017,1.017,0,0,0,1.612-.013c.461-.852,1.122-.592,1.781-.522a4.621,4.621,0,0,1,.526.118,10.511,10.511,0,0,1,5.772,8.766A8.735,8.735,0,0,1,76.5,61.47c-.026.3.007.633-.356.783" transform="translate(-28.857 -26.012)" fill="#5a5a5a"/>
        <path id="Path_210763" data-name="Path 210763" d="M75.956,120.846q-8.226.012-16.453.035c-.395,0-.524-.163-.631-.5-.505-1.565-1.127-3.1-1.533-4.688-.742-2.9,1.226-4.829,3.42-4.782a5.222,5.222,0,0,1,1.684.051c.57.222.359.984.561,1.49a5.289,5.289,0,0,0,5.319,3.321,5.057,5.057,0,0,0,4.593-3.936c.177-.865.538-1.032,1.265-.925.126.019.254.031.382.046a3.59,3.59,0,0,1,1.6,3.085c.1,2,.031,4,.027,6.006a1.133,1.133,0,0,1-.229.795" transform="translate(-29.284 -56.779)" fill="#ef7280"/>
        <path id="Path_210764" data-name="Path 210764" d="M72.431,88.153A8.563,8.563,0,0,1,61.6,81.534a40.777,40.777,0,0,1-.152-5.085c-.019-.467.283-.384.557-.394a27.6,27.6,0,0,0,3.39-.1,6.663,6.663,0,0,0,4.251-2.423c.283-.344.416-.527.8-.042a6.738,6.738,0,0,0,5.379,2.565c.308.006.616.018.924.027a1.386,1.386,0,0,1,.238,1.025q.013,1.7,0,3.4c-.009,1.211-.11,1.309-1.319,1.347-.1,0-.205.007-.3.02-.412.116-.814.273-.814.785,0,.431.337.6.7.711.1.026.2.05.3.071.7.147.757.231.456.854a7.877,7.877,0,0,1-3.579,3.858" transform="translate(-31.468 -37.486)" fill="#fecdbe"/>
        <path id="Path_210765" data-name="Path 210765" d="M129.085,95.3c0,2.111-.015,4.222.011,6.332.006.5-.121.661-.638.658q-4.9-.033-9.806,0c-.611.006-.663-.206-.55-.713q.35-1.58.618-3.178a1.534,1.534,0,0,1,.514-.83q2.708-2.806,5.416-5.611a1.9,1.9,0,0,0,.314-2.753c-.309-.537-.1-.919.532-.924,1-.008,2.009.027,3.011-.014.5-.02.591.174.587.623-.02,2.136-.009,4.273-.009,6.41" transform="translate(-60.461 -45.206)" fill="#528ed7"/>
        <path id="Path_210766" data-name="Path 210766" d="M36.081,94.039a18.323,18.323,0,0,1,2.933,6.344c1.262,3.879,2.567,7.744,3.853,11.616a1.738,1.738,0,0,1,.028.253c-1.355,0-2.7,0-4.044,0-.352,0-.3-.273-.346-.49-.716-3.655-1.442-7.308-2.139-10.966a2.665,2.665,0,0,0-.82-1.6c-1.669-1.485-3.328-2.982-4.99-4.474l.322-.4a7.294,7.294,0,0,1,1.637.342c.528.1,1.043.27,1.566.4,1.2.3,1.556.11,2-1.02" transform="translate(-15.648 -48.161)" fill="#fecdbe"/>
        <path id="Path_210767" data-name="Path 210767" d="M55.454,20.215q.192-3.255.588-6.491a5.4,5.4,0,0,0-3.05-5.486A2.008,2.008,0,0,1,51.949,7.18c-.405-.952-1.333-1.483-1.91-2.3A5.553,5.553,0,0,1,55.56,8.07a2.2,2.2,0,0,0,1.174,1.136,4,4,0,0,1,2.576,4.088c-.137,2.156-.391,4.3-.578,6.458-.03.343-.123.507-.5.5-.925-.028-1.852-.023-2.778-.032" transform="translate(-25.627 -2.491)" fill="#c76d36"/>
        <path id="Path_210768" data-name="Path 210768" d="M93.335,14.67a10.651,10.651,0,0,0,.145,5.92,9.8,9.8,0,0,0,2.07,3.67c.364.4.289.539-.188.732a15.951,15.951,0,0,1-6.244.716c-.246,0-.382-.106-.388-.366A12.786,12.786,0,0,1,93.24,14.658c.011-.01.043,0,.095.012" transform="translate(-45.439 -7.505)" fill="#5a5a5a"/>
        <path id="Path_210769" data-name="Path 210769" d="M104.331,111.95h-2.865c-.132-.266.062-.489.135-.709,1.535-4.653,3.092-9.3,4.625-13.951a26.129,26.129,0,0,1,2.062-3.789,1.407,1.407,0,0,0,.633,1.286,1.751,1.751,0,0,0,1.347-.011c.6-.131,1.2-.275,1.8-.413.072.338-.186.51-.366.716-1.3,1.489-2.693,2.894-4.117,4.265a3.34,3.34,0,0,0-1,1.849c-.635,3.225-1.227,6.458-1.9,9.677a2.086,2.086,0,0,1-.355,1.081" transform="translate(-51.942 -47.885)" fill="#fecdbe"/>
        <path id="Path_210770" data-name="Path 210770" d="M127.894,49.912c.311-2.328.072-4.668.166-7,.023-.6-.2-.729-.754-.725-3.06.023-6.119.013-9.179,0-.3,0-.622.1-.889-.134q6.1.02,12.189.044c.275,0,.645-.141.645.391a48.815,48.815,0,0,1-.186,7.551c-.67,4.294-4.432,8.471-8.32,9.341.691-.563,1.4-1.105,2.069-1.693a12.533,12.533,0,0,0,3.659-5.488.746.746,0,0,0,0-.221c-.881-.209-1.8.161-2.655-.2.42-.359.926-.186,1.4-.221.3-.022.614.007.919-.01.841-.047,1.073-.34.949-1.186a.735.735,0,0,1-.012-.449" transform="translate(-60.042 -21.538)" fill="#feaf9d"/>
        <path id="Path_210771" data-name="Path 210771" d="M145.472,90.078V88.77a4.171,4.171,0,0,1,3.269,4.261c.026,2.5.014,4.993,0,7.49,0,.639.272,1.457-.113,1.869s-1.219.12-1.854.129a2.552,2.552,0,0,1-1.277-.08,1.411,1.411,0,0,0,.492-1.228q-.02-4.286,0-8.572a12.365,12.365,0,0,0-.516-2.562" transform="translate(-74.502 -45.463)" fill="#b1c9eb"/>
        <path id="Path_210772" data-name="Path 210772" d="M53.865,94.873a4.808,4.808,0,0,1-2.353,4.081c-.449.276-.606.242-.793-.281a34.407,34.407,0,0,0-1.9-5.2.653.653,0,0,1,.091-.721A4.424,4.424,0,0,1,50.028,91.5c.334-.235.681-.654,1.055-.548a8.277,8.277,0,0,1,1.849.876,11.593,11.593,0,0,1,.933,3.05" transform="translate(-24.967 -46.569)" fill="#5a5a5a"/>
        <path id="Path_210773" data-name="Path 210773" d="M107.385,112.468c.191-1.784.665-3.516.98-5.277.355-1.988.806-3.958,1.164-5.945a2.119,2.119,0,0,1,.633-1.188c1.69-1.689,3.407-3.354,4.956-5.178l1.268-.368c-.006.348-.241.45-.386.6-1.152,1.208-2.266,2.46-3.491,3.591a5.5,5.5,0,0,0-1.719,3.309c-.567,3.285-1.264,6.547-1.866,9.826-.2,1.107-.988.521-1.54.628" transform="translate(-54.996 -48.403)" fill="#feaf9d"/>
        <path id="Path_210774" data-name="Path 210774" d="M91.093,62.493A6.465,6.465,0,0,0,91,59.157a10.843,10.843,0,0,0-5.323-7.723.785.785,0,0,1-.151-.172A10.059,10.059,0,0,1,93.435,62c-.03.42-.192.527-.567.513-.591-.02-1.184-.014-1.775-.02" transform="translate(-43.802 -26.253)" fill="#444"/>
        <path id="Path_210775" data-name="Path 210775" d="M86.574,84.766a.885.885,0,0,1,.8-.131c.764.1.949-.225.924-.948-.053-1.536-.017-3.075-.017-4.614,1.947-.11,1.953-.11,1.943,1.834a13.966,13.966,0,0,1-.406,4.653,8.262,8.262,0,0,1-5.857,5.583,10.567,10.567,0,0,0,3.463-4.032c.051-.115.1-.232.149-.35-.242-.275-.637.014-.845-.274.29-.3.667-.2,1.016-.221a3.428,3.428,0,0,0,.839-.068.6.6,0,0,0,.481-.534.576.576,0,0,0-.488-.6,5.4,5.4,0,0,0-1.223-.071c-.276-.016-.572.024-.783-.224" transform="translate(-43.002 -40.477)" fill="#fdaf9d"/>
        <path id="Path_210776" data-name="Path 210776" d="M139.5,69.732a16.181,16.181,0,0,0,2.035-3.208,6.066,6.066,0,0,1,.8,4.4,4.149,4.149,0,0,1-.4,1.322c-1.213,2.311-1.473,2.8-4.169,2.552a.571.571,0,0,1,.132-.571,8.9,8.9,0,0,0,1.6-4.493" transform="translate(-70.543 -34.069)" fill="#444"/>
        <path id="Path_210777" data-name="Path 210777" d="M102.363,96.984c-.224.734-.451,1.467-.67,2.2-.108.362-.291.339-.557.154A4.57,4.57,0,0,1,99.4,93.86a3.471,3.471,0,0,0,.313-.865,1.072,1.072,0,0,1,1.071-.99c.5-.178.689.2.88.52a5.505,5.505,0,0,1,.7,4.46" transform="translate(-50.727 -47.096)" fill="#5a5a5a"/>
        <path id="Path_210778" data-name="Path 210778" d="M94.2,120.923c0-1.877-.063-3.756.022-5.629a5.819,5.819,0,0,0-1.415-4.256,3.485,3.485,0,0,1,3.9,2.4,1.226,1.226,0,0,1,.02.817c-.706,2.086-1.387,4.18-2.086,6.269-.066.2-.086.494-.438.4" transform="translate(-47.532 -56.856)" fill="#ea5569"/>
        <path id="Path_210779" data-name="Path 210779" d="M113.8,84.713l-1.089-.147a6.947,6.947,0,0,1-2.238-.253c-.342-.1-.5.159-.721.318a10.668,10.668,0,0,1-.107-2.36,18.247,18.247,0,0,0,3.208.6,14.251,14.251,0,0,0,5.039-.487c.48-.142.582-.024.541.423a7.774,7.774,0,0,1-.125,1.984.9.9,0,0,0-1.167-.374,8.045,8.045,0,0,1-3.34.3" transform="translate(-56.147 -42.134)" fill="#fea68e"/>
        <path id="Path_210780" data-name="Path 210780" d="M44.836,47.449c0-1.827-.032-3.655,0-5.481.01-.592-.187-.733-.751-.73-3.731.02-7.461.01-11.193,0-.3,0-.621.1-.891-.127,4.761.007,9.521.022,14.282.011.492,0,.618.173.611.624-.016,1.184,0,2.368.009,3.553a.739.739,0,0,1-.317.649c-.6.48-1.169,1-1.751,1.5" transform="translate(-16.389 -21.054)" fill="#feaf9d"/>
        <path id="Path_210781" data-name="Path 210781" d="M79.032,110.342a2.838,2.838,0,0,1-5.609.323c-.07-.791.008-.911.735-.79a12.588,12.588,0,0,0,4.2-.007c.317-.053.782-.154.67.474" transform="translate(-37.592 -56.247)" fill="#feaf9d"/>
        <path id="Path_210782" data-name="Path 210782" d="M136.749,73.1c.312.67-.031,1.3-.158,1.927a8.723,8.723,0,0,1-1.571,3.137c-.691.009-1.384,0-2.073.034-.444.023-.54-.158-.574-.576a1.378,1.378,0,0,1,.8-1.528,13.3,13.3,0,0,0,3.576-2.994" transform="translate(-67.788 -37.437)" fill="#5a5a5a"/>
        <path id="Path_210783" data-name="Path 210783" d="M148.322,48.951v-6.2a3.153,3.153,0,0,1,2.267,2.969,3.31,3.31,0,0,1-2.267,3.233" transform="translate(-75.961 -21.893)" fill="#fca58d"/>
        <path id="Path_210784" data-name="Path 210784" d="M7.016,47.721a3.119,3.119,0,0,1-2.044-3.028,3.075,3.075,0,0,1,2.044-2.921Z" transform="translate(-2.546 -21.394)" fill="#feaf9d"/>
        <path id="Path_210785" data-name="Path 210785" d="M145.446,91.451a4.467,4.467,0,0,1,.754,2.532c-.017,3.032-.022,6.065.008,9.1.005.581-.167.811-.735.735-.018-1.278-.051-2.556-.051-3.834,0-2.843.015-5.686.024-8.528" transform="translate(-74.476 -46.836)" fill="#bfd5f1"/>
        <path id="Path_210786" data-name="Path 210786" d="M9.666,24.823c-.148-1.64-.282-3.282-.449-4.921a4.323,4.323,0,0,1,.811-3.248,19.021,19.021,0,0,0,.205,2.731,5.105,5.105,0,0,0,.269,1.121,3.227,3.227,0,0,1-.2,3.629,4.211,4.211,0,0,0-.366,1.01c-.318.086-.169-.225-.273-.322" transform="translate(-4.702 -8.53)" fill="#d57e49"/>
        <path id="Path_210787" data-name="Path 210787" d="M30.652,81.564c-.389-.279-1.173-.387-.919-1.006.2-.485.784,0,1.181.074a15.729,15.729,0,0,0,6.574-.157c.192-.046.452-.32.6-.006a.515.515,0,0,1-.291.7c-.226.114-.436.26-.653.392a12.948,12.948,0,0,1-6.489,0" transform="translate(-15.202 -41.135)" fill="#fda68e"/>
        <path id="Path_210788" data-name="Path 210788" d="M31.669,82.695c.389-.369.788-.014,1.155.033a13.564,13.564,0,0,0,4.846-.148.426.426,0,0,1,.487.116c-.968.666-1.942,1.326-2.9,2a.513.513,0,0,1-.684,0c-.961-.677-1.934-1.337-2.9-2" transform="translate(-16.219 -42.266)" fill="#fdaf9d"/>
        <path id="Path_210789" data-name="Path 210789" d="M104.188,96.47a7.391,7.391,0,0,0-.864-4.358c-.181-.285-.321-.589-.712-.621.418-.2.777-.7,1.287-.48a4.068,4.068,0,0,1,1.84,1.688.3.3,0,0,1-.04.356,15.285,15.285,0,0,0-1.511,3.416" transform="translate(-52.552 -46.582)" fill="#434343"/>
        <path id="Path_210790" data-name="Path 210790" d="M118.175,86.54c1.006-.246,2.063-.136,3.061-.437.194-.059.4-.081.588-.157.687-.281.917,0,.858.669a.943.943,0,0,1-.945,1.132,5.4,5.4,0,0,0-.747.184c-.758.2-1.54.575-1.883-.621-.109-.378-.577-.562-.933-.771" transform="translate(-60.522 -43.961)" fill="#fdaf9d"/>
        <path id="Path_210791" data-name="Path 210791" d="M23.372,86.813a2.139,2.139,0,0,1,3.311,0A13.353,13.353,0,0,0,28.2,87.873a6.6,6.6,0,0,1-1.949-.349c-.359-.075-.768-.218-1.055-.045-.994.6-1.306-.274-1.826-.665" transform="translate(-11.97 -44.058)" fill="#bed3ef"/>
        <path id="Path_210792" data-name="Path 210792" d="M78.868,109.81c-.055-.364-.252-.336-.556-.271a10.056,10.056,0,0,1-4.346.023c-.627-.14-.719.072-.706.57a.445.445,0,0,1-.078-.13c-.215-1.232-.165-1.268,1.03-1.074a10.717,10.717,0,0,0,3.816-.04c1.02-.2,1.031-.19.841.921" transform="translate(-37.428 -55.715)" fill="#f9a38c"/>
        <path id="Path_210793" data-name="Path 210793" d="M67.285,41.665a3.131,3.131,0,0,1,1.9,1.886c.071.18.259.46-.083.582-.5.179-1.016.341-1.534.472-.342.086-.277-.21-.279-.393-.008-.815,0-1.629,0-2.547" transform="translate(-34.458 -21.338)" fill="#f8a28b"/>
        <path id="Path_210794" data-name="Path 210794" d="M52.011,59.851c-.62-.289-1.357-.512-1.15-1.432.213-.947,1-.862,1.72-.875.2,0,.409,0,.613,0l-1.183,2.31" transform="translate(-26.03 -29.469)" fill="#fc8f83"/>
        <path id="Path_210795" data-name="Path 210795" d="M109.863,86.465c-.008-.491.09-.742.7-.548a21.984,21.984,0,0,0,2.259.482,2.348,2.348,0,0,0-1.688,1.193c-.242.465-.408.337-.7.042-.332-.337-.656-.643-.573-1.17" transform="translate(-56.258 -43.968)" fill="#fbad9b"/>
        <path id="Path_210796" data-name="Path 210796" d="M84.973,44.334a3.254,3.254,0,0,1,1.927-1.8c0,.7,0,1.315,0,1.933,0,.322-.194.3-.414.242-.487-.122-.976-.241-1.513-.373" transform="translate(-43.518 -21.782)" fill="#f6aa98"/>
        <path id="Path_210797" data-name="Path 210797" d="M55.585,83.365a2.074,2.074,0,0,1,0-3.5Z" transform="translate(-27.975 -40.902)" fill="#fcae9c"/>
        <path id="Path_210798" data-name="Path 210798" d="M101.685,79.9a2.067,2.067,0,0,1,0,3.456Z" transform="translate(-52.077 -40.918)" fill="#fba58d"/>
        <path id="Path_210799" data-name="Path 210799" d="M45.312,73.029a37.318,37.318,0,0,0,3.072-2.512,1.316,1.316,0,0,1-.937,1.7,9.458,9.458,0,0,1-2.134.807" transform="translate(-23.206 -36.114)" fill="#faad9b"/>
        <path id="Path_210800" data-name="Path 210800" d="M102.739,57.829c1.186.013,1.629.392,1.508,1.251-.048.341-.33.5-.479.76l-1.029-2.011" transform="translate(-52.617 -29.616)" fill="#fa8d81"/>
        <path id="Path_210801" data-name="Path 210801" d="M46.222,87.607c-.2.192-.4.381-.6.576-.157.156-.287.453-.526.34-.173-.081-.278-.348-.367-.553-.142-.326.2-.369.355-.481.412-.293.851-.546,1.28-.816.444.359.435.419-.142.934" transform="translate(-22.89 -44.389)" fill="#bcd2ed"/>
        <path id="Path_210802" data-name="Path 210802" d="M92.45,103.7c.363-.574.6-.468.777.131a9.438,9.438,0,0,0,.391.935H91.285c-.024,0-.068-.008-.07-.018a.319.319,0,0,1,.01-.095c.462-.248,1.136-.225,1.225-.953" transform="translate(-46.714 -52.914)" fill="#4d87cb"/>
        <path id="Path_210803" data-name="Path 210803" d="M62.431,104.642c-.15.018-.355.062-.251-.2.178-.443.393-.873.62-1.368l.871.8c.221.454.141.717-.424.711a2.138,2.138,0,0,0-.815.05" transform="translate(-31.83 -52.79)" fill="#09ac97"/>
        <path id="Path_210804" data-name="Path 210804" d="M47.825,87.111c.143-.3.548-.553.142-.934.159-.122.314-.249.476-.367a.341.341,0,0,1,.569.115c.1.195.136.409-.106.522-.388.18-.642.574-1.082.664" transform="translate(-24.493 -43.892)" fill="#adc4e4"/>
        <path id="Path_210805" data-name="Path 210805" d="M62.724,105.485a.726.726,0,0,1,.65-.128c.5.05.632-.2.589-.633a3.173,3.173,0,0,1,.989.761Z" transform="translate(-32.123 -53.633)" fill="#019287"/>
        <path id="Path_210806" data-name="Path 210806" d="M92.462,104.1c.037.946.037.946-1.225.953a5.464,5.464,0,0,1,1.225-.953" transform="translate(-46.726 -53.312)" fill="#a7bbd4"/>
        <path id="Path_210807" data-name="Path 210807" d="M10.117,33.4c.119.083.087.3.273.322.011.153-.046.387-.175.322-.259-.129-.118-.416-.1-.644" transform="translate(-5.153 -17.104)" fill="#52311c"/>
        <path id="Path_210808" data-name="Path 210808" d="M32.977,57.74c1.261,0,2.522-.013,3.782,0a1.16,1.16,0,0,1,1.286,1.289,5.1,5.1,0,0,1-10.192.232c-.051-1.1.333-1.516,1.418-1.524,1.235-.009,2.47,0,3.706,0" transform="translate(-14.262 -29.569)"/>
        <path id="Path_210809" data-name="Path 210809" d="M51.011,47.376A10.834,10.834,0,0,1,51,48.61a1.172,1.172,0,0,1-1.2,1.073,1.145,1.145,0,0,1-1.085-1.177c-.023-.8-.025-1.6,0-2.392a1.14,1.14,0,0,1,2.274-.123A10.182,10.182,0,0,1,51,47.376h.008" transform="translate(-24.939 -23.031)" fill="#010101"/>
        <path id="Path_210810" data-name="Path 210810" d="M22.69,47.327c0-.437-.031-.877.008-1.31a1.052,1.052,0,0,1,1.132-1.03,1.034,1.034,0,0,1,1.114.965,12.284,12.284,0,0,1,0,2.77,1.036,1.036,0,0,1-1.121.957A1.058,1.058,0,0,1,22.7,48.638c-.04-.434-.007-.873-.007-1.31" transform="translate(-11.614 -23.04)" fill="#010101"/>
        <path id="Path_210811" data-name="Path 210811" d="M19.037,59.69c-.361,0-.721,0-1.082,0a1.036,1.036,0,0,1-1.116-1.042,1,1,0,0,1,.982-1.09,14.594,14.594,0,0,1,2.391.011.983.983,0,0,1,1,1.131,1.052,1.052,0,0,1-1.169.989c-.335,0-.67,0-1,0" transform="translate(-8.622 -29.456)" fill="#fd8f83"/>
        <path id="Path_210812" data-name="Path 210812" d="M113.2,59.757c1.261,0,2.522-.008,3.783,0,.987.008,1.406.458,1.365,1.435a5.1,5.1,0,0,1-10.182-.1,1.173,1.173,0,0,1,1.251-1.331c1.261-.02,2.522-.005,3.783-.006" transform="translate(-55.395 -30.601)"/>
        <path id="Path_210813" data-name="Path 210813" d="M131.265,46.141a5.2,5.2,0,0,1,.617,0,1.126,1.126,0,0,1,1.065.956,1.015,1.015,0,0,1-.616,1.205.625.625,0,0,0-.431.759,4.035,4.035,0,0,1-.005.771,1.078,1.078,0,0,1-1.1,1.071,1.039,1.039,0,0,1-1.17-.99,17.467,17.467,0,0,1,0-2.776c.058-.73.591-1.006,1.642-1" transform="translate(-66.357 -23.626)" fill="#010100"/>
        <path id="Path_210814" data-name="Path 210814" d="M104.089,48.543c0,.412.03.826-.007,1.235a1.15,1.15,0,1,1-2.3-.043,4.965,4.965,0,0,1,0-.771.532.532,0,0,0-.384-.632A1.052,1.052,0,0,1,100.756,47a1.121,1.121,0,0,1,1.137-.868c.282-.013.566-.013.849,0a1.219,1.219,0,0,1,1.351,1.332c.015.36,0,.72,0,1.081h-.006" transform="translate(-51.577 -23.622)" fill="#010101"/>
        <path id="Path_210815" data-name="Path 210815" d="M134.872,57.971a1.223,1.223,0,0,1,.223,1.353c-.243.525-.749.524-1.254.511-.74-.02-1.481,0-2.222,0a.975.975,0,0,1-.724-1.248.945.945,0,0,1,1.084-.771,10.394,10.394,0,0,1,2.894.154" transform="translate(-67.02 -29.597)" fill="#fd8f83"/>
        <path id="Path_210816" data-name="Path 210816" d="M75.477,95.935a3.585,3.585,0,0,1-3.556-3.446,1.2,1.2,0,0,1,1.085-1.342,1.175,1.175,0,0,1,1.227,1.122c.143.9.536,1.333,1.205,1.344.693.012,1.1-.432,1.257-1.382a1.165,1.165,0,0,1,1.255-1.082A1.206,1.206,0,0,1,79,92.452a3.59,3.59,0,0,1-3.526,3.483" transform="translate(-36.833 -46.678)"/>
        <path id="Path_210817" data-name="Path 210817" d="M68.958,83.433a5.936,5.936,0,0,1-.1.987,1.057,1.057,0,0,1-1.141.837,1.039,1.039,0,0,1-1.066-.924,1.1,1.1,0,0,0-.433-.819,1.009,1.009,0,0,1-.314-1.186,1.121,1.121,0,0,1,1.031-.79c1.562-.147,2,.258,2.026,1.9" transform="translate(-33.714 -41.744)" fill="#010101"/>
        <path id="Path_210818" data-name="Path 210818" d="M87.779,81.549a1.206,1.206,0,0,1,1.378.722,1.1,1.1,0,0,1-.519,1.447c-.23.149-.121.366-.161.554a1.156,1.156,0,0,1-2.3-.129c-.027-.358-.01-.719-.008-1.078.006-1.138.385-1.513,1.611-1.516" transform="translate(-44.127 -41.76)" fill="#010100"/>
        <path id="Path_210819" data-name="Path 210819" d="M88.564,90.782l1.846.01a.825.825,0,0,1,.928.812c.028.583-.352.876-.924.89s-1.127.007-1.691.009a.809.809,0,0,1-.865-.787.828.828,0,0,1,.707-.934" transform="translate(-44.992 -46.493)" fill="#fd8f83"/>
        <path id="Path_210820" data-name="Path 210820" d="M65.091,90.784c.307,0,.614-.007.92,0a.714.714,0,0,1,.764.768c.038.526-.183.876-.691.919a11.535,11.535,0,0,1-1.99,0,.847.847,0,0,1,.078-1.684c.3-.02.613,0,.92,0" transform="translate(-32.453 -46.491)" fill="#fd8f83"/>
        <path id="Path_210821" data-name="Path 210821" d="M38.18,62.58a2.73,2.73,0,0,1-2.64,1.553A2.642,2.642,0,0,1,33.2,62.58Z" transform="translate(-17.002 -32.05)" fill="#fdaf9d"/>
        <path id="Path_210822" data-name="Path 210822" d="M113.551,64.561H118.4a2.272,2.272,0,0,1-2.084,1.579,2.689,2.689,0,0,1-2.764-1.58" transform="translate(-58.154 -33.064)" fill="#fcae9c"/>
      </g>
    </g>
  </g>
</svg>
