<svg xmlns="http://www.w3.org/2000/svg" xmlns:xlink="http://www.w3.org/1999/xlink" width="315.591" height="225.575" viewBox="0 0 315.591 225.575">
  <defs>
    <clipPath id="clip-path">
      <path id="Path_189400" data-name="Path 189400" d="M10.213,25.908H310.024c4.358,0,7.89,3.884,7.89,8.676V242.807c0,4.792-3.532,8.676-7.89,8.676H10.213c-4.358,0-7.89-3.884-7.89-8.676V34.584c0-4.792,3.532-8.676,7.89-8.676" transform="translate(-2.323 -46.349)" fill="#a6bbff"/>
    </clipPath>
    <clipPath id="clip-path-2">
      <rect id="Rectangle_338716" data-name="Rectangle 338716" width="263.383" height="495.122" fill="none"/>
    </clipPath>
    <clipPath id="clip-path-3">
      <rect id="Rectangle_338709" data-name="Rectangle 338709" width="263.382" height="495.122" fill="none"/>
    </clipPath>
    <clipPath id="clip-path-4">
      <path id="Path_209742" data-name="Path 209742" d="M324.047,946.608c-8.821,15-38.922,220.671-38.922,220.671l51.787,9.565,39.582-174.161-7.257,176.141,53.106-1.979s23.09-139.34,23.09-172.842-21.44-84.442-21.44-84.442l-81.474-3.3s-9.651,15.343-18.472,30.346" transform="translate(-285.125 -916.262)" fill="none"/>
    </clipPath>
    <clipPath id="clip-path-6">
      <path id="Path_209763" data-name="Path 209763" d="M601.792,20.46c-3.124,13.2.286,24.437,6.015,28.7l-.705,12.29-13.336,9.273s7.784.016,15.473,11.018c7.984,11.425,25.428,27.012,35.536,27.212,16.167.32,17.187-32.433,17.187-32.433L649.97,61.526,652,50.1s8.043-10.951,6.248-24.128S645.24,1.654,632.477.167A25.206,25.206,0,0,0,629.562,0c-12.012,0-24.881,8.253-27.77,20.46" transform="translate(-593.765 0)" fill="none"/>
    </clipPath>
    <clipPath id="clip-path-8">
      <rect id="Rectangle_338711" data-name="Rectangle 338711" width="6.534" height="4.974" fill="none"/>
    </clipPath>
    <clipPath id="clip-path-9">
      <rect id="Rectangle_338712" data-name="Rectangle 338712" width="6.963" height="6.531" fill="none"/>
    </clipPath>
    <clipPath id="clip-path-10">
      <rect id="Rectangle_338713" data-name="Rectangle 338713" width="6.442" height="6.418" fill="none"/>
    </clipPath>
    <clipPath id="clip-path-11">
      <rect id="Rectangle_338714" data-name="Rectangle 338714" width="6.302" height="6.263" fill="none"/>
    </clipPath>
  </defs>
  <g id="Group_983199" data-name="Group 983199" transform="translate(-1.578 0)">
    <g id="Group_176387" data-name="Group 176387">
      <path id="Path_189401" data-name="Path 189401" d="M10.213,25.908H310.024a7.89,7.89,0,0,1,7.89,7.89V223.152a7.89,7.89,0,0,1-7.89,7.89H10.213a7.89,7.89,0,0,1-7.89-7.89V33.8a7.89,7.89,0,0,1,7.89-7.89" transform="translate(-0.745 -5.467)" fill="#6b8dfc"/>
      <g id="Mask_Group_335" data-name="Mask Group 335" transform="translate(1.579 20.441)" clip-path="url(#clip-path)">
        <g id="Group_176397" data-name="Group 176397" transform="translate(-109.949 30.219) rotate(-6)">
          <g id="Group_176396" data-name="Group 176396" transform="translate(0 0)">
            <g id="Group_176395" data-name="Group 176395">
              <path id="Path_189395" data-name="Path 189395" d="M413.919,210.61c-31.181,31.369-63.309,61.678-96.008,91.5,14.94-30.829,30.924-61.235,45.191-92.351,16.172-35.282,35.279-83.244,18.479-118.763-38.3-80.96-148.128,4.976-189.076,48.39-4.366,4.622-8.543,9.436-12.774,14.2,15.466-34.277,29.586-69.42,27.9-105.642-2.323-49.8-48.351-59.746-89.48-34.746C73.981,40.047,37.476,84.737,6.845,125.213c-26.013,34.377,28.681,63.6,54.48,29.708a496.388,496.388,0,0,1,45.96-52.268q-3.765,6.435-7.6,12.856c-16.921,28.276-33.655,56.653-47.736,86.245C24.984,258.428-14.652,336.979,13.516,394.1c14.2,28.783,50.443,30.172,78.38,16.972,37.547-17.742,64.647-54.449,90.586-85.647,27.076-32.575,51.173-66.959,76.4-100.815,10.547-14.148,21.09-28.49,33.018-41.6.273-.3.564-.578.837-.883l-.325.9c-7.175,19.59-16.124,38.48-25.167,57.422-16.837,35.238-38.177,72.494-45.461,110.359-6.444,33.478,5.571,70.15,46.312,65.944,38.3-3.952,70.532-41.525,97.153-66.839,32.243-30.661,63.955-61.883,95.671-93.069C494.036,224.287,446.666,177.67,413.919,210.61Z" transform="translate(6.263 6.116)" fill="#3c3fa7"/>
              <path id="Path_189396" data-name="Path 189396" d="M270.443,429.227c-14.991.661-27.478-3.953-36.291-13.469-12.249-13.228-16.8-35.452-12.187-59.455,6.012-31.281,21.117-61.66,35.727-91.039,3.492-7.035,6.955-14,10.249-20.881,3.117-6.532,6.4-13.393,9.663-20.485-1.919,2.555-3.819,5.109-5.7,7.637l-1.867,2.5c-6.555,8.794-13.032,17.628-19.509,26.449-18.167,24.778-36.959,50.4-57.13,74.656q-4.419,5.324-8.9,10.821c-23.149,28.258-49.385,60.291-84.072,76.684-30.93,14.6-70.48,12.63-86.263-19.387-28.367-57.507,8.5-134.749,35.423-191.153l3.062-6.408c7.922-16.66,16.7-32.969,25.955-49.225q-3.134,3.943-6.177,7.932C56.48,185.364,30.152,186.221,13.9,174.94.466,165.61-6.5,147.471,8.258,127.973,40.952,84.765,77.3,41.074,121.506,14.2c24.541-14.905,50.81-18.309,70.309-9.1,17.163,8.107,27.2,25.2,28.273,48.142,1.254,26.908-5.831,53.035-15.531,78.078,33.173-31.98,93.918-77.946,140.8-73.455C366.9,59.936,383.1,72.143,393.5,94.14c17.111,36.174.235,82.888-18.526,123.82-8.932,19.479-18.666,38.957-28.082,57.788l-3.333,6.663c26.612-24.712,50.458-47.7,72.384-69.75h0c10.84-10.912,24.189-15.327,37.552-12.467a40.06,40.06,0,0,1,30.179,29.459c3.107,13.278-1.264,26.569-12.313,37.429l-3.607,3.548c-30.029,29.529-61.08,60.059-92.141,89.6-3.828,3.643-7.766,7.534-11.833,11.546-24.151,23.849-54.212,53.538-89.322,57.162C273.1,429.073,271.768,429.169,270.443,429.227Zm28.79-246.82a5.558,5.558,0,0,1,2.961.66,5.442,5.442,0,0,1,2.619,6.79l-.331.9c-7.52,20.536-17.021,40.436-25.4,57.986-3.321,6.948-6.819,13.977-10.344,21.075-14.216,28.588-28.914,58.147-34.6,87.71-3.86,20.077-.218,39.074,9.508,49.578,7.2,7.78,17.5,11,30.614,9.692,30.4-3.142,57.361-29.761,81.144-53.254,4.125-4.076,8.134-8.031,12.02-11.724,30.977-29.456,61.989-59.947,91.98-89.438l3.6-3.548c9.768-9.6,10.06-19.146,8.582-25.468a29.251,29.251,0,0,0-21.735-21.235c-6.329-1.364-15.871-.955-25.423,8.659h0c-28.326,28.487-59.81,58.494-96.26,91.738a6.367,6.367,0,0,1-7.817.807,5.7,5.7,0,0,1-1.723-7.328c5.645-11.656,11.442-23.246,17.234-34.842,9.368-18.732,19.048-38.1,27.891-57.384,17.576-38.337,33.516-81.828,18.431-113.711-8.773-18.54-21.564-28.373-39.1-30.063C299.37,65.822,235.42,115.2,203.128,149.431c-3.439,3.65-6.766,7.423-10.1,11.189l-2.526,2.861a6.472,6.472,0,0,1-7.974,1.562,5.672,5.672,0,0,1-2.165-7.394C195.1,125.006,209.349,90.168,207.7,54.875c-.883-18.918-8.5-32.3-22.035-38.689-15.79-7.45-37.6-4.365-58.35,8.244-42.2,25.649-77.5,68.151-109.357,110.257-10.07,13.305-4.708,24.257,3.665,30.069,11.34,7.871,29.6,8.051,41.118-7.088a504.2,504.2,0,0,1,46.611-53,6.376,6.376,0,0,1,8.113-.942,5.77,5.77,0,0,1,1.384,7.726q-3.785,6.473-7.636,12.912c-17.135,28.632-33.652,56.732-47.433,85.684l-3.063,6.426C34.894,270.583-.476,344.693,25.4,397.163c12.571,25.5,44.978,26.61,70.491,14.564,31.84-15.039,55.931-44.458,79.225-72.9q4.521-5.52,8.967-10.9c19.9-23.936,38.563-49.38,56.617-73.989q9.735-13.278,19.562-26.537l1.867-2.5c9.9-13.292,20.128-27.036,31.582-39.624l.584-.616A7.464,7.464,0,0,1,299.232,182.407Zm120.949,34.32.062,0Z"/>
            </g>
            <path id="Path_189397" data-name="Path 189397" d="M29.99,3.316C5.149,49.457-10.089,102.931,7.775,150.564c2.645,7.038,14.767,3.376,12.09-3.77C3.088,102.07,17.044,52.394,40.408,9,44.257,1.836,33.859-3.875,29.99,3.316Z" transform="translate(26.649 235.341)"/>
            <path id="Path_189398" data-name="Path 189398" d="M17.828,32.446c-.1-.007-.2-.034-.3-.047-.158-.328-.3-.674-.355-.769l-.023-.036c-.01-.048.007-.019-.008-.091-.677-2.684-1.129-5.42-1.606-8.161Q13.86,13.789,12.2,4.235C11.654,1.144,7.866-.794,4.764.316A6.847,6.847,0,0,0,.105,8L3.884,29.612c1.054,6,2.809,13.851,10.124,14.739,3.16.378,6.861-1.124,7.807-4.6C22.628,36.779,21.215,32.857,17.828,32.446Z" transform="translate(51.85 334.048)"/>
            <path id="Path_189399" data-name="Path 189399" d="M24.429.648c-6.863-3.384-13.6,7.414-6.72,10.8C27.2,16.131,29.7,26.4,29.629,36.594,29.555,48.174,27.7,60.163,25.27,71.671A248.814,248.814,0,0,1,.843,138.1c-3.856,7.16,6.549,12.87,10.418,5.679A261.041,261.041,0,0,0,38.755,65.6C42.656,43.5,47.551,12.04,24.429.648Z" transform="translate(329.526 93.782)"/>
          </g>
        </g>
        <g id="Group_983499" data-name="Group 983499" transform="translate(11.072 -19.223)">
          <g id="Group_983521" data-name="Group 983521" clip-path="url(#clip-path-2)">
            <path id="Path_209719" data-name="Path 209719" d="M350.534,2226.484,339.775,2283.5l-31.769-23.184,7.077-36.425Z" transform="translate(-249.8 -1803.631)" fill="#fff"/>
            <g id="Group_983500" data-name="Group 983500">
              <g id="Group_983499-2" data-name="Group 983499" clip-path="url(#clip-path-3)">
                <path id="Path_209720" data-name="Path 209720" d="M336.936,2281.317a.66.66,0,0,1-.39-.127l-31.769-23.184a.66.66,0,0,1-.259-.66l7.077-36.425a.657.657,0,0,1,.7-.534l35.452,2.595a.661.661,0,0,1,.6.782l-10.759,57.014a.659.659,0,0,1-.406.492.649.649,0,0,1-.243.047m-31.04-24.131L336.48,2279.5l10.428-55.257-34.127-2.5Z" transform="translate(-246.961 -1800.79)"/>
                <path id="Path_209721" data-name="Path 209721" d="M737.648,2264.784,735.359,2306l29.14-3.747,3.955-40.8Z" transform="translate(-596.395 -1834.097)" fill="#fff"/>
                <path id="Path_209722" data-name="Path 209722" d="M732.52,2303.82a.661.661,0,0,1-.66-.7l2.29-41.212a.662.662,0,0,1,.589-.622l30.805-3.33a.662.662,0,0,1,.729.722l-3.955,40.8a.662.662,0,0,1-.574.592l-29.14,3.746a.617.617,0,0,1-.084.005m2.919-41.276-2.214,39.857,27.828-3.578,3.825-39.462Z" transform="translate(-593.556 -1831.259)"/>
                <path id="Path_209723" data-name="Path 209723" d="M484.879,706.274l-1.707-9.969,12.165,1.432v16.647l-6.6-1.209Z" transform="translate(-391.865 -564.721)"/>
                <path id="Path_209724" data-name="Path 209724" d="M1220.84,326.778l-1.043-14.532a19.1,19.1,0,0,0,1.225-6.521c.029-3.659-.974-18.475-.974-18.475l-26.611,2.1s3.981,20.438,6.36,24.761,1.914,13.849,1.914,13.849Z" transform="translate(-967.908 -232.967)" fill="#efa466"/>
                <path id="Path_209725" data-name="Path 209725" d="M1145.79,320.229s-13.594-5.668-17.811-11.58c-3.6-5.041-5.577-9.318-7.376-11.863a1.518,1.518,0,0,1,.513-2.161,4.3,4.3,0,0,1,4.946.028,27.217,27.217,0,0,1,5.747,5.939c1.443,2.261,9.462,3.575,9.462,3.575Z" transform="translate(-908.623 -238.326)" fill="#efa466"/>
                <path id="Path_209726" data-name="Path 209726" d="M1169.385,191.186l-5.8-22.874a2.922,2.922,0,0,1,2.545-3.452,3.2,3.2,0,0,1,3.774,2.008l6.443,23.039Z" transform="translate(-943.626 -133.651)" fill="#efa466"/>
                <path id="Path_209727" data-name="Path 209727" d="M1216.915,177.606l-3.426-24.807a3.259,3.259,0,0,1,6.438-.889l3.77,25.4Z" transform="translate(-984.149 -121.12)" fill="#efa466"/>
                <path id="Path_209728" data-name="Path 209728" d="M1257.854,186.629l-2.309-21.862c-.158-1.494,1.226-2.866,3.051-3.025a2.936,2.936,0,0,1,3.381,2.253l2.624,22.388Z" transform="translate(-1018.269 -131.165)" fill="#efa466"/>
                <path id="Path_209729" data-name="Path 209729" d="M1304.695,216.05l3.138-16.545a2.546,2.546,0,0,1,3.011-1.664h0c1.353.209,2.27,1.218,2.081,2.288l-3.015,16.992Z" transform="translate(-1058.141 -160.422)" fill="#efa466"/>
                <path id="Path_209730" data-name="Path 209730" d="M1247.775,355.7a.567.567,0,0,1-.563-.513c-.787-8.278-9.386-12.252-9.473-12.291a.567.567,0,0,1,.465-1.034c.379.17,9.286,4.275,10.136,13.218a.567.567,0,0,1-.51.618.513.513,0,0,1-.055,0" transform="translate(-1003.567 -277.218)"/>
                <path id="Path_209731" data-name="Path 209731" d="M697.238,2378.146l-10.02,41.839,76.048.158s1.349-18.452-5.678-22.661-20.542-8.663-20.542-8.663l-9.563-14.013-10.035-.127-15.7,14.013Z" transform="translate(-557.351 -1925.925)"/>
                <path id="Path_209732" data-name="Path 209732" d="M761.239,2418.589h0l-76.048-.158a.474.474,0,0,1-.458-.583l10.02-41.838a.472.472,0,0,1,.894-.076l4.25,9.941,15.211-13.575a.47.47,0,0,1,.321-.12l10.035.127a.475.475,0,0,1,.384.206l9.473,13.882c1.517.507,13.9,4.708,20.484,8.655,7.193,4.309,5.962,22.334,5.906,23.1a.473.473,0,0,1-.471.438m-75.45-1.1,75,.155c.143-2.8.634-18.122-5.475-21.782-6.9-4.135-20.312-8.575-20.447-8.62a.473.473,0,0,1-.243-.183l-9.424-13.81-9.606-.122-15.565,13.891a.473.473,0,0,1-.749-.167l-3.947-9.233Z" transform="translate(-555.324 -1923.899)" fill="#fff"/>
                <path id="Path_209733" data-name="Path 209733" d="M853.574,2354.044s-1.422-12.2-8.181-12.5-9.636,2.807-7.529,8.983,16.13,18.035,16.13,18.035l8.122-4.911Z" transform="translate(-678.979 -1899.037)"/>
                <path id="Path_209734" data-name="Path 209734" d="M763.226,2475.684c-.032-.707-.076-1.4-.133-2.058h-.049c-.554-5.094-1.98-10.659-5.456-12.741-5.433-3.255-14.745-6.655-18.689-8.03-3.179.361-7.526,2.015-11.337,7.52-2.521,3.641-3.7,8.605-4.144,13.252H689.556l-2.338,9.761,36.224.075c0,.027.006.056.009.083h39.816a61.878,61.878,0,0,0-.04-7.861" transform="translate(-557.351 -1989.328)" fill="#fff"/>
                <path id="Path_209735" data-name="Path 209735" d="M760.428,2481.368H720.612a.653.653,0,0,1-.321-.083l-35.912-.075a.661.661,0,0,1-.642-.815l2.338-9.762a.661.661,0,0,1,.643-.507h33.266c.426-3.88,1.5-9.079,4.2-12.968,4.011-5.793,8.634-7.439,11.806-7.8a.669.669,0,0,1,.292.033c3.819,1.332,13.3,4.785,18.811,8.087,3.039,1.821,4.972,6.192,5.746,12.993a.657.657,0,0,1,.078.259c.054.624.1,1.322.134,2.077a61.933,61.933,0,0,1,.039,7.948.661.661,0,0,1-.659.613m0-.661h0Zm-39.5-.662H759.8a63.8,63.8,0,0,0-.075-7.154s0-.01,0-.015c-.03-.643-.067-1.243-.111-1.787a.666.666,0,0,1-.069-.229c-.7-6.416-2.475-10.65-5.138-12.247-5.34-3.2-14.552-6.569-18.422-7.922-2.895.365-7.054,1.927-10.72,7.221-2.671,3.858-3.666,9.166-4.029,12.939a.662.662,0,0,1-.659.6H687.239l-2.021,8.439,35.387.074a.665.665,0,0,1,.319.082" transform="translate(-554.513 -1986.49)"/>
                <path id="Path_209736" data-name="Path 209736" d="M844.837,2397.045H826.775a.472.472,0,0,1-.168-.914l15.265-5.822H818.312a.473.473,0,0,1-.125-.928l21.395-5.905a.473.473,0,0,1,.251.911l-18.034,4.978h22.639a.472.472,0,0,1,.168.914L829.34,2396.1h15.5a.472.472,0,1,1,0,.944" transform="translate(-663.289 -1933.047)" fill="#fff"/>
                <path id="Path_209737" data-name="Path 209737" d="M192.9,323.25l.026,8.216s-29.131,2.707-43.132,9.757S86.8,389.991,82.117,404.954s15.39,33.084,27.752,42.68,46,26.965,46,26.965l10.743-18.228-36.92-39.619,29.657-17.324s9.809,26.476,17.835,36.847,77.946-1.144,77.946-1.144l9.533-21.09s29.61,29.639,38.113,33.42c9.415,4.187,26.171-.476,26.171-13.115s-7.493-86.975-7.493-86.975l-26.774.817.821,42.281s-29.725-41.861-36.825-46.459-35.813-10.871-35.813-10.871l-.144-8.363Z" transform="translate(-66.036 -262.164)" fill="#fff"/>
                <path id="Path_209738" data-name="Path 209738" d="M153.843,473.042a.471.471,0,0,1-.216-.053c-.337-.174-33.817-17.5-46.072-27.012-8.66-6.722-15.506-13.252-20.348-19.408-7.123-9.057-9.668-17.059-7.565-23.786,2.95-9.433,22.295-27.649,30.475-35.043,14.647-13.239,30.391-25.422,37.437-28.97,12.991-6.541,39.195-9.39,42.871-9.763l-.024-7.786a.473.473,0,0,1,.146-.343.466.466,0,0,1,.35-.13l29.822,1.524a.472.472,0,0,1,.448.464l.138,7.99c3.509.777,28.866,6.492,35.6,10.856,6.485,4.2,30.983,38.224,36.066,45.337l-.791-40.753a.472.472,0,0,1,.458-.481l26.774-.817h.015a.472.472,0,0,1,.47.425c.075.744,7.5,74.5,7.5,87.023a13.55,13.55,0,0,1-6.62,11.617c-5.781,3.756-14.283,4.568-20.215,1.929-7.99-3.552-33.773-29.052-37.772-33.035L253.535,433.3a.473.473,0,0,1-.354.272c-.175.029-17.71,2.9-36,4.466-24.7,2.115-38.964.938-42.4-3.5-7.351-9.5-16.272-32.656-17.706-36.445l-28.664,16.744,36.518,39.187a.473.473,0,0,1,.061.562L154.25,472.81a.473.473,0,0,1-.407.233m37.5-151.324.024,7.717a.473.473,0,0,1-.429.472c-.29.027-29.2,2.78-42.963,9.708-6.979,3.514-22.636,15.638-37.228,28.827C93.581,383.96,82.571,396.58,80.543,403.066c-2,6.411.487,14.123,7.406,22.92,4.795,6.1,11.586,12.571,20.185,19.246,11.465,8.9,41.709,24.725,45.53,26.713L164,454.406l-36.68-39.361a.472.472,0,0,1,.108-.73l29.657-17.324a.472.472,0,0,1,.681.244c.1.264,9.875,26.527,17.765,36.722,2.217,2.864,11.227,5.733,41.564,3.136,17.068-1.461,33.479-4.061,35.683-4.417l9.428-20.859a.472.472,0,0,1,.765-.139c.3.3,29.645,29.62,37.971,33.322,5.661,2.517,13.785,1.736,19.316-1.859a12.643,12.643,0,0,0,6.19-10.824c0-11.967-6.828-80.328-7.446-86.49l-25.867.789.812,41.814a.473.473,0,0,1-.858.283c-.3-.418-29.753-41.84-36.7-46.336s-35.371-10.744-35.657-10.807a.472.472,0,0,1-.371-.453l-.136-7.922Z" transform="translate(-64.012 -260.135)"/>
                <path id="Path_209739" data-name="Path 209739" d="M715.711,264.912H698.439a.661.661,0,0,1-.661-.661V236.8a.661.661,0,0,1,.661-.661h17.272a.661.661,0,0,1,.661.661v27.45a.662.662,0,0,1-.661.661M699.1,263.59H715.05V237.463H699.1Z" transform="translate(-565.916 -191.516)"/>
                <path id="Path_209740" data-name="Path 209740" d="M285.125,1167.279s30.1-205.668,38.922-220.671,18.472-30.346,18.472-30.346l81.474,3.3s21.44,50.94,21.44,84.442-23.09,172.842-23.09,172.842l-53.106,1.979,7.257-176.141-39.582,174.162Z" transform="translate(-231.244 -743.112)" fill="#ffb6c8"/>
              </g>
            </g>
            <g id="Group_983502" data-name="Group 983502" transform="translate(53.881 173.15)">
              <g id="Group_983501" data-name="Group 983501" clip-path="url(#clip-path-4)">
                <path id="Path_209741" data-name="Path 209741" d="M731.922,927.456,719.08,997.6l-54.067,12.191,19.1-84.279Z" transform="translate(-593.224 -923.767)" fill="#ffb6c8"/>
              </g>
            </g>
            <g id="Group_983504" data-name="Group 983504">
              <g id="Group_983503" data-name="Group 983503" clip-path="url(#clip-path-3)">
                <path id="Path_209743" data-name="Path 209743" d="M591.771,475.508s9.023-23.173,6.78-43.014-8.146-52.661-12.772-55.325l-10.5-3.3s4.632,10.688,3.224,37.29l-50.047-2.523L517.522,368.26l-14.439,2.664s11.09,28.733,10.374,46.823-8.346,27.651-11.776,29.44-9.475-6.965-9.475-6.965,5.571,25.336,18.132,32.388Z" transform="translate(-399.192 -298.668)" fill="#ffb6c8"/>
                <path id="Path_209744" data-name="Path 209744" d="M485.062,702.61a.472.472,0,0,1-.233-.884l10.684-6.039a.472.472,0,1,1,.465.822l-10.684,6.039a.471.471,0,0,1-.232.061" transform="translate(-393.014 -564.17)" fill="#fff"/>
                <path id="Path_209745" data-name="Path 209745" d="M254.975,752.846a.471.471,0,0,1-.352-.158c-.115-.128-11.559-12.846-18.737-14.744a.472.472,0,1,1,.242-.913c7.451,1.97,18.723,14.495,19.2,15.027a.473.473,0,0,1-.352.788" transform="translate(-191.024 -597.738)" fill="#fff"/>
                <path id="Path_209746" data-name="Path 209746" d="M446.987,483.685a.662.662,0,0,1-.586-.354L430.41,452.965a.661.661,0,0,1,1.17-.616l15.991,30.366a.662.662,0,0,1-.585.97" transform="translate(-349.012 -366.58)"/>
                <path id="Path_209747" data-name="Path 209747" d="M1211.906,697.823a.661.661,0,0,1-.661-.648l-.648-31.425a.661.661,0,1,1,1.323-.027l.648,31.425a.661.661,0,0,1-.647.675h-.014" transform="translate(-981.825 -539.393)"/>
                <path id="Path_209748" data-name="Path 209748" d="M1176.19,755.427a.661.661,0,0,1-.531-1.055l6.577-8.887a.661.661,0,1,1,1.063.787l-6.577,8.887a.661.661,0,0,1-.532.268" transform="translate(-953.384 -604.39)"/>
                <path id="Path_209749" data-name="Path 209749" d="M611.947,595.006h11.087a1.743,1.743,0,0,0,1.7-2.112l-4.354-20.117a1.743,1.743,0,0,0-1.7-1.374H607.592a1.743,1.743,0,0,0-1.7,2.112l4.354,20.117a1.743,1.743,0,0,0,1.7,1.374" transform="translate(-491.359 -463.423)" fill="#ffb6c8"/>
                <path id="Path_209750" data-name="Path 209750" d="M961.977,599.429h11.069a1.959,1.959,0,0,0,1.912-2.385l-4.727-21.219H955.149l4.916,22.071a1.959,1.959,0,0,0,1.912,1.533" transform="translate(-774.65 -467.01)" fill="#ffb6c8"/>
                <path id="Path_209751" data-name="Path 209751" d="M944.649,541.613c.058,0,.115,0,.173-.006l13.582-1a2.325,2.325,0,0,0,2.147-2.487l-.492-6.717a2.323,2.323,0,0,0-2.487-2.147l-13.582,1a2.326,2.326,0,0,0-2.147,2.486l.493,6.718a2.323,2.323,0,0,0,2.313,2.153m13.094-10.847a.811.811,0,0,1,.808.752l.493,6.717a.813.813,0,0,1-.75.869l-13.582,1a.812.812,0,0,1-.868-.75l-.492-6.717a.812.812,0,0,1,.75-.868l13.582-1,.06,0m2.054,7.414h0Z" transform="translate(-763.854 -429.239)" fill="#fff"/>
                <path id="Path_209752" data-name="Path 209752" d="M590.807,535.8a2.365,2.365,0,0,0,.275-.016l13.8-1.606a2.34,2.34,0,0,0,2.052-2.592l-.775-6.662a2.337,2.337,0,0,0-2.592-2.051l-13.8,1.606a2.338,2.338,0,0,0-2.051,2.592l.775,6.662a2.338,2.338,0,0,0,2.317,2.067m14.624-4.039h0a.826.826,0,0,1-.724.915l-13.8,1.606a.826.826,0,0,1-.915-.724l-.775-6.662a.825.825,0,0,1,.724-.915l13.8-1.606a.825.825,0,0,1,.915.724Z" transform="translate(-476.638 -424.052)" fill="#fff"/>
                <path id="Path_209753" data-name="Path 209753" d="M665.773,76.519,653.782,61.526,655.815,50.1s8.043-10.951,6.248-24.128S649.051,1.654,636.289.167,608.728,7.259,605.6,20.46s.286,24.437,6.015,28.7l-.705,12.289L598.465,70.1Z" transform="translate(-485.37 0)" fill="#ffd4de"/>
                <path id="Path_209754" data-name="Path 209754" d="M701.985,38.8c-1.237,14.9-15.137,29.548-28.569,26.913s-21.987-16.665-19.109-31.339,20.064-24.487,28.514-23.5c6.1.711,20.4,12.97,19.163,27.928" transform="translate(-530.208 -8.761)"/>
                <path id="Path_209755" data-name="Path 209755" d="M661.961,76.519,649.97,61.526,652,50.1s8.043-10.951,6.248-24.128S645.24,1.654,632.477.167,604.917,7.259,601.792,20.46s.286,24.437,6.015,28.7L607.1,61.449l-13.336,9.273s7.784.016,15.473,11.018c7.984,11.425,25.428,27.012,35.536,27.212,16.167.32,17.188-32.433,17.188-32.433" transform="translate(-481.559 0)" fill="#5774cd"/>
              </g>
            </g>
            <g id="Group_983506" data-name="Group 983506" transform="translate(112.206 0)">
              <g id="Group_983505" data-name="Group 983505" clip-path="url(#clip-path-6)">
                <path id="Path_209756" data-name="Path 209756" d="M739.552,277.274a.279.279,0,0,1-.105-.52l32.261-18.235a.279.279,0,0,1,.275.486L739.722,277.24a.277.277,0,0,1-.169.034" transform="translate(-711.802 -209.637)" fill="#fff"/>
                <path id="Path_209757" data-name="Path 209757" d="M738.776,276.655a.488.488,0,0,1-.055,0,.468.468,0,0,1-.177-.872L770.8,257.544a.468.468,0,0,1,.461.815L739,276.595a.468.468,0,0,1-.229.06m32.259-18.793a.091.091,0,0,0-.045.012l-32.26,18.235a.091.091,0,0,0-.034.123.09.09,0,0,0,.068.045h0a.087.087,0,0,0,.055-.011l32.26-18.235a.091.091,0,0,0,.034-.123.09.09,0,0,0-.079-.046" transform="translate(-710.992 -208.826)" fill="#fff"/>
                <path id="Path_209758" data-name="Path 209758" d="M684.083,265.743a.288.288,0,0,1-.067-.016L666.775,259.2a.279.279,0,0,1,.2-.522l17.242,6.529a.279.279,0,0,1-.131.538" transform="translate(-652.832 -209.778)" fill="#fff"/>
                <path id="Path_209759" data-name="Path 209759" d="M680.139,331.17a.27.27,0,0,1-.077-.02L655.8,320.869a.279.279,0,1,1,.218-.513l24.259,10.281a.279.279,0,0,1-.141.534" transform="translate(-643.941 -259.799)" fill="#fff"/>
                <path id="Path_209760" data-name="Path 209760" d="M679.359,330.55a.446.446,0,0,1-.053,0,.467.467,0,0,1-.128-.034l-24.26-10.282a.468.468,0,0,1-.248-.613.47.47,0,0,1,.613-.249l24.26,10.282a.467.467,0,0,1,.248.613.471.471,0,0,1-.432.285M655.1,319.711a.089.089,0,0,0-.083.055.088.088,0,0,0,0,.068.089.089,0,0,0,.048.049l24.26,10.281a.094.094,0,0,0,.025.007h0a.091.091,0,0,0,.093-.054.09.09,0,0,0-.048-.118l-24.26-10.281a.091.091,0,0,0-.035-.007" transform="translate(-643.129 -258.988)" fill="#fff"/>
                <path id="Path_209761" data-name="Path 209761" d="M617.475,348.05a.279.279,0,0,1-.089-.528l52.5-25.288a.279.279,0,1,1,.242.5l-52.5,25.288a.276.276,0,0,1-.153.026" transform="translate(-612.794 -261.317)" fill="#fff"/>
                <path id="Path_209762" data-name="Path 209762" d="M616.7,347.433a.458.458,0,0,1-.053,0h0a.468.468,0,0,1-.149-.886l52.5-25.288a.468.468,0,1,1,.406.843l-52.5,25.288a.465.465,0,0,1-.2.047m-.01-.379a.088.088,0,0,0,.049-.008l52.5-25.289a.087.087,0,0,0,.046-.051.088.088,0,0,0,0-.069.09.09,0,0,0-.121-.041l-52.5,25.288a.087.087,0,0,0-.046.051.09.09,0,0,0,.075.119" transform="translate(-611.983 -260.509)" fill="#fff"/>
              </g>
            </g>
            <g id="Group_983520" data-name="Group 983520">
              <g id="Group_983519" data-name="Group 983519" clip-path="url(#clip-path-3)">
                <path id="Path_209764" data-name="Path 209764" d="M651.443,49.461c-.438,14.946,10.3,27.387,23.98,27.788s25.128-11.391,25.566-26.337-10.3-27.388-23.98-27.788-25.128,11.391-25.566,26.337" transform="translate(-528.327 -18.746)" fill="#efa466"/>
                <path id="Path_209765" data-name="Path 209765" d="M674.74,138.957s-6.552-12.194-17.25-3.59c0,0,5.721,13.035,17.25,3.59" transform="translate(-533.241 -107.293)" fill="#fff"/>
                <path id="Path_209766" data-name="Path 209766" d="M768.521,183.253a.263.263,0,0,0,.209-.432l-2.818-3.36a.265.265,0,0,0-.185-.093.262.262,0,0,0-.2.07l-3.037,2.816a.263.263,0,1,0,.358.385l2.834-2.628,2.64,3.148a.263.263,0,0,0,.194.094" transform="translate(-618.335 -145.472)"/>
                <path id="Path_209767" data-name="Path 209767" d="M767.717,182.631a.052.052,0,0,1-.013,0,.454.454,0,0,1-.333-.161l-2.513-3-2.688,2.493a.452.452,0,1,1-.614-.663l3.036-2.816a.447.447,0,0,1,.333-.12.456.456,0,0,1,.319.16l2.818,3.361a.452.452,0,0,1-.347.742m0-.378a.074.074,0,0,0,.049-.016.075.075,0,0,0,.01-.105l-2.817-3.36a.075.075,0,0,0-.052-.026.073.073,0,0,0-.055.019l-3.037,2.816a.074.074,0,0,0,0,.1.071.071,0,0,0,.051.024.079.079,0,0,0,.054-.02l2.833-2.628a.189.189,0,0,1,.273.017l2.64,3.148a.074.074,0,0,0,.055.026" transform="translate(-617.524 -144.661)"/>
                <path id="Path_209768" data-name="Path 209768" d="M680.136,107.783a.262.262,0,0,0,.113-.022,10.39,10.39,0,0,1,9.485.263.263.263,0,0,0,.292-.438,10.726,10.726,0,0,0-9.987-.307.263.263,0,0,0,.1.5" transform="translate(-551.4 -86.152)"/>
                <path id="Path_209769" data-name="Path 209769" d="M689.066,107.443a.447.447,0,0,1-.249-.075,10.231,10.231,0,0,0-9.3-.247.429.429,0,0,1-.194.037.453.453,0,0,1-.4-.271.452.452,0,0,1,.233-.595,10.9,10.9,0,0,1,10.168.323.452.452,0,0,1-.253.827m-5.031-1.683a9.7,9.7,0,0,1,4.992,1.294.074.074,0,0,0,.081-.124,10.508,10.508,0,0,0-9.806-.291.074.074,0,0,0-.039.041.073.073,0,0,0,0,.056.074.074,0,0,0,.066.044h0a.077.077,0,0,0,.032-.006,11.6,11.6,0,0,1,4.673-1.014" transform="translate(-550.589 -85.338)"/>
                <path id="Path_209770" data-name="Path 209770" d="M823.7,111.427a.262.262,0,0,0,.151-.043,10.67,10.67,0,0,1,9.623-.234.263.263,0,0,0,.209-.482,11,11,0,0,0-10.119.277.263.263,0,0,0,.137.483" transform="translate(-667.837 -88.888)"/>
                <path id="Path_209771" data-name="Path 209771" d="M822.9,110.81h-.013a.452.452,0,0,1-.235-.829,11.2,11.2,0,0,1,10.3-.292.451.451,0,0,1,.234.594.454.454,0,0,1-.594.235,10.517,10.517,0,0,0-9.445.219.451.451,0,0,1-.246.073m0-.378a.074.074,0,0,0,.042-.012,10.818,10.818,0,0,1,9.8-.249.075.075,0,0,0,.1-.039.074.074,0,0,0-.038-.1,10.8,10.8,0,0,0-9.941.262.074.074,0,0,0,.039.135" transform="translate(-667.027 -88.082)"/>
                <path id="Path_209772" data-name="Path 209772" d="M814.8,146.392s7.38-11.492,17.44-1.841c0,0-6.61,12.413-17.44,1.841" transform="translate(-660.82 -114.105)" fill="#fff"/>
                <path id="Path_209773" data-name="Path 209773" d="M740.692,234.344s4.659-3.507,15.092-1.169c0,0-6.7,6.744-15.092,1.169" transform="translate(-600.72 -188.459)" fill="#ee2700"/>
                <path id="Path_209774" data-name="Path 209774" d="M682.934,23.123c10.344.3,19,7.491,22.421,17.438-21.476-2.031-29.161-13.337-29.161-13.337-1.064,6.834-11.914,11.968-17.458,14.168,3.474-10.9,13.1-18.594,24.2-18.269" transform="translate(-534.252 -18.746)"/>
                <path id="Path_209775" data-name="Path 209775" d="M737.174,234.539c-1.733,0-2.953-.04-3.122-.046a.283.283,0,0,1-.274-.293.288.288,0,0,1,.293-.274c.147.006,14.727.482,17.1-1.933a.283.283,0,0,1,.4.4c-1.843,1.874-9.872,2.148-14.4,2.148" transform="translate(-595.113 -188.084)"/>
                <path id="Path_209776" data-name="Path 209776" d="M830.163,142.1a5.816,5.816,0,1,0,5.816-5.816,5.816,5.816,0,0,0-5.816,5.816" transform="translate(-673.283 -110.527)"/>
                <path id="Path_209777" data-name="Path 209777" d="M672.356,134.049a5.816,5.816,0,1,0,5.816-5.816,5.816,5.816,0,0,0-5.816,5.816" transform="translate(-545.298 -104)"/>
                <path id="Path_209778" data-name="Path 209778" d="M97.685,2359.307l2.864,38.637-96.744.789s-2.628-25.629,7.43-27.418,37.306-6.028,37.306-6.028L70.2,2347.98l10.117,22.362Z" transform="translate(-2.835 -1904.272)"/>
                <path id="Path_209779" data-name="Path 209779" d="M1.786,2397.177a.472.472,0,0,1-.47-.424,78.348,78.348,0,0,1-.057-13.129c.818-9.038,3.467-14.019,7.874-14.8,9.6-1.708,35.176-5.7,37.192-6.011l21.558-17.229a.473.473,0,0,1,.725.175l9.893,21.867,16.912-10.745a.473.473,0,0,1,.725.364L99,2395.881a.472.472,0,0,1-.467.507l-96.744.789ZM68,2346.7l-21.182,16.928a.474.474,0,0,1-.222.1c-.272.042-27.359,4.259-37.3,6.026-8.821,1.57-7.36,23.15-7.081,26.478l95.8-.781L95.253,2358.1l-16.706,10.612a.472.472,0,0,1-.684-.2Z" transform="translate(-0.816 -1902.243)" fill="#fff"/>
                <path id="Path_209780" data-name="Path 209780" d="M241.046,2330.877s8.7-19.16,13.482-23.405c5.915-5.257,11.221,1.96,4.893,9.094s-18.375,14.311-18.375,14.311" transform="translate(-195.494 -1869.956)"/>
                <path id="Path_209781" data-name="Path 209781" d="M239.018,2329.318a.472.472,0,0,1-.43-.667c.022-.048,2.213-4.862,4.961-10.134,3.707-7.112,6.613-11.63,8.638-13.43,3.089-2.745,5.779-2.126,7.144-.763,2.042,2.04,2.154,6.311-1.584,10.525-6.3,7.107-18.365,14.331-18.486,14.4a.479.479,0,0,1-.242.066m17.5-25.2a5.8,5.8,0,0,0-3.7,1.678c-3.9,3.461-10.587,17.312-12.7,21.822,3.3-2.083,11.956-7.788,16.929-13.394,2.474-2.789,3.883-6.971,1.623-9.229a2.962,2.962,0,0,0-2.149-.877" transform="translate(-193.467 -1867.925)" fill="#fff"/>
                <path id="Path_209782" data-name="Path 209782" d="M100.55,2486.118l-.724-9.774H28.055V2456.7c-6.464,1.039-12.929,2.1-16.82,2.79-5.66,1.007-7.3,9.565-7.657,16.855h0a78.769,78.769,0,0,0,.227,10.563l24.25-.2Z" transform="translate(-2.835 -1992.446)" fill="#fff"/>
                <path id="Path_209783" data-name="Path 209783" d="M.97,2484.73a.661.661,0,0,1-.658-.594,80.143,80.143,0,0,1-.23-10.663C.6,2462.9,3.432,2456.862,8.284,2456c3.372-.6,9.035-1.539,16.831-2.792a.662.662,0,0,1,.766.653v18.983H96.99a.662.662,0,0,1,.66.613l.724,9.774a.662.662,0,0,1-.654.71l-96.744.789Zm23.589-30.093c-7.394,1.19-12.789,2.086-16.043,2.665-2.91.518-6.506,3.754-7.112,16.236a80.089,80.089,0,0,0,.171,9.864L97,2482.624l-.627-8.457H25.22a.662.662,0,0,1-.661-.662Z" transform="translate(0 -1989.608)"/>
                <path id="Path_209784" data-name="Path 209784" d="M168.906,2356.431a.472.472,0,0,1-.472-.473V2345.1a.472.472,0,0,1,.759-.375l10.731,8.191V2340.82a.473.473,0,0,1,.7-.412l11.415,6.432-5.034-19.723a.473.473,0,0,1,.784-.458l12.963,12.37a.472.472,0,1,1-.652.684l-11.772-11.233,4.9,19.2a.473.473,0,0,1-.69.529l-11.674-6.578v12.238a.472.472,0,0,1-.759.375l-10.731-8.19v9.906a.472.472,0,0,1-.472.473" transform="translate(-136.604 -1886.874)" fill="#fff"/>
                <path id="Path_209785" data-name="Path 209785" d="M450.025,1049.417l3.315,7.081-3.1,9.309-1.972-1.518s-3.7-3.779-3.481-6.633,5.234-8.239,5.234-8.239" transform="translate(-360.729 -851.104)" fill="#efa466"/>
                <path id="Path_209786" data-name="Path 209786" d="M468.189,947.665a27.042,27.042,0,0,1,1.868-4.593,8.565,8.565,0,0,1,11.717-3.593l11.268,6.136a2.592,2.592,0,0,1,.813,3.859,4.69,4.69,0,0,1-5.718,1.4l-7.865-3.569Z" transform="translate(-379.713 -761.093)" fill="#efa466"/>
                <path id="Path_209787" data-name="Path 209787" d="M451.8,990.245l-.531-5.068a4.919,4.919,0,0,1,.239-2.143,8.18,8.18,0,0,1,6.632-5.393l2.365-.316a10.7,10.7,0,0,1,9.109,3.168l7.115,7.352c3.434,3.553-.718,6.674-4.71,5.7a8.6,8.6,0,0,1-1.181-.378c-3.406-1.38-9.088-7.229-9.088-7.229Z" transform="translate(-365.966 -792.559)" fill="#efa466"/>
                <path id="Path_209788" data-name="Path 209788" d="M446.586,1014.905s.676-6.99,2.608-8.806a7.8,7.8,0,0,1,11.246.43l7.705,8.82a2.439,2.439,0,0,1-.551,3.631,4.408,4.408,0,0,1-2.57.714,4.233,4.233,0,0,1-2.8-1.237l-5.61-5.53Z" transform="translate(-362.193 -814.2)" fill="#efa466"/>
                <path id="Path_209789" data-name="Path 209789" d="M441.845,1039.911c2.335-3.678,6.791-4.26,9.406-1.6l6.978,7.092a2.676,2.676,0,0,1-.232,3.587,3.906,3.906,0,0,1-2.1,1.147,2.911,2.911,0,0,1-2.416-.686l-3.458-3.293c-4.9-4.2-3.619-1.263-7.365,4.811,0,0-3.815-6.329-.815-11.054" transform="translate(-357.415 -840.76)" fill="#efa466"/>
                <g id="Group_983509" data-name="Group 983509" transform="translate(107.879 183.715)" style="mix-blend-mode: overlay;isolation: isolate">
                  <g id="Group_983508" data-name="Group 983508">
                    <g id="Group_983507" data-name="Group 983507" clip-path="url(#clip-path-8)">
                      <path id="Path_209790" data-name="Path 209790" d="M575.239,977.145a4.888,4.888,0,0,1-2.046-.49c-1.751-.824-2.711-2.346-2.184-3.465s2.311-1.349,4.062-.525a4.664,4.664,0,0,1,1.9,1.563,1.736,1.736,0,0,1-1.364,2.9,3.557,3.557,0,0,1-.371.019m-2.22-4.4a1.559,1.559,0,0,0-1.5.686c-.378.8.5,2.045,1.913,2.711a4.1,4.1,0,0,0,2.116.42,1.183,1.183,0,0,0,.951-2.02,4.093,4.093,0,0,0-1.672-1.364,4.347,4.347,0,0,0-1.811-.433" transform="translate(-570.865 -972.172)"/>
                    </g>
                  </g>
                </g>
                <g id="Group_983512" data-name="Group 983512" transform="translate(104.69 193.926)" style="mix-blend-mode: overlay;isolation: isolate">
                  <g id="Group_983511" data-name="Group 983511">
                    <g id="Group_983510" data-name="Group 983510" clip-path="url(#clip-path-9)">
                      <path id="Path_209791" data-name="Path 209791" d="M558.543,1032.729c-.08,0-.161,0-.243-.008a5,5,0,0,1-4.185-3.392,2.312,2.312,0,0,1,2.531-3.122,4.715,4.715,0,0,1,2.588,1.084c1.654,1.341,2.21,3.407,1.239,4.6a2.4,2.4,0,0,1-1.93.833m-2.138-5.964a1.853,1.853,0,0,0-1.492.624,1.928,1.928,0,0,0-.252,1.785,4.437,4.437,0,0,0,3.679,2.982,1.931,1.931,0,0,0,1.694-.616c.775-.956.256-2.664-1.156-3.808a4.141,4.141,0,0,0-2.27-.959q-.1-.007-.2-.007m3.848,4.952h0Z" transform="translate(-553.989 -1026.199)"/>
                    </g>
                  </g>
                </g>
                <g id="Group_983515" data-name="Group 983515" transform="translate(99.671 198.485)" style="mix-blend-mode: overlay;isolation: isolate">
                  <g id="Group_983514" data-name="Group 983514">
                    <g id="Group_983513" data-name="Group 983513" clip-path="url(#clip-path-10)">
                      <path id="Path_209792" data-name="Path 209792" d="M531.617,1056.743a3.182,3.182,0,0,1-.5-.041,4.675,4.675,0,0,1-3.636-3.581,2.241,2.241,0,0,1,2.713-2.755,4.415,4.415,0,0,1,2.35,1.25c1.438,1.415,1.76,3.427.72,4.485a2.248,2.248,0,0,1-1.642.641m-1.927-5.85a1.7,1.7,0,0,0-1.241.472,1.841,1.841,0,0,0-.412,1.659,4.113,4.113,0,0,0,3.167,3.119,1.841,1.841,0,0,0,1.652-.438c.822-.835.5-2.487-.713-3.683a3.847,3.847,0,0,0-2.042-1.094,2.591,2.591,0,0,0-.411-.034m3.368,5.01h0Z" transform="translate(-527.429 -1050.327)"/>
                    </g>
                  </g>
                </g>
                <g id="Group_983518" data-name="Group 983518" transform="translate(95.062 202.452)" style="mix-blend-mode: overlay;isolation: isolate">
                  <g id="Group_983517" data-name="Group 983517">
                    <g id="Group_983516" data-name="Group 983516" clip-path="url(#clip-path-11)">
                      <path id="Path_209793" data-name="Path 209793" d="M507.3,1077.584a4.291,4.291,0,0,1-2.881-1.326,4.6,4.6,0,0,1-1.312-2.283,2.225,2.225,0,0,1,.489-2.081c.98-1,2.943-.656,4.376.755s1.8,3.369.823,4.364a2.044,2.044,0,0,1-1.5.571m-2.2-5.706a1.5,1.5,0,0,0-1.1.414,1.682,1.682,0,0,0-.338,1.568,4.034,4.034,0,0,0,1.154,1.994c1.211,1.192,2.814,1.533,3.574.761s.394-2.371-.816-3.562a3.748,3.748,0,0,0-2.475-1.175m3.493,4.936h0Z" transform="translate(-503.041 -1071.323)"/>
                    </g>
                  </g>
                </g>
                <path id="Path_209794" data-name="Path 209794" d="M462.21,1048.446a.163.163,0,0,0,.133-.048,2.852,2.852,0,0,0,.232-3.818l-6.978-7.091a5.651,5.651,0,0,0-4.652-1.661,6.873,6.873,0,0,0-5.01,3.291.165.165,0,0,0,.278.177,6.548,6.548,0,0,1,4.767-3.14,5.256,5.256,0,0,1,4.382,1.565l6.978,7.092a2.511,2.511,0,0,1-.232,3.355.165.165,0,0,0,0,.233.161.161,0,0,0,.1.047" transform="translate(-361.644 -840.056)"/>
                <path id="Path_209795" data-name="Path 209795" d="M461.414,1047.825l-.035,0a.354.354,0,0,1-.217-.6,2.315,2.315,0,0,0,.232-3.09l-6.978-7.092a5.071,5.071,0,0,0-4.228-1.51,6.362,6.362,0,0,0-4.627,3.053.354.354,0,0,1-.644-.113.35.35,0,0,1,.047-.266,7.063,7.063,0,0,1,5.15-3.378,5.843,5.843,0,0,1,4.806,1.717l6.979,7.092a3.048,3.048,0,0,1-.233,4.083.354.354,0,0,1-.251.1" transform="translate(-360.832 -839.245)"/>
                <path id="Path_209796" data-name="Path 209796" d="M472.293,1014.726a.165.165,0,0,0,.14-.272l-7.705-8.82a8.384,8.384,0,0,0-7.542-2.563c-1.781.337-4.173,1.491-5.456,5.072a.165.165,0,1,0,.31.111c1.23-3.435,3.511-4.538,5.207-4.86a8.04,8.04,0,0,1,7.233,2.457l7.705,8.82a.163.163,0,0,0,.108.055" transform="translate(-366.356 -813.413)"/>
                <path id="Path_209797" data-name="Path 209797" d="M471.5,1014.108l-.035,0a.352.352,0,0,1-.231-.119l-7.705-8.82a7.843,7.843,0,0,0-7.056-2.4c-1.648.312-3.864,1.387-5.064,4.738a.354.354,0,1,1-.666-.238c1.313-3.666,3.77-4.848,5.6-5.194a8.58,8.58,0,0,1,7.72,2.625l7.705,8.82a.354.354,0,0,1-.267.586" transform="translate(-365.545 -812.605)"/>
                <path id="Path_209798" data-name="Path 209798" d="M467.465,978.558a.165.165,0,0,0,.078-.011,33.08,33.08,0,0,1,6.021-1.8,10.3,10.3,0,0,1,8.969,3.12.165.165,0,0,0,.237-.229,10.62,10.62,0,0,0-9.25-3.218,32.7,32.7,0,0,0-6.1,1.817.165.165,0,0,0,.046.316" transform="translate(-379.005 -791.822)"/>
                <path id="Path_209799" data-name="Path 209799" d="M481.842,979.3h-.006a.351.351,0,0,1-.248-.108,10.114,10.114,0,0,0-8.808-3.064,33.267,33.267,0,0,0-5.976,1.784.354.354,0,1,1-.265-.656,33.038,33.038,0,0,1,6.147-1.829A10.8,10.8,0,0,1,482.1,978.7a.354.354,0,0,1-.254.6" transform="translate(-378.195 -791.01)"/>
                <path id="Path_209800" data-name="Path 209800" d="M584.36,901.245a.661.661,0,0,1-.463-1.134c.751-.738,1.944-2.264,1.944-3.217a11.986,11.986,0,0,0-.908-3.594.661.661,0,0,1,1.218-.517,13.083,13.083,0,0,1,1.013,4.11c0,1.816-2.1,3.927-2.341,4.162a.66.66,0,0,1-.463.189" transform="translate(-473.395 -723.744)"/>
                <path id="Path_209801" data-name="Path 209801" d="M615.784,901.744a.661.661,0,0,1-.494-1.1,6.154,6.154,0,0,0,1.555-3.191,14.21,14.21,0,0,0-1.08-4.156.662.662,0,0,1,1.221-.509,15.727,15.727,0,0,1,1.182,4.665c0,1.926-1.812,3.984-1.889,4.07a.66.66,0,0,1-.494.222" transform="translate(-498.881 -723.743)"/>
                <path id="Path_209802" data-name="Path 209802" d="M657.342,905.354a.662.662,0,0,1-.618-.9,13.927,13.927,0,0,0,.869-4.017,20.585,20.585,0,0,0-.777-4.453.661.661,0,0,1,1.27-.369,21.511,21.511,0,0,1,.83,4.822,15.032,15.032,0,0,1-.957,4.49.662.662,0,0,1-.618.425" transform="translate(-532.585 -725.982)"/>
                <path id="Path_209803" data-name="Path 209803" d="M705.383,908.2a.662.662,0,0,1-.616-.9,14.874,14.874,0,0,0,.965-4.224,16,16,0,0,0-.863-4.206.661.661,0,0,1,1.247-.44,17.041,17.041,0,0,1,.938,4.646,15.927,15.927,0,0,1-1.056,4.7.662.662,0,0,1-.616.421" transform="translate(-571.548 -728.289)"/>
                <path id="Path_209804" data-name="Path 209804" d="M762.181,908.2l-.054,0a.662.662,0,0,1-.606-.712c0-.025.2-2.47.2-4.3,0-1.843-.088-4.492-.089-4.519a.661.661,0,1,1,1.322-.044c0,.027.09,2.7.09,4.563,0,1.881-.193,4.3-.2,4.4a.662.662,0,0,1-.659.608" transform="translate(-617.611 -728.289)"/>
                <path id="Path_209805" data-name="Path 209805" d="M813.771,908.2h-.008a.662.662,0,0,1-.653-.669l.11-8.891a.661.661,0,0,1,1.323.016l-.11,8.891a.661.661,0,0,1-.661.653" transform="translate(-659.453 -728.289)"/>
                <path id="Path_209806" data-name="Path 209806" d="M867.447,908.2h-.008a.662.662,0,0,1-.653-.669l.11-8.891a.654.654,0,0,1,.669-.653.661.661,0,0,1,.653.669l-.11,8.891a.662.662,0,0,1-.661.653" transform="translate(-702.985 -728.289)"/>
                <path id="Path_209807" data-name="Path 209807" d="M914.01,908.2H914a.661.661,0,0,1-.653-.669l.11-8.891a.661.661,0,0,1,1.323.016l-.11,8.891a.662.662,0,0,1-.661.653" transform="translate(-740.749 -728.289)"/>
                <path id="Path_209808" data-name="Path 209808" d="M948.893,908.2a.662.662,0,0,1-.649-.539,15.792,15.792,0,0,1,.113-9.151.661.661,0,0,1,1.294.275,14.617,14.617,0,0,0-.107,8.631.661.661,0,0,1-.651.783" transform="translate(-768.546 -728.289)"/>
                <path id="Path_209809" data-name="Path 209809" d="M979.671,908.2a.662.662,0,0,1-.635-.477,25.081,25.081,0,0,1-.918-4.3,28.983,28.983,0,0,1,1.027-4.957.661.661,0,0,1,1.273.36,28.149,28.149,0,0,0-.977,4.592,24.265,24.265,0,0,0,.866,3.935.662.662,0,0,1-.636.846" transform="translate(-793.279 -728.289)"/>
                <path id="Path_209810" data-name="Path 209810" d="M1004.785,908.2a.662.662,0,0,1-.619-.428,20.221,20.221,0,0,1-1.2-4.345,23.266,23.266,0,0,1,1.308-5,.661.661,0,1,1,1.244.449,21.972,21.972,0,0,0-1.229,4.545,19,19,0,0,0,1.116,3.888.662.662,0,0,1-.385.853.67.67,0,0,1-.233.042" transform="translate(-813.43 -728.289)"/>
                <path id="Path_209811" data-name="Path 209811" d="M890.151,971.879a.662.662,0,0,1-.662-.661v-38.3a.661.661,0,0,1,1.323,0v38.3a.661.661,0,0,1-.661.661" transform="translate(-721.399 -756.087)"/>
                <path id="Path_209812" data-name="Path 209812" d="M883,1122.974h.418a2.272,2.272,0,0,0,2.272-2.272v-2.033a2.272,2.272,0,0,0-2.272-2.272H883a2.272,2.272,0,0,0-2.272,2.272v2.033a2.272,2.272,0,0,0,2.272,2.272" transform="translate(-714.294 -905.426)"/>
                <path id="Path_209813" data-name="Path 209813" d="M834.192,975a.661.661,0,0,1-.661-.661V928.663a.661.661,0,0,1,1.323,0v45.675a.661.661,0,0,1-.661.661" transform="translate(-676.015 -752.633)"/>
                <path id="Path_209814" data-name="Path 209814" d="M827.251,1154.783h0a2.481,2.481,0,0,0,2.481-2.481v-2.881a2.481,2.481,0,1,0-4.962,0v2.881a2.481,2.481,0,0,0,2.481,2.481" transform="translate(-668.909 -930.197)"/>
                <path id="Path_209815" data-name="Path 209815" d="M759.767,1340.816a.626.626,0,0,1-.127-.012.661.661,0,0,1-.523-.775l2.532-13.014a.661.661,0,0,1,.493-.517l17.53-4.254a.661.661,0,1,1,.312,1.285l-17.117,4.154-2.451,12.6a.662.662,0,0,1-.648.535" transform="translate(-615.654 -1072.358)"/>
                <path id="Path_209816" data-name="Path 209816" d="M331.594,2167.734a.688.688,0,0,1-.109-.009l-49.306-8.145a.661.661,0,1,1,.215-1.305l49.307,8.145a.662.662,0,0,1-.107,1.314" transform="translate(-228.405 -1750.409)"/>
                <path id="Path_209817" data-name="Path 209817" d="M719.4,2205.829a.661.661,0,0,1-.034-1.322l59.865-3.139a.661.661,0,1,1,.069,1.321l-59.865,3.139H719.4" transform="translate(-582.918 -1785.365)"/>
              </g>
            </g>
          </g>
        </g>
      </g>
    </g>
  </g>
</svg>
