<svg xmlns="http://www.w3.org/2000/svg" xmlns:xlink="http://www.w3.org/1999/xlink" width="315.591" height="225.575" viewBox="0 0 315.591 225.575">
  <defs>
    <clipPath id="clip-path">
      <path id="Path_189400" data-name="Path 189400" d="M10.213,25.908H310.024c4.358,0,7.89,3.884,7.89,8.676V242.807c0,4.792-3.532,8.676-7.89,8.676H10.213c-4.358,0-7.89-3.884-7.89-8.676V34.584c0-4.792,3.532-8.676,7.89-8.676" transform="translate(-2.323 -46.349)" fill="#a6bbff"/>
    </clipPath>
    <clipPath id="clip-path-2">
      <rect id="Rectangle_338729" data-name="Rectangle 338729" width="242.689" height="545.667" fill="none"/>
    </clipPath>
    <clipPath id="clip-path-3">
      <rect id="Rectangle_338722" data-name="Rectangle 338722" width="242.688" height="545.666" fill="none"/>
    </clipPath>
    <clipPath id="clip-path-4">
      <rect id="Rectangle_338721" data-name="Rectangle 338721" width="22.089" height="12.615" fill="none"/>
    </clipPath>
    <clipPath id="clip-path-6">
      <rect id="Rectangle_338723" data-name="Rectangle 338723" width="6.788" height="7.193" fill="none"/>
    </clipPath>
    <clipPath id="clip-path-7">
      <rect id="Rectangle_338724" data-name="Rectangle 338724" width="3.533" height="9.733" fill="none"/>
    </clipPath>
    <clipPath id="clip-path-8">
      <rect id="Rectangle_338725" data-name="Rectangle 338725" width="3.736" height="8.931" fill="none"/>
    </clipPath>
    <clipPath id="clip-path-9">
      <path id="Path_209962" data-name="Path 209962" d="M723.96,454.215c-.776,4.862,18.781,12.024,43.682,16s45.716,3.252,46.492-1.61-18.782-12.024-43.683-16a189.492,189.492,0,0,0-28.826-2.566c-10.374,0-17.227,1.425-17.665,4.175" transform="translate(-723.938 -450.04)" fill="none"/>
    </clipPath>
    <clipPath id="clip-path-11">
      <path id="Path_210019" data-name="Path 210019" d="M41.692,348.495C18.315,353.555.025,361.285,0,366.018v.02a1.755,1.755,0,0,0,.039.362c1.015,4.69,21.31,4.276,45.329-.923s42.667-13.216,41.652-17.905c-.473-2.187-5.136-3.264-12.417-3.264-8.332,0-20.092,1.412-32.911,4.187" transform="translate(0 -344.308)" fill="none"/>
    </clipPath>
  </defs>
  <g id="Group_983523" data-name="Group 983523" transform="translate(-1.578 0)">
    <g id="Group_176387" data-name="Group 176387">
      <path id="Path_189401" data-name="Path 189401" d="M10.213,25.908H310.024a7.89,7.89,0,0,1,7.89,7.89V223.152a7.89,7.89,0,0,1-7.89,7.89H10.213a7.89,7.89,0,0,1-7.89-7.89V33.8a7.89,7.89,0,0,1,7.89-7.89" transform="translate(-0.745 -5.467)" fill="#6b8dfc"/>
      <g id="Mask_Group_335" data-name="Mask Group 335" transform="translate(1.579 20.441)" clip-path="url(#clip-path)">
        <g id="Group_176397" data-name="Group 176397" transform="translate(-109.949 30.219) rotate(-6)">
          <g id="Group_176396" data-name="Group 176396" transform="translate(0 0)">
            <g id="Group_176395" data-name="Group 176395">
              <path id="Path_189395" data-name="Path 189395" d="M413.919,210.61c-31.181,31.369-63.309,61.678-96.008,91.5,14.94-30.829,30.924-61.235,45.191-92.351,16.172-35.282,35.279-83.244,18.479-118.763-38.3-80.96-148.128,4.976-189.076,48.39-4.366,4.622-8.543,9.436-12.774,14.2,15.466-34.277,29.586-69.42,27.9-105.642-2.323-49.8-48.351-59.746-89.48-34.746C73.981,40.047,37.476,84.737,6.845,125.213c-26.013,34.377,28.681,63.6,54.48,29.708a496.388,496.388,0,0,1,45.96-52.268q-3.765,6.435-7.6,12.856c-16.921,28.276-33.655,56.653-47.736,86.245C24.984,258.428-14.652,336.979,13.516,394.1c14.2,28.783,50.443,30.172,78.38,16.972,37.547-17.742,64.647-54.449,90.586-85.647,27.076-32.575,51.173-66.959,76.4-100.815,10.547-14.148,21.09-28.49,33.018-41.6.273-.3.564-.578.837-.883l-.325.9c-7.175,19.59-16.124,38.48-25.167,57.422-16.837,35.238-38.177,72.494-45.461,110.359-6.444,33.478,5.571,70.15,46.312,65.944,38.3-3.952,70.532-41.525,97.153-66.839,32.243-30.661,63.955-61.883,95.671-93.069C494.036,224.287,446.666,177.67,413.919,210.61Z" transform="translate(6.263 6.116)" fill="#3c3fa7"/>
              <path id="Path_189396" data-name="Path 189396" d="M270.443,429.227c-14.991.661-27.478-3.953-36.291-13.469-12.249-13.228-16.8-35.452-12.187-59.455,6.012-31.281,21.117-61.66,35.727-91.039,3.492-7.035,6.955-14,10.249-20.881,3.117-6.532,6.4-13.393,9.663-20.485-1.919,2.555-3.819,5.109-5.7,7.637l-1.867,2.5c-6.555,8.794-13.032,17.628-19.509,26.449-18.167,24.778-36.959,50.4-57.13,74.656q-4.419,5.324-8.9,10.821c-23.149,28.258-49.385,60.291-84.072,76.684-30.93,14.6-70.48,12.63-86.263-19.387-28.367-57.507,8.5-134.749,35.423-191.153l3.062-6.408c7.922-16.66,16.7-32.969,25.955-49.225q-3.134,3.943-6.177,7.932C56.48,185.364,30.152,186.221,13.9,174.94.466,165.61-6.5,147.471,8.258,127.973,40.952,84.765,77.3,41.074,121.506,14.2c24.541-14.905,50.81-18.309,70.309-9.1,17.163,8.107,27.2,25.2,28.273,48.142,1.254,26.908-5.831,53.035-15.531,78.078,33.173-31.98,93.918-77.946,140.8-73.455C366.9,59.936,383.1,72.143,393.5,94.14c17.111,36.174.235,82.888-18.526,123.82-8.932,19.479-18.666,38.957-28.082,57.788l-3.333,6.663c26.612-24.712,50.458-47.7,72.384-69.75h0c10.84-10.912,24.189-15.327,37.552-12.467a40.06,40.06,0,0,1,30.179,29.459c3.107,13.278-1.264,26.569-12.313,37.429l-3.607,3.548c-30.029,29.529-61.08,60.059-92.141,89.6-3.828,3.643-7.766,7.534-11.833,11.546-24.151,23.849-54.212,53.538-89.322,57.162C273.1,429.073,271.768,429.169,270.443,429.227Zm28.79-246.82a5.558,5.558,0,0,1,2.961.66,5.442,5.442,0,0,1,2.619,6.79l-.331.9c-7.52,20.536-17.021,40.436-25.4,57.986-3.321,6.948-6.819,13.977-10.344,21.075-14.216,28.588-28.914,58.147-34.6,87.71-3.86,20.077-.218,39.074,9.508,49.578,7.2,7.78,17.5,11,30.614,9.692,30.4-3.142,57.361-29.761,81.144-53.254,4.125-4.076,8.134-8.031,12.02-11.724,30.977-29.456,61.989-59.947,91.98-89.438l3.6-3.548c9.768-9.6,10.06-19.146,8.582-25.468a29.251,29.251,0,0,0-21.735-21.235c-6.329-1.364-15.871-.955-25.423,8.659h0c-28.326,28.487-59.81,58.494-96.26,91.738a6.367,6.367,0,0,1-7.817.807,5.7,5.7,0,0,1-1.723-7.328c5.645-11.656,11.442-23.246,17.234-34.842,9.368-18.732,19.048-38.1,27.891-57.384,17.576-38.337,33.516-81.828,18.431-113.711-8.773-18.54-21.564-28.373-39.1-30.063C299.37,65.822,235.42,115.2,203.128,149.431c-3.439,3.65-6.766,7.423-10.1,11.189l-2.526,2.861a6.472,6.472,0,0,1-7.974,1.562,5.672,5.672,0,0,1-2.165-7.394C195.1,125.006,209.349,90.168,207.7,54.875c-.883-18.918-8.5-32.3-22.035-38.689-15.79-7.45-37.6-4.365-58.35,8.244-42.2,25.649-77.5,68.151-109.357,110.257-10.07,13.305-4.708,24.257,3.665,30.069,11.34,7.871,29.6,8.051,41.118-7.088a504.2,504.2,0,0,1,46.611-53,6.376,6.376,0,0,1,8.113-.942,5.77,5.77,0,0,1,1.384,7.726q-3.785,6.473-7.636,12.912c-17.135,28.632-33.652,56.732-47.433,85.684l-3.063,6.426C34.894,270.583-.476,344.693,25.4,397.163c12.571,25.5,44.978,26.61,70.491,14.564,31.84-15.039,55.931-44.458,79.225-72.9q4.521-5.52,8.967-10.9c19.9-23.936,38.563-49.38,56.617-73.989q9.735-13.278,19.562-26.537l1.867-2.5c9.9-13.292,20.128-27.036,31.582-39.624l.584-.616A7.464,7.464,0,0,1,299.232,182.407Zm120.949,34.32.062,0Z"/>
            </g>
            <path id="Path_189397" data-name="Path 189397" d="M29.99,3.316C5.149,49.457-10.089,102.931,7.775,150.564c2.645,7.038,14.767,3.376,12.09-3.77C3.088,102.07,17.044,52.394,40.408,9,44.257,1.836,33.859-3.875,29.99,3.316Z" transform="translate(26.649 235.341)"/>
            <path id="Path_189398" data-name="Path 189398" d="M17.828,32.446c-.1-.007-.2-.034-.3-.047-.158-.328-.3-.674-.355-.769l-.023-.036c-.01-.048.007-.019-.008-.091-.677-2.684-1.129-5.42-1.606-8.161Q13.86,13.789,12.2,4.235C11.654,1.144,7.866-.794,4.764.316A6.847,6.847,0,0,0,.105,8L3.884,29.612c1.054,6,2.809,13.851,10.124,14.739,3.16.378,6.861-1.124,7.807-4.6C22.628,36.779,21.215,32.857,17.828,32.446Z" transform="translate(51.85 334.048)"/>
            <path id="Path_189399" data-name="Path 189399" d="M24.429.648c-6.863-3.384-13.6,7.414-6.72,10.8C27.2,16.131,29.7,26.4,29.629,36.594,29.555,48.174,27.7,60.163,25.27,71.671A248.814,248.814,0,0,1,.843,138.1c-3.856,7.16,6.549,12.87,10.418,5.679A261.041,261.041,0,0,0,38.755,65.6C42.656,43.5,47.551,12.04,24.429.648Z" transform="translate(329.526 93.782)"/>
          </g>
        </g>
        <g id="Group_983531" data-name="Group 983531" transform="translate(32.25 -20.441)">
          <g id="Group_983555" data-name="Group 983555" clip-path="url(#clip-path-2)">
            <rect id="Rectangle_338720" data-name="Rectangle 338720" width="22.089" height="25.954" transform="translate(118.408 81.64)" fill="#ea8271"/>
            <g id="Group_983535" data-name="Group 983535" transform="translate(0 0)">
              <g id="Group_983534" data-name="Group 983534" clip-path="url(#clip-path-3)">
                <g id="Group_983533" data-name="Group 983533" transform="translate(118.408 81.639)" opacity="0.44">
                  <g id="Group_983532" data-name="Group 983532">
                    <g id="Group_983531-2" data-name="Group 983531" clip-path="url(#clip-path-4)">
                      <path id="Path_209890" data-name="Path 209890" d="M563.626,399.054a23.227,23.227,0,0,0,9.765,2.171,23.633,23.633,0,0,0,12.325-3.533v-9.083H563.626Z" transform="translate(-563.626 -388.609)"/>
                    </g>
                  </g>
                </g>
              </g>
            </g>
            <path id="Path_209891" data-name="Path 209891" d="M748.953,2283.289l2.189,50.1,31.006-7.052,8.755-12.159-14.834-12.159.122-23.346Z" transform="translate(-591.611 -1799.962)" fill="#ea8271"/>
            <g id="Group_983546" data-name="Group 983546" transform="translate(0 0)">
              <g id="Group_983545" data-name="Group 983545" clip-path="url(#clip-path-3)">
                <path id="Path_209892" data-name="Path 209892" d="M461.962,2203.124l18.322,16.964s.049,26.454,2.133,38.92l-38.876-.574,9.353-20.576-4.543-28.058Z" transform="translate(-350.361 -1740.288)" fill="#ea8271"/>
                <path id="Path_209893" data-name="Path 209893" d="M776.189,2278.669l-27.236,4.62.259,5.922,26.926-.585Z" transform="translate(-591.611 -1799.962)"/>
                <path id="Path_209894" data-name="Path 209894" d="M476.213,2288.911l29.008,1.406c-.143-5.877-.151-10.112-.151-10.112l-1.054-.975-29.1,1.7Z" transform="translate(-375.148 -1800.405)"/>
                <path id="Path_209895" data-name="Path 209895" d="M329.74,1009.6s-13.429,46.079-14.417,75.382,25.7,198.052,25.7,198.052l41.192-2.307.659-189.1L402.32,1282.7l36.908-1.648s21.411-159.365,14.17-193.109-23.191-79.583-23.191-79.583Z" transform="translate(-249.058 -796.523)" fill="#5774cd"/>
                <path id="Path_209896" data-name="Path 209896" d="M489.928,25.719c4.142-2.848,6.449-6.694,5.661-10.326-1.247-5.747-9.771-8.775-19.037-6.764a24.744,24.744,0,0,0-9.452,4.145C464.91,5.417,457.518,0,448.731,0s-16.2,5.43-18.379,12.8c-7.94.415-14.229,6.023-14.229,12.883,0,7.13,6.793,12.91,15.173,12.91a16.27,16.27,0,0,0,11.775-4.771,20.784,20.784,0,0,0,5.66.778,19.556,19.556,0,0,0,15.906-7.8,11.289,11.289,0,0,0,2.1,1.383,5.19,5.19,0,0,0-1.964,3.8c0,4.337,7.031,7.853,15.705,7.852s15.705-3.516,15.705-7.853c0-2.562-2.455-4.837-6.251-6.27" transform="translate(-328.703 -0.002)" fill="#9fa8c1"/>
                <path id="Path_209897" data-name="Path 209897" d="M1004.846,1404.423s1.369,16.17-5.823,29.9c-5.426,10.36-12.833,12.265-16.143,12.575a1.926,1.926,0,0,1-2.079-1.334,2.96,2.96,0,0,1,1.452-3.288,26.876,26.876,0,0,0,5.612-4.6c4.185-4.413-1.354-14.985-1.354-23.453,0-13.5,9.564-7.874,9.564-7.874Z" transform="translate(-774.68 -1109.38)" fill="#ea8271"/>
                <path id="Path_209898" data-name="Path 209898" d="M1004.4,1425.018s1.37,16.17-5.822,29.9c-5.061,9.662-11.844,11.969-15.42,12.488a2.614,2.614,0,0,1-2.944-1.786,2.207,2.207,0,0,1,1.135-2.482,26.2,26.2,0,0,0,6.071-4.868c4.185-4.413,6.252-14.416,6.252-14.416l1.958-16.911Z" transform="translate(-774.233 -1125.648)" fill="#ea8271"/>
                <path id="Path_209899" data-name="Path 209899" d="M1005.34,1414.632s6.368,17.248,1.076,33.528c-4.137,12.727-13.587,16.036-17.514,16.874a2.4,2.4,0,0,1-2.549-1.03,2.955,2.955,0,0,1,.834-3.933,29.543,29.543,0,0,0,5.9-6.1c4.1-5.6,3.892-16.839,3.892-16.839l-2.318-18.7Z" transform="translate(-778.803 -1117.444)" fill="#ea8271"/>
                <path id="Path_209900" data-name="Path 209900" d="M1023.985,1410.677s6.368,17.248,1.076,33.528c-4.15,12.769-13.649,16.058-17.552,16.882a2.347,2.347,0,0,1-2.492-1.007,3,3,0,0,1,.846-3.988,29.589,29.589,0,0,0,5.866-6.076c4.1-5.6,3.892-16.839,3.892-16.839l-2.318-18.7Z" transform="translate(-793.542 -1114.32)" fill="#ea8271"/>
                <path id="Path_209901" data-name="Path 209901" d="M1017.3,1410.33s2.07,14.936,2.07,22.8,2.369,8.4,5.134,8.27c4.385-.2,4.623-7.716,4.623-12.425s2.333-5.234,2.333-5.234l-7.121-18.031Z" transform="translate(-803.582 -1110.397)" fill="#ea8271"/>
                <path id="Path_209902" data-name="Path 209902" d="M1021.961,1457.335a4.333,4.333,0,0,1-3.172-1.056c-1.311-1.253-1.922-3.717-1.922-7.754,0-7.737-2.044-22.578-2.065-22.727a.525.525,0,1,1,1.041-.144c.021.15,2.075,15.063,2.075,22.871,0,3.679.523,5.967,1.6,6.994a3.8,3.8,0,0,0,2.988.752c3.654-.166,4.38-5.771,4.964-10.274.042-.326.083-.645.125-.955.62-4.622,1.4-6.094,1.429-6.155a.525.525,0,1,1,.923.5c-.005.01-.725,1.422-1.311,5.794-.042.308-.083.626-.125.95-.6,4.635-1.422,10.983-5.958,11.188-.2.009-.393.014-.589.014" transform="translate(-801.606 -1125.793)"/>
                <path id="Path_209903" data-name="Path 209903" d="M1005.036,1589.532a2.841,2.841,0,0,1-2.435-1.313,3.53,3.53,0,0,1,.977-4.677,29.153,29.153,0,0,0,5.76-5.969,15.865,15.865,0,0,0,2.2-4.653.525.525,0,1,1,1,.312,16.893,16.893,0,0,1-2.359,4.962,30.223,30.223,0,0,1-5.971,6.184,2.465,2.465,0,0,0-.714,3.3,1.822,1.822,0,0,0,1.933.764.525.525,0,1,1,.217,1.028,3,3,0,0,1-.615.064" transform="translate(-791.576 -1242.187)"/>
                <path id="Path_209904" data-name="Path 209904" d="M987.351,1582.411a.525.525,0,0,1-.318-.943c.255-.194.541-.4.85-.626a23.408,23.408,0,0,0,5.485-5.112,21.741,21.741,0,0,0,3.259-6.173.525.525,0,0,1,1.016.268,22.3,22.3,0,0,1-3.427,6.526,24.3,24.3,0,0,1-5.715,5.341c-.3.22-.583.423-.833.612a.521.521,0,0,1-.317.107" transform="translate(-779.511 -1239.512)"/>
                <path id="Path_209905" data-name="Path 209905" d="M978.735,1565.345a.525.525,0,0,1-.219-1,29.963,29.963,0,0,0,5.935-3.724c2.491-2.113,3.847-6.507,3.861-6.551a.525.525,0,0,1,1.005.305c-.058.192-1.462,4.737-4.186,7.047a30.466,30.466,0,0,1-6.177,3.878.52.52,0,0,1-.218.048" transform="translate(-772.705 -1227.292)"/>
                <g id="Group_983538" data-name="Group 983538" transform="translate(217.099 323.28)" style="mix-blend-mode: overlay;isolation: isolate">
                  <g id="Group_983537" data-name="Group 983537">
                    <g id="Group_983536" data-name="Group 983536" clip-path="url(#clip-path-6)">
                      <path id="Path_209906" data-name="Path 209906" d="M1036.795,1546.022a3.6,3.6,0,1,1,3.394-3.6,3.5,3.5,0,0,1-3.394,3.6m0-6.143a2.555,2.555,0,1,0,2.343,2.546,2.454,2.454,0,0,0-2.343-2.546" transform="translate(-1033.401 -1538.829)"/>
                    </g>
                  </g>
                </g>
                <path id="Path_209907" data-name="Path 209907" d="M1029.936,1426.624s-15.4,10.016-19.573,9.6l-.788-4.791,19.749-11.527Z" transform="translate(-797.482 -1121.606)"/>
                <path id="Path_209908" data-name="Path 209908" d="M454.261,119.1c0-20.288,15.136-36.734,33.806-36.734s33.806,16.446,33.806,36.734-15.136,36.734-33.806,36.734-33.806-16.446-33.806-36.734" transform="translate(-358.829 -65.06)" fill="#ea8271"/>
                <path id="Path_209909" data-name="Path 209909" d="M518.089,181.389c-.315-1.285,1.919-2.936,4.989-3.688s5.814-.319,6.128.966-1.919,2.936-4.989,3.688-5.814.319-6.128-.966" transform="translate(-409.225 -140.079)" fill="#70798c"/>
                <path id="Path_209910" data-name="Path 209910" d="M641.55,161.528c.053-1.322,2.657-2.291,5.815-2.163s5.675,1.3,5.622,2.624-2.657,2.291-5.815,2.163-5.675-1.3-5.622-2.624" transform="translate(-506.771 -125.877)" fill="#70798c"/>
                <path id="Path_209911" data-name="Path 209911" d="M582.591,316.467a22.153,22.153,0,0,1-7.074-1.178.666.666,0,1,1,.423-1.262,21.081,21.081,0,0,0,19.912-3.63.666.666,0,0,1,.9.984,22.775,22.775,0,0,1-14.157,5.086" transform="translate(-454.252 -245.052)"/>
                <path id="Path_209912" data-name="Path 209912" d="M410.418,256.138s-7.332-4.37-11.385,2.277,2.57,13.943,9.25,12.017c3.342-.964,5.389-6.278,5.389-6.278Z" transform="translate(-314.224 -201.215)" fill="#ea8271"/>
                <path id="Path_209913" data-name="Path 209913" d="M546.347,1100.462l-47.512,3.559.367-84.4,41.618.216Z" transform="translate(-394.039 -805.419)" fill="#5774cd"/>
                <path id="Path_209914" data-name="Path 209914" d="M423.441,277.724a.664.664,0,0,1-.508-.235c-.05-.059-3.936-4.542-7.654-2.962a.666.666,0,1,1-.52-1.225c1.941-.824,4.16-.5,6.416.951a13.623,13.623,0,0,1,2.773,2.375.665.665,0,0,1-.507,1.1" transform="translate(-327.305 -215.536)"/>
                <path id="Path_209915" data-name="Path 209915" d="M432.958,289.669a.666.666,0,0,1-.576-1l2.905-5.025a.666.666,0,1,1,1.152.666l-2.9,5.025a.665.665,0,0,1-.577.333" transform="translate(-341.476 -223.794)"/>
                <path id="Path_209916" data-name="Path 209916" d="M594.859,259.442a.666.666,0,0,1-.6-.954l2.447-5.085a.665.665,0,0,1,1-.242l4.7,3.55a.665.665,0,1,1-.8,1.062l-4.053-3.06-2.094,4.353a.666.666,0,0,1-.6.377" transform="translate(-469.365 -199.87)"/>
                <g id="Group_983541" data-name="Group 983541" transform="translate(113.752 68.102)" style="mix-blend-mode: overlay;isolation: isolate">
                  <g id="Group_983540" data-name="Group 983540">
                    <g id="Group_983539" data-name="Group 983539" clip-path="url(#clip-path-7)">
                      <path id="Path_209917" data-name="Path 209917" d="M544.332,333.9a.662.662,0,0,1-.427-.155c-3.683-3.084-2.123-8.848-2.055-9.092a.665.665,0,0,1,1.282.358c-.015.056-1.393,5.185,1.627,7.714a.666.666,0,0,1-.428,1.176" transform="translate(-541.465 -324.171)"/>
                    </g>
                  </g>
                </g>
                <path id="Path_209918" data-name="Path 209918" d="M719.108,2239.755a.525.525,0,0,1-.034-1.049l41.108-2.7a.53.53,0,0,1,.558.49.525.525,0,0,1-.49.558l-41.108,2.7h-.035" transform="translate(-567.622 -1766.263)" fill="#fff"/>
                <path id="Path_209919" data-name="Path 209919" d="M427.256,2240.727a.525.525,0,0,1-.03-1.05l42.853-2.539a.525.525,0,1,1,.062,1.048l-42.854,2.54h-.032" transform="translate(-337.083 -1767.155)" fill="#fff"/>
                <path id="Path_209920" data-name="Path 209920" d="M579.026,1407.3a.525.525,0,0,1-.048-1.048l20-1.866a.525.525,0,1,1,.1,1.046l-20,1.866-.049,0" transform="translate(-456.968 -1109.351)" fill="#fff"/>
                <path id="Path_209921" data-name="Path 209921" d="M491.06,1097.013H422.549a.525.525,0,1,1,0-1.05H491.06a.525.525,0,1,1,0,1.05" transform="translate(-333.364 -865.721)" fill="#fff"/>
                <path id="Path_209922" data-name="Path 209922" d="M573.092,1050.657a.525.525,0,0,1-.525-.525v-59.97a.525.525,0,0,1,.525-.525h15.482a.525.525,0,0,1,.525.525v37.9a.525.525,0,0,1-1.05,0V990.687H573.617v59.444a.525.525,0,0,1-.525.525" transform="translate(-452.281 -781.733)" fill="#fff"/>
                <path id="Path_209923" data-name="Path 209923" d="M594.459,1042.12a4.642,4.642,0,1,1,4.642-4.642,4.648,4.648,0,0,1-4.642,4.642m0-8.234a3.592,3.592,0,1,0,3.592,3.592,3.6,3.6,0,0,0-3.592-3.592" transform="translate(-465.907 -815.856)" fill="#fff"/>
                <g id="Group_983544" data-name="Group 983544" transform="translate(145.32 62.438)" style="mix-blend-mode: overlay;isolation: isolate">
                  <g id="Group_983543" data-name="Group 983543">
                    <g id="Group_983542" data-name="Group 983542" clip-path="url(#clip-path-8)">
                      <path id="Path_209924" data-name="Path 209924" d="M694.752,306.141l-.051,0a.665.665,0,0,1-.614-.713c.413-5.488-2-6.956-2.023-6.97a.67.67,0,0,1-.25-.9.661.661,0,0,1,.894-.26c.13.071,3.188,1.813,2.706,8.234a.666.666,0,0,1-.663.616" transform="translate(-691.731 -297.21)"/>
                    </g>
                  </g>
                </g>
                <path id="Path_209925" data-name="Path 209925" d="M494.829,228.74s-4.638-7.6-11.921-7.6c-5.633,0-9.192,7.2-9.192,7.2s4.59,5.643,10.446,5.643,10.668-5.248,10.668-5.248" transform="translate(-374.197 -174.684)" fill="#fff"/>
                <path id="Path_209926" data-name="Path 209926" d="M724.168,670.713c-4.359-69.469-20.557-133.334-29.418-164.041a33.633,33.633,0,0,0-24.863-23.48l-38.823-8.817-.346-5.332-9.263.093q.019.471.011.939-.519,29.638-.671,59.281-.116,27.735.231,55.47l21.647.1L656.7,724.777l45.916-13.79a153,153,0,0,0-1.268-28.238c8.665-1.22,17.367-6.25,21.083-8.621a3.774,3.774,0,0,0,1.738-3.416" transform="translate(-490.353 -370.507)" fill="#fea419"/>
                <path id="Path_209927" data-name="Path 209927" d="M115.867,670.713c4.359-69.469,20.557-133.334,29.418-164.041a33.633,33.633,0,0,1,24.863-23.48l38.823-8.817.346-5.332,9.263.093q-.019.471-.011.939.518,29.638.671,59.281.116,27.735-.231,55.47l-21.647.1L183.336,724.777l-45.916-13.79a153,153,0,0,1,1.268-28.238c-8.665-1.22-17.367-6.25-21.083-8.621a3.773,3.773,0,0,1-1.738-3.416" transform="translate(-91.52 -370.507)" fill="#fea419"/>
                <path id="Path_209928" data-name="Path 209928" d="M521.716,113.03c-2.661-17.4-16.576-30.668-33.344-30.668-16.875,0-30.861,13.436-33.4,31l-.33,3.176S463.231,100,468.052,95.626s8.634-.207,17.908.361c15.771.966,14.148-6.363,21.565-.68,5.662,4.339,12.078,8.049,14.192,17.724" transform="translate(-359.134 -65.06)" fill="#9fa8c1"/>
                <path id="Path_209929" data-name="Path 209929" d="M646.4,213.5s2.627-8.5,9.688-10.3c5.461-1.385,10.681,4.722,10.681,4.722s-3.062,6.6-8.738,8.038S646.4,213.5,646.4,213.5" transform="translate(-510.601 -160.353)" fill="#fff"/>
                <path id="Path_209930" data-name="Path 209930" d="M502.807,226.772a7.7,7.7,0,0,0-.189-1.69,13.164,13.164,0,0,0-8.842-3.94,8.444,8.444,0,0,0-5.636,2.508,7.663,7.663,0,0,0,2.507,9.332,10.7,10.7,0,0,0,4.383,1.006,11.787,11.787,0,0,0,4.618-1.016,7.654,7.654,0,0,0,3.159-6.2" transform="translate(-385.065 -174.684)"/>
                <path id="Path_209931" data-name="Path 209931" d="M671.4,204.123a8.3,8.3,0,0,0-5.843-.919,12.7,12.7,0,0,0-7.076,5.215,7.667,7.667,0,0,0,3.18,7.477,12.426,12.426,0,0,0,5.839.067,12,12,0,0,0,5.743-3.684,7.669,7.669,0,0,0-1.843-8.156" transform="translate(-520.069 -160.354)"/>
                <path id="Path_209932" data-name="Path 209932" d="M759.521,221.994s5.49-6.536,11.5-1.589,2.152,14.013-4.79,14.388c-3.473.188-7.152-4.159-7.152-4.159Z" transform="translate(-599.612 -172.64)" fill="#ea8271"/>
                <path id="Path_209933" data-name="Path 209933" d="M769.252,241.061a.666.666,0,0,1-.621-.906A13.613,13.613,0,0,1,770.47,237c1.656-2.107,3.645-3.144,5.748-3.006a.666.666,0,0,1-.089,1.328c-4.048-.272-6.235,5.256-6.256,5.312a.666.666,0,0,1-.62.426" transform="translate(-607.12 -184.828)"/>
                <path id="Path_209934" data-name="Path 209934" d="M779.411,257.711a.664.664,0,0,1-.435-.162l-4.394-3.792a.665.665,0,0,1,.869-1.008l4.395,3.792a.666.666,0,0,1-.435,1.169" transform="translate(-611.674 -199.525)"/>
                <path id="Path_209935" data-name="Path 209935" d="M532.342,137.754a3.679,3.679,0,0,1-1.865-.461,3.81,3.81,0,0,1-1.726-3.061,3.536,3.536,0,0,1,1.054-3.341c1.914-1.6,5.611-.5,5.767-.449a.665.665,0,0,1-.388,1.273c-.876-.266-3.4-.748-4.527.2a2.285,2.285,0,0,0-.585,2.162,2.575,2.575,0,0,0,1.074,2.067A3.816,3.816,0,0,0,534,136.1a.665.665,0,1,1,.517,1.226,6.167,6.167,0,0,1-2.172.426" transform="translate(-417.635 -102.711)" fill="#9fa8c1"/>
                <path id="Path_209936" data-name="Path 209936" d="M401.2,64.632a4.493,4.493,0,0,1-1.613-.277,3.94,3.94,0,0,1-2.352-2.749c-.5-1.656-.356-2.939.418-3.814,1.317-1.488,3.929-1.06,4.039-1.042a.666.666,0,1,1-.225,1.312c-.551-.092-2.136-.162-2.82.614-.447.507-.493,1.364-.138,2.547a2.647,2.647,0,0,0,1.553,1.888c1.748.67,4.476-.612,5.38-1.163a.665.665,0,0,1,.692,1.137,11.045,11.045,0,0,1-4.935,1.546" transform="translate(-313.551 -44.773)" fill="#9fa8c1"/>
                <path id="Path_209937" data-name="Path 209937" d="M535.276,469l-21.927.221a1.831,1.831,0,0,0-1.813,1.818l-.025,3.661s-2.284.186-8.515,1.45c-.976,2.325-3.174,29.662-3.579,37.621-.425,8.343-.95,60.2-.215,70.9l47.145.216C546.336,550.511,543,477.011,543,477.011l-.213-.842-5.942-1.35.273-3.857a1.831,1.831,0,0,0-1.845-1.96" transform="translate(-394.039 -370.473)" fill="#fff"/>
                <path id="Path_209938" data-name="Path 209938" d="M452.894,2356.911l-9.353,20.576,38.876.574c-1.046-6.255-1.579-16.031-1.851-24.221H452.4Z" transform="translate(-350.361 -1859.341)" fill="#fd521b"/>
                <path id="Path_209939" data-name="Path 209939" d="M557.371,476.8a.524.524,0,0,1-.13-.016l-5.624-1.429a.525.525,0,0,1-.395-.546l.273-3.857a1.292,1.292,0,0,0-.352-.987,1.26,1.26,0,0,0-.964-.411l-21.927.221a1.312,1.312,0,0,0-1.293,1.3l-.025,3.661a.526.526,0,0,1-.471.519c-.02,0-2.024.218-8.138,1.459a.525.525,0,0,1-.209-1.03c4.61-.935,6.88-1.29,7.771-1.414l.022-3.2a2.367,2.367,0,0,1,2.333-2.34l21.927-.221a2.333,2.333,0,0,1,1.74.741,2.362,2.362,0,0,1,.634,1.781l-.242,3.419,5.2,1.321a.525.525,0,0,1-.129,1.034" transform="translate(-408.937 -370.078)"/>
                <path id="Path_209940" data-name="Path 209940" d="M777.969,2354.675H751.312l1.359,31.092h31.775l8.32-11.555-14.834-12.159Z" transform="translate(-593.475 -1860)" fill="#fd521b"/>
                <path id="Path_209941" data-name="Path 209941" d="M756.569,2416.766l-.124,22.631,78.776.124s1.6-14.414-2.3-20.32c-6.145-9.3-26.636-5.305-37.96-12.021a70.861,70.861,0,0,1-9.984-7.579l-6.271,17.661Z" transform="translate(-597.53 -1895.488)"/>
                <path id="Path_209942" data-name="Path 209942" d="M833.245,2438.071h0l-78.776-.124a.525.525,0,0,1-.524-.528l.124-22.631a.525.525,0,0,1,.159-.374.5.5,0,0,1,.378-.148l21.757.486,6.144-17.3a.525.525,0,0,1,.851-.21,70.851,70.851,0,0,0,9.9,7.514c4.888,2.9,11.585,3.774,18.062,4.62,8.482,1.108,16.494,2.155,20.069,7.563,3.963,6,2.451,20.072,2.384,20.668a.525.525,0,0,1-.522.467M755,2436.9l77.771.122c.228-2.508,1.1-14.412-2.262-19.5-3.31-5.008-11.091-6.025-19.329-7.1-6.582-.86-13.388-1.75-18.462-4.758a69.638,69.638,0,0,1-9.483-7.117l-6.009,16.923a.518.518,0,0,1-.506.349l-21.6-.483Z" transform="translate(-595.554 -1893.513)" fill="#fff"/>
                <path id="Path_209943" data-name="Path 209943" d="M429.052,2408.5s6.668,14.7,5.932,28.717H376.057s-1.2-17.162,6.138-23.571a78.066,78.066,0,0,0,13.724-16.058c1.389-2.589,12.136-4.327,20.159,2.308,6.582,5.443,9.166,10.394,9.166,10.394Z" transform="translate(-296.996 -1892.074)"/>
                <path id="Path_209944" data-name="Path 209944" d="M433.015,2435.793H374.088a.525.525,0,0,1-.524-.489,56.212,56.212,0,0,1,.319-9.482c.835-6.89,2.853-11.775,6-14.521a76.927,76.927,0,0,0,13.606-15.91c.544-1.014,2.119-1.843,4.323-2.275a20.879,20.879,0,0,1,16.634,4.426,40.594,40.594,0,0,1,9.049,10.116l3.366-1.583a.526.526,0,0,1,.7.259c.067.148,6.713,14.983,5.978,28.962a.525.525,0,0,1-.524.5m-58.428-1.051h57.927c.485-12.163-4.587-24.865-5.7-27.486l-3.318,1.561a.526.526,0,0,1-.689-.232,38.278,38.278,0,0,0-9.036-10.233,19.786,19.786,0,0,0-15.763-4.2c-2.2.431-3.313,1.207-3.6,1.741a78.276,78.276,0,0,1-13.841,16.2c-6.377,5.567-6.105,19.827-5.985,22.65" transform="translate(-295.028 -1890.127)" fill="#fff"/>
                <path id="Path_209945" data-name="Path 209945" d="M364.728,2542.4H286.311a.525.525,0,1,1,0-1.05h78.417a.525.525,0,1,1,0,1.05" transform="translate(-225.748 -2007.459)" fill="#fff"/>
                <path id="Path_209946" data-name="Path 209946" d="M545.062,2473.136a.525.525,0,0,1-.405-.859l15.151-18.421a.525.525,0,1,1,.811.667l-15.151,18.421a.524.524,0,0,1-.406.192" transform="translate(-430.14 -1938.194)" fill="#fff"/>
                <path id="Path_209947" data-name="Path 209947" d="M451.706,2431.136a.525.525,0,0,1-.454-.26c-.08-.136-8.086-13.6-20.1-13.767a36.435,36.435,0,0,0-12.946,1.83,13.037,13.037,0,0,0-3.783,1.955.525.525,0,0,1-.695-.788c.195-.173,4.923-4.223,17.439-4.047,5.23.075,10.521,2.575,15.3,7.229a36.959,36.959,0,0,1,5.687,7.058.525.525,0,0,1-.453.79" transform="translate(-326.675 -1908.484)" fill="#fff"/>
                <path id="Path_209948" data-name="Path 209948" d="M883.773,2490.508a.545.545,0,0,1-.068,0c-3.451-.45-9.788-2.923-18.833-7.35-6.711-3.285-12.5-6.48-12.554-6.513a.525.525,0,1,1,.508-.919c.229.127,23.021,12.7,31.014,13.74a.525.525,0,0,1-.067,1.046" transform="translate(-673.047 -1955.566)" fill="#fff"/>
                <path id="Path_209949" data-name="Path 209949" d="M835.812,2542.4H757.4a.525.525,0,1,1,0-1.05h78.417a.525.525,0,1,1,0,1.05" transform="translate(-597.865 -2007.459)" fill="#fff"/>
                <path id="Path_209950" data-name="Path 209950" d="M904.983,2435.4a.533.533,0,0,1-.184-.034.526.526,0,0,1-.308-.676l6.844-18.271a.525.525,0,1,1,.984.368l-6.843,18.271a.526.526,0,0,1-.492.341" transform="translate(-714.447 -1908.506)" fill="#fff"/>
                <path id="Path_209951" data-name="Path 209951" d="M861.79,647.889a.525.525,0,0,1-.5-.69c3.25-9.859,16.105-37.221,16.235-37.5a.525.525,0,0,1,.951.447c-.129.275-12.957,27.579-16.188,37.378a.526.526,0,0,1-.5.361" transform="translate(-680.329 -481.377)" fill="#fff"/>
                <path id="Path_209952" data-name="Path 209952" d="M884.295,912.94a.525.525,0,0,1-.522-.471c-.016-.148-1.592-15.051-6.044-35.727-4.107-19.073-11.57-47.1-23.8-72.3-3.121-6.43-2.273-43.913-2.235-45.505a.525.525,0,0,1,1.05.025c-.009.387-.881,38.818,2.13,45.022,12.281,25.3,19.77,53.419,23.889,72.553,4.463,20.728,6.044,35.676,6.059,35.825a.525.525,0,0,1-.468.577.477.477,0,0,1-.055,0" transform="translate(-672.66 -599.093)" fill="#fff"/>
                <path id="Path_209953" data-name="Path 209953" d="M759.144,754.259h-.008a.525.525,0,0,1-.517-.533c.462-31.782-6.8-76.782-11.6-106.56-2.683-16.633-4.622-28.651-4.415-32.814,1.793-36.1-4.561-106.835-4.625-107.546a.525.525,0,1,1,1.046-.095c.065.711,6.425,71.516,4.628,107.693-.2,4.052,1.83,16.648,4.4,32.594,4.809,29.814,12.077,74.869,11.613,106.742a.525.525,0,0,1-.525.518" transform="translate(-582.941 -399.885)" fill="#fff"/>
                <path id="Path_209954" data-name="Path 209954" d="M997,1383.833a.525.525,0,0,1-.078-1.044c15.854-2.388,24.306-11.707,24.389-11.8a.525.525,0,1,1,.785.7c-.086.1-8.792,9.7-25.018,12.141a.523.523,0,0,1-.079.006" transform="translate(-787.137 -1082.83)" fill="#fff"/>
                <path id="Path_209955" data-name="Path 209955" d="M308.233,653.889a.525.525,0,0,0,.5-.69c-3.25-9.859-16.105-37.221-16.235-37.5a.525.525,0,1,0-.951.447c.129.275,12.957,27.579,16.188,37.378a.526.526,0,0,0,.5.361" transform="translate(-230.258 -486.117)" fill="#fff"/>
                <path id="Path_209956" data-name="Path 209956" d="M225.562,918.94a.525.525,0,0,0,.522-.471c.016-.148,1.592-15.051,6.044-35.727,4.107-19.073,11.57-47.1,23.8-72.3,3.121-6.43,2.273-43.913,2.235-45.505a.525.525,0,0,0-1.05.025c.009.387.881,38.818-2.13,45.022-12.281,25.3-19.77,53.419-23.889,72.553-4.463,20.728-6.044,35.676-6.059,35.825a.525.525,0,0,0,.468.577.48.48,0,0,0,.055,0" transform="translate(-177.76 -603.832)" fill="#fff"/>
                <path id="Path_209957" data-name="Path 209957" d="M394.14,754.259h.008a.525.525,0,0,0,.517-.533c-.462-31.782,6.8-76.782,11.6-106.56,2.683-16.633,4.622-28.651,4.415-32.814-1.793-36.1,4.561-106.835,4.625-107.546a.525.525,0,1,0-1.046-.095c-.065.711-6.425,71.516-4.628,107.693.2,4.052-1.83,16.648-4.4,32.594-4.809,29.814-12.077,74.869-11.613,106.742a.525.525,0,0,0,.525.518" transform="translate(-310.907 -399.885)" fill="#fff"/>
                <path id="Path_209958" data-name="Path 209958" d="M141.089,1389.833a.525.525,0,0,0,.078-1.044c-15.854-2.388-24.306-11.707-24.389-11.8a.525.525,0,1,0-.785.7c.086.1,8.792,9.7,25.018,12.141a.522.522,0,0,0,.079.006" transform="translate(-91.519 -1087.569)" fill="#fff"/>
                <path id="Path_209959" data-name="Path 209959" d="M722.923,471.278,813.1,485.665s-9,42.521-40.74,37.322c-5.494-.9-20.138-2.7-24.238-4.269-33.034-12.67-25.2-47.44-25.2-47.44" transform="translate(-570.409 -372.271)"/>
                <path id="Path_209960" data-name="Path 209960" d="M814.134,468.6c-.776,4.862-21.591,5.582-46.491,1.61s-44.458-11.135-43.683-16,21.591-5.582,46.491-1.61,44.458,11.135,43.683,16" transform="translate(-571.852 -355.495)" fill="#fea419"/>
              </g>
            </g>
            <g id="Group_983548" data-name="Group 983548" transform="translate(152.086 94.545)">
              <g id="Group_983547" data-name="Group 983547" clip-path="url(#clip-path-9)">
                <path id="Path_209961" data-name="Path 209961" d="M815.826,486.272c-.776,4.862-20.81,5.707-44.748,1.888S728.364,477.3,729.14,472.442s20.81-5.707,44.748-1.888,42.714,10.856,41.939,15.718" transform="translate(-728.029 -464.355)" fill="#e95e00"/>
              </g>
            </g>
            <g id="Group_983550" data-name="Group 983550" transform="translate(0 0)">
              <g id="Group_983549" data-name="Group 983549" clip-path="url(#clip-path-3)">
                <path id="Path_209963" data-name="Path 209963" d="M807.358,493.6a8.661,8.661,0,0,1,1.083-.364q.256-.066.515-.115.13-.026.26-.045-.244.032.071,0a1.743,1.743,0,0,0,1.7-1.7,1.722,1.722,0,0,0-1.7-1.7,10.056,10.056,0,0,0-2.835.65,1.748,1.748,0,0,0-1.19,2.1,1.721,1.721,0,0,0,2.1,1.19" transform="translate(-636.031 -386.788)" fill="#e94000"/>
                <path id="Path_209964" data-name="Path 209964" d="M859.8,512.351a3.533,3.533,0,0,0,1.418-1.244,3.753,3.753,0,0,0,.6-1.816,1.7,1.7,0,0,0-.5-1.2,1.7,1.7,0,0,0-2.41,0,1.972,1.972,0,0,0-.5,1.2c.012-.1.079-.417,0-.142-.017.063-.1.265.012.009.119-.275,0-.02-.031.041s-.2.283-.02.051.03-.046-.014,0c-.232.237.106-.037.107-.059,0,.07-.335.194-.393.22a1.7,1.7,0,0,0-.783,1.018,1.741,1.741,0,0,0,.172,1.313,1.72,1.72,0,0,0,1.018.783,1.988,1.988,0,0,0,1.313-.172" transform="translate(-677.147 -400.951)" fill="#e94000"/>
                <path id="Path_209965" data-name="Path 209965" d="M865.552,495.754a9.266,9.266,0,0,1,4.711.7,1.714,1.714,0,0,0,2.1-1.19,1.748,1.748,0,0,0-1.19-2.1,11.438,11.438,0,0,0-5.617-.82,1.754,1.754,0,0,0-1.7,1.7,1.715,1.715,0,0,0,1.7,1.7" transform="translate(-682.369 -388.863)" fill="#e94000"/>
                <path id="Path_209966" data-name="Path 209966" d="M908.135,512.633l.387,1a1.852,1.852,0,0,0,.783,1.018,1.7,1.7,0,0,0,2.331-.611,1.662,1.662,0,0,0,.172-1.313l-.387-1a1.851,1.851,0,0,0-.783-1.018,1.7,1.7,0,0,0-2.331.611,1.662,1.662,0,0,0-.172,1.313" transform="translate(-717.295 -403.234)" fill="#e94000"/>
                <path id="Path_209967" data-name="Path 209967" d="M946.464,512.117c.033-.067.1-.243.164-.279l-.165.219c.036-.04.074-.079.113-.116q.144-.124-.048.03t-.041.038c.1-.05.188-.1.289-.148l-.407.172a2.017,2.017,0,0,1,.391-.1l-.453.061.081-.009a1.85,1.85,0,0,0,1.2-.5,1.7,1.7,0,0,0,0-2.41,1.65,1.65,0,0,0-1.2-.5,3.562,3.562,0,0,0-1.687.537,3.423,3.423,0,0,0-1.179,1.286,1.7,1.7,0,1,0,2.942,1.72" transform="translate(-745.142 -401.727)" fill="#e94000"/>
                <path id="Path_209968" data-name="Path 209968" d="M966.183,516.8l.935,2.012a1.711,1.711,0,0,0,2.331.611,1.751,1.751,0,0,0,.611-2.331l-.936-2.012a1.711,1.711,0,0,0-2.331-.611,1.752,1.752,0,0,0-.611,2.331" transform="translate(-763.043 -406.211)" fill="#e94000"/>
                <path id="Path_209969" data-name="Path 209969" d="M1003.985,531.016a6.934,6.934,0,0,0,2.646.2,1.872,1.872,0,0,0,1.2-.5,1.732,1.732,0,0,0,.5-1.2c-.037-.825-.757-1.826-1.7-1.7a5.746,5.746,0,0,1-1.025.047q-.118,0-.237-.017.248.04.061.009c-.181-.038-.361-.073-.54-.12a1.7,1.7,0,0,0-.906,3.286" transform="translate(-792.089 -416.822)" fill="#e94000"/>
                <path id="Path_209970" data-name="Path 209970" d="M1061.131,534.627h1.985a1.7,1.7,0,1,0,0-3.408h-1.985a1.7,1.7,0,1,0,0,3.408" transform="translate(-836.859 -419.62)" fill="#e94000"/>
                <path id="Path_209971" data-name="Path 209971" d="M1018.975,506.526a22.078,22.078,0,0,1-3.169-1.608c-1.883-1.134-3.6,1.811-1.72,2.942a27.506,27.506,0,0,0,3.983,1.952,1.716,1.716,0,0,0,2.1-1.19,1.746,1.746,0,0,0-1.19-2.1" transform="translate(-800.403 -398.643)" fill="#e94000"/>
                <path id="Path_209972" data-name="Path 209972" d="M973.809,493.594a14.206,14.206,0,0,0-5.028-1.25c-2.191-.13-2.183,3.278,0,3.408a9.553,9.553,0,0,1,3.308.785,1.757,1.757,0,0,0,2.331-.611,1.717,1.717,0,0,0-.611-2.331" transform="translate(-763.962 -388.908)" fill="#e94000"/>
                <path id="Path_209973" data-name="Path 209973" d="M934.883,487.9l-1.793.575a1.7,1.7,0,0,0,.906,3.286l1.793-.575a1.7,1.7,0,1,0-.906-3.286" transform="translate(-736.068 -385.346)" fill="#e94000"/>
                <path id="Path_209974" data-name="Path 209974" d="M774.291,477.341l-1.769.645a1.7,1.7,0,0,0,.906,3.286l1.768-.645a1.7,1.7,0,1,0-.906-3.286" transform="translate(-609.231 -376.995)" fill="#e94000"/>
                <path id="Path_209975" data-name="Path 209975" d="M834.375,477.306l1.587-.2a1.873,1.873,0,0,0,1.2-.5,1.7,1.7,0,0,0,0-2.41,1.634,1.634,0,0,0-1.2-.5l-1.587.2a1.872,1.872,0,0,0-1.2.5,1.7,1.7,0,0,0,0,2.41,1.634,1.634,0,0,0,1.2.5" transform="translate(-657.741 -374.174)" fill="#e94000"/>
                <path id="Path_209976" data-name="Path 209976" d="M884.987,478.888l1.787.4a1.7,1.7,0,1,0,.906-3.286l-1.787-.4a1.7,1.7,0,1,0-.906,3.286" transform="translate(-698.092 -375.652)" fill="#e94000"/>
                <path id="Path_209977" data-name="Path 209977" d="M923.4,528.576a4.806,4.806,0,0,0,3.694.678,1.713,1.713,0,0,0,1.19-2.1,1.748,1.748,0,0,0-2.1-1.19q-.3.056.015,0-.147.009-.295,0c-.343.016.225.088-.131-.019-.045-.014-.493-.168-.15-.02a2.966,2.966,0,0,1-.508-.3,1.713,1.713,0,0,0-2.331.611,1.748,1.748,0,0,0,.611,2.331" transform="translate(-728.755 -415.018)" fill="#b95400"/>
                <path id="Path_209978" data-name="Path 209978" d="M920.809,497.182l-2.781-.987a1.714,1.714,0,0,0-2.1,1.19,1.747,1.747,0,0,0,1.19,2.1l2.781.987a1.714,1.714,0,0,0,2.1-1.19,1.747,1.747,0,0,0-1.19-2.1" transform="translate(-723.471 -391.895)" fill="#b95400"/>
                <path id="Path_209979" data-name="Path 209979" d="M896.239,499.966l-1.014,1.374a1.715,1.715,0,0,0-.172,1.313,1.738,1.738,0,0,0,.783,1.018,1.72,1.72,0,0,0,1.313.172,1.972,1.972,0,0,0,1.018-.783l1.014-1.374a1.713,1.713,0,0,0,.172-1.313,1.738,1.738,0,0,0-.783-1.018,1.72,1.72,0,0,0-1.313-.172,1.971,1.971,0,0,0-1.018.783" transform="translate(-706.974 -394.263)" fill="#b95400"/>
                <path id="Path_209980" data-name="Path 209980" d="M880.7,514.211h-.993a1.759,1.759,0,0,0-1.2.5,1.7,1.7,0,0,0,1.2,2.909h.993a1.758,1.758,0,0,0,1.2-.5,1.7,1.7,0,0,0-1.2-2.909" transform="translate(-693.551 -406.185)" fill="#b95400"/>
                <path id="Path_209981" data-name="Path 209981" d="M837.6,494.207a2.834,2.834,0,0,0-1.35-3.307,1.7,1.7,0,0,0-1.72,2.943,1.452,1.452,0,0,1,.183.109l-.345-.266a1.419,1.419,0,0,1,.2.2l-.267-.345a1.524,1.524,0,0,1,.146.244l-.172-.407a1.429,1.429,0,0,1,.094.342l-.061-.453a1.4,1.4,0,0,1,0,.283l.061-.453a1.428,1.428,0,0,1-.054.206,1.716,1.716,0,0,0,1.19,2.1,1.745,1.745,0,0,0,2.1-1.19" transform="translate(-658.557 -387.608)" fill="#b95400"/>
                <path id="Path_209982" data-name="Path 209982" d="M797.2,486.808h-1.588a1.7,1.7,0,1,0,0,3.408H797.2a1.7,1.7,0,1,0,0-3.408" transform="translate(-627.12 -384.539)" fill="#b95400"/>
                <path id="Path_209983" data-name="Path 209983" d="M784.494,484.547a1.7,1.7,0,0,0,0-3.408,1.7,1.7,0,0,0,0,3.408" transform="translate(-618.386 -380.061)" fill="#b95400"/>
                <path id="Path_209984" data-name="Path 209984" d="M991.092,514.04a4.171,4.171,0,0,0,3.11,3.758,1.7,1.7,0,1,0,.906-3.286c-.1-.023-.192-.056-.29-.082-.172-.047.261.177.026-.005-.057-.044-.271-.255-.122-.074s-.069-.087-.093-.112c-.2-.193.062.028.041.062,0,0-.136-.233-.154-.259-.1-.151.069.312.012.018-.022-.114-.076-.482-.028-.019a1.744,1.744,0,0,0-1.7-1.7,1.722,1.722,0,0,0-1.7,1.7" transform="translate(-782.876 -404.703)" fill="#b95400"/>
                <path id="Path_209985" data-name="Path 209985" d="M1033.731,535.568h.4a1.751,1.751,0,0,0,1.7-1.7l-.061-.453a1.7,1.7,0,0,0-.438-.752l-.345-.267a1.7,1.7,0,0,0-.86-.233h-.4a1.751,1.751,0,0,0-1.7,1.7l.061.453a1.706,1.706,0,0,0,.438.752l.345.266a1.7,1.7,0,0,0,.86.233" transform="translate(-815.216 -420.363)" fill="#b95400"/>
                <path id="Path_209986" data-name="Path 209986" d="M1086.343,524.254a5.9,5.9,0,0,0,1.206,1.573,1.7,1.7,0,0,0,2.41-2.409,4.844,4.844,0,0,1-.5-.54l.267.345a4.73,4.73,0,0,1-.44-.689,1.718,1.718,0,0,0-2.331-.611,1.742,1.742,0,0,0-.611,2.331" transform="translate(-857.951 -412.093)" fill="#b95400"/>
                <path id="Path_209987" data-name="Path 209987" d="M804.075,479.558c-.342,2.388-4.679,3.742-9.686,3.025s-8.79-3.234-8.448-5.621,4.679-3.742,9.686-3.025,8.79,3.234,8.448,5.621" transform="translate(-620.811 -374.22)" fill="#ffff85"/>
                <path id="Path_209988" data-name="Path 209988" d="M804.075,479.558c-.342,2.388-4.679,3.742-9.686,3.025s-8.79-3.234-8.448-5.621,4.679-3.742,9.686-3.025S804.417,477.171,804.075,479.558Z" transform="translate(-620.811 -374.22)" fill="none" stroke="#b95400" stroke-miterlimit="10" stroke-width="2"/>
                <path id="Path_209989" data-name="Path 209989" d="M808.574,482.367c-.281,1.96-3.84,3.071-7.951,2.483s-7.215-2.654-6.934-4.614,3.84-3.071,7.951-2.483,7.215,2.654,6.934,4.614" transform="translate(-626.935 -377.262)" fill="#ffff85"/>
                <path id="Path_209990" data-name="Path 209990" d="M808.574,482.367c-.281,1.96-3.84,3.071-7.951,2.483s-7.215-2.654-6.934-4.614,3.84-3.071,7.951-2.483S808.854,480.407,808.574,482.367Z" transform="translate(-626.935 -377.262)" fill="none" stroke="#b95400" stroke-miterlimit="10" stroke-width="2"/>
                <path id="Path_209991" data-name="Path 209991" d="M813.678,485.555c-.211,1.474-2.889,2.31-5.981,1.868s-5.428-2-5.217-3.471,2.889-2.31,5.981-1.868,5.428,2,5.217,3.471" transform="translate(-633.883 -380.714)" fill="#ffff85"/>
                <path id="Path_209992" data-name="Path 209992" d="M813.678,485.555c-.211,1.474-2.889,2.31-5.981,1.868s-5.428-2-5.217-3.471,2.889-2.31,5.981-1.868S813.889,484.081,813.678,485.555Z" transform="translate(-633.883 -380.714)" fill="none" stroke="#b95400" stroke-miterlimit="10" stroke-width="2"/>
                <path id="Path_209993" data-name="Path 209993" d="M818.666,488.67c-.143,1-1.96,1.567-4.057,1.267s-3.682-1.355-3.538-2.354,1.959-1.567,4.057-1.267,3.682,1.354,3.539,2.354" transform="translate(-640.672 -384.086)" fill="#ffff85"/>
                <path id="Path_209994" data-name="Path 209994" d="M818.666,488.67c-.143,1-1.96,1.567-4.057,1.267s-3.682-1.355-3.538-2.354,1.959-1.567,4.057-1.267S818.809,487.67,818.666,488.67Z" transform="translate(-640.672 -384.086)" fill="none" stroke="#b95400" stroke-miterlimit="10" stroke-width="2"/>
                <path id="Path_209995" data-name="Path 209995" d="M822.644,491.154c-.089.622-1.218.974-2.522.788s-2.289-.842-2.2-1.464,1.218-.974,2.522-.788,2.289.842,2.2,1.464" transform="translate(-646.087 -386.776)" fill="#ffff85"/>
                <path id="Path_209996" data-name="Path 209996" d="M822.644,491.154c-.089.622-1.218.974-2.522.788s-2.289-.842-2.2-1.464,1.218-.974,2.522-.788S822.733,490.532,822.644,491.154Z" transform="translate(-646.087 -386.776)" fill="none" stroke="#b95400" stroke-miterlimit="10" stroke-width="2"/>
                <path id="Path_209997" data-name="Path 209997" d="M919.957,494.967c-.255,1.779-3.485,2.787-7.216,2.253s-6.548-2.409-6.293-4.188,3.485-2.787,7.216-2.253,6.548,2.409,6.293,4.188" transform="translate(-716.007 -387.563)" fill="#ffff85"/>
                <path id="Path_209998" data-name="Path 209998" d="M919.957,494.967c-.255,1.779-3.485,2.787-7.216,2.253s-6.548-2.409-6.293-4.188,3.485-2.787,7.216-2.253S920.212,493.189,919.957,494.967Z" transform="translate(-716.007 -387.563)" fill="none" stroke="#b95400" stroke-miterlimit="10" stroke-width="2"/>
                <path id="Path_209999" data-name="Path 209999" d="M923.308,497.061c-.209,1.46-2.861,2.288-5.923,1.85s-5.375-1.977-5.166-3.437,2.861-2.288,5.923-1.85,5.375,1.977,5.166,3.437" transform="translate(-720.568 -389.83)" fill="#ffff85"/>
                <path id="Path_210000" data-name="Path 210000" d="M923.308,497.061c-.209,1.46-2.861,2.288-5.923,1.85s-5.375-1.977-5.166-3.437,2.861-2.288,5.923-1.85S923.517,495.6,923.308,497.061Z" transform="translate(-720.568 -389.83)" fill="none" stroke="#b95400" stroke-miterlimit="10" stroke-width="2"/>
                <path id="Path_210001" data-name="Path 210001" d="M927.111,499.436c-.157,1.1-2.152,1.721-4.456,1.391s-4.043-1.488-3.886-2.586,2.152-1.721,4.456-1.391,4.043,1.487,3.886,2.586" transform="translate(-725.744 -392.401)" fill="#ffff85"/>
                <path id="Path_210002" data-name="Path 210002" d="M927.111,499.436c-.157,1.1-2.152,1.721-4.456,1.391s-4.043-1.488-3.886-2.586,2.152-1.721,4.456-1.391S927.268,498.337,927.111,499.436Z" transform="translate(-725.744 -392.401)" fill="none" stroke="#b95400" stroke-miterlimit="10" stroke-width="2"/>
                <path id="Path_210003" data-name="Path 210003" d="M930.826,501.755c-.107.745-1.46,1.167-3.022.944s-2.743-1.009-2.636-1.754,1.46-1.168,3.022-.944,2.743,1.009,2.636,1.754" transform="translate(-730.801 -394.913)" fill="#ffff85"/>
                <path id="Path_210004" data-name="Path 210004" d="M930.826,501.755c-.107.745-1.46,1.167-3.022.944s-2.743-1.009-2.636-1.754,1.46-1.168,3.022-.944S930.933,501.01,930.826,501.755Z" transform="translate(-730.801 -394.913)" fill="none" stroke="#b95400" stroke-miterlimit="10" stroke-width="2"/>
                <path id="Path_210005" data-name="Path 210005" d="M933.79,503.606c-.066.463-.908.726-1.879.587s-1.705-.627-1.639-1.09.908-.726,1.879-.587,1.705.627,1.639,1.09" transform="translate(-734.836 -396.917)" fill="#ffff85"/>
                <path id="Path_210006" data-name="Path 210006" d="M933.79,503.606c-.066.463-.908.726-1.879.587s-1.705-.627-1.639-1.09.908-.726,1.879-.587S933.856,503.143,933.79,503.606Z" transform="translate(-734.836 -396.917)" fill="none" stroke="#b95400" stroke-miterlimit="10" stroke-width="2"/>
                <path id="Path_210007" data-name="Path 210007" d="M1004.276,515.669c-.255,1.779-3.485,2.787-7.216,2.253s-6.548-2.409-6.293-4.187,3.485-2.787,7.216-2.253,6.548,2.409,6.293,4.187" transform="translate(-782.612 -403.916)" fill="#ffffb5"/>
                <ellipse id="Ellipse_4896" data-name="Ellipse 4896" cx="3.253" cy="6.823" rx="3.253" ry="6.823" transform="translate(207.694 113.039) rotate(-81.852)" fill="none" stroke="#b95400" stroke-miterlimit="10" stroke-width="2"/>
                <path id="Path_210008" data-name="Path 210008" d="M1007.628,517.761c-.209,1.46-2.861,2.288-5.923,1.85s-5.375-1.977-5.166-3.437,2.861-2.288,5.923-1.85,5.375,1.977,5.166,3.437" transform="translate(-787.174 -406.182)" fill="#ffffb5"/>
                <path id="Path_210009" data-name="Path 210009" d="M1007.628,517.761c-.209,1.46-2.861,2.288-5.923,1.85s-5.375-1.977-5.166-3.437,2.861-2.288,5.923-1.85S1007.837,516.3,1007.628,517.761Z" transform="translate(-787.174 -406.182)" fill="none" stroke="#b95400" stroke-miterlimit="10" stroke-width="2"/>
                <path id="Path_210010" data-name="Path 210010" d="M1011.431,520.136c-.157,1.1-2.152,1.721-4.456,1.391s-4.043-1.487-3.886-2.586,2.152-1.721,4.456-1.391,4.043,1.487,3.886,2.585" transform="translate(-792.35 -408.754)" fill="#ffffb5"/>
                <path id="Path_210011" data-name="Path 210011" d="M1011.431,520.136c-.157,1.1-2.152,1.721-4.456,1.391s-4.043-1.487-3.886-2.586,2.152-1.721,4.456-1.391S1011.588,519.038,1011.431,520.136Z" transform="translate(-792.35 -408.754)" fill="none" stroke="#b95400" stroke-miterlimit="10" stroke-width="2"/>
                <path id="Path_210012" data-name="Path 210012" d="M1015.146,522.456c-.107.745-1.46,1.167-3.022.944s-2.743-1.009-2.636-1.754,1.46-1.168,3.022-.944,2.743,1.009,2.636,1.754" transform="translate(-797.407 -411.265)" fill="#ffffb5"/>
                <path id="Path_210013" data-name="Path 210013" d="M1015.146,522.456c-.107.745-1.46,1.167-3.022.944s-2.743-1.009-2.636-1.754,1.46-1.168,3.022-.944S1015.253,521.711,1015.146,522.456Z" transform="translate(-797.407 -411.265)" fill="none" stroke="#b95400" stroke-miterlimit="10" stroke-width="2"/>
                <path id="Path_210014" data-name="Path 210014" d="M1018.109,524.307c-.066.463-.908.726-1.879.587s-1.705-.627-1.639-1.09.908-.726,1.879-.587,1.7.627,1.639,1.09" transform="translate(-801.441 -413.27)" fill="#ffffb5"/>
                <path id="Path_210015" data-name="Path 210015" d="M1018.109,524.307c-.066.463-.908.726-1.879.587s-1.705-.627-1.639-1.09.908-.726,1.879-.587S1018.175,523.844,1018.109,524.307Z" transform="translate(-801.441 -413.27)" fill="none" stroke="#b95400" stroke-miterlimit="10" stroke-width="2"/>
                <path id="Path_210016" data-name="Path 210016" d="M2.425,379.228,89.406,360.4s6.863,41.8-23.8,48.3c-5.308,1.126-19.243,4.674-23.522,4.7-34.481.177-39.661-34.172-39.661-34.172" transform="translate(-1.916 -284.687)"/>
                <path id="Path_210017" data-name="Path 210017" d="M87.021,347.572c1.015,4.69-17.633,12.706-41.653,17.905S1.055,371.09.04,366.4s17.633-12.706,41.652-17.905,44.314-5.613,45.329-.923" transform="translate(-0.001 -271.976)" fill="#fea419"/>
              </g>
            </g>
            <g id="Group_983552" data-name="Group 983552" transform="translate(0 72.333)">
              <g id="Group_983551" data-name="Group 983551" clip-path="url(#clip-path-11)">
                <path id="Path_210018" data-name="Path 210018" d="M94.944,365.754c1.015,4.69-16.88,12.543-39.97,17.541s-42.631,5.248-43.646.559,16.88-12.543,39.97-17.541,42.632-5.248,43.647-.559" transform="translate(-8.915 -358.594)" fill="#715e00"/>
              </g>
            </g>
            <g id="Group_983554" data-name="Group 983554" transform="translate(0 0)">
              <g id="Group_983553" data-name="Group 983553" clip-path="url(#clip-path-3)">
                <path id="Path_210020" data-name="Path 210020" d="M21.166,394.948a10.473,10.473,0,0,1-4.588-3.026,2.209,2.209,0,0,1-.309-2.523,2.247,2.247,0,0,1,.984-.67,8.86,8.86,0,0,1,5.883-.021,3.954,3.954,0,0,0,1.627.288,1.142,1.142,0,0,0,1.062-1.074,1.453,1.453,0,0,0-.345-.741c-1.342-1.773-3.466-2.756-5.115-4.249a1.891,1.891,0,0,1-.747-1.215c-.045-.921,1.045-1.42,1.942-1.634a11.227,11.227,0,0,1,5-.323,4.606,4.606,0,0,1,3.595,3.171,16.387,16.387,0,0,1,.125,2.643,2.6,2.6,0,0,0,1.181,2.238,2.446,2.446,0,0,0,2.858-1.05c.651-.892.948-1.993,1.513-2.941a2.8,2.8,0,0,1,2.67-1.592,2.594,2.594,0,0,1,1.429.914,4.845,4.845,0,0,1-.294,6.44c-.464.444-1.074,1.081-.7,1.6a1.1,1.1,0,0,0,.551.349c.909.328,1.882.464,2.77.843a2.935,2.935,0,0,1,1.88,2.042,2.631,2.631,0,0,1-1.129,2.4,7.037,7.037,0,0,1-2.558,1.056c-3.036.775-6.321,1.252-9.246.128-1.267-.487-2.408-1.256-3.666-1.766a9.855,9.855,0,0,0-7.422.043" transform="translate(-12.627 -299.848)" fill="#529200"/>
                <path id="Path_210021" data-name="Path 210021" d="M116.772,366.557a10.475,10.475,0,0,1-5.461-.626,2.208,2.208,0,0,1-1.416-2.112,2.246,2.246,0,0,1,.574-1.043,8.862,8.862,0,0,1,5.239-2.678,3.95,3.95,0,0,0,1.582-.478,1.142,1.142,0,0,0,.462-1.438,1.451,1.451,0,0,0-.643-.505c-2-.976-4.338-.893-6.483-1.479a1.891,1.891,0,0,1-1.215-.746c-.457-.8.291-1.739.993-2.335a11.228,11.228,0,0,1,4.316-2.548,4.606,4.606,0,0,1,4.64,1.2,16.367,16.367,0,0,1,1.305,2.3,2.6,2.6,0,0,0,2.065,1.463c1.1-.008,1.9-1.138,2.075-2.228s-.055-2.206.021-3.307a2.8,2.8,0,0,1,1.663-2.627,2.594,2.594,0,0,1,1.687.17,4.845,4.845,0,0,1,2.648,5.879c-.213.605-.47,1.449.1,1.749a1.1,1.1,0,0,0,.65.062c.959-.118,1.888-.436,2.852-.5a2.935,2.935,0,0,1,2.6.972,2.63,2.63,0,0,1,.076,2.651,7.038,7.038,0,0,1-1.8,2.1c-2.358,2.063-5.073,3.973-8.19,4.292-1.35.138-2.716-.032-4.068.081a9.855,9.855,0,0,0-6.6,3.392" transform="translate(-86.316 -274.338)" fill="#529200"/>
                <path id="Path_210022" data-name="Path 210022" d="M183.767,366.557a10.475,10.475,0,0,1-5.461-.626,2.208,2.208,0,0,1-1.416-2.112,2.245,2.245,0,0,1,.574-1.043A8.862,8.862,0,0,1,182.7,360.1a3.95,3.95,0,0,0,1.582-.478,1.142,1.142,0,0,0,.462-1.438,1.451,1.451,0,0,0-.643-.505c-2-.976-4.338-.893-6.483-1.479a1.891,1.891,0,0,1-1.215-.746c-.456-.8.291-1.739.993-2.335a11.228,11.228,0,0,1,4.316-2.548,4.606,4.606,0,0,1,4.64,1.2,16.368,16.368,0,0,1,1.305,2.3,2.6,2.6,0,0,0,2.065,1.463c1.1-.008,1.9-1.138,2.075-2.228s-.055-2.206.021-3.307a2.8,2.8,0,0,1,1.663-2.627,2.594,2.594,0,0,1,1.687.17,4.845,4.845,0,0,1,2.648,5.879c-.213.605-.47,1.449.1,1.749a1.1,1.1,0,0,0,.65.062c.959-.118,1.888-.436,2.852-.5a2.935,2.935,0,0,1,2.6.972,2.63,2.63,0,0,1,.076,2.651,7.038,7.038,0,0,1-1.8,2.1c-2.358,2.063-5.073,3.973-8.19,4.292-1.35.138-2.716-.032-4.068.081a9.855,9.855,0,0,0-6.6,3.392" transform="translate(-139.236 -274.338)" fill="#527e00"/>
                <path id="Path_210023" data-name="Path 210023" d="M267.052,344.66a10.475,10.475,0,0,1-5.461-.626,2.208,2.208,0,0,1-1.416-2.112,2.242,2.242,0,0,1,.575-1.042,8.862,8.862,0,0,1,5.239-2.678,3.95,3.95,0,0,0,1.582-.478,1.142,1.142,0,0,0,.462-1.438,1.452,1.452,0,0,0-.643-.505c-2-.976-4.338-.893-6.483-1.479a1.892,1.892,0,0,1-1.215-.746c-.457-.8.291-1.739.993-2.335A11.231,11.231,0,0,1,265,328.673a4.606,4.606,0,0,1,4.64,1.2,16.344,16.344,0,0,1,1.305,2.3,2.6,2.6,0,0,0,2.065,1.463c1.1-.008,1.9-1.138,2.075-2.228s-.055-2.206.021-3.307a2.8,2.8,0,0,1,1.663-2.627,2.594,2.594,0,0,1,1.687.17,4.845,4.845,0,0,1,2.648,5.879c-.213.605-.47,1.449.1,1.749a1.1,1.1,0,0,0,.65.062c.959-.118,1.888-.436,2.853-.5a2.935,2.935,0,0,1,2.6.972,2.63,2.63,0,0,1,.076,2.651,7.036,7.036,0,0,1-1.8,2.1c-2.358,2.063-5.073,3.974-8.19,4.292-1.35.138-2.716-.032-4.068.082a9.856,9.856,0,0,0-6.6,3.392" transform="translate(-205.025 -257.042)" fill="#529200"/>
                <path id="Path_210024" data-name="Path 210024" d="M215.639,390.036c0,3.263-3.113,5.909-6.952,5.909s-6.952-2.645-6.952-5.909,3.113-5.909,6.952-5.909,6.952,2.645,6.952,5.909" transform="translate(-159.354 -303.429)" fill="#ff3600"/>
                <path id="Path_210025" data-name="Path 210025" d="M281.823,359.847c0,3.263-3.113,5.909-6.952,5.909s-6.952-2.645-6.952-5.909,3.113-5.909,6.952-5.909,6.952,2.645,6.952,5.909" transform="translate(-211.634 -279.582)" fill="#ff3600"/>
                <path id="Path_210026" data-name="Path 210026" d="M71.4,415.944c0,3.263-3.113,5.909-6.952,5.909s-6.952-2.645-6.952-5.909,3.113-5.909,6.952-5.909,6.952,2.645,6.952,5.909" transform="translate(-45.419 -323.894)" fill="#ff3600"/>
                <path id="Path_210027" data-name="Path 210027" d="M143.521,387.817c0,3.264-3.113,5.909-6.952,5.909s-6.952-2.645-6.952-5.909,3.112-5.909,6.952-5.909,6.952,2.645,6.952,5.909" transform="translate(-102.387 -301.676)" fill="#ff3600"/>
                <path id="Path_210028" data-name="Path 210028" d="M165.128,394.64a2.4,2.4,0,0,1,3.281-1.816,8.215,8.215,0,0,1-3.281,1.816" transform="translate(-130.438 -310.14)" fill="#0a3600"/>
                <path id="Path_210029" data-name="Path 210029" d="M151.348,392.017c-1.2-1.087-2.578-1.558-3.648-2.789,1.641-.267,3.855.931,3.648,2.789" transform="translate(-116.671 -307.429)" fill="#0a3600"/>
                <path id="Path_210030" data-name="Path 210030" d="M241.662,395.559a2.4,2.4,0,0,1,1.28-3.525,8.216,8.216,0,0,1-1.28,3.525" transform="translate(-190.606 -309.675)" fill="#0a3600"/>
                <path id="Path_210031" data-name="Path 210031" d="M226.028,405.67c-1.616-.034-2.967.519-4.583.294,1.062-1.28,3.518-1.831,4.583-.294" transform="translate(-174.923 -319.71)" fill="#0a3600"/>
                <path id="Path_210032" data-name="Path 210032" d="M288.136,354.525a2.4,2.4,0,0,1,1.28-3.525,8.217,8.217,0,0,1-1.28,3.525" transform="translate(-227.317 -277.262)" fill="#0a3600"/>
                <path id="Path_210033" data-name="Path 210033" d="M272.5,364.636c-1.616-.034-2.967.519-4.583.294,1.062-1.28,3.518-1.831,4.583-.294" transform="translate(-211.634 -287.296)" fill="#0a3600"/>
                <path id="Path_210034" data-name="Path 210034" d="M80.675,424.679a2.4,2.4,0,0,1,2.61-2.694,8.221,8.221,0,0,1-2.61,2.694" transform="translate(-63.7 -333.316)" fill="#0a3600"/>
                <path id="Path_210035" data-name="Path 210035" d="M64.687,428.066c-1.461-.692-2.92-.739-4.3-1.605,1.492-.734,3.959-.233,4.3,1.605" transform="translate(-47.699 -336.614)" fill="#0a3600"/>
              </g>
            </g>
          </g>
        </g>
      </g>
    </g>
  </g>
</svg>
