<svg xmlns="http://www.w3.org/2000/svg" xmlns:xlink="http://www.w3.org/1999/xlink" width="315.591" height="225.575" viewBox="0 0 315.591 225.575">
  <defs>
    <clipPath id="clip-path">
      <path id="Path_189400" data-name="Path 189400" d="M10.213,25.908H310.024c4.358,0,7.89,3.884,7.89,8.676V242.807c0,4.792-3.532,8.676-7.89,8.676H10.213c-4.358,0-7.89-3.884-7.89-8.676V34.584c0-4.792,3.532-8.676,7.89-8.676" transform="translate(-2.323 -46.349)" fill="#a6bbff"/>
    </clipPath>
    <clipPath id="clip-path-2">
      <rect id="Rectangle_338746" data-name="Rectangle 338746" width="184.54" height="209.363" fill="none"/>
    </clipPath>
    <clipPath id="clip-path-4">
      <rect id="Rectangle_338730" data-name="Rectangle 338730" width="156.18" height="159.473" fill="none"/>
    </clipPath>
    <clipPath id="clip-path-5">
      <rect id="Rectangle_338731" data-name="Rectangle 338731" width="0.222" height="0.095" fill="none"/>
    </clipPath>
    <clipPath id="clip-path-6">
      <rect id="Rectangle_338732" data-name="Rectangle 338732" width="2.278" height="0.96" fill="none"/>
    </clipPath>
    <clipPath id="clip-path-7">
      <rect id="Rectangle_338733" data-name="Rectangle 338733" width="153.817" height="162.159" fill="none"/>
    </clipPath>
    <clipPath id="clip-path-8">
      <rect id="Rectangle_338734" data-name="Rectangle 338734" width="15.343" height="73.165" fill="none"/>
    </clipPath>
    <clipPath id="clip-path-9">
      <rect id="Rectangle_338735" data-name="Rectangle 338735" width="59.99" height="30.047" fill="none"/>
    </clipPath>
    <clipPath id="clip-path-10">
      <rect id="Rectangle_338736" data-name="Rectangle 338736" width="59.99" height="29.343" fill="none"/>
    </clipPath>
    <clipPath id="clip-path-11">
      <rect id="Rectangle_338737" data-name="Rectangle 338737" width="16.045" height="16.045" fill="none"/>
    </clipPath>
    <clipPath id="clip-path-12">
      <rect id="Rectangle_338738" data-name="Rectangle 338738" width="20.574" height="52.649" fill="none"/>
    </clipPath>
    <clipPath id="clip-path-13">
      <rect id="Rectangle_338739" data-name="Rectangle 338739" width="3.464" height="2.154" fill="none"/>
    </clipPath>
    <clipPath id="clip-path-14">
      <rect id="Rectangle_338740" data-name="Rectangle 338740" width="0.079" height="0.332" fill="none"/>
    </clipPath>
    <clipPath id="clip-path-15">
      <rect id="Rectangle_338741" data-name="Rectangle 338741" width="1.314" height="1.34" fill="none"/>
    </clipPath>
    <clipPath id="clip-path-16">
      <rect id="Rectangle_338742" data-name="Rectangle 338742" width="0.041" height="0.151" fill="none"/>
    </clipPath>
    <clipPath id="clip-path-17">
      <rect id="Rectangle_338743" data-name="Rectangle 338743" width="50.735" height="20.703" fill="none"/>
    </clipPath>
    <clipPath id="clip-path-18">
      <rect id="Rectangle_338744" data-name="Rectangle 338744" width="59.973" height="25.291" fill="none"/>
    </clipPath>
    <clipPath id="clip-path-19">
      <rect id="Rectangle_338746-2" data-name="Rectangle 338746" width="134.405" height="152.483" transform="translate(0 0)" fill="none"/>
    </clipPath>
    <clipPath id="clip-path-21">
      <rect id="Rectangle_338730-2" data-name="Rectangle 338730" width="113.749" height="116.147" fill="none"/>
    </clipPath>
    <clipPath id="clip-path-22">
      <rect id="Rectangle_338731-2" data-name="Rectangle 338731" width="0.162" height="0.069" transform="translate(0 0)" fill="none"/>
    </clipPath>
    <clipPath id="clip-path-23">
      <rect id="Rectangle_338732-2" data-name="Rectangle 338732" width="1.659" height="0.699" transform="translate(0 0)" fill="none"/>
    </clipPath>
    <clipPath id="clip-path-24">
      <rect id="Rectangle_338733-2" data-name="Rectangle 338733" width="112.028" height="118.104" transform="translate(0 0)" fill="none"/>
    </clipPath>
    <clipPath id="clip-path-25">
      <rect id="Rectangle_338734-2" data-name="Rectangle 338734" width="11.175" height="53.288" transform="translate(0 0)" fill="none"/>
    </clipPath>
    <clipPath id="clip-path-26">
      <rect id="Rectangle_338735-2" data-name="Rectangle 338735" width="43.692" height="21.883" fill="none"/>
    </clipPath>
    <clipPath id="clip-path-27">
      <rect id="Rectangle_338736-2" data-name="Rectangle 338736" width="43.692" height="21.371" fill="none"/>
    </clipPath>
    <clipPath id="clip-path-28">
      <rect id="Rectangle_338737-2" data-name="Rectangle 338737" width="11.686" height="11.686" transform="translate(0 0)" fill="none"/>
    </clipPath>
    <clipPath id="clip-path-29">
      <rect id="Rectangle_338738-2" data-name="Rectangle 338738" width="14.984" height="38.345" transform="translate(0 0)" fill="none"/>
    </clipPath>
    <clipPath id="clip-path-30">
      <rect id="Rectangle_338739-2" data-name="Rectangle 338739" width="2.523" height="1.569" transform="translate(0 0)" fill="none"/>
    </clipPath>
    <clipPath id="clip-path-31">
      <rect id="Rectangle_338740-2" data-name="Rectangle 338740" width="0.057" height="0.242" fill="none"/>
    </clipPath>
    <clipPath id="clip-path-32">
      <rect id="Rectangle_338741-2" data-name="Rectangle 338741" width="0.957" height="0.976" transform="translate(0 0)" fill="none"/>
    </clipPath>
    <clipPath id="clip-path-33">
      <rect id="Rectangle_338742-2" data-name="Rectangle 338742" width="0.03" height="0.11" transform="translate(0 0)" fill="none"/>
    </clipPath>
    <clipPath id="clip-path-34">
      <rect id="Rectangle_338743-2" data-name="Rectangle 338743" width="36.952" height="15.078" fill="none"/>
    </clipPath>
    <clipPath id="clip-path-35">
      <rect id="Rectangle_338744-2" data-name="Rectangle 338744" width="43.68" height="18.42" transform="translate(0 0)" fill="none"/>
    </clipPath>
  </defs>
  <g id="Group_983556" data-name="Group 983556" transform="translate(-1.578 0)">
    <g id="Group_176387" data-name="Group 176387">
      <path id="Path_189401" data-name="Path 189401" d="M10.213,25.908H310.024a7.89,7.89,0,0,1,7.89,7.89V223.152a7.89,7.89,0,0,1-7.89,7.89H10.213a7.89,7.89,0,0,1-7.89-7.89V33.8a7.89,7.89,0,0,1,7.89-7.89" transform="translate(-0.745 -5.467)" fill="#6b8dfc"/>
      <g id="Mask_Group_335" data-name="Mask Group 335" transform="translate(1.579 20.441)" clip-path="url(#clip-path)">
        <g id="Group_176397" data-name="Group 176397" transform="translate(-109.949 30.219) rotate(-6)">
          <g id="Group_176396" data-name="Group 176396" transform="translate(0 0)">
            <g id="Group_176395" data-name="Group 176395">
              <path id="Path_189395" data-name="Path 189395" d="M413.919,210.61c-31.181,31.369-63.309,61.678-96.008,91.5,14.94-30.829,30.924-61.235,45.191-92.351,16.172-35.282,35.279-83.244,18.479-118.763-38.3-80.96-148.128,4.976-189.076,48.39-4.366,4.622-8.543,9.436-12.774,14.2,15.466-34.277,29.586-69.42,27.9-105.642-2.323-49.8-48.351-59.746-89.48-34.746C73.981,40.047,37.476,84.737,6.845,125.213c-26.013,34.377,28.681,63.6,54.48,29.708a496.388,496.388,0,0,1,45.96-52.268q-3.765,6.435-7.6,12.856c-16.921,28.276-33.655,56.653-47.736,86.245C24.984,258.428-14.652,336.979,13.516,394.1c14.2,28.783,50.443,30.172,78.38,16.972,37.547-17.742,64.647-54.449,90.586-85.647,27.076-32.575,51.173-66.959,76.4-100.815,10.547-14.148,21.09-28.49,33.018-41.6.273-.3.564-.578.837-.883l-.325.9c-7.175,19.59-16.124,38.48-25.167,57.422-16.837,35.238-38.177,72.494-45.461,110.359-6.444,33.478,5.571,70.15,46.312,65.944,38.3-3.952,70.532-41.525,97.153-66.839,32.243-30.661,63.955-61.883,95.671-93.069C494.036,224.287,446.666,177.67,413.919,210.61Z" transform="translate(6.263 6.116)" fill="#3c3fa7"/>
              <path id="Path_189396" data-name="Path 189396" d="M270.443,429.227c-14.991.661-27.478-3.953-36.291-13.469-12.249-13.228-16.8-35.452-12.187-59.455,6.012-31.281,21.117-61.66,35.727-91.039,3.492-7.035,6.955-14,10.249-20.881,3.117-6.532,6.4-13.393,9.663-20.485-1.919,2.555-3.819,5.109-5.7,7.637l-1.867,2.5c-6.555,8.794-13.032,17.628-19.509,26.449-18.167,24.778-36.959,50.4-57.13,74.656q-4.419,5.324-8.9,10.821c-23.149,28.258-49.385,60.291-84.072,76.684-30.93,14.6-70.48,12.63-86.263-19.387-28.367-57.507,8.5-134.749,35.423-191.153l3.062-6.408c7.922-16.66,16.7-32.969,25.955-49.225q-3.134,3.943-6.177,7.932C56.48,185.364,30.152,186.221,13.9,174.94.466,165.61-6.5,147.471,8.258,127.973,40.952,84.765,77.3,41.074,121.506,14.2c24.541-14.905,50.81-18.309,70.309-9.1,17.163,8.107,27.2,25.2,28.273,48.142,1.254,26.908-5.831,53.035-15.531,78.078,33.173-31.98,93.918-77.946,140.8-73.455C366.9,59.936,383.1,72.143,393.5,94.14c17.111,36.174.235,82.888-18.526,123.82-8.932,19.479-18.666,38.957-28.082,57.788l-3.333,6.663c26.612-24.712,50.458-47.7,72.384-69.75h0c10.84-10.912,24.189-15.327,37.552-12.467a40.06,40.06,0,0,1,30.179,29.459c3.107,13.278-1.264,26.569-12.313,37.429l-3.607,3.548c-30.029,29.529-61.08,60.059-92.141,89.6-3.828,3.643-7.766,7.534-11.833,11.546-24.151,23.849-54.212,53.538-89.322,57.162C273.1,429.073,271.768,429.169,270.443,429.227Zm28.79-246.82a5.558,5.558,0,0,1,2.961.66,5.442,5.442,0,0,1,2.619,6.79l-.331.9c-7.52,20.536-17.021,40.436-25.4,57.986-3.321,6.948-6.819,13.977-10.344,21.075-14.216,28.588-28.914,58.147-34.6,87.71-3.86,20.077-.218,39.074,9.508,49.578,7.2,7.78,17.5,11,30.614,9.692,30.4-3.142,57.361-29.761,81.144-53.254,4.125-4.076,8.134-8.031,12.02-11.724,30.977-29.456,61.989-59.947,91.98-89.438l3.6-3.548c9.768-9.6,10.06-19.146,8.582-25.468a29.251,29.251,0,0,0-21.735-21.235c-6.329-1.364-15.871-.955-25.423,8.659h0c-28.326,28.487-59.81,58.494-96.26,91.738a6.367,6.367,0,0,1-7.817.807,5.7,5.7,0,0,1-1.723-7.328c5.645-11.656,11.442-23.246,17.234-34.842,9.368-18.732,19.048-38.1,27.891-57.384,17.576-38.337,33.516-81.828,18.431-113.711-8.773-18.54-21.564-28.373-39.1-30.063C299.37,65.822,235.42,115.2,203.128,149.431c-3.439,3.65-6.766,7.423-10.1,11.189l-2.526,2.861a6.472,6.472,0,0,1-7.974,1.562,5.672,5.672,0,0,1-2.165-7.394C195.1,125.006,209.349,90.168,207.7,54.875c-.883-18.918-8.5-32.3-22.035-38.689-15.79-7.45-37.6-4.365-58.35,8.244-42.2,25.649-77.5,68.151-109.357,110.257-10.07,13.305-4.708,24.257,3.665,30.069,11.34,7.871,29.6,8.051,41.118-7.088a504.2,504.2,0,0,1,46.611-53,6.376,6.376,0,0,1,8.113-.942,5.77,5.77,0,0,1,1.384,7.726q-3.785,6.473-7.636,12.912c-17.135,28.632-33.652,56.732-47.433,85.684l-3.063,6.426C34.894,270.583-.476,344.693,25.4,397.163c12.571,25.5,44.978,26.61,70.491,14.564,31.84-15.039,55.931-44.458,79.225-72.9q4.521-5.52,8.967-10.9c19.9-23.936,38.563-49.38,56.617-73.989q9.735-13.278,19.562-26.537l1.867-2.5c9.9-13.292,20.128-27.036,31.582-39.624l.584-.616A7.464,7.464,0,0,1,299.232,182.407Zm120.949,34.32.062,0Z"/>
            </g>
            <path id="Path_189397" data-name="Path 189397" d="M29.99,3.316C5.149,49.457-10.089,102.931,7.775,150.564c2.645,7.038,14.767,3.376,12.09-3.77C3.088,102.07,17.044,52.394,40.408,9,44.257,1.836,33.859-3.875,29.99,3.316Z" transform="translate(26.649 235.341)"/>
            <path id="Path_189398" data-name="Path 189398" d="M17.828,32.446c-.1-.007-.2-.034-.3-.047-.158-.328-.3-.674-.355-.769l-.023-.036c-.01-.048.007-.019-.008-.091-.677-2.684-1.129-5.42-1.606-8.161Q13.86,13.789,12.2,4.235C11.654,1.144,7.866-.794,4.764.316A6.847,6.847,0,0,0,.105,8L3.884,29.612c1.054,6,2.809,13.851,10.124,14.739,3.16.378,6.861-1.124,7.807-4.6C22.628,36.779,21.215,32.857,17.828,32.446Z" transform="translate(51.85 334.048)"/>
            <path id="Path_189399" data-name="Path 189399" d="M24.429.648c-6.863-3.384-13.6,7.414-6.72,10.8C27.2,16.131,29.7,26.4,29.629,36.594,29.555,48.174,27.7,60.163,25.27,71.671A248.814,248.814,0,0,1,.843,138.1c-3.856,7.16,6.549,12.87,10.418,5.679A261.041,261.041,0,0,0,38.755,65.6C42.656,43.5,47.551,12.04,24.429.648Z" transform="translate(329.526 93.782)"/>
          </g>
        </g>
        <g id="Group_983558" data-name="Group 983558" transform="translate(-366.396 -2963.193)">
          <g id="Group_983606" data-name="Group 983606" transform="translate(370.382 2992.841) rotate(-25)">
            <g id="Group_983603" data-name="Group 983603" clip-path="url(#clip-path-2)">
              <g id="Group_983602" data-name="Group 983602" transform="translate(0 0)">
                <g id="Group_983601" data-name="Group 983601" clip-path="url(#clip-path-2)">
                  <path id="Path_210036" data-name="Path 210036" d="M151.694,138.152c-20.433,24.074-61.639,51.854-84.317,31.3A20.054,20.054,0,0,0,51.533,164.4C21.137,168,3.656,121.484.956,90.022-7.742,4.888,44.3-16.452,100.563,11.7a52.342,52.342,0,0,0,15.35,4.9c1.009.158,2.011.324,3,.5.075.015.147.026.222.041,14.7,2.639,27.471,7.459,37.569,14.165,11.838,7.85,20,18.287,23.265,30.833,5.316,20.43-2.353,46.447-28.28,76.007" transform="translate(1.484 31.256)" fill="#ff002b"/>
                  <path id="Path_210037" data-name="Path 210037" d="M86.992,177a28.149,28.149,0,0,1-19.551-7.22,19.874,19.874,0,0,0-15.688-5.007c-7.854.933-15.294-1.412-22.115-6.969C12.735,144.033,2.921,113.116.957,90.218-1.1,70.054.167,52.712,4.734,38.677,8.988,25.6,16,15.618,25.586,9,44.243-3.881,71.674-2.9,100.849,11.7a52.092,52.092,0,0,0,15.292,4.884c1.12.176,2.1.341,3.01.505l.226.043c14.792,2.657,27.457,7.432,37.639,14.193,12.092,8.019,20.165,18.721,23.347,30.948,5.763,22.146-4.031,48.491-28.323,76.187-14.871,17.521-40.787,37.029-62.541,38.453q-1.272.083-2.506.083M54.1,164.237a20.27,20.27,0,0,1,13.608,5.248c5.776,5.236,13.1,7.6,21.766,7.036,21.639-1.416,47.447-20.855,62.268-38.317l0,0c24.2-27.593,33.966-53.814,28.238-75.827C176.823,50.242,168.807,39.62,156.8,31.655c-10.136-6.731-22.751-11.487-37.495-14.135l-.226-.043c-.9-.163-1.88-.328-3-.5a52.478,52.478,0,0,1-15.408-4.921C71.631-2.477,44.345-3.472,25.81,9.326,11.867,18.954-3.7,40.8,1.35,90.181,3.308,113,13.073,143.8,29.887,157.5c6.736,5.486,14.077,7.8,21.82,6.883a20.323,20.323,0,0,1,2.392-.141" transform="translate(1.287 31.078)"/>
                  <g id="Group_983558-2" data-name="Group 983558" transform="translate(26.868 48.404)" opacity="0.3">
                    <g id="Group_983557" data-name="Group 983557">
                      <g id="Group_983556-2" data-name="Group 983556" clip-path="url(#clip-path-4)">
                        <path id="Path_210038" data-name="Path 210038" d="M126.31,121c-20.433,24.074-61.639,51.854-84.317,31.3a20.055,20.055,0,0,0-15.844-5.057C15.957,148.456,7.218,144.032,0,136.43c7.715,5.045,16.16,7.131,24.959,4.439a19.584,19.584,0,0,1,16.1,2.116c25.362,15.825,60.156-18.02,75.619-44.707,8.464-14.071,13.829-26.944,16.525-38.529.026-.109.049-.218.075-.328.079-.335.154-.67.222-1a.109.109,0,0,0,.007-.034c3.212-15.211-1.788-27.753-12.177-38.54a39.3,39.3,0,0,1-18.091,2.508,14.309,14.309,0,0,1,2.067,4.36C83.428,30.573,59.422,20.43,47.479,8.246,52.4,1.318,71.722,3.486,86.772,10.237A38.942,38.942,0,0,1,93.707.053c.015-.019.034-.034.049-.053.5.09,1.009.185,1.51.279.377.072.749.147,1.122.222.486.1.968.2,1.45.3.825.177,1.645.358,2.459.55.068.015.136.03.2.049.441.1.877.207,1.314.316.373.091.746.185,1.115.283.113.026.222.056.331.083.305.079.61.162.915.245l.463.124c.776.211,1.548.429,2.308.655l1.269.384c.41.128.817.256,1.224.388s.821.268,1.228.4q1.13.378,2.244.779c.139.053.279.1.418.155.313.113.625.23.938.346.38.143.757.286,1.133.437.4.154.8.316,1.2.478.772.312,1.529.633,2.278.96q.554.243,1.1.486a.542.542,0,0,0,.068.03c.3.139.606.279.907.422.094.042.185.087.275.128.215.1.426.2.633.3.791.377,1.57.768,2.334,1.167.226.117.452.234.674.354.4.207.791.422,1.178.64.249.135.49.275.734.41q2.361,1.333,4.552,2.79c.233.158.471.316.7.475.554.376,1.1.757,1.634,1.144.211.151.418.305.625.456q.141.1.271.2c.23.173.459.346.685.519.26.2.52.4.772.6s.512.407.761.614q.757.61,1.48,1.246c.215.185.422.369.633.557a2.269,2.269,0,0,1,.177.158c.188.169.373.339.557.508.324.293.64.595.952.9.162.154.324.309.482.467q.672.661,1.314,1.341a.029.029,0,0,1,.015.015c.211.222.422.452.629.678.2.211.384.422.572.633q.96,1.073,1.845,2.188c.192.241.384.486.569.727.158.2.313.407.467.614.58.776,1.137,1.566,1.664,2.368.169.252.335.509.5.764.147.233.294.467.437.7.5.809.971,1.634,1.42,2.47.117.222.233.444.346.667.03.049.053.1.079.151.09.177.181.354.264.531.083.155.158.309.23.467.071.139.139.282.207.425.094.2.188.4.275.606.215.467.422.941.617,1.416.124.294.241.6.358.893s.241.621.354.934c.026.068.053.135.075.2.1.267.192.535.279.8.286.824.542,1.657.776,2.5.072.245.139.489.2.738a.977.977,0,0,1,.038.151h0c5.316,20.426-2.353,46.443-28.28,76.007" transform="translate(0 0)"/>
                      </g>
                    </g>
                  </g>
                  <g id="Group_983561" data-name="Group 983561" transform="translate(120.402 48.363)" opacity="0.3">
                    <g id="Group_983560" data-name="Group 983560">
                      <g id="Group_983559" data-name="Group 983559" clip-path="url(#clip-path-5)">
                        <path id="Path_210039" data-name="Path 210039" d="M0,0,.222.041C.207.06.188.075.173.094L0,0" transform="translate(0.001 0)"/>
                      </g>
                    </g>
                  </g>
                  <g id="Group_983564" data-name="Group 983564" transform="translate(143.464 54.877)" opacity="0.3">
                    <g id="Group_983563" data-name="Group 983563">
                      <g id="Group_983562" data-name="Group 983562" clip-path="url(#clip-path-6)">
                        <path id="Path_210040" data-name="Path 210040" d="M0,0C.772.313,1.529.633,2.278.96Q1.154.463,0,0" transform="translate(0 0)"/>
                      </g>
                    </g>
                  </g>
                  <g id="Group_983567" data-name="Group 983567" transform="translate(1.484 31.256)" opacity="0.6">
                    <g id="Group_983566" data-name="Group 983566">
                      <g id="Group_983565" data-name="Group 983565" clip-path="url(#clip-path-7)">
                        <path id="Path_210041" data-name="Path 210041" d="M153.817,29.486A109.738,109.738,0,0,0,120.432,19.11a52.241,52.241,0,0,1-15.351-4.9C48.822-13.941-3.224,7.4,5.474,92.53c2.075,24.18,12.877,57.249,31.563,69.629C15.572,152.483,3.192,116.085.956,90.022-7.742,4.889,44.3-16.452,100.563,11.7a52.337,52.337,0,0,0,15.351,4.9c14.658,2.282,27.531,6.668,37.9,12.884" transform="translate(0)" fill="#fff"/>
                      </g>
                    </g>
                  </g>
                  <path id="Path_210042" data-name="Path 210042" d="M88.27,179.57a29.389,29.389,0,0,1-20.407-7.554,18.58,18.58,0,0,0-14.669-4.684c-8.214.977-15.98-1.463-23.083-7.249C12.916,146.078,2.947,114.772.962,91.612-1.115,71.29.175,53.771,4.8,39.565,9.14,26.216,16.321,16.01,26.14,9.229,45.195-3.929,73.1-2.979,102.712,11.835A50.7,50.7,0,0,0,117.627,16.6c32.711,5.088,56,20.489,63.906,42.254,4.072,11.217,4.009,23.7-.187,37.091-4.465,14.253-13.564,29.274-27.044,44.646-15.042,17.72-41.3,37.447-63.429,38.9q-1.321.087-2.6.087M55.387,164.234a21.542,21.542,0,0,1,14.469,5.583c5.509,4.993,12.517,7.249,20.821,6.7,21.267-1.393,46.719-20.6,61.367-37.864l.016-.018c25.577-29.163,34.8-56.4,26.681-78.775-7.521-20.715-29.963-35.416-61.571-40.333a53.68,53.68,0,0,1-15.787-5.042C72.773.175,45.963-.851,27.827,11.672,8.242,25.2-.025,52.743,3.918,91.334c1.936,22.58,11.543,52.988,28.068,66.448,6.455,5.258,13.473,7.479,20.858,6.6a21.584,21.584,0,0,1,2.544-.151" transform="translate(0 29.792)"/>
                  <path id="Path_210043" data-name="Path 210043" d="M10.254,73.165C21.649,48.7,22.807,24.94,17.116,2.957A3.953,3.953,0,0,0,12.309.124L2.466,2.643a3.278,3.278,0,0,0-1.912,5c12.792,19.184,14.5,40.076,2.331,63.1" transform="translate(94.634 1.484)" fill="#ef701b"/>
                  <path id="Path_210044" data-name="Path 210044" d="M10.632,73.446l-.358-.167C20.934,50.4,23.238,26.818,17.125,3.2A3.76,3.76,0,0,0,12.557.513L2.715,3.031a3.081,3.081,0,0,0-1.8,4.7c6.512,9.766,10.064,19.93,10.559,30.21.513,10.671-2.251,21.8-8.218,33.09l-.349-.184C14.535,48.85,13.754,27.688.589,7.945a3.475,3.475,0,0,1,2.028-5.3L12.46.13A4.156,4.156,0,0,1,17.507,3.1c6.137,23.707,3.823,47.373-6.875,70.342" transform="translate(94.434 1.287)"/>
                  <g id="Group_983570" data-name="Group 983570" transform="translate(94.633 1.482)" opacity="0.6">
                    <g id="Group_983569" data-name="Group 983569">
                      <g id="Group_983568" data-name="Group 983568" clip-path="url(#clip-path-8)">
                        <path id="Path_210045" data-name="Path 210045" d="M5.3,70.612l5.256,1.894c-.1.218-.2.44-.3.659L2.885,70.74C15.054,47.716,13.348,26.823.554,7.64a3.278,3.278,0,0,1,1.913-5L12.309.125A3.921,3.921,0,0,1,15.344.58L6.74,2.534a3.275,3.275,0,0,0-2.048,4.94C16.955,27,18.092,47.931,5.3,70.612" transform="translate(0 0)" fill="#fff"/>
                      </g>
                    </g>
                  </g>
                  <path id="Path_210046" data-name="Path 210046" d="M11.734,76.134a1.485,1.485,0,0,1-1.345-2.112C20.919,51.417,23.2,28.131,17.16,4.812a2.471,2.471,0,0,0-3-1.766L4.316,5.565A1.794,1.794,0,0,0,3.271,8.3c6.643,9.963,10.268,20.346,10.774,30.862.524,10.9-2.29,22.261-8.366,33.754a1.485,1.485,0,0,1-2.625-1.388C14.6,49.681,13.864,29.538.8,9.946A4.763,4.763,0,0,1,3.58,2.688L13.422.17a5.445,5.445,0,0,1,6.613,3.9c6.214,24,3.875,47.961-6.954,71.208a1.484,1.484,0,0,1-1.346.858" transform="translate(93.152 0)"/>
                  <path id="Path_210047" data-name="Path 210047" d="M58.114,11.9A39.346,39.346,0,0,1,5.951,31.263,39.283,39.283,0,0,1,0,27.885,39.349,39.349,0,0,1,54.036,3.59a39,39,0,0,1,5.953,3.383A39.626,39.626,0,0,1,58.114,11.9" transform="translate(111.577 28.909)" fill="#73c612"/>
                  <path id="Path_210048" data-name="Path 210048" d="M22.522,35.227A39.3,39.3,0,0,1,6.1,31.63a39.689,39.689,0,0,1-5.981-3.4L0,28.153l.042-.138A39.551,39.551,0,0,1,60.332,7l.119.082-.042.138a39.873,39.873,0,0,1-1.884,4.95,39.6,39.6,0,0,1-36,23.059M.462,27.992a39.377,39.377,0,0,0,5.8,3.279A39.192,39.192,0,0,0,58.166,12,39.638,39.638,0,0,0,59.988,7.24,39.153,39.153,0,0,0,.462,27.992" transform="translate(111.347 28.722)"/>
                  <g id="Group_983573" data-name="Group 983573" transform="translate(111.577 33.716)" opacity="0.3">
                    <g id="Group_983572" data-name="Group 983572">
                      <g id="Group_983571" data-name="Group 983571" clip-path="url(#clip-path-9)">
                        <path id="Path_210049" data-name="Path 210049" d="M59.99,2.165A40,40,0,0,1,58.115,7.09,39.346,39.346,0,0,1,5.953,26.458,39.282,39.282,0,0,1,0,23.077c.343-1.122.738-2.24,1.19-3.347q1.186.649,2.436,1.22A39.346,39.346,0,0,0,55.789,1.581c.241-.523.47-1.054.681-1.581a39.464,39.464,0,0,1,3.52,2.165" transform="translate(0 0)"/>
                      </g>
                    </g>
                  </g>
                  <g id="Group_983576" data-name="Group 983576" transform="translate(111.577 28.911)" opacity="0.6">
                    <g id="Group_983575" data-name="Group 983575">
                      <g id="Group_983574" data-name="Group 983574" clip-path="url(#clip-path-10)">
                        <path id="Path_210050" data-name="Path 210050" d="M59.99,6.971c-.128.414-.26.828-.4,1.242a38,38,0,0,0-3.667-1.92A39.342,39.342,0,0,0,3.758,25.653q-.836,1.824-1.476,3.69Q1.107,28.649,0,27.882A39.358,39.358,0,0,1,54.038,3.59,39.088,39.088,0,0,1,59.99,6.971" fill="#fff"/>
                      </g>
                    </g>
                  </g>
                  <path id="Path_210051" data-name="Path 210051" d="M23.774,37.8A40.586,40.586,0,0,1,6.818,34.087,40.944,40.944,0,0,1,.642,30.581a1.483,1.483,0,0,1-.578-1.653,40.839,40.839,0,0,1,62.255-21.7,1.485,1.485,0,0,1,.574,1.654,41.179,41.179,0,0,1-1.945,5.11A40.888,40.888,0,0,1,23.774,37.8M3.239,28.746a38.232,38.232,0,0,0,4.816,2.641A37.9,37.9,0,0,0,58.25,12.753a38.423,38.423,0,0,0,1.468-3.7A37.872,37.872,0,0,0,3.239,28.746M59.6,13.372h0Z" transform="translate(110.093 27.436)"/>
                  <path id="Path_210052" data-name="Path 210052" d="M47.61,23.869c-17.167,0-32.983-7.14-47.176-21.335a1.484,1.484,0,1,1,2.1-2.1C19.9,17.8,39.757,24.155,61.557,19.32a1.485,1.485,0,0,1,.643,2.9,67.269,67.269,0,0,1-14.59,1.65" transform="translate(71.726 54.048)"/>
                  <path id="Path_210053" data-name="Path 210053" d="M.965,16.5l11.714-4.383c3.911-1.446,7.8-2.96,11.683-4.466s7.844-2.829,11.814-4.115S44.148,1.048,48.211.012a.373.373,0,0,1,.26.7C44.726,2.592,40.912,4.3,37.078,5.948s-7.69,3.24-11.614,4.651-7.846,2.824-11.745,4.3L2.005,19.281A1.485,1.485,0,1,1,.965,16.5" transform="translate(110.092 38.903)"/>
                  <path id="Path_210054" data-name="Path 210054" d="M2.076.12,13.061,4.8a.373.373,0,0,1-.226.707L1.172,2.948A1.491,1.491,0,0,1,1.811.035,1.615,1.615,0,0,1,2.076.12" transform="translate(140.611 43.889)"/>
                  <path id="Path_210055" data-name="Path 210055" d="M9.9.573l-7.153,11.2a1.49,1.49,0,0,1-2.511-1.6,1.6,1.6,0,0,1,.151-.2L9.308.122a.373.373,0,0,1,.59.45" transform="translate(125.971 39.946)"/>
                  <g id="Group_983579" data-name="Group 983579" transform="translate(31.361 142.94)" opacity="0.19">
                    <g id="Group_983578" data-name="Group 983578">
                      <g id="Group_983577" data-name="Group 983577" clip-path="url(#clip-path-11)">
                        <path id="Path_210056" data-name="Path 210056" d="M14.461,12.808A8.022,8.022,0,1,1,12.808,1.584a8.022,8.022,0,0,1,1.653,11.224" fill="#fff"/>
                      </g>
                    </g>
                  </g>
                  <g id="Group_983582" data-name="Group 983582" transform="translate(17.595 81.832)" opacity="0.19">
                    <g id="Group_983581" data-name="Group 983581">
                      <g id="Group_983580" data-name="Group 983580" clip-path="url(#clip-path-12)">
                        <path id="Path_210057" data-name="Path 210057" d="M6.689,3.478c-7.929,14.67-8.813,29.749-2.626,44.035A8.625,8.625,0,0,0,19.986,40.89C15.78,30.044,15.373,18.87,18.771,8.7A6.6,6.6,0,0,0,6.689,3.478" transform="translate(0 0)" fill="#fff"/>
                      </g>
                    </g>
                  </g>
                  <g id="Group_983585" data-name="Group 983585" transform="translate(154.598 60.328)" opacity="0.3">
                    <g id="Group_983584" data-name="Group 983584">
                      <g id="Group_983583" data-name="Group 983583" clip-path="url(#clip-path-13)">
                        <path id="Path_210058" data-name="Path 210058" d="M0,0Q1.779,1.034,3.464,2.154,1.781,1.041,0,0" transform="translate(0)"/>
                      </g>
                    </g>
                  </g>
                  <g id="Group_983588" data-name="Group 983588" transform="translate(160.072 107.826)" opacity="0.3">
                    <g id="Group_983587" data-name="Group 983587">
                      <g id="Group_983586" data-name="Group 983586" clip-path="url(#clip-path-14)">
                        <path id="Path_210059" data-name="Path 210059" d="M0,.331C.027.222.053.109.079,0,.053.109.031.218,0,.327Z" transform="translate(0 0)"/>
                      </g>
                    </g>
                  </g>
                  <g id="Group_983591" data-name="Group 983591" transform="translate(167.926 70.423)" opacity="0.3">
                    <g id="Group_983590" data-name="Group 983590">
                      <g id="Group_983589" data-name="Group 983589" clip-path="url(#clip-path-15)">
                        <path id="Path_210060" data-name="Path 210060" d="M0,0C.448.44.889.889,1.314,1.341Q.67.663,0,0" transform="translate(0 0)"/>
                      </g>
                    </g>
                  </g>
                  <g id="Group_983594" data-name="Group 983594" transform="translate(181.416 93.251)" opacity="0.3">
                    <g id="Group_983593" data-name="Group 983593">
                      <g id="Group_983592" data-name="Group 983592" clip-path="url(#clip-path-16)">
                        <path id="Path_210061" data-name="Path 210061" d="M.042.15h0A.97.97,0,0,0,0,0C.015.049.03.1.042.15" transform="translate(0)"/>
                      </g>
                    </g>
                  </g>
                  <g id="Group_983597" data-name="Group 983597" transform="translate(113.297 36.091)" opacity="0.3">
                    <g id="Group_983596" data-name="Group 983596">
                      <g id="Group_983595" data-name="Group 983595" clip-path="url(#clip-path-17)">
                        <path id="Path_210062" data-name="Path 210062" d="M0,20.7C14.347,4.665,30.93-3.079,50.735,1.134Z" transform="translate(0 0)"/>
                      </g>
                    </g>
                  </g>
                  <g id="Group_983600" data-name="Group 983600" transform="translate(67.9 71.763)" opacity="0.25">
                    <g id="Group_983599" data-name="Group 983599">
                      <g id="Group_983598" data-name="Group 983598" clip-path="url(#clip-path-18)">
                        <path id="Path_210063" data-name="Path 210063" d="M59.819,20.191c-1.855,6.036-16.708,6.827-33.174,1.765S-1.664,7.9.191,1.862s13.348,4.1,29.814,9.165,31.67,3.129,29.814,9.165" transform="translate(0 0)" fill="#fff"/>
                      </g>
                    </g>
                  </g>
                </g>
              </g>
            </g>
          </g>
          <g id="Group_983607" data-name="Group 983607" transform="translate(489.694 3030.074) rotate(-13)">
            <g id="Group_983603-2" data-name="Group 983603" transform="translate(0 0)" clip-path="url(#clip-path-19)">
              <g id="Group_983602-2" data-name="Group 983602" transform="translate(0 0)">
                <g id="Group_983601-2" data-name="Group 983601" clip-path="url(#clip-path-19)">
                  <path id="Path_210036-2" data-name="Path 210036" d="M110.482,100.619c-14.882,17.534-44.893,37.766-61.41,22.8a14.606,14.606,0,0,0-11.539-3.683C15.395,122.359,2.662,88.479.7,65.565c-6.335-62,31.571-77.548,72.546-57.044a38.122,38.122,0,0,0,11.18,3.57c.735.115,1.464.236,2.188.367l.162.03c10.7,1.922,20.007,5.432,27.362,10.316,8.622,5.718,14.567,13.319,16.944,22.456,3.872,14.879-1.714,33.828-20.6,55.358" transform="translate(1.081 22.765)" fill="#ff002b"/>
                  <path id="Path_210037-2" data-name="Path 210037" d="M63.359,128.911a20.5,20.5,0,0,1-14.239-5.259,14.475,14.475,0,0,0-11.426-3.647c-5.72.68-11.139-1.029-16.107-5.075C9.275,104.9,2.128,82.385.7,65.707-.8,51.021.122,38.391,3.448,28.169c3.1-9.523,8.208-16.794,15.187-21.613C32.223-2.827,52.2-2.11,73.45,8.523A37.94,37.94,0,0,0,84.588,12.08c.816.128,1.532.248,2.192.368l.165.031c10.774,1.935,20,5.413,27.413,10.337,8.807,5.84,14.687,13.635,17,22.54,4.2,16.129-2.936,35.317-20.628,55.488C99.9,113.6,81.028,127.813,65.184,128.85q-.926.061-1.825.061M39.4,119.617a14.763,14.763,0,0,1,9.911,3.822c4.207,3.813,9.538,5.535,15.853,5.124,15.76-1.032,34.556-15.189,45.351-27.907l0,0c17.626-20.1,24.738-39.194,20.566-55.227-2.3-8.836-8.138-16.572-16.885-22.373-7.382-4.9-16.57-8.366-27.308-10.295l-.165-.031c-.654-.119-1.369-.239-2.182-.366A38.221,38.221,0,0,1,73.322,8.78C52.17-1.8,32.3-2.529,18.8,6.792,8.643,13.8-2.692,29.713.983,65.68,2.409,82.3,9.522,104.732,21.768,114.707c4.906,4,10.253,5.684,15.892,5.013a14.8,14.8,0,0,1,1.742-.1" transform="translate(0.937 22.634)"/>
                  <g id="Group_983558-3" data-name="Group 983558" transform="translate(19.569 35.254)" opacity="0.3">
                    <g id="Group_983557-2" data-name="Group 983557" transform="translate(0 0)">
                      <g id="Group_983556-3" data-name="Group 983556" clip-path="url(#clip-path-21)">
                        <path id="Path_210038-2" data-name="Path 210038" d="M91.994,88.13c-14.882,17.534-44.893,37.766-61.41,22.8a14.606,14.606,0,0,0-11.539-3.683C11.622,108.124,5.257,104.9,0,99.365c5.619,3.675,11.77,5.194,18.178,3.233a14.264,14.264,0,0,1,11.729,1.541C48.379,115.665,73.72,91.015,84.982,71.578,91.147,61.33,95.054,51.954,97.018,43.517c.019-.08.036-.159.055-.239.058-.244.112-.488.162-.73a.08.08,0,0,0,.005-.025c2.339-11.079-1.3-20.213-8.869-28.07a28.627,28.627,0,0,1-13.176,1.826A10.421,10.421,0,0,1,76.7,19.456C60.763,22.267,43.278,14.879,34.58,6.005,38.166.96,52.237,2.539,63.2,7.456A28.363,28.363,0,0,1,68.249.038c.011-.014.025-.025.036-.038.367.066.735.134,1.1.2.274.052.546.107.817.162.354.071.7.142,1.056.217.6.129,1.2.26,1.791.4.049.011.1.022.148.036.321.074.639.151.957.23.272.066.543.134.812.206.082.019.162.041.241.06.222.058.444.118.666.178l.337.091c.565.154,1.127.313,1.681.477l.924.28c.3.093.6.186.891.282s.6.195.894.293q.823.275,1.634.568l.3.113c.228.082.455.167.683.252.277.1.551.208.825.318.291.113.584.23.872.348.562.227,1.113.461,1.659.7q.4.177.8.354a.386.386,0,0,0,.049.022c.222.1.441.2.661.307.069.03.134.063.2.093.156.074.31.145.461.222.576.274,1.143.559,1.7.85.165.085.329.17.491.258.288.151.576.307.858.466.181.1.357.2.535.3q1.72.971,3.315,2.032l.513.346c.4.274.8.551,1.19.833.154.11.3.222.455.332q.1.074.2.148c.167.126.335.252.5.378.189.145.378.293.562.439s.373.3.554.447q.551.444,1.078.908c.156.134.307.269.461.406a1.654,1.654,0,0,1,.129.115c.137.123.271.247.406.37.236.214.466.433.694.658.118.112.236.225.351.34q.489.481.957.976a.021.021,0,0,1,.011.011c.153.162.307.329.458.494s.28.307.417.461q.7.781,1.344,1.593c.14.175.28.354.414.529.115.148.228.3.34.447.422.565.828,1.141,1.212,1.725.123.184.244.37.362.557.107.17.214.34.318.51.365.59.708,1.19,1.034,1.8.085.162.17.324.252.485.022.036.038.071.058.11.066.129.132.258.192.387.06.113.115.225.167.34s.1.206.151.31c.069.145.137.293.2.441.156.34.307.686.45,1.031.09.214.175.433.261.65s.175.452.258.68c.019.049.038.1.055.148.071.195.14.389.2.584.208.6.395,1.207.565,1.821.052.178.1.356.148.537a.71.71,0,0,1,.027.11h0c3.872,14.877-1.714,33.825-20.6,55.357" transform="translate(0 0)"/>
                      </g>
                    </g>
                  </g>
                  <g id="Group_983561-2" data-name="Group 983561" transform="translate(87.691 35.223)" opacity="0.3">
                    <g id="Group_983560-2" data-name="Group 983560" transform="translate(0 0)">
                      <g id="Group_983559-2" data-name="Group 983559" clip-path="url(#clip-path-22)">
                        <path id="Path_210039-2" data-name="Path 210039" d="M0,0,.162.03C.151.044.137.055.126.069L0,0" transform="translate(0 0)"/>
                      </g>
                    </g>
                  </g>
                  <g id="Group_983564-2" data-name="Group 983564" transform="translate(104.488 39.968)" opacity="0.3">
                    <g id="Group_983563-2" data-name="Group 983563" transform="translate(0 0)">
                      <g id="Group_983562-2" data-name="Group 983562" clip-path="url(#clip-path-23)">
                        <path id="Path_210040-2" data-name="Path 210040" d="M0,0C.562.228,1.113.461,1.659.7Q.841.337,0,0" transform="translate(0 0)"/>
                      </g>
                    </g>
                  </g>
                  <g id="Group_983567-2" data-name="Group 983567" transform="translate(1.081 22.765)" opacity="0.6">
                    <g id="Group_983566-2" data-name="Group 983566" transform="translate(0 0)">
                      <g id="Group_983565-2" data-name="Group 983565" clip-path="url(#clip-path-24)">
                        <path id="Path_210041-2" data-name="Path 210041" d="M112.028,21.476a79.925,79.925,0,0,0-24.316-7.558,38.048,38.048,0,0,1-11.18-3.57C35.558-10.153-2.348,5.389,3.987,67.391,5.5,85,13.365,109.087,26.975,118.1,11.342,111.056,2.325,84.547.7,65.565c-6.335-62,31.571-77.548,72.546-57.044a38.118,38.118,0,0,0,11.18,3.57c10.676,1.662,20.051,4.857,27.606,9.384" transform="translate(0 0)" fill="#fff"/>
                      </g>
                    </g>
                  </g>
                  <path id="Path_210042-2" data-name="Path 210042" d="M64.289,130.785a21.4,21.4,0,0,1-14.863-5.5,13.532,13.532,0,0,0-10.684-3.411c-5.983.711-11.639-1.066-16.812-5.28C9.407,106.391,2.147,83.59.7,66.722c-1.512-14.8-.573-27.56,2.793-37.907C6.657,19.093,11.887,11.66,19.038,6.722c13.878-9.583,34.2-8.891,55.769,1.9A36.924,36.924,0,0,0,85.67,12.088c23.824,3.706,40.789,14.923,46.544,30.774,2.966,8.169,2.92,17.258-.136,27.014-3.252,10.381-9.879,21.321-19.7,32.516-10.955,12.906-30.082,27.274-46.2,28.329q-.962.063-1.895.063M40.34,119.615a15.69,15.69,0,0,1,10.538,4.066c4.013,3.636,9.116,5.279,15.165,4.883,15.489-1.014,34.026-15.006,44.695-27.577l.011-.013c18.628-21.24,25.348-41.08,19.432-57.373C124.7,28.513,108.359,17.806,85.337,14.225a39.1,39.1,0,0,1-11.5-3.672C53,.128,33.476-.62,20.267,8.5,6,18.351-.019,38.413,2.853,66.52c1.41,16.446,8.407,38.592,20.443,48.4,4.7,3.829,9.813,5.447,15.191,4.809a15.72,15.72,0,0,1,1.853-.11" transform="translate(0 21.698)"/>
                  <path id="Path_210043-2" data-name="Path 210043" d="M7.468,53.288c8.3-17.817,9.143-35.123,5-51.134A2.879,2.879,0,0,0,8.965.091L1.8,1.925A2.388,2.388,0,0,0,.4,5.564C9.72,19.536,10.964,34.752,2.1,51.519" transform="translate(68.924 1.081)" fill="#ef701b"/>
                  <path id="Path_210044-2" data-name="Path 210044" d="M7.744,53.492l-.261-.122C15.247,36.7,16.925,19.532,12.473,2.333A2.739,2.739,0,0,0,9.146.373L1.977,2.207A2.244,2.244,0,0,0,.669,5.627a43.254,43.254,0,0,1,7.69,22c.374,7.772-1.64,15.88-5.985,24.1L2.12,51.6c8.466-16.018,7.9-31.43-1.69-45.809A2.531,2.531,0,0,1,1.906,1.929L9.075.095a3.027,3.027,0,0,1,3.676,2.166c4.47,17.266,2.785,34.5-5.007,51.231" transform="translate(68.778 0.937)"/>
                  <g id="Group_983570-2" data-name="Group 983570" transform="translate(68.923 1.079)" opacity="0.6">
                    <g id="Group_983569-2" data-name="Group 983569" transform="translate(0 0)">
                      <g id="Group_983568-2" data-name="Group 983568" clip-path="url(#clip-path-25)">
                        <path id="Path_210045-2" data-name="Path 210045" d="M3.859,51.428l3.828,1.379c-.071.159-.145.321-.219.48L2.1,51.521C10.964,34.753,9.722,19.536.4,5.564A2.387,2.387,0,0,1,1.8,1.925L8.965.091a2.856,2.856,0,0,1,2.21.332L4.909,1.846a2.385,2.385,0,0,0-1.492,3.6c8.931,14.221,9.759,29.465.441,45.985" transform="translate(0 0)" fill="#fff"/>
                      </g>
                    </g>
                  </g>
                  <path id="Path_210046-2" data-name="Path 210046" d="M8.546,55.45a1.082,1.082,0,0,1-.979-1.538C15.236,37.448,16.9,20.489,12.5,3.505a1.8,1.8,0,0,0-2.186-1.286L3.144,4.053a1.306,1.306,0,0,0-.762,1.991,44.17,44.17,0,0,1,7.847,22.478c.382,7.942-1.668,16.213-6.093,24.584a1.081,1.081,0,0,1-1.912-1.011C10.634,36.184,10.1,21.513.583,7.244A3.469,3.469,0,0,1,2.607,1.958L9.776.124a3.966,3.966,0,0,1,4.816,2.839c4.526,17.482,2.822,34.931-5.065,51.862a1.081,1.081,0,0,1-.981.625" transform="translate(67.845 0)"/>
                  <path id="Path_210047-2" data-name="Path 210047" d="M42.326,8.666A28.656,28.656,0,0,1,4.334,22.77,28.614,28.614,0,0,1,0,20.309,28.658,28.658,0,0,1,39.355,2.615a28.408,28.408,0,0,1,4.336,2.464,28.847,28.847,0,0,1-1.366,3.588" transform="translate(81.264 21.055)" fill="#73c612"/>
                  <path id="Path_210048-2" data-name="Path 210048" d="M16.4,25.657a28.627,28.627,0,0,1-11.96-2.62A28.9,28.9,0,0,1,.086,20.564L0,20.5l.031-.1A28.806,28.806,0,0,1,43.941,5.1l.087.06-.031.1a29.038,29.038,0,0,1-1.372,3.605A28.84,28.84,0,0,1,16.4,25.657M.336,20.387a28.681,28.681,0,0,0,4.226,2.388,28.545,28.545,0,0,0,37.8-14.033,28.876,28.876,0,0,0,1.327-3.469A28.516,28.516,0,0,0,.336,20.387" transform="translate(81.096 20.919)"/>
                  <g id="Group_983573-2" data-name="Group 983573" transform="translate(81.264 24.556)" opacity="0.3">
                    <g id="Group_983572-2" data-name="Group 983572" transform="translate(0 0)">
                      <g id="Group_983571-2" data-name="Group 983571" clip-path="url(#clip-path-26)">
                        <path id="Path_210049-2" data-name="Path 210049" d="M43.692,1.577a29.133,29.133,0,0,1-1.366,3.587A28.657,28.657,0,0,1,4.336,19.27,28.61,28.61,0,0,1,0,16.807c.25-.817.538-1.632.867-2.438q.864.473,1.774.888A28.657,28.657,0,0,0,40.632,1.152c.175-.381.343-.768.5-1.152a28.734,28.734,0,0,1,2.564,1.577" transform="translate(0 0)"/>
                      </g>
                    </g>
                  </g>
                  <g id="Group_983576-2" data-name="Group 983576" transform="translate(81.264 21.056)" opacity="0.6">
                    <g id="Group_983575-2" data-name="Group 983575" transform="translate(0 0)">
                      <g id="Group_983574-2" data-name="Group 983574" clip-path="url(#clip-path-27)">
                        <path id="Path_210050-2" data-name="Path 210050" d="M43.692,5.077c-.093.3-.189.6-.293.9a27.672,27.672,0,0,0-2.671-1.4,28.654,28.654,0,0,0-37.991,14.1q-.609,1.329-1.075,2.687Q.806,20.865,0,20.307A28.665,28.665,0,0,1,39.357,2.614a28.471,28.471,0,0,1,4.335,2.462" transform="translate(0 0)" fill="#fff"/>
                      </g>
                    </g>
                  </g>
                  <path id="Path_210051-2" data-name="Path 210051" d="M17.315,27.531a29.56,29.56,0,0,1-12.35-2.7,29.825,29.825,0,0,1-4.5-2.553,1.08,1.08,0,0,1-.421-1.2A29.744,29.744,0,0,1,45.388,5.263a1.081,1.081,0,0,1,.418,1.2A30,30,0,0,1,44.39,10.19,29.779,29.779,0,0,1,17.315,27.531M2.359,20.937A27.833,27.833,0,0,0,5.866,22.86,27.606,27.606,0,0,0,42.424,9.289,27.986,27.986,0,0,0,43.494,6.6,27.582,27.582,0,0,0,2.359,20.937m41.048-11.2h0Z" transform="translate(80.183 19.982)"/>
                  <path id="Path_210052-2" data-name="Path 210052" d="M34.676,17.384c-12.5,0-24.022-5.2-34.359-15.539A1.081,1.081,0,1,1,1.846.317c12.647,12.648,27.11,17.276,42.988,13.754a1.081,1.081,0,0,1,.468,2.111,48.989,48.989,0,0,1-10.626,1.2" transform="translate(52.239 39.364)"/>
                  <path id="Path_210053-2" data-name="Path 210053" d="M.7,12.018,9.234,8.825c2.848-1.053,5.678-2.156,8.509-3.252s5.713-2.061,8.6-3S32.154.763,35.113.009A.272.272,0,0,1,35.3.515c-2.728,1.373-5.505,2.616-8.3,3.817s-5.6,2.36-8.459,3.387-5.715,2.057-8.554,3.132L1.46,14.043A1.081,1.081,0,1,1,.7,12.018" transform="translate(80.182 28.334)"/>
                  <path id="Path_210054-2" data-name="Path 210054" d="M1.512.087l8,3.406a.271.271,0,0,1-.165.515L.854,2.147A1.086,1.086,0,0,1,1.319.025a1.176,1.176,0,0,1,.193.062" transform="translate(102.41 31.965)"/>
                  <path id="Path_210055-2" data-name="Path 210055" d="M7.209.417,2,8.577A1.085,1.085,0,0,1,.171,7.409a1.162,1.162,0,0,1,.11-.145L6.779.089a.271.271,0,0,1,.43.328" transform="translate(91.747 29.093)"/>
                  <g id="Group_983579-2" data-name="Group 983579" transform="translate(22.841 104.106)" opacity="0.19">
                    <g id="Group_983578-2" data-name="Group 983578" transform="translate(0 0)">
                      <g id="Group_983577-2" data-name="Group 983577" clip-path="url(#clip-path-28)">
                        <path id="Path_210056-2" data-name="Path 210056" d="M10.532,9.329a5.843,5.843,0,1,1-1.2-8.175,5.842,5.842,0,0,1,1.2,8.175" transform="translate(0 0)" fill="#fff"/>
                      </g>
                    </g>
                  </g>
                  <g id="Group_983582-2" data-name="Group 983582" transform="translate(12.815 59.6)" opacity="0.19">
                    <g id="Group_983581-2" data-name="Group 983581" transform="translate(0 0)">
                      <g id="Group_983580-2" data-name="Group 983580" clip-path="url(#clip-path-29)">
                        <path id="Path_210057-2" data-name="Path 210057" d="M4.871,2.533C-.9,13.217-1.547,24.2,2.959,34.6a6.282,6.282,0,0,0,11.6-4.824,34.289,34.289,0,0,1-.885-23.447,4.81,4.81,0,0,0-8.8-3.8" transform="translate(0 0)" fill="#fff"/>
                      </g>
                    </g>
                  </g>
                  <g id="Group_983585-2" data-name="Group 983585" transform="translate(112.597 43.938)" opacity="0.3">
                    <g id="Group_983584-2" data-name="Group 983584" transform="translate(0 0)">
                      <g id="Group_983583-2" data-name="Group 983583" clip-path="url(#clip-path-30)">
                        <path id="Path_210058-2" data-name="Path 210058" d="M0,0Q1.3.753,2.523,1.568,1.3.758,0,0" transform="translate(0 0)"/>
                      </g>
                    </g>
                  </g>
                  <g id="Group_983588-2" data-name="Group 983588" transform="translate(116.584 78.531)" opacity="0.3">
                    <g id="Group_983587-2" data-name="Group 983587" transform="translate(0 0)">
                      <g id="Group_983586-2" data-name="Group 983586" clip-path="url(#clip-path-31)">
                        <path id="Path_210059-2" data-name="Path 210059" d="M0,.241C.02.162.039.079.058,0,.039.079.022.159,0,.238Z" transform="translate(0 0)"/>
                      </g>
                    </g>
                  </g>
                  <g id="Group_983591-2" data-name="Group 983591" transform="translate(122.304 51.291)" opacity="0.3">
                    <g id="Group_983590-2" data-name="Group 983590" transform="translate(0 0)">
                      <g id="Group_983589-2" data-name="Group 983589" clip-path="url(#clip-path-32)">
                        <path id="Path_210060-2" data-name="Path 210060" d="M0,0C.326.321.647.647.957.976Q.488.483,0,0" transform="translate(0 0)"/>
                      </g>
                    </g>
                  </g>
                  <g id="Group_983594-2" data-name="Group 983594" transform="translate(132.129 67.917)" opacity="0.3">
                    <g id="Group_983593-2" data-name="Group 983593" transform="translate(0 0)">
                      <g id="Group_983592-2" data-name="Group 983592" clip-path="url(#clip-path-33)">
                        <path id="Path_210061-2" data-name="Path 210061" d="M.03.11h0A.7.7,0,0,0,0,0C.011.036.022.074.03.11" transform="translate(0 0)"/>
                      </g>
                    </g>
                  </g>
                  <g id="Group_983597-2" data-name="Group 983597" transform="translate(82.517 26.286)" opacity="0.3">
                    <g id="Group_983596-2" data-name="Group 983596" transform="translate(0 0)">
                      <g id="Group_983595-2" data-name="Group 983595" clip-path="url(#clip-path-34)">
                        <path id="Path_210062-2" data-name="Path 210062" d="M0,15.079C10.449,3.4,22.527-2.243,36.952.826Z" transform="translate(0 0)"/>
                      </g>
                    </g>
                  </g>
                  <g id="Group_983600-2" data-name="Group 983600" transform="translate(49.453 52.266)" opacity="0.25">
                    <g id="Group_983599-2" data-name="Group 983599" transform="translate(0 0)">
                      <g id="Group_983598-2" data-name="Group 983598" clip-path="url(#clip-path-35)">
                        <path id="Path_210063-2" data-name="Path 210063" d="M43.568,14.706c-1.351,4.4-12.169,4.972-24.161,1.286S-1.212,5.752.139,1.356,9.861,4.345,21.853,8.031s23.066,2.279,21.714,6.675" transform="translate(0 0)" fill="#fff"/>
                      </g>
                    </g>
                  </g>
                </g>
              </g>
            </g>
          </g>
        </g>
      </g>
    </g>
  </g>
</svg>
