<svg xmlns="http://www.w3.org/2000/svg" xmlns:xlink="http://www.w3.org/1999/xlink" width="315.591" height="225.575" viewBox="0 0 315.591 225.575">
  <defs>
    <clipPath id="clip-path">
      <path id="Path_189400" data-name="Path 189400" d="M10.213,25.908H310.024c4.358,0,7.89,3.884,7.89,8.676V242.807c0,4.792-3.532,8.676-7.89,8.676H10.213c-4.358,0-7.89-3.884-7.89-8.676V34.584c0-4.792,3.532-8.676,7.89-8.676" transform="translate(-2.323 -46.349)" fill="#a6bbff"/>
    </clipPath>
    <clipPath id="clip-path-2">
      <rect id="Rectangle_338747" data-name="Rectangle 338747" width="355.809" height="314.106" fill="none"/>
    </clipPath>
  </defs>
  <g id="Group_983557" data-name="Group 983557" transform="translate(-1.578 0)">
    <g id="Group_176387" data-name="Group 176387">
      <path id="Path_189401" data-name="Path 189401" d="M10.213,25.908H310.024a7.89,7.89,0,0,1,7.89,7.89V223.152a7.89,7.89,0,0,1-7.89,7.89H10.213a7.89,7.89,0,0,1-7.89-7.89V33.8a7.89,7.89,0,0,1,7.89-7.89" transform="translate(-0.745 -5.467)" fill="#6b8dfc"/>
      <g id="Mask_Group_335" data-name="Mask Group 335" transform="translate(1.579 20.441)" clip-path="url(#clip-path)">
        <g id="Group_176397" data-name="Group 176397" transform="translate(-109.949 30.219) rotate(-6)">
          <g id="Group_176396" data-name="Group 176396" transform="translate(0 0)">
            <g id="Group_176395" data-name="Group 176395">
              <path id="Path_189395" data-name="Path 189395" d="M413.919,210.61c-31.181,31.369-63.309,61.678-96.008,91.5,14.94-30.829,30.924-61.235,45.191-92.351,16.172-35.282,35.279-83.244,18.479-118.763-38.3-80.96-148.128,4.976-189.076,48.39-4.366,4.622-8.543,9.436-12.774,14.2,15.466-34.277,29.586-69.42,27.9-105.642-2.323-49.8-48.351-59.746-89.48-34.746C73.981,40.047,37.476,84.737,6.845,125.213c-26.013,34.377,28.681,63.6,54.48,29.708a496.388,496.388,0,0,1,45.96-52.268q-3.765,6.435-7.6,12.856c-16.921,28.276-33.655,56.653-47.736,86.245C24.984,258.428-14.652,336.979,13.516,394.1c14.2,28.783,50.443,30.172,78.38,16.972,37.547-17.742,64.647-54.449,90.586-85.647,27.076-32.575,51.173-66.959,76.4-100.815,10.547-14.148,21.09-28.49,33.018-41.6.273-.3.564-.578.837-.883l-.325.9c-7.175,19.59-16.124,38.48-25.167,57.422-16.837,35.238-38.177,72.494-45.461,110.359-6.444,33.478,5.571,70.15,46.312,65.944,38.3-3.952,70.532-41.525,97.153-66.839,32.243-30.661,63.955-61.883,95.671-93.069C494.036,224.287,446.666,177.67,413.919,210.61Z" transform="translate(6.263 6.116)" fill="#3c3fa7"/>
              <path id="Path_189396" data-name="Path 189396" d="M270.443,429.227c-14.991.661-27.478-3.953-36.291-13.469-12.249-13.228-16.8-35.452-12.187-59.455,6.012-31.281,21.117-61.66,35.727-91.039,3.492-7.035,6.955-14,10.249-20.881,3.117-6.532,6.4-13.393,9.663-20.485-1.919,2.555-3.819,5.109-5.7,7.637l-1.867,2.5c-6.555,8.794-13.032,17.628-19.509,26.449-18.167,24.778-36.959,50.4-57.13,74.656q-4.419,5.324-8.9,10.821c-23.149,28.258-49.385,60.291-84.072,76.684-30.93,14.6-70.48,12.63-86.263-19.387-28.367-57.507,8.5-134.749,35.423-191.153l3.062-6.408c7.922-16.66,16.7-32.969,25.955-49.225q-3.134,3.943-6.177,7.932C56.48,185.364,30.152,186.221,13.9,174.94.466,165.61-6.5,147.471,8.258,127.973,40.952,84.765,77.3,41.074,121.506,14.2c24.541-14.905,50.81-18.309,70.309-9.1,17.163,8.107,27.2,25.2,28.273,48.142,1.254,26.908-5.831,53.035-15.531,78.078,33.173-31.98,93.918-77.946,140.8-73.455C366.9,59.936,383.1,72.143,393.5,94.14c17.111,36.174.235,82.888-18.526,123.82-8.932,19.479-18.666,38.957-28.082,57.788l-3.333,6.663c26.612-24.712,50.458-47.7,72.384-69.75h0c10.84-10.912,24.189-15.327,37.552-12.467a40.06,40.06,0,0,1,30.179,29.459c3.107,13.278-1.264,26.569-12.313,37.429l-3.607,3.548c-30.029,29.529-61.08,60.059-92.141,89.6-3.828,3.643-7.766,7.534-11.833,11.546-24.151,23.849-54.212,53.538-89.322,57.162C273.1,429.073,271.768,429.169,270.443,429.227Zm28.79-246.82a5.558,5.558,0,0,1,2.961.66,5.442,5.442,0,0,1,2.619,6.79l-.331.9c-7.52,20.536-17.021,40.436-25.4,57.986-3.321,6.948-6.819,13.977-10.344,21.075-14.216,28.588-28.914,58.147-34.6,87.71-3.86,20.077-.218,39.074,9.508,49.578,7.2,7.78,17.5,11,30.614,9.692,30.4-3.142,57.361-29.761,81.144-53.254,4.125-4.076,8.134-8.031,12.02-11.724,30.977-29.456,61.989-59.947,91.98-89.438l3.6-3.548c9.768-9.6,10.06-19.146,8.582-25.468a29.251,29.251,0,0,0-21.735-21.235c-6.329-1.364-15.871-.955-25.423,8.659h0c-28.326,28.487-59.81,58.494-96.26,91.738a6.367,6.367,0,0,1-7.817.807,5.7,5.7,0,0,1-1.723-7.328c5.645-11.656,11.442-23.246,17.234-34.842,9.368-18.732,19.048-38.1,27.891-57.384,17.576-38.337,33.516-81.828,18.431-113.711-8.773-18.54-21.564-28.373-39.1-30.063C299.37,65.822,235.42,115.2,203.128,149.431c-3.439,3.65-6.766,7.423-10.1,11.189l-2.526,2.861a6.472,6.472,0,0,1-7.974,1.562,5.672,5.672,0,0,1-2.165-7.394C195.1,125.006,209.349,90.168,207.7,54.875c-.883-18.918-8.5-32.3-22.035-38.689-15.79-7.45-37.6-4.365-58.35,8.244-42.2,25.649-77.5,68.151-109.357,110.257-10.07,13.305-4.708,24.257,3.665,30.069,11.34,7.871,29.6,8.051,41.118-7.088a504.2,504.2,0,0,1,46.611-53,6.376,6.376,0,0,1,8.113-.942,5.77,5.77,0,0,1,1.384,7.726q-3.785,6.473-7.636,12.912c-17.135,28.632-33.652,56.732-47.433,85.684l-3.063,6.426C34.894,270.583-.476,344.693,25.4,397.163c12.571,25.5,44.978,26.61,70.491,14.564,31.84-15.039,55.931-44.458,79.225-72.9q4.521-5.52,8.967-10.9c19.9-23.936,38.563-49.38,56.617-73.989q9.735-13.278,19.562-26.537l1.867-2.5c9.9-13.292,20.128-27.036,31.582-39.624l.584-.616A7.464,7.464,0,0,1,299.232,182.407Zm120.949,34.32.062,0Z"/>
            </g>
            <path id="Path_189397" data-name="Path 189397" d="M29.99,3.316C5.149,49.457-10.089,102.931,7.775,150.564c2.645,7.038,14.767,3.376,12.09-3.77C3.088,102.07,17.044,52.394,40.408,9,44.257,1.836,33.859-3.875,29.99,3.316Z" transform="translate(26.649 235.341)"/>
            <path id="Path_189398" data-name="Path 189398" d="M17.828,32.446c-.1-.007-.2-.034-.3-.047-.158-.328-.3-.674-.355-.769l-.023-.036c-.01-.048.007-.019-.008-.091-.677-2.684-1.129-5.42-1.606-8.161Q13.86,13.789,12.2,4.235C11.654,1.144,7.866-.794,4.764.316A6.847,6.847,0,0,0,.105,8L3.884,29.612c1.054,6,2.809,13.851,10.124,14.739,3.16.378,6.861-1.124,7.807-4.6C22.628,36.779,21.215,32.857,17.828,32.446Z" transform="translate(51.85 334.048)"/>
            <path id="Path_189399" data-name="Path 189399" d="M24.429.648c-6.863-3.384-13.6,7.414-6.72,10.8C27.2,16.131,29.7,26.4,29.629,36.594,29.555,48.174,27.7,60.163,25.27,71.671A248.814,248.814,0,0,1,.843,138.1c-3.856,7.16,6.549,12.87,10.418,5.679A261.041,261.041,0,0,0,38.755,65.6C42.656,43.5,47.551,12.04,24.429.648Z" transform="translate(329.526 93.782)"/>
          </g>
        </g>
        <g id="Group_983608" data-name="Group 983608" transform="translate(-24.31 -20.44)">
          <g id="Group_983608-2" data-name="Group 983608" clip-path="url(#clip-path-2)">
            <path id="Path_210064" data-name="Path 210064" d="M238.365,40.088c1.6-4.026.02-8.4-3.53-9.757s-7.721.8-9.32,4.825-.02,8.4,3.53,9.757,7.721-.8,9.32-4.825" transform="translate(50.729 6.75)" fill="#ed8666"/>
            <path id="Path_210065" data-name="Path 210065" d="M226.844,39.129a.684.684,0,0,1-.4-1.238l6.872-5.008a.685.685,0,0,1,.808,1.107L227.247,39a.685.685,0,0,1-.4.131" transform="translate(51.015 7.388)"/>
            <path id="Path_210066" data-name="Path 210066" d="M231.448,40.167a.681.681,0,0,1-.469-.186l-2.715-2.553a.685.685,0,1,1,.939-1l2.715,2.554a.684.684,0,0,1-.469,1.183" transform="translate(51.441 8.176)"/>
            <path id="Path_210067" data-name="Path 210067" d="M195.931,53.724l1.833,25.98,19.286-3.347,1.036-24.067Z" transform="translate(44.196 11.795)" fill="#ed8666"/>
            <path id="Path_210068" data-name="Path 210068" d="M218.086,52.29l-22.155,1.434.947,13.427,20.907-7.871Z" transform="translate(44.196 11.795)"/>
            <path id="Path_210069" data-name="Path 210069" d="M218.738,9.346c0,5.162-4.837,9.346-10.8,9.346s-10.8-4.184-10.8-9.346S201.966,0,207.934,0s10.8,4.184,10.8,9.346" transform="translate(44.467)" fill="#fea41a"/>
            <path id="Path_210070" data-name="Path 210070" d="M206.8,11.975c1.275,6.249-4.489,12.7-12.873,14.411s-16.213-1.971-17.488-8.22,4.489-12.7,12.872-14.411,16.214,1.971,17.489,8.22" transform="translate(39.76 0.753)" fill="#fea41a"/>
            <path id="Path_210071" data-name="Path 210071" d="M234.084,14.316c1.275,6.249-4.489,12.7-12.873,14.411S205,26.757,203.723,20.508s4.489-12.7,12.872-14.411,16.214,1.971,17.489,8.22" transform="translate(45.914 1.281)" fill="#fea41a"/>
            <path id="Path_210072" data-name="Path 210072" d="M238.992,24.069c1.275,6.249-3.3,12.459-10.22,13.87s-13.56-2.511-14.834-8.76,3.3-12.459,10.22-13.871,13.56,2.512,14.834,8.762" transform="translate(48.21 3.388)" fill="#fea41a"/>
            <path id="Path_210073" data-name="Path 210073" d="M198.981,22.923c1.275,6.249-3.3,12.459-10.22,13.87s-13.56-2.511-14.834-8.76,3.3-12.459,10.22-13.871,13.56,2.512,14.834,8.762" transform="translate(39.185 3.13)" fill="#fea41a"/>
            <path id="Path_210074" data-name="Path 210074" d="M178.822,38.35a30.724,30.724,0,1,1,30.724,30.724A30.724,30.724,0,0,1,178.822,38.35" transform="translate(40.337 1.72)" fill="#ed8666"/>
            <path id="Path_210075" data-name="Path 210075" d="M206.34,49.166a12.433,12.433,0,0,1-1.934-.153.685.685,0,0,1-.571-.782.693.693,0,0,1,.782-.571c7.733,1.206,11.6-6.022,11.64-6.1a.684.684,0,1,1,1.211.636c-.038.076-3.747,6.966-11.128,6.966" transform="translate(45.977 9.293)"/>
            <path id="Path_210076" data-name="Path 210076" d="M212.206,39.774a.683.683,0,0,1-.668-.54l-1.173-5.494-3.722,5.649a.685.685,0,0,1-1.145-.753l4.623-7.015a.686.686,0,0,1,1.242.235l1.514,7.092a.683.683,0,0,1-.526.811.644.644,0,0,1-.145.015" transform="translate(46.329 7.064)"/>
            <path id="Path_210077" data-name="Path 210077" d="M213.419,36.9s6.5-16.5,16.745-7.336c0,0-3.278,12.994-16.745,7.336" transform="translate(48.141 6.044)" fill="#fff"/>
            <path id="Path_210078" data-name="Path 210078" d="M206.441,34.507s-9.567-14.157-22.091-5.157c0,0,8.318,16.354,22.091,5.157" transform="translate(41.584 5.945)" fill="#fff"/>
            <path id="Path_210079" data-name="Path 210079" d="M192.622,23.856c-.3-.971,1.9-2.509,4.911-3.434s5.694-.889,5.992.083-1.9,2.509-4.911,3.434-5.693.887-5.992-.083" transform="translate(43.444 4.455)"/>
            <path id="Path_210080" data-name="Path 210080" d="M214.491,24.456c-.3-.971,1.9-2.509,4.91-3.434s5.7-.889,5.993.083-1.9,2.509-4.912,3.434-5.693.887-5.991-.083" transform="translate(48.377 4.591)"/>
            <path id="Path_210081" data-name="Path 210081" d="M230.34,64.092l2.08,7.411,21.055,61.526L242.728,247.666l-84.925,4,38.74-167.484-1.652-12.9Z" transform="translate(35.596 14.457)"/>
            <path id="Path_210082" data-name="Path 210082" d="M173.2,233.333l-10.958-2.525a25.073,25.073,0,0,1-17.4-34.354L189.027,93.907a22.677,22.677,0,0,1,14.04-12.665l1.021-.321Z" transform="translate(32.209 18.253)"/>
            <path id="Path_210083" data-name="Path 210083" d="M263.6,188.281,209,99.023a18.159,18.159,0,0,1,7.709-25.884h0a18.162,18.162,0,0,1,23.1,6.65l66,103.574a22.026,22.026,0,0,1-9.7,32l-53.37,23.5-9.062-34.349Z" transform="translate(46.542 16.102)"/>
            <path id="Path_210084" data-name="Path 210084" d="M168.892,266.339a.615.615,0,0,1-.613-.613l-.044-53.821a.612.612,0,0,1,.594-.613l67.405-1.916a.64.64,0,0,1,.61.455l14.791,55.353a.613.613,0,0,1-.591.771l-82.151.384Zm.569-53.838.044,52.61,80.742-.378-14.46-54.118Z" transform="translate(37.949 47.229)"/>
            <path id="Path_210085" data-name="Path 210085" d="M193.448,266.238a.611.611,0,0,1-.6-.5l-10.41-53.271a.612.612,0,1,1,1.2-.235l10.41,53.271a.61.61,0,0,1-.483.718.57.57,0,0,1-.119.012" transform="translate(41.15 47.763)"/>
            <path id="Path_210086" data-name="Path 210086" d="M220.682,182.879l12.478-.744a3.8,3.8,0,0,1,3.892,3.843,3.927,3.927,0,0,1-3.814,4.172l-12.487-.207a3.4,3.4,0,0,1-3.2-3.651,3.464,3.464,0,0,1,3.13-3.413" transform="translate(49.073 41.083)" fill="#ed8666"/>
            <path id="Path_210087" data-name="Path 210087" d="M220.1,196.025l14.938.027a3.572,3.572,0,0,0,3.4-2.963l.075-.355a3.616,3.616,0,0,0-3.368-4.528l-15.013.328a3.644,3.644,0,0,0-3.4,3.559,3.565,3.565,0,0,0,3.373,3.933" transform="translate(48.885 42.453)" fill="#ed8666"/>
            <path id="Path_210088" data-name="Path 210088" d="M219.608,197.526h0a3.134,3.134,0,0,1,2.97-2.912l9.938-.373a3.257,3.257,0,0,1,3.283,2.805l.129.827a3.165,3.165,0,0,1-3.194,3.733l-10.066-.453a3.3,3.3,0,0,1-3.06-3.628" transform="translate(49.534 43.815)" fill="#ed8666"/>
            <path id="Path_210089" data-name="Path 210089" d="M221.427,202.124h0a2.694,2.694,0,0,1,2.454-2.146l8.208-.138a2.46,2.46,0,0,1,2.362,2.673l-.02.95a2.745,2.745,0,0,1-2.8,2.832l-8.188-.81a2.594,2.594,0,0,1-2.017-3.361" transform="translate(49.926 45.078)" fill="#ed8666"/>
            <path id="Path_210090" data-name="Path 210090" d="M221.242,188.859a2.725,2.725,0,0,0,2.878-2.614,2.84,2.84,0,0,0-2.965-2.618,2.723,2.723,0,0,0-2.878,2.614,2.841,2.841,0,0,0,2.965,2.618" transform="translate(49.237 41.421)" fill="#ffd4de"/>
            <path id="Path_210091" data-name="Path 210091" d="M220.646,194.579a2.725,2.725,0,0,0,2.878-2.614,2.84,2.84,0,0,0-2.965-2.618,2.723,2.723,0,0,0-2.878,2.614,2.841,2.841,0,0,0,2.965,2.618" transform="translate(49.102 42.711)" fill="#ffd4de"/>
            <path id="Path_210092" data-name="Path 210092" d="M222.87,199.632a2.325,2.325,0,0,0,2.539-2.1,2.424,2.424,0,0,0-2.609-2.1,2.325,2.325,0,0,0-2.539,2.1,2.424,2.424,0,0,0,2.609,2.1" transform="translate(49.684 44.084)" fill="#ffd4de"/>
            <path id="Path_210093" data-name="Path 210093" d="M223.819,204.4a1.779,1.779,0,0,0,1.852-1.745,1.856,1.856,0,0,0-1.911-1.748,1.779,1.779,0,0,0-1.851,1.745,1.855,1.855,0,0,0,1.909,1.748" transform="translate(50.056 45.32)" fill="#ffd4de"/>
            <path id="Path_210094" data-name="Path 210094" d="M219.628,189.145a.417.417,0,0,1-.409-.375.384.384,0,0,1,.412-.373l13.217.063a5.119,5.119,0,0,0,2.026-.439.465.465,0,0,1,.587.12.344.344,0,0,1-.116.516,5.94,5.94,0,0,1-2.478.55l-13.21-.061h-.027" transform="translate(49.449 42.399)"/>
            <path id="Path_210095" data-name="Path 210095" d="M221.614,195.185a.415.415,0,0,1-.409-.382.386.386,0,0,1,.419-.365l7.9.165c.581.012,3.74-.077,4.544-.158a.434.434,0,0,1,.482.33.372.372,0,0,1-.357.414c-.853.086-4.049.174-4.661.163l-7.9-.165h-.018" transform="translate(49.897 43.859)"/>
            <path id="Path_210096" data-name="Path 210096" d="M223.363,200.522a.414.414,0,0,1-.409-.386.387.387,0,0,1,.424-.362c.105,0,2.58.081,3.341.135.8.058,5.619.194,6.412.114a.433.433,0,0,1,.48.33.37.37,0,0,1-.357.414c-.877.088-5.81-.058-6.576-.112-.739-.054-3.276-.132-3.3-.132h-.013" transform="translate(50.292 45.063)"/>
            <path id="Path_210097" data-name="Path 210097" d="M223.745,12.737c0,5.162-4.837,9.346-10.8,9.346s-10.8-4.184-10.8-9.346,4.837-9.346,10.8-9.346,10.8,4.184,10.8,9.346" transform="translate(45.596 0.765)" fill="#fea41a"/>
            <path id="Path_210098" data-name="Path 210098" d="M189.818,26.677c-1.7,6.475-7.763,10.493-13.534,8.975s-.425-4.513,1.278-10.988-.88-13.979,4.891-12.46,9.068,8,7.364,14.474" transform="translate(39.175 2.708)" fill="#fea41a"/>
            <path id="Path_210099" data-name="Path 210099" d="M209.252,7.794c1.663,4.886-2.984,10.888-10.379,13.405s-14.737.6-16.4-4.291,7.755-6.2,15.15-8.714,9.966-5.287,11.629-.4" transform="translate(41.117 1.15)" fill="#fea41a"/>
            <path id="Path_210100" data-name="Path 210100" d="M237.77,142.308a.614.614,0,0,1-.523-.293l-20.337-33.246a.613.613,0,0,1,1.047-.64l20.337,33.246a.616.616,0,0,1-.2.843.605.605,0,0,1-.32.089" transform="translate(48.908 24.325)" fill="#fff"/>
            <path id="Path_210101" data-name="Path 210101" d="M253.173,169.128a.613.613,0,0,1-.3-1.145l15.538-8.89a.612.612,0,0,1,.608,1.063l-15.538,8.892a.6.6,0,0,1-.3.081" transform="translate(56.97 35.868)" fill="#fff"/>
            <path id="Path_210102" data-name="Path 210102" d="M255.022,164.607a.623.623,0,0,1-.311-.085.614.614,0,0,1-.217-.84l6.2-10.544a.613.613,0,0,1,1.055.623l-6.2,10.544a.612.612,0,0,1-.528.3" transform="translate(57.387 34.476)" fill="#fff"/>
            <path id="Path_210103" data-name="Path 210103" d="M160.643,229.881a.6.6,0,0,1-.138-.016.612.612,0,0,1-.458-.735l32.19-138.567a.613.613,0,0,1,1.195.277L161.24,229.406a.612.612,0,0,1-.6.474" transform="translate(36.098 20.321)" fill="#fff"/>
            <path id="Path_210104" data-name="Path 210104" d="M168.8,179.786l-10.367-1.943c-1.724-.322-3.4,1.511-3.72,4.074-.33,2.635.9,4.976,2.7,5.122l10.488.852c1.539.125,2.944-1.637,3.114-3.912.158-2.109-.8-3.928-2.213-4.193" transform="translate(34.888 40.108)" fill="#ed8666"/>
            <path id="Path_210105" data-name="Path 210105" d="M168.082,194.972l-12.52-1.271c-1.359-.138-2.4-1.681-2.5-3.7l-.02-.414c-.13-2.755,1.515-5.154,3.363-4.9l12.541,1.685c1.506.2,2.566,2.118,2.427,4.384-.151,2.465-1.652,4.388-3.3,4.221" transform="translate(34.521 41.655)" fill="#ed8666"/>
            <path id="Path_210106" data-name="Path 210106" d="M167.472,196.65h0c.072-1.865-.838-3.4-2.14-3.6l-8.282-1.294c-1.342-.211-2.673,1.055-3.087,2.934l-.207.939c-.506,2.3.565,4.494,2.231,4.564l8.488.357c1.538.065,2.913-1.723,3-3.9" transform="translate(34.654 43.249)" fill="#ed8666"/>
            <path id="Path_210107" data-name="Path 210107" d="M164.881,201.734h0c-.112-1.451-.855-2.558-1.8-2.678l-6.861-.875c-1.12-.143-2.144,1.132-2.3,2.864l-.1,1.091c-.169,1.9.77,3.536,2.006,3.5l6.959-.217c1.253-.038,2.238-1.773,2.092-3.682" transform="translate(34.694 44.701)" fill="#ed8666"/>
            <path id="Path_210108" data-name="Path 210108" d="M165.481,186.394a2.74,2.74,0,0,1-2.1-3.251,2.827,2.827,0,0,1,2.8-2.748,2.739,2.739,0,0,1,2.1,3.251,2.827,2.827,0,0,1-2.8,2.748" transform="translate(36.849 40.689)" fill="#ffd4de"/>
            <path id="Path_210109" data-name="Path 210109" d="M165.3,193.014a2.74,2.74,0,0,1-2.1-3.251,2.827,2.827,0,0,1,2.8-2.748,2.739,2.739,0,0,1,2.1,3.251,2.827,2.827,0,0,1-2.8,2.748" transform="translate(36.807 42.183)" fill="#ffd4de"/>
            <path id="Path_210110" data-name="Path 210110" d="M162.71,198.616a2.271,2.271,0,0,1-1.878-2.63,2.345,2.345,0,0,1,2.438-2.185,2.27,2.27,0,0,1,1.878,2.63,2.344,2.344,0,0,1-2.438,2.185" transform="translate(36.275 43.713)" fill="#ffd4de"/>
            <path id="Path_210111" data-name="Path 210111" d="M161.122,204a1.811,1.811,0,0,1-1.343-2.164,1.869,1.869,0,0,1,1.809-1.841,1.811,1.811,0,0,1,1.343,2.166,1.869,1.869,0,0,1-1.809,1.84" transform="translate(36.038 45.111)" fill="#ffd4de"/>
            <path id="Path_210112" data-name="Path 210112" d="M168.36,187.071a.421.421,0,0,0,.387-.4.384.384,0,0,0-.3-.462l-11.082-1.082a3.347,3.347,0,0,1-1.645-.68.327.327,0,0,0-.506.088.482.482,0,0,0,.036.6,3.918,3.918,0,0,0,2.01.848l11.078,1.081h.022" transform="translate(34.992 41.587)"/>
            <path id="Path_210113" data-name="Path 210113" d="M165.517,193.783a.422.422,0,0,0,.388-.4.383.383,0,0,0-.308-.456l-6.635-.5c-.488-.038-3.125-.415-3.789-.58a.394.394,0,0,0-.442.337.408.408,0,0,0,.25.506c.7.173,3.372.555,3.885.594l6.635.5h.016" transform="translate(34.9 43.273)"/>
            <path id="Path_210114" data-name="Path 210114" d="M163.005,199.664a.422.422,0,0,0,.389-.408.38.38,0,0,0-.311-.451c-.088-.006-2.172-.132-2.815-.137-.678,0-4.732-.267-5.388-.428a.393.393,0,0,0-.442.336.41.41,0,0,0,.25.507c.724.178,4.875.44,5.524.445.626,0,2.761.135,2.783.136h.011" transform="translate(34.834 44.715)"/>
            <path id="Path_210115" data-name="Path 210115" d="M192.778,26.411a7.712,7.712,0,0,0,0,11.587c3.364.957,7.52.424,12.35-3.5,0,0-4.934-7.3-12.353-8.084" transform="translate(42.894 5.958)"/>
            <path id="Path_210116" data-name="Path 210116" d="M217.185,29.8a7.557,7.557,0,0,0,2.683,8.485c7.487-.626,9.535-8.719,9.535-8.719-5.125-4.585-9.312-2.748-12.218.234" transform="translate(48.902 6.044)"/>
            <path id="Path_210117" data-name="Path 210117" d="M171.514,35.23c-1.235-4.152.727-8.363,4.381-9.4s7.621,1.482,8.856,5.634-.727,8.363-4.381,9.4-7.621-1.48-8.856-5.634" transform="translate(38.605 5.773)" fill="#ed8666"/>
            <path id="Path_210118" data-name="Path 210118" d="M181.954,35.294a.68.68,0,0,1-.451-.169l-6.4-5.6a.684.684,0,1,1,.9-1.031l6.4,5.6a.685.685,0,0,1-.451,1.2" transform="translate(39.445 6.39)"/>
            <path id="Path_210119" data-name="Path 210119" d="M176.556,35.808a.683.683,0,0,1-.423-1.222l2.932-2.3a.683.683,0,1,1,.844,1.075l-2.93,2.3a.678.678,0,0,1-.423.147" transform="translate(39.671 7.249)"/>
            <path id="Path_210120" data-name="Path 210120" d="M149.442,140.165l23.879,142.41L55.027,282.47s-.972-48.4,13.97-94.406c13.5-41.566,19.493-51,19.493-51Z" transform="translate(12.41 30.918)" fill="#fd521b"/>
            <path id="Path_210121" data-name="Path 210121" d="M74.974,157.658h73.01l-3.046-17.717-37-1.881H83.308c-1.173,2.22-3.888,7.828-8.334,19.6" transform="translate(16.912 31.142)" fill="#ffa37b"/>
            <path id="Path_210122" data-name="Path 210122" d="M112.716,49.853,106.872,77.13l17.6.817,6.348-24.763Z" transform="translate(24.107 11.245)" fill="#ffa37b"/>
            <path id="Path_210123" data-name="Path 210123" d="M76.688,151.873l70.109.775-1.867-10.863L81.958,139.62c-1.136,2.341-2.878,6.209-5.27,12.253" transform="translate(17.299 31.494)"/>
            <path id="Path_210124" data-name="Path 210124" d="M130.381,53.893l-14.137-4.267L112.586,53.6l15.429,9.529Z" transform="translate(25.396 11.194)"/>
            <path id="Path_210125" data-name="Path 210125" d="M98.855,43.586c-5.283-18.045,3.9-36.229,20.5-40.612s34.353,6.69,39.636,24.737-2.118,35.7-18.726,40.081-36.131-6.161-41.414-24.206" transform="translate(21.962 0.455)" fill="#ffa37b"/>
            <path id="Path_210126" data-name="Path 210126" d="M114.042,7.824s-26.4-3.75-28.216,11.552c-1.581,13.3.7,69.695.7,69.695l17.8,1.292.7-61.7Z" transform="translate(19.234 1.673)" fill="#5774cd"/>
            <path id="Path_210127" data-name="Path 210127" d="M97.981,7.934c-3.937,5.374-4.63,20.5,1.6,22.8,7.325,2.7,6.76-18.255,9.062-23.2a51.363,51.363,0,0,0-10.659.407" transform="translate(21.42 1.674)" fill="#fea41a"/>
            <path id="Path_210128" data-name="Path 210128" d="M83.377,126.835l-4.455,39.2,102.465-2.673L191.9,190.186a21.351,21.351,0,0,0,36.12,6.065l61.769-72.386L265.142,97.134l-47.818,57.025-6.569-60.437a24.58,24.58,0,0,0-24-21.921L158.221,71.3l-26.433-1.188L90.117,68.784A26.784,26.784,0,0,0,67.343,80.17L4.3,169.99a23.622,23.622,0,0,0,13.785,36.532L74.982,220.6l6.329-33.023L33.48,177.325Z" transform="translate(0 15.513)" fill="#ffb6c8"/>
            <path id="Path_210129" data-name="Path 210129" d="M148.411,157.03a.564.564,0,0,1-.091-.007.611.611,0,0,1-.516-.695l7.719-51.887a.62.62,0,0,1,.695-.515.611.611,0,0,1,.516.7l-7.719,51.885a.612.612,0,0,1-.6.523" transform="translate(33.339 23.441)"/>
            <path id="Path_210130" data-name="Path 210130" d="M109.223,163.84a.549.549,0,0,1-.062,0,.611.611,0,0,1-.548-.67l9.21-92.681a.612.612,0,1,1,1.218.121l-9.21,92.683a.61.61,0,0,1-.608.551" transform="translate(24.499 15.775)"/>
            <path id="Path_210131" data-name="Path 210131" d="M67.061,118.969a.613.613,0,0,1-.412-1.066l9.434-8.577a.613.613,0,0,1,.824.908l-9.434,8.575a.611.611,0,0,1-.412.159" transform="translate(14.989 24.625)"/>
            <path id="Path_210132" data-name="Path 210132" d="M76.185,105.692a.613.613,0,0,1-.613-.613c0-16.719-9.423-29.089-9.52-29.213a.613.613,0,0,1,.969-.75c.1.125,9.776,12.811,9.776,29.963a.613.613,0,0,1-.613.613" transform="translate(14.87 16.89)"/>
            <path id="Path_210133" data-name="Path 210133" d="M119.887,72.233,110.1,62.449l-7.944,9.282,8.948,15.8Z" transform="translate(23.044 14.087)" fill="#ffb6c8"/>
            <path id="Path_210134" data-name="Path 210134" d="M125.185,64.428l8.53,7.693L126.69,86.5l-10.2-14.717Z" transform="translate(26.276 14.533)" fill="#ffb6c8"/>
            <path id="Path_210135" data-name="Path 210135" d="M149.029,26.613s-9.976-12.1-22.788-2.555c0,0,12.316,10.356,22.788,2.555" transform="translate(28.476 4.6)" fill="#fff"/>
            <path id="Path_210136" data-name="Path 210136" d="M147.337,29.637l9.149-2.979-9.477,11.889Z" transform="translate(33.161 6.013)" fill="#ffa37b"/>
            <path id="Path_210137" data-name="Path 210137" d="M145.11,42.5a16.943,16.943,0,0,0-15.024-4.12s7.271,8.5,12.332,7.268c3.592-.875,3.395-2.561,2.693-3.147" transform="translate(29.344 8.579)"/>
            <path id="Path_210138" data-name="Path 210138" d="M132.641,15.33c.227-.86,2.745-.944,5.628-.185s5.033,2.07,4.807,2.93-2.745.944-5.627.185-5.035-2.07-4.808-2.93" transform="translate(29.916 3.299)"/>
            <path id="Path_210139" data-name="Path 210139" d="M149.381,11.667C141.362,3.817,130.132.129,119.36,2.973c-16.608,4.384-25.787,22.566-20.5,40.612A36.945,36.945,0,0,0,108.5,59.663l4.388-12.015L111.956,32.3s24.076-7.735,17.01-25.681c0,0,11.2-1.95,20.416,5.044" transform="translate(21.962 0.455)" fill="#5774cd"/>
            <path id="Path_210140" data-name="Path 210140" d="M76.523,169.375,62.94,166.335a4.232,4.232,0,0,0-4.961,3.531,4.37,4.37,0,0,0,3.449,5.265l13.762,2a3.777,3.777,0,0,0,4.163-3.443,3.851,3.851,0,0,0-2.83-4.309" transform="translate(13.059 37.499)" fill="#ffa37b"/>
            <path id="Path_210141" data-name="Path 210141" d="M75.294,184.014l-16.424-2.63a3.98,3.98,0,0,1-3.21-3.863l-.018-.4a4.026,4.026,0,0,1,4.509-4.377l16.442,3.033a4.06,4.06,0,0,1,3.108,4.519,3.969,3.969,0,0,1-4.407,3.722" transform="translate(12.55 38.952)" fill="#ffa37b"/>
            <path id="Path_210142" data-name="Path 210142" d="M74.464,185.572h0a3.491,3.491,0,0,0-2.746-3.729l-10.855-2.179a3.627,3.627,0,0,0-4.109,2.5l-.288.886a3.522,3.522,0,0,0,2.843,4.672l11.145,1.294a3.678,3.678,0,0,0,4.01-3.443" transform="translate(12.695 40.512)" fill="#ffa37b"/>
            <path id="Path_210143" data-name="Path 210143" d="M70.964,190.226h0a3,3,0,0,0-2.316-2.8l-9-1.614a2.738,2.738,0,0,0-3.071,2.519l-.148,1.047A3.056,3.056,0,0,0,59,192.993l9.145.566a2.889,2.889,0,0,0,2.816-3.334" transform="translate(12.722 41.906)" fill="#ffa37b"/>
            <path id="Path_210144" data-name="Path 210144" d="M72.03,175.422a3.033,3.033,0,0,1-2.7-3.385,3.165,3.165,0,0,1,3.726-2.351,3.032,3.032,0,0,1,2.7,3.386,3.162,3.162,0,0,1-3.725,2.349" transform="translate(15.63 38.266)" fill="#ffd4de"/>
            <path id="Path_210145" data-name="Path 210145" d="M71.666,181.816a3.033,3.033,0,0,1-2.7-3.385,3.165,3.165,0,0,1,3.726-2.351,3.032,3.032,0,0,1,2.7,3.386,3.162,3.162,0,0,1-3.725,2.349" transform="translate(15.548 39.708)" fill="#ffd4de"/>
            <path id="Path_210146" data-name="Path 210146" d="M68.163,186.963a2.589,2.589,0,0,1-2.418-2.758,2.7,2.7,0,0,1,3.243-1.846,2.588,2.588,0,0,1,2.418,2.758,2.7,2.7,0,0,1-3.243,1.846" transform="translate(14.823 41.125)" fill="#ffd4de"/>
            <path id="Path_210147" data-name="Path 210147" d="M65.977,192.012a1.98,1.98,0,0,1-1.724-2.248,2.068,2.068,0,0,1,2.411-1.581,1.981,1.981,0,0,1,1.724,2.248,2.067,2.067,0,0,1-2.411,1.581" transform="translate(14.487 42.442)" fill="#ffd4de"/>
            <path id="Path_210148" data-name="Path 210148" d="M75.79,176.444a.464.464,0,0,0,.516-.34.429.429,0,0,0-.387-.483l-14.536-2.284a5.691,5.691,0,0,1-2.147-.843.519.519,0,0,0-.668.028.382.382,0,0,0,.037.587,6.605,6.605,0,0,0,2.625,1.047l14.532,2.284.029,0" transform="translate(13.184 38.885)"/>
            <path id="Path_210149" data-name="Path 210149" d="M71.932,182.629a.46.46,0,0,0,.517-.347.43.43,0,0,0-.395-.477l-8.706-1.223c-.642-.092-4.1-.751-4.968-.984a.484.484,0,0,0-.587.277.414.414,0,0,0,.319.518c.922.246,4.419.913,5.092,1.01l8.708,1.223.021,0" transform="translate(13.032 40.508)"/>
            <path id="Path_210150" data-name="Path 210150" d="M68.524,188.047a.46.46,0,0,0,.518-.352.43.43,0,0,0-.4-.472c-.115-.016-2.849-.371-3.7-.447-.891-.08-6.211-.787-7.069-1.016a.483.483,0,0,0-.587.276.415.415,0,0,0,.319.52c.949.252,6.4.971,7.248,1.048.822.072,3.625.439,3.653.442h.015" transform="translate(12.918 41.898)"/>
            <path id="Path_210151" data-name="Path 210151" d="M103.926,36.18c-1.422-4.779.836-9.623,5.042-10.821s8.768,1.7,10.189,6.483-.836,9.622-5.042,10.821-8.768-1.7-10.189-6.483" transform="translate(23.347 5.66)" fill="#ffa37b"/>
            <path id="Path_210152" data-name="Path 210152" d="M115.938,36.255a.781.781,0,0,1-.518-.195l-7.363-6.442a.788.788,0,0,1,1.037-1.186l7.363,6.443a.788.788,0,0,1-.518,1.38" transform="translate(24.314 6.369)"/>
            <path id="Path_210153" data-name="Path 210153" d="M109.728,36.845a.786.786,0,0,1-.487-1.406l3.373-2.651a.787.787,0,1,1,.972,1.239l-3.372,2.65a.779.779,0,0,1-.487.168" transform="translate(24.574 7.358)"/>
            <path id="Path_210154" data-name="Path 210154" d="M147.231,26.575a19.055,19.055,0,0,0-10.388-6.014,7.528,7.528,0,0,0-2.1,8.492,14.815,14.815,0,0,0,12.491-2.478" transform="translate(30.274 4.638)"/>
            <path id="Path_210155" data-name="Path 210155" d="M141.933,45.128c3.592-.875,3.395-2.561,2.693-3.147-.436-.365-1.044-.875-1.816-1.419a65.188,65.188,0,0,0-10.577-.02c2.577,2.373,6.562,5.351,9.7,4.586" transform="translate(29.828 9.098)" fill="#fd521b"/>
            <path id="Path_210156" data-name="Path 210156" d="M123.742,279.47a.612.612,0,0,1-.609-.56c-2.944-33.863-6.094-123.819-6.125-124.725a.613.613,0,0,1,.591-.634.63.63,0,0,1,.635.591c.031.9,3.18,90.831,6.12,124.663a.612.612,0,0,1-.558.663l-.054,0" transform="translate(26.393 34.637)"/>
            <path id="Path_210157" data-name="Path 210157" d="M71.714,164.248a.613.613,0,0,1-.009-1.226l77.144-1.076h.009a.613.613,0,0,1,.009,1.226l-77.144,1.076Z" transform="translate(16.038 36.53)"/>
            <path id="Path_210158" data-name="Path 210158" d="M112.673,163.3a3.714,3.714,0,1,1,3.713-3.715,3.718,3.718,0,0,1-3.713,3.715m0-6.2a2.489,2.489,0,1,0,2.488,2.488,2.491,2.491,0,0,0-2.488-2.488" transform="translate(24.578 35.161)"/>
            <path id="Path_210159" data-name="Path 210159" d="M111.22,86.554a.615.615,0,0,1-.534-.311l-8.947-15.8a.613.613,0,0,1,1.067-.6l8.412,14.86L119.3,70.338a.612.612,0,0,1,.5-.313.6.6,0,0,1,.532.264l9.606,13.859L136.509,70.7a.613.613,0,1,1,1.1.538l-7.024,14.383a.613.613,0,0,1-1.055.08l-9.644-13.913-8.133,14.449a.613.613,0,0,1-.533.313Z" transform="translate(22.931 15.682)"/>
            <path id="Path_210160" data-name="Path 210160" d="M221.018,103.27s7.3-8.763,12.31-11.653c3.875-2.237,13.516-3.664,16.914-5.853s10.905-4.824,13.547-4.316c5.079.976-.506-1.109.542,2.786.061.223-7.58,8.436-7.746,8.606-1.949,1.994,3.533-.245,7-.2,2.852.039,4.3,1.135,4.45,1.391,1.684,2.946-3.886,3.077-6.622,4.608-8.986,5.029-13.421,4.57-19.863,3.237-1.1-.228-10.072,12.741-10.072,12.741Z" transform="translate(49.855 18.358)" fill="#f7b386"/>
            <path id="Path_210161" data-name="Path 210161" d="M249.76,90.162c-.485-.482-2.811-4.473-2.811-4.473-.007.313,9.063-3.629,10.749-4.248,2.743-1.006,6.761-2.533,9.21-3.707a2.557,2.557,0,0,1,3.343,1.076,2.725,2.725,0,0,1-.887,3.585l-9.927,4.2Z" transform="translate(55.704 17.478)" fill="#f7b386"/>
            <path id="Path_210162" data-name="Path 210162" d="M251.3,88.762c1.635,1.9-.927,3.255-2.284,4.84-.762.89.158,3.315.862,4.021a2.034,2.034,0,0,0,2.913-.308,16.361,16.361,0,0,0,4.335-9.043c.369-3.085-.7-4.831-1.818-5.8-.942-.816-1.7-.017-3.034.268L247.9,84.411Z" transform="translate(55.919 18.523)" fill="#f7b386"/>
            <path id="Path_210163" data-name="Path 210163" d="M249.107,89.77a.393.393,0,0,1-.248-.7c1.384-1.11,7.741-3.565,8.01-3.669a.393.393,0,0,1,.282.733c-.065.025-6.513,2.514-7.8,3.549a.393.393,0,0,1-.245.086" transform="translate(56.103 19.258)"/>
            <path id="Path_210164" data-name="Path 210164" d="M248.88,92.161a.392.392,0,0,1-.065-.779l6.66-1.126a.386.386,0,0,1,.453.321.394.394,0,0,1-.322.452l-6.661,1.126a.292.292,0,0,1-.065.006" transform="translate(56.052 20.357)"/>
            <path id="Path_210165" data-name="Path 210165" d="M257.329,92.49c-1.509.624-2.4,1.973-2.014,3.031,2.248-.775,4.959-1.261,5.276-2.655a2.9,2.9,0,0,0-3.262-.376" transform="translate(57.571 20.793)" fill="#ffd4de"/>
            <path id="Path_210166" data-name="Path 210166" d="M221.862,96.491l-2.142,2.461,12.252,13.286,3.786-5.336Z" transform="translate(49.562 21.765)"/>
            <path id="Path_210167" data-name="Path 210167" d="M169.072,152.51a.613.613,0,0,1-.485-.987l10.253-13.342a.613.613,0,0,1,.972.748l-10.254,13.342a.609.609,0,0,1-.485.239" transform="translate(38 31.116)"/>
            <path id="Path_210168" data-name="Path 210168" d="M155.757,103.131a.6.6,0,0,1-.2-.036.613.613,0,0,1-.374-.782l8.577-24.228a.614.614,0,0,1,1.157.409l-8.577,24.228a.615.615,0,0,1-.578.408" transform="translate(34.996 17.522)"/>
          </g>
        </g>
      </g>
    </g>
  </g>
</svg>
