<svg xmlns="http://www.w3.org/2000/svg" width="117.346" height="155.724" viewBox="0 0 117.346 155.724">
  <g id="l4" transform="translate(-0.542 139.489) rotate(-74)">
    <g id="Group_81059" data-name="Group 81059" transform="translate(0 0)">
      <g id="Group_81053" data-name="Group 81053" transform="translate(1.964 0)" style="mix-blend-mode: overlay;isolation: isolate">
        <path id="Path_114995" data-name="Path 114995" d="M42.427,44.553l6.79-27.692L0,0Z" transform="translate(0.828 0.828)" fill="#3c384f"/>
        <path id="Path_114996" data-name="Path 114996" d="M.828,0a.828.828,0,0,0-.6,1.4L42.655,45.952a.828.828,0,0,0,1.4-.373l6.79-27.693a.828.828,0,0,0-.536-.98L1.1.045A.818.818,0,0,0,.828,0ZM42.811,43.714,3.762,2.709l45.3,15.518Z" transform="translate(0 0)" fill="#3c384f"/>
        <path id="Path_114997" data-name="Path 114997" d="M47.523,40.391,0,0,65.845,26.97Z" transform="translate(0.828 0.828)" fill="#3c384f"/>
        <path id="Path_114998" data-name="Path 114998" d="M.828,0A.828.828,0,0,0,.292,1.459L47.815,41.85a.829.829,0,0,0,1.026.037L67.162,28.466a.828.828,0,0,0-.176-1.434L1.142.062A.822.822,0,0,0,.828,0ZM48.389,40.165,5.328,3.566,64.99,28Z" transform="translate(0 0)" fill="#3c384f"/>
        <path id="Path_114999" data-name="Path 114999" d="M42.427,44.553,0,0,27.926,55.282Z" transform="translate(0.828 0.828)" fill="#3c384f"/>
        <path id="Path_115000" data-name="Path 115000" d="M.828,0A.828.828,0,0,0,.089,1.2L28.014,56.483a.829.829,0,0,0,1.232.292l14.5-10.729a.828.828,0,0,0,.107-1.236L1.428.257A.826.826,0,0,0,.828,0ZM29.05,54.86,4.1,5.46,42.008,45.273Z" transform="translate(0 0)" fill="#3c384f"/>
        <path id="Path_115001" data-name="Path 115001" d="M7.464,15.482Q3.977,8.265.11,1.244C-.4.31,1.025-.526,1.54.409Q5.407,7.428,8.894,14.645C9.356,15.6,7.928,16.441,7.464,15.482Z" transform="translate(17.972 29.622)" fill="#3c384f"/>
        <path id="Path_115002" data-name="Path 115002" d="M2.469,2.815a.843.843,0,0,1-.381.5.834.834,0,0,1-.638.084.817.817,0,0,1-.5-.381L.111,1.248A.886.886,0,0,1,.028.61a.843.843,0,0,1,.381-.5A.834.834,0,0,1,1.046.032a.814.814,0,0,1,.5.381l.844,1.765A.886.886,0,0,1,2.469,2.815Z" transform="translate(21.474 30.819)" fill="#3c384f"/>
        <path id="Path_115003" data-name="Path 115003" d="M16.5,8.653Q8.427,5.166.429,1.513C-.539,1.071.3-.357,1.265.083q8,3.653,16.069,7.14C18.31,7.645,17.467,9.072,16.5,8.653Z" transform="translate(37.62 18.854)" fill="#3c384f"/>
      </g>
      <g id="Group_81058" data-name="Group 81058" transform="translate(0 1.963)">
        <g id="Group_81057" data-name="Group 81057">
          <g id="Group_81054" data-name="Group 81054" transform="translate(0 0)">
            <path id="Path_115004" data-name="Path 115004" d="M42.427,44.553l6.79-27.692L0,0Z" transform="translate(0.828 0.828)" fill="#fff"/>
            <path id="Path_115005" data-name="Path 115005" d="M.828,0a.829.829,0,0,0-.6,1.4L42.655,45.952a.828.828,0,0,0,1.4-.373l6.79-27.692a.828.828,0,0,0-.536-.98L1.1.045A.841.841,0,0,0,.828,0ZM42.811,43.715,3.762,2.709l45.3,15.518Z" transform="translate(0)"/>
          </g>
          <g id="Group_81055" data-name="Group 81055" transform="translate(0 0)">
            <path id="Path_115006" data-name="Path 115006" d="M47.523,40.391,0,0,65.845,26.97Z" transform="translate(0.828 0.828)" fill="#fff"/>
            <path id="Path_115007" data-name="Path 115007" d="M.829,0A.828.828,0,0,0,.292,1.459L47.815,41.851a.829.829,0,0,0,1.025.036l18.322-13.42a.828.828,0,0,0-.176-1.434L1.142.062A.818.818,0,0,0,.829,0Zm47.56,40.165L5.328,3.566,64.991,28Z" transform="translate(0)"/>
          </g>
          <g id="Group_81056" data-name="Group 81056" transform="translate(0 0)">
            <path id="Path_115008" data-name="Path 115008" d="M42.427,44.553,0,0,27.926,55.282Z" transform="translate(0.828 0.828)" fill="#fff"/>
            <path id="Path_115009" data-name="Path 115009" d="M.828,0A.828.828,0,0,0,.089,1.2L28.014,56.483a.827.827,0,0,0,1.231.292l14.5-10.728a.829.829,0,0,0,.107-1.237L1.428.258A.827.827,0,0,0,.828,0ZM29.05,54.861,4.1,5.46,42.009,45.273Z"/>
          </g>
          <path id="Path_115010" data-name="Path 115010" d="M7.464,15.482Q3.978,8.267.11,1.244C-.4.31,1.025-.526,1.54.409Q5.407,7.428,8.894,14.645C9.355,15.6,7.928,16.442,7.464,15.482Z" transform="translate(17.972 29.622)"/>
          <path id="Path_115011" data-name="Path 115011" d="M2.469,2.815a.845.845,0,0,1-.381.494.836.836,0,0,1-.638.084.814.814,0,0,1-.494-.38Q.533,2.13.111,1.248A.886.886,0,0,1,.028.61a.845.845,0,0,1,.38-.5A.836.836,0,0,1,1.046.032a.818.818,0,0,1,.494.381l.845,1.765A.892.892,0,0,1,2.469,2.815Z" transform="translate(21.474 30.818)"/>
          <path id="Path_115012" data-name="Path 115012" d="M16.5,8.653Q8.428,5.166.43,1.513C-.539,1.07.3-.357,1.265.083q8,3.652,16.069,7.14C18.31,7.645,17.468,9.072,16.5,8.653Z" transform="translate(37.62 18.854)"/>
        </g>
      </g>
    </g>
    <g id="Group_81063" data-name="Group 81063" transform="translate(48.278 46.668)">
      <g id="Group_81060" data-name="Group 81060" transform="translate(0 0)">
        <path id="Path_115013" data-name="Path 115013" d="M.828,0A.829.829,0,0,0,.2,1.374,83.746,83.746,0,0,0,7.25,8.513.828.828,0,0,0,8.357,7.281a82.022,82.022,0,0,1-6.905-7A.828.828,0,0,0,.828,0Zm13.4,12.294a.828.828,0,0,0-.491,1.495c1.788,1.317,3.649,2.579,5.534,3.753a.828.828,0,0,0,.876-1.406c-1.848-1.151-3.675-2.389-5.429-3.68A.826.826,0,0,0,14.223,12.294Zm95.162,3.654a.821.821,0,0,0-.439.127q-.753.471-1.514.927a.828.828,0,0,0,.85,1.422q.776-.465,1.544-.946a.828.828,0,0,0-.441-1.529Zm-80.964,4.82a.828.828,0,0,0-.354,1.576c2.514,1.19,5.111,2.269,7.718,3.206a.828.828,0,1,0,.561-1.558c-2.558-.921-5.1-1.979-7.57-3.145A.818.818,0,0,0,28.422,20.769Zm72.127,0a.83.83,0,0,0-.351.079A84.341,84.341,0,0,1,91.065,24.5a.828.828,0,0,0,.524,1.572,86,86,0,0,0,9.312-3.721.829.829,0,0,0-.353-1.578ZM42.38,25.94a.828.828,0,0,0-.218,1.626,83.514,83.514,0,0,0,9.816,2.063.828.828,0,0,0,.242-1.639A81.991,81.991,0,0,1,42.6,25.97.8.8,0,0,0,42.38,25.94Zm42.589.365a.8.8,0,0,0-.2.025c-2.644.66-5.349,1.2-8.04,1.6a.828.828,0,0,0,.245,1.638c2.743-.411,5.5-.96,8.2-1.633a.828.828,0,0,0-.2-1.631ZM60.337,28.778a.828.828,0,0,0-.037,1.655c2.214.1,4.463.118,6.687.045a.828.828,0,1,0-.054-1.655c-2.182.071-4.386.056-6.557-.044Z"/>
      </g>
    </g>
  </g>
</svg>
