<svg xmlns="http://www.w3.org/2000/svg" xmlns:xlink="http://www.w3.org/1999/xlink" width="90" height="90" viewBox="0 0 90 90">
  <defs>
    <clipPath id="clip-path">
      <rect id="Rectangle_338655" data-name="Rectangle 338655" width="74.738" height="56.714" fill="none"/>
    </clipPath>
  </defs>
  <g id="_2" data-name="2" transform="translate(-228 -1106)">
    <rect id="Rectangle_338495" data-name="Rectangle 338495" width="90" height="90" rx="11" transform="translate(228 1106)" fill="#6b8dfc"/>
    <g id="Group_983361" data-name="Group 983361" transform="translate(236 1123)">
      <g id="Group_983360" data-name="Group 983360" clip-path="url(#clip-path)">
        <path id="Path_208531" data-name="Path 208531" d="M74.738,59.548a2.219,2.219,0,0,1-2.379,1.378c-1.992-.058-3.988.014-5.981-.033-.677-.016-.913.118-.891.854.06,1.943.024,3.89.019,5.835,0,1.545-.674,2.212-2.222,2.218q-2.115.009-4.231,0c-1.554-.006-2.224-.671-2.233-2.208,0-.827-.031-1.655.01-2.48.025-.5-.1-.662-.625-.652-1.847.035-3.7.008-5.544.017a1.208,1.208,0,0,1-1.391-.992c-.135-.788.14-1.2.906-1.342a7.378,7.378,0,0,1,1.309-.045c1.8,0,3.594-.012,5.391,0,1.592.013,2.3.73,2.319,2.328.01.753-.011,1.506.011,2.258.008.266.015.6.37.613a11.169,11.169,0,0,0,3.386-.107c.238-.239.181-.544.181-.83q.005-3.612,0-7.225c0-.863-.119-.987-.956-.988q-24.194,0-48.388,0c-.413,0-.826.025-1.24.031-.844.011-.927.086-.935.916-.014,1.484,0,2.967,0,4.451,0,.876,0,1.751,0,2.627,0,1.144.022,1.159,1.2,1.164.243,0,.487,0,.729.02.437-.032.875-.02,1.312-.019.457,0,.66-.212.665-.664.009-.778-.009-1.556.01-2.333A2.007,2.007,0,0,1,17.8,62.1q13.455-.023,26.91,0a2.833,2.833,0,0,1,.652.059c.721.169.967.565.834,1.332-.177.849-.787,1-1.536,1-8.61-.007-17.221.007-25.831-.025-.772,0-.988.2-.925.948a21.746,21.746,0,0,1,.011,2.406A1.833,1.833,0,0,1,15.907,69.8c-1.532.018-3.065.014-4.6,0a1.856,1.856,0,0,1-2.074-2.071c-.014-1.994-.028-3.989.01-5.983.012-.633-.108-.873-.815-.854-2.066.054-4.134.023-6.2.018C.654,60.9,0,60.257,0,58.705q0-6.238,0-12.476a1.889,1.889,0,0,1,2.137-2.152c.73,0,1.46-.023,2.189.008.4.017.5-.127.479-.5-.03-.509-.017-1.021,0-1.532A1.757,1.757,0,0,1,6.67,40.172c.711.022.773-.251.758-.83-.036-1.41-.027-2.821,0-4.231.007-.419-.124-.534-.534-.526-1.191.025-2.384.016-3.575.007A1.6,1.6,0,0,1,1.594,32.4q1.149-4.21,2.36-8.4A2.039,2.039,0,0,1,6.02,22.467q2.481-.02,4.962,0A2,2,0,0,1,13.034,24c.822,2.816,1.63,5.637,2.4,8.466a1.606,1.606,0,0,1-1.693,2.122c-1.216.014-2.433.017-3.648,0-.369-.006-.5.083-.5.477.022,1.532.019,3.065,0,4.6,0,.364.076.489.474.5,1.514.04,2.127.708,2.153,2.224.009.549-.248,1.3.116,1.59.346.277,1.069.053,1.62.112.609.066.869-.083.8-.763a15.417,15.417,0,0,1-.009-2.114,1.766,1.766,0,0,1,1.8-1.814c2.335-.028,4.67-.009,7-.015a1.128,1.128,0,0,1,1.2,1.027c.083.82-.344,1.321-1.26,1.387-.991.071-1.986.021-2.979.024-.654,0-1.308.018-1.961-.01-1.352.058-1.408-.248-1.4,1.464.008,1.6,0,3.2,0,4.807,0,1.342,0,1.342,1.314,1.3.238-.054.289-.226.288-.439,0-.268,0-.535,0-.8a3.362,3.362,0,0,1,3.506-3.552c1.774-.027,3.549-.006,5.324-.007,1.9,0,3.793.037,5.688-.01a3.462,3.462,0,0,1,3.732,3.718,3.378,3.378,0,0,0,.023.655c.039.344.264.432.563.432s.512-.117.547-.452c.027-.267.02-.534.023-.8a3.382,3.382,0,0,1,3.542-3.536c2.164-.024,4.328-.006,6.491-.006,1.556,0,3.112-.017,4.668.005a3.366,3.366,0,0,1,3.554,3.58q0,.292.007.584c0,.4.166.639.609.633.426-.006.529-.263.537-.619.012-.559.005-1.118.005-1.678,0-1.41,0-2.82,0-4.23,0-1-.042-1.036-1.019-1.037q-4.886-.006-9.773,0H29.648a5.118,5.118,0,0,1-1.163-.063,1.131,1.131,0,0,1-.981-1.349,1.19,1.19,0,0,1,1.35-1.033q14.561.014,29.121.01a1.837,1.837,0,0,1,2.019,2.046c.007.73.015,1.46-.005,2.189-.009.324.045.486.427.466.655-.034,1.477.226,1.926-.08.49-.334.134-1.208.17-1.844a1.86,1.86,0,0,1,2.012-2c.534,0,.633-.162.622-.654-.034-1.434-.039-2.871,0-4.305.015-.536-.161-.638-.654-.623-1.166.037-2.335.023-3.5.008a1.619,1.619,0,0,1-1.67-2.2q1.151-4.173,2.356-8.331a2.057,2.057,0,0,1,2.162-1.6q2.409-.015,4.817,0A2.056,2.056,0,0,1,70.8,24.074Q72,28.235,73.15,32.407a1.6,1.6,0,0,1-1.667,2.183c-1.192.014-2.385.029-3.576-.009-.5-.016-.6.153-.595.615q.041,2.189,0,4.379c-.007.429.08.58.551.586,1.427.017,2.056.7,2.081,2.127.01.576-.252,1.328.11,1.681s1.108.08,1.686.106c.51.023,1.026-.018,1.529.05.74.1,1.121.677,1.469,1.265Z" transform="translate(0 -13.095)"/>
        <path id="Path_208532" data-name="Path 208532" d="M81.871,8.6a1.2,1.2,0,0,1,.857,1.286c0,2.651.013,5.3-.007,7.952a1.864,1.864,0,0,1-2.112,2.039q-15.212,0-30.423,0a1.864,1.864,0,0,1-2.1-2.052q-.019-7.878,0-15.757A1.842,1.842,0,0,1,50.165,0q15.249-.009,30.5,0a1.836,1.836,0,0,1,2.062,2.006c.02.826,0,1.653,0,2.48a1.2,1.2,0,0,1-.855,1.288c-.959.193-1.4-.133-1.5-1.118-.052-.532-.013-1.068-.032-1.6a.527.527,0,0,0-.579-.588q-.437-.011-.874-.01H53.32c-.291,0-.583.01-.873-.018-.266.012-.533.015-.8.015-1.182,0-1.192.005-1.193,1.152q0,6.331,0,12.663c0,.218,0,.436.018.654a.5.5,0,0,0,.56.528c1.914.024,3.829.1,5.74-.017a1.09,1.09,0,0,0,.529-.573c1.98-3.4,3.938-6.814,5.91-10.219.036-.063.068-.129.106-.191.742-1.226,1.835-1.245,2.553-.019q.883,1.509,1.756,3.024c.374.644.716,1.309,1.167,1.991,1.016-1.6,1.853-3.212,2.789-4.767.54-.895,1.021-1.823,1.569-2.712.754-1.223,1.84-1.169,2.58.113,1.527,2.651,3.056,5.3,4.653,8.057.038-.873-.01-1.635.029-2.394.052-1,.49-1.333,1.46-1.151" transform="translate(-28.035 0)"/>
        <path id="Path_208533" data-name="Path 208533" d="M81.855,117.3c-1.262.018-2.525.027-3.787.057-.4.01-.415-.215-.412-.512.008-.924.01-1.848,0-2.773a1.807,1.807,0,0,0-2.007-2.041c-2.14-.013-4.281-.009-6.421,0-.9,0-1.189.285-1.306,1.2a7.747,7.747,0,0,0-3.075,0c-.12-.914-.409-1.2-1.309-1.2q-13.572-.006-27.144,0a1.8,1.8,0,0,0-2.008,2.039c-.01.9-.022,1.8.006,2.7.013.43-.1.627-.562.589-.532-.043-1.068-.03-1.6-.041a1.341,1.341,0,0,1-.236-.967c-.005-2.528-.011-5.055,0-7.582.005-.959.074-1.01,1.048-1.01H81.089c.838,0,.839,0,.84.808q0,4.01,0,8.02a1.3,1.3,0,0,1-.07.713" transform="translate(-18.651 -62.836)" fill="#fe9e3d"/>
        <path id="Path_208534" data-name="Path 208534" d="M58.1,5.268c.242-.012.484-.034.725-.034,8.865,0,17.73.008,26.594-.018.69,0,.887.2.816.849a11.594,11.594,0,0,0-.008,1.383c.012,1.029.316,1.34,1.334,1.374-.092.13-.3.188-.263.4.129.8-.3,1.664.261,2.42-1.023.038-1.322.345-1.331,1.381-.007.8,0,1.6-.006,2.408a.675.675,0,0,1-.033.116c-.277-.11-.344-.38-.463-.586Q83.5,11.116,81.284,7.266c-.762-1.319-1.634-1.308-2.4.025q-2.165,3.751-4.328,7.5c-.256-.021-.278-.251-.364-.4-.918-1.571-1.822-3.151-2.736-4.725-.738-1.271-1.595-1.279-2.322-.022q-3.028,5.229-6.05,10.461c-.1.166-.211.321-.316.482-1.474.161-2.953.033-4.43.069-.28.007-.367-.191-.419-.416a3.181,3.181,0,0,1-.052-.725q0-3.679,0-7.359a2.106,2.106,0,0,1,.127-.928c.457-.355.517.109.63.341a3.7,3.7,0,0,0,1.826,1.8,3.318,3.318,0,0,0,3.626-.485,3.251,3.251,0,0,0,1.2-3.388,3.4,3.4,0,0,0-2.49-2.7,3.5,3.5,0,0,0-4.171,1.962c-.113.224-.065.709-.58.525A8.551,8.551,0,0,1,58.1,5.268" transform="translate(-33.719 -3.041)" fill="#b0e7fe"/>
        <path id="Path_208535" data-name="Path 208535" d="M53.1,65.512c.2.932.492,1.162,1.524,1.162q13.938,0,27.875-.015c.7,0,.947.11.925.886-.065,2.212-.048,4.426-.007,6.639.011.613-.292.605-.707.569-.389-.034-.858.2-.87-.572-.055-3.384-1.006-4.288-4.384-4.288q-5,0-10,0a3.251,3.251,0,0,0-3.5,3.5,3.2,3.2,0,0,0,0,.583c.12.67-.182.8-.8.8s-.787-.2-.745-.791a4.685,4.685,0,0,0-.135-1.807A3.185,3.185,0,0,0,59.3,69.905q-5.8-.033-11.6,0a3.191,3.191,0,0,0-3.152,3.1c-.02.437-.015.875-.007,1.313.005.284-.036.5-.4.4a1.3,1.3,0,0,1-.234-.961q-.009-3.046,0-6.092a1.3,1.3,0,0,1,.234-.961q2.39-.016,4.78-.033c.945-.008,1.246-.254,1.434-1.163a17.872,17.872,0,0,0,2.751,0" transform="translate(-25.599 -38.201)" fill="#fe9e3d"/>
        <path id="Path_208536" data-name="Path 208536" d="M82.687,93.09a.977.977,0,0,1,.8,1.058c.03.777,0,1.555.014,2.333.006.3-.06.471-.4.431a3.122,3.122,0,0,0-.364,0H37.755c-.218,0-.436-.016-.654-.025-.408-.544-.227-1.174-.233-1.766-.022-2.078-.008-2.079,2.048-2.079q21.451,0,42.9,0a2.635,2.635,0,0,1,.869.048" transform="translate(-21.478 -54.247)" fill="#feceaa"/>
        <path id="Path_208537" data-name="Path 208537" d="M158.013,93.343c1.24,0,2.481.011,3.721-.007.366,0,.512.087.509.485-.018,1.921-.015,3.842,0,5.763,0,.336-.085.469-.445.466q-3.064-.021-6.128,0c-.4,0-.5-.156-.476-.516a2.093,2.093,0,0,0-1.139-2.311c-.236-.11-.144-.336-.152-.516a25.364,25.364,0,0,0-.086-3.057c-.076-.452.284-.3.479-.3,1.24-.013,2.48-.007,3.721-.007" transform="translate(-89.685 -54.421)" fill="#fe9e3d"/>
        <path id="Path_208538" data-name="Path 208538" d="M150.184,79.552c1.895,0,3.789.015,5.684-.011.466-.007.626.1.6.59-.043.848-.03,1.7,0,2.549.011.359-.1.446-.451.445-3.3-.013-6.607,0-9.91-.018a15.89,15.89,0,0,0-1.877-.172c-.261.028-.33-.093-.327-.336.01-.9.022-1.8,0-2.7-.013-.463.29-.35.532-.35q2.878-.007,5.757,0" transform="translate(-83.908 -46.382)" fill="#fefefe"/>
        <path id="Path_208539" data-name="Path 208539" d="M11.566,79.548c1.87,0,3.741.022,5.611-.014.529-.01.65.15.621.646-.044.75-.026,1.506-.005,2.258.01.35-.06.473-.462.509-3.829.338-7.666.085-11.5.176-.45.011-.644-.073-.614-.58a22.655,22.655,0,0,0,0-2.4c-.022-.464.1-.612.588-.6,1.918.031,3.837.013,5.756.013" transform="translate(-3.042 -46.377)" fill="#fefefe"/>
        <path id="Path_208540" data-name="Path 208540" d="M16.067,27.741c.825-.009,1.651-.007,2.475-.033.311-.01.487.07.577.394.67,2.427,1.354,4.849,2.052,7.338h-7.29c-.184-.23-.059-.464,0-.69.557-2.155,1.223-4.28,1.8-6.43.063-.236.129-.472.388-.577" transform="translate(-8.038 -16.156)" fill="#fbc86c"/>
        <path id="Path_208541" data-name="Path 208541" d="M16.118,93.813c0,.653,0,1.307-.009,1.96-.008.743.158,1.485-.761,1.961-.551.286-.591,1.033-.525,1.648.063.595-.172.728-.726.71-1.426-.048-2.854-.037-4.282-.05a1.266,1.266,0,0,1-.234-.892c-.008-1.6-.015-3.195,0-4.792.01-.925.064-.963,1.008-.963,1.67,0,3.34,0,5.01,0,.26,0,.657-.113.517.413" transform="translate(-5.582 -54.457)" fill="#fe9e3d"/>
        <path id="Path_208542" data-name="Path 208542" d="M155.076,27.743c.776-.009,1.552-.008,2.328-.033a.424.424,0,0,1,.5.375c.642,2.31,1.3,4.614,1.961,6.919.1.334.048.474-.35.47-2.208-.024-4.417-.025-6.625-.033-.184-.23-.059-.464,0-.69.557-2.155,1.223-4.281,1.8-6.43.063-.236.129-.472.388-.577" transform="translate(-89.096 -16.158)" fill="#fbc86c"/>
        <path id="Path_208543" data-name="Path 208543" d="M57.386,83.945c-2.019,0-4.038-.026-6.055.016-.6.013-.764-.185-.69-.729a5.918,5.918,0,0,0,.006-.655c.02-.945.378-1.3,1.342-1.3q5.4-.006,10.8,0c1.015,0,1.358.344,1.379,1.342.029,1.329.029,1.329-1.309,1.329H57.386" transform="translate(-29.52 -47.391)" fill="#fefefe"/>
        <path id="Path_208544" data-name="Path 208544" d="M103.968,83.944c-2.019,0-4.038-.017-6.056.012-.513.007-.785-.074-.686-.657a5.053,5.053,0,0,0,.008-.729c.018-.914.376-1.294,1.272-1.3q5.473-.009,10.945,0c.914,0,1.272.364,1.308,1.273.055,1.4.055,1.4-1.318,1.4h-5.472" transform="translate(-56.682 -47.39)" fill="#fefefe"/>
        <path id="Path_208545" data-name="Path 208545" d="M79.167,117.165c0-2.894-.016-5.789.007-8.684.005-.572-.105-.8-.749-.8q-24.082.026-48.165,0c-.588,0-.738.18-.733.746.025,2.919.012,5.838.012,8.757-.558.011-1.117.006-1.674.038-.395.023-.49-.149-.489-.515q.017-4.34,0-8.679c0-.4.15-.492.514-.482.753.019,1.507,0,2.261,0q24.142,0,48.284-.017c.7,0,.89.158.878.869-.046,2.7-.015,5.4-.025,8.1,0,.222.128.486-.119.672" transform="translate(-15.963 -62.702)" fill="#e58e37"/>
        <path id="Path_208546" data-name="Path 208546" d="M78.984,93c-.316.01-.631.027-.947.027H34.474c-1,0-1.071.068-1.078,1.066-.006.9,0,1.8,0,2.7-.8.008-1.6,0-2.4.031-.359.012-.527-.07-.51-.477.031-.752-.01-1.507.015-2.26A1.111,1.111,0,0,1,31.7,92.9c.874-.026,1.749-.015,2.624-.015q21.871,0,43.743,0c.306,0,.632-.1.92.1" transform="translate(-17.775 -54.153)" fill="#e5ba99"/>
        <path id="Path_208547" data-name="Path 208547" d="M152.267,27.733l-1.893,6.658q-.148.52-.293,1.04l-2.105-.011a7.791,7.791,0,0,1,.472-1.938c.48-1.751.995-3.493,1.464-5.246.106-.4.255-.572.684-.538.554.044,1.114.027,1.672.036" transform="translate(-86.287 -16.148)" fill="#e2b461"/>
        <path id="Path_208548" data-name="Path 208548" d="M13.509,27.722,11.616,34.38q-.148.52-.293,1.04c-.628.028-1.47.278-1.819-.084-.326-.337.188-1.106.344-1.681.482-1.773,1-3.537,1.469-5.314.133-.508.355-.72.887-.655a12.972,12.972,0,0,0,1.306.036" transform="translate(-5.48 -16.138)" fill="#e2b461"/>
        <path id="Path_208549" data-name="Path 208549" d="M13.586,93.778c-.055-.381-.346-.335-.61-.335-1.693,0-3.387.014-5.08-.009-.476-.006-.625.149-.62.623.021,1.984.008,3.967.008,5.951-2.043.164-2.043.164-2.043-1.8,0-1.43.016-2.861-.009-4.291-.008-.436.1-.587.562-.583,2.473.018,4.946,0,7.419,0,.3,0,.664-.049.374.446" transform="translate(-3.05 -54.423)" fill="#e58e37"/>
        <path id="Path_208550" data-name="Path 208550" d="M42.2,68.3v8.015c-1.606.112-1.606.112-1.606-1.432,0-1.934.031-3.87-.017-5.8-.016-.665.168-.919.828-.816a6.89,6.89,0,0,0,.795.037" transform="translate(-23.662 -39.791)" fill="#e58e37"/>
        <path id="Path_208551" data-name="Path 208551" d="M18.168,71.775h-.437c-1.12,0-1.283-.219-1.085-1.352.048-.273.182-.293.392-.292.753,0,1.507.014,2.259,0,.337-.008.424.145.4.44a2.187,2.187,0,0,0,0,.509c.1.6-.183.772-.732.705a6.755,6.755,0,0,0-.8-.005" transform="translate(-9.664 -40.892)" fill="#a9cad1"/>
        <path id="Path_208552" data-name="Path 208552" d="M156.7,71.742a4.235,4.235,0,0,0-.655.005c-.7.113-.913-.142-.893-.859.018-.621.133-.895.8-.8a8.871,8.871,0,0,0,1.237.011c1.017,0,1.285.379,1.037,1.4-.07.289-.253.241-.435.244-.364.007-.729,0-1.093,0" transform="translate(-90.469 -40.859)" fill="#a9cad1"/>
        <path id="Path_208553" data-name="Path 208553" d="M95.8,26.969c2.169-3.758,4.274-7.405,6.38-11.052.243.113.3.339.4.522q2.754,4.752,5.5,9.507c.049.084.1.167.142.254.3.609.2.767-.472.768q-3.607.005-7.215,0Z" transform="translate(-55.861 -9.281)" fill="#85d4b4"/>
        <path id="Path_208554" data-name="Path 208554" d="M75.659,30.26l5.023-8.7c.964,1.666,1.88,3.253,2.8,4.837.133.23.037.407-.078.6q-.841,1.444-1.665,2.9a.585.585,0,0,1-.562.365c-1.793-.013-3.586-.006-5.519-.006" transform="translate(-44.118 -12.573)" fill="#85d4b4"/>
        <path id="Path_208555" data-name="Path 208555" d="M55.591,11.115c-.188.176-.127.406-.127.618,0,2.717.015,5.435-.016,8.152-.007.6.194.739.751.725,1.309-.035,2.62-.011,3.931-.011-.137.273-.387.136-.579.138-1.868.01-3.737-.009-5.606.008-.437,0-.641-.059-.638-.579q.031-7.171,0-14.342c0-.42.079-.632.554-.592.53.045,1.065.031,1.6.043,0,1.131,0,2.262,0,3.393,0,.233-.071.485.114.691a2.507,2.507,0,0,1,.012,1.757" transform="translate(-31.084 -3.047)" fill="#9fd0e4"/>
        <path id="Path_208556" data-name="Path 208556" d="M58.675,12.868a5.426,5.426,0,0,1-.012-1.757,3.739,3.739,0,1,1,.259,2.362c-.09-.2-.165-.4-.247-.605" transform="translate(-34.168 -4.8)"/>
        <path id="Path_208557" data-name="Path 208557" d="M156.966,82.163a1.092,1.092,0,0,1-2.182-.116,1.123,1.123,0,0,1,1.114-1.039,1.111,1.111,0,0,1,1.067,1.155" transform="translate(-90.257 -47.237)" fill="#020202"/>
        <path id="Path_208558" data-name="Path 208558" d="M20.361,83.188a1.088,1.088,0,0,1-1.1-1.036,1.109,1.109,0,0,1,1.076-1.146,1.121,1.121,0,0,1,1.107,1.121,1.1,1.1,0,0,1-1.081,1.061" transform="translate(-11.23 -47.236)" fill="#020202"/>
        <path id="Path_208559" data-name="Path 208559" d="M63.808,14.984a1.565,1.565,0,0,1,1.557-1.51,1.534,1.534,0,0,1,1.477,1.574,1.505,1.505,0,0,1-1.505,1.46,1.537,1.537,0,0,1-1.53-1.525" transform="translate(-37.207 -7.857)" fill="#fdfdfd"/>
      </g>
    </g>
  </g>
</svg>
