<svg xmlns="http://www.w3.org/2000/svg" xmlns:xlink="http://www.w3.org/1999/xlink" width="90" height="90" viewBox="0 0 90 90">
  <defs>
    <clipPath id="clip-path">
      <rect id="Rectangle_338656" data-name="Rectangle 338656" width="69.976" height="69.96" fill="none"/>
    </clipPath>
  </defs>
  <g id="_3" data-name="3" transform="translate(3653 10594)">
    <rect id="Rectangle_338500" data-name="Rectangle 338500" width="90" height="90" rx="11" transform="translate(-3653 -10594)" fill="#6b8dfc"/>
    <g id="Group_983364" data-name="Group 983364" transform="translate(-3643 -10584)">
      <g id="Group_983363" data-name="Group 983363" transform="translate(0 0)" clip-path="url(#clip-path)">
        <path id="Path_208560" data-name="Path 208560" d="M45.67,8.9c.06-1.162.06-1.162,1.263-1.162q5.611,0,11.222,0A5.762,5.762,0,0,1,64.111,12c.145.434.389.4.7.4q4.846,0,9.692,0a5.838,5.838,0,0,1,6.173,6.156q.007,6.667,0,13.334A5.844,5.844,0,0,1,74.5,38.045c-1.716,0-3.432,0-5.337,0,.948,1.229,1.77,2.353,2.653,3.427a12.968,12.968,0,0,1,3.03,8.515q-.014,10.711,0,21.421c0,1.245-.362,1.612-1.591,1.612q-20.039,0-40.079,0a5.834,5.834,0,0,1-6.136-6.12c0-1.579.036-3.159-.018-4.736-.022-.663.16-.921.819-.806a1.563,1.563,0,0,0,.362-.019,1.321,1.321,0,0,1,.9-.207c2.318,0,4.637-.021,6.953.01,6.7.039,13.4,0,20.107.022a1.069,1.069,0,0,0,1.1-.741c.565-1.272.586-1.262-.4-2.254C55,56.315,53.136,54.474,51.3,52.6a5.562,5.562,0,0,1-1.306-6.236,5.49,5.49,0,0,1,8.21-2.287,29.193,29.193,0,0,1,2.856,2.7,3.141,3.141,0,0,0,.749.63c.013-1.233,0-2.377.007-3.468a.333.333,0,0,0-.358-.024c-1.28.384-2.124-.353-1.892-1.679.179-1.029.408-2.048.606-3.073.168-.863.131-.911-.759-.913-2.477,0-4.955-.028-7.432.007a6.4,6.4,0,0,1-5.3-2.416,6.942,6.942,0,0,1-1.223-4.11c.033-4.414.014-8.829.01-13.244a6.153,6.153,0,0,1,6.552-6.3c1.62.018,3.24,0,4.858,0,1.257.021,2.516.006,3.774,0,.208,0,.487.083.6-.143.126-.262-.13-.437-.28-.615a3.554,3.554,0,0,0-3.211-1.157c-3.76.054-7.519.03-11.278.011-.963,0-1.2-.453-.809-1.392" transform="translate(-10.701 -3.063)"/>
        <path id="Path_208561" data-name="Path 208561" d="M47.663,54.208a6.439,6.439,0,0,0,5.36,2.259c2.549-.067,5.1,0,7.652-.025.521,0,.734.042.576.665-.286,1.126-.439,2.285-.7,3.42a1.3,1.3,0,0,0,.44,1.554,1.211,1.211,0,0,0,1.54-.179.916.916,0,0,1,.228-.085v4.454c-.267.019-.359-.216-.5-.353-.9-.885-1.779-1.794-2.686-2.672a5.287,5.287,0,1,0-7.455,7.5q3.139,3.2,6.34,6.335c.368.362.341.6.183,1.1-.461,1.452-1.392,1.649-2.778,1.63-6-.085-12-.036-18-.038-.291,0-.582-.016-.873-.024-.273-.247.134-.675-.173-.85a2.155,2.155,0,0,0-1.068-.066c-1.905-.007-3.81,0-5.716-.007A1.376,1.376,0,0,1,29,78.6l-.027-1.141c.287-.316.672-.233,1.025-.234,1.893-.01,3.786,0,5.679-.006a5.648,5.648,0,0,0,5.907-5.913c.005-2.038,0-4.077,0-6.115a3.084,3.084,0,0,1,.082-1.009c.2-.358.4-.133.573.023a4.24,4.24,0,0,1,.612.977c.541-1.1.978-2.192,1.429-3.276.987-2.371,2.024-4.719,3.011-7.089.091-.217.133-.474.366-.609" transform="translate(-11.476 -21.468)" fill="#3085cc"/>
        <path id="Path_208562" data-name="Path 208562" d="M17.516,30.956q-3.542-2.547-7.08-5.1a1.344,1.344,0,0,0-.818-.207,33.293,33.293,0,0,1-4.867-.123A5.726,5.726,0,0,1,.025,19.953q-.047-7.134,0-14.269A5.744,5.744,0,0,1,5.709.022q10.629-.051,21.259,0a5.832,5.832,0,0,1,5.715,5.816,1.117,1.117,0,0,1,.2.751c0,2.046.03,4.092-.013,6.137,0,2.326.011,4.654,0,6.981a6.055,6.055,0,0,1-6.188,6.166c-2.037.013-4.073,0-6.11,0-1.4,0-1.4,0-1.129,1.334.176.879.357,1.758.526,2.639a1.427,1.427,0,0,1-.748,1.717,1.311,1.311,0,0,1-1.708-.6" transform="translate(0 0)"/>
        <path id="Path_208563" data-name="Path 208563" d="M30.349,63.858q-.005,3.639-.012,7.279a5.843,5.843,0,0,1-6.131,6.127l-6.7.023q-5.61-.011-11.219-.022a5.858,5.858,0,0,1-6.269-6.28q0-3.1,0-6.192A5.844,5.844,0,0,1,6.24,58.61c2.526,0,5.052-.019,7.577.011a3.221,3.221,0,0,0,1.98-.53c.555-.384,1.155-.7,1.736-1.047a1.292,1.292,0,0,1,.541-.47c1.489-.867,2.99-1.71,4.483-2.569a1.365,1.365,0,0,1,2.072,1.523c-.207.923-.462,1.835-.667,2.754.434.31.949.03,1.4.2a5.981,5.981,0,0,1,4.731,3.774,2.2,2.2,0,0,1,.255,1.6" transform="translate(-0.008 -21.295)"/>
        <path id="Path_208564" data-name="Path 208564" d="M35.231,45.422c.211-.915.4-1.837.641-2.743a1.291,1.291,0,0,0-.339-1.512c-.547-.437-1.071-.238-1.608.069-1.632.934-3.275,1.849-4.914,2.771q0-2.4-.008-4.794a1.921,1.921,0,0,0,1.534.508c.657-.247,1,.356,1.507.556.179-.176.032-.361,0-.525-.235-1.239-.5-2.474-.735-3.712-.2-1.025-.089-1.166.94-1.17q4.076-.015,8.151,0a4.748,4.748,0,0,0,1.846-.341,4.4,4.4,0,0,0,2.848-4.179c.017-2.741,0-5.482.009-8.224,0-.379-.076-.785.224-1.109a1.62,1.62,0,0,1,1.59.083,9.738,9.738,0,0,0-.446,3.36c.021,4.048.039,8.1-.007,12.144A7.225,7.225,0,0,0,47.674,41a24.908,24.908,0,0,1-1.3,3.3c-1.08,2.613-2.206,5.209-3.316,7.81a2.162,2.162,0,0,1-.179.275c-.416-.514-.462-1.23-1.054-1.56a5.948,5.948,0,0,0-3.478-4.731,14.3,14.3,0,0,0-1.5-.494c-.257-.3.024-.581.035-.827-.547.218-.954.78-1.655.654" transform="translate(-11.486 -8.258)" fill="#348ed8"/>
        <path id="Path_208565" data-name="Path 208565" d="M56.864,16.669l-1.605.013a.928.928,0,0,1-1.141-.027v-7H56.4c.06,1.169.06,1.167,1.26,1.17q5.5.011,11,.025a3.775,3.775,0,0,1-1.014,2.283c-1.524.008-3.051.074-4.572.011a6.162,6.162,0,0,0-6.214,3.521" transform="translate(-21.432 -3.825)" fill="#dfdfdd"/>
        <path id="Path_208566" data-name="Path 208566" d="M29,94.6h8.3c.034.452-.372.733-.312,1.141l-8.017,0q.014-.573.027-1.144" transform="translate(-11.476 -37.464)" fill="#348ed8"/>
        <path id="Path_208567" data-name="Path 208567" d="M85.054,76.246c-1.28-1.285-2.551-2.577-3.845-3.847a1.26,1.26,0,0,1-.437-1c.03-2.127.027-4.254.034-6.38A16.178,16.178,0,0,1,83.4,62.89c.352-.283.66-.711,1.209-.657,1.447,1.841,3.1,3.543,3.813,5.866a11.373,11.373,0,0,1,.522,3.362q0,10.085.01,20.171c0,.483-.079.658-.616.655q-5.534-.039-11.069,0a.909.909,0,0,1-.909-.538,9.011,9.011,0,0,1-.059-9.28c.138-.255.309-.493.47-.735.742-1.11.711-1.4-.254-2.37q-3.5-3.5-7.005-7a3.047,3.047,0,0,1-.977-1.819,2.947,2.947,0,0,1,5.03-2.477c1.66,1.636,3.3,3.292,4.948,4.939l4.9,4.887a3.442,3.442,0,0,0,.488.136c.981.222,1.544-.383,1.262-1.361a2.985,2.985,0,0,1-.106-.42" transform="translate(-27.133 -24.645)" fill="#fdc8a2"/>
        <path id="Path_208568" data-name="Path 208568" d="M76.229,33.009q-2.628-1.947-5.256-3.894c-.884-.655-1.17-.651-2.065.02l-6.982,5.237c-.24-.147-.131-.362-.132-.532q-.011-5.424,0-10.847a3.485,3.485,0,0,1,3.646-3.675q11.5-.01,23.008,0a2.8,2.8,0,0,1,1.475.3c.4.3.1.562-.067.8a28.833,28.833,0,0,1-1.925,2.349c-1.057,1.189-2.118,2.379-3.29,3.459-.207.191-.37.547-.766.338a7.45,7.45,0,0,0-.963-2.865,4.464,4.464,0,1,0-4.56,6.973,1.517,1.517,0,0,1,.605.236.206.206,0,0,1-.022.315,12.414,12.414,0,0,1-2.352,1.772.42.42,0,0,1-.35.021" transform="translate(-24.463 -7.649)" fill="#4db6e4"/>
        <path id="Path_208569" data-name="Path 208569" d="M38.4,100.405q7.03-.012,14.06-.023c2.235,0,4.469.018,6.7-.014.538-.008.6.132.554.637a11.159,11.159,0,0,0,1.163,6.27,1.159,1.159,0,0,1-.742.1q-11.766.007-23.533,0a2.108,2.108,0,0,1-1.139-.129,40.985,40.985,0,0,1,1.686-4.155,11.9,11.9,0,0,1,1.25-2.683" transform="translate(-14.043 -39.749)" fill="#d5d5d3"/>
        <path id="Path_208570" data-name="Path 208570" d="M75.994,43.892c1.385,1.021,2.784,2.024,4.148,3.074a1.394,1.394,0,0,0,1.849.067c1.864-1.27,3.756-2.5,5.622-3.765a.726.726,0,0,1,.963,0q2.4,1.646,4.844,3.229a.65.65,0,0,1,.288.907,3.5,3.5,0,0,1-3.23,2.308q-2.731.032-5.462,0a2.222,2.222,0,0,0-1.416.446c-1.565,1.147-3.153,2.263-4.737,3.385a1.271,1.271,0,0,1-.672.368c.163-.846.319-1.671.483-2.495.23-1.149-.214-1.693-1.408-1.695-3.277,0-6.554,0-9.831-.005a1.827,1.827,0,0,1-1.064-.13c-.054-.338.24-.391.435-.487a86.751,86.751,0,0,0,8.649-5.012.878.878,0,0,1,.538-.188" transform="translate(-26.284 -17.062)" fill="#77ac50"/>
        <path id="Path_208571" data-name="Path 208571" d="M93.443,26.8a46.875,46.875,0,0,0,4.832-5.173c.318-.393.65-.774.972-1.164.156-.189.306-.385.153-.649a3.177,3.177,0,0,1,2.163,3.063c.053,3.929.018,7.859.018,11.791-.276.083-.411-.132-.578-.242-1.456-.961-2.916-1.918-4.355-2.906a1.421,1.421,0,0,0-1.8.013c-1.841,1.259-3.713,2.472-5.557,3.726a.658.658,0,0,1-.938-.008c-.861-.7-1.759-1.364-2.643-2.042a19.711,19.711,0,0,0,2.756-2.015c.168-.228.428-.19.66-.225a4.491,4.491,0,0,0,4.017-3.53c.06-.228.078-.483.3-.638" transform="translate(-33.944 -7.846)" fill="#48acd8"/>
        <path id="Path_208572" data-name="Path 208572" d="M74.261,42.377a66.467,66.467,0,0,1-6.267,3.856q-1.675.92-3.355,1.832a3.271,3.271,0,0,1-2.6-2.348.585.585,0,0,1,.245-.747q3.728-2.771,7.434-5.57a.43.43,0,0,1,.626-.014c1.3,1.008,2.61,2,3.917,2.993" transform="translate(-24.55 -15.547)" fill="#7db357"/>
        <path id="Path_208573" data-name="Path 208573" d="M36.589,100.41a32.539,32.539,0,0,1-1.5,3.685,17.217,17.217,0,0,1-1.437,3.153,3.356,3.356,0,0,1-2.732-3.147c-.044-1.091,0-2.185-.022-3.276-.008-.352.1-.451.449-.446,1.747.024,3.495.023,5.242.031" transform="translate(-12.237 -39.754)" fill="#dfdfdd"/>
        <path id="Path_208574" data-name="Path 208574" d="M76.523,13.914l1.015-2.283c1.927-.1,3.339.74,3.775,2.283Z" transform="translate(-30.306 -4.603)" fill="#d5d5d3"/>
        <path id="Path_208575" data-name="Path 208575" d="M92.619,61.573l-3.8,2.784a2.211,2.211,0,0,1,1.3-2.752,4.026,4.026,0,0,0,1.059-.756c.48-.463.8-.352,1.08.186a6,6,0,0,0,.36.538" transform="translate(-35.143 -23.984)" fill="#fdbf92"/>
        <path id="Path_208576" data-name="Path 208576" d="M94.824,85.437c.506.656.518,1.271.031,1.727a1.191,1.191,0,0,1-1.675-.082,8.189,8.189,0,0,0,1.644-1.645" transform="translate(-36.903 -33.836)" fill="#f3a267"/>
        <path id="Path_208577" data-name="Path 208577" d="M31.309,5.263A3.066,3.066,0,0,1,32.59,7.832q.033,7.066,0,14.133A3.449,3.449,0,0,1,29.081,25.4c-2.938.02-5.877,0-8.816.006-1.4,0-1.8.481-1.535,1.829.153.782.3,1.565.477,2.483-1.32-.941-2.615-1.725-3.742-2.7a6.286,6.286,0,0,0-5.132-1.627A14.559,14.559,0,0,1,8,25.4a3.046,3.046,0,0,1-2.263-.987c.36-.58,1.036-.679,1.562-1,.969-.593,2-1.09,2.972-1.675a1.052,1.052,0,0,1,.617-.19,6.209,6.209,0,0,0,1.517.16c2.623-.008,5.246-.016,7.869,0,.83.006,1.494-.124,1.675-1.1.087-.472.455-.344.751-.215.691.3,1.35.667,2.029.992,1.211.578,1.822.212,1.829-1.113q.016-3.023,0-6.047c-.009-1.326-.619-1.681-1.832-1.119a8.642,8.642,0,0,1-1.987.882c-.484-.21-.121-.424.031-.565.478-.445,1-.845,1.5-1.26a65.644,65.644,0,0,0,6.717-6.615.963.963,0,0,1,.322-.286" transform="translate(-2.274 -2.084)" fill="#fea812"/>
        <path id="Path_208578" data-name="Path 208578" d="M10.018,21.036A45.037,45.037,0,0,1,5,23.86,3.006,3.006,0,0,1,3.89,21.435q-.025-7.065,0-14.131A3.433,3.433,0,0,1,7.338,3.881q10.526-.027,21.053,0a2.956,2.956,0,0,1,2.179.833,6.6,6.6,0,0,1-1.591,1.934,55.133,55.133,0,0,1-6.914,6.388,1.445,1.445,0,0,0-.25.345.281.281,0,0,1-.423.243c-.168-.077-.175-.284-.127-.455a6.183,6.183,0,0,1,.593-1.082A3.831,3.831,0,0,0,19.5,6.548a3.588,3.588,0,0,0-3.134.494,1.212,1.212,0,0,1-1.616.02,3.763,3.763,0,0,0-4.866.5,3.8,3.8,0,0,0-.433,4.933,2.56,2.56,0,0,1,.466,1.564c-.016,1.675.008,3.351-.013,5.027-.008.657.074,1.3.117,1.953" transform="translate(-1.535 -1.532)" fill="#feb431"/>
        <path id="Path_208579" data-name="Path 208579" d="M45.138,21.243l1.141.027q0,4.7,0,9.392a4.724,4.724,0,0,1-4.545,4.573c-2.912,0-5.825.018-8.737-.013-.581-.007-.684.155-.57.687.358,1.667.678,3.342,1.023,5.059-.743-.271-1.163-1.008-1.946-1.09a1.374,1.374,0,0,0,.7-1.712c-.281-1.153-.442-2.335-.713-3.49-.118-.5-.011-.619.492-.614,2.331.022,4.663.013,6.994.008a5.844,5.844,0,0,0,6.139-6.125l.024-6.7" transform="translate(-12.454 -8.413)" fill="#3085cc"/>
        <path id="Path_208580" data-name="Path 208580" d="M10.872,77.4c-1.213.007-2.427.046-3.638.011a3.447,3.447,0,0,1-3.348-3.371q-.053-3.6,0-7.207a3.449,3.449,0,0,1,3.476-3.393c2.961-.021,5.922-.014,8.882,0a2.745,2.745,0,0,0,1.445-.388c1.716-1,3.444-1.972,5.238-3a4.483,4.483,0,0,1-.289,1.639c-.247,1.146.184,1.723,1.347,1.738.339,0,.678.016,1.018.025.062.19-.052.329-.151.462a25.78,25.78,0,0,1-2.506,3.1c-.692-.005-.842.452-.865,1.017A43.8,43.8,0,0,1,18,71.593a.78.78,0,0,1-.393.177c-1.626.108-3.253.035-4.879.048-1.821.014-3.642-.008-5.463.009-.762.007-.84.122-.83,1.009.009.765.075.851.823.855,2.162.012,4.323,0,6.484.005a5.159,5.159,0,0,1,1.088.054c.318.088.412.315.173.522A19.714,19.714,0,0,1,10.872,77.4" transform="translate(-1.529 -23.784)" fill="#60d0df"/>
        <path id="Path_208581" data-name="Path 208581" d="M26.98,69.115,29.6,65.668a6.111,6.111,0,0,1,1.881.09,3.442,3.442,0,0,1,2.631,3.271c.03,2.4.035,4.808,0,7.212a3.414,3.414,0,0,1-3.344,3.376c-5.1.028-10.2,0-15.3-.007a51.5,51.5,0,0,0,4.224-3.45c.332-.347.768-.249,1.167-.251,3.2-.01,6.405,0,9.608-.007,1.013,0,1.349-.49,1.06-1.48-.112-.386-.409-.37-.693-.377-.8-.021-1.6-.007-2.4-.008-1.649,0-3.3.006-4.949-.005-.355,0-.739.063-1.022-.251L25.936,70.3c.245.966.962.994,1.775.956,1.039-.049,2.082-.033,3.123,0,.658.018.747-.338.739-.869-.013-.888-.063-1-.741-1.016-.968-.024-1.937,0-2.906-.012-.33-.005-.689.057-.947-.243" transform="translate(-6.126 -25.996)" fill="#5ac5d3"/>
        <path id="Path_208582" data-name="Path 208582" d="M39.3,60.889a13.506,13.506,0,0,0,1.87-.983c.08.474-.33.765-.251,1.157-.536-.021-1.073-.04-1.61-.063-.011,0-.029-.028-.03-.043a.218.218,0,0,1,.02-.067" transform="translate(-15.557 -23.725)" fill="#3085cc"/>
        <path id="Path_208583" data-name="Path 208583" d="M92.386,28.131c-.483,2.845-2.072,4.247-4.977,4.393-2.691-.493-4.319-2.194-4.368-4.564a4.663,4.663,0,0,1,9.322-.265c.006.145.015.291.023.435" transform="translate(-32.887 -9.18)"/>
        <path id="Path_208584" data-name="Path 208584" d="M58.341,105.471c0,1.113,0,1.113-1.146,1.113-1.186,0-1.186,0-1.186-1.219,0-1.113,0-1.113,1.146-1.113,1.186,0,1.186,0,1.186,1.219" transform="translate(-22.182 -41.288)"/>
        <path id="Path_208585" data-name="Path 208585" d="M13.074,22.561a2.075,2.075,0,0,1-.315-1.239c.014-2.036,0-4.073.011-6.108a1.392,1.392,0,0,0-.305-.921A4.06,4.06,0,0,1,18.2,8.622c.3.234.454.26.773.014A4.067,4.067,0,0,1,24.7,14.344a1.88,1.88,0,0,0-.226.282c-.069.148-.129.346.032.445.063.039.237-.106.361-.167.783-.377,1.564-.76,2.351-1.13,1.051-.5,1.857-.005,1.864,1.153q.019,3.309,0,6.618a1.176,1.176,0,0,1-1.824,1.145c-.461-.213-.909-.454-1.364-.681l-1.454-.724a1.535,1.535,0,0,1-.508,1.376,2.209,2.209,0,0,1-1.407.222c-2.74.006-5.48,0-8.22.009a2.042,2.042,0,0,1-1.234-.33" transform="translate(-4.59 -3.058)"/>
        <path id="Path_208586" data-name="Path 208586" d="M19.393,79.118c2.887.008,5.774.031,8.661.01.535,0,.693.116.683.672-.03,1.673,0,1.671-1.706,1.674q-5.2.01-10.408.024c-2.741-.008-5.483-.032-8.224-.01-.538,0-.691-.119-.681-.672.031-1.673,0-1.671,1.7-1.674q4.985-.009,9.971-.023" transform="translate(-3.057 -31.334)"/>
        <path id="Path_208587" data-name="Path 208587" d="M14.074,73.759c-1.916,0-3.832-.015-5.747.011-.471.007-.606-.116-.6-.6.006-1.746-.014-1.746,1.7-1.746,3.492,0,6.984.013,10.475-.013.539,0,.69.121.679.672-.03,1.672,0,1.673-1.7,1.673h-4.8" transform="translate(-3.059 -28.283)"/>
        <path id="Path_208588" data-name="Path 208588" d="M33.84,71.394c1.429.008,2.857.031,4.286.017.4,0,.528.1.536.516.033,1.824.049,1.824-1.765,1.824-1.09,0-2.182-.043-3.269.016-.664.036-.925-.161-.812-.823a1.554,1.554,0,0,0-.021-.361,1.288,1.288,0,0,0,.021-.144c.029-.991.029-.991,1.023-1.046" transform="translate(-12.987 -28.275)"/>
        <path id="Path_208589" data-name="Path 208589" d="M89.236,27.043A2.328,2.328,0,1,1,86.9,29.349a2.336,2.336,0,0,1,2.334-2.306" transform="translate(-34.416 -10.71)" fill="#f25244"/>
        <path id="Path_208590" data-name="Path 208590" d="M20.913,21.241c1,0,1.991.016,2.986-.008.379-.009.5.1.5.489q-.034,1.856,0,3.714c.008.4-.15.477-.509.475-1.991-.014-3.981-.018-5.972,0-.409,0-.542-.108-.533-.527q.04-1.82,0-3.641c-.01-.435.156-.522.547-.513.995.023,1.991.008,2.986.008" transform="translate(-6.883 -8.409)" fill="#f25244"/>
        <path id="Path_208591" data-name="Path 208591" d="M26.813,15.089a1.745,1.745,0,1,1,1.8-1.7,1.763,1.763,0,0,1-1.8,1.7" transform="translate(-9.951 -4.594)" fill="#dd4132"/>
        <path id="Path_208592" data-name="Path 208592" d="M17.16,15.089a1.745,1.745,0,1,1,1.8-1.7,1.763,1.763,0,0,1-1.8,1.7" transform="translate(-6.128 -4.594)" fill="#dd4132"/>
        <path id="Path_208593" data-name="Path 208593" d="M35.133,22.483v3.166c-.721-.355-1.4-.663-2.052-1.018a.7.7,0,0,1,.011-1.138,2.374,2.374,0,0,1,.258-.135l1.783-.875" transform="translate(-12.988 -8.904)" fill="#dc4132"/>
      </g>
    </g>
  </g>
</svg>
