<svg xmlns="http://www.w3.org/2000/svg" xmlns:xlink="http://www.w3.org/1999/xlink" width="714.86" height="233" viewBox="0 0 714.86 233">
  <defs>
    <clipPath id="clip-path">
      <rect id="Rectangle_338292" data-name="Rectangle 338292" width="262" height="218" transform="translate(806 3498)" fill="none" stroke="#707070" stroke-width="1"/>
    </clipPath>
    <clipPath id="clip-path-2">
      <path id="Path_204746" data-name="Path 204746" d="M0,0H244V224H87.391s-11.806,8.685-24.1,8.685S38.205,224,38.205,224H0Z" transform="translate(1068 3492)" fill="none" stroke="#707070" stroke-width="1"/>
    </clipPath>
  </defs>
  <g id="_5" data-name="5" transform="translate(-705 -3463.292)">
    <g id="Group_982519" data-name="Group 982519" transform="translate(0 -28.708)">
      <g id="Group_982432" data-name="Group 982432" transform="translate(705 3480)">
        <path id="Rectangle_338258" data-name="Rectangle 338258" d="M61,0H653.86a61,61,0,0,1,61,61v60.685a0,0,0,0,1,0,0H0a0,0,0,0,1,0,0V61A61,61,0,0,1,61,0Z" transform="translate(0 123)" fill="#3c3fa7"/>
      </g>
      <rect id="Rectangle_338291" data-name="Rectangle 338291" width="610" height="9" transform="translate(758 3716)" fill="#fff"/>
      <g id="Mask_Group_420" data-name="Mask Group 420" clip-path="url(#clip-path)">
        <g id="Group_982516" data-name="Group 982516" transform="translate(-42.558 41.217)">
          <g id="Group_982514" data-name="Group 982514" transform="translate(848.233 3463)">
            <g id="Group_982518" data-name="Group 982518">
              <path id="Path_204646" data-name="Path 204646" d="M167.75,181.948l-.339-.615c5.593-3.079,7.53-10.123,6.969-15.739-.631-6.306-3.762-12.084-6.523-17.183-2.979-5.5-6.039-11.152-6.805-17.375-.678-5.515.512-11.048,1.665-16.4.55-2.551,1.119-5.188,1.474-7.787a51.319,51.319,0,0,0-10.242-38.238c-1.642-2.115-3.517-4.21-5.331-6.235-5.5-6.143-11.182-12.493-11.627-20.649l.7-.038c.434,7.909,6.036,14.168,11.451,20.219,1.822,2.035,3.707,4.138,5.362,6.273a52.022,52.022,0,0,1,10.384,38.763c-.361,2.624-.932,5.275-1.484,7.839-1.14,5.294-2.319,10.768-1.653,16.166.749,6.091,3.778,11.685,6.707,17.1,2.81,5.188,5.976,11.032,6.621,17.477.584,5.845-1.456,13.19-7.327,16.424" transform="translate(21.044 6.381)" fill="#e19e2c"/>
              <path id="Path_204647" data-name="Path 204647" d="M187.66,148.684c-5.449-9.02-9.282-19.88-9.381-26.4-.182-12.077,11.82-26.9-4.283-49.367-11.616-16.209-10.621-22.076-10.621-22.076L50.2,42.971S46.64,60.781,39.546,69.986s-18.614,16-12.731,35.961c4.828,16.374-6.318,32.133-12.39,41.076-5.98,8.81-3.446,18.118,3.617,39.712,0,0,5,3.129,9.047,5.319l1.631-9.2c1.541.662,2.831,11.269,4.672,11.83a48.455,48.455,0,0,0,5.88,1.4c-2.785-7.271-3.434-14.757-.561-20.787,10.647-24.633,17.987-49.216,9.87-75.789-5.812-19.935,9.377-35.738,25.851-39.325,23.068-4.8,42,8.262,61.965,16.859,6.644,2.124,15.491,4.214,18.9,10.837,6.8,12.133-5.1,26.773.607,40.035,3.44,8.846,12.371,16.5,15.829,26.456,3.966,9.953,4.237,20.5,1.91,30.872l.351.69a20.861,20.861,0,0,0,18.835-6.025c1.91-1.967,4.381-15.416-5.167-31.224" transform="translate(1.701 6.578)" fill="#e19e2c"/>
              <path id="Path_204648" data-name="Path 204648" d="M168.3,152.216c-3.457-9.959-12.389-17.61-15.829-26.456-5.71-13.262,6.189-27.9-.607-40.035-3.407-6.623-12.254-8.713-18.9-10.837C113,66.291,94.07,53.23,71,58.029,54.526,61.616,39.339,77.419,45.15,97.354c8.117,26.574.776,51.156-9.87,75.789-2.874,6.03-2.224,13.516.561,20.787a48,48,0,0,0,11.249.618l2.84-19.964,5.325,19.9s11.431,6.3,52.056-2.731,47.719-2.43,50.851-9.345-4.545-32.006-4.545-32.006l16.594,32.691c2.328-10.377,2.056-20.919-1.91-30.872" transform="translate(5.133 8.733)" fill="#d38a20"/>
              <path id="Path_204649" data-name="Path 204649" d="M115.1,110.763,114.593,101l-28.677,1.474-.478,8.924c9.886,1.757,19.774,1.2,29.662-.631" transform="translate(13.125 15.491)" fill="#d8a178"/>
              <path id="Path_204650" data-name="Path 204650" d="M138.908,119.235l-21.153-2.75-.681-7.023c-9.888,1.833-19.775,2.389-29.663.632l-.325,6.083s-9.565,4.026-12.978,4.868c.1,15.53-2.7,58.125-.925,73.774l67.682-.179s2-18.486,2.8-25.1c2.555-21.258-4.752-50.306-4.752-50.306" transform="translate(11.151 16.792)" fill="#ebbc8e"/>
              <path id="Path_204651" data-name="Path 204651" d="M76.875,88.476,70.159,71.74s-16.406-4.11-15.546,12.195S72.6,99.3,76.875,88.476" transform="translate(8.384 10.926)" fill="#ebbc8e"/>
              <path id="Path_204652" data-name="Path 204652" d="M125.682,86.061l2.022-17.92s14.722-8.325,18.228,7.622-13.254,19.592-20.251,10.3" transform="translate(19.307 10.111)" fill="#d8a178"/>
              <path id="Path_204653" data-name="Path 204653" d="M130.924,85.412a.326.326,0,0,0,.217-.505c-.048-.072-4.781-7.229.012-11.728a7.24,7.24,0,0,1,5.339-2.248,9.023,9.023,0,0,1,5.6,2.828.327.327,0,0,0,.491-.43,9.532,9.532,0,0,0-6.05-3.05A7.871,7.871,0,0,0,130.7,72.7c-5.2,4.882-.157,12.494-.106,12.57a.327.327,0,0,0,.325.14" transform="translate(19.717 10.772)" fill="#683935"/>
              <path id="Path_204654" data-name="Path 204654" d="M137.805,76.994a.327.327,0,0,0,.1-.614c-.061-.031-6.13-3.073-9.47,1.617a.327.327,0,1,0,.532.38c3.014-4.233,8.583-1.442,8.639-1.414a.321.321,0,0,0,.2.031" transform="translate(19.72 11.557)" fill="#683935"/>
              <path id="Path_204655" data-name="Path 204655" d="M138.774,37.074S146.6,52.56,149.043,76.1c1.9,18.37-10.9,37.871-33.177,41.651-20.938,3.553-43.719-2.664-53.354-31.549S59.748,32.812,85.9,23.462s45.5-4.162,52.878,13.613" transform="translate(8.965 2.878)" fill="#ebbc8e"/>
              <path id="Path_204656" data-name="Path 204656" d="M95.549,84.9c-.606,3.108-5.813,4.708-11.632,3.575s-10.046-4.571-9.44-7.678,5.812-4.707,11.631-3.574S96.153,81.8,95.549,84.9" transform="translate(11.432 11.784)" fill="#d8a178"/>
              <path id="Path_204657" data-name="Path 204657" d="M135.211,79.593c.681,3.066-3.422,6.586-9.164,7.862s-10.949-.175-11.63-3.242,3.422-6.586,9.163-7.862,10.949.175,11.631,3.242" transform="translate(17.565 11.635)" fill="#d8a178"/>
              <path id="Path_204658" data-name="Path 204658" d="M79.129,61.137s-3.26-2.877,3.6-6.513,9.28-2.848,10.4-1.046c1.022,1.643-.543,4.12-4.438,6.083-4.676,2.357-7.793,3.132-9.563,1.477" transform="translate(12.037 7.974)" fill="#d99e2e"/>
              <path id="Path_204659" data-name="Path 204659" d="M130.682,59.885s2.438-3.309-5.157-5.768-9.745-1.317-10.376.609c-.575,1.758,1.577,3.92,5.862,5.219,5.144,1.561,8.371,1.825,9.671-.06" transform="translate(17.675 8.075)" fill="#d99e2e"/>
              <path id="Path_204660" data-name="Path 204660" d="M123.317,69.945c.007,2.206-1.454,4-3.264,4.005s-3.283-1.778-3.291-3.983,1.455-4,3.264-4.005,3.284,1.778,3.291,3.983" transform="translate(17.937 10.11)"/>
              <path id="Path_204661" data-name="Path 204661" d="M91.993,69.945c.008,2.206-1.454,4-3.264,4.005s-3.283-1.778-3.291-3.983,1.455-4,3.264-4.005,3.284,1.778,3.291,3.983" transform="translate(13.125 10.11)"/>
              <path id="Path_204662" data-name="Path 204662" d="M71.113,89.288a.327.327,0,0,1-.344-.429c.028-.082,2.687-8.239-3.129-11.3A7.237,7.237,0,0,0,61.9,76.81a9.023,9.023,0,0,0-4.642,4.213.327.327,0,0,1-.588-.285,9.522,9.522,0,0,1,5.021-4.548,7.871,7.871,0,0,1,6.26.788c6.309,3.324,3.474,12,3.444,12.09a.326.326,0,0,1-.276.22" transform="translate(8.7 11.629)" fill="#683935"/>
              <path id="Path_204663" data-name="Path 204663" d="M61.72,83.1a.327.327,0,0,1-.255-.565c.05-.047,5.092-4.594,9.559-.96a.327.327,0,0,1-.412.508c-4.032-3.279-8.658.892-8.7.933a.325.325,0,0,1-.188.084" transform="translate(9.426 12.292)" fill="#683935"/>
              <path id="Path_204664" data-name="Path 204664" d="M108.968,81.764a.325.325,0,0,1-.137-.619,8.763,8.763,0,0,0,3.76-3.547c.9-1.826.606-4.563-.608-5.743a2.286,2.286,0,0,0-2.856-.164c-.036.018-.092.053-.17.1-3.983,2.33-5.785,1.3-6.6.016-1.489-2.349-.27-20.936-.126-23.048a.325.325,0,0,1,.648.045c-.389,5.679-1.137,20.82.025,22.656.958,1.51,2.884,1.435,5.724-.228.088-.051.153-.09.2-.112a2.917,2.917,0,0,1,3.609.272c1.415,1.376,1.762,4.411.738,6.495a9.254,9.254,0,0,1-4.071,3.851.322.322,0,0,1-.133.03" transform="translate(15.611 7.42)" fill="#683935"/>
              <path id="Path_204665" data-name="Path 204665" d="M103.979,87.923c2.118.692,3.775-.442,4.936-1.816A28.03,28.03,0,0,0,99.66,82.4c.509,2,1.667,4.658,4.319,5.525" transform="translate(15.309 12.635)" fill="#cc555f"/>
              <path id="Path_204666" data-name="Path 204666" d="M99.319,80.3a13.5,13.5,0,0,0,.393,2.418,28.03,28.03,0,0,1,9.255,3.709,12.732,12.732,0,0,0,1.951-3.306c-3.955-2.846-11.6-2.821-11.6-2.821" transform="translate(15.257 12.313)"/>
              <path id="Path_204667" data-name="Path 204667" d="M61.653,81.925s41.419-12.259,49.233-46.289c0,0,36.052,46.671,49.1,33.044,0,0,4.711-41.154-23.159-52.5-15.29-6.221-27.1-2.961-27.1-2.961-20.532-2.831-33.01-5.264-54.552,13.891-22.182,19.722-16.16,65.23,6.481,54.811" transform="translate(6.341 1.714)" fill="#e19e2c"/>
              <path id="Path_204668" data-name="Path 204668" d="M18.264,185.544A43.146,43.146,0,0,1,13.426,146a87.381,87.381,0,0,1,4.812-9.959c2.834-5.286,5.766-10.753,6.553-16.726.652-4.95-.19-10.122-1.006-15.123-1.1-6.772-2.243-13.773.4-20.162,2.17-5.25,6.517-9.093,10.722-12.81a68.519,68.519,0,0,0,6.843-6.637,33.067,33.067,0,0,0,7.6-24.3l.7-.07a33.777,33.777,0,0,1-7.762,24.821,69.12,69.12,0,0,1-6.912,6.707C31.035,75.576,26.941,79.2,24.831,84.3c-2.566,6.205-1.492,12.8-.354,19.781.823,5.052,1.673,10.274,1.008,15.327-.8,6.1-3.765,11.625-6.63,16.966a87.064,87.064,0,0,0-4.775,9.877,42.438,42.438,0,0,0,4.759,38.9Z" transform="translate(1.641 6.155)" fill="#e19e2c"/>
              <path id="Path_204669" data-name="Path 204669" d="M42.26,85.18c-.661,0-1.32-.009-1.981-.029l.02-.7A71.609,71.609,0,0,0,88.13,67.676a71.627,71.627,0,0,0,24.345-44.457l.7.093a72.343,72.343,0,0,1-24.588,44.9A72.4,72.4,0,0,1,42.26,85.18" transform="translate(6.187 3.544)" fill="#e19e2c"/>
              <path id="Path_204670" data-name="Path 204670" d="M149.175,66.937A78.731,78.731,0,0,1,92.5,15.4l.666-.217a78.015,78.015,0,0,0,56.163,51.074Z" transform="translate(14.209 2.309)" fill="#e19e2c"/>
              <path id="Path_204671" data-name="Path 204671" d="M86.642,186.7c6.381-.546,12.771-.991,19.181-1.147,11.772-.287,24.785.082,37.141,2.594-.76-2.959-1.234-4.672-1.234-4.672l-67.682-.18c-.689.769-1.432,1.68-2.21,2.706q7.4.277,14.8.7" transform="translate(11.035 28.134)" fill="#42354c"/>
              <path id="Path_204672" data-name="Path 204672" d="M105.383,185.306a2.185,2.185,0,0,0-3.507.058q1.739-.038,3.507-.058" transform="translate(15.65 28.312)" fill="#2f2537"/>
              <path id="Path_204673" data-name="Path 204673" d="M116.367,118.767c9.976,1.812,19.776,5.479,25.3,12.6,8.224,13.172,19.027,28.2,19.027,28.2l11.288-34.53s6.115-12.564,9.146-12.762.045,5.7.045,5.7,10.257-10.473,11.748-8.476-6.593,9.9-6.593,9.9,11.091-8.544,12.293-5.341c.633,1.914-9.529,8.168-9.529,8.168s10.62-5.55,11.413-3.561-9.626,6.88-9.626,6.88,8.889-3.394,9.563-1.291c.572,1.782-9.25,7.3-15.185,9.829-1.086,11.367-5.455,43.369-20.63,50.647-16.068,7.707-32.15-24.652-36.147-33.406" transform="translate(17.876 16.758)" fill="#ebbc8e"/>
              <path id="Path_204674" data-name="Path 204674" d="M153.3,157.983a.254.254,0,0,1-.1-.02.26.26,0,0,1-.147-.339c.028-.068,2.783-7.006,4.038-10.845a.261.261,0,1,1,.5.163c-1.26,3.854-4.022,10.807-4.049,10.876a.262.262,0,0,1-.242.165" transform="translate(23.509 22.497)" fill="#683935"/>
              <path id="Path_204675" data-name="Path 204675" d="M124.43,117.689s4.716-4.978,7.336-4.978-1.047,6.288.262,8.646,4.978.786,5.24,4.191-3.929,5.241-.786,8.384,6.55,4.454,4.716,7.336a34.55,34.55,0,0,0-3.144,7.6Z" transform="translate(19.114 17.291)" fill="#7671af"/>
              <path id="Path_204676" data-name="Path 204676" d="M63.239,195.314c15.8-42.16,29.177-55.586,29.177-55.586l-9.2-14.522a10.858,10.858,0,0,0-5.888-4.538c-4.426-1.405-11.264.766-15.91,8.893-10.928,20.194-17.864,45.113-22.139,65.765q11.976-.232,23.961-.013" transform="translate(6.034 18.452)" fill="#ebbc8e"/>
              <path id="Path_204677" data-name="Path 204677" d="M65.154,155.062l9.17,38.9c7.368,1.817,18.067,2.318,28.791,2.209,1.245-.051,2.49-.1,3.735-.132,1.6-.039,3.221-.063,4.859-.075,16.173-.593,30.3-2.182,30.3-2.182s6.445-26.4,6.266-38.068c-.262-17.161-11.069-38.908-13.951-39.17s-13.756-.72-13.756-.72c-18.34,4.454-32.338-.505-32.338-.505a49.474,49.474,0,0,0-18.457,1.389s7.7,7.565,7.172,22.5-11.79,15.851-11.79,15.851" transform="translate(10.009 17.646)" fill="#7671af"/>
              <path id="Path_204678" data-name="Path 204678" d="M95.005,173.384a.311.311,0,0,1-.155-.58,54.745,54.745,0,0,0,23.711-27.3.312.312,0,0,1,.579.231A55.375,55.375,0,0,1,95.16,173.344a.3.3,0,0,1-.155.04" transform="translate(14.547 22.299)" fill="#4d4b82"/>
              <path id="Path_204679" data-name="Path 204679" d="M104.47,182.423a.311.311,0,0,1-.225-.526,60.047,60.047,0,0,0,14.09-24.488.312.312,0,0,1,.6.173A60.669,60.669,0,0,1,104.7,182.326a.307.307,0,0,1-.225.1" transform="translate(16.001 24.123)" fill="#4d4b82"/>
              <path id="Path_204680" data-name="Path 204680" d="M70.05,116.726s-4.88-3.307-6.452-.949,4.716,6.55,6.026,8.121-4.716,3.669-3.93,6.55,6.027,4.454,5.5,8.123-5.765,5.763-5.765,8.383v8.123s11.528.262,12.052-14.673-7.434-23.678-7.434-23.678" transform="translate(9.731 17.632)" fill="#7671af"/>
              <path id="Path_204681" data-name="Path 204681" d="M173.2,130.864a.236.236,0,0,1-.04,0,.262.262,0,0,1-.218-.3,20.733,20.733,0,0,0-1.191-10.731.261.261,0,0,1,.486-.192,21.266,21.266,0,0,1,1.221,11,.26.26,0,0,1-.257.22" transform="translate(26.381 18.331)" fill="#683935"/>
            </g>
          </g>
          <g id="Group_982515" data-name="Group 982515" transform="translate(0 -22.706)">
            <g id="Group_982513" data-name="Group 982513">
              <path id="Path_204741" data-name="Path 204741" d="M218.109,19.435H163.673c-3.347,0-6.916.163-6.916,5.036s-.756,35.212-.084,39.806c.557,3.817,2.538,5.672,10.793,5.835s45.515-.115,49.751,0c2.676.073,7.7.073,8.031-5.684.34-5.863.248-33.866.213-39.143.035-6.254-7.353-5.848-7.353-5.848" transform="translate(872.258 3466.276)" fill="#e28279"/>
              <path id="Path_204742" data-name="Path 204742" d="M187.775,61.132s-.434,8.686-3.908,15.2c0,0,11.075-1.954,14.549-16.721Z" transform="translate(876.479 3472.449)" fill="#e28279"/>
            </g>
            <path id="Path_204743" data-name="Path 204743" d="M213.23,29.9H165.939c-.323,0-.668.01-.668.33s-.074,2.307-.008,2.608c.053.249.245.371,1.042.382s46.428-.006,46.838,0c.26,0,.744,0,.776-.373s.024-2.218.021-2.564c0-.41-.709-.383-.709-.383" transform="translate(873.616 3467.884)" fill="#fff"/>
            <path id="Path_204744" data-name="Path 204744" d="M213.23,40.836H165.939c-.323,0-.668.01-.668.33s-.074,2.307-.008,2.608c.053.249.245.371,1.042.382s46.428-.006,46.838,0c.26,0,.744,0,.776-.373s.024-2.218.021-2.564c0-.41-.709-.383-.709-.383" transform="translate(873.616 3469.564)" fill="#fff"/>
            <path id="Path_204745" data-name="Path 204745" d="M213.23,52.27H165.939c-.323,0-.668.01-.668.33s-.074,2.307-.008,2.608c.053.249.245.371,1.042.382s46.428-.006,46.838,0c.26,0,.744,0,.776-.373s.024-2.218.021-2.564c0-.41-.709-.383-.709-.383" transform="translate(873.616 3471.32)" fill="#fff"/>
          </g>
        </g>
      </g>
      <g id="Mask_Group_421" data-name="Mask Group 421" clip-path="url(#clip-path-2)">
        <g id="Group_982511" data-name="Group 982511" transform="translate(817.233 3447.088)">
          <g id="Group_982508" data-name="Group 982508" transform="translate(251.158 93.634)">
            <g id="Group_982512" data-name="Group 982512" transform="translate(0 0)">
              <path id="Path_204689" data-name="Path 204689" d="M225.609,78.362H283.76c3.575,0,7.388.174,7.388,5.379s.807,37.615.09,42.523c-.6,4.078-2.711,6.06-11.53,6.233s-48.622-.123-53.146,0c-2.86.078-8.222.078-8.58-6.072-.365-6.263-.266-36.177-.229-41.815-.037-6.681,7.855-6.247,7.855-6.247" transform="translate(-217.713 -78.356)" fill="#e19e2c"/>
              <path id="Path_204690" data-name="Path 204690" d="M266.239,120.163s.463,9.278,4.175,16.238c0,0-11.831-2.088-15.541-17.862Z" transform="translate(-209.079 -69.019)" fill="#e19e2c"/>
              <path id="Path_204691" data-name="Path 204691" d="M231.618,116.575c.672,0,4.852.075,5.485.009.526-.055.781-.255.8-1.083s-.016-4.566,0-4.991c.01-.269.01-.771-.783-.806-.808-.033-4.667-.025-5.394-.021a.7.7,0,0,0-.806.738v5.461c0,.335.022.694.694.694" transform="translate(-214.644 -71.078)" fill="#fff"/>
              <path id="Path_204692" data-name="Path 204692" d="M245.015,110.421v5.461c0,.336.022.694.694.694s4.852.076,5.485.009c.526-.055.781-.254.8-1.082s-.016-4.567,0-4.991c.01-.269.01-.773-.783-.806-.808-.035-4.667-.025-5.394-.021a.7.7,0,0,0-.806.737" transform="translate(-211.369 -71.078)" fill="#fff"/>
              <path id="Path_204693" data-name="Path 204693" d="M259.107,110.421v5.461c0,.336.021.694.693.694s4.853.076,5.485.009c.526-.055.781-.254.8-1.082s-.016-4.567,0-4.991c.01-.269.01-.773-.783-.806s-4.667-.025-5.394-.021a.7.7,0,0,0-.8.737" transform="translate(-208.095 -71.078)" fill="#fff"/>
              <path id="Path_204694" data-name="Path 204694" d="M231.618,110.594c.672,0,4.852.076,5.485.009.526-.057.781-.255.8-1.083s-.016-22.345,0-22.77c.01-.269.01-.771-.783-.806-.808-.035-4.667-.025-5.394-.021a.7.7,0,0,0-.806.737V109.9c0,.335.022.694.694.694" transform="translate(-214.644 -76.599)" fill="#fff"/>
              <path id="Path_204695" data-name="Path 204695" d="M245.015,86.659V109.9c0,.335.022.694.694.694s4.852.075,5.485.007c.526-.055.781-.254.8-1.082s-.016-22.345,0-22.77c.01-.269.01-.773-.783-.806-.808-.035-4.667-.026-5.394-.022a.7.7,0,0,0-.806.738" transform="translate(-211.369 -76.6)" fill="#fff"/>
              <path id="Path_204696" data-name="Path 204696" d="M259.107,86.659V109.9c0,.335.021.694.693.694s4.853.075,5.485.007c.526-.055.781-.254.8-1.082s-.016-22.345,0-22.77c.01-.269.01-.773-.783-.806s-4.667-.026-5.394-.022a.7.7,0,0,0-.8.738" transform="translate(-208.095 -76.6)" fill="#fff"/>
            </g>
          </g>
          <g id="Group_982510" data-name="Group 982510" transform="translate(253.256 42.911)">
            <g id="Group_982517" data-name="Group 982517">
              <path id="Path_204697" data-name="Path 204697" d="M278.387,204.506c-.907,1.425-1.433,2.254-1.433,2.254l-7.848-21.073-1.234-4.539s-4.466-12.082-4.981-15.354c-.612-3.892,2.779-15.322,2.419-19.755-.325-4.026-5.617.576-7.845,2.7-5.141-2.988-22.517-8.291-24.062-5.833-1.381,2.195,8.776,6.315,12.265,7.649l-.047.014c-4.191-1.437-18.011-5.918-18.685-2.747-.253,1.623,8.834,4.754,13.63,6.289-.032.07-.067.137-.1.209-5.112-1.125-15.063-3.08-15.483-1.342-.441,1.821,9.933,4.513,14.581,5.623,0,.03,0,.063,0,.092-4.8-.869-15.783-2.651-15.743-.748.051,2.555,11.243,5.4,15.621,6.532l.365-.291a77.481,77.481,0,0,0,2.616,12.016s1,28.343,10.292,53.019c7.13,18.945,37.572,23.008,57.984-.757-13.406-4.3-25.536-11.661-32.311-23.962" transform="translate(-218.393 -12.78)" fill="#e6a07e"/>
              <path id="Path_204698" data-name="Path 204698" d="M300.41,224.9a65.435,65.435,0,0,0,9.315-14.429L305.4,157.639a44.046,44.046,0,0,0-20.682,17.194c-6.382,10-13.615,21.373-16.623,26.105,6.778,12.3,18.908,19.659,32.313,23.962" transform="translate(-208.104 -9.211)" fill="#dc8765"/>
              <path id="Path_204699" data-name="Path 204699" d="M241.561,155.744s9.747-.283,10.519,6.461" transform="translate(-214.27 -9.651)" fill="none" stroke="#683935" stroke-miterlimit="10" stroke-width="0.642"/>
              <path id="Path_204700" data-name="Path 204700" d="M403.038,74.276s3.829,35.014-7.908,49.773-20.391,19.275-35.6,21.805-57.861-5.149-62.806-14.4S283.74,93.86,289.075,75.1s113.963-.82,113.963-.82" transform="translate(-203.639 -30.379)" fill="#050504"/>
              <path id="Path_204701" data-name="Path 204701" d="M316.012,143.186s5.462-3.059,22.285-2.622,19.227.656,19.227.656l-12.891,21.412-23.16-7.429Z" transform="translate(-196.971 -13.188)" fill="#486f6c"/>
              <path id="Path_204702" data-name="Path 204702" d="M353.03,142.871l.282-16.442-34.677,4.582.407,15.709c11.709,1.786,23.093.02,33.989-3.849" transform="translate(-196.361 -16.463)" fill="#dc8765"/>
              <path id="Path_204703" data-name="Path 204703" d="M352.954,139.771c-10.9,3.868-22.28,5.634-33.989,3.849l.06,2.334s-1.109,25.353,16.724,27.06,17.1-27.334,17.1-27.334Z" transform="translate(-196.284 -13.363)" fill="#e6a07e"/>
              <path id="Path_204704" data-name="Path 204704" d="M307.682,117.572l-.046-18.764s-14.274-10.29-19.724,5.8,11.471,21.773,19.77,12.962" transform="translate(-203.746 -23.634)" fill="#dc8765"/>
              <path id="Path_204705" data-name="Path 204705" d="M301.042,115.984a.334.334,0,0,1-.127-.068.34.34,0,0,1-.039-.479c.058-.069,5.77-6.93,1.327-12.13a7.531,7.531,0,0,0-5.266-2.934,9.381,9.381,0,0,0-6.108,2.285.34.34,0,0,1-.46-.5,9.908,9.908,0,0,1,6.6-2.462,8.183,8.183,0,0,1,5.746,3.172c4.819,5.642-1.264,12.939-1.326,13.011a.34.34,0,0,1-.352.107" transform="translate(-202.955 -22.678)" fill="#634927"/>
              <path id="Path_204706" data-name="Path 204706" d="M293.986,106.1a.34.34,0,0,1-.028-.646c.065-.025,6.689-2.478,9.609,2.754a.34.34,0,0,1-.594.332c-2.634-4.721-8.712-2.472-8.773-2.45a.334.334,0,0,1-.213.01" transform="translate(-202.146 -21.475)" fill="#634927"/>
              <path id="Path_204707" data-name="Path 204707" d="M295.886,73.676s-.744,20.043-.548,43.78c.157,19.215,15.682,37.887,39.155,39.2,22.064,1.234,44.893-7.849,51.489-38.838s1.513-56.261-26.613-62.883-56.121-5.18-63.483,18.741" transform="translate(-201.782 -33.867)" fill="#e6a07e"/>
              <path id="Path_204708" data-name="Path 204708" d="M322.128,63.994c.12-.168.2-.262.2-.262s-.07.1-.2.262" transform="translate(-195.55 -31.031)" fill="#e09f25"/>
              <path id="Path_204709" data-name="Path 204709" d="M359.57,92.783s3.721-4.329-4.275-9.627-10.776-4.091-12.04-1.4c-1.153,2.46.7,6.116,5.235,8.974,5.445,3.432,9.062,4.536,11.08,2.049" transform="translate(-190.718 -27.377)" fill="#050504"/>
              <path id="Path_204710" data-name="Path 204710" d="M303.323,89.477s-2.9-4.918,5.907-8.72,11.33-2.125,12.1.753c.7,2.624-1.768,5.9-6.74,7.908-5.966,2.415-9.721,2.863-11.266.059" transform="translate(-200.025 -27.589)" fill="#050504"/>
              <path id="Path_204711" data-name="Path 204711" d="M341.477,101.647c.021,2.313,1.576,4.174,3.474,4.157s3.42-1.905,3.4-4.218-1.576-4.174-3.474-4.157-3.42,1.905-3.4,4.218" transform="translate(-191.054 -23.201)"/>
              <path id="Path_204712" data-name="Path 204712" d="M307.533,101.043c.021,2.313,1.576,4.174,3.474,4.157s3.42-1.905,3.4-4.218-1.576-4.174-3.474-4.157-3.42,1.905-3.4,4.218" transform="translate(-198.941 -23.342)"/>
              <path id="Path_204713" data-name="Path 204713" d="M324.67,114.4a.34.34,0,0,0,.136-.651,9.183,9.183,0,0,1-3.988-3.671c-.964-1.9-.7-4.777.563-6.03a2.4,2.4,0,0,1,2.992-.208c.038.02.1.054.18.1,4.206,2.393,6.084,1.284,6.92-.068,1.532-2.482.012-21.956-.165-24.168a.345.345,0,0,0-.366-.312.34.34,0,0,0-.312.367c.479,5.95,1.462,21.815.264,23.755-.985,1.6-3.006,1.543-6.005-.165-.091-.052-.161-.092-.206-.115a3.06,3.06,0,0,0-3.781.333c-1.468,1.46-1.791,4.647-.69,6.819a9.709,9.709,0,0,0,4.318,3.985.335.335,0,0,0,.14.03" transform="translate(-196.147 -27.392)" fill="#634927"/>
              <path id="Path_204714" data-name="Path 204714" d="M338.64,116.823c.669,3.225,6.108,4.823,12.147,3.57s10.392-4.884,9.723-8.109-6.108-4.823-12.147-3.57-10.392,4.884-9.723,8.109" transform="translate(-191.729 -20.678)" fill="#dc8765"/>
              <path id="Path_204715" data-name="Path 204715" d="M320.2,116.592c-.755,3.207-6.234,4.66-12.239,3.245s-10.258-5.159-9.5-8.365,6.235-4.658,12.239-3.245,10.259,5.159,9.5,8.365" transform="translate(-201.07 -20.818)" fill="#dc8765"/>
              <path id="Path_204716" data-name="Path 204716" d="M319.336,42.482c21.984-4.186,42.783,4.4,50.532,8.183-.613-4.6,1.543-9.892,3.082-9.872,2.036.027,1.489,8.99,1.273,11.73l.244.049c.895-2.03,3.6-7.427,6.332-5.424,1.857,1.365-.433,4.167-2.825,6.381,7.085,2.391,23.559,7.07,25.254,26.73,2.009,23.3-8.3,34.146-8.3,34.146s-3,.76-14.051-3.541c-3.34-1.3-12.348-47.208-24.619-35.434-26.069,25.011-38.929,22.223-61.247,26.312-7.853,1.438-4.965,6.6-7.909-8.375s4.434-45.59,32.236-50.886" transform="translate(-203.829 -36.362)" fill="#050504"/>
              <path id="Path_204717" data-name="Path 204717" d="M358.562,113.431l4.994-18.087s16.483-6.162,17.495,10.8-16.808,17.978-22.488,7.289" transform="translate(-187.084 -23.939)" fill="#e6a07e"/>
              <path id="Path_204718" data-name="Path 204718" d="M363.512,113.3a.341.341,0,0,0,.309-.481c-.037-.083-3.664-8.24,2.027-12.034a7.531,7.531,0,0,1,5.865-1.389,9.382,9.382,0,0,1,5.255,3.862.34.34,0,0,0,.579-.357,9.915,9.915,0,0,0-5.684-4.168,8.181,8.181,0,0,0-6.392,1.486c-6.174,4.116-2.308,12.794-2.269,12.882a.34.34,0,0,0,.309.2" transform="translate(-186.291 -22.935)" fill="#634927"/>
              <path id="Path_204719" data-name="Path 204719" d="M371.883,105.6a.34.34,0,0,0,.2-.612c-.057-.043-5.761-4.207-10,.032a.34.34,0,1,0,.481.481c3.82-3.825,9.057-.006,9.108.033a.346.346,0,0,0,.2.067" transform="translate(-186.287 -21.88)" fill="#634927"/>
              <path id="Path_204720" data-name="Path 204720" d="M305.8,126.5a20.566,20.566,0,1,1,21.146-19.967A20.589,20.589,0,0,1,305.8,126.5m1.149-40.021A19.472,19.472,0,1,0,325.852,106.5a19.494,19.494,0,0,0-18.906-20.023" transform="translate(-203.986 -26.002)" fill="#1c1d27"/>
              <path id="Path_204721" data-name="Path 204721" d="M351.4,127.807a20.566,20.566,0,1,1,21.146-19.967A20.589,20.589,0,0,1,351.4,127.807m1.149-40.021a19.472,19.472,0,1,0,18.9,20.023,19.5,19.5,0,0,0-18.9-20.023" transform="translate(-193.389 -25.698)" fill="#1c1d27"/>
              <path id="Path_204722" data-name="Path 204722" d="M335.117,101.674a.548.548,0,0,1-.274-.083c-7.691-4.806-15.751-.5-15.832-.455a.547.547,0,1,1-.525-.959c.086-.046,8.71-4.652,16.936.486a.547.547,0,0,1-.306,1.011" transform="translate(-196.462 -23.014)" fill="#1c1d27"/>
              <path id="Path_204723" data-name="Path 204723" d="M329.42,120.035c-2.317.757-4.13-.484-5.4-1.987a30.662,30.662,0,0,1,10.125-4.057c-.557,2.194-1.825,5.1-4.725,6.044" transform="translate(-195.11 -19.353)" fill="#cc555f"/>
              <path id="Path_204724" data-name="Path 204724" d="M334.978,111.845a14.757,14.757,0,0,1-.43,2.645,30.656,30.656,0,0,0-10.124,4.057,13.94,13.94,0,0,1-2.136-3.616c4.327-3.114,12.69-3.086,12.69-3.086" transform="translate(-195.512 -19.851)"/>
              <path id="Path_204725" data-name="Path 204725" d="M402.869,224.763c3.626-.209,7.3-.262,10.962-.121-.356-3.067-.752-6.065-1.214-9.237-.59-4.052-1.274-8.106-1.942-11.641-8.656,7.1-18.3,11.244-28.6,14.144l1.258,8.464c6.5-.616,12.993-1.232,19.533-1.609" transform="translate(-181.619 1.507)" fill="#e6a07e"/>
              <path id="Path_204726" data-name="Path 204726" d="M380.863,209.871l1.5,10.078c10.293-2.9,19.941-7.043,28.6-14.144-.884-4.672-1.738-8.45-2.414-10.814Z" transform="translate(-181.902 -0.531)" fill="#dc8765"/>
              <path id="Path_204727" data-name="Path 204727" d="M303.6,212.153l.654,29.027,79.916,1.157,25.284-1.157-3.2-25.094s16.167-3.932,27.966-23.159c0,0-14.857-32.336-21.412-35.831s-38.016-8.74-38.016-8.74l-21.193,1.093-2.839,11.142s-3.934-10.268-4.37-11.361-27.859.01-27.859.01-15.881.245-22.955,5.344C286.8,160,276.168,180.8,270.856,186.747c0,0-2.65,15.356,32.745,25.406" transform="translate(-207.474 -11.368)" fill="#3a71a1"/>
              <path id="Path_204728" data-name="Path 204728" d="M380.722,207.683l.327,4.6s20.755-5.462,31.679-18.57c0,0-.436-7.429-4.04-9.186a101.783,101.783,0,0,1-27.966,23.16" transform="translate(-181.934 -2.964)" fill="#2f658e"/>
              <path id="Path_204729" data-name="Path 204729" d="M305.074,204.966v7.193a71.191,71.191,0,0,1-36.864-23.465s.438-7.429,4.041-9.186c0,0,14.8,15.18,32.823,25.458" transform="translate(-208.078 -4.129)" fill="#2f658e"/>
              <path id="Path_204730" data-name="Path 204730" d="M337.583,150.548s-18.352-6.772-19.882-7.864a92.782,92.782,0,0,0-8.958,10.924s14.857,14.42,19.664,15.512Z" transform="translate(-198.66 -12.686)" fill="#2f658e"/>
              <path id="Path_204731" data-name="Path 204731" d="M338,150.7s12.891-8.521,14.42-9.614a56.34,56.34,0,0,1,12.017,11.8s-12.454,15.294-17.261,16.387Z" transform="translate(-191.862 -13.057)" fill="#2f658e"/>
              <path id="Path_204732" data-name="Path 204732" d="M336.515,239.728l-.515-81.4a.259.259,0,0,0-.259-.258h0a.259.259,0,0,0-.258.261L336,239.74l.519-.012" transform="translate(-192.447 -9.11)" fill="#2f658e"/>
              <path id="Path_204733" data-name="Path 204733" d="M346.594,180.956l25.966-1.443a2.978,2.978,0,0,1,3.114,2.56l2.884,20.544a2.98,2.98,0,0,1-1.056,2.714L365.5,215.217a2.979,2.979,0,0,1-3.335.307l-17.2-9.514a2.977,2.977,0,0,1-1.536-2.659l.354-19.475a2.977,2.977,0,0,1,2.812-2.919" transform="translate(-190.6 -4.129)" fill="#2f658e"/>
              <rect id="Rectangle_338290" data-name="Rectangle 338290" width="31.91" height="1.038" transform="matrix(1, -0.027, 0.027, 1, 153.218, 180.83)" fill="#3a71a1"/>
              <path id="Path_204734" data-name="Path 204734" d="M341.36,240.371l-1.46-79.786,1.95-5.527a.258.258,0,0,0-.158-.33.262.262,0,0,0-.332.158l-1.966,5.572a.289.289,0,0,0-.015.091l1.462,79.835.519-.012" transform="translate(-191.541 -9.89)" fill="#2f658e"/>
              <path id="Path_204735" data-name="Path 204735" d="M336.524,158.718c-5.486,0-8.309-2-8.474-2.117a.26.26,0,1,1,.307-.419c.055.041,5.722,4.029,16.593.617a.26.26,0,0,1,.155.5,28.67,28.67,0,0,1-8.581,1.423" transform="translate(-194.198 -9.561)" fill="#486f6c"/>
              <path id="Path_204736" data-name="Path 204736" d="M339.676,161.969a1.638,1.638,0,1,1-1.639-1.639,1.639,1.639,0,0,1,1.639,1.639" transform="translate(-192.233 -8.585)" fill="#2f658e"/>
              <path id="Path_204737" data-name="Path 204737" d="M339.676,177.571a1.638,1.638,0,1,1-1.639-1.639,1.639,1.639,0,0,1,1.639,1.639" transform="translate(-192.233 -4.96)" fill="#2f658e"/>
              <path id="Path_204738" data-name="Path 204738" d="M339.363,194.259a1.639,1.639,0,1,1-.1-2.316,1.639,1.639,0,0,1,.1,2.316" transform="translate(-192.206 -1.34)" fill="#2f658e"/>
              <path id="Path_204739" data-name="Path 204739" d="M339.775,212.542a1.639,1.639,0,1,1-.1-2.316,1.64,1.64,0,0,1,.1,2.316" transform="translate(-192.11 2.908)" fill="#2f658e"/>
            </g>
          </g>
        </g>
      </g>
    </g>
  </g>
</svg>
