<svg xmlns="http://www.w3.org/2000/svg" xmlns:xlink="http://www.w3.org/1999/xlink" width="103" height="103" viewBox="0 0 103 103">
  <defs>
    <clipPath id="clip-path">
      <rect id="Rectangle_338509" data-name="Rectangle 338509" width="84.769" height="84.771" fill="none"/>
    </clipPath>
  </defs>
  <g id="_7" data-name="7" transform="translate(-407 -2725)">
    <rect id="Rectangle_338510" data-name="Rectangle 338510" width="103" height="103" rx="11" transform="translate(407 2725)" fill="#3c3fa7"/>
    <g id="Group_983023" data-name="Group 983023" transform="translate(416 2734)">
      <g id="Group_983022" data-name="Group 983022" transform="translate(0 0)" clip-path="url(#clip-path)">
        <path id="Path_207716" data-name="Path 207716" d="M71.606.022,68.881,8.231h5.5L71.36,16.715a3.185,3.185,0,0,1-.172.481c-.279.5-.069.584.422.624a9.372,9.372,0,0,1,8.126,5.5,8.666,8.666,0,0,1,.641,6.145c-.159.609.018.751.544.921a5.44,5.44,0,0,1-1.674,10.637q-27.288.014-54.577,0a5.4,5.4,0,0,1-5.479-4.832c-.075-.606-.3-.64-.776-.638-4.328.014-8.655.023-12.982,0a5.459,5.459,0,0,1-3.014-10,6.018,6.018,0,0,1,3.907-.925.793.793,0,0,0,.925-.6c1.053-2.513,3.17-3.869,5.565-4.847a20.293,20.293,0,0,1,8.524-1.37c.573.021.8-.077.951-.7A14.918,14.918,0,0,1,37.717,5.525a14.443,14.443,0,0,1,11.379,6.3c.346.479.578.582,1.145.339a13.413,13.413,0,0,1,7.578-1.049c.593.1.78-.14.929-.645C59.7,7.233,60.693,4,61.638.763c.156-.535.325-.771.956-.762,2.98.046,5.962.021,9.013.021" transform="translate(0 0)"/>
        <path id="Path_207717" data-name="Path 207717" d="M109.375,77.555c.206.191.392.355.568.529,1.378,1.365,1.377,1.365.021,2.722q-7.246,7.247-14.482,14.5c-.429.433-.651.513-1.116.027-1.371-1.431-1.4-1.407-.009-2.795L108.79,78.11c.179-.179.367-.349.584-.555" transform="translate(-26.976 -22.417)"/>
        <path id="Path_207718" data-name="Path 207718" d="M73.659,99.836a6.226,6.226,0,0,0-.491-.645c-1.342-1.349-1.344-1.346-.029-2.661,4.811-4.81,9.633-9.609,14.417-14.447.574-.581.856-.507,1.362.03,1.218,1.289,1.243,1.265.016,2.493L74.321,99.218c-.178.178-.368.343-.662.617" transform="translate(-20.857 -23.609)"/>
        <path id="Path_207719" data-name="Path 207719" d="M14.037,74.539c-.308-.355-.571-.694-.869-1-.969-.985-.974-.98-.014-1.939q5.407-5.407,10.8-10.823c.4-.4.653-.516,1.052-.021s1.211.927,1.251,1.431c.041.53-.789.957-1.248,1.418q-5.154,5.174-10.326,10.333c-.177.177-.368.341-.648.6" transform="translate(-3.595 -17.467)"/>
        <path id="Path_207720" data-name="Path 207720" d="M93.714,62.218c-.15.16-.262.286-.38.4q-5.726,5.728-11.446,11.462c-.334.336-.514.354-.866.011-1.534-1.5-1.546-1.483-.063-2.967,3.436-3.436,6.881-6.864,10.3-10.321.444-.45.705-.525,1.113,0A13.783,13.783,0,0,0,93.444,61.9c.093.1.171.2.27.323" transform="translate(-23.083 -17.47)"/>
        <path id="Path_207721" data-name="Path 207721" d="M54.407,82.282a7.314,7.314,0,0,0-.582-.772c-1.229-1.246-1.233-1.241,0-2.477,3.5-3.5,7-6.983,10.477-10.5.472-.478.717-.478,1.177,0,1.328,1.386,1.35,1.365-.015,2.731Q60.284,76.448,55.1,81.632c-.178.179-.368.347-.692.651" transform="translate(-15.292 -19.705)"/>
        <path id="Path_207722" data-name="Path 207722" d="M32.071,83.619a1.088,1.088,0,0,0-.275.191q-5.714,5.7-11.414,11.421c-.32.321-.495.4-.867.036-1.545-1.507-1.56-1.491-.016-3.034,3.383-3.383,6.783-6.749,10.133-10.164.574-.585.9-.546,1.36.036.281.355.64.647.956.975.09.094.241.169.123.54" transform="translate(-5.304 -23.6)"/>
        <path id="Path_207723" data-name="Path 207723" d="M4.115,88.984A4.1,4.1,0,1,1,8.2,84.913a4.122,4.122,0,0,1-4.088,4.071" transform="translate(-0.001 -23.35)"/>
        <path id="Path_207724" data-name="Path 207724" d="M75.5,84.923a4.1,4.1,0,1,1-4.018-4.139A4.123,4.123,0,0,1,75.5,84.923" transform="translate(-19.452 -23.35)"/>
        <path id="Path_207725" data-name="Path 207725" d="M44.486,96.675a4.1,4.1,0,1,1,4.094-4.065,4.119,4.119,0,0,1-4.094,4.065" transform="translate(-11.672 -25.573)"/>
        <path id="Path_207726" data-name="Path 207726" d="M9.862,101.934A4.1,4.1,0,1,1,5.772,106a4.117,4.117,0,0,1,4.09-4.066" transform="translate(-1.668 -29.464)"/>
        <path id="Path_207727" data-name="Path 207727" d="M88.957,107.931a4.1,4.1,0,1,1-4.083-4.074,4.123,4.123,0,0,1,4.083,4.074" transform="translate(-23.343 -30.02)"/>
        <path id="Path_207728" data-name="Path 207728" d="M67.807,111.8a4.1,4.1,0,1,1-4.062-4.094,4.123,4.123,0,0,1,4.062,4.094" transform="translate(-17.229 -31.131)"/>
        <path id="Path_207729" data-name="Path 207729" d="M11.108,27.973A5.7,5.7,0,0,1,13.135,26a16.734,16.734,0,0,1,9.43-2.113c.348.009.429.153.433.464a6.837,6.837,0,0,0,.1,1.189c.091.48-.08,1.312.378,1.355a5.857,5.857,0,0,0,2.313-.465c.332-.114.092-.567.055-.847a11.98,11.98,0,0,1,2.611-9.423,12.273,12.273,0,0,1,19.429.4c.352.479.375.705-.142,1.124A14.968,14.968,0,0,0,45.789,39.2c.472.551.784.695,1.275.054.36-.47,1.079-.825,1.15-1.3.057-.385-.644-.86-.965-1.326-2.884-4.2-3.305-8.639-.874-13.113,2.446-4.5,6.422-6.579,11.55-6.464.808.018.957.294.648,1a10.463,10.463,0,0,0-.406,1.388,3.168,3.168,0,0,0-.049.323h6.944c-.678,3.394-1.411,6.7-1.958,10.03a2.55,2.55,0,0,1-1.435,2.05,6.5,6.5,0,0,0-3.123,5.033c-.065.485.015.782.594.669a.911.911,0,0,1,.171,0A4.94,4.94,0,0,0,61,37.5c.547-.215.333-.97.539-1.465a4.118,4.118,0,0,1,4.712-2.485,4.076,4.076,0,0,1,3.2,4.339,4.134,4.134,0,0,1-3.8,3.745c-.284.02-.569.011-.854.011q-19.265,0-38.529,0a5.441,5.441,0,0,1-1.1-.06,2.727,2.727,0,0,1,.551-5.4c2.506-.021,5.012-.024,7.518.007.559.007.7-.144.7-.7-.011-2.047.011-2.047-2.073-2.047-1.965,0-3.93.008-5.895,0a5.368,5.368,0,0,0-4.673,2.343.89.89,0,0,1-.848.4c-4.585-.007-9.17,0-13.754-.009a2.732,2.732,0,1,1-.011-5.459c2.449-.014,4.9-.021,7.346.009.557.007.783-.073.774-.715-.027-2.031,0-2.032-2.006-2.032Z" transform="translate(-1.112 -3.347)" fill="#e5e8ec"/>
        <path id="Path_207730" data-name="Path 207730" d="M97.162,46.627a8.279,8.279,0,0,0,1.206-2.869,6.7,6.7,0,0,0-3.049-6.974c-.492-.3-.574-.535-.382-1.05.754-2.02,1.5-4.045,2.175-6.091a1.012,1.012,0,0,1,1.116-.777,6.9,6.9,0,0,1,6.72,4.578,6.7,6.7,0,0,1-2.355,7.68c-.754.53-.729.909-.271,1.513a1.117,1.117,0,0,1,.085.147c.79,1.427.789,1.426,2.09.361a6.742,6.742,0,0,0,1.423-1.465,1.062,1.062,0,0,1,1.231-.481,2.791,2.791,0,0,1,2.28,2.793,2.666,2.666,0,0,1-2.456,2.615c-3.234.062-6.47.02-9.812.02" transform="translate(-27.413 -8.343)" fill="#e5e8ec"/>
        <path id="Path_207731" data-name="Path 207731" d="M89.74,12.072c1.686,0,3.25.006,4.813,0,.363,0,.621,0,.442.495Q92.269,20.128,89.557,27.7c-.014.037-.08.055-.237.156.877-4.388,1.735-8.684,2.6-13.035H85.273c.366-1.227.708-2.379,1.053-3.53.683-2.283,1.382-4.562,2.04-6.853.125-.437.305-.589.756-.576,1.079.031,2.159.01,3.337.01-.911,2.745-1.8,5.426-2.72,8.2" transform="translate(-24.648 -1.116)" fill="#fbd670"/>
        <path id="Path_207732" data-name="Path 207732" d="M6.58,86.062A1.366,1.366,0,1,1,5.3,84.632a1.393,1.393,0,0,1,1.277,1.43" transform="translate(-1.112 -24.462)" fill="#68d3f1"/>
        <path id="Path_207733" data-name="Path 207733" d="M73.874,86.035a1.366,1.366,0,1,1-1.3-1.4,1.39,1.39,0,0,1,1.3,1.4" transform="translate(-20.563 -24.462)" fill="#68d3f1"/>
        <path id="Path_207734" data-name="Path 207734" d="M46.956,93.719a1.366,1.366,0,1,1-1.311-1.4,1.389,1.389,0,0,1,1.311,1.4" transform="translate(-12.783 -26.685)" fill="#68d3f1"/>
        <path id="Path_207735" data-name="Path 207735" d="M10.952,105.78a1.366,1.366,0,1,1-1.334,1.375,1.388,1.388,0,0,1,1.334-1.375" transform="translate(-2.78 -30.575)" fill="#68d3f1"/>
        <path id="Path_207736" data-name="Path 207736" d="M85.957,107.7a1.366,1.366,0,1,1-1.354,1.356,1.387,1.387,0,0,1,1.354-1.356" transform="translate(-24.454 -31.131)" fill="#68d3f1"/>
        <path id="Path_207737" data-name="Path 207737" d="M64.849,114.279a1.366,1.366,0,1,1,1.334-1.376,1.39,1.39,0,0,1-1.334,1.376" transform="translate(-18.341 -32.243)" fill="#68d3f1"/>
        <path id="Path_207738" data-name="Path 207738" d="M74.929,24.532a1.617,1.617,0,0,0,0,.256c.113.715-.055,1.024-.908,1.14A6.451,6.451,0,0,0,68.5,30.4a6.544,6.544,0,0,0,1.48,6.958c.281.309.381.517.031.817a5.949,5.949,0,0,0-.52.565c-1.018,1.135-1.047,1.157-1.963-.023a9.213,9.213,0,0,1-1.386-9.776,9.342,9.342,0,0,1,7.991-5.824c.6-.075.926.041.8.732a3.826,3.826,0,0,0-.006.682" transform="translate(-18.882 -6.676)"/>
        <path id="Path_207739" data-name="Path 207739" d="M48.032,16.851a1.455,1.455,0,0,0,0,.255c.132.735-.088,1.007-.915,1.128a6.758,6.758,0,0,0-5.7,8.4c.117.5.076.728-.429.838a6.273,6.273,0,0,0-.723.245c-1.376.486-1.375.486-1.624-.916a9.6,9.6,0,0,1,8.445-11.359c.947-.11.947-.11.947,1.4" transform="translate(-11.123 -4.453)"/>
      </g>
    </g>
  </g>
</svg>
