<svg xmlns="http://www.w3.org/2000/svg" xmlns:xlink="http://www.w3.org/1999/xlink" width="505" height="357" viewBox="0 0 505 357">
  <defs>
    <clipPath id="clip-path">
      <rect id="Rectangle_338700" data-name="Rectangle 338700" width="369.984" height="313.876" fill="none"/>
    </clipPath>
    <clipPath id="clip-path-3">
      <rect id="Rectangle_338692" data-name="Rectangle 338692" width="50.462" height="23.915" fill="none"/>
    </clipPath>
    <clipPath id="clip-path-4">
      <rect id="Rectangle_338693" data-name="Rectangle 338693" width="50.466" height="28.641" fill="none"/>
    </clipPath>
    <clipPath id="clip-path-6">
      <rect id="Rectangle_338695" data-name="Rectangle 338695" width="48.132" height="22.81" fill="none"/>
    </clipPath>
    <clipPath id="clip-path-7">
      <rect id="Rectangle_338696" data-name="Rectangle 338696" width="34.136" height="79.121" fill="none"/>
    </clipPath>
    <clipPath id="clip-path-8">
      <rect id="Rectangle_338697" data-name="Rectangle 338697" width="35.413" height="79.12" fill="none"/>
    </clipPath>
    <clipPath id="clip-path-9">
      <rect id="Rectangle_338698" data-name="Rectangle 338698" width="44.735" height="18.239" fill="none"/>
    </clipPath>
  </defs>
  <g id="Group_983476" data-name="Group 983476" transform="translate(-180 -404)">
    <rect id="Rectangle_338540" data-name="Rectangle 338540" width="505" height="357" rx="14" transform="translate(180 404)" fill="#ffdfe0"/>
    <g id="Group_983448" data-name="Group 983448" transform="translate(428 756.165)">
      <g id="Group_983472" data-name="Group 983472" transform="translate(-180 -326)">
        <g id="Group_983471" data-name="Group 983471" clip-path="url(#clip-path)">
          <g id="Group_983470" data-name="Group 983470" transform="translate(0 0.001)">
            <g id="Group_983469" data-name="Group 983469" clip-path="url(#clip-path)">
              <path id="Path_209338" data-name="Path 209338" d="M130.309,39.607c1.757,6.278-.99,16.853-8.3,26.228-7.185,9.308-18.93,17.417-32.356,17.213-13.426.2-25.172-7.906-32.356-17.213-7.307-9.375-10.053-19.95-8.3-26.228,4.039-12.72,21.653-8.618,40.653-9.213,19,.6,36.614-3.507,40.653,9.213" transform="translate(-39.272 -24.472)" fill="#731624"/>
              <g id="Group_983450" data-name="Group 983450" transform="translate(24.33 18.883)" opacity="0.54">
                <g id="Group_983449" data-name="Group 983449">
                  <g id="Group_983448-2" data-name="Group 983448" clip-path="url(#clip-path-3)">
                    <path id="Path_209339" data-name="Path 209339" d="M176.17,123.252H129.764c-.111,0-.86-4.877-.988-5.36-.8-3.039-1.4-6.7.352-9.449a15.15,15.15,0,0,1,5.337-4.752c5.6-3.228,12.395-4.353,18.785-4.353,8.02,0,27.8,3.142,24.92,15.24-.69,2.9-1.354,5.767-2,8.674" transform="translate(-127.992 -99.338)" fill="#8f4550"/>
                  </g>
                </g>
              </g>
              <path id="Path_209340" data-name="Path 209340" d="M203.154,123.252h-35.4l.756-11.241c.478-7.106,7.922-12.674,16.945-12.674s16.466,5.568,16.945,12.674Z" transform="translate(-135.865 -80.455)" fill="#56101b"/>
              <path id="Path_209341" data-name="Path 209341" d="M251.558,101.292a5.739,5.739,0,0,0-.868-1.563,4.89,4.89,0,0,1-1.155-2.05c-.171-1.161,1-2.438.975-3.609h-5.4c-.024,1.171,1.521,2.339,1.35,3.5a4.031,4.031,0,0,1-1.146,1.85,11.038,11.038,0,0,0-.962,1.145,2.36,2.36,0,0,0,.422,3.266,5.292,5.292,0,0,0,2.851.851,5.683,5.683,0,0,0,2.966-.61,2.112,2.112,0,0,0,.969-2.779" transform="translate(-197.528 -76.19)" fill="#731624"/>
              <path id="Path_209342" data-name="Path 209342" d="M249.548,124.761c-1,2-.253,3.01,1.55,3.118a.481.481,0,0,1-.058.961.5.5,0,0,1-.1-.016c-1.561-.41-2.62-1.392-2.031-2.983a4.417,4.417,0,0,1,.635-1.08" transform="translate(-201.464 -101.046)" fill="#c7a2a7"/>
              <path id="Path_209343" data-name="Path 209343" d="M130.309,39.607c-4.039-12.72-21.653-8.618-40.653-9.213-19,.6-36.614-3.507-40.653,9.213a17.728,17.728,0,0,0-.353,6.754c10.829-5.521,17-3.7,27.614-5.069,0,0,12.269.769,12.59-1.417h0a3.443,3.443,0,0,0,2.559.942c1.977.134,8.227-.334,8.262-.336l.145.021c12.444,1.8,20.1.923,30.979,4.12a16.164,16.164,0,0,0-.494-5.013" transform="translate(-39.273 -24.472)" fill="#f4eced"/>
              <path id="Path_209344" data-name="Path 209344" d="M125.335,43.277c1.753.347,3.561.782,5.469,1.343a16.164,16.164,0,0,0-.494-5.013c-4.039-12.72-21.653-8.618-40.653-9.213-19,.6-36.614-3.507-40.653,9.213a17.325,17.325,0,0,0-.4,6.3l.571.19c1.19-.589,2.324-1.089,3.414-1.514,7.071-7.438,21.675-7.237,37.146-7.768,14.5.5,28.157.352,35.6,6.461" transform="translate(-39.274 -24.471)" fill="#cfb7b4"/>
              <path id="Path_209345" data-name="Path 209345" d="M174.244,194.217a61.538,61.538,0,0,0-7.56-4.61c-7.615-4.079-10.687-3.96-18.47-2.21a25.628,25.628,0,0,0-17.607,1.15c-2.474,1.054-9.539,3-9.129,6.635.855,7.582,28.128,11.845,28.128,11.845s26.415-8.5,24.638-12.811" transform="translate(-98.373 -150.842)" fill="#ed1c24"/>
              <path id="Path_209346" data-name="Path 209346" d="M101.844,184.652c-17.732.5-27.385-15.565-37.37-17.2a46.578,46.578,0,0,0,5.772,9.533C77.43,186.291,89.176,194.4,102.6,194.2c13.426.2,25.171-7.905,32.356-17.213a46.682,46.682,0,0,0,5.648-9.261c-12.965,1.294-20.26,17.451-38.763,16.93" transform="translate(-52.218 -135.62)" fill="#f4eced"/>
              <path id="Path_209347" data-name="Path 209347" d="M137.236,172.322c-7.673,9.308-20.358,18.883-34.695,18.68-14.337.2-26.737-9.372-34.41-18.68a48.037,48.037,0,0,1-3.555-4.855l-.1-.017a46.568,46.568,0,0,0,5.771,9.533c7.185,9.308,18.93,17.417,32.356,17.214,13.426.2,25.171-7.905,32.357-17.213a46.725,46.725,0,0,0,5.6-9.16,48.172,48.172,0,0,1-3.326,4.5" transform="translate(-52.219 -135.62)" fill="#cfb7b4"/>
              <path id="Path_209348" data-name="Path 209348" d="M257.947,260.172l-.867,7.937H258.6Z" transform="translate(-208.212 -210.717)" fill="#cfb7b4"/>
              <path id="Path_209349" data-name="Path 209349" d="M314.349,249.913l2.411,7.8,1.206-.482Z" transform="translate(-254.595 -202.408)" fill="#cfb7b4"/>
              <path id="Path_209350" data-name="Path 209350" d="M192.842,249.913l-2.813,6.029h.8Z" transform="translate(-153.907 -202.408)" fill="#cfb7b4"/>
              <path id="Path_209351" data-name="Path 209351" d="M178.611,48.852l2.813,6.35-1.407-6.993Z" transform="translate(-144.66 -39.046)" fill="#cfb7b4"/>
              <path id="Path_209352" data-name="Path 209352" d="M257.08,43.88l.655,5.948.776-6.27Z" transform="translate(-208.212 -35.279)" fill="#cfb7b4"/>
              <path id="Path_209353" data-name="Path 209353" d="M320.165,56.224l-1.327,5.225,2.733-5.225Z" transform="translate(-258.231 -45.537)" fill="#cfb7b4"/>
              <path id="Path_209354" data-name="Path 209354" d="M89.733,11.256c18.99.595,36.519.182,40.57,12.879a19.723,19.723,0,0,0,.006-9C126.271,2.419,108.22.6,89.22,0,70.221.6,53.043,2.419,49,15.138a19.723,19.723,0,0,0,.006,9c4.05-12.7,21.733-12.284,40.723-12.879" transform="translate(-39.273 -0.003)" fill="#ff9082"/>
              <path id="Path_209355" data-name="Path 209355" d="M130.3,126.955a42.556,42.556,0,0,1-8.29,17.231c-7.185,9.308-19.688,15.588-33.115,15.385a38.573,38.573,0,0,1-31.6-15.385,42.548,42.548,0,0,1-8.29-17.231l-.006.019c-1.757,6.278.989,16.853,8.3,26.228,7.185,9.308,18.93,17.417,32.356,17.213,13.426.2,25.171-7.905,32.356-17.213,7.307-9.375,10.053-19.949,8.3-26.228l-.006-.019" transform="translate(-39.273 -102.823)" fill="#ff9082"/>
              <path id="Path_209356" data-name="Path 209356" d="M185.655,394.4q-.148-.513-.37-1.794c-.636.087-1.089.2-3.035.6q-.285.747-.974,2.181a.572.572,0,0,1-1.082-.256,10.319,10.319,0,0,1,.86-2.079.6.6,0,0,1,.461-.934c.259-.487,2.776-4.96,3.32-4.96.787,0,.656,1.343.974,2.54l.849,3.958c.43,1.154.665,1.6.313,1.925-.118.11-1.078-.355-1.315-1.179m-1.1-5.165-1.629,2.625q.689-.177,2.09-.427Z" transform="translate(-145.941 -313.565)"/>
              <path id="Path_209357" data-name="Path 209357" d="M227.24,429.8c-.286-.3-.112-.6.205-1.333.42-.964.543-1.281.866-1.281a.514.514,0,0,1,.5.512,17.155,17.155,0,0,1-.808,1.948.441.441,0,0,1-.758.154" transform="translate(-183.927 -345.981)"/>
              <path id="Path_209358" data-name="Path 209358" d="M261.953,384.94a15.261,15.261,0,0,1-.046,2.768c3.643-.35,4.436-.644,4.436.234,0,.823-.906.517-1.879.7l-2.631.239c-.228,4.034-.243,2.967,3.821,2.967a.588.588,0,0,1,.12,1.167c-.484.1-3.837.337-4.584-.359-.732-.678-.545-3-.484-4.066a.624.624,0,0,1,.046-.626,14.2,14.2,0,0,0,.057-3.05c-.091-.645-.152-1.3.513-1.3a.569.569,0,0,1,.41.165c2.8-.745,5.837-.231,4.875.917-.49.574-1.214-.712-4.653.239" transform="translate(-211.095 -310.55)"/>
              <path id="Path_209359" data-name="Path 209359" d="M300.877,429.8c-.286-.3-.112-.6.205-1.333.42-.964.543-1.281.866-1.281a.514.514,0,0,1,.5.512,17.187,17.187,0,0,1-.809,1.948.441.441,0,0,1-.758.154" transform="translate(-243.567 -345.981)"/>
              <path id="Path_209360" data-name="Path 209360" d="M335.541,387.883c-.284,3.581.013,4.574-.125,6.11,1.045.1,2.358-.378,2.358.558,0,.768-.833.615-2.477.615-1.316,0-2.819.658-2.819-.37,0-.723.66-.548,1.788-.706.212-1.716-.228-1.682.142-6.253l-1.481.04a.563.563,0,0,1-.575-.587c0-.714.63-.626,2.261-.626a20.7,20.7,0,0,1,2.841.245.6.6,0,0,1,.313,1.036c-.307.236-.846.131-2.227-.063" transform="translate(-269.176 -313.162)"/>
              <path id="Path_209361" data-name="Path 209361" d="M8.943,36.314c-1.12-1.3-2.447,3.221-2.728,4.111A39.625,39.625,0,0,0,6.2,64.09c.183.591,1.114.339.93-.256A38.118,38.118,0,0,1,8.517,37.413c.354-.64.619-.877.426-1.1" transform="translate(-3.561 -29.224)" fill="#410c14"/>
              <path id="Path_209362" data-name="Path 209362" d="M505.367,57.067a56.081,56.081,0,0,1,2.793,20.858c-.034.62.931.618.964,0A56.823,56.823,0,0,0,506.3,56.81c-.195-.586-1.127-.335-.93.257" transform="translate(-409.281 -45.742)" fill="#410c14"/>
              <path id="Path_209363" data-name="Path 209363" d="M49.419,650.539c-1.614-4.718,4.306-10.377,9.257-15.506,7.99-8.357,21.01-15.6,35.837-15.317,14.829-.087,27.754,7.323,35.634,15.783,4.884,5.192,10.369,10.814,9.054,15.625-.852,3.119-24.011,15.758-45,16.158-20.98-.674-43.709-13.6-44.784-16.744" transform="translate(-39.806 -501.91)" fill="#2b080e"/>
              <g id="Group_983453" data-name="Group 983453" transform="translate(30.131 127.62)" opacity="0.54">
                <g id="Group_983452" data-name="Group 983452">
                  <g id="Group_983451" data-name="Group 983451" clip-path="url(#clip-path-4)">
                    <path id="Path_209364" data-name="Path 209364" d="M206.607,700.021l-46.405-.3c-.111,0-.823-5.817-.946-6.393-.777-3.626-1.35-7.988.426-11.255a16.4,16.4,0,0,1,5.374-5.627c5.628-3.809,12.428-5.1,18.819-5.063,8.02.053,27.773,3.925,24.8,18.32-.712,3.45-1.4,6.861-2.068,10.321" transform="translate(-158.511 -671.38)" fill="#8f4550"/>
                  </g>
                </g>
              </g>
              <path id="Path_209365" data-name="Path 209365" d="M233.247,699.99l-35.4-.231.843-13.387c.533-8.462,8.021-15.047,17.043-14.989s16.423,6.741,16.845,15.21Z" transform="translate(-160.239 -543.762)" fill="#56101b"/>
              <path id="Path_209366" data-name="Path 209366" d="M282.347,673.688a7.307,7.307,0,0,0-.856-1.868,6.194,6.194,0,0,1-1.139-2.449c-.162-1.384,1.018-2.9,1-4.292l-5.4-.035c-.034,1.395,1.5,2.8,1.323,4.178a5.021,5.021,0,0,1-1.161,2.2,12.907,12.907,0,0,0-.971,1.357,3.189,3.189,0,0,0,.4,3.893,4.706,4.706,0,0,0,2.845,1.032,4.927,4.927,0,0,0,2.97-.708,2.76,2.76,0,0,0,.991-3.3" transform="translate(-222.46 -538.627)" fill="#731624"/>
              <path id="Path_209367" data-name="Path 209367" d="M280.325,701.622c-1.029,2.406-.229,3.588,1.526,3.725a.547.547,0,0,1,.447.61.492.492,0,0,1-.609.515c-2.114-.676-2.946-2.439-1.364-4.85" transform="translate(-226.372 -568.253)" fill="#c7a2a7"/>
              <path id="Path_209368" data-name="Path 209368" d="M152.926,632.353a61.467,61.467,0,0,0,7.53,4.659c7.588,4.129,10.661,4.03,18.455,2.33a25.629,25.629,0,0,0,17.614-1.036c2.48-1.037,9.558-2.938,9.172-6.575-.806-7.588-28.05-12.029-28.05-12.029s-26.47,8.332-24.721,12.65" transform="translate(-123.789 -501.906)" fill="#ed1c24"/>
              <path id="Path_209369" data-name="Path 209369" d="M84.905,642.944a44.562,44.562,0,0,0-3.372,3.919c7.235,2.641,21.425,1.516,36.475,1.846,18.111-.161,34.95,1.768,40.02-3.444q-.787-.933-1.652-1.855a51.028,51.028,0,0,0-22.354-13.856c-5.061.059-10.474.176-15.99,0-3.714.071-7.38.009-10.923-.077a51.049,51.049,0,0,0-22.2,13.468" transform="translate(-66.035 -509.821)" fill="#f4eced"/>
              <path id="Path_209370" data-name="Path 209370" d="M149.279,629.561l-.244,0h-.083l-.306,0h-.06l-.256,0h-.09l-.249,0h-.073l-.3,0h-2.465l-.313,0h0l-.3,0h-.077l-.234,0h-.092l-.282,0h-.123l-.178,0h-.123l-.279,0h-.018l-.317,0h-.064l-.231,0h-.1l-.248,0-.14,0-.222,0h-.081l-.211,0-.121,0-.28-.006h-.068l-.249-.005h-.07l-.224-.005-.153,0-.22,0-.114,0-.193,0-.119,0-.209,0-.267-.007h-.051l-.192,0-.19,0h-.041a51.136,51.136,0,0,0-18.149,9.7c8.083-1.414,18.3-1.386,28.935-1.589,14.549.468,28.406.494,37,4.305a51.139,51.139,0,0,0-20.869-12.333h-.024l-.446.005h-.011l-.4,0h-.127l-.715.009-.551.007-.3,0-.238,0-.141,0-.323,0-.191,0-.834.01h-.092l-.426,0h-.037l-.448,0h-.051l-.451,0h-.04l-.413,0H159.3l-.435,0h-.032l-.489,0h0l-.475,0h-.04l-.458,0h-2.058l-.475,0H154.8l-.481,0H154.3l-.484,0h-.028l-.489,0h-.019l-.993-.014h-.037q-.5-.009-1-.02h-.019l-.507-.012h0q-.516-.013-1.032-.03l-.314.006h-.084" transform="translate(-97.68 -509.822)" fill="#cfb7b4"/>
              <path id="Path_209371" data-name="Path 209371" d="M273.987,677.045l-.675-11.429,1.7.011Z" transform="translate(-221.359 -539.091)" fill="#cfb7b4"/>
              <path id="Path_209372" data-name="Path 209372" d="M354.235,666.167l-.821,10.82,2.75-10.807Z" transform="translate(-286.234 -539.537)" fill="#cfb7b4"/>
              <path id="Path_209373" data-name="Path 209373" d="M192.736,665.09l1.433,10.354-3.041-10.364Z" transform="translate(-154.797 -538.657)" fill="#cfb7b4"/>
              <path id="Path_209374" data-name="Path 209374" d="M71.1,772.542c-1.777,3.075.935,8.292,8.212,12.948q1.284.829,2.759,1.629c8.17.753,18.626-.037,29.484.312,10.969-.209,21.513.738,29.728.052q1.46-.767,2.74-1.571c7.337-4.562,10.117-9.743,8.38-12.841-4-6.28-21.625-4.379-40.622-4.795-19,.169-36.6-1.963-40.681,4.264" transform="translate(-57.156 -622.061)" fill="#f4eced"/>
              <path id="Path_209375" data-name="Path 209375" d="M70.912,793.578c-1.373,3.112,1.4,8.106,8.4,12.582q1.284.83,2.759,1.629c8.17.753,18.626-.037,29.484.312,10.969-.209,21.513.738,29.727.053q1.46-.767,2.74-1.572c7.147-4.444,9.97-9.474,8.506-12.6-7.872,6.027-23.961,5.758-41.006,6.083-16.924-.544-32.8-.489-40.61-6.492" transform="translate(-57.157 -642.729)" fill="#cfb7b4"/>
              <path id="Path_209376" data-name="Path 209376" d="M287.227,774.171l-.824,11.42,1.7.011Z" transform="translate(-231.961 -627.011)" fill="#cfb7b4"/>
              <path id="Path_209377" data-name="Path 209377" d="M367.926,788.656l-.68-10.829,2.609,10.842Z" transform="translate(-297.437 -629.973)" fill="#cfb7b4"/>
              <path id="Path_209378" data-name="Path 209378" d="M205.827,789.733l1.568-10.334-3.175,10.324Z" transform="translate(-165.4 -631.246)" fill="#cfb7b4"/>
              <path id="Path_209379" data-name="Path 209379" d="M140.238,781.907c-13.439,9.991-24.116,11.055-45.093,11.455-20.97-.674-27.422-2.4-44.768-12.036.512,3.249,12.077,24.638,45.252,24.638,33.058-1.112,44.237-20.349,44.608-24.057" transform="translate(-40.802 -632.807)" fill="#ff9082"/>
              <path id="Path_209380" data-name="Path 209380" d="M48.229,620.045c1.223-4.834,28.374-23.861,43.2-23.581,14.829-.087,45.422,19.317,46.582,24.167l.007-.017c1.977-5.658-.994-15.231-9.008-23.753-7.88-8.46-21.806-14.881-36.636-14.794A46.5,46.5,0,0,0,57.54,596.394c-8.125,8.416-11.221,17.95-9.318,23.634l.007.017" transform="translate(-38.616 -471.416)" fill="#ff9082"/>
              <path id="Path_209381" data-name="Path 209381" d="M261.031,956.442a3.284,3.284,0,0,1-2.642-1.02c-1.093-1.269-.974-3.611-.974-5.313a10.183,10.183,0,0,1,.137-2.01c.2-.586,1.037-.708,1.037.546v3.343q0,3.451,2.414,3.451,2.272,0,2.272-5.809v-.559c0-.227-.006-.379-.006-.455a1.45,1.45,0,0,1,.125-.62.508.508,0,0,1,.473-.342q.569,0,.569.78,0,.234.006.706v.706q0,6.594-3.411,6.594" transform="translate(-208.48 -767.518)"/>
              <path id="Path_209382" data-name="Path 209382" d="M244.361,536.816c3.314,2.588,7.337,1.368,10.893,0,.573-.221.324-1.154-.256-.93-3.145,1.21-6.968,2.581-9.955.248-.484-.378-1.171.3-.682.682" transform="translate(-197.775 -433.994)" fill="#410c14"/>
              <path id="Path_209383" data-name="Path 209383" d="M104.388,1197.892c-20.984.538-44.886,16.971-44.886,16.971s30.643,22.264,45.471,22.081c14.829.184,38.318-15.724,44.444-21.85-4.461-11.491-24.045-16.664-45.029-17.2" transform="translate(-48.191 -970.188)" fill="#2b080e"/>
              <g id="Group_983456" data-name="Group 983456" transform="translate(30.142 237.971)" opacity="0.54">
                <g id="Group_983455" data-name="Group 983455">
                  <g id="Group_983454" data-name="Group 983454" clip-path="url(#clip-path-3)">
                    <path id="Path_209384" data-name="Path 209384" d="M206.748,1275.817H160.342c-.111,0-.86-4.877-.988-5.36-.8-3.04-1.4-6.7.352-9.449a15.15,15.15,0,0,1,5.337-4.752c5.6-3.228,12.395-4.353,18.786-4.353,8.02,0,27.8,3.142,24.919,15.24-.69,2.9-1.354,5.767-2,8.674" transform="translate(-158.57 -1251.902)" fill="#8f4550"/>
                  </g>
                </g>
              </g>
              <path id="Path_209385" data-name="Path 209385" d="M233.731,1275.817h-35.4l.756-11.241c.478-7.106,7.922-12.674,16.944-12.674s16.467,5.568,16.944,12.674Z" transform="translate(-160.63 -1013.932)" fill="#2b080e"/>
              <path id="Path_209386" data-name="Path 209386" d="M204.515,1272.478a61.582,61.582,0,0,0-7.56-4.61c-7.615-4.079-16.783-9.191-17.928-9.214-1.67-.034-8.293,3.957-18.149,8.155-2.474,1.054-9.539,3-9.129,6.635.855,7.582,28.128,11.845,28.128,11.845s26.415-8.5,24.638-12.811" transform="translate(-122.889 -1019.4)" fill="#ed1c24"/>
              <path id="Path_209387" data-name="Path 209387" d="M204.515,1316.226a52.439,52.439,0,0,0-5.631-3.556c-15.162,10.76-37.533,3.08-44.061.461-1.834,1.041-3.266,2.368-3.075,4.061.855,7.582,28.128,11.845,28.128,11.845s26.415-8.5,24.638-12.811" transform="translate(-122.889 -1063.148)" fill="#780207"/>
              <path id="Path_209388" data-name="Path 209388" d="M292.83,1295.26c-.06-.691-.134-1.318-.226-1.862,0,0,.09.71.226,1.862" transform="translate(-236.984 -1047.54)" fill="#780207"/>
              <path id="Path_209389" data-name="Path 209389" d="M293.684,1317.837h1.278c-.09-4.266-.866-11.306-1.258-14.641a129.552,129.552,0,0,1-.02,14.641" transform="translate(-237.858 -1055.475)" fill="#780207"/>
              <path id="Path_209390" data-name="Path 209390" d="M174.593,1319.744c-.135-.137-18.168,4.843-31.342,4.733-13.174.11-33.236-4.871-33.371-4.733-.951.959-1.824,1.934-2.62,2.915q.541.61,1.115,1.213c7.936,8.409,20.45,11.942,35.278,11.758,14.237.177,27.222-2.777,35.221-10.758a37.961,37.961,0,0,0-4.282-5.129" transform="translate(-86.871 -1068.875)" fill="#f4eced"/>
              <path id="Path_209391" data-name="Path 209391" d="M176.143,1325.1c-8.151,6.671-20.585,9.657-33.871,9.493-13.8.17-25.3-3.057-33.225-10.28q-.95,1.016-1.787,2.049.541.61,1.115,1.213c7.935,8.409,19.937,11.075,34.766,10.892,14.237.177,27.734-1.911,35.734-9.892a36.91,36.91,0,0,0-2.732-3.475" transform="translate(-86.871 -1072.578)" fill="#cfb7b4"/>
              <path id="Path_209392" data-name="Path 209392" d="M147.385,1208.121c-4.461-11.491-23.381-7.786-44.365-8.323-20.984.537-40.02-3.168-44.481,8.323-1.016,2.969-.986,5.719.221,10.269,4.441-.931,8.781,0,13.122-2.16.235-.117.3-.631.3-.631s.3.515.637.566c4.608.717,9.33-.056,14.778-.553h0s.257,1.226,5.156.894c4.951-.335,8.788-.2,9.163-.575a2.619,2.619,0,0,0,.466-1.021h.038a2.381,2.381,0,0,0,.518.861c.409.338,4.308.214,9.217.32a7.069,7.069,0,0,0,4.242-1c6.687.786,13.358,1.41,18.3.636.255-.04.151-.357.408-.351.275.007.313.372.58.439a74.286,74.286,0,0,0,11.672,1.638,13.509,13.509,0,0,0,.033-9.338" transform="translate(-46.824 -971.6)" fill="#f4eced"/>
              <path id="Path_209393" data-name="Path 209393" d="M146.277,1208.121c-4.461-11.491-23.381-7.786-44.365-8.323-20.984.537-40.438-3.168-44.9,8.323-.968,2.831-.7,6.629.82,10.776,5.516-6.864,15.309-8.953,26.812-9.8l1.846,6.518L86.031,1209c4.611-.3,9.474-.427,14.429-.6l.906,6.514.43-6.562.206-.007c4.692.177,9.308.291,13.717.527l-.549,6.03,1.7-5.966c26.549-.958,29.061,9.206,29.376,9.243a15.61,15.61,0,0,0,.033-10.054" transform="translate(-45.716 -971.6)" fill="#cfb7b4"/>
              <path id="Path_209394" data-name="Path 209394" d="M101.994,1169.549c20.973.537,40.471.916,44.944,12.385a15.76,15.76,0,0,0-.471-8.538c-4.461-11.491-24.057-15.908-45.041-16.446-20.984.538-39.957,4.614-44.417,16.105a17.309,17.309,0,0,0,.006,8.838c4.474-11.47,24-11.809,44.979-12.346" transform="translate(-45.714 -937.03)" fill="#ff9082"/>
              <path id="Path_209395" data-name="Path 209395" d="M104.289,1297.985c-22.148,0-44.836-13.036-44.838-13.03-.581,10.865,19.964,24.245,45.257,24.242,27.121,0,44.658-14.685,44.818-24.762,0-.005-23.088,13.55-45.237,13.55" transform="translate(-48.14 -1040.281)" fill="#ff9082"/>
              <path id="Path_209396" data-name="Path 209396" d="M304.593,1464.4c-4.177.731-3.126-.381-3.126-2.716.32-5.642-.047-5.826.31-6.2a.561.561,0,0,1,.809,0c.475.5-.114,7.526-.1,7.972,2.709.032,4.493-1.486,4.493-.131,0,.635-1.065.847-2.386,1.076" transform="translate(-244.066 -1178.678)"/>
              <path id="Path_209397" data-name="Path 209397" d="M243.813,1113.031a13.845,13.845,0,0,0,14.147-1.231c.5-.361.016-1.2-.487-.833a12.885,12.885,0,0,1-13.173,1.23c-.557-.268-1.046.563-.487.833" transform="translate(-197.267 -899.713)" fill="#410c14"/>
              <path id="Path_209398" data-name="Path 209398" d="M562.988,1210.313c3.764,7.817.669,19.268-2.41,27.365-.221.581.67.952.891.37a68.627,68.627,0,0,0,3.9-14.419c.674-4.633.574-9.41-1.489-13.7-.268-.557-1.157-.182-.887.379" transform="translate(-453.991 -979.719)" fill="#410c14"/>
              <path id="Path_209399" data-name="Path 209399" d="M4.213,1213.495c-4.819,7.215-3.352,18.986-1.434,27.434.138.606-.8.849-.934.243A68.684,68.684,0,0,1,0,1226.349c-.021-4.682.745-9.4,3.387-13.354.343-.513,1.172-.019.825.5" transform="translate(0 -982.246)" fill="#410c14"/>
              <path id="Path_209400" data-name="Path 209400" d="M825.781,1315.861c.631,2.056-.02,7.262-.02,7.262s-25.139,4.038-38.565,3.853c-13.426.185-42.036-3.1-42.036-3.1s-.606-5.972.08-8.209c4.039-11.605,21.37-7.863,40.369-8.406,19,.542,36.133-3.008,40.172,8.6" transform="translate(-603.314 -1058.636)" fill="#cfb7b4"/>
              <path id="Path_209401" data-name="Path 209401" d="M826.524,1386.206c-21.285-.476-56.926-.606-81.627,1.249.346,3.151,15.167,6.081,43.086,6.081,27.15-2.165,38.093-3.716,38.541-7.33" transform="translate(-603.301 -1122.46)" fill="#ff9082"/>
              <path id="Path_209402" data-name="Path 209402" d="M744.9,1378.723c5.369-1.113,24.434-2.908,24.434-2.908a7.663,7.663,0,0,0,1.62.463c8.339-.375,17.8-.565,26.78-.463.467,0,1.192-.693,1.192-.693s22.28,1.427,27.6,2.353c-5.465.163-33.014-1.013-41.547-.866-22.511.387-32.412,1.981-40.08,2.114" transform="translate(-603.301 -1113.729)" fill="#731624"/>
              <path id="Path_209403" data-name="Path 209403" d="M824.262,1315.668c-4.039-11.605-21.653-7.863-40.653-8.406-19,.543-36.614-3.2-40.653,8.406a16.265,16.265,0,0,0-.047,7.962c7.719-1.11,15.659-2.576,25.031-3.43,0,0,.279,1.212,5.156.637s8.788.058,9.163-.318a2.617,2.617,0,0,0,.465-1.021h.038a2.372,2.372,0,0,0,.518.861c.409.337,4.308.016,9.217.121a7.477,7.477,0,0,0,4.242-.8c10.462.46,19.5,1.677,27.8,2.7a15.237,15.237,0,0,0-.275-6.713" transform="translate(-601.314 -1058.636)" fill="#f4eced"/>
              <path id="Path_209404" data-name="Path 209404" d="M824.262,1315.668c-4.039-11.605-21.653-7.863-40.652-8.406-19,.543-36.614-3.2-40.653,8.406a13.625,13.625,0,0,0-.487,4.7c5.723-4.425,14.086-5.982,23.626-6.687l1.845,6.518-.458-6.614c4.611-.3,9.474-.427,14.429-.6l.906,6.514.43-6.562.206-.007c4.692.177,9.308.291,13.717.527l-.549,6.03,1.7-5.966c10.781.638,20.237,2.116,26.408,7.2a13.9,13.9,0,0,0-.465-5.054" transform="translate(-601.314 -1058.636)" fill="#cfb7b4"/>
              <path id="Path_209405" data-name="Path 209405" d="M783.644,1289.8c18.142.519,36.036,1.784,40.389,10.27.24.467.386.476.461-.015a15.241,15.241,0,0,0-.275-6.713c-4.039-11.605-22.09-13.266-41.089-13.81-19,.543-36.177,2.2-40.216,13.81a16.153,16.153,0,0,0-.013,8.137c4.05-11.585,21.752-11.136,40.742-11.679" transform="translate(-601.272 -1036.31)" fill="#ff9082"/>
              <path id="Path_209406" data-name="Path 209406" d="M901.583,1468.045a.575.575,0,0,1-.216-.046,7.9,7.9,0,0,0-3.878-.039l-.012,2.459a7.5,7.5,0,0,1,3.469-.188.529.529,0,0,1,.535.582.582.582,0,0,1-.165.424.551.551,0,0,1-.41.167c-.2,0-.494-.018-.889-.051s-.691-.052-.888-.052a8.979,8.979,0,0,0-1.674.33l-.051,3.918a.577.577,0,0,1-.16.412.533.533,0,0,1-.4.168.543.543,0,0,1-.407-.168.57.57,0,0,1-.162-.412q0-1.122.043-3.369t.043-3.368q0-.25-.009-.755t-.008-.754a.6.6,0,0,1,.156-.421.526.526,0,0,1,.407-.171.576.576,0,0,1,.336.1,13.847,13.847,0,0,1,2.26-.245,6.962,6.962,0,0,1,1.5.188q1.144.262,1.145.684a.612.612,0,0,1-.148.4.512.512,0,0,1-.41.2" transform="translate(-725.9 -1187.794)"/>
              <path id="Path_209407" data-name="Path 209407" d="M934.753,1512.205a.464.464,0,0,1-.347-.154.491.491,0,0,1-.148-.353,4.284,4.284,0,0,1,.353-.979q.308-.706.473-1.008a.443.443,0,0,1,.394-.273.46.46,0,0,1,.35.157.512.512,0,0,1,.145.356,17.063,17.063,0,0,1-.808,1.947.433.433,0,0,1-.41.308" transform="translate(-756.667 -1222.513)"/>
              <path id="Path_209408" data-name="Path 209408" d="M974.6,1468.644a5.612,5.612,0,0,0-.575,1.11L973.6,1471l-1.532,4.14a12.517,12.517,0,0,1-.626,1.424.563.563,0,0,1-.513.341.625.625,0,0,1-.615-.444,44.574,44.574,0,0,1-1.532-4.982l-.449-1.566a7.512,7.512,0,0,1-.336-1.549.543.543,0,0,1,.182-.421.563.563,0,0,1,.4-.154.546.546,0,0,1,.558.467l.211.991.547,1.936q.547,2.118,1.065,3.65l.034-.09,1.526-4.135.484-1.4a4.537,4.537,0,0,1,.689-1.276.561.561,0,0,1,.444-.228.57.57,0,0,1,.407.173.562.562,0,0,1,.179.419.614.614,0,0,1-.114.342" transform="translate(-783.989 -1188.717)"/>
              <path id="Path_209409" data-name="Path 209409" d="M719.32,1263.807a38.273,38.273,0,0,0-14.927,22.373c-.14.6.79.862.93.257a37.265,37.265,0,0,1,14.484-21.8c.5-.359.018-1.2-.487-.833" transform="translate(-570.486 -1023.501)" fill="#410c14"/>
              <path id="Path_209410" data-name="Path 209410" d="M1144.4,1286.316a59.731,59.731,0,0,1,10.871,20.144c.184.59,1.116.338.93-.257a60.963,60.963,0,0,0-11.119-20.569c-.395-.48-1.073.206-.682.682" transform="translate(-926.771 -1041.12)" fill="#410c14"/>
              <path id="Path_209411" data-name="Path 209411" d="M827.517,909.874a15.864,15.864,0,0,1,.1,7.441c-.951,5.061-25.735,14.894-39.161,14.708-13.426.186-41.155-9.05-42.233-13.94a16.458,16.458,0,0,1-.006-8.209c4.039-11.606,21.653-7.863,40.653-8.406,19,.543,36.614-3.2,40.652,8.406" transform="translate(-603.95 -729.978)" fill="#731624"/>
              <path id="Path_209412" data-name="Path 209412" d="M853.683,983.011l-26.907-5.371,2.738-3.65,24.169,1.231,19.772-2.249,7.073,1.738,1.98,2.438Z" transform="translate(-669.617 -788.023)" fill="#940a0e"/>
              <path id="Path_209413" data-name="Path 209413" d="M837.391,960.954c2,1.508,28.86,1.828,31.444-.21,4.218-3.327,11.243-1.042,13.673.85-.906-2.469-2.588-3.927-5.164-5.1-7.615-3.457-15.382-1.717-23.165-.233-.393.075-13.278-4.744-23.134-1.187-1.935.7-3.731,4.253-4.269,7.009.712-.842,7.414-3.543,10.615-1.132" transform="translate(-669.616 -772.468)" fill="#ed1c24"/>
              <path id="Path_209414" data-name="Path 209414" d="M827.216,910.052c-4.039-11.606-21.351-8.041-40.351-8.584-19,.543-36.614-3.2-40.653,8.406a16.263,16.263,0,0,0-.047,7.961c7.719-1.11,15.659-2.575,25.031-3.43,0,0,.28,1.212,5.156.636s8.788.058,9.164-.317a2.615,2.615,0,0,0,.466-1.021h.038a2.381,2.381,0,0,0,.518.861c.409.337,4.308.015,9.218.12a7.476,7.476,0,0,0,4.242-.8c10.462.46,19.442,1.677,27.743,2.7a14.214,14.214,0,0,0-.523-6.535" transform="translate(-603.951 -729.978)" fill="#f4eced"/>
              <path id="Path_209415" data-name="Path 209415" d="M789.007,999.056c27.7-2.756,41.329-13.358,40.689-16.395-11.543,2.778-16.289,2.75-27.635,2.813-4.91.028-11.338-.052-11.713.323a2.621,2.621,0,0,0-.465,1.021h-.038a2.382,2.382,0,0,0-.518-.861c-.409-.337-4.308-.013-9.217-.115-2.331-.048-19.684.375-31.771-2.116-.391,2.541,21.668,14.8,40.668,15.328" transform="translate(-606.085 -795.871)" fill="#f4eced"/>
              <path id="Path_209416" data-name="Path 209416" d="M827.216,910.052c-4.039-11.606-21.351-8.041-40.351-8.584-19,.543-36.614-3.2-40.653,8.406a13.617,13.617,0,0,0-.487,4.7c5.723-4.426,14.086-5.982,23.626-6.687l1.845,6.518-.458-6.614c4.611-.3,9.474-.427,14.429-.6l.906,6.514.43-6.563.206-.008c4.692.177,9.308.291,13.717.527l-.549,6.031,1.7-5.966c10.781.638,20.237,2.115,26.409,7.2a12.707,12.707,0,0,0-.767-4.875" transform="translate(-603.951 -729.978)" fill="#cfb7b4"/>
              <path id="Path_209417" data-name="Path 209417" d="M786.547,884c18.99.543,36.555-.073,40.605,11.511a15.476,15.476,0,0,0-.03-7.969c-4.039-11.606-22.09-13.267-41.089-13.81-19,.543-36.177,2.2-40.216,13.81a15.1,15.1,0,0,0,.006,8.478c4.05-11.584,21.733-11.478,40.723-12.02" transform="translate(-603.556 -707.651)" fill="#ff9082"/>
              <path id="Path_209418" data-name="Path 209418" d="M748.16,984.01c-.673,3.1,14.684,18.971,42.6,18.971,27.15-2.165,38.52-14.081,38.956-19.844-8.852,8.852-69.1,8.852-81.56.872" transform="translate(-605.927 -796.256)" fill="#ff9082"/>
              <path id="Path_209419" data-name="Path 209419" d="M881.41,984.806c1.281,2.18,11.956,3.939,16.3,3.862,4.106-.073,14.608-2.389,15.792-4.157,2.058-1.649-32.645-.655-32.087.3" transform="translate(-713.86 -796.654)" fill="#ed1c24"/>
              <path id="Path_209420" data-name="Path 209420" d="M895.777,985.156s9.806,3.233,13.118,3.233,12.083-2.8,12.474-3.052-3.613-.89-6.624-.271-1.565.775-5.058.271-2.951-.594-6.082-.181-7.407-.841-7.828,0" transform="translate(-725.501 -797.605)" fill="#f1575d"/>
              <path id="Path_209421" data-name="Path 209421" d="M975.64,988.272a14.893,14.893,0,0,1-6.729,2.536c-.3.015-.561-.129-.584-.322-.046-.381.62-.387.584-.377a16.1,16.1,0,0,0,6.729-1.837" transform="translate(-784.258 -800.414)" fill="#f79296"/>
              <path id="Path_209422" data-name="Path 209422" d="M708.8,933.343a34.729,34.729,0,0,0,.6,13.788.483.483,0,0,0,.93-.256,33.477,33.477,0,0,1-.6-13.275c.094-.607-.835-.869-.93-.257" transform="translate(-573.723 -755.644)" fill="#410c14"/>
              <path id="Path_209423" data-name="Path 209423" d="M1190.583,961.372q-2.073,6.061-4.148,12.122c-.2.589.73.842.93.257l4.149-12.122c.2-.588-.73-.841-.931-.256" transform="translate(-960.885 -778.359)" fill="#410c14"/>
              <path id="Path_209424" data-name="Path 209424" d="M931.795,1126.286c0,.1.3,5.513.313,5.612.225,2.283-1.29,1.8-1.125.812.1-.617-.308-5.712-.324-6.4a10.6,10.6,0,0,1-2.434-.174.577.577,0,0,1-.308-.957c.214-.25.406-.2,1.326-.078,1.872.225,7.409-.388,5.9,1.144-.25.254-1.439.068-3.352.042" transform="translate(-751.412 -911.153)"/>
              <path id="Path_209425" data-name="Path 209425" d="M973.8,1131.315a12.221,12.221,0,0,1-.308-3.519c0-1.435-1.207-1.709-2.58.851a9.415,9.415,0,0,1-.179,2.523.551.551,0,1,1-1.013-.436c.171-.534.028-7.665.028-7.761a.538.538,0,0,1,.56-.542c.793,0,.673,1.1.565,4.415a2.623,2.623,0,0,1,2.093-1.226c1.75,0,1.482,1.476,1.6,3.105.315,2.744.447,2.6.157,2.862-.112.1-.777.232-.923-.272" transform="translate(-785.359 -909.071)"/>
              <path id="Path_209426" data-name="Path 209426" d="M821.72,446.46c.631,2.057.431,4.619-.1,7.454-.951,5.062-26.067,17.083-39.492,16.9C768.7,471,741.5,459.559,740.421,454.669a16.463,16.463,0,0,1-.006-8.209c4.039-11.606,21.653-7.863,40.653-8.406,19,.543,36.614-3.2,40.653,8.406" transform="translate(-599.255 -354.653)" fill="#731624"/>
              <path id="Path_209427" data-name="Path 209427" d="M942.969,496.043a5.748,5.748,0,0,0-.868-1.563,4.889,4.889,0,0,1-1.155-2.05c-.171-1.161,1-2.438.975-3.609h-5.4c-.024,1.171,1.521,2.339,1.35,3.5a4.037,4.037,0,0,1-1.147,1.85,11.053,11.053,0,0,0-.961,1.144,2.36,2.36,0,0,0,.422,3.266,5.293,5.293,0,0,0,2.851.851,5.686,5.686,0,0,0,2.966-.611,2.112,2.112,0,0,0,.969-2.779" transform="translate(-757.51 -395.904)" fill="#731624"/>
              <path id="Path_209428" data-name="Path 209428" d="M940.959,519.513c-1,2-.257,3.009,1.55,3.118a.481.481,0,0,1-.058.961.582.582,0,0,1-.1-.016c-1.555-.408-2.621-1.389-2.031-2.983a4.409,4.409,0,0,1,.635-1.081" transform="translate(-761.446 -420.761)" fill="#c7a2a7"/>
              <path id="Path_209429" data-name="Path 209429" d="M876.193,505.636c-2.355-1.477-7.708-3.27-10.285-4.44-7.615-3.457-10.687-3.356-18.469-1.873a29.969,29.969,0,0,0-17.607.975c-2.474.893-10.413,3.416-10,6.5.855,6.425,29,9.163,29,9.163s29.139-6.672,27.363-10.321" transform="translate(-663.977 -403.618)" fill="#ed1c24"/>
              <path id="Path_209430" data-name="Path 209430" d="M821.72,446.46c-4.039-11.606-21.653-7.863-40.653-8.406-19,.543-36.614-3.2-40.653,8.406a16.261,16.261,0,0,0-.047,7.962c7.719-1.111,15.66-2.576,25.031-3.43,0,0,.279,1.212,5.156.636s8.788.058,9.164-.317a2.62,2.62,0,0,0,.465-1.021h.038a2.376,2.376,0,0,0,.518.861c.409.337,4.308.016,9.218.121a7.474,7.474,0,0,0,4.242-.8c10.463.46,19.119,1.677,27.42,2.7.393-2.541.677-4.837.1-6.713" transform="translate(-599.255 -354.653)" fill="#f4eced"/>
              <path id="Path_209431" data-name="Path 209431" d="M797.09,522.283c-4.91.028-12.164-.144-12.538.232a2.048,2.048,0,0,0-.465.892h-.038a2.379,2.379,0,0,0-.518-.861c-.41-.337-4.308-.013-9.218-.115-2.331-.049-19.684.374-31.771-2.116-.391,2.541,21.668,14.8,40.668,15.328a63.706,63.706,0,0,0,6.837.554c13.037-2.19,30.522-10.886,33.252-15.568.218-.589.667-1.063.6-1.38-7.718,1.115-15.463,2.97-26.809,3.034" transform="translate(-601.39 -420.547)" fill="#f4eced"/>
              <path id="Path_209432" data-name="Path 209432" d="M821.378,446.46c-4.039-11.606-21.31-7.863-40.31-8.406-19,.543-36.614-3.2-40.653,8.406a13.625,13.625,0,0,0-.487,4.7c5.723-4.426,14.086-5.982,23.626-6.687l1.845,6.518-.458-6.614c4.611-.3,9.474-.427,14.429-.6l.906,6.514.43-6.562.206-.008c4.692.177,9.308.291,13.717.527l-.549,6.031,1.7-5.966c10.781.638,19.908,2.115,26.08,7.2a13.889,13.889,0,0,0-.479-5.053" transform="translate(-599.256 -354.653)" fill="#cfb7b4"/>
              <path id="Path_209433" data-name="Path 209433" d="M780.622,420.592c18.99.543,36.3.05,40.354,11.635a12.76,12.76,0,0,0,.221-8.092c-4.039-11.606-22.09-13.267-41.089-13.81-19,.543-36.177,2.2-40.216,13.81-.686,2.238-1,6.221.006,8.493,4.05-11.585,21.733-11.493,40.723-12.035" transform="translate(-598.733 -332.327)" fill="#ff9082"/>
              <path id="Path_209434" data-name="Path 209434" d="M742.473,520.314c-.673,3.1,14.684,18.971,42.6,18.971,27.15-2.165,38.892-16.65,38.753-20.038-5.4,10.6-68.9,9.046-81.357,1.067" transform="translate(-601.321 -420.546)" fill="#ff9082"/>
              <path id="Path_209435" data-name="Path 209435" d="M846.071,651.7c-.22-.5-.293-.507-.888-.507-1.4,0-3.2,2.891-3.2,4.482a1.74,1.74,0,0,0,1.64,1.811c1.361,0,2.227-1.213,2.682-1.213a.6.6,0,0,1,.575.6c0,.678-1.916,1.782-3.257,1.782a2.878,2.878,0,0,1-2.779-2.978c0-2.355,2.588-6.423,5.233-5.541a.6.6,0,0,1,.518-.291c.686,0,.7,1.718.461,2.062a.554.554,0,0,1-.985-.2" transform="translate(-681.009 -526.316)"/>
              <path id="Path_209436" data-name="Path 209436" d="M881.21,693.828c-.285-.3-.112-.6.205-1.333.42-.965.543-1.281.866-1.281a.514.514,0,0,1,.495.512,17.1,17.1,0,0,1-.808,1.948.441.441,0,0,1-.757.154" transform="translate(-713.586 -559.823)"/>
              <path id="Path_209437" data-name="Path 209437" d="M916.525,657.749h-.057c-.927,0-.467-1.142-.467-4.168,0-1.176-.051-2.8-.051-3.981a.876.876,0,0,1,.717-.746c.222,0,1.6.745,1.925.854,2.076.709,4.094,2.435,4.094,4.664a4.047,4.047,0,0,1-.458,1.868c-1.307,2.548-4.692,2.272-5.7,1.509m.575-7.409c-.015,2.375.088-2.193-.046,6.384,2.636,1.139,4.481-.331,4.481-2.323,0-1.071-2.421-3.17-4.436-4.061" transform="translate(-741.789 -525.516)"/>
              <path id="Path_209438" data-name="Path 209438" d="M960.807,693.828c-.286-.3-.112-.6.205-1.333.42-.965.543-1.281.866-1.281a.514.514,0,0,1,.5.512,17.187,17.187,0,0,1-.809,1.948.441.441,0,0,1-.758.154" transform="translate(-778.053 -559.823)"/>
              <path id="Path_209439" data-name="Path 209439" d="M1001.228,658.058c-1.071,0-5.438-5.873-6.065-6.737,0,.032-.049,2.764-.046,2.591,0,.827.04,1.987.04,2.842,0,1.838-.779,1.67-1.088,1.333-.252-.27-.155-.269-.068-2.924.159-4.935-.654-6.159.587-6.159.556,0,1.072,1.429,3.3,4.191a32.35,32.35,0,0,0,2.961,3.189c0-.06.015-3.7-.211-5.421a9.26,9.26,0,0,1-.268-1.2q0-.661.6-.661.991,0,.991,3.7,0,.632-.018,1.888c-.033,2.434.085,3.374-.717,3.374" transform="translate(-804.96 -525.637)"/>
              <path id="Path_209440" data-name="Path 209440" d="M1045.012,693.828c-.307-.318-.079-.679.205-1.333.418-.958.542-1.281.866-1.281a.514.514,0,0,1,.5.512,17.165,17.165,0,0,1-.809,1.948.44.44,0,0,1-.757.154" transform="translate(-846.25 -559.823)"/>
              <path id="Path_209441" data-name="Path 209441" d="M1078.694,658.14a.573.573,0,0,1,.9.168c1.1,1.633,4.533.879,4.533-.837,0-1.083-1.435-1.49-2.517-1.521-2.548-.1-3.136-2.149-1.19-3.565,1.993-1.436,4.442-.54,4.442.023,0,.955-1.267.245-2.192.262-1.89.024-3.034,1.772-1.3,2.17.9.212,2.231-.048,3.252.957,2.355,2.316-1.436,5.724-5.011,4.077-.707-.326-1.241-1.439-.914-1.734" transform="translate(-873.568 -527.749)"/>
              <path id="Path_209442" data-name="Path 209442" d="M827.364,725.01c.051,2.35.516,6.359.233,6.987a.542.542,0,0,1-.905.216c-.33-.288-.068-.331-.162-1.76,0-.034-.321-5.388-.322-5.421a10.81,10.81,0,0,1-2.477-.177.584.584,0,0,1,.125-1.156c.433.025,1.216.171,1.834.171,4.572,0,3.546.1,4.675.1a.587.587,0,0,1,.41,1c-.326.332-.573.081-3.411.043" transform="translate(-666.773 -586.134)"/>
              <path id="Path_209443" data-name="Path 209443" d="M867.6,767.452c-.3-.316-.08-.675.205-1.333.4-.923.531-1.281.865-1.281a.514.514,0,0,1,.5.513,17.208,17.208,0,0,1-.809,1.948.441.441,0,0,1-.758.154" transform="translate(-702.564 -619.452)"/>
              <path id="Path_209444" data-name="Path 209444" d="M903.673,728.071l1.253,1.833c1.356,1.977,1.481,1.791,1.481,2.17a.6.6,0,0,1-.587.593c-.43,0-1.021-.868-1.281-1.258l-1.657-2.455-1.959,2.267c-.928.963-1.042,1.361-1.464,1.361a.6.6,0,0,1-.586-.592c0-.381.312-.507,1.173-1.532l2.135-2.477c-3.091-4.132-2.972-3.422-2.972-3.855a.591.591,0,0,1,.575-.6c.5,0,.873.5,3.183,3.57.753-1,2.411-3.57,2.938-3.57a.6.6,0,0,1,.587.592c0,.039-2.347,3.429-2.819,3.952" transform="translate(-728.008 -585.994)"/>
              <path id="Path_209445" data-name="Path 209445" d="M947.322,767.452c-.3-.316-.08-.675.205-1.333.4-.923.531-1.281.865-1.281a.514.514,0,0,1,.5.513,17.152,17.152,0,0,1-.809,1.948.44.44,0,0,1-.757.154" transform="translate(-767.129 -619.452)"/>
              <path id="Path_209446" data-name="Path 209446" d="M983.566,725.535l-.979,2.42a24.873,24.873,0,0,1-1.783,3.651c-.218.344-.3.945-.809.945a.591.591,0,0,1-.587-.575,17.17,17.17,0,0,1,1.236-2.494c-1.741-2.247-.889-1.681-2.175-3.616-.952-1.429-1.048-1.562-1.048-1.794a.591.591,0,0,1,.587-.581c.455,0,.558.492.922.973a13.789,13.789,0,0,1,1.464,2.517,6.286,6.286,0,0,0,.8,1.293c1.375-3.187,1.921-5.451,2.856-4.618a.523.523,0,0,1,.179.41,4.792,4.792,0,0,1-.667,1.469" transform="translate(-791.626 -585.958)"/>
              <path id="Path_209447" data-name="Path 209447" d="M1021.617,767.452c-.3-.317-.08-.675.205-1.333.411-.944.539-1.281.866-1.281a.515.515,0,0,1,.5.513,17.23,17.23,0,0,1-.808,1.948.441.441,0,0,1-.758.154" transform="translate(-827.303 -619.452)"/>
              <path id="Path_209448" data-name="Path 209448" d="M1058.938,725.879c-1.87,1.449-3.547,4.448-4.624,5.877,3.34-.131,3.719-.154,4.436-.154a6.5,6.5,0,0,1,1.11.068.515.515,0,0,1,.3.911c-.233.193-.516.147-.923.123-.671-.04-2.083,0-3.1.023-2.59.063-3.254.228-3.254-.532,0-.64.729-1.42.962-1.794,1.065-1.4,2.579-3.9,4.419-5.467-1.558.045-.517.131-4.659.131a.582.582,0,0,1-.3-1.1,5.351,5.351,0,0,1,1.791,0,24.052,24.052,0,0,0,3.8-.031c3.287,0,.05,1.909.034,1.942" transform="translate(-852.745 -586.284)"/>
              <path id="Path_209449" data-name="Path 209449" d="M706.245,467.768a31.569,31.569,0,0,0,2.042,19.1c.249.567,1.08.077.833-.487a30.431,30.431,0,0,1-1.945-18.361c.124-.606-.806-.865-.93-.257" transform="translate(-571.473 -378.57)" fill="#410c14"/>
              <path id="Path_209450" data-name="Path 209450" d="M923.458,376.683a13.222,13.222,0,0,0,11.052.248c.57-.241.079-1.073-.487-.833a12.174,12.174,0,0,1-10.078-.248c-.557-.267-1.047.564-.487.833" transform="translate(-747.72 -304.364)" fill="#410c14"/>
              <path id="Path_209451" data-name="Path 209451" d="M1183.084,461.594a31.894,31.894,0,0,1-3.525,20.907c-.3.541.506,1.07.808.527a32.96,32.96,0,0,0,3.659-21.644c-.106-.612-1.048-.4-.942.211" transform="translate(-955.287 -373.383)" fill="#410c14"/>
              <path id="Path_209452" data-name="Path 209452" d="M753.748,144.634c-10.462-.122-25.4.37-42.067.37-17.214,0-32.744-.524-43.389-.354h0c-9.1,1.389-14.591,2.691-14.591,2.691,0,4.131,26.108,12.623,57.983,12.623s57.443-8.492,57.443-12.623Z" transform="translate(-529.437 -117.126)" fill="#ff9082"/>
              <path id="Path_209453" data-name="Path 209453" d="M769.124,133.574a341.819,341.819,0,0,1-57.713,4.952,341.774,341.774,0,0,1-57.713-4.952s5.489-1.3,14.59-2.691h0a285.974,285.974,0,0,1,42.376-3.266,303.38,303.38,0,0,1,43.081,3.25c9.517,1.4,15.375,2.707,15.375,2.707" transform="translate(-529.438 -103.359)" fill="#ff9082"/>
              <path id="Path_209454" data-name="Path 209454" d="M725.9,163.377c-19.938,1.109-51.19-1.17-72.118-4.521l-.084.02c0,.011,0,.022,0,.033,33.625,6.836,84.012,6.5,115.42,0,0-.011,0-.023,0-.033l-.087-.019c-14.4,2.252-34.77,4.158-43.138,4.52" transform="translate(-529.437 -128.66)" fill="#2b080e"/>
              <path id="Path_209455" data-name="Path 209455" d="M875.81,272.325c-1.225,0-.515-3.311-.456-7.044-.009-.854-.008-1.777.25-1.936,4.25-1.313,6.15,2.814,3.611,4.692,2.088.891,2.073,2.147.957,3.109a6.616,6.616,0,0,1-4.362,1.179m1.589-3.593a4.942,4.942,0,0,1-1.11-.034c-.052,1.08-.028,1.471-.034,2.46a5.23,5.23,0,0,0,3.195-.9c.451-.385.58-.6-.382-1.048a13.039,13.039,0,0,0-1.669-.478m-.905-4.425c0,.032-.134,3.417-.125,3.2,4.042.341,3.557-3.745.125-3.2" transform="translate(-708.751 -213.082)"/>
              <path id="Path_209456" data-name="Path 209456" d="M914.3,308.589c-.286-.3-.112-.6.205-1.332.417-.959.541-1.282.865-1.282a.514.514,0,0,1,.5.513,17.169,17.169,0,0,1-.809,1.947.44.44,0,0,1-.757.154" transform="translate(-740.389 -247.814)"/>
              <path id="Path_209457" data-name="Path 209457" d="M955.1,273.163c-.4-.637-1.141-5.226-1.253-5.911-1.673,5.121-1.785,6-2.545,6-.453,0-.627-.5-.758-.974-.347-1.335-.716-2.514-1.179-4.937-1.505,6.451-.751,3.539-1.224,5.592-.229.6-1.837,1.29-.758-2.511l.627-2.3c.364-1.942.529-3.77,1.424-3.77,1,0,.651,2.03,1.97,6.543,1.96-5.1,1.456-6.628,2.506-6.628.731,0,.874,1.555.968,2.289.716,5.478,1.757,6.209,1.147,6.754a.679.679,0,0,1-.925-.154" transform="translate(-766.995 -214.039)"/>
              <path id="Path_209458" data-name="Path 209458" d="M1003.782,308.589c-.307-.318-.079-.678.205-1.332.417-.959.541-1.282.865-1.282a.514.514,0,0,1,.5.513,17.157,17.157,0,0,1-.808,1.947.441.441,0,0,1-.758.154" transform="translate(-812.858 -247.814)"/>
              <path id="Path_209459" data-name="Path 209459" d="M1037.1,268.73c-.144,2.708.223,3.554-.563,3.554a.519.519,0,0,1-.524-.541c.016-1.458-.051-1.758.1-4.032.235-3.394-.1-4.532.751-4.4a2.566,2.566,0,0,1,.519-.085c3.725-.316,4.88,3.127,2.711,4.823a4.512,4.512,0,0,1-3,.678m.2-4.4c-.18,4.542-.118,2.975-.131,3.314a2.868,2.868,0,0,0,2.238-.41c1.611-1.189.417-3.326-2.107-2.9" transform="translate(-839.075 -213.177)"/>
              <path id="Path_209460" data-name="Path 209460" d="M609.75,122.181c-4.9,1-15.3,3.859-16.822,8.823-1.782,5.816,4.872,6.792,13.1,9.965.58.224.831-.709.256-.93-10.657-4.111-11.522-4.174-12.3-5.753-2.98-6.032,9.479-9.844,16.027-11.175.608-.124.351-1.053-.256-.93" transform="translate(-479.984 -98.947)" fill="#410c14"/>
              <path id="Path_209461" data-name="Path 209461" d="M1226.258,120.12c4.9,1,15.3,3.859,16.822,8.823,1.782,5.816-4.872,6.792-13.1,9.965-.58.224-.831-.709-.257-.93,10.658-4.111,11.522-4.174,12.3-5.753,2.98-6.032-9.479-9.844-16.026-11.175-.608-.124-.351-1.053.256-.93" transform="translate(-992.673 -97.278)" fill="#410c14"/>
              <path id="Path_209462" data-name="Path 209462" d="M1517.757,91.55c1.85,5.41-1.042,14.521-8.74,22.6-7.569,8.02-19.943,15.007-34.086,14.832-14.144.175-26.517-6.812-34.086-14.832-7.7-8.078-10.59-17.19-8.74-22.6,4.254-10.96,22.811-7.426,42.826-7.938,20.015.513,38.571-3.022,42.826,7.938" transform="translate(-1159.442 -67.594)" fill="#2b080e"/>
              <g id="Group_983459" data-name="Group 983459" transform="translate(290.638 25.811)" opacity="0.54">
                <g id="Group_983458" data-name="Group 983458">
                  <g id="Group_983457" data-name="Group 983457" clip-path="url(#clip-path-6)">
                    <path id="Path_209463" data-name="Path 209463" d="M1574.924,158.6h-44.262c-.106,0-.821-4.652-.942-5.113-.763-2.9-1.337-6.388.336-9.013a14.448,14.448,0,0,1,5.09-4.532c5.345-3.079,11.822-4.152,17.918-4.152,7.65,0,26.514,3,23.769,14.537-.658,2.765-1.292,5.5-1.908,8.273" transform="translate(-1528.971 -135.788)" fill="#8f4550"/>
                  </g>
                </g>
              </g>
              <path id="Path_209464" data-name="Path 209464" d="M1600.662,158.6H1566.9l.721-10.721c.456-6.778,7.557-12.089,16.163-12.089s15.706,5.311,16.162,12.089Z" transform="translate(-1269.048 -109.976)" fill="#56101b"/>
              <path id="Path_209465" data-name="Path 209465" d="M1646.831,137.653a5.488,5.488,0,0,0-.829-1.491,4.667,4.667,0,0,1-1.1-1.955c-.163-1.107.953-2.325.93-3.442h-5.152c-.023,1.117,1.451,2.231,1.288,3.338a3.851,3.851,0,0,1-1.093,1.764,10.508,10.508,0,0,0-.918,1.092,2.251,2.251,0,0,0,.4,3.115,5.048,5.048,0,0,0,2.719.812,5.425,5.425,0,0,0,2.829-.582,2.015,2.015,0,0,0,.925-2.65" transform="translate(-1327.863 -105.909)" fill="#731624"/>
              <path id="Path_209466" data-name="Path 209466" d="M1644.884,160.037c-.967,1.931-.2,2.873,1.479,2.974a.459.459,0,0,1,.431.486c-.031.517-.616.424-.578.416-2.021-.53-2.825-1.938-1.331-3.876" transform="translate(-1331.588 -129.617)" fill="#c7a2a7"/>
              <path id="Path_209467" data-name="Path 209467" d="M1573.088,226.285a58.671,58.671,0,0,0-7.211-4.4c-7.263-3.891-10.193-3.777-17.617-2.108a24.444,24.444,0,0,0-16.794,1.1c-2.359,1.005-9.1,2.862-8.708,6.329.815,7.232,26.829,11.3,26.829,11.3s25.2-8.112,23.5-12.219" transform="translate(-1233.288 -177.113)" fill="#ed1c24"/>
              <path id="Path_209468" data-name="Path 209468" d="M1541.8,222.016a42.518,42.518,0,0,0,3.192-3.759c-6.917-2.474-20.445-1.312-34.8-1.534-17.273.266-33.347-1.469-38.15,3.533q.756.886,1.587,1.759a48.672,48.672,0,0,0,21.408,13.076c4.827-.088,9.989-.233,15.251-.1,3.542-.091,7.039-.055,10.418.005a48.69,48.69,0,0,0,21.095-12.984" transform="translate(-1192.221 -175.459)" fill="#f4eced"/>
              <path id="Path_209469" data-name="Path 209469" d="M1533.538,264.054a48.774,48.774,0,0,0,17.25-9.361c-7.7,1.4-17.447,1.435-27.588,1.7-13.879-.356-27.1-.293-35.314-3.876a48.781,48.781,0,0,0,19.982,11.634Z" transform="translate(-1205.057 -204.514)" fill="#cfb7b4"/>
              <path id="Path_209470" data-name="Path 209470" d="M1665.606,221.789l.715,10.9H1664.7Z" transform="translate(-1348.26 -179.63)" fill="#cfb7b4"/>
              <path id="Path_209471" data-name="Path 209471" d="M1584.878,235.123l.715-10.325-2.556,10.325Z" transform="translate(-1282.122 -182.068)" fill="#cfb7b4"/>
              <path id="Path_209472" data-name="Path 209472" d="M1737.465,237.075l-1.431-9.866,2.964,9.866Z" transform="translate(-1406.036 -184.02)" fill="#cfb7b4"/>
              <path id="Path_209473" data-name="Path 209473" d="M1530.676,97.562c1.675-2.944-.944-7.9-7.914-12.3q-1.23-.783-2.642-1.537c-7.8-.668-17.765.151-28.124-.114-10.462.268-20.524-.569-28.354.135q-1.389.741-2.6,1.517c-6.969,4.4-9.589,9.355-7.913,12.3,3.852,5.965,20.653,4.041,38.775,4.32,18.122-.279,34.923,1.645,38.775-4.32" transform="translate(-1176.507 -67.594)" fill="#f4eced"/>
              <path id="Path_209474" data-name="Path 209474" d="M1530.852,97.211c1.291-2.976-1.389-7.722-8.088-11.948q-1.23-.784-2.642-1.537c-7.8-.668-17.765.151-28.124-.115-10.461.268-20.524-.569-28.354.135q-1.389.741-2.6,1.517c-6.789,4.282-9.45,9.1-8.035,12.066,7.47-5.8,22.817-5.641,39.074-6.057,16.145.414,31.289.262,38.773,5.939" transform="translate(-1176.509 -67.594)" fill="#cfb7b4"/>
              <path id="Path_209475" data-name="Path 209475" d="M1652.072,129.254l.715-10.9h-1.624Z" transform="translate(-1337.298 -95.859)" fill="#cfb7b4"/>
              <path id="Path_209476" data-name="Path 209476" d="M1571.342,118.357l.716,10.325-2.556-10.325Z" transform="translate(-1271.159 -95.86)" fill="#cfb7b4"/>
              <path id="Path_209477" data-name="Path 209477" d="M1723.931,118.357l-1.431,9.866,2.964-9.866Z" transform="translate(-1395.074 -95.86)" fill="#cfb7b4"/>
              <path id="Path_209478" data-name="Path 209478" d="M1475.01,57.237c20,.512,38.472.157,42.739,11.1a13.989,13.989,0,0,0,.006-7.752c-4.255-10.96-23.271-14.849-43.286-15.362-20.015.513-38.111,4.4-42.366,15.362a13.989,13.989,0,0,0,.006,7.752c4.267-10.94,22.9-10.585,42.9-11.1" transform="translate(-1159.44 -36.625)" fill="#ff9082"/>
              <path id="Path_209479" data-name="Path 209479" d="M1517.75,166.816a25.073,25.073,0,0,1-8.733,13.328c-7.662,6.2-18.181,9.607-32.325,9.432-14.144.175-28.278.107-35.847-7.913a34.274,34.274,0,0,1-8.733-14.847l-.006.016c-1.851,5.41,1.042,14.521,8.74,22.6,7.569,8.021,20.891,14.058,35.035,13.883a44.351,44.351,0,0,0,33.137-13.883c7.7-8.078,10.59-17.19,8.74-22.6l-.006-.016" transform="translate(-1159.442 -135.107)" fill="#ff9082"/>
              <path id="Path_209480" data-name="Path 209480" d="M1624.544,399.28c-.443,2.2-1.976,3.838-4.151,3.838-4.261,0-3.111-6.233-.313-8.7a2.428,2.428,0,0,1,2.91-.3c.75.3,1.374.78.865,1.321-.557.594-1.052-.49-2.232-.49-1.88,0-4.738,7-1.23,7a3,3,0,0,0,2.876-2.6,7.188,7.188,0,0,0-2.705.609.584.584,0,0,1-.524-1.042c1.269-.776,4.334-.9,4.652-.587a.563.563,0,0,1,.165.416.55.55,0,0,1-.313.53" transform="translate(-1310.098 -318.93)"/>
              <path id="Path_209481" data-name="Path 209481" d="M1663.062,439.19c-.307-.318-.079-.679.205-1.333.417-.959.541-1.281.865-1.281a.514.514,0,0,1,.5.512,17.1,17.1,0,0,1-.809,1.948.44.44,0,0,1-.757.154" transform="translate(-1346.816 -353.589)"/>
              <path id="Path_209482" data-name="Path 209482" d="M1699.853,400.676c0,.034-.006,3.267-.006,3.064,0,.719-.734.691-1.014.279-.207-.3-.206-.269-.079-4.493.129-4.3,0-4.141.242-4.4a.561.561,0,0,1,.809,0c.362.381.013,1.982.031,3.861,2.976-2.82,3.4-4.534,4.2-3.764.432.418.053.929-1.293,2.42q-1.013,1.11-2.1,2.175a32.871,32.871,0,0,0,2.739,2.563c.615.475,1.15.341,1.15.94a.648.648,0,0,1-.12.37c-.792,1.16-3.975-2.469-4.561-3.018" transform="translate(-1375.771 -319.882)"/>
              <path id="Path_209483" data-name="Path 209483" d="M1432.677,33.258a50.285,50.285,0,0,1,17.176-11.993c.569-.241.079-1.072-.487-.833A50.943,50.943,0,0,0,1432,32.576c-.424.453.257,1.137.682.682" transform="translate(-1159.682 -16.514)" fill="#410c14"/>
              <path id="Path_209484" data-name="Path 209484" d="M1801.5,32.1a24.657,24.657,0,0,1,13.262,6.882.483.483,0,0,0,.682-.682,25.539,25.539,0,0,0-13.688-7.13c-.607-.106-.868.823-.256.93" transform="translate(-1458.775 -25.235)" fill="#410c14"/>
              <path id="Path_209485" data-name="Path 209485" d="M1393.771,1123.31c0,19.718-12.293,35.7-27.458,35.7-12.243,0-22.615-10.419-26.157-24.81a45.616,45.616,0,0,1-1.3-10.894c0-12.972,5.32-24.328,13.278-30.581,4.139-3.251,24.533-3.129,28.757.318,7.737,6.314,12.881,17.507,12.881,30.262" transform="translate(-1084.355 -883.108)" fill="#56101b"/>
              <path id="Path_209486" data-name="Path 209486" d="M1366.313,1085.729c-15.165,0-27.458,15.23-27.458,34.017q0,2.009.184,3.959c3.965.876,8.521-17.637,26.482-17.526,17.571-.361,24.03,17.7,28.062,17.565q.186-1.966.188-4c0-18.787-12.293-34.017-27.458-34.017" transform="translate(-1084.355 -879.346)" fill="#f4eced"/>
              <path id="Path_209487" data-name="Path 209487" d="M1371.269,1088.636c-3.037.4-5.328.859-5.328.859s-2.126-.433-4.9-.784c-12.641,3.047-22.183,16.838-22.183,33.389q0,2.008.184,3.957a1.21,1.21,0,0,0,.126.023c.964.114,1.97-.885,3.2-2.458,3.943-7.438,10.159-20.673,23.246-20.588,12.669-.273,19.813,12.4,24.1,20.021,1.546,1.81,2.771,3.041,3.828,3.044h.048q.185-1.967.188-4c0-16.69-9.7-30.574-22.5-33.464" transform="translate(-1084.355 -881.7)" fill="#cfb7b4"/>
              <path id="Path_209488" data-name="Path 209488" d="M1350.491,1071.979c4.729-1.481,15.5.713,15.5.713s12.407-2.77,17.218-.55c11.433,5.279,10.546,40.145,10.053,39.9-3.449-1.716-10.148-26.187-27.6-25.81-16.834-.11-23.08,22.775-26.926,26.086-.822.708-.573-36.476,11.755-40.339" transform="translate(-1084.034 -867.643)" fill="#ff9082"/>
              <path id="Path_209489" data-name="Path 209489" d="M1386.257,1280.921c3.083,0,6.671-2.418,9.67-5.637,2.657-3.465,11.131-2.045,12.569-7.319-.274-1.315-11.778-9.022-13.667-11.079-6.159-6.711-5.767-13.241-8.825-14.408-6.68-2.547-6.049,6.173-11.847,14.549-4.447,6.425-12.237,12.021-13.907,9.584.957,5.82,21.1,14.31,26.005,14.31" transform="translate(-1101.685 -1005.934)" fill="#ed1c24"/>
              <path id="Path_209490" data-name="Path 209490" d="M1383.653,1332.873c-6.359.043-9.166-6.079-9.7-12.246-4.478,6.3-12.056,11.688-13.7,9.289.957,5.82,21.1,14.31,26.005,14.31,3.083,0,6.671-2.418,9.67-5.637,2.657-3.465,11.131-2.045,12.569-7.319-.274-1.316-11.778-9.022-13.667-11.079-.951,6.811-5.1,12.846-11.178,12.683" transform="translate(-1101.685 -1069.239)" fill="#780207"/>
              <path id="Path_209491" data-name="Path 209491" d="M1474.844,1269.645s-5.083,20.392.966,35.014c0,0-1.623-10.524-1.9-14.141-.334-4.334.936-20.873.936-20.873" transform="translate(-1192.877 -1028.302)" fill="#780207"/>
              <path id="Path_209492" data-name="Path 209492" d="M1393.865,1284.814c-4.032,1.965-10.067,25.916-27.52,25.54-16.915.11-23.038-22.125-26.926-25.215-.7-.555,1.78,23.648,6.1,30.434,4.9,7.69,7.258,11.65,22.559,11.65,14.062,0,17.088-3.622,21.1-9.911,5.945-9.31,5.257-32.778,4.682-32.5" transform="translate(-1084.717 -1040.585)" fill="#ff9082"/>
              <g id="Group_983462" data-name="Group 983462" transform="translate(266.242 206.008)" opacity="0.33" style="mix-blend-mode: multiply;isolation: isolate">
                <g id="Group_983461" data-name="Group 983461">
                  <g id="Group_983460" data-name="Group 983460" clip-path="url(#clip-path-7)">
                    <path id="Path_209493" data-name="Path 209493" d="M1557.543,1099.768s3.395,7.455-4.414,11.411c0,0,3.876-2.536,4.414-11.411" transform="translate(-1524.142 -1096.724)" fill="#ff9082"/>
                    <path id="Path_209494" data-name="Path 209494" d="M1523.645,1088.1s4.563,6.8-2.5,11.977c0,0,3.411-3.134,2.5-11.977" transform="translate(-1498.238 -1087.275)" fill="#ff9082"/>
                    <path id="Path_209495" data-name="Path 209495" d="M1401.359,1095.423s-3.394,7.455,4.414,11.411c0,0-3.876-2.537-4.414-11.411" transform="translate(-1400.626 -1093.205)" fill="#ff9082"/>
                    <path id="Path_209496" data-name="Path 209496" d="M1440.371,1083.757s-4.562,6.8,2.5,11.977c0,0-3.412-3.134-2.5-11.977" transform="translate(-1431.642 -1083.757)" fill="#ff9082"/>
                    <path id="Path_209497" data-name="Path 209497" d="M1468.23,1434.871v12.378s1.849-4.823,0-12.378" transform="translate(-1455.38 -1368.129)" fill="#ff9082"/>
                    <path id="Path_209498" data-name="Path 209498" d="M1499.34,1433.524s.924,9.058-.241,12.152a18.049,18.049,0,0,0,.241-12.152" transform="translate(-1480.381 -1367.037)" fill="#ff9082"/>
                  </g>
                </g>
              </g>
              <path id="Path_209499" data-name="Path 209499" d="M1500.437,1571.29c-.018.158-.041.314-.072.47a3.934,3.934,0,0,1-1.688,2.654,2.474,2.474,0,0,1-2.986-.261,1.181,1.181,0,0,1-.372-.847.654.654,0,0,1,.588-.632c.613,0,.632.871,1.246.96a1.961,1.961,0,0,0,1.769-1.145,4.33,4.33,0,0,0,.189-1.661c-.044-2.715-.129-5.359-.4-8.049-.074-.748-.05-3.834-1.3-3.834a2.873,2.873,0,0,0-2.187,1.511c-2.623,3.736,0,6.228-2.066,6.228-1.883,0-.557-3.8-.793-8.035-.047-.847-.1-1.2.232-1.529a.91.91,0,0,1,1.552.593q.028.147.065,1.436,1.556-2.076,3.2-2.076c1.936,0,2.319,1.711,2.437,3.318.2,2.718.135,5.44.479,8.146a11.55,11.55,0,0,1,.1,2.754" transform="translate(-1208.499 -1260.914)"/>
              <path id="Path_209500" data-name="Path 209500" d="M1448.992,1027.209a7.846,7.846,0,0,0,12.19,1.009c.409-.465-.271-1.149-.682-.682a6.871,6.871,0,0,1-10.676-.813c-.33-.523-1.165-.04-.833.487" transform="translate(-1173.495 -831.373)" fill="#410c14"/>
              <path id="Path_209501" data-name="Path 209501" d="M1741.569,1109.3c0,20.3-10.3,36.759-23,36.759-10.254,0-18.941-10.727-21.908-25.544-.432-2.159-1.216-7.014-1.216-7.014s.125-2.679.125-4.2c0-13.355,4.457-25.048,11.122-31.485,3.466-3.348,20.547-3.221,24.085.328,6.481,6.5,10.789,18.025,10.789,31.157" transform="translate(-1373.164 -870.974)" fill="#56101b"/>
              <path id="Path_209502" data-name="Path 209502" d="M1719.106,1070.607c-12.7,0-23,15.681-23,35.023q0,2.068.154,4.076c3.322.9,7.138-18.158,22.181-18.044,14.716-.371,20.127,18.221,23.5,18.084q.155-2.025.157-4.116c0-19.343-10.3-35.023-23-35.023" transform="translate(-1373.7 -867.099)" fill="#f4eced"/>
              <path id="Path_209503" data-name="Path 209503" d="M1723.257,1073.6c-2.544.408-4.462.884-4.462.884s-1.78-.445-4.106-.808c-10.587,3.137-18.58,17.336-18.58,34.378q0,2.067.154,4.074a.855.855,0,0,0,.106.023c.807.117,1.649-.911,2.68-2.531,3.3-7.658,8.508-21.283,19.469-21.2,10.611-.281,16.594,12.765,20.182,20.613,1.3,1.863,2.321,3.131,3.207,3.134h.04q.155-2.025.157-4.116c0-17.185-8.126-31.479-18.847-34.454" transform="translate(-1373.7 -869.523)" fill="#cfb7b4"/>
              <path id="Path_209504" data-name="Path 209504" d="M1743.546,1284.911c-3.377.642-8.459,18.63-22.894,18.588-14.762.442-19.12-17.833-22.4-17.577q.262,2.192.683,4.287c2.966,14.816,11.654,25.544,21.908,25.544,11.441,0,20.931-13.354,22.7-30.842" transform="translate(-1375.437 -1040.666)" fill="#f4eced"/>
              <path id="Path_209505" data-name="Path 209505" d="M1741.565,1277.346c-.772.354-12.292,23.911-22.9,23.629-10.961.087-22.956-23.806-22.991-23.8-.08,1.052.606,2.21.588,3.288q.237,1.773.58,3.479c2.967,14.816,11.654,25.544,21.908,25.544,11.724,0,21.4-14.021,22.818-32.145" transform="translate(-1373.34 -1034.405)" fill="#cfb7b4"/>
              <path id="Path_209506" data-name="Path 209506" d="M1688.962,1097.238a2.6,2.6,0,0,1-.277-1.021c-1.844-22.856.712-35.81,10.979-39.764,3.96-1.525,12.983.734,12.983.734s10.392-2.852,14.421-.565c9.576,5.435,11.307,25.215,9.549,38.494-.212,1.6-.913,2.821-1.326,2.568-2.889-1.767-8.3-26.944-22.921-26.556-14.1-.113-18.613,22.952-21.835,26.361-.559.593-1.167.506-1.573-.25" transform="translate(-1367.24 -855.052)" fill="#ff9082"/>
              <path id="Path_209507" data-name="Path 209507" d="M1740.176,1274.365c-3.376,2.022-8.658,26.682-23.274,26.294-14.167.113-19.917-23.4-23.174-26.583a34.264,34.264,0,0,1,.725,5.087c.277,3.563.685,7.119,1.183,10.657,1.049,7.447,2.208,16.053,7.125,22.072,4.14,5.068,9.324,6.133,15.594,6.133,9.244,0,15.806-4.239,18.877-13.083,2.618-7.537,2.958-16.086,3.022-24,0-.486-.232-6.489-.077-6.581" transform="translate(-1371.771 -1031.891)" fill="#ff9082"/>
              <g id="Group_983465" data-name="Group 983465" transform="translate(329.174 204.849)" opacity="0.33" style="mix-blend-mode: multiply;isolation: isolate">
                <g id="Group_983464" data-name="Group 983464">
                  <g id="Group_983463" data-name="Group 983463" clip-path="url(#clip-path-8)">
                    <path id="Path_209508" data-name="Path 209508" d="M1761.89,1422s-5.546,6.029.643,12.217c0,0-2.894-3.617-.643-12.217" transform="translate(-1754.301 -1356.548)" fill="#ff9082"/>
                    <path id="Path_209509" data-name="Path 209509" d="M1733.981,1403.822s-5.546,6.029.643,12.218c0,0-2.894-3.617-.643-12.218" transform="translate(-1731.697 -1341.822)" fill="#ff9082"/>
                    <path id="Path_209510" data-name="Path 209510" d="M1903.244,1395.287s5.546,6.028-.643,12.218c0,0,2.894-3.617.643-12.218" transform="translate(-1870.115 -1334.91)" fill="#ff9082"/>
                    <path id="Path_209511" data-name="Path 209511" d="M1889.694,1093.667s3.394,7.456-4.414,11.411c0,0,3.876-2.536,4.414-11.411" transform="translate(-1856.086 -1090.624)" fill="#ff9082"/>
                    <path id="Path_209512" data-name="Path 209512" d="M1855.792,1082s4.562,6.8-2.5,11.977c0,0,3.412-3.133,2.5-11.977" transform="translate(-1830.18 -1081.176)" fill="#ff9082"/>
                    <path id="Path_209513" data-name="Path 209513" d="M1733.508,1089.324s-3.395,7.455,4.413,11.411c0,0-3.876-2.537-4.413-11.411" transform="translate(-1732.57 -1087.106)" fill="#ff9082"/>
                    <path id="Path_209514" data-name="Path 209514" d="M1772.52,1077.659s-4.562,6.8,2.5,11.977c0,0-3.411-3.134-2.5-11.977" transform="translate(-1763.586 -1077.659)" fill="#ff9082"/>
                    <path id="Path_209515" data-name="Path 209515" d="M1865.3,1418.4s5.546,6.029-.643,12.218c0,0,2.894-3.617.643-12.218" transform="translate(-1839.384 -1353.633)" fill="#ff9082"/>
                    <path id="Path_209516" data-name="Path 209516" d="M1800.38,1428.77v12.379s1.849-4.823,0-12.379" transform="translate(-1787.325 -1362.028)" fill="#ff9082"/>
                    <path id="Path_209517" data-name="Path 209517" d="M1831.489,1427.424s.924,9.057-.241,12.152a18.051,18.051,0,0,0,.241-12.152" transform="translate(-1812.325 -1360.938)" fill="#ff9082"/>
                  </g>
                </g>
              </g>
              <path id="Path_209518" data-name="Path 209518" d="M1778.257,1570.621l-1.361-1.247a5.081,5.081,0,0,1-1.908.388,4.543,4.543,0,0,1-4.316-4.459c0-4.506,6-6.484,8.246-3.235a6.142,6.142,0,0,1,.934,3.537,3.78,3.78,0,0,1-1.845,3.172l1.241,1.145c.233.291,1.4.826.777,1.489-.116.124-.873,0-1.768-.789m-5.455-3.063a2.924,2.924,0,0,0,3,.928q-1.1-.957-1.1-1.509a.6.6,0,0,1,.6-.581c.51,0,.479.544,1.759,1.588a2.75,2.75,0,0,0,1.623-2.38,4.934,4.934,0,0,0-.689-2.745c-2.274-3.5-8.679,1.043-5.187,4.7" transform="translate(-1434.089 -1263.837)"/>
              <path id="Path_209519" data-name="Path 209519" d="M1828.227,1604.275c-.306-.317-.082-.673.2-1.333.421-.967.543-1.281.866-1.281a.514.514,0,0,1,.5.512,17.122,17.122,0,0,1-.809,1.948.44.44,0,0,1-.757.154" transform="translate(-1480.585 -1297.206)"/>
              <path id="Path_209520" data-name="Path 209520" d="M1868.245,1568.833a47.246,47.246,0,0,1-1.167-6.037c-.856,3.176-1.583,3.935-1.959,5.546a.5.5,0,0,1-.159.678c-.379.284-1.236.232-1.236-.536-1.092-4.815-.716-3.154-.8-3.513-.642-2.447-1.3-3.954-1.3-4.277,0-.631.86-.749,1.167-.125a43.2,43.2,0,0,1,1.641,6.179c1.313-3.045,1.762-6.412,2.773-6.412.947,0,.658,1.586,1.367,4.982l.49,2.238c2.613-6.282,2.2-7.386,3.131-7.386a.506.506,0,0,1,.576.569,2.681,2.681,0,0,1-.183.569l-.228.615-.313,1.013c-2.565,6.333-2.479,6.049-2.494,6.083-.257.478-1.3.475-1.3-.188" transform="translate(-1507.75 -1263.591)"/>
              <path id="Path_209521" data-name="Path 209521" d="M1771.831,1007.187a14.681,14.681,0,0,0,18.246-.54c.472-.405-.213-1.084-.682-.682a13.728,13.728,0,0,1-17.077.389c-.491-.379-.972.459-.487.833" transform="translate(-1434.865 -814.644)" fill="#410c14"/>
              <path id="Path_209522" data-name="Path 209522" d="M1800.279,1530.93c-4.631-1.958-10.294-.931-10.187.637a.749.749,0,0,0,1.494,0,.413.413,0,0,0-.095-.314c1.456-.182,4.22-1.21,8.3.515.564.239,1.057-.591.486-.833" transform="translate(-1449.817 -1239.05)" fill="#410c14"/>
              <path id="Path_209523" data-name="Path 209523" d="M1524.064,634.752c1.952,5.7-24,15.787-39.524,15.9-16.407.12-44.229-6.15-46.168-15.7-2.468-12.15,20.266-13.114,41.372-13.655,21.105.541,39.834,1.894,44.321,13.451" transform="translate(-1164.806 -503.2)" fill="#2b080e"/>
              <g id="Group_983468" data-name="Group 983468" transform="translate(293.248 126.934)" opacity="0.54">
                <g id="Group_983467" data-name="Group 983467">
                  <g id="Group_983466" data-name="Group 983466" clip-path="url(#clip-path-9)">
                    <path id="Path_209524" data-name="Path 209524" d="M1543.4,685.886c-.709-2.967-1.242-6.539.313-9.227a13.949,13.949,0,0,1,4.731-4.64c4.967-3.152,10.988-4.251,16.654-4.251,7.109,0,24.643,3.068,22.091,14.883-.611,2.831-43.676,3.708-43.789,3.235" transform="translate(-1542.701 -667.768)" fill="#8f4550"/>
                  </g>
                </g>
              </g>
              <path id="Path_209525" data-name="Path 209525" d="M1581.476,680.143c.424-6.939,7.023-12.376,15.021-12.376s14.6,5.438,15.022,12.376Z" transform="translate(-1280.857 -540.833)" fill="#2b080e"/>
              <path id="Path_209526" data-name="Path 209526" d="M1564.457,703.445c-2.483-1.25-8.128-2.769-10.845-3.759-8.03-2.926-11.269-2.841-19.476-1.585a39.033,39.033,0,0,0-18.567.825c-2.608.756-10.98,2.892-10.548,5.5.9,5.439,30.582,7.758,30.582,7.758s30.728-5.649,28.854-8.739" transform="translate(-1218.922 -564.731)" fill="#ed1c24"/>
              <path id="Path_209527" data-name="Path 209527" d="M1529.161,711.218c-6.428,1.184-30.189,1.966-40.073,1.9-8.828.059-31.2-.8-39.729-3.058,5.763,7.289,28.229,11.761,39.1,11.64,11.168.124,33.227-5.312,40.7-10.482" transform="translate(-1173.854 -575.087)" fill="#f4eced"/>
              <path id="Path_209528" data-name="Path 209528" d="M1522.848,626.762c-4.259-9.825-22.834-6.657-42.869-7.117-20.035.459-38.609-2.709-42.868,7.117a11.15,11.15,0,0,0-.05,6.74c8.14-.941,16.513-2.181,26.395-2.9,0,0,.295,1.026,5.437.539s9.268.049,9.663-.269a2.042,2.042,0,0,0,.491-.864h.04a1.987,1.987,0,0,0,.546.729c.432.285,4.543.013,9.72.1a9.521,9.521,0,0,0,4.474-.674c11.033.389,20.559,1.42,29.312,2.284a10.457,10.457,0,0,0-.29-5.683" transform="translate(-1163.495 -501.747)" fill="#f4eced"/>
              <path id="Path_209529" data-name="Path 209529" d="M1522.848,626.762c-4.259-9.825-22.833-6.657-42.869-7.117-20.035.459-38.609-2.709-42.868,7.117a9.381,9.381,0,0,0-.515,3.98c6.036-3.747,14.854-5.065,24.914-5.661l1.946,5.518-.483-5.6c4.862-.254,9.99-.361,15.215-.51l.955,5.515.454-5.556.217-.007c4.948.15,9.815.246,14.464.446l-.579,5.106,1.79-5.051c11.369.54,21.341,1.791,27.848,6.1a9.568,9.568,0,0,0-.49-4.278" transform="translate(-1163.495 -501.747)" fill="#cfb7b4"/>
              <path id="Path_209530" data-name="Path 209530" d="M1480.059,604.862c20.025.459,38.51.141,42.781,9.948a11.286,11.286,0,0,0,.007-6.95c-4.259-9.825-23.294-11.232-43.329-11.692-20.035.46-38.149,1.866-42.408,11.692a11.286,11.286,0,0,0,.006,6.95c4.271-9.808,22.918-9.489,42.943-9.948" transform="translate(-1163.494 -482.845)" fill="#ff9082"/>
              <path id="Path_209531" data-name="Path 209531" d="M1481.708,698.72c-20.025-.459-38.632-.4-42.9-10.212a14.173,14.173,0,0,0,2.345,7.734c6.611,10.744,19.737,12.039,39.772,12.5,20.035-.46,31.687-1.334,40.172-10.649,1.365-1.5,3.788-5.982,3.675-9.321-4.271,9.807-23.035,9.489-43.061,9.948" transform="translate(-1165.306 -557.632)" fill="#ff9082"/>
              <path id="Path_209532" data-name="Path 209532" d="M1620.521,835.216a15.367,15.367,0,0,1-.046,2.768c3.7-.355,4.436-.635,4.436.233,0,.823-.906.517-1.879.7l-2.631.239c-.232,4.063-.222,2.967,3.821,2.967a.588.588,0,0,1,.12,1.167,15.037,15.037,0,0,1-2.318.108c-2.592,0-2.991-.343-2.75-4.533a.625.625,0,0,1,.045-.626,13.048,13.048,0,0,0,0-3.667c0-.768.677-.805.979-.512,2.779-.741,5.836-.228,4.875.917-.562.659-1.212-.711-4.652.239" transform="translate(-1311.419 -675.236)"/>
              <path id="Path_209533" data-name="Path 209533" d="M1675.126,855.9c-1.291-1.055-.992-3.306-.154-4.476,1.767-2.478,6.118-.271,3.718,1.469-.407.293-1.483.758-3.382,1.669a2.582,2.582,0,0,0,3.69.31c.565-.888,1.817.432-.091,1.284-.581.258-2.97.4-3.781-.256m.085-2.386a19.989,19.989,0,0,0,3.217-1.7c-.583-.543-2.6-1.215-3.217,1.7" transform="translate(-1355.996 -688.682)"/>
              <path id="Path_209534" data-name="Path 209534" d="M1883.167,579.918c2.217.846,2.944,3.416,3.622,5.459a85.447,85.447,0,0,1,4.227,22.525c.033.617,1,.621.964,0a87.733,87.733,0,0,0-2.629-17.239c-1.976-7.656-3.169-10.623-5.928-11.676-.58-.221-.832.711-.256.93" transform="translate(-1524.937 -468.903)" fill="#410c14"/>
              <path id="Path_209535" data-name="Path 209535" d="M1397.3,591.366c-2.217.846-2.945,3.416-3.623,5.459a85.465,85.465,0,0,0-4.226,22.525c-.033.618-1,.622-.965,0a87.728,87.728,0,0,1,2.629-17.239c1.976-7.656,3.169-10.623,5.928-11.676.58-.221.832.71.256.93" transform="translate(-1124.553 -478.175)" fill="#410c14"/>
            </g>
          </g>
        </g>
      </g>
    </g>
  </g>
</svg>
