<svg xmlns="http://www.w3.org/2000/svg" xmlns:xlink="http://www.w3.org/1999/xlink" width="103" height="103" viewBox="0 0 103 103">
  <defs>
    <clipPath id="clip-path">
      <rect id="Rectangle_338658" data-name="Rectangle 338658" width="80.89" height="80.896" fill="none"/>
    </clipPath>
  </defs>
  <g id="_10" data-name="10" transform="translate(-407 -2725)">
    <rect id="Rectangle_338510" data-name="Rectangle 338510" width="103" height="103" rx="11" transform="translate(407 2725)" fill="#3c3fa7"/>
    <g id="Group_983368" data-name="Group 983368" transform="translate(418 2736)">
      <g id="Group_983367" data-name="Group 983367" clip-path="url(#clip-path)">
        <path id="Path_208623" data-name="Path 208623" d="M78.823,45.882a8.884,8.884,0,0,1,2.063,6.333c-.06,2.749-.011,5.5-.015,8.252a6.619,6.619,0,0,1-3.414,6.058c-.407.241-.423.446-.339.858.783,3.842,1.534,7.691,2.3,11.536.264,1.323-.253,1.975-1.611,1.975q-34.65,0-69.3,0c-1.3,0-1.74-.452-1.741-1.789,0-3.649-.013-7.3.012-10.946,0-.548-.094-.722-.7-.788a6.7,6.7,0,0,1-6.049-6.8c-.014-4.014-.083-8.03.033-12.04.05-1.731-.1-3.449-.05-5.176a4.079,4.079,0,0,1,4.249-4.226c1.47-.009,1.372,0,1.256-1.492a46.142,46.142,0,0,1,.021-8.656,8.732,8.732,0,0,0-.049-3.995,5.7,5.7,0,0,1-.052-2.174,1.16,1.16,0,0,1,1.131-1.166c4.038,0,8.079-.18,12.114.095a8.987,8.987,0,0,1,1.475.352c.17-.216.073-.473.073-.705q.01-6.905.006-13.81A7.133,7.133,0,0,1,27.723.058a35.015,35.015,0,0,1,5.213.083A7.067,7.067,0,0,1,39.1,7.3a1.3,1.3,0,0,0,.1.58c.129-.444.247-.891.39-1.331A9.336,9.336,0,0,1,48.4.068,46.256,46.256,0,0,1,55.459.2a9.351,9.351,0,0,1,7.886,9.044c.039,2.133.014,4.266.009,6.4a2.989,2.989,0,0,0,.808,2.147,6.225,6.225,0,0,1,1.556,6.486A8.723,8.723,0,0,1,71.044,25.8a6.31,6.31,0,0,0,3.731,1.273,6.562,6.562,0,0,1,6.082,6.484c.047,3.592.02,7.185.01,10.778,0,1.111-.511,1.5-2.044,1.549" transform="translate(0 0)"/>
        <path id="Path_208624" data-name="Path 208624" d="M45.245,137.206c.264,1.677.591,1.954,2.071,1.954,1.515,0,3.03.009,4.545,0a1.387,1.387,0,0,0,1.556-1.7q-.646-6.57-1.329-13.136A1.337,1.337,0,0,0,50.642,123c-1.122-.02-2.245-.027-3.366,0-.493.014-.627-.128-.55-.618a4.066,4.066,0,0,1,3.817-3.427c2.833-.043,5.667-.015,8.5,0a3.311,3.311,0,0,1,.825.141c1.429.38,1.662.683,1.657,2.12-.006,1.771-.006,1.771-1.777,1.777-.281,0-.562-.009-.842,0a1.351,1.351,0,0,0-1.423,1.348q-.67,6.525-1.324,13.052c-.119,1.193.426,1.757,1.661,1.761,2.076.005,4.152.02,6.228-.012.515-.008.763.134.83.651.085.664.521,1.544.245,1.922-.308.423-1.255.127-1.922.128q-8.921.015-17.842.006c-1.037,0-1.044,0-.853-.986.224-1.149.462-2.295.74-3.663" transform="translate(-23.767 -63.654)" fill="#ec9090"/>
        <path id="Path_208625" data-name="Path 208625" d="M136.091,155.812c-2.58,0-5.159-.014-7.739.011-.547.006-.782-.082-.779-.714.013-1.992-.017-1.992,2.012-1.992.617,0,1.234.009,1.85,0a1.374,1.374,0,0,0,1.541-1.564c.011-1.907.025-3.814-.01-5.719-.011-.591.091-.826.763-.816,2.747.043,5.5.028,8.243.009.5,0,.716.1.82.654.572,3.052,1.208,6.092,1.813,9.138.2.994.186,1-.862,1h-7.654" transform="translate(-68.277 -77.611)" fill="#79ac54"/>
        <path id="Path_208626" data-name="Path 208626" d="M111.741,110.663a3.939,3.939,0,0,1,3.03,3.665,9.36,9.36,0,0,1,0,1.009c-.039.606.275,1.538-.133,1.743a5.694,5.694,0,0,1-2.216.135c-.326.01-.343-.2-.342-.442,0-.588-.015-1.177.005-1.765.013-.354-.1-.534-.473-.486a1.071,1.071,0,0,1-.168,0c-2.059-.052-2.059-.052-2.059,2.006,0,2.691-.013,5.382.011,8.071,0,.527-.109.72-.683.715q-4.709-.043-9.417,0c-.545,0-.72-.14-.7-.7.047-1.4.031-2.8.041-4.2a24.826,24.826,0,0,1,3.024-1.77,42.312,42.312,0,0,0,8.8-6.914,4.036,4.036,0,0,1,1.277-1.067" transform="translate(-52.767 -59.226)" fill="#3086cc"/>
        <path id="Path_208627" data-name="Path 208627" d="M148.619,99.179a5.2,5.2,0,0,1,4.027,4.927c.046,3.251.039,6.5.005,9.756a3.975,3.975,0,0,1-3.915,3.935c-3,.037-6,0-9,.02-.446,0-.572-.132-.558-.567.029-.952.044-1.908,0-2.859-.028-.543.163-.643.662-.638,2.354.026,4.709.014,7.065.01,1.256,0,1.717-.464,1.717-1.727q0-5.972,0-11.943v-.914" transform="translate(-74.484 -53.08)" fill="#fdb683"/>
        <path id="Path_208628" data-name="Path 208628" d="M23.358,122.029c0,1.477-.014,2.932.007,4.387.009.605-.415.407-.7.407-3.424.011-6.848.007-10.272.007-.842,0-1.684.013-2.526,0a4.027,4.027,0,0,1-4.022-4.015c-.024-2.049.018-4.1-.02-6.147-.01-.56.193-.635.674-.624,1.347.029,2.695.034,4.041,0,.532-.014.721.108.7.68-.043,1.486-.021,2.975-.012,4.462.006,1.1.5,1.6,1.587,1.6,2.526.009,5.052,0,7.578.005,1.034,0,1.906-.617,2.958-.761" transform="translate(-3.119 -62.103)" fill="#fdc8a2"/>
        <path id="Path_208629" data-name="Path 208629" d="M101.362,32.209a6.584,6.584,0,0,1-5.628-6.17c-.071-1.79-.007-3.586-.032-5.378-.006-.429.143-.543.557-.624a9.711,9.711,0,0,0,6.638-4.571c.3-.478.53-.525.991-.287a3.26,3.26,0,0,1,1.738,3.354,20.064,20.064,0,0,0-.346,2.66c.007.6-.472.391-.73.363-.646-.071-.836.168-.767.788a7.929,7.929,0,0,1,0,1.511c-.036.436.235.423.514.444a1.715,1.715,0,0,1,.218,1.363,12.732,12.732,0,0,1-2.072,6.017c-.256.392-.538.732-1.084.531" transform="translate(-51.217 -8.049)" fill="#fdc8a2"/>
        <path id="Path_208630" data-name="Path 208630" d="M105.55,110.45a40.636,40.636,0,0,1-9.42,7.8,19.973,19.973,0,0,1-3.685,1.948c-.01-1.738-.032-3.477-.02-5.216,0-.465-.051-.687-.62-.693-2.058-.02-2.085-.046-2.068,2,.005.612-.19.733-.759.727-1.953-.017-1.953.006-1.953-1.958,0-2.655,1.087-4.235,3.26-4.708a4.747,4.747,0,0,1,1-.08q6.4-.008,12.792,0a12.353,12.353,0,0,1,1.469.176" transform="translate(-46.576 -59.013)" fill="#348ed8"/>
        <path id="Path_208631" data-name="Path 208631" d="M24.439,77.305a6.7,6.7,0,0,1-7.075-6.522,8.537,8.537,0,0,0-.011-1.091,7.005,7.005,0,0,1,1.559-5.377.924.924,0,0,1,.867-.47c1.989.033,3.978.025,5.967.014a1.125,1.125,0,0,1,1.044.386,6.85,6.85,0,0,1,.131,3.566.585.585,0,0,1-.313.251c-.29.123-.735-.012-.852.387a3.033,3.033,0,0,0-.014,1.557c.127.53.733.263,1.042.523a1.651,1.651,0,0,1,.193,1.367,12.7,12.7,0,0,1-1.452,4.619,1.28,1.28,0,0,1-1.086.79" transform="translate(-9.247 -34.169)" fill="#fdc8a2"/>
        <path id="Path_208632" data-name="Path 208632" d="M89.97,13.359c-.149-4.515,2.73-7.525,7.145-7.495a36.221,36.221,0,0,1,6.3.155,6.634,6.634,0,0,1,5.388,6.339c.044,2.131-.006,4.264.025,6.395.007.508-.175.582-.624.585a3.115,3.115,0,0,1-3.206-3.979,8.552,8.552,0,0,0,.122-3.662,5.994,5.994,0,0,0-5.279-4.489A1.659,1.659,0,0,0,98.02,8.235a7.282,7.282,0,0,1-6.656,4.357c-.6.026-.75.119-1.394.767" transform="translate(-48.148 -3.106)" fill="#bebebc"/>
        <path id="Path_208633" data-name="Path 208633" d="M104,147.939c1.543,0,3.087.022,4.629-.012.566-.013.782.124.774.738-.032,2.665-.027,5.331,0,8,0,.541-.141.746-.7.72-.9-.042-1.8-.038-2.693,0-.522.021-.674-.163-.666-.673.026-1.739-.012-3.48.022-5.218.012-.616-.1-.889-.812-.875-1.894.037-1.895,0-1.9,1.883,0,1.4-.019,2.806.01,4.208.01.509-.14.7-.664.674-.924-.037-1.852-.032-2.777,0-.485.016-.622-.165-.619-.632.017-2.722.021-5.444,0-8.165-.005-.537.193-.66.686-.652,1.571.025,3.142.009,4.714.009" transform="translate(-52.77 -79.17)" fill="#7a432a"/>
        <path id="Path_208634" data-name="Path 208634" d="M62.8,39.168c0,1.321.03,2.469-.007,3.616a4.049,4.049,0,0,1-3.865,3.822q-2.856.055-5.715,0A4.051,4.051,0,0,1,49.34,42.8c-.038-1.147-.007-2.3-.007-3.562.4.259.727.489,1.072.689a4.206,4.206,0,0,0,3.868.3,4.569,4.569,0,0,1,3.58,0c1.8.726,3.387.234,4.949-1.048" transform="translate(-26.397 -20.963)" fill="#91563a"/>
        <path id="Path_208635" data-name="Path 208635" d="M103.962,90.078a6.7,6.7,0,0,1-8.249-6.333c-.02-.756.028-1.515-.018-2.269-.033-.528.128-.729.672-.778A18.8,18.8,0,0,0,104.83,78c.517-.159.47.288.493.528a12.307,12.307,0,0,1-.049,3.566.581.581,0,0,1-.31.26c-.291.129-.742-.009-.86.392a2.945,2.945,0,0,0-.01,1.57c.136.521.752.245,1.057.525a.911.911,0,0,1,.207.7,12.627,12.627,0,0,1-1.043,4.2.6.6,0,0,1-.352.339" transform="translate(-51.214 -41.727)" fill="#fdc8a2"/>
        <path id="Path_208636" data-name="Path 208636" d="M62.494,98.927a6.329,6.329,0,0,1-6.631.271,6.464,6.464,0,0,1-3.626-5.67c-.1-1.533-.059-1.519,1.45-1.806a8.124,8.124,0,0,0,4.881-2.9c.324-.393.478-.39.783.007a9.219,9.219,0,0,0,3.483,2.562.427.427,0,0,1,.016.549,2.371,2.371,0,0,1-1.459.2c-.6-.01-.889.214-.839.832a5.912,5.912,0,0,1,0,.667c-.015.494.228.688.707.71.545.025,1.12-.125,1.623.223a6.225,6.225,0,0,1-.393,4.361" transform="translate(-27.94 -47.379)" fill="#fdc8a2"/>
        <path id="Path_208637" data-name="Path 208637" d="M52.239,67.715c0-2.166.006-4.255-.006-6.346,0-.37.194-.4.477-.4,3.535.006,7.07-.038,10.6.027a3.888,3.888,0,0,1,3.692,3.531c.124,1.577.025,3.17.025,4.827a9.712,9.712,0,0,0-14.793-1.644" transform="translate(-27.955 -32.628)" fill="#f25244"/>
        <path id="Path_208638" data-name="Path 208638" d="M137.759,84.164a6.641,6.641,0,0,1-7.206-2.077,1.4,1.4,0,0,1-.266-.936c0-1.346.043-2.7-.064-4.035-.061-.766.094-1.158.891-1.191a2.61,2.61,0,0,0,.483-.112c.034.056.076.1.083.141.092.6-.265,1.524.168,1.732a5.852,5.852,0,0,0,2.231.1c.277.006.316-.148.313-.373-.007-.645-.04-1.293.012-1.934.035-.436-.283-.361-.587-.473a14.972,14.972,0,0,0,3.956-2.6c.288-.268.447-.235.634.084.169.288.371.556.559.832a2.143,2.143,0,0,1,.089,1.69c-.255.342-.639.31-.994.311-.539,0-.76.255-.732.776a4.328,4.328,0,0,1,0,.586c-.05.6.2.891.817.857a1.238,1.238,0,0,1,.805.18,1.509,1.509,0,0,1,.225,1.117,9.863,9.863,0,0,1-1.417,5.319" transform="translate(-69.688 -38.658)" fill="#fdc8a2"/>
        <path id="Path_208639" data-name="Path 208639" d="M13.956,104.344c-.01-.2-.023-.391-.028-.587-.031-1.105-.5-1.588-1.6-1.593-1.933-.01-3.866-.022-5.8.009-.541.009-.736-.131-.7-.693.055-.893.021-1.792.051-2.688.016-.481.229-.71.787-.69,1.4.048,2.8.02,4.2.015,1.248,0,1.7-.469,1.709-1.735,0-.385,0-.769,0-1.264A10.736,10.736,0,0,0,16.7,96.681a8.925,8.925,0,0,0,2.093.052c.408-.042.551.035.533.465-.036.867-.026,1.736-.036,2.6a39.766,39.766,0,0,1-4.649,4.337.654.654,0,0,1-.683.206" transform="translate(-3.119 -50.907)" fill="#348ed8"/>
        <path id="Path_208640" data-name="Path 208640" d="M23.268,109.735a33.171,33.171,0,0,0,4.479-3.9c.249-.251.44-.6.853-.639.01,1.147.016,2.295.03,3.442.013,1.129.541,1.649,1.661,1.6a7.181,7.181,0,0,0,3.686-1.285c.085,1.445.228,2.791-.728,3.949-.087.106-.162.27-.272.3-1.287.348-2.472,1.072-3.848,1.083-1.736.014-3.473-.019-5.208.017-.56.012-.712-.163-.693-.705.045-1.287.03-2.575.04-3.862" transform="translate(-12.431 -56.298)" fill="#3085cc"/>
        <path id="Path_208641" data-name="Path 208641" d="M124.615,101.666a14.2,14.2,0,0,0,1.546-2.094c.289-.512.509-.059.708.1a9.361,9.361,0,0,0,6.342,2.042,9.631,9.631,0,0,0,4.916-1.67c0,2.332,0,4.532,0,6.731,0,.33-.214.337-.451.337-1.992,0-3.984-.008-5.976.012-.362,0-.462-.158-.558-.458-.993-3.109-3.19-4.683-6.529-5" transform="translate(-66.693 -53.164)" fill="#7db357"/>
        <path id="Path_208642" data-name="Path 208642" d="M141,65.25a8.045,8.045,0,0,1-2.574-3.259c-.679-1.483-1.679-1.618-2.716-.349a12.38,12.38,0,0,1-6.991,4.2c-.879.209-1.09.03-1.115-.875a6.742,6.742,0,0,1,4.869-6.595c4.448-1.293,9.054,2.381,8.527,6.881" transform="translate(-68.294 -31.098)" fill="#feb431"/>
        <path id="Path_208643" data-name="Path 208643" d="M57.983,25.715a8.074,8.074,0,0,0-4.859.373,1.56,1.56,0,0,1-1.591-.219c-.161-.108-.286-.269-.444-.383A4.166,4.166,0,0,1,49.223,21.1a11.165,11.165,0,0,0,.015-1.764,1.748,1.748,0,0,1,2.472-1.8,1.925,1.925,0,0,1,.459.2,7.893,7.893,0,0,0,5.99.876,4.305,4.305,0,0,1,.144,2.767,1.58,1.58,0,0,0-.775,1.427,1.517,1.517,0,0,0,.746,1.439c.11.53.392,1.095-.291,1.466" transform="translate(-26.303 -9.317)" fill="#fdc8a2"/>
        <path id="Path_208644" data-name="Path 208644" d="M25.112,156.634c1.259,0,2.52.025,3.778-.011.615-.018.913.049.727.8-.336,1.351-.592,2.724-.838,4.1-.07.391-.222.511-.6.509q-3.653-.015-7.306,0c-.394,0-.544-.133-.539-.534.015-1.427.026-2.856,0-4.283-.011-.523.234-.589.663-.584,1.372.017,2.743.007,4.115.007" transform="translate(-10.882 -83.823)" fill="#7a432a"/>
        <path id="Path_208645" data-name="Path 208645" d="M59.045,75.484A6.8,6.8,0,0,1,65.7,81.54c.056.574-.1.743-.68.627a5.716,5.716,0,0,1-4.614-3.946c-.256-.751-.553-1.387-1.444-1.378-.842.009-1.146.6-1.392,1.333A5.735,5.735,0,0,1,52.99,82.16c-.636.132-.791-.049-.722-.658a6.8,6.8,0,0,1,6.777-6.018" transform="translate(-27.966 -40.399)" fill="#f88400"/>
        <path id="Path_208646" data-name="Path 208646" d="M106.385,60.984a11.04,11.04,0,0,0-1.391,3.181,9.379,9.379,0,0,0-9.268-1.1,9.571,9.571,0,0,0-5.819,7.26c0-.969-.005-1.937,0-2.906a23.308,23.308,0,0,1,.062-3.024A3.9,3.9,0,0,1,93.7,61c4.177-.047,8.355-.015,12.683-.015" transform="translate(-48.109 -32.633)" fill="#d26699"/>
        <path id="Path_208647" data-name="Path 208647" d="M30.949,57.651c-1.05-.78-2-1.456-2.914-2.179a2.31,2.31,0,0,0-1.549-.508c-2.074.021-4.149.016-6.223.005a2.745,2.745,0,0,1-2.719-2.077c-.1-.415-.053-.623.448-.621,3.084.015,6.168-.039,9.251.03a4.024,4.024,0,0,1,3.7,3.72c.029.493,0,.989,0,1.629" transform="translate(-9.366 -27.973)" fill="#91563a"/>
        <path id="Path_208648" data-name="Path 208648" d="M62.975,8.746a4.945,4.945,0,0,0-3.568.427,6.217,6.217,0,0,1-3.137.764,3.424,3.424,0,0,1-1.52-.388,5.89,5.89,0,0,0-4.592-.832,4.227,4.227,0,0,1,3.937-2.832c1.652-.032,3.308-.075,4.955.011a4.419,4.419,0,0,1,3.925,2.849" transform="translate(-26.844 -3.129)" fill="#91563a"/>
        <path id="Path_208649" data-name="Path 208649" d="M130.291,136.6c0,1.822-.015,3.645.01,5.467.007.465-.112.607-.6.614-2.109.031-2.109.048-2.109-2.036,0-3.14.013-6.28-.012-9.419,0-.536.121-.7.683-.7,2.024.01,2.024-.013,2.024,2.038V136.6" transform="translate(-68.282 -69.857)" fill="#fdc8a2"/>
        <path id="Path_208650" data-name="Path 208650" d="M87.01,136.555c0-1.794.023-3.589-.014-5.382-.011-.535.152-.641.657-.642,2.052,0,2.052-.023,2.052,2.008,0,3.14-.018,6.28.015,9.419.006.6-.164.734-.743.727-1.967-.025-1.968,0-1.968-1.926v-4.205" transform="translate(-46.56 -69.86)" fill="#fdc8a2"/>
        <path id="Path_208651" data-name="Path 208651" d="M107.882,42.8c.44.047.644-.263.841-.569a12.317,12.317,0,0,0,2.1-7.342,6.854,6.854,0,0,0,.752-.032,1.562,1.562,0,0,1,1.678.756,4.292,4.292,0,0,0,1.929,1.43.505.505,0,0,1,.363.629c-.395,3.218-4.461,5.949-7.66,5.128" transform="translate(-57.738 -18.643)" fill="#fdbf92"/>
        <path id="Path_208652" data-name="Path 208652" d="M160.455,63.958a4.067,4.067,0,0,1,3.6,4.179q.01,4.124,0,8.248c0,.214.112.5-.081.628-.246.157-.466-.1-.67-.225a3.92,3.92,0,0,1-1.93-3.346c-.039-1.121-.021-2.245-.008-3.367a12.926,12.926,0,0,0-.9-6.117" transform="translate(-85.875 -34.23)" fill="#f6a016"/>
        <path id="Path_208653" data-name="Path 208653" d="M114.661,81.9c0-1.169.006-2.339,0-3.508,0-.256.111-.588-.3-.666.188-.167.367-.525.554.012a6.063,6.063,0,0,0,3.448,3.682c.19.083.328.166.351.408.408,4.187-1.838,7.213-5.221,7.977a13.333,13.333,0,0,0,1.175-5.154c.047-.069.1-.153.182-.157.853-.05.879-.6.961-1.3.115-.979-.634-.985-1.143-1.3" transform="translate(-60.737 -41.452)" fill="#fdbf92"/>
        <path id="Path_208654" data-name="Path 208654" d="M68.157,25.79c.357-.463.107-1,.181-1.5a.915.915,0,0,1,.84-.264c.579.011.809-.261.77-.819a5.935,5.935,0,0,1,0-.668c.02-.482-.185-.721-.684-.73-.324-.007-.68.039-.924-.269q0-1.426,0-2.853c.819-.347,1.624-.727,2.458-1.031a1.482,1.482,0,0,1,2.077,1.363c.051,1.453.015,2.91.017,4.365,0,.056.021.128-.006.166a9.93,9.93,0,0,1-2.523,2.516c-.741.5-1.5.117-2.2-.279" transform="translate(-36.477 -9.393)" fill="#fdbf92"/>
        <path id="Path_208655" data-name="Path 208655" d="M51.1,133.458c1.235,0,1.262,0,1.4,1.232.32,2.981.6,5.966.922,8.947.052.486-.081.606-.565.613-2.139.032-2.107.046-2.3-2.121-.22-2.54-.493-5.076-.763-7.611-.113-1.062-.137-1.059.886-1.059H51.1" transform="translate(-26.621 -71.426)" fill="#fcc8a2"/>
        <path id="Path_208656" data-name="Path 208656" d="M35.037,68.34q0-1.817,0-3.634c1.234.911,2.465,1.825,3.7,2.73a.688.688,0,0,1,.347.614c-.021,1.2-.013,2.4-.031,3.605a1.1,1.1,0,0,1-.891,1.179,6.146,6.146,0,0,0-4.018,3.977,1.2,1.2,0,0,1-1.461.955,1.63,1.63,0,0,0,.862-.83,12.052,12.052,0,0,0,1.491-5.846c.047-.069.1-.153.182-.157.853-.05.879-.6.961-1.3.114-.979-.634-.985-1.143-1.3" transform="translate(-17.493 -34.63)" fill="#fdbf92"/>
        <path id="Path_208657" data-name="Path 208657" d="M25.557,145.044c1.515,0,3.031.015,4.545-.008.528-.008.736.053.6.687-.445,2.01-.415,2.017-2.48,2.017-2.413,0-4.826-.016-7.239.012-.524.006-.653-.147-.657-.66-.016-2.047-.035-2.047,2.036-2.047h3.2" transform="translate(-10.875 -77.622)" fill="#3085cc"/>
        <path id="Path_208658" data-name="Path 208658" d="M86.748,36.416a9.982,9.982,0,0,0,4.576,8.738,27.433,27.433,0,0,1-4.479-.115,3.357,3.357,0,0,1-1.824-5.585,7.441,7.441,0,0,0,1.728-3.038" transform="translate(-45.025 -19.49)" fill="#bebebc"/>
        <path id="Path_208659" data-name="Path 208659" d="M146.45,85.427a11.076,11.076,0,0,1,.677-1.967,13.577,13.577,0,0,0,.5-4.384,1.751,1.751,0,0,0,0-2.751q.015-.867.029-1.734a11.661,11.661,0,0,0,3.216,2.532c.152.074.276.147.294.357.28,3.252-.819,6.707-4.718,7.948" transform="translate(-78.379 -39.921)" fill="#fdbf92"/>
        <path id="Path_208660" data-name="Path 208660" d="M120.781,47.355a9.708,9.708,0,0,0,4.357-6.306.751.751,0,0,1,1.179-.289,5.364,5.364,0,0,1,1.648,2.671,3.415,3.415,0,0,1-3.046,3.906c-1.3.095-2.608.018-4.138.018" transform="translate(-64.641 -21.718)" fill="#bebebc"/>
        <path id="Path_208661" data-name="Path 208661" d="M43.319,91.363c0,.982.033,1.966-.008,2.946a3.984,3.984,0,0,1-2.088,3.43c-.338.2-.607.332-.6-.284.02-2.076-.052-4.155.033-6.229a3.851,3.851,0,0,1,2.155-3.3c.38-.212.543-.172.53.319-.026,1.037-.008,2.076-.008,3.115h-.013" transform="translate(-21.735 -46.994)" fill="#f47607"/>
        <path id="Path_208662" data-name="Path 208662" d="M78.258,138.867c0,1.572-.025,3.144.014,4.715.013.536-.152.694-.66.636-.607-.069-1.4.252-1.781-.133-.359-.359.015-1.113.069-1.69.265-2.821.578-5.637.824-8.459.071-.812.62-.419.98-.5.432-.1.573.1.565.544-.026,1.627-.01,3.255-.01,4.884" transform="translate(-40.502 -71.401)" fill="#fdb683"/>
        <path id="Path_208663" data-name="Path 208663" d="M97.217,73.578c1.345-3.128,5.446-4.825,8.18-3.455-2.225,2.32-5.108,2.958-8.18,3.455" transform="translate(-52.03 -37.273)" fill="#91563a"/>
        <path id="Path_208664" data-name="Path 208664" d="M74.678,95.162c0-.16,0-.32,0-.48a13.121,13.121,0,0,0,2.529.492c.256.007.321.113.337.35a6.9,6.9,0,0,1-3.206,6.7,19.256,19.256,0,0,0,.338-4.31,10.6,10.6,0,0,1,0-2.751" transform="translate(-39.786 -50.673)" fill="#fdbf92"/>
        <path id="Path_208665" data-name="Path 208665" d="M7.861,92.664a2.049,2.049,0,0,1-.751-.016c-.416-.179-1.212.555-1.258-.509-.063-1.468.327-2.1,1.361-2.166.279-.019.561,0,.842,0A1.768,1.768,0,0,1,9.9,92.421c-.083.289-.26.239-.441.241-.533.007-1.066,0-1.6,0" transform="translate(-3.129 -48.148)" fill="#fdc8a2"/>
        <path id="Path_208666" data-name="Path 208666" d="M142.561,121.849c.952,0,1.905.025,2.856-.01.508-.019.546.25.511.623-.03.326.157.749-.476.741q-2.9-.036-5.8,0c-.637.007-.43-.429-.465-.749-.041-.379.013-.637.515-.619.951.034,1.9.01,2.856.01Z" transform="translate(-74.488 -65.206)" fill="#79ad54"/>
        <path id="Path_208667" data-name="Path 208667" d="M89.974,98.859v-5.92a10.341,10.341,0,0,0,2.728,5.27,11.683,11.683,0,0,0-2.728.65" transform="translate(-48.154 -49.741)" fill="#ca6294"/>
        <path id="Path_208668" data-name="Path 208668" d="M82.191,109.713c-.337.684-.671,1.369-1.015,2.049-.176.348-.388.05-.552-.011-.3-.113-.139-.286-.005-.44q.733-.841,1.463-1.685l.11.087" transform="translate(-43.057 -58.671)" fill="#d6483c"/>
        <path id="Path_208669" data-name="Path 208669" d="M122.1,76.127a2.026,2.026,0,0,1,.639,1.072,1.472,1.472,0,0,1-.639-1.072" transform="translate(-65.348 -40.743)" fill="#5a3524"/>
        <path id="Path_208670" data-name="Path 208670" d="M102.909,29.1c1.307,0,1.307,0,1.307,1.3,0,1.391,0,1.391-1.388,1.391-1.307,0-1.307,0-1.307-1.3,0-1.391,0-1.391,1.388-1.391" transform="translate(-54.334 -15.575)"/>
        <path id="Path_208671" data-name="Path 208671" d="M24.524,75.278c-1.27,0-1.27,0-1.27-1.256,0-1.439,0-1.439,1.424-1.439,1.271,0,1.271,0,1.271,1.257,0,1.438,0,1.438-1.425,1.438" transform="translate(-12.445 -38.846)"/>
        <path id="Path_208672" data-name="Path 208672" d="M36.2,72.524c1.348.071,1.348.071,1.348,1.459,0,1.22,0,1.22-1.348,1.291-1.347-.071-1.347-.071-1.347-1.459,0-1.221,0-1.221,1.347-1.291" transform="translate(-18.651 -38.815)"/>
        <path id="Path_208673" data-name="Path 208673" d="M114.463,87.018c1.348.071,1.348.071,1.348,1.459,0,1.22,0,1.22-1.348,1.291-1.347-.071-1.347-.071-1.347-1.459,0-1.221,0-1.221,1.347-1.291" transform="translate(-60.539 -46.572)"/>
        <path id="Path_208674" data-name="Path 208674" d="M102.808,89.772c-1.286,0-1.286,0-1.286-1.325,0-1.37,0-1.37,1.408-1.37,1.286,0,1.286,0,1.286,1.325,0,1.37,0,1.37-1.408,1.37" transform="translate(-54.334 -46.603)"/>
        <path id="Path_208675" data-name="Path 208675" d="M72.1,95.714a4.6,4.6,0,0,1,0,2.751c-.2-.009-.391-.013-.586-.029-.632-.05-1.589.286-1.821-.14-.319-.586-.1-1.463-.121-2.215-.013-.415.275-.334.513-.338.671-.013,1.343-.02,2.014-.029" transform="translate(-37.205 -51.226)"/>
        <path id="Path_208676" data-name="Path 208676" d="M60.734,97.2c0,1.27,0,1.27-1.256,1.27-1.439,0-1.439,0-1.439-1.424,0-1.271,0-1.271,1.257-1.271,1.438,0,1.438,0,1.438,1.425" transform="translate(-31.062 -51.258)"/>
        <path id="Path_208677" data-name="Path 208677" d="M146.8,78.294c.749-.122.95.242.851.922a3.156,3.156,0,0,0,0,.907c.1.68-.1,1.043-.851.922-.6-.121-1.4.259-1.752-.173-.291-.361-.04-1.128-.112-1.7-.087-.706.158-.958.859-.855a5.91,5.91,0,0,0,1-.018" transform="translate(-77.553 -41.89)"/>
        <path id="Path_208678" data-name="Path 208678" d="M67.542,26.1c.6.123,1.4-.26,1.753.173.291.361.041,1.128.112,1.7.088.708-.161.956-.86.855a5.917,5.917,0,0,0-1,.018c-.753.125-.946-.245-.848-.922a3.224,3.224,0,0,0,0-.907c-.1-.677.1-1.046.848-.922" transform="translate(-35.682 -13.946)"/>
        <path id="Path_208679" data-name="Path 208679" d="M57.835,27.557c0,1.34,0,1.34-1.354,1.34s-1.34,0-1.34-1.354,0-1.34,1.354-1.34,1.34,0,1.34,1.354" transform="translate(-29.511 -14.024)"/>
      </g>
    </g>
  </g>
</svg>
