<svg xmlns="http://www.w3.org/2000/svg" xmlns:xlink="http://www.w3.org/1999/xlink" width="184.438" height="174.497" viewBox="0 0 184.438 174.497">
  <defs>
    <clipPath id="clip-path">
      <path id="Path_210537" data-name="Path 210537" d="M413.762,192.929V55.473c0-8.45-.59-17.463-18.3-17.463S267.445,36.1,250.744,37.8c-13.876,1.409-20.619,6.41-21.21,27.254s.416,114.928,0,125.625c-.261,6.76-.261,19.435,20.667,20.28,21.312.86,123.113.63,142.3.54,22.733.09,21.257-18.566,21.257-18.566" transform="translate(1008.24 6236.905)" fill="#3c3fa7"/>
    </clipPath>
  </defs>
  <g id="Mask_Group_458" data-name="Mask Group 458" transform="translate(-1237.583 -6274)" clip-path="url(#clip-path)">
    <g id="Group_983613" data-name="Group 983613" transform="translate(1245.388 6274)">
      <path id="Path_188886" data-name="Path 188886" d="M402.9,181.2V54.091c0-7.814-.556-16.149-17.227-16.149s-120.473-1.764-136.19-.2c-13.059,1.3-19.4,5.928-19.961,25.2s.391,106.281,0,116.173c-.246,6.251-.246,17.972,19.45,18.754,20.056.8,115.863.582,133.923.5,21.394.083,20.005-17.17,20.005-17.17" transform="translate(-226.285 -23.966)" fill="#3c3fa7"/>
      <g id="Group_983612" data-name="Group 983612" transform="translate(11.401 0)">
        <path id="Path_188887" data-name="Path 188887" d="M392.709,196.3a134.868,134.868,0,0,0-6.183-15.99c-3.276-6.6-8.548-8.62-12.09-7.719a8.55,8.55,0,0,0-4.836,3.295l-7.9,10.987s2.187,2.935,7.045,16.219c8.969.825,16.893-2.027,23.961-6.791" transform="translate(-244.363 -37.152)" fill="#b16860"/>
        <path id="Path_188888" data-name="Path 188888" d="M377.185,228.785c7.808.545,15.647.709,23.492.7a223.762,223.762,0,0,0-7.254-30.762c-7.068,4.764-14.993,7.617-23.961,6.791.416,1.137.849,2.342,1.3,3.635,1.815,5.159,3.951,11.616,6.418,19.634" transform="translate(-245.077 -39.576)" fill="#b57567"/>
        <path id="Path_188889" data-name="Path 188889" d="M235.608,156.842a21.019,21.019,0,0,0-1.961-6.89c-.38-1.817-1.149-2.807-1.18-6.268a7.149,7.149,0,0,1,.836-4.112c4.357-6.021,11.218.51,11.218.51s-1.253-10.8.985-10.481,2.39,13.973,2.39,13.973a96.882,96.882,0,0,1-.027,10.194l.958,3.625" transform="translate(-232.466 -33.212)" fill="#b57567"/>
        <path id="Path_188890" data-name="Path 188890" d="M247.409,153.834a.194.194,0,0,1-.144-.064c-.311-.348-7.6-8.542-6.908-11.283a1.223,1.223,0,0,1,.838-.986c1.508-.414,4.3,2.336,4.416,2.453a.194.194,0,0,1-.273.276c-.761-.756-2.956-2.65-4.039-2.355a.86.86,0,0,0-.567.707c-.644,2.543,6.747,10.845,6.821,10.929a.193.193,0,0,1-.144.323" transform="translate(-233.188 -34.304)" fill="#503a33"/>
        <path id="Path_188891" data-name="Path 188891" d="M237.362,149.777a.2.2,0,0,1-.1-.03.2.2,0,0,1-.06-.269,8.869,8.869,0,0,1,4.1-3.295.194.194,0,0,1,.132.366,8.622,8.622,0,0,0-3.9,3.138.2.2,0,0,1-.164.09" transform="translate(-232.899 -34.738)" fill="#503a33"/>
        <path id="Path_188892" data-name="Path 188892" d="M236.841,146.276a2.152,2.152,0,0,1-1.746-1.435,6.508,6.508,0,0,1,.724-6.447.194.194,0,1,1,.3.243,6.105,6.105,0,0,0-.674,6.04c.423.912,1.045,1.267,1.5,1.2.37-.048.636-.366.725-.872a.189.189,0,0,1,.225-.156.193.193,0,0,1,.158.224,1.308,1.308,0,0,1-1.059,1.189,1.219,1.219,0,0,1-.153.009" transform="translate(-232.655 -34.016)" fill="#503a33"/>
        <path id="Path_188893" data-name="Path 188893" d="M238.6,145.167c-.559,0-1.2-.386-1.592-1.352a4.657,4.657,0,0,1,1.747-5.957.194.194,0,0,1,.264.073.2.2,0,0,1-.072.265,4.21,4.21,0,0,0-1.579,5.473c.4.988,1.076,1.236,1.525,1.053.557-.227.861-1.1.364-2.325-.784-1.93,1.168-3.852,1.252-3.933a.193.193,0,0,1,.273,0,.2.2,0,0,1,0,.274c-.018.018-1.848,1.821-1.162,3.508.622,1.532.136,2.541-.577,2.831a1.167,1.167,0,0,1-.44.085" transform="translate(-232.843 -33.971)" fill="#503a33"/>
        <path id="Path_188894" data-name="Path 188894" d="M234.569,147.513a1.4,1.4,0,0,1-1.025-.539,5.135,5.135,0,0,1-.93-3.926.186.186,0,0,1,.218-.166.2.2,0,0,1,.167.219,4.8,4.8,0,0,0,.834,3.615,1.156,1.156,0,0,0,.749.409c.787-.017.829-1,.83-1.037a.187.187,0,0,1,.2-.188.194.194,0,0,1,.188.2c-.015.48-.289,1.393-1.209,1.413Z" transform="translate(-232.474 -34.435)" fill="#503a33"/>
        <path id="Path_188895" data-name="Path 188895" d="M260.177,183.573c-1.191,1.909-1.889,3.105-1.889,3.105l-10.23-31.508.087-1.968a100.345,100.345,0,0,0-12.4,2.181c-.373,8.7-2.018,48.442,9.308,57.8,12.056,9.965,27.48-4.772,36.294-15.5a38.966,38.966,0,0,1-21.168-14.111" transform="translate(-232.74 -35.386)" fill="#b57567"/>
        <path id="Path_188896" data-name="Path 188896" d="M288.053,155.651c-8.84,2.829-20.8,20.822-25.368,28.147a38.966,38.966,0,0,0,21.168,14.111,109.14,109.14,0,0,0,7.026-9.511Z" transform="translate(-235.248 -35.611)" fill="#b16860"/>
        <path id="Path_188897" data-name="Path 188897" d="M283.893,187.492s-3.716,20.82-3.684,31.612h82.568c-.159-3.271-.5-6.3-.738-8.443a174.8,174.8,0,0,1-.664-17.67c11.919-3.348,18.792-13.87,18.792-13.87s-6.005-16.434-15.761-21.321-26.217-7.971-26.217-7.971c-20.7-3.291-34.367-.922-46.548.934-14.2,2.165-26.049,23.207-26.049,23.207,6.575,10.893,18.3,13.522,18.3,13.522" transform="translate(-235.515 -34.924)" fill="#e3aba3"/>
        <path id="Path_188898" data-name="Path 188898" d="M371.045,196.1c-.7.238-.3,3.821-.3,3.821s12.294,1.212,22.78-13.326c0,0,.462-3.822-4.358-4.607,0,0-7.537,10.528-18.126,14.112" transform="translate(-245.185 -38.036)" fill="#e28279"/>
        <path id="Path_188899" data-name="Path 188899" d="M283.914,188.888c.669.225-.706,3.824-.706,3.824s-11.6,1.436-21.772-12.908c0,0-.507-3.813,4.036-4.686,0,0,8.37,10.379,18.443,13.77" transform="translate(-235.131 -37.403)" fill="#e28279"/>
        <path id="Path_188900" data-name="Path 188900" d="M314.609,224.585h.623a69.96,69.96,0,0,1-14.562-16.766.2.2,0,0,0-.271-.064.2.2,0,0,0-.064.272,70.364,70.364,0,0,0,14.275,16.558" transform="translate(-238.711 -40.405)" fill="#d49a2c"/>
        <path id="Path_188901" data-name="Path 188901" d="M301.613,224.974a63.371,63.371,0,0,1-6.188-12.887.2.2,0,1,0-.373.128,63.83,63.83,0,0,0,6.1,12.759Z" transform="translate(-238.226 -40.794)" fill="#d49a2c"/>
        <path id="Path_188902" data-name="Path 188902" d="M348.363,154.8a2.821,2.821,0,0,0-1.73-4.666,154.475,154.475,0,0,0-15.455-1.474c-4.426-.116-9.67-.107-13.556-.074a3.925,3.925,0,0,0-3.355,5.93c2.25,3.712,6.623,7.9,14.971,8.373a23.221,23.221,0,0,0,19.125-8.09" transform="translate(-239.944 -34.959)" fill="#e28279"/>
        <path id="Path_188903" data-name="Path 188903" d="M364.047,219.147c-2.5-6.945-11.807-32.8-14.326-39.1,0,0,.364-22.707,2.188-28.178a35.806,35.806,0,0,0-8.32-1.721s-2.44,16.4-2.8,27.345c0,0-24.986-1.459-33.011-1.823,0,0,1.285-21.9,2.38-27a52.33,52.33,0,0,0-6.823.65,94.875,94.875,0,0,0-4.492,26.536s-14.591,33.558-17.509,36.476l-.7,6.822Z" transform="translate(-236.9 -34.968)" fill="#cc555f"/>
        <path id="Path_188904" data-name="Path 188904" d="M323.657,213.1c-16.966-1.368-16.889-20.272-16.886-20.463a.216.216,0,0,1,.066-.153.252.252,0,0,1,.154-.061c13.8.271,36.711,1.628,36.94,1.642a.217.217,0,0,1,.2.252c-.032.194-3.284,18.85-18.833,18.85q-.8,0-1.643-.067m-16.45-20.239c.044,2.1.9,18.55,16.486,19.808,15.562,1.252,19.522-15.948,19.967-18.186-2.5-.146-23.419-1.356-36.454-1.622" transform="translate(-239.306 -38.996)" fill="#e28279"/>
        <path id="Path_188905" data-name="Path 188905" d="M355.021,183.068l-9-1.227a2.376,2.376,0,0,1-2.033-2.675l.119-.873a2.379,2.379,0,0,1,2.676-2.032l9,1.227a2.376,2.376,0,0,1,2.033,2.674l-.119.872a2.376,2.376,0,0,1-2.348,2.056,2.47,2.47,0,0,1-.327-.022m-10.489-4.716-.118.873a1.94,1.94,0,0,0,1.662,2.185l9,1.227a1.938,1.938,0,0,0,2.186-1.662l.119-.872a1.941,1.941,0,0,0-1.662-2.186l-9-1.228a1.984,1.984,0,0,0-.263-.018,1.945,1.945,0,0,0-1.924,1.68" transform="translate(-242.73 -37.506)" fill="#e28279"/>
        <path id="Path_188906" data-name="Path 188906" d="M346.782,186.006a3.283,3.283,0,1,0,3.283-3.283,3.283,3.283,0,0,0-3.283,3.283" transform="translate(-242.99 -38.103)" fill="#e28279"/>
        <path id="Path_188907" data-name="Path 188907" d="M309.818,178.206l-9.088-.012a2.377,2.377,0,0,1-2.372-2.378v-.881a2.374,2.374,0,0,1,2.374-2.372h0l9.087.011a2.374,2.374,0,0,1,2.373,2.379v.88a2.376,2.376,0,0,1-2.374,2.372Zm-9.093-.227h0Zm-1.362-4.415a1.931,1.931,0,0,0-.571,1.373v.88a1.944,1.944,0,0,0,1.939,1.945l9.088.012h0a1.944,1.944,0,0,0,1.941-1.94v-.881a1.94,1.94,0,0,0-1.94-1.944l-9.087-.01h0a1.931,1.931,0,0,0-1.37.566" transform="translate(-238.532 -37.168)" fill="#e28279"/>
        <path id="Path_188908" data-name="Path 188908" d="M302.044,182.21a3.283,3.283,0,1,0,2.814-3.693,3.282,3.282,0,0,0-2.814,3.693" transform="translate(-238.868 -37.713)" fill="#e28279"/>
        <path id="Path_188909" data-name="Path 188909" d="M344.906,41.568c0,9.671,8.217,17.512,18.354,17.512s18.353-7.841,18.353-17.512S373.4,24.056,363.26,24.056,344.906,31.9,344.906,41.568" transform="translate(-242.817 -23.497)" fill="#503a33"/>
        <ellipse id="Ellipse_4872" data-name="Ellipse 4872" cx="18.676" cy="17.819" rx="18.676" ry="17.819" transform="translate(102.777 0)" fill="none" stroke="#503a33" stroke-linecap="round" stroke-linejoin="round" stroke-width="0.438"/>
        <path id="Path_188910" data-name="Path 188910" d="M357.339,47.615s23.911-.337,25.931,16.839-4.714,19.869-1.346,24.247,10.44,9.43,8.419,16.5-5.389,8.756-3.7,13.471,2.357,6.735,1.01,10.776c0,0-14.481,5.052-22.9,3.368l-1.01-9.766-2.694,9.429a67.71,67.71,0,0,1-35.361,1.011c-19.2-4.715-30.983-2.694-37.718-7.746l3.368-13.808-7.072,12.124s-2.441,1.684-13.892-3.031c0,0-4.041-6.82-2.021-14.4,2.527-9.476,6.062-7.662,7.072-15.408s.31-17.974,9.514-25.763c8.755-7.409,4.041-11.787,9.429-19.2s31.656-12.123,52.2-1.683" transform="translate(-235.717 -24.829)" fill="#503a33"/>
        <path id="Path_188911" data-name="Path 188911" d="M300.993,114.149l.375-14.768s-11.008-8.412-15.649,4.133,8.55,17.388,15.274,10.635" transform="translate(-237.279 -30.177)" fill="#b57567"/>
        <path id="Path_188912" data-name="Path 188912" d="M296.034,133.835c-.122,0-.243,0-.364-.007a8.9,8.9,0,0,1-3.206-17.044.463.463,0,1,1,.372.847,7.974,7.974,0,1,0,10.937,9.233.463.463,0,1,1,.9.222,8.927,8.927,0,0,1-8.637,6.749" transform="translate(-237.499 -32.029)" fill="#e19e2c"/>
        <path id="Path_188913" data-name="Path 188913" d="M366.571,119.3l4.326-14.125s13.107-4.487,13.531,8.882-13.621,13.779-17.857,5.242" transform="translate(-244.811 -30.897)" fill="#b57567"/>
        <path id="Path_188914" data-name="Path 188914" d="M368.591,137.169a8.895,8.895,0,0,1-8.7-10.72.463.463,0,0,1,.906.189,7.974,7.974,0,1,0,13.866-3.546.463.463,0,0,1,.7-.6,8.9,8.9,0,0,1-6.774,14.679" transform="translate(-244.179 -32.543)" fill="#e19e2c"/>
        <path id="Path_188915" data-name="Path 188915" d="M324.094,147.677a42.144,42.144,0,0,1-5.478-2.023l.177-9.389,23.914,1.847-.043,9.449a32.288,32.288,0,0,1-18.571.116" transform="translate(-240.397 -33.826)" fill="#b16860"/>
        <path id="Path_188916" data-name="Path 188916" d="M324.084,148.629a32.288,32.288,0,0,0,18.571-.116l-.027,5.855c-9.026,6.747-20.163,4.325-24.114-2.806l.093-4.956a42.145,42.145,0,0,0,5.478,2.023" transform="translate(-240.387 -34.778)" fill="#b57567"/>
        <path id="Path_188917" data-name="Path 188917" d="M298.315,67.43s-1.024,15.758-1.392,34.443c-.3,15.126,11.512,30.16,29.957,31.709,17.336,1.455,35.5-5.193,41.373-29.436s2.424-44.245-19.565-50.072-44.054-5.307-50.373,13.357" transform="translate(-238.399 -25.958)" fill="#b57567"/>
        <path id="Path_188918" data-name="Path 188918" d="M326.772,63.948c.1-.13.162-.2.162-.2s-.058.074-.162.2" transform="translate(-241.147 -27.15)" fill="#503a33"/>
        <path id="Path_188919" data-name="Path 188919" d="M360.579,96.777s3.023-3.324-3.153-7.67-8.391-3.456-9.445-1.362c-.961,1.91.416,4.828,3.923,7.177,4.21,2.82,7.033,3.769,8.675,1.855" transform="translate(-243.072 -29.2)" fill="#503a33"/>
        <path id="Path_188920" data-name="Path 188920" d="M304.582,93.124s-2.172-3.934,4.841-6.733,8.962-1.424,9.5.858c.494,2.081-1.521,4.6-5.477,6.076-4.748,1.77-7.712,2.04-8.869-.2" transform="translate(-239.075 -29.091)" fill="#503a33"/>
        <path id="Path_188921" data-name="Path 188921" d="M371.486,120.161a.267.267,0,0,0,.251-.374c-.028-.065-2.762-6.54,1.774-9.442a5.928,5.928,0,0,1,4.638-1.007,7.381,7.381,0,0,1,4.079,3.119.268.268,0,0,0,.461-.273,7.808,7.808,0,0,0-4.413-3.366,6.447,6.447,0,0,0-5.055,1.076c-4.921,3.148-2.007,10.036-1.977,10.105a.266.266,0,0,0,.241.162" transform="translate(-245.16 -31.286)" fill="#503a33"/>
        <path id="Path_188922" data-name="Path 188922" d="M378.182,115.491a.268.268,0,0,0,.169-.479c-.044-.034-4.473-3.4-7.868-.123a.268.268,0,1,0,.371.386c3.064-2.954,7.128.13,7.169.162a.266.266,0,0,0,.159.055" transform="translate(-245.164 -31.727)" fill="#503a33"/>
        <path id="Path_188923" data-name="Path 188923" d="M328.948,108.145a.268.268,0,0,0,.121-.509,7.224,7.224,0,0,1-3.057-2.976,4.56,4.56,0,0,1,.575-4.734,1.888,1.888,0,0,1,2.36-.1c.029.016.075.045.138.083,3.258,1.975,4.76,1.143,5.448.1,1.26-1.92.492-17.279.4-19.024a.274.274,0,0,0-.282-.253.269.269,0,0,0-.253.282c.248,4.693.672,17.2-.311,18.7-.812,1.235-2.4,1.148-4.723-.261-.071-.044-.125-.076-.16-.1a2.409,2.409,0,0,0-2.983.179,5.073,5.073,0,0,0-.693,5.351,7.635,7.635,0,0,0,3.311,3.231.26.26,0,0,0,.11.026" transform="translate(-240.991 -28.714)" fill="#503a33"/>
        <path id="Path_188924" data-name="Path 188924" d="M325.744,120.882a8.094,8.094,0,0,1-.631-2.52,40.781,40.781,0,0,1,12.6-1.961,11.22,11.22,0,0,1-.217,2.878,30.87,30.87,0,0,0-11.748,1.6" transform="translate(-240.995 -31.998)"/>
        <path id="Path_188925" data-name="Path 188925" d="M337.556,119.566c-.437,2.1-1.658,4.648-5.006,5.065-4.127.514-5.941-1.6-6.741-3.461a30.869,30.869,0,0,1,11.748-1.6" transform="translate(-241.059 -32.285)" fill="#7c3645"/>
        <path id="Path_188926" data-name="Path 188926" d="M296.756,113.925a.271.271,0,0,1-.1-.055.268.268,0,0,1-.021-.379c.047-.053,4.693-5.327,1.31-9.517a5.927,5.927,0,0,0-4.079-2.425,7.382,7.382,0,0,0-4.857,1.664.268.268,0,0,1-.351-.4,7.8,7.8,0,0,1,5.252-1.793,6.448,6.448,0,0,1,4.453,2.622c3.669,4.546-1.279,10.155-1.329,10.212a.267.267,0,0,1-.28.076" transform="translate(-237.63 -30.579)" fill="#503a33"/>
        <path id="Path_188927" data-name="Path 188927" d="M292.361,107.468a.268.268,0,0,1-.008-.508c.053-.018,5.319-1.8,7.5,2.378a.267.267,0,1,1-.474.248c-1.97-3.773-6.8-2.136-6.85-2.119a.269.269,0,0,1-.169,0" transform="translate(-237.962 -31.092)" fill="#503a33"/>
        <path id="Path_188928" data-name="Path 188928" d="M345.166,118.638c.456,2.553,4.7,3.93,9.482,3.076s8.287-3.615,7.831-6.169-4.7-3.93-9.483-3.076-8.286,3.615-7.83,6.169" transform="translate(-242.837 -31.612)" fill="#b16860"/>
        <path id="Path_188929" data-name="Path 188929" d="M319.364,117.555c-.665,2.507-5.008,3.53-9.7,2.285s-7.962-4.285-7.3-6.791,5.009-3.53,9.7-2.285,7.961,4.285,7.3,6.791" transform="translate(-238.893 -31.43)" fill="#b16860"/>
        <path id="Path_188930" data-name="Path 188930" d="M352.745,108.7s.261-5.389-4.04-6.189-5.817,4.354-5.817,4.354" transform="translate(-242.631 -30.712)" fill="none" stroke="#000" stroke-linecap="round" stroke-linejoin="round" stroke-width="0.636"/>
        <line id="Line_1467" data-name="Line 1467" y1="0.828" x2="2.894" transform="translate(110.098 76.478)" fill="none" stroke="#000" stroke-linecap="round" stroke-linejoin="round" stroke-width="0.636"/>
        <line id="Line_1468" data-name="Line 1468" y1="0.657" x2="1.955" transform="translate(110.219 75.305)" fill="none" stroke="#000" stroke-linecap="round" stroke-linejoin="round" stroke-width="0.752"/>
        <path id="Path_188931" data-name="Path 188931" d="M310.625,105.238s1.4-5.212,5.736-4.661,4.211,5.922,4.211,5.922" transform="translate(-239.661 -30.537)" fill="none" stroke="#000" stroke-linecap="round" stroke-linejoin="round" stroke-width="0.636"/>
        <line id="Line_1469" data-name="Line 1469" x1="2.503" y1="1.672" transform="translate(68.685 72.381)" fill="none" stroke="#000" stroke-linecap="round" stroke-linejoin="round" stroke-width="0.636"/>
        <line id="Line_1470" data-name="Line 1470" x1="1.661" y1="1.223" transform="translate(69.823 71.513)" fill="none" stroke="#000" stroke-linecap="round" stroke-linejoin="round" stroke-width="0.752"/>
        <path id="Path_188932" data-name="Path 188932" d="M352.457,45.544s25.209,4.128,27.975,19-5.074,36.482-5.074,36.482-10.038-5.236-16.1-6.7c-3.266-.786,3.072-5.339-.364-16.969,0,0-4.327,10.716-9.443,11.67-6.03,1.124-20.421-.711-26.805-5.141-3.506-2.433-1.473-13.026-2.386-13.524-1.808-.986-3.606,12.218-5.528,12.572-1.309.241-10.1,6.427-12.374,3.059-1.85-2.742-.217-9.7-1.17-9.5-2.615.563-2.127,13.913-4.221,14.387-4.689,1.062-7.877,1.735-8.7,1.277-4.136-2.312-1.868-30.089,6.3-39.33s35.215-17.272,57.888-7.289" transform="translate(-237.417 -25.051)" fill="#503a33"/>
        <path id="Path_188933" data-name="Path 188933" d="M399.106,129.231a21.129,21.129,0,0,1-1.3-13.177c.742-3.27,2.255-6.317,3.1-9.562s.941-6.94-.966-9.7c-2.18-3.151-6.623-4.6-7.8-8.251-1.269-3.95,2.009-7.723,3.746-11.49a16.174,16.174,0,0,0-23.082-20.6" transform="translate(-245.386 -26.272)" fill="none" stroke="#503a33" stroke-linecap="round" stroke-linejoin="round" stroke-width="0.438"/>
        <path id="Path_188934" data-name="Path 188934" d="M307.646,40.051a36.977,36.977,0,0,0-10.327,1.682c-3.286,1.2-6.334,3.524-7.584,6.793-1.039,2.716-.744,5.755-1.4,8.587-1.076,4.651-4.561,8.295-7.719,11.875s-6.273,7.729-6.315,12.5c-.043,4.857,3.1,9.927.961,14.289-1.211,2.471-3.8,3.9-5.764,5.831a14.463,14.463,0,0,0-1.059,18.736" transform="translate(-235.506 -24.969)" fill="none" stroke="#503a33" stroke-linecap="round" stroke-linejoin="round" stroke-width="0.438"/>
        <path id="Path_188935" data-name="Path 188935" d="M264.172,199.371a.194.194,0,0,1-.187-.143,56.455,56.455,0,0,0-3.573-9.088.194.194,0,1,1,.346-.176,56.759,56.759,0,0,1,3.6,9.16.2.2,0,0,1-.134.239.215.215,0,0,1-.053.007" transform="translate(-235.036 -38.76)" fill="#503a33"/>
      </g>
      <g id="Group_983611" data-name="Group 983611" transform="translate(0 5.214)">
        <path id="Path_188937" data-name="Path 188937" d="M210.965,73.371h57.45c3.532,0,7.3.172,7.3,5.314s.8,37.162.089,42.01c-.588,4.029-2.678,5.986-11.391,6.157s-48.035-.121-52.5,0c-2.826.077-8.123.077-8.476-6-.36-6.187-.263-35.741-.226-41.312-.037-6.6,7.76-6.17,7.76-6.17" transform="translate(-203.165 -73.365)" fill="#e9c1d9"/>
        <path id="Path_188938" data-name="Path 188938" d="M234.214,115.153s.458,9.167,4.125,16.042c0,0-11.688-2.062-15.354-17.646Z" transform="translate(-198.855 -64.626)" fill="#e9c1d9"/>
        <path id="Path_188939" data-name="Path 188939" d="M216.876,107.911c.664,0,4.793.074,5.419.009.52-.056.772-.252.794-1.07s-.016-4.511,0-4.931c.01-.265.01-.762-.773-.8-.8-.033-4.611-.024-5.329-.021a.7.7,0,0,0-.8.729v5.395c0,.331.022.685.685.685" transform="translate(-200.333 -67.334)" fill="#fff"/>
        <path id="Path_188940" data-name="Path 188940" d="M230.281,101.83v5.395c0,.332.022.685.685.685s4.793.075,5.419.009c.52-.055.772-.251.794-1.069s-.016-4.512,0-4.931c.01-.265.01-.763-.773-.8-.8-.034-4.611-.024-5.329-.021a.694.694,0,0,0-.8.728" transform="translate(-197.268 -67.334)" fill="#fff"/>
        <path id="Path_188941" data-name="Path 188941" d="M244.372,101.83v5.395c0,.332.022.685.685.685s4.793.075,5.419.009c.52-.055.772-.251.794-1.069s-.016-4.512,0-4.931c.01-.265.01-.763-.773-.8-.8-.034-4.611-.024-5.329-.021a.694.694,0,0,0-.8.728" transform="translate(-194.203 -67.334)" fill="#fff"/>
      </g>
    </g>
  </g>
</svg>
