<svg xmlns="http://www.w3.org/2000/svg" xmlns:xlink="http://www.w3.org/1999/xlink" width="505" height="184" viewBox="0 0 505 184">
  <defs>
    <clipPath id="clip-path">
      <rect id="Rectangle_338755" data-name="Rectangle 338755" width="461.611" height="69.316" fill="none"/>
    </clipPath>
  </defs>
  <g id="_14" data-name="14" transform="translate(-180 -7808)">
    <rect id="Rectangle_338593" data-name="Rectangle 338593" width="505" height="184" rx="14" transform="translate(180 7808)" fill="#dddeff"/>
    <g id="Group_983632" data-name="Group 983632" transform="translate(602 146)">
      <g id="Group_983633" data-name="Group 983633" transform="translate(-400 7719)">
        <g id="Group_983632-2" data-name="Group 983632" clip-path="url(#clip-path)">
          <path id="Path_210619" data-name="Path 210619" d="M34.642,16.527l-.069-.007A13.4,13.4,0,0,0,33.2,16.45a39,39,0,0,0-5.589.556,47.1,47.1,0,0,1-6.914.66,57.558,57.558,0,0,1-7.03-.542,39.2,39.2,0,0,0-5.321-.417,12.247,12.247,0,0,0-1.434.1c-.109.014-.217.03-.323.049A7.469,7.469,0,0,0,0,24.422c0,3.786,2.278,7.324,6.417,9.957.114.072.227.144.344.213.427.262.87.51,1.324.743a29.422,29.422,0,0,0,13.405,3.03,28.373,28.373,0,0,0,15.073-3.986c.088-.056.175-.112.262-.17q.658-.433,1.249-.9c3.178-2.487,4.906-5.594,4.906-8.892,0-4.243-3.269-7.335-8.337-7.894M8.987,18.146c1.355.023,2.859.206,4.509.406a58.875,58.875,0,0,0,7.2.552,48.251,48.251,0,0,0,7.122-.676,42.916,42.916,0,0,1,4.919-.535c-1.4,2.086-5.86,3.942-11.969,3.942-5.86,0-10.205-1.708-11.784-3.689m12.5,18.781A28.539,28.539,0,0,1,9.356,34.371c.331-.221.68-.437,1.048-.644a26.554,26.554,0,0,1,12.81-2.981A27.113,27.113,0,0,1,35.425,33.4a27.332,27.332,0,0,1-13.936,3.523" transform="translate(0 -12.23)" fill="#59444e"/>
          <path id="Path_210620" data-name="Path 210620" d="M75.435,109.811a3.113,3.113,0,0,0-.395-.045c-.152-.011-.324-.024-.512-.028-.752-.02-1.772-.012-2.9-.011-2.263.009-4.13.006-4.2.382-.033.188.414.443,1.173.648a11.873,11.873,0,0,0,3.027.358,10.77,10.77,0,0,0,3.037-.405c.189-.06.359-.116.506-.179a3.148,3.148,0,0,0,.369-.19c.2-.122.294-.234.274-.327s-.155-.161-.377-.2" transform="translate(-50.13 -81.579)" fill="#59444e"/>
          <path id="Path_210621" data-name="Path 210621" d="M175.511,28.01a3.269,3.269,0,0,0-.839-1.372c-.3-.285-.569-.373-.625-.3s.064.281.237.6a7.52,7.52,0,0,1,.56,1.279c.334,1.033.332,1.978.545,2,.048,0,.1-.051.145-.159a1.57,1.57,0,0,0,.07-.2q.017-.058.033-.126l.021-.143a3.568,3.568,0,0,0-.146-1.587" transform="translate(-129.391 -19.566)" fill="#59444e"/>
          <path id="Path_210622" data-name="Path 210622" d="M58.788,22.077a4.694,4.694,0,0,1-.781.874c-1.923,1.7-5.951,3.067-11.189,3.067-5.219,0-9.237-1.354-11.169-3.05a4.988,4.988,0,0,1-.615-.638c1.355.023,2.859.206,4.509.405a58.827,58.827,0,0,0,7.2.552,48.252,48.252,0,0,0,7.122-.675,42.924,42.924,0,0,1,4.919-.535" transform="translate(-26.048 -16.414)" fill="#fff"/>
          <path id="Path_210623" data-name="Path 210623" d="M58.788,22.077a4.694,4.694,0,0,1-.781.874c-.382.039-.765.095-1.14.144-1.049.135-2.1.295-3.144.446a56.657,56.657,0,0,1-6.309.654,29.2,29.2,0,0,1-6.237-.552,28.571,28.571,0,0,0-5.528-.674,4.988,4.988,0,0,1-.615-.638c1.355.023,2.859.206,4.509.405a58.827,58.827,0,0,0,7.2.552,48.252,48.252,0,0,0,7.122-.675,42.924,42.924,0,0,1,4.919-.535" transform="translate(-26.048 -16.414)" fill="#f9d0d3"/>
          <path id="Path_210624" data-name="Path 210624" d="M62.544,74.844a27.333,27.333,0,0,1-13.936,3.523,28.537,28.537,0,0,1-12.133-2.556q.5-.332,1.048-.644.451-.252.926-.487.722-.354,1.5-.661a28.6,28.6,0,0,1,10.384-1.833,29.783,29.783,0,0,1,8.659,1.23q.474.147.936.308a20.7,20.7,0,0,1,2.616,1.12" transform="translate(-27.119 -53.67)" fill="#ff7c7d"/>
          <path id="Path_210625" data-name="Path 210625" d="M62.544,79.3a27.333,27.333,0,0,1-13.936,3.523,28.537,28.537,0,0,1-12.133-2.556q.5-.332,1.048-.644.451-.252.926-.487A19.93,19.93,0,0,0,44.3,81a27.837,27.837,0,0,0,7.024.681,14.31,14.31,0,0,0,6.428-1.633,7.6,7.6,0,0,0,2.173-1.87,20.691,20.691,0,0,1,2.616,1.12" transform="translate(-27.119 -58.128)" fill="#f66065"/>
          <path id="Path_210626" data-name="Path 210626" d="M56.188,77.638a.734.734,0,0,0-.983-.258,5.093,5.093,0,0,1-1.018.35.719.719,0,1,0,.382,1.386,6.719,6.719,0,0,0,1.361-.5.725.725,0,0,0,.258-.983" transform="translate(-39.896 -57.466)" fill="#ffa8a9"/>
          <path id="Path_210627" data-name="Path 210627" d="M248.567,30.113q-.377-.08-.776-.13a13.354,13.354,0,0,0-1.486-.1,45.773,45.773,0,0,0-6.187.512,66.391,66.391,0,0,1-8.278.666,58.86,58.86,0,0,1-7.794-.628,26.907,26.907,0,0,0-6.438-.358c-.191.024-.379.053-.565.089a7.41,7.41,0,0,0-.871.223,6.289,6.289,0,0,0-4.5,5.849c0,2.733,1.534,5.307,4.367,7.406q.425.315.89.614.507.33,1.061.638A30.709,30.709,0,0,0,232.7,48.305a31.163,31.163,0,0,0,14.193-3.135c.177-.092.351-.185.523-.282q.388-.218.755-.443c3.6-2.228,5.563-5.119,5.563-8.215a6.476,6.476,0,0,0-5.169-6.117M221.5,40.664c1.223-1.193,3.841-1.334,7.569-.407a9.29,9.29,0,0,0,4.245.019c2.478-.536,5.948-1.107,7.469.134a2.266,2.266,0,0,1,.742,1.16,70.612,70.612,0,0,1-17.94.205c-.9-.086-1.685-.161-2.343-.2q-.17-.011-.332-.013a2.533,2.533,0,0,1,.591-.9m-2.392-9.243a39.183,39.183,0,0,1,4.749.433,60.032,60.032,0,0,0,7.978.64,67.379,67.379,0,0,0,8.456-.677c1.784-.223,3.431-.428,4.9-.486-2.191,1.965-6.994,3.559-13.286,3.559-6.19,0-10.939-1.542-13.177-3.463.124,0,.25-.006.378-.006M232.7,46.868a29.259,29.259,0,0,1-14.015-3.234c-.1-.056-.2-.114-.3-.171a4.137,4.137,0,0,1,.891-.313A6.043,6.043,0,0,1,220.705,43c.147,0,.3,0,.454.014.634.039,1.4.111,2.294.2a71.233,71.233,0,0,0,19.069-.337h0l.069-.011c.183-.03.359-.053.53-.071a3.275,3.275,0,0,1,3.122.993c.02.026.04.052.057.078a29.649,29.649,0,0,1-13.6,3.01" transform="translate(-157.373 -22.212)" fill="#59444e"/>
          <path id="Path_210628" data-name="Path 210628" d="M265.679,35.547a8.8,8.8,0,0,1-1.577,1.1c-2.55,1.426-6.648,2.458-11.709,2.458-5.37,0-9.655-1.161-12.158-2.723a8.327,8.327,0,0,1-1.019-.74c.124,0,.25-.006.378-.006a39.135,39.135,0,0,1,4.749.433,60.03,60.03,0,0,0,7.977.639,67.421,67.421,0,0,0,8.456-.677c1.784-.223,3.431-.428,4.9-.486" transform="translate(-177.855 -26.429)" fill="#fff"/>
          <path id="Path_210629" data-name="Path 210629" d="M265.679,35.547a8.8,8.8,0,0,1-1.577,1.1c-1.455.086-2.909.394-4.345.582a43.394,43.394,0,0,1-6.99.351c-4.19-.132-8.34-1.262-12.531-1.2a8.327,8.327,0,0,1-1.019-.74c.124,0,.25-.006.378-.006a39.135,39.135,0,0,1,4.749.433,60.03,60.03,0,0,0,7.977.639,67.421,67.421,0,0,0,8.456-.677c1.784-.223,3.431-.428,4.9-.486" transform="translate(-177.855 -26.429)" fill="#f9d0d3"/>
          <path id="Path_210630" data-name="Path 210630" d="M265.776,81.185a29.65,29.65,0,0,1-13.6,3.01,29.259,29.259,0,0,1-14.015-3.234c-.1-.056-.2-.114-.3-.171.077-.039.16-.075.247-.111a4.286,4.286,0,0,1,.644-.2,6.045,6.045,0,0,1,1.427-.154c.147,0,.3,0,.454.014.634.039,1.4.111,2.294.2A71.243,71.243,0,0,0,262,80.2h0l.069-.012c.183-.03.359-.053.53-.071a3.967,3.967,0,0,1,2.42.382,2.476,2.476,0,0,1,.7.611c.02.026.04.052.057.078" transform="translate(-176.847 -59.539)" fill="#fff"/>
          <path id="Path_210631" data-name="Path 210631" d="M265.776,82.388a29.65,29.65,0,0,1-13.6,3.01,29.259,29.259,0,0,1-14.015-3.234c-.1-.056-.2-.114-.3-.171.077-.039.16-.075.247-.111a12.482,12.482,0,0,0,2.863.973c1.225.323,2.465.594,3.713.812a44.112,44.112,0,0,0,7.647.65,27.772,27.772,0,0,0,7.484-.806c1.771-.5,3.454-1.252,5.2-1.811a2.476,2.476,0,0,1,.7.611c.02.026.04.052.057.078" transform="translate(-176.847 -60.743)" fill="#f9d0d3"/>
          <path id="Path_210632" data-name="Path 210632" d="M268.326,69.906a70.6,70.6,0,0,1-17.94.205c-.9-.086-1.685-.161-2.343-.2q-.17-.011-.332-.013a2.529,2.529,0,0,1,.591-.9,2.837,2.837,0,0,1,.635-.461c1.388-.75,3.759-.735,6.934.055a9.294,9.294,0,0,0,4.245.019c2.478-.536,5.948-1.107,7.469.134l.014.013a2.267,2.267,0,0,1,.727,1.147" transform="translate(-184.171 -50.549)" fill="#ff7c7d"/>
          <path id="Path_210633" data-name="Path 210633" d="M268.326,71.5a70.6,70.6,0,0,1-17.94.205c-.9-.086-1.685-.161-2.343-.2q-.17-.011-.332-.013a2.529,2.529,0,0,1,.591-.9,2.837,2.837,0,0,1,.635-.461.721.721,0,0,1,.049.088,6.227,6.227,0,0,0,1.58.491q.839.235,1.693.4a21.076,21.076,0,0,0,3.667.371.769.769,0,0,1,.288.06.7.7,0,0,1,.311-.4,2.02,2.02,0,0,1,.93-.285.873.873,0,0,1,.529.039,4.26,4.26,0,0,1,1.433.624.786.786,0,0,1,.178.152c.982,0,1.964-.032,2.945-.1q1.412-.091,2.817-.266c.215-.067.431-.141.645-.219a5.312,5.312,0,0,0,1.6-.743,2.267,2.267,0,0,1,.727,1.147" transform="translate(-184.171 -52.144)" fill="#f66065"/>
          <path id="Path_210634" data-name="Path 210634" d="M264.633,69.486a.8.8,0,0,0-.2-.113,2.149,2.149,0,0,0-1.314-.208,1.818,1.818,0,0,0-.527.034.218.218,0,0,0-.051.394c.246.112,2.04.7,2.122.15a.172.172,0,0,0-.03-.257" transform="translate(-195.118 -51.403)" fill="#ffa8a9"/>
          <path id="Path_210635" data-name="Path 210635" d="M305.913,69.213a7.388,7.388,0,0,0-2.912.332.205.205,0,0,0-.137.131.215.215,0,0,0,.028.349,2.649,2.649,0,0,0,1.678.006c.47-.075,1.266-.021,1.529-.494a.218.218,0,0,0-.186-.324" transform="translate(-225.12 -51.439)" fill="#ffa8a9"/>
          <path id="Path_210636" data-name="Path 210636" d="M451.959,35.527a14.9,14.9,0,0,0-2.593-.2c-.493,0-1,.017-1.532.047-1.326.072-2.757.221-4.287.381a79.07,79.07,0,0,1-8.291.558,70.562,70.562,0,0,1-7.809-.526c-1.251-.135-2.422-.262-3.515-.325-.523-.032-1.026-.049-1.512-.046a12.837,12.837,0,0,0-1.939.145c-3.126.5-5.4,2.682-5.4,5.192,0,2.435,1.675,4.712,4.761,6.52q.61.358,1.292.692c.1.049.207.1.312.148a35.617,35.617,0,0,0,14.669,2.845,37.116,37.116,0,0,0,13.371-2.288q.671-.263,1.3-.556l.121-.057c4.029-1.912,6.244-4.5,6.244-7.3,0-2.458-2.232-4.706-5.194-5.231m-24.666,1.693a71.583,71.583,0,0,0,7.963.535,80.438,80.438,0,0,0,8.44-.565c1.512-.158,2.927-.306,4.219-.377-.842,1.988-5.54,3.967-12.01,3.967-6.369,0-11.019-1.919-11.968-3.874,1.035.063,2.157.184,3.355.313m8.826,12.3a34.13,34.13,0,0,1-14.061-2.711c-.019-.008-.039-.017-.057-.027a1.821,1.821,0,0,1,1.25-.227,70.815,70.815,0,0,0,24.084.027,1.844,1.844,0,0,1,1.5.41,1.8,1.8,0,0,1,.27.283,35.483,35.483,0,0,1-12.988,2.245" transform="translate(-308.612 -26.269)" fill="#59444e"/>
          <path id="Path_210637" data-name="Path 210637" d="M469.153,79.742a35.484,35.484,0,0,1-12.988,2.245A34.129,34.129,0,0,1,442.1,79.276c-.019-.008-.039-.017-.057-.027a1.555,1.555,0,0,1,.2-.1,1.721,1.721,0,0,1,.221-.081,1.836,1.836,0,0,1,.83-.045,70.815,70.815,0,0,0,24.084.027,1.864,1.864,0,0,1,.747.026,1.841,1.841,0,0,1,.628.286c.043.03.086.063.127.1a1.782,1.782,0,0,1,.27.283" transform="translate(-328.657 -58.731)" fill="#fff"/>
          <path id="Path_210638" data-name="Path 210638" d="M469.153,79.952A35.483,35.483,0,0,1,456.164,82.2,34.129,34.129,0,0,1,442.1,79.486c-.019-.008-.039-.017-.057-.027a1.567,1.567,0,0,1,.2-.1,1.715,1.715,0,0,1,.221-.081,6.31,6.31,0,0,1,.615.2q.382.125.766.241.9.27,1.811.492c1.173.286,2.36.515,3.553.7a56.085,56.085,0,0,0,7.1.622,30.263,30.263,0,0,0,12.448-1.96c.043.03.086.063.127.1a1.785,1.785,0,0,1,.27.283" transform="translate(-328.657 -58.941)" fill="#f9d0d3"/>
          <path id="Path_210639" data-name="Path 210639" d="M473.577,41.109a3.2,3.2,0,0,1-.914,1.144,6.036,6.036,0,0,1-.512.387c-2.008,1.361-5.814,2.436-10.583,2.436-4.828,0-8.669-1.1-10.657-2.489-.039-.025-.076-.052-.114-.079a3.72,3.72,0,0,1-1.2-1.305c1.035.063,2.158.184,3.355.313a71.582,71.582,0,0,0,7.963.535,80.44,80.44,0,0,0,8.44-.565c1.512-.158,2.927-.306,4.219-.377" transform="translate(-334.273 -30.564)" fill="#fff"/>
          <path id="Path_210640" data-name="Path 210640" d="M473.577,41.109a3.2,3.2,0,0,1-.914,1.144c-.081,0-.16,0-.237,0-.552,0-1.1.01-1.654.039-1.013.05-2.024.149-3.033.25a60.854,60.854,0,0,1-6.115.389,79.485,79.485,0,0,1-9.761-.73,9.691,9.691,0,0,0-.951.384c-.039-.025-.076-.052-.114-.079a3.72,3.72,0,0,1-1.2-1.305c1.035.063,2.158.184,3.355.313a71.582,71.582,0,0,0,7.963.535,80.44,80.44,0,0,0,8.44-.565c1.512-.158,2.927-.306,4.219-.377" transform="translate(-334.273 -30.564)" fill="#f9d0d3"/>
          <path id="Path_210641" data-name="Path 210641" d="M672.707,50.577a9.5,9.5,0,0,0-1.244-.693c-.25-.115-.52-.223-.809-.337l-.448-.17c-.154-.054-.313-.1-.476-.156a24.2,24.2,0,0,0-4.686-.975,34.5,34.5,0,0,0-5.814-.14,35.02,35.02,0,0,0-10.243,2.085c-2.512.968-3.922,2.019-3.729,2.642.382,1.248,6.655.423,14.244-.013,1.9-.109,3.7-.185,5.339-.229s3.119-.054,4.376-.072l.462-.012.439-.006c.285-.005.558-.02.813-.032a12.225,12.225,0,0,0,1.334-.109c.748-.095,1.22-.292,1.31-.605s-.215-.715-.869-1.179" transform="translate(-479.731 -35.722)" fill="#59444e"/>
          <path id="Path_210642" data-name="Path 210642" d="M694.952,79.287a2.287,2.287,0,0,0-.3-.016c-.115-.005-.244-.007-.385,0l-2.182.048c-1.7.026-3.115.015-3.167.3s1.361.776,3.183.749A7.481,7.481,0,0,0,694.4,80c.142-.052.269-.1.379-.153a2.431,2.431,0,0,0,.272-.161c.144-.1.212-.19.192-.259s-.126-.114-.294-.136" transform="translate(-512.205 -58.933)" fill="#59444e"/>
          <path id="Path_210643" data-name="Path 210643" d="M879.3,20.281l-.316-2.06-.219-1.43L877.225,6.774a7.683,7.683,0,0,0-3.6-5.428A7.855,7.855,0,0,0,870.6.275a29.927,29.927,0,0,0-8.432.049,7.62,7.62,0,0,0-3.944,1.817,7.543,7.543,0,0,0-.993,1.052A7.775,7.775,0,0,0,855.685,6.8l-2.054,13.392a7.689,7.689,0,0,0,3.375,7.627,7.916,7.916,0,0,0,2.007.947,25.745,25.745,0,0,0,7.66,1.2,24.306,24.306,0,0,0,7.259-1.114,7.748,7.748,0,0,0,5.364-8.57M862.377,1.746a28.929,28.929,0,0,1,4.2-.308A27.841,27.841,0,0,1,870.4,1.7a6.448,6.448,0,0,1,2.284.768,6.85,6.85,0,0,1-1.1.487,18.4,18.4,0,0,1-5.885.854,18.4,18.4,0,0,1-5.885-.854l-.212-.078a6.185,6.185,0,0,1,2.771-1.131M873.5,27.478A23.261,23.261,0,0,1,859.44,27.4a6.413,6.413,0,0,1-1.767-.862c3.84-6.113,15.062-7.769,19.871-8.2l.332,2.169a6.274,6.274,0,0,1-4.371,6.979" transform="translate(-634.599 0)" fill="#59444e"/>
          <path id="Path_210644" data-name="Path 210644" d="M899.433,125.483c-.105,0-.225.014-.364.026s-.3.021-.469.043c-.686.071-1.62.153-2.674.185-2.108.063-3.871.009-3.94.366-.035.177.382.426,1.1.627a10,10,0,0,0,2.882.316,7.756,7.756,0,0,0,2.882-.6c.174-.084.328-.166.46-.243a2.35,2.35,0,0,0,.317-.246c.164-.152.231-.273.192-.354s-.178-.118-.387-.117" transform="translate(-663.182 -93.295)" fill="#59444e"/>
          <path id="Path_210645" data-name="Path 210645" d="M890.27,6.634a5.663,5.663,0,0,1-.637.309c-.144.06-.3.121-.464.178a18.4,18.4,0,0,1-5.885.854,18.4,18.4,0,0,1-5.885-.854l-.212-.078c.014-.01.028-.022.043-.03a6.167,6.167,0,0,1,2.728-1.1,28.959,28.959,0,0,1,4.2-.308,27.8,27.8,0,0,1,3.826.262,6.444,6.444,0,0,1,2.284.767" transform="translate(-652.18 -4.167)" fill="#fff"/>
          <path id="Path_210646" data-name="Path 210646" d="M890.4,6.634a5.663,5.663,0,0,1-.637.309c-1.719-.223-3.454-.332-5.189-.411a20.978,20.978,0,0,0-7.214.481,6.167,6.167,0,0,1,2.728-1.1,28.968,28.968,0,0,1,4.2-.308,27.8,27.8,0,0,1,3.826.262,6.444,6.444,0,0,1,2.284.767" transform="translate(-652.305 -4.167)" fill="#f9d0d3"/>
          <path id="Path_210647" data-name="Path 210647" d="M885.487,80.608a23.261,23.261,0,0,1-14.065-.082,6.4,6.4,0,0,1-1.767-.862,10.218,10.218,0,0,1,1.655-1.991c4.317-4.082,12.312-5.557,16.922-6.08.47-.053.9-.1,1.3-.132l.332,2.169a6.274,6.274,0,0,1-4.371,6.979" transform="translate(-646.581 -53.13)" fill="#ff7c7d"/>
          <path id="Path_210648" data-name="Path 210648" d="M885.487,80.608a23.261,23.261,0,0,1-14.065-.082,6.4,6.4,0,0,1-1.767-.862,10.218,10.218,0,0,1,1.655-1.991,2.115,2.115,0,0,0,1.463,1.45,15.16,15.16,0,0,0,1.621.408c.493.07.988.139,1.482.2a19.57,19.57,0,0,0,6.595.03,8.333,8.333,0,0,0,2.927-1.193,5.722,5.722,0,0,0,1.745-2.222,6.83,6.83,0,0,0,.875-2.944,11.054,11.054,0,0,1,.213-1.811c.47-.053.9-.1,1.3-.132l.332,2.169a6.274,6.274,0,0,1-4.371,6.979" transform="translate(-646.581 -53.13)" fill="#f66065"/>
          <path id="Path_210649" data-name="Path 210649" d="M888.012,88.328a.728.728,0,0,0-.884-.5,6.313,6.313,0,0,0-1.039.478.719.719,0,0,0,.725,1.241c.129-.075.26-.146.4-.21l.1-.047q.1-.04.2-.076a.734.734,0,0,0,.5-.884" transform="translate(-658.534 -65.272)" fill="#ffa8a9"/>
          <path id="Path_210650" data-name="Path 210650" d="M903.234,81.037a.724.724,0,0,0-.884-.5l-1.705.651a.739.739,0,0,0-.5.884.724.724,0,0,0,.884.5l1.706-.65a.739.739,0,0,0,.5-.884" transform="translate(-669.228 -59.851)" fill="#ffa8a9"/>
          <path id="Path_210651" data-name="Path 210651" d="M1062.212,30.091a13.511,13.511,0,0,0-1.862-.18q-.7-.024-1.452,0c-1.545.046-3.248.22-5.094.408a80.96,80.96,0,0,1-8.294.545,71.841,71.841,0,0,1-7.811-.515,42.005,42.005,0,0,0-5.46-.355,12.213,12.213,0,0,0-1.446.126l-.055.007c-3.129.489-5.4,2.633-5.4,5.1,0,2.779,2.262,5.343,6.369,7.22l.056.026c.135.061.273.122.411.181l.292.124q.516.214,1.056.408a38.378,38.378,0,0,0,12.85,2.047,38.586,38.586,0,0,0,12.688-1.988c.463-.164.915-.339,1.35-.523.213-.089.422-.181.627-.275.421-.192.824-.392,1.2-.6q.657-.354,1.235-.736c2.554-1.682,3.93-3.719,3.93-5.885,0-2.415-2.234-4.623-5.195-5.136m-24.663,1.689a73.223,73.223,0,0,0,7.962.522,81.768,81.768,0,0,0,8.439-.553c1.322-.135,2.57-.262,3.728-.338-2.05,1.429-6.47,2.61-12.119,2.61-5.61,0-10.008-1.166-12.077-2.583,1.228.042,2.59.185,4.068.342m17.922,8.369c-6.315,1.781-13.742.766-18.316-.035a23.083,23.083,0,0,1,18.316.035m5.164.887q-.49.23-1.017.442-.7.285-1.456.538a37.741,37.741,0,0,1-11.788,1.78,37.577,37.577,0,0,1-11.932-1.828q-.591-.2-1.146-.422a.238.238,0,0,1-.148-.231c0-.029,0-.057,0-.085s0-.064.007-.094a.247.247,0,0,1,.286-.222h0c.431.063,1.081.183,1.717.3l.122.023c4.531.836,13.763,2.51,21.369.056.167-.053.329-.1.489-.149a11.063,11.063,0,0,1,1.812-.381,5.288,5.288,0,0,1,1.653.035.127.127,0,0,1,.026.238" transform="translate(-762.331 -22.23)" fill="#59444e"/>
          <path id="Path_210652" data-name="Path 210652" d="M1096.961,96.858c-.972.047-1.846.047-2.493.051-.161,0-.311.009-.442.013a2.9,2.9,0,0,0-.342.022c-.193.026-.314.075-.336.149s.059.167.228.272a2.843,2.843,0,0,0,.319.167,4.519,4.519,0,0,0,.443.155,8.266,8.266,0,0,0,2.693.284,9.2,9.2,0,0,0,2.632-.49c.643-.232,1-.488.946-.633-.107-.292-1.7-.076-3.647.011" transform="translate(-812.891 -71.896)" fill="#59444e"/>
          <path id="Path_210653" data-name="Path 210653" d="M1081.274,35.79a9.192,9.192,0,0,1-1.712.909,28.241,28.241,0,0,1-10.407,1.7,27.22,27.22,0,0,1-10.837-1.89,8.721,8.721,0,0,1-1.24-.693c1.227.042,2.59.185,4.068.342a73.224,73.224,0,0,0,7.961.522,81.774,81.774,0,0,0,8.439-.553c1.323-.135,2.57-.262,3.727-.338" transform="translate(-785.928 -26.61)" fill="#fff"/>
          <path id="Path_210654" data-name="Path 210654" d="M1081.274,35.79a9.192,9.192,0,0,1-1.712.909c-1.2,0-2.424.188-3.614.283q-3.2.255-6.418.2t-6.408-.417a22.659,22.659,0,0,0-4.8-.254,8.721,8.721,0,0,1-1.24-.693c1.227.042,2.59.185,4.068.342a73.224,73.224,0,0,0,7.961.522,81.774,81.774,0,0,0,8.439-.553c1.323-.135,2.57-.262,3.727-.338" transform="translate(-785.928 -26.61)" fill="#f9d0d3"/>
          <path id="Path_210655" data-name="Path 210655" d="M1083.26,72.383q-.489.231-1.016.443-.7.285-1.456.538a39.892,39.892,0,0,1-23.72-.049q-.591-.2-1.147-.422a.237.237,0,0,1-.148-.23c0-.029,0-.057,0-.085s0-.065.007-.095a.245.245,0,0,1,.247-.224.337.337,0,0,1,.039,0h0c.432.063,1.081.182,1.718.3l.122.023c4.531.836,13.763,2.51,21.369.056.167-.053.329-.1.489-.15a11.089,11.089,0,0,1,1.812-.381,6.717,6.717,0,0,1,.733-.047,4.493,4.493,0,0,1,.92.083.126.126,0,0,1,.026.237" transform="translate(-784.957 -53.578)" fill="#fff"/>
          <path id="Path_210656" data-name="Path 210656" d="M1083.26,72.383q-.489.231-1.016.443-.7.285-1.456.538a39.892,39.892,0,0,1-23.72-.049q-.591-.2-1.147-.422a.237.237,0,0,1-.148-.23c0-.029,0-.057,0-.085s0-.065.007-.095a.245.245,0,0,1,.247-.224,40.264,40.264,0,0,0,13.651,2.337,32.255,32.255,0,0,0,12.632-2.533,4.493,4.493,0,0,1,.92.083.126.126,0,0,1,.026.237" transform="translate(-784.957 -53.578)" fill="#f9d0d3"/>
          <path id="Path_210657" data-name="Path 210657" d="M1089.716,64.315c-6.314,1.781-13.741.766-18.315-.035a16.562,16.562,0,0,1,2.4-.927q.481-.147.986-.272a23.973,23.973,0,0,1,5.733-.678,23.314,23.314,0,0,1,6.774.967c.166.05.328.1.489.157a16.16,16.16,0,0,1,1.93.788" transform="translate(-796.577 -46.396)" fill="#ff7c7d"/>
          <path id="Path_210658" data-name="Path 210658" d="M1089.716,67.069c-6.314,1.781-13.741.766-18.315-.035a16.56,16.56,0,0,1,2.4-.927.621.621,0,0,0-.083.081l-.039.039c.174.187.881.272,1.111.326.376.088.757.158,1.141.217a38.687,38.687,0,0,0,5.04.41,27.016,27.016,0,0,0,5.232-.347c.256-.045.571-.079.89-.132.16-.082.295-.2.27-.394a.412.412,0,0,0-.069-.183c.166.05.328.1.489.157a16.161,16.161,0,0,1,1.93.788" transform="translate(-796.577 -49.15)" fill="#f66065"/>
          <path id="Path_210659" data-name="Path 210659" d="M1088.94,64.394l-.034-.007a.217.217,0,0,0-.154-.037l-.036,0a3.591,3.591,0,0,0-1.1.172.218.218,0,0,0-.023.415,1.25,1.25,0,0,0,.765.1.215.215,0,0,0,.073-.026,1.316,1.316,0,0,0,.589-.258.217.217,0,0,0-.076-.365" transform="translate(-808.507 -47.842)" fill="#ffa8a9"/>
          <path id="Path_210660" data-name="Path 210660" d="M1264.3,35.919a14.892,14.892,0,0,0-2.594-.2c-.493,0-1,.017-1.532.047-1.326.072-2.757.221-4.287.381a79.119,79.119,0,0,1-8.291.558,70.552,70.552,0,0,1-7.809-.526c-1.251-.135-2.423-.262-3.516-.325-.523-.032-1.026-.049-1.511-.046a12.842,12.842,0,0,0-1.939.145c-3.126.5-5.4,2.682-5.4,5.192,0,2.435,1.675,4.712,4.76,6.52q.61.358,1.293.692l.311.148a35.62,35.62,0,0,0,14.669,2.845,37.121,37.121,0,0,0,13.371-2.288q.67-.263,1.3-.556l.121-.057c4.029-1.912,6.244-4.5,6.244-7.3,0-2.458-2.233-4.706-5.193-5.231m-24.666,1.693a71.569,71.569,0,0,0,7.963.535,80.44,80.44,0,0,0,8.44-.565c1.512-.158,2.927-.306,4.219-.377-.843,1.988-5.54,3.967-12.01,3.967-6.37,0-11.02-1.919-11.968-3.874,1.035.063,2.158.184,3.355.313m8.825,12.3a34.133,34.133,0,0,1-14.061-2.711c-.019-.008-.039-.017-.058-.027a1.82,1.82,0,0,1,1.251-.227,70.816,70.816,0,0,0,24.084.027,1.844,1.844,0,0,1,1.5.41,1.8,1.8,0,0,1,.27.283,35.48,35.48,0,0,1-12.988,2.245" transform="translate(-912.581 -26.56)" fill="#59444e"/>
          <path id="Path_210661" data-name="Path 210661" d="M1395.063,36.559l-.117-.236c-.04-.077-.088-.147-.133-.218a3.423,3.423,0,0,0-.287-.385,3.015,3.015,0,0,0-.606-.531c-.383-.253-.684-.3-.732-.205s.122.293.367.611c.127.155.262.348.406.559.065.111.144.219.205.344.032.061.07.12.1.185l.092.2a6.094,6.094,0,0,1,.443,1.455c.012.049.024.1.034.142s.016.089.025.129a1.689,1.689,0,0,0,.055.211c.04.118.088.188.14.193s.107-.055.159-.174a1.662,1.662,0,0,0,.078-.221c.011-.044.026-.09.035-.14s.013-.1.02-.16a3.237,3.237,0,0,0-.285-1.755" transform="translate(-1035.817 -25.977)" fill="#59444e"/>
          <path id="Path_210662" data-name="Path 210662" d="M1220.806,55.526c-.026-.06-.045-.134-.076-.209a5.2,5.2,0,0,1-.3-1.191c-.12-.96.021-1.785-.146-1.837-.081-.028-.228.159-.346.5a3.255,3.255,0,0,0-.129,1.413,2.666,2.666,0,0,0,.54,1.336,1.553,1.553,0,0,0,.169.184,1.45,1.45,0,0,0,.154.114c.09.056.154.071.186.043s.032-.1.005-.193a1.487,1.487,0,0,0-.059-.163" transform="translate(-906.898 -38.874)" fill="#59444e"/>
          <path id="Path_210663" data-name="Path 210663" d="M1285.919,41.5a3.152,3.152,0,0,1-.891,1.124c-1.811,1.548-5.884,2.843-11.119,2.843-4.712,0-8.484-1.051-10.51-2.389a4.035,4.035,0,0,1-1.458-1.485c1.035.063,2.158.184,3.355.313a71.557,71.557,0,0,0,7.963.535,80.439,80.439,0,0,0,8.44-.565c1.512-.158,2.926-.306,4.219-.377" transform="translate(-938.242 -30.856)" fill="#fff"/>
          <path id="Path_210664" data-name="Path 210664" d="M1285.919,41.5a3.152,3.152,0,0,1-.891,1.124c.012-.053.022-.108.033-.161l-.085-.014a11.474,11.474,0,0,0-1.617-.082,24.037,24.037,0,0,0-3.161.259,56.268,56.268,0,0,1-6.413.747,45.21,45.21,0,0,1-6.655-.447c-1.2-.15-2.433-.371-3.658-.412a1.705,1.705,0,0,0-.074.565,4.035,4.035,0,0,1-1.458-1.485c1.035.063,2.158.184,3.355.313a71.557,71.557,0,0,0,7.963.535,80.439,80.439,0,0,0,8.44-.565c1.512-.158,2.926-.306,4.219-.377" transform="translate(-938.242 -30.856)" fill="#f9d0d3"/>
          <path id="Path_210665" data-name="Path 210665" d="M1281.494,80.134a35.477,35.477,0,0,1-12.988,2.245,34.125,34.125,0,0,1-14.061-2.711c-.019-.008-.04-.017-.058-.027a1.819,1.819,0,0,1,1.25-.227c.121.022.24.042.361.06a70.693,70.693,0,0,0,23.326.032c.133-.02.264-.042.4-.065a1.844,1.844,0,0,1,1.5.41,1.8,1.8,0,0,1,.27.283" transform="translate(-932.626 -59.023)" fill="#fff"/>
          <path id="Path_210666" data-name="Path 210666" d="M1281.494,80.134a35.477,35.477,0,0,1-12.988,2.245,34.125,34.125,0,0,1-14.061-2.711c-.019-.008-.04-.017-.058-.027a1.819,1.819,0,0,1,1.25-.227c.121.022.24.042.361.06a.324.324,0,0,0-.022.387c.28.1.585.167.792.239a19.787,19.787,0,0,0,3.329.815,60.326,60.326,0,0,0,7.195.631,36.607,36.607,0,0,0,7.151-.345,14.265,14.265,0,0,0,4.963-1.562c-.025-.045-.052-.089-.081-.132.133-.02.264-.042.4-.065a1.844,1.844,0,0,1,1.5.41,1.8,1.8,0,0,1,.27.283" transform="translate(-932.626 -59.023)" fill="#f9d0d3"/>
          <path id="Path_210667" data-name="Path 210667" d="M1495.513,30.3c-1.689,0-3.243,1.686-4.618,5.008a21.44,21.44,0,0,0-1.659,6.348c0,.029,0,.059,0,.088a3.256,3.256,0,0,0,.468,1.582c.943,1.594,3.212,2.691,5.927,2.691a7.374,7.374,0,0,0,5.446-2.043,3.579,3.579,0,0,0,.9-1.739,3.21,3.21,0,0,0,.053-.579c0-1.954-2.617-11.356-6.516-11.356m.12,14.279c-2.427,0-4.513-1.09-4.9-2.468a1.285,1.285,0,0,1,.114-.1c.634-.48,1.825-.437,3.444.124a4.384,4.384,0,0,0,2.847.012c1.458-.5,2.665-.544,3.154-.111a.8.8,0,0,1,.177.234c-.494,1.3-2.511,2.306-4.84,2.306" transform="translate(-1107.233 -22.527)" fill="#59444e"/>
          <path id="Path_210668" data-name="Path 210668" d="M1509.508,95.453a1.808,1.808,0,0,0-.2.022c-.078.006-.165.016-.258.03a12.712,12.712,0,0,1-1.472.1c-1.161.005-2.134-.1-2.188.1-.027.1.2.253.59.389a5.049,5.049,0,0,0,1.6.244A3.9,3.9,0,0,0,1509.2,96c.1-.05.181-.1.254-.142a1.482,1.482,0,0,0,.172-.144c.088-.088.123-.156.1-.2s-.1-.062-.218-.057" transform="translate(-1119.242 -70.968)" fill="#59444e"/>
          <path id="Path_210669" data-name="Path 210669" d="M1504.824,75.269c-.494,1.3-2.511,2.305-4.841,2.305-2.426,0-4.512-1.089-4.9-2.468a1.339,1.339,0,0,1,.114-.1,1.154,1.154,0,0,1,.1-.067c.654-.407,1.806-.342,3.344.191a4.383,4.383,0,0,0,2.848.012,4.167,4.167,0,0,1,3.012-.211.844.844,0,0,1,.141.1.776.776,0,0,1,.178.234" transform="translate(-1111.584 -55.524)" fill="#ff7c7d"/>
          <path id="Path_210670" data-name="Path 210670" d="M1504.824,76.008c-.494,1.3-2.511,2.305-4.841,2.305-2.426,0-4.512-1.089-4.9-2.468a1.347,1.347,0,0,1,.114-.1,1.156,1.156,0,0,1,.1-.067c.773,1.788,3.472,1.859,5.151,1.874a6,6,0,0,0,3.242-.533l.077-.048a4.727,4.727,0,0,0,.6-.93c.048-.122.094-.247.136-.372a.843.843,0,0,1,.141.1.777.777,0,0,1,.178.234" transform="translate(-1111.584 -56.262)" fill="#f66065"/>
          <path id="Path_210671" data-name="Path 210671" d="M1502.322,76.112l-.058-.025a1.782,1.782,0,0,0-.487-.284,1.516,1.516,0,0,0-.162-.064,2.149,2.149,0,0,0-.835-.276c-.223-.023-.661.019-.622.347a.236.236,0,0,0,.074.153.178.178,0,0,0,.091.109c.319.145,1.907,1.024,2.056.345a.187.187,0,0,0-.056-.3" transform="translate(-1115.351 -56.102)" fill="#ffa8a9"/>
          <path id="Path_210672" data-name="Path 210672" d="M1522.013,76c0-.005-.008-.009-.011-.014a.191.191,0,0,0-.1-.111,1.2,1.2,0,0,0-.9-.04,3.118,3.118,0,0,0-1.065.389.336.336,0,0,0-.068.522c.213.2.683.11.935.081.3-.034,1.561-.264,1.208-.826" transform="translate(-1129.938 -56.329)" fill="#ffa8a9"/>
          <path id="Path_210673" data-name="Path 210673" d="M1516.78,78.475l-.3.008a.217.217,0,0,0-.212.187.213.213,0,0,0,.154.236l.058.006v0h.012a1.126,1.126,0,0,0,.276-.008h.01a.216.216,0,0,0,0-.431" transform="translate(-1127.333 -58.345)" fill="#ffa8a9"/>
          <path id="Path_210674" data-name="Path 210674" d="M1675.809,29.84a6.849,6.849,0,0,0-2.942-1.521c-.131-.033-.263-.062-.4-.086-2.3-.423-5.135-.115-8.418.241a76.2,76.2,0,0,1-8.289.579,67.758,67.758,0,0,1-7.807-.546,26.822,26.822,0,0,0-6.973-.234,7.825,7.825,0,0,0-1.4.367,6.722,6.722,0,0,0-2.635,1.715,4.843,4.843,0,0,0-1.354,3.287c0,2.344,1.45,4.549,4.135,6.356a18.422,18.422,0,0,0,2.219,1.265q.691.334,1.431.634a36.039,36.039,0,0,0,13.249,2.327,34.457,34.457,0,0,0,14.679-2.961,16.692,16.692,0,0,0,3.182-1.974,10.619,10.619,0,0,0,1.572-1.535,6.436,6.436,0,0,0,1.6-4.112,5.144,5.144,0,0,0-1.849-3.8m-1.822,7.994a14.6,14.6,0,0,1-3.313,2.135,36.443,36.443,0,0,1-28.1,0q-.664-.322-1.254-.668a1.006,1.006,0,0,1-.5-.794c0-.055-.005-.11-.005-.164a3.78,3.78,0,0,1,1.454-2.705,1.022,1.022,0,0,1,1.032-.2c.252.09.506.175.759.255.759.237,1.524.43,2.292.592s1.54.283,2.313.368a.723.723,0,0,0,.8-.693.735.735,0,0,0-.515-.716h0c-.713-.213-1.42-.431-2.111-.686-.6-.213-1.192-.444-1.767-.7l-.262-.119c-.458-.213-.907-.434-1.34-.673-.19-.1-.375-.211-.558-.322a11.345,11.345,0,0,1-1.667-1.2c-.172-.149-.336-.3-.488-.461-1.06-1.017-.566-1.282.456-1.392l.013,0a11.109,11.109,0,0,1,1.816-.131,44.835,44.835,0,0,1,4.761.377c1.426.16,2.969.332,4.644.443,1.055.069,2.16.112,3.323.112,1.942,0,3.825-.129,5.6-.294.986-.092,1.939-.194,2.848-.293,3.172-.343,5.912-.641,8-.256l.063.012a.3.3,0,0,1,.2.448l0,0a5.45,5.45,0,0,1-.53.706,8.075,8.075,0,0,1-.684.666,9.572,9.572,0,0,1-.979.745c-.221.148-.45.292-.683.431q-.442.261-.905.5a24.463,24.463,0,0,1-3.016,1.27c-.69.243-1.394.454-2.109.647s-1.436.365-2.164.529l-.006,0a.722.722,0,0,0,.194,1.424c.775-.04,1.548-.119,2.323-.215s1.545-.239,2.314-.407a21.312,21.312,0,0,0,4.55-1.5q.2-.1.408-.2a.86.86,0,0,1,.854.04,6.849,6.849,0,0,1,2.116,1.989.859.859,0,0,1-.166,1.1" transform="translate(-1216.047 -20.839)" fill="#59444e"/>
          <path id="Path_210675" data-name="Path 210675" d="M1711.843,97.491a3.643,3.643,0,0,0-.407.008c-.158,0-.334.008-.525.024-.768.049-1.808.112-2.976.134-2.335.037-4.28-.035-4.361.342-.041.188.418.456,1.209.678a11.659,11.659,0,0,0,3.179.37,9.455,9.455,0,0,0,3.189-.568c.194-.081.366-.159.514-.234a3.064,3.064,0,0,0,.361-.242c.189-.15.271-.274.235-.363s-.187-.136-.419-.148" transform="translate(-1266.591 -72.482)" fill="#59444e"/>
          <path id="Path_210676" data-name="Path 210676" d="M1687.225,42a14.56,14.56,0,0,1-3.312,2.136,36.445,36.445,0,0,1-28.1,0q-.664-.323-1.255-.668a1,1,0,0,1-.5-.795c0-.055-.006-.109-.006-.164a2.665,2.665,0,0,1,.14-.837,3.567,3.567,0,0,1,.489-.947,5.56,5.56,0,0,1,.825-.921.977.977,0,0,1,.454-.234,1.022,1.022,0,0,1,.58.035l.094.032c.221.079.443.152.665.223.759.237,1.524.43,2.292.592s1.539.283,2.313.368a.722.722,0,0,0,.8-.693v-.007a.733.733,0,0,0-.514-.709l0,0c-.714-.213-1.42-.431-2.112-.686-.6-.213-1.192-.444-1.766-.7l-.263-.119c-.457-.213-.907-.434-1.339-.673-.19-.1-.375-.211-.558-.322a11.315,11.315,0,0,1-1.667-1.2c-.128-.111-.252-.224-.368-.341-.04-.04-.081-.081-.119-.121-1.06-1.016-.566-1.282.456-1.391l.013,0a11.114,11.114,0,0,1,1.817-.131,44.813,44.813,0,0,1,4.76.377c1.426.16,2.97.332,4.645.443,1.053.069,2.159.112,3.322.112,1.942,0,3.825-.129,5.6-.295.987-.092,1.94-.194,2.848-.293,3.173-.343,5.912-.641,8.005-.256l.063.013a.3.3,0,0,1,.2.447l0,0a5.469,5.469,0,0,1-.53.706,8.116,8.116,0,0,1-.684.666c-.045.04-.092.079-.138.116a9.754,9.754,0,0,1-.841.628c-.221.148-.45.292-.682.431q-.443.261-.906.5a24.429,24.429,0,0,1-3.016,1.271c-.69.243-1.394.454-2.108.647s-1.436.365-2.164.529l-.006,0a.72.72,0,0,0-.561.74.693.693,0,0,0,.026.152.718.718,0,0,0,.731.532c.774-.04,1.547-.119,2.322-.216s1.546-.239,2.314-.407a21.323,21.323,0,0,0,4.55-1.5c.136-.063.272-.13.408-.2a.859.859,0,0,1,.854.04c.217.14.42.28.609.426a6.082,6.082,0,0,1,1.506,1.562.879.879,0,0,1,.06.109.865.865,0,0,1-.226.99" transform="translate(-1229.285 -25.006)" fill="#fff"/>
          <path id="Path_210677" data-name="Path 210677" d="M1685.71,34.275l0,0a5.45,5.45,0,0,1-.53.706,8.116,8.116,0,0,1-.684.666c-.046.04-.092.079-.138.116a3.241,3.241,0,0,0-.005-.706c0,.006-.045-.414.005-.365-.129-.126-1.011-.061-1.192-.071-.019,0-.034-.006-.052-.008q-.277.047-.555.086-2.03.285-4.076.47c-2.786.254-5.582.384-8.379.473a52.475,52.475,0,0,1-8.248-.126,42.91,42.91,0,0,0-6.881-.623.734.734,0,0,1-.3.163,1.493,1.493,0,0,0-.551.3l-.019.017c-.04-.04-.081-.081-.119-.121-1.06-1.016-.566-1.282.456-1.392l.013,0a11.108,11.108,0,0,1,1.816-.131,44.829,44.829,0,0,1,4.761.377c1.426.16,2.97.332,4.644.443,1.054.069,2.159.112,3.323.112,1.942,0,3.825-.129,5.6-.295.987-.092,1.94-.194,2.848-.293,3.173-.343,5.912-.641,8.005-.256l.063.013a.3.3,0,0,1,.2.447" transform="translate(-1229.285 -25.006)" fill="#f9d0d3"/>
          <path id="Path_210678" data-name="Path 210678" d="M1689.123,63.382a14.562,14.562,0,0,1-3.312,2.136,36.445,36.445,0,0,1-28.1,0q-.664-.323-1.255-.668a1,1,0,0,1-.5-.795c0-.055-.007-.109-.007-.164a2.665,2.665,0,0,1,.14-.837,2.523,2.523,0,0,0,.17.874c.007.018.017.033.026.052,1.368,1.111,3.6,1.34,5.215,1.59a75.059,75.059,0,0,0,15.342.74c4.235-.216,9.535-.444,12.508-3.918a.865.865,0,0,1-.226.99" transform="translate(-1231.183 -46.388)" fill="#f9d0d3"/>
          <path id="Path_210679" data-name="Path 210679" d="M72.846,217.868h-.1a1.789,1.789,0,0,1-1.67-1.147l-1.137-2.957H62.723L61.66,216.69a1.789,1.789,0,1,1-3.348-1.26l5.643-14.488a1.789,1.789,0,0,1,1.667-1.139h1.424a1.789,1.789,0,0,1,1.661,1.124l5.8,14.488a1.789,1.789,0,0,1-1.661,2.453m-4.073-7.147-2.489-6.7-2.44,6.7Z" transform="translate(-43.262 -148.552)" fill="#ff7c7d"/>
          <path id="Path_210680" data-name="Path 210680" d="M265.732,216.175V201.5a1.694,1.694,0,0,1,1.694-1.694h.906a1.693,1.693,0,0,1,1.444.809l6.9,11.255V201.5a1.694,1.694,0,0,1,1.694-1.694h0a1.694,1.694,0,0,1,1.694,1.694v14.676a1.694,1.694,0,0,1-1.694,1.694h-1.021a1.693,1.693,0,0,1-1.441-.8l-6.786-10.977v10.086a1.694,1.694,0,0,1-3.389,0" transform="translate(-197.569 -148.552)" fill="#ff7c7d"/>
          <path id="Path_210681" data-name="Path 210681" d="M489.975,216.044V201.627a1.824,1.824,0,1,1,3.648,0v14.417a1.824,1.824,0,0,1-3.648,0" transform="translate(-364.292 -148.552)" fill="#ff7c7d"/>
          <path id="Path_210682" data-name="Path 210682" d="M666.49,216.175V201.5a1.694,1.694,0,0,1,1.694-1.694h2.462a1.694,1.694,0,0,1,1.637,1.259l2.943,11.064,2.908-11.059a1.7,1.7,0,0,1,1.639-1.263h2.471a1.694,1.694,0,0,1,1.694,1.694v14.676a1.694,1.694,0,0,1-3.389,0V203.648l-3.263,12.94a1.7,1.7,0,0,1-1.643,1.28h-.871a1.694,1.694,0,0,1-1.643-1.281l-3.251-12.939v12.526a1.694,1.694,0,0,1-3.389,0" transform="translate(-495.529 -148.552)" fill="#ff7c7d"/>
          <path id="Path_210683" data-name="Path 210683" d="M886.516,217.868h-.1a1.789,1.789,0,0,1-1.67-1.147l-1.137-2.957h-7.221l-1.063,2.926a1.789,1.789,0,1,1-3.348-1.26l5.643-14.488a1.788,1.788,0,0,1,1.666-1.139h1.424a1.788,1.788,0,0,1,1.661,1.124l5.8,14.488a1.789,1.789,0,0,1-1.661,2.453m-4.073-7.147-2.489-6.7-2.44,6.7Z" transform="translate(-648.219 -148.552)" fill="#ff7c7d"/>
          <path id="Path_210684" data-name="Path 210684" d="M1084.715,216.34V202.859h-3.833a1.528,1.528,0,1,1,0-3.056h11.3a1.528,1.528,0,1,1,0,3.056h-3.82V216.34a1.528,1.528,0,0,1-1.528,1.528h-.592a1.528,1.528,0,0,1-1.528-1.528" transform="translate(-802.49 -148.552)" fill="#ff7c7d"/>
          <path id="Path_210685" data-name="Path 210685" d="M1303.646,216.044V201.627a1.824,1.824,0,1,1,3.647,0v14.417a1.824,1.824,0,1,1-3.647,0" transform="translate(-969.249 -148.552)" fill="#ff7c7d"/>
          <path id="Path_210686" data-name="Path 210686" d="M1480.016,206.853a11.492,11.492,0,0,1,.825-4.633,8.5,8.5,0,0,1,1.682-2.477,7.037,7.037,0,0,1,2.335-1.627,9.922,9.922,0,0,1,3.894-.715,8.483,8.483,0,0,1,6.39,2.477,11.069,11.069,0,0,1,.019,13.734,9.5,9.5,0,0,1-12.766.012,9.33,9.33,0,0,1-2.378-6.771m3.758-.123a6.767,6.767,0,0,0,1.417,4.652,4.871,4.871,0,0,0,7.177.013,6.9,6.9,0,0,0,1.4-4.714,6.792,6.792,0,0,0-1.361-4.633,5.044,5.044,0,0,0-7.251.018,6.823,6.823,0,0,0-1.381,4.664" transform="translate(-1100.378 -146.766)" fill="#ff7c7d"/>
          <path id="Path_210687" data-name="Path 210687" d="M1689.655,216.175V201.5a1.694,1.694,0,0,1,1.694-1.694h.906a1.692,1.692,0,0,1,1.444.809l6.9,11.255V201.5a1.694,1.694,0,0,1,3.388,0v14.676a1.694,1.694,0,0,1-1.694,1.694h-1.021a1.693,1.693,0,0,1-1.441-.8l-6.787-10.977v10.086a1.694,1.694,0,1,1-3.388,0" transform="translate(-1256.243 -148.552)" fill="#ff7c7d"/>
        </g>
      </g>
    </g>
  </g>
</svg>
