<svg xmlns="http://www.w3.org/2000/svg" xmlns:xlink="http://www.w3.org/1999/xlink" width="225" height="129" viewBox="0 0 225 129">
  <defs>
    <clipPath id="clip-path">
      <rect id="Rectangle_338752" data-name="Rectangle 338752" width="133.552" height="104.9" transform="translate(0 0)" fill="none"/>
    </clipPath>
  </defs>
  <g id="_16" data-name="16" transform="translate(-8022 3904)">
    <rect id="Rectangle_338602" data-name="Rectangle 338602" width="225" height="129" rx="11" transform="translate(8022 -3904)" fill="#3c3fa7"/>
    <g id="Group_983624" data-name="Group 983624" transform="translate(8068 -3892)">
      <g id="Group_983623" data-name="Group 983623" clip-path="url(#clip-path)">
        <path id="Path_210572" data-name="Path 210572" d="M13.753,87a2.214,2.214,0,0,1-2.938-1.141c-1.765-2.878-3.623-5.7-5.39-8.577a2.809,2.809,0,0,0-1.9-1.379A4.961,4.961,0,0,1,0,73.813V72.248a3.366,3.366,0,0,1,2.7-1.927,9.948,9.948,0,0,0,7.513-5.8c1.93-3.891,3.879-7.785,7.133-10.778C22.3,49.183,28.03,46.554,34.933,47.22a30.013,30.013,0,0,1,8.909,2.721,7.126,7.126,0,0,0,6.008-.033,30.059,30.059,0,0,1,9.42-2.8,19.951,19.951,0,0,1,9.268,1.554A1.906,1.906,0,0,1,69.721,51.3a1.937,1.937,0,0,1-2.735,1.292c-1-.307-1.984-.64-3-.881a12.466,12.466,0,0,0-6.051-.083A30.853,30.853,0,0,0,51.3,53.917a10.759,10.759,0,0,1-8.487.2c-1.38-.527-2.749-1.083-4.13-1.608C32.555,50.186,27.093,51.651,22,55.356c-3.305,2.405-5.378,5.779-7.108,9.347a18.7,18.7,0,0,1-6.448,7.965,22.324,22.324,0,0,0,5.226,1,39.436,39.436,0,0,0,14.849-1.007,36.209,36.209,0,0,0,10.158-4.62A15.931,15.931,0,0,1,44.8,65.6a13.648,13.648,0,0,1,9.91,2.3,35.323,35.323,0,0,0,14.968,5.695,41.8,41.8,0,0,0,11.8-.123c1.25-.093,2.442-.487,4-.7-4.041-2.241-5.641-6.04-7.558-9.6a32.443,32.443,0,0,0-4.005-5.89,2.016,2.016,0,0,1-.013-3.054c1.481-.882,2.147-.8,3.293.435a35.922,35.922,0,0,1,5.913,9.29c1.7,3.588,4.324,5.888,8.332,6.482a2.379,2.379,0,0,1,2.149,2.271,2.182,2.182,0,0,1-1.7,2.59c-2.818.414-4.047,2.424-5.36,4.549-3.1,5.015-6.226,10.006-9.08,15.168-5.064,9.159-15.332,12.387-24.983,7.774a12.691,12.691,0,0,0-11.35-.009c-6.978,3.106-13.817,3.073-20.077-1.922a21.035,21.035,0,0,1-5.162-6.309,2.256,2.256,0,0,1,.514-3.218c1.393-.691,2.417-.373,3.189,1.088a16.251,16.251,0,0,0,3.941,4.971c4.53,3.779,9.561,3.872,14.847,1.954,1.306-.475,2.542-1.125,3.866-1.562a14.578,14.578,0,0,1,11.028.749,26.178,26.178,0,0,0,6.078,1.888,12.821,12.821,0,0,0,9.749-2.237,15.607,15.607,0,0,0,4.761-5.437c2.535-4.651,5.333-9.142,8.12-13.641a2.183,2.183,0,0,0,.474-1.081c-1.84.238-3.641.207-5.423.5a31.239,31.239,0,0,1-7.526-.325,4.884,4.884,0,0,0-3.108.6,40.559,40.559,0,0,1-18.667,5.061A41.786,41.786,0,0,1,31.082,80.7a42.1,42.1,0,0,1-3.931-2.035,3.622,3.622,0,0,0-2.242-.529,44.377,44.377,0,0,1-12.968-.043,1.363,1.363,0,0,0-.753.051,35.28,35.28,0,0,0,2.273,3.841,22.607,22.607,0,0,1,1.247,2.136c.585,1.347.242,2.333-.955,2.875"/>
        <path id="Path_210573" data-name="Path 210573" d="M59.438,100.7a14.048,14.048,0,0,1-5.48-1.5,15.4,15.4,0,0,0-14.263-.028,16.178,16.178,0,0,1-9.359,1.633c-5.049-.7-8.541-3.633-10.9-7.986-.725-1.337-1.606-1.85-3.041-1.481L13.752,87c1.128-1.084,1.234-1.819.4-3.191-1.261-2.065-2.546-4.116-3.9-6.3,4.25.6,8.362,1.1,12.459.446,2.481-.395,4.438.348,6.611,1.454a37.957,37.957,0,0,0,21.71,3.884A39.3,39.3,0,0,0,66.96,78.051a2.573,2.573,0,0,1,1.755-.315,52.662,52.662,0,0,0,8.436.486c.288-.109.64-.243.82.069.225.387-.068.747-.269,1.072-1.572,2.548-3.127,5.106-4.689,7.661s-2.768,5.316-4.585,7.711a17.038,17.038,0,0,1-7.5,5.644,2.645,2.645,0,0,1-1.495.317" fill="#d21129"/>
        <path id="Path_210574" data-name="Path 210574" d="M131.717,15.878a2.242,2.242,0,0,1,1.834,2.575c-.035,5.477-.009,10.953-.016,16.43,0,3.421-2.049,5.442-5.568,5.453-6.606.019-13.213.005-19.819.005-4.694,0-9.389.024-14.082-.019a1.727,1.727,0,0,0-1.855,1.2,18.968,18.968,0,0,1-8.542,9.157,3.433,3.433,0,0,1-4.016-.037,3.309,3.309,0,0,1-1.2-3.818,19.472,19.472,0,0,0,.335-5.315c-.015-.828-.348-1.191-1.173-1.174-1.043.021-2.088.042-3.129-.01a5.018,5.018,0,0,1-5.068-5.306q-.022-14.864,0-29.729A5.006,5.006,0,0,1,74.749,0q26.73-.01,53.459,0a5,5,0,0,1,5.327,5.28c.009,1.043-.032,2.088.011,3.129a2.225,2.225,0,0,1-1.312,2.326c-1.638.843-3.007-.587-2.987-2.224.01-.908-.011-1.817-.011-2.725,0-1.024-.47-1.522-1.5-1.489-.605.019-1.211-.031-1.817,0q-24.431.015-48.86.006c-.435,0-.869,0-1.3,0-1.776.027-2.056.27-2.059,2.046q-.03,13.81,0,27.622c0,1.685.394,2.06,2.072,2.128.65.027,1.3,0,1.954.012a5.089,5.089,0,0,1,5.339,5.174c.052,1.214.02,2.431.008,3.647a.782.782,0,0,0,.295.815,13.915,13.915,0,0,0,4.214-4.59,21.028,21.028,0,0,0,1.071-2.086A5.04,5.04,0,0,1,92.4,36.165c10.9-.036,21.809-.009,32.714-.014.869,0,1.736-.058,2.6-.076a1.333,1.333,0,0,0,1.463-1.454c.043-1.086.022-2.172.024-3.258.006-4.17,0-8.341.006-12.512a3.323,3.323,0,0,1,.677-2.448c.491-.521,1.047-.948,1.828-.525"/>
        <path id="Path_210575" data-name="Path 210575" d="M131.717,15.878c-1.662.344-2.089.857-2.091,2.571q-.006,8.019,0,16.037c0,1.7-.241,1.941-1.96,1.942q-16.753.01-33.507.014c-.608,0-1.216.019-1.823.029.279-.784.984-.6,1.542-.617,1.909-.051,3.82-.02,5.73-.02q12.111,0,24.222,0c1.938,0,1.982-.043,1.983-1.949q0-14.194,0-28.39a3.175,3.175,0,0,1,.162-1.536c4.188-.168,3.629-.136,3.649,3.427,0,.3,0,.607,0,.91.011,1.926.683,2.557,2.608,2.447a1.326,1.326,0,0,0-.541,1.227c.043,1.3.021,2.607.024,3.911" fill="#e7dbd8"/>
        <path id="Path_210576" data-name="Path 210576" d="M57.843,51.344c3.058-.865,5.99-.261,8.866.806,1.251.465,2.279.4,3.012-.85A17.866,17.866,0,0,1,73.9,54.228a2.3,2.3,0,0,0,.383,3.051,27.469,27.469,0,0,1,4.854,7.5,16.758,16.758,0,0,0,7,8.051,21.345,21.345,0,0,1-4.508.947c-3.7-2.017-5.788-5.325-7.533-9.017a22.847,22.847,0,0,0-11.17-11.548,18.975,18.975,0,0,0-4.041-1.438c-.37-.077-.8-.05-1.05-.426" fill="#d5132b"/>
        <path id="Path_210577" data-name="Path 210577" d="M57.843,51.344a19.631,19.631,0,0,1,9.876,4.508A25.121,25.121,0,0,1,74.7,65.216c1.573,3.307,3.44,6.3,6.835,8.027.285.144.189.33.1.53-9.871,1.446-19.108-.088-27.471-5.8a11.451,11.451,0,0,0-2.433-1.227,13.5,13.5,0,0,0-12.893,1.6,34.693,34.693,0,0,1-14.335,5.5,45.157,45.157,0,0,1-16.8-.857c-.046-.3.163-.388.345-.5a15.868,15.868,0,0,0,6-6.862c1.784-3.738,3.758-7.371,7.081-10.018,5.4-4.3,11.3-5.959,17.987-3.324,1.251.492,2.517.948,3.756,1.47a9.966,9.966,0,0,0,7.968-.031,29.849,29.849,0,0,1,7-2.378" fill="#fa2b3a"/>
        <path id="Path_210578" data-name="Path 210578" d="M31.988,76.086a50.206,50.206,0,0,0,9.9-5,9.136,9.136,0,0,1,10.11.144,45.051,45.051,0,0,0,9.622,4.845c-3.77,4.317-21.746,4.379-29.629.014" fill="#b11226"/>
        <path id="Path_210579" data-name="Path 210579" d="M59.438,100.7a20.683,20.683,0,0,0,7.8-5,27.05,27.05,0,0,0,3.421-5.177c2.137-3.862,4.471-7.6,6.805-11.344.294-.471.7-.927-.309-.948l5.923-.647c.18.48-.2.735-.385,1.035q-4.472,7.114-8.625,14.419c-2.919,5.128-7.234,8.11-13.368,7.9a2.029,2.029,0,0,1-1.258-.229" fill="#b90c29"/>
        <path id="Path_210580" data-name="Path 210580" d="M125.975,3.957a2.432,2.432,0,0,1,.259,1.511c0,9.771-.024,19.542.032,29.313.007,1.264-.423,1.482-1.557,1.478-10.249-.038-20.5-.025-30.746-.013-.544,0-1.135-.188-1.629.226a5.248,5.248,0,0,0-3.614,3.27,14.989,14.989,0,0,1-5.047,6.332c-.279.2-.575.386-.871.563-.064.038-.167.013-.32.02a28.006,28.006,0,0,0,.194-5.556,4.7,4.7,0,0,0-4.765-4.666c-1-.027-2-.02-3,0-1.065.019-1.6-.423-1.6-1.547q.02-14.723,0-29.444c0-1.005.387-1.535,1.459-1.533q25.6.035,51.2.048" fill="#f2e9e5"/>
        <path id="Path_210581" data-name="Path 210581" d="M101.545,18.227c6.166,0,12.332.009,18.5-.008,1.2,0,2.044.413,2.269,1.652a1.9,1.9,0,0,1-1.685,2.228,8.156,8.156,0,0,1-1.3.039H83.633c-.3,0-.609.014-.912,0a2.02,2.02,0,0,1-2.116-2.006,1.953,1.953,0,0,1,2.181-1.9q9.379-.02,18.759-.006"/>
        <path id="Path_210582" data-name="Path 210582" d="M92.584,15.194c-3.173,0-6.346.007-9.519,0-1.554-.005-2.433-.7-2.459-1.891-.027-1.247.893-2.012,2.5-2.014q9.585-.015,19.169,0c1.678,0,2.626.989,2.326,2.377-.256,1.185-1.116,1.539-2.237,1.534-3.26-.015-6.52-.005-9.78-.005" fill="#010101"/>
        <path id="Path_210583" data-name="Path 210583" d="M116.861,15.193c-1.128,0-2.257.026-3.384-.008a1.941,1.941,0,1,1-.075-3.878q3.447-.09,6.9-.005a1.946,1.946,0,1,1-.054,3.885c-1.127.032-2.256.007-3.384.006" fill="#010101"/>
        <path id="Path_210584" data-name="Path 210584" d="M85.777,28.991c-1.086,0-2.173.025-3.258-.007a1.925,1.925,0,0,1-.175-3.84c2.342-.089,4.692-.092,7.033,0a1.927,1.927,0,0,1-.212,3.84c-1.128.036-2.259.008-3.388.008" fill="#010101"/>
      </g>
    </g>
  </g>
</svg>
