<svg xmlns="http://www.w3.org/2000/svg" xmlns:xlink="http://www.w3.org/1999/xlink" width="103" height="103" viewBox="0 0 103 103">
  <defs>
    <clipPath id="clip-path">
      <rect id="Rectangle_338663" data-name="Rectangle 338663" width="78.827" height="68.244" fill="none"/>
    </clipPath>
  </defs>
  <g id="_18" data-name="18" transform="translate(667 7074)">
    <rect id="Rectangle_338660" data-name="Rectangle 338660" width="103" height="103" rx="11" transform="translate(-667 -7074)" fill="#3c3fa7"/>
    <g id="Group_983380" data-name="Group 983380" transform="translate(-655 -7057)">
      <g id="Group_983381" data-name="Group 983381" transform="translate(0 0)" clip-path="url(#clip-path)">
        <path id="Path_208698" data-name="Path 208698" d="M78.827,50.908a7.874,7.874,0,0,0-.45,2.046A19.534,19.534,0,0,1,74.6,60.913c-.561.705-.92.779-1.8.4-.632-.286-.657-.795-.468-1.351a4.577,4.577,0,0,1,.719-1.179,16.769,16.769,0,0,0-.476-20.514,16.388,16.388,0,0,0-11.146-6.195A16.7,16.7,0,0,0,43.611,42.96c-2.345,6.655-1.029,12.642,3.85,17.758a16.079,16.079,0,0,0,10.716,4.938,16.7,16.7,0,0,0,10.714-2.827,3.368,3.368,0,0,1,.8-.459c.59-.183,1.124-.162,1.428.5.349.92.243,1.29-.526,1.835a19.34,19.34,0,0,1-23.363-.8,2.617,2.617,0,0,0-1.793-.644c-13.135.021-26.271,0-39.405.025A5.594,5.594,0,0,1,.56,60.176a5.455,5.455,0,0,1-.552-2.529Q.006,38.022,0,18.4a1.349,1.349,0,0,1,1.178-1.529,1.156,1.156,0,0,1,1.339,1.205,17.168,17.168,0,0,1,.025,2c-.006.513.194.77.725.741.2-.011.411,0,.616,0H66.455c1.52,0,1.52,0,1.52-1.52,0-1.822,0-3.643,0-5.464a6.237,6.237,0,0,0-.254-1.823,2.711,2.711,0,0,0-2.489-1.96c-.59-.03-1.18,0-1.77-.01-.526-.01-.737.237-.728.749q.016.923,0,1.847a4.791,4.791,0,0,1-9.512.77,11.3,11.3,0,0,1-.177-2.527c.023-.566-.167-.856-.786-.846-1.282.022-2.566.018-3.848,0-.565-.007-.776.231-.766.783a12.371,12.371,0,0,1-.117,2.378,4.889,4.889,0,0,1-4.855,4.194,4.941,4.941,0,0,1-4.7-4.728c-.04-.641-.017-1.283-.014-1.924,0-.482-.21-.7-.7-.7q-2.078,0-4.156,0c-.485,0-.7.214-.693.7q.008.962,0,1.924A4.763,4.763,0,0,1,27.7,17.379a4.817,4.817,0,0,1-4.825-4.621c-.021-.641-.016-1.283,0-1.924.01-.537-.191-.805-.762-.8-1.36.012-2.72.005-4.079,0-.479,0-.706.2-.7.689,0,.641.009,1.282-.005,1.924a4.787,4.787,0,0,1-4.582,4.709,4.732,4.732,0,0,1-4.954-4.127,18.12,18.12,0,0,1-.158-2.453c.014-.513-.208-.758-.734-.743-.461.014-.923,0-1.385,0a2.8,2.8,0,0,0-2.945,2.726,4.809,4.809,0,0,1-.113.991,1.1,1.1,0,0,1-1.313.849A1.252,1.252,0,0,1,0,13.212,5.444,5.444,0,0,1,5.2,7.476,12.027,12.027,0,0,1,7.04,7.452c.677.054.96-.117.9-.864A15.4,15.4,0,0,1,8,4.131,4.552,4.552,0,0,1,12.558,0a4.6,4.6,0,0,1,4.513,4.2,26.877,26.877,0,0,1,.021,2.692c-.014.451.144.559.568.554,1.617-.021,3.233-.028,4.849,0,.51.011.591-.191.576-.632-.027-.794-.026-1.591.008-2.385a4.556,4.556,0,0,1,9.1-.152c.06.843.054,1.692.036,2.538-.01.443.082.64.585.631q2.424-.046,4.849,0c.468.008.552-.175.536-.583-.027-.692-.018-1.385-.005-2.078a4.6,4.6,0,1,1,9.193-.1c.029.743.024,1.489,0,2.232-.015.4.114.53.52.525,1.616-.021,3.233-.029,4.849,0,.51.01.587-.192.583-.632a26.587,26.587,0,0,1,.066-2.689A4.549,4.549,0,0,1,57.969,0a4.607,4.607,0,0,1,4.519,4.281c.054.869.046,1.745.015,2.615-.016.453.147.556.569.552a12.24,12.24,0,0,1,3.141.145c2.725.687,4.228,2.766,4.231,5.815q.009,9.313-.01,18.625a1.466,1.466,0,0,0,.632,1.35,19.084,19.084,0,0,1,7.075,10.411c.3,1.067.46,2.176.685,3.265Z" transform="translate(0 0)"/>
        <path id="Path_208699" data-name="Path 208699" d="M1.493,17.649c.905-.224,1.147-.517,1.177-1.429.075-2.255,1.267-3.41,3.538-3.427,2.061-.016,2.083-.016,2.058,2.069s.583,3.789,2.524,4.81a4.564,4.564,0,0,0,6.647-3.77c.048-.843.037-1.693.014-2.539-.011-.425.11-.587.558-.581,1.616.023,3.233.026,4.849,0,.5-.008.6.2.585.639-.025.769-.024,1.54.005,2.308a4.558,4.558,0,0,0,9.109.149c.05-.818.045-1.642.026-2.462-.011-.447.1-.642.6-.634,1.616.026,3.233.02,4.849,0,.395,0,.543.116.531.523-.024.794-.035,1.592.006,2.385a4.575,4.575,0,0,0,8.989,1.129,11.408,11.408,0,0,0,.188-3.291c-.011-.536.083-.776.7-.756,1.486.048,2.976.04,4.463,0,.584-.014.819.122.789.756a16.268,16.268,0,0,0,.058,2.612A4.563,4.563,0,0,0,62.839,16a24.533,24.533,0,0,0,.02-2.615c-.018-.487.154-.625.616-.6.665.037,1.335-.008,2,.029A2.972,2.972,0,0,1,68.435,15.6c.188,2.1.05,4.2.066,6.305,0,.686.3,1.574-.126,2.008-.458.472-1.361.151-2.065.152q-31.365.015-62.73.025c-.73,0-1.017-.15-.923-.913.069-.555-.009-1.128.019-1.691a1.354,1.354,0,0,0-1.141-1.568l-.041-2.264" transform="translate(-0.356 -3.042)" fill="#ed534f"/>
        <path id="Path_208700" data-name="Path 208700" d="M84.335,72.786a1.373,1.373,0,0,0-1.934,0,17.1,17.1,0,0,1-24.9-6.138A17.071,17.071,0,1,1,87.878,51.071c3.05,6.3,2.4,12.361-1.661,18.054-.745,1.043-.784,1.269-.2,2.105l-1.68,1.556" transform="translate(-13.216 -9.919)" fill="#4fc1f7"/>
        <path id="Path_208701" data-name="Path 208701" d="M8.7,48.072c1.666,0,3.332.017,5-.011.485-.008.669.1.666.628q-.033,4.921,0,9.841c0,.489-.162.591-.619.589q-5.075-.027-10.15,0c-.514,0-.572-.189-.571-.622q.023-4.92,0-9.841c0-.476.131-.606.6-.6,1.691.029,3.383.011,5.075.011" transform="translate(-0.72 -11.445)" fill="#cbcbcb"/>
        <path id="Path_208702" data-name="Path 208702" d="M26.521,59.11c-1.666,0-3.332-.016-5,.011-.46.007-.621-.1-.618-.59q.03-4.921,0-9.841c0-.526.185-.629.667-.626q5.036.029,10.073,0c.473,0,.6.124.6.6q-.03,4.921,0,9.841c0,.53-.176.625-.653.618-1.691-.026-3.383-.01-5.075-.01" transform="translate(-4.978 -11.445)" fill="#cbcbcb"/>
        <path id="Path_208703" data-name="Path 208703" d="M8.671,41.613c-1.666,0-3.332-.016-5,.01-.477.008-.657-.086-.653-.617q.04-4.882,0-9.765c0-.51.142-.632.638-.629q5.036.032,10.073,0c.53,0,.632.173.63.654-.018,3.229-.023,6.458,0,9.687,0,.555-.175.683-.7.673-1.665-.031-3.332-.011-5-.011" transform="translate(-0.719 -7.289)" fill="#cbcbcb"/>
        <path id="Path_208704" data-name="Path 208704" d="M26.617,41.612c-1.691,0-3.383-.022-5.075.013-.527.011-.638-.17-.635-.656q.027-4.843,0-9.688c0-.451.046-.679.61-.674q5.074.046,10.15,0c.5,0,.579.167.577.613q-.026,4.882,0,9.764c0,.5-.126.648-.633.638-1.665-.032-3.332-.012-5-.012" transform="translate(-4.979 -7.288)" fill="#cbcbcb"/>
        <path id="Path_208705" data-name="Path 208705" d="M44.5,41.611c-1.718,0-3.435-.014-5.153.01-.439.007-.556-.126-.554-.558q.025-4.96,0-9.92c0-.472.176-.532.581-.529,3.383.014,6.768.023,10.152-.007.56,0,.613.22.612.674q-.021,4.844,0,9.689c0,.491-.117.665-.639.654-1.665-.035-3.332-.014-5-.014" transform="translate(-9.237 -7.288)" fill="#cbcbcb"/>
        <path id="Path_208706" data-name="Path 208706" d="M26.582,76.589c-1.666,0-3.333-.012-5,.008-.459.005-.684-.06-.68-.616.027-3.281.021-6.563,0-9.844,0-.444.142-.556.569-.554q5.115.023,10.23,0c.456,0,.541.155.539.569-.014,3.281-.024,6.563.007,9.844,0,.56-.219.608-.67.6-1.666-.02-3.333-.008-5-.008" transform="translate(-4.978 -15.617)" fill="#cbcbcb"/>
        <path id="Path_208707" data-name="Path 208707" d="M8.652,65.59c1.691,0,3.383.021,5.073-.013.515-.01.642.147.638.644q-.03,4.842,0,9.685c0,.527-.131.7-.68.695-2.408-.029-4.818,0-7.226-.017a3.152,3.152,0,0,1-3.423-3.455c-.008-2.306.013-4.612-.014-6.918-.006-.5.131-.642.634-.633,1.665.032,3.331.012,5,.012" transform="translate(-0.72 -15.616)" fill="#cbcbcb"/>
        <path id="Path_208708" data-name="Path 208708" d="M49.119,76.549c-3.306.014-6.611.023-9.916.049-.373,0-.405-.174-.4-.47q.009-5.036,0-10.073c0-.373.114-.476.478-.472,2.2.026,4.407.03,6.611.041.408.648.209,1.395.316,2.09a23.135,23.135,0,0,0,2.689,7.862c.166.3.472.574.231.974" transform="translate(-9.238 -15.617)" fill="#c8c8c8"/>
        <path id="Path_208709" data-name="Path 208709" d="M38.841,58.976q.006-5.383.011-10.767c.21-.143.447-.075.672-.075q4.533-.008,9.066,0c.837,0,.9.1.467.859a23.613,23.613,0,0,0-2.839,8.388c-.235,1.68-.258,1.677-1.94,1.677-1.563,0-3.124,0-4.687,0a1.329,1.329,0,0,1-.75-.075" transform="translate(-9.249 -11.458)" fill="#cbcbcb"/>
        <path id="Path_208710" data-name="Path 208710" d="M56.772,30.684a17.671,17.671,0,0,1,2.672-.058c2.657-.014,5.313.005,7.97-.015.452,0,.634.085.606.581-.052.891-.031,1.786-.042,2.679a9.169,9.169,0,0,1-2.453.83,24.3,24.3,0,0,0-7.982,4.784,2.678,2.678,0,0,1-.357.29c-.342.214-.5.149-.5-.285.011-2.891-.008-5.783.013-8.675a.24.24,0,0,1,.072-.132" transform="translate(-13.499 -7.288)" fill="#cbcbcb"/>
        <path id="Path_208711" data-name="Path 208711" d="M53.16,9.307c0-1.255-.008-2.51,0-3.765a2.305,2.305,0,1,1,4.59-.015q.019,3.766,0,7.531a2.306,2.306,0,1,1-4.591.014c-.011-1.255,0-2.51,0-3.765" transform="translate(-12.658 -0.718)" fill="#666"/>
        <path id="Path_208712" data-name="Path 208712" d="M17.98,9.316c0,1.281.01,2.562,0,3.843a2.268,2.268,0,0,1-4.521.362,4.061,4.061,0,0,1-.063-.685c0-2.382-.019-4.765,0-7.146.017-1.848,1.3-2.961,2.884-2.558a2.183,2.183,0,0,1,1.694,2.189c.019,1.332,0,2.664.005,4" transform="translate(-3.187 -0.726)" fill="#666"/>
        <path id="Path_208713" data-name="Path 208713" d="M77.586,9.354c0,1.281.011,2.561,0,3.841a2.265,2.265,0,0,1-4.515.354A3.489,3.489,0,0,1,73,12.942c0-2.433-.013-4.866,0-7.3a2.407,2.407,0,0,1,1.358-2.392,2.136,2.136,0,0,1,2.312.255,2.2,2.2,0,0,1,.915,1.853q0,2,0,4" transform="translate(-17.382 -0.72)" fill="#666"/>
        <path id="Path_208714" data-name="Path 208714" d="M37.842,9.294c0,1.306.013,2.611,0,3.917a2.255,2.255,0,1,1-4.5.009q-.023-3.916,0-7.834a2.255,2.255,0,1,1,4.5-.009c.018,1.306,0,2.611,0,3.917" transform="translate(-7.935 -0.717)" fill="#666"/>
        <path id="Path_208715" data-name="Path 208715" d="M56.763,30.709v9.135c1.031-.822,1.942-1.629,2.932-2.322A20.259,20.259,0,0,1,67.97,33.9c.011,1.023.011,2.047.036,3.07a.461.461,0,0,1-.4.529,19.481,19.481,0,0,0-7.3,3.925.815.815,0,0,1-.555.216q-1.305-.01-2.612,0c-.257,0-.443-.032-.444-.363-.016-3.5-.077-7.007.026-10.509,0-.019.034-.037.053-.055" transform="translate(-13.491 -7.313)" fill="#b6b6b6"/>
        <path id="Path_208716" data-name="Path 208716" d="M85.8,30.7c.216.184.107.43.107.645.006,2.225-.017,4.45,0,6.675.005.587-.064.793-.7.494a18.774,18.774,0,0,0-9.926-1.672c-.565.053-.773-.038-.731-.652.062-.917.031-1.839.04-2.759a8.211,8.211,0,0,1,3.914-.309,22.385,22.385,0,0,1,6.432,1.306c.5.182.647-.012.64-.486q-.015-1.15,0-2.3A1.234,1.234,0,0,1,85.8,30.7" transform="translate(-17.753 -7.311)" fill="#b6b6b6"/>
        <path id="Path_208717" data-name="Path 208717" d="M51.334,76.552c-.418-.842-.859-1.674-1.249-2.529a19.585,19.585,0,0,1-1.986-8.4c.974-.009,1.947-.013,2.92-.032.288-.005.459.024.49.393a19.272,19.272,0,0,0,4,10.378c.025.032.012.093.021.186Z" transform="translate(-11.454 -15.62)" fill="#bfbfbf"/>
        <path id="Path_208718" data-name="Path 208718" d="M38.841,58.957c2.126,0,4.253-.008,6.378.011.472,0,.661-.105.692-.632a20.582,20.582,0,0,1,1.731-7.014A14.714,14.714,0,0,1,49.3,48.19H38.852c.1-.236.309-.13.465-.13,3.356,0,6.713.013,10.069-.011.6,0,.787.156.772.769-.042,1.688-.013,3.38-.017,5.072a2.841,2.841,0,0,1-.054.685,25.8,25.8,0,0,0-.769,4.145c-.025.288-.13.389-.425.389q-4.919-.008-9.838,0c-.109,0-.2-.024-.213-.153" transform="translate(-9.249 -11.439)" fill="#b6b6b6"/>
        <path id="Path_208719" data-name="Path 208719" d="M85.8,30.682c0,1.2-.019,2.407,0,3.609.005.481-.006.684-.616.456a23.122,23.122,0,0,0-6.164-1.372,31,31,0,0,0-4.42.037c-.009-.79-.011-1.581-.03-2.372-.006-.269.043-.424.369-.421,3.622.043,7.245-.069,10.866.062" transform="translate(-17.757 -7.29)" fill="#cbcbcb"/>
        <path id="Path_208720" data-name="Path 208720" d="M56.67,49.493c-.044-1.5-.044-1.5,1.031-1.367a3.5,3.5,0,0,1-1.031,1.367" transform="translate(-13.492 -11.447)" fill="#9a9a9a"/>
        <path id="Path_208721" data-name="Path 208721" d="M64.483,50.021c-.367-.969-.261-1.3.618-1.945a14.342,14.342,0,1,1-3.81,4.154c.43-.731.835-.846,1.763-.542a1.12,1.12,0,0,1,.462,1.631c-.334.83-.855,1.57-1.128,2.438a11.831,11.831,0,0,0,7.34,15.031A11.776,11.776,0,1,0,74.8,47.934a11.536,11.536,0,0,0-8.115,2.093,2.419,2.419,0,0,1-1.156.555.908.908,0,0,1-1.051-.561" transform="translate(-14.1 -10.797)"/>
        <path id="Path_208722" data-name="Path 208722" d="M70.392,71.836a11.214,11.214,0,0,1-6.841-5.872,11.579,11.579,0,0,1,.174-11.176c.392-.739.83-1.456.04-2.206l1.429-1.668a1.363,1.363,0,0,0,1.921-.031A10.031,10.031,0,0,1,70.7,49.09c.011.4-.337.481-.577.645a12.993,12.993,0,0,0-.371,21.334c.268.194.685.3.64.767" transform="translate(-14.811 -11.69)" fill="#e4e4e4"/>
        <path id="Path_208723" data-name="Path 208723" d="M71.01,71.652c-.577-.455-1.187-.875-1.728-1.371a13.239,13.239,0,0,1-3.418-15.142,12.616,12.616,0,0,1,5.176-5.981,1.921,1.921,0,0,0,.278-.252c5.6-1.988,12.4,1.235,14.632,6.934a11.978,11.978,0,0,1-9.516,16.385,10.156,10.156,0,0,1-5.424-.573" transform="translate(-15.43 -11.506)" fill="#fefefe"/>
        <path id="Path_208724" data-name="Path 208724" d="M82.127,64.326c-1.384,0-2.769.005-4.153,0-1.123-.005-1.52-.394-1.524-1.529q-.014-4.152,0-8.305c0-.975.434-1.481,1.186-1.466.711.014,1.106.475,1.111,1.363.011,2.307.023,4.614-.011,6.921-.008.568.124.737.714.728,2.2-.038,4.41-.017,6.614-.013a3.8,3.8,0,0,1,.763.051,1.06,1.06,0,0,1,.951,1.2,1.048,1.048,0,0,1-1.115,1.042c-1.512.021-3.025.006-4.538.006v.008" transform="translate(-18.204 -12.627)"/>
      </g>
    </g>
  </g>
</svg>
