<svg xmlns="http://www.w3.org/2000/svg" xmlns:xlink="http://www.w3.org/1999/xlink" width="103" height="103" viewBox="0 0 103 103">
  <defs>
    <clipPath id="clip-path">
      <rect id="Rectangle_338660" data-name="Rectangle 338660" width="78" height="77.959" fill="none"/>
    </clipPath>
  </defs>
  <g id="_19" data-name="19" transform="translate(-407 -2855)">
    <rect id="Rectangle_338661" data-name="Rectangle 338661" width="103" height="103" rx="11" transform="translate(407 2855)" fill="#3c3fa7"/>
    <g id="Group_983380" data-name="Group 983380" transform="translate(420 2868)">
      <g id="Group_983379" data-name="Group 983379" clip-path="url(#clip-path)">
        <path id="Path_208680" data-name="Path 208680" d="M41.951,77.959H36.019a39.343,39.343,0,0,1-5.324-.687A38.714,38.714,0,0,1,14,69.076,39.123,39.123,0,0,1,4.316,57.1,35.717,35.717,0,0,1,.161,43.044a41.415,41.415,0,0,1,1.047-14.1A39.358,39.358,0,0,1,8.957,14.013,38.653,38.653,0,0,1,20.994,4.281,35.875,35.875,0,0,1,36.181.074a56.473,56.473,0,0,1,7.508.1A36.913,36.913,0,0,1,54.735,3.134a37.606,37.606,0,0,1,10.09,6.428,39.2,39.2,0,0,1,8.542,10.6,38.563,38.563,0,0,1,4.42,13.268c.125.9.051,1.81.212,2.7v5.933a38.74,38.74,0,0,1-.689,5.316,38.723,38.723,0,0,1-8.178,16.679A39.484,39.484,0,0,1,59.027,72.7a38.177,38.177,0,0,1-14.451,5.061c-.87.119-1.756.047-2.625.2" transform="translate(0 0)"/>
        <path id="Path_208681" data-name="Path 208681" d="M41.734,31.838a21.7,21.7,0,0,0,4.493,6.707c.834.888,1.4.9,2.222.024a20.661,20.661,0,0,0,4.339-6.363c.175-.437.49-.452.835-.5,2.054-.3,4.113-.566,6.161-.893a2.226,2.226,0,0,0,2.1-2.52,2.889,2.889,0,0,1,1.612-3.057c.929-.557,1.75-1.294,2.63-1.936a1.53,1.53,0,0,0,.677-1.36c-.019-1.039.007-2.078-.009-3.117-.017-1.161-.753-1.653-1.818-1.21-1.235.513-2.46,1.051-3.776,1.616.175-1.677.338-3.277.508-4.876.058-.554.139-1.106.191-1.66a1.179,1.179,0,0,0-1.025-1.36,1.114,1.114,0,0,0-1.224,1.074c-.263,2.263-.534,4.528-.726,6.8-.065.776-.286,1.284-1.079,1.478a9.188,9.188,0,0,0-.912.372,1.515,1.515,0,0,0-.994,1.059c-.2.678-.44,1.345-.672,2.013a2.637,2.637,0,0,1-2.118,1.466c-.344-.009-.3-.292-.365-.485-.6-1.772-1.19-3.548-1.785-5.32-.351-1.045-.761-1.277-1.822-1.022-.763.184-1.521.38-2.28.58-.367.1-.514.023-.418-.4.171-.74.309-1.486.449-2.232a1.56,1.56,0,0,1,1.158-1.269c1.419-.457,2.827-.952,4.25-1.4a3.826,3.826,0,0,0,2.679-2.657c.476-1.52,1.017-3.019,1.493-4.538.155-.495.33-.609.839-.4A36.6,36.6,0,0,1,76.933,25.045a36.079,36.079,0,0,1,3.423,16.274c-.008.554-.152.775-.721.889-2.058.412-4.1.9-6.151,1.348-2.908.629-4.182,2.04-4.523,5.005-.188,1.635-.43,3.264-.593,4.9-.049.5-.255.562-.671.557q-2.129-.028-4.258,0c-1.123.012-1.566.626-1.243,1.688A6.948,6.948,0,0,0,62.629,57a2.4,2.4,0,0,1-.7,3.3c-.537-.8-1.1-1.638-1.654-2.474q-1.034-1.547-2.066-3.1c-.246-.371-.529-.749-1.01-.687-.534.068-.746-.2-.974-.6-1.341-2.381-2.7-4.749-4.059-7.122-.217-.38-.446-.74-.933-.812a1.079,1.079,0,0,0-1.135.446,1.14,1.14,0,0,0-.028,1.289q1.05,1.848,2.106,3.692c.79,1.384,1.563,2.779,2.379,4.148.217.365.165.537-.149.8-1.252,1.03-1.243,1.043-2.225-.267C50.4,53.239,48.6,50.883,46.856,48.49a4.044,4.044,0,0,0-3.626-1.8c-1.773.053-3.549.034-5.322,0a1.333,1.333,0,0,0-1.475.936,3.231,3.231,0,0,1-2.765,2.339,3.5,3.5,0,0,0-2.655,2.02,5.2,5.2,0,0,1-3.995,2.924c-1.014.192-2,.544-2.993.834-.255.075-.487.166-.632-.161-.6-1.341-1.847-1.978-3-2.692-.639-.4-.8-.739-.42-1.452,1.112-2.1,2.156-4.238,3.2-6.375.259-.53.536-.685,1.127-.475,1.762.629,3.544,1.2,5.321,1.782.912.3,1.254.176,1.795-.627.679-1.008,1.327-2.039,2.034-3.026a1.723,1.723,0,0,0,.17-1.847c-.469-1.092-.888-2.2-1.327-3.308a1.36,1.36,0,0,1-.026-.241c.728.176,1.437.313,2.124.523a1.916,1.916,0,0,0,1.847-.332c.932-.7,1.912-1.33,2.869-1.994.912-.632,1.009-.952.613-1.971a.315.315,0,0,1,.132-.392,8.775,8.775,0,0,1,1.883-1.315" transform="translate(-4.635 -1.49)" fill="#94d5a3"/>
        <path id="Path_208682" data-name="Path 208682" d="M38.545,31.07c-.556.705-1.456,1-2.013,1.706a1.386,1.386,0,0,0-1.866.06c-.576.451-1.262.775-1.795,1.268a2.2,2.2,0,0,1-2.486.423,5.679,5.679,0,0,0-1.178-.279,2.156,2.156,0,0,0-2.4,2.941c.383,1.07.809,2.124,1.258,3.167a.817.817,0,0,1-.1.9c-.456.635-.759,1.582-1.368,1.852s-1.448-.365-2.188-.6c-1.011-.323-2.013-.672-3.028-.979A2.646,2.646,0,0,0,18.206,42.8q-1.91,3.7-3.722,7.458a2.622,2.622,0,0,0,.907,3.362c.592.432,1.216.82,1.825,1.228a4.055,4.055,0,0,1,.436.3c.765.68.758.988-.044,1.6-1.087.825-2.18,1.641-3.271,2.461-.382.047-.526-.263-.7-.5a38.632,38.632,0,0,1-6.4-13.572,37.523,37.523,0,0,1-.973-11.83,33.717,33.717,0,0,1,3.788-13.806,2.457,2.457,0,0,0,.166-.341A33.564,33.564,0,0,1,17.4,11.293,35.9,35.9,0,0,1,35.375,3.444,36.778,36.778,0,0,1,50.714,4.512c.53.15.673.309.464.872-.544,1.467-1.036,2.955-1.492,4.452a1.83,1.83,0,0,1-1.328,1.307c-1.4.439-2.779.925-4.172,1.376a3.678,3.678,0,0,0-2.677,3c-.266,1.39-.576,2.772-.836,4.163-.243,1.309.389,1.89,1.672,1.574,1.006-.248,2.013-.494,3.014-.756.3-.079.516-.134.634.266.241.821.531,1.628.831,2.533a15.889,15.889,0,0,0-1.556-.428,5.989,5.989,0,0,0-6.9,7.468c.06.244.118.489.177.734" transform="translate(-1.445 -0.721)" fill="#dae9fe"/>
        <path id="Path_208683" data-name="Path 208683" d="M33.127,73.8a1.148,1.148,0,0,0-1.319-.978,3.643,3.643,0,0,0-.607.007c-1.873.4-3.133-.482-4.11-2.036,1.044-.306,2.1-.656,3.184-.925a5.675,5.675,0,0,0,3.808-2.782,4.084,4.084,0,0,1,2.933-2.228A3.55,3.55,0,0,0,39.769,62.5a.712.712,0,0,1,.812-.487q2.28.031,4.561,0a1.68,1.68,0,0,1,1.485.738c2.024,2.722,4.068,5.43,6.093,8.152.122.164.514.379.152.6-.391.242-.594.92-1.229.645-.485-.21-.94-.492-1.41-.738-.843-.442-1.511-.338-1.852.284s-.07,1.268.747,1.713c.488.266.981.525,1.47.789a2.456,2.456,0,0,0,2.958-.283c1.509-1.235,3.047-2.435,4.538-3.691.42-.354.582-.234.83.148q1.386,2.133,2.812,4.238a2.181,2.181,0,0,0,3.94-.033c1.755-2.728,1.868-1.916.9-5.243.975,0,1.935.018,2.892-.008.42-.011.429.21.426.52-.011.913.006,1.825-.005,2.737a3.569,3.569,0,0,0,1.594,3.105c.535.383,1.062.779,1.621,1.125.373.231.328.387.067.686a40.086,40.086,0,0,1-4.918,4.741.5.5,0,0,1-.77-.013q-1.015-.857-2.076-1.661a3.514,3.514,0,0,0-4.6.086c-.935.778-1.858,1.57-2.758,2.386a.763.763,0,0,1-.874.164Q52.9,81.75,48.628,80.319A1.508,1.508,0,0,1,47.5,78.96c-.142-1.129-.315-2.257-.541-3.372a3.491,3.491,0,0,0-3.513-2.869c-2.1,0-4.206.015-6.309.035a1.283,1.283,0,0,0-1.452,1.181,2.5,2.5,0,0,1-2.557-.132" transform="translate(-6.35 -14.538)" fill="#dae9fe"/>
        <path id="Path_208684" data-name="Path 208684" d="M31.188,76.818a9.706,9.706,0,0,0,2.557.132,1.387,1.387,0,0,0,1.63,1.11c1.9-.054,3.8-.036,5.7-.044,1.262-.005,1.622.31,1.8,1.536.145,1,.283,2.006.465,3a3.4,3.4,0,0,0,2.289,2.8c3.3,1.141,6.606,2.239,9.905,3.369a1.307,1.307,0,0,0,1.383-.361q1.608-1.394,3.223-2.78a1.363,1.363,0,0,1,2.088-.063c.5.389.979.8,1.468,1.2.023.37-.3.439-.523.569a26.414,26.414,0,0,1-5.658,2.186,37.971,37.971,0,0,1-28.1-2.939,39.556,39.556,0,0,1-9.742-7.314c-.376-.384-.86-.731-.854-1.367,1.21-.947,2.428-1.882,3.622-2.846.331-.267.476-.065.674.136.795.81,1.6,1.606,2.388,2.428a1.747,1.747,0,0,0,1.409.583c.958-.032,1.918-.011,2.876-.034s1.3-.351,1.4-1.3" transform="translate(-4.412 -17.552)" fill="#94d5a3"/>
        <path id="Path_208685" data-name="Path 208685" d="M17.868,78.762a31.068,31.068,0,0,0,7.516,6.631,35.869,35.869,0,0,0,9.762,4.594,39.835,39.835,0,0,0,7.319,1.44,38.654,38.654,0,0,0,6.593.088,35.876,35.876,0,0,0,11.423-2.706,7.222,7.222,0,0,0,2.262-1.181c.544.344-.011.433-.155.529A35.01,35.01,0,0,1,56.85,91.24a35.644,35.644,0,0,1-16,2.859A36.26,36.26,0,0,1,15.007,81.714c-.323-.358-.376-.557.067-.865.953-.664,1.865-1.388,2.794-2.087" transform="translate(-3.458 -18.463)" fill="#78c1a3"/>
        <path id="Path_208686" data-name="Path 208686" d="M9.51,24.093A22.655,22.655,0,0,1,8.25,27.246,42.141,42.141,0,0,0,6,36.008a37.076,37.076,0,0,0-.23,7.865,35.638,35.638,0,0,0,3.294,12.81,40.4,40.4,0,0,0,4.3,7.2,2.146,2.146,0,0,0,.271.255c-.951.749-1.914,1.484-2.85,2.253-.465.381-.553-.066-.716-.289A34.581,34.581,0,0,1,4.441,54.347a36.376,36.376,0,0,1,4.78-29.914,3.19,3.19,0,0,1,.289-.341" transform="translate(-0.734 -5.648)" fill="#c2dcfe"/>
        <path id="Path_208687" data-name="Path 208687" d="M86.753,65.45c-.533.192-.563-.092-.478-.656.253-1.676.427-3.362.659-5.041A2.4,2.4,0,0,1,88.9,57.617c.269-.067.538-.137.81-.191.42-.084.929-.334,1.239-.183s.062.736.119,1.128a1.139,1.139,0,0,0,2.251.11,2.358,2.358,0,0,0,.025-.377c.047-.5-.238-1.217.116-1.44a6.262,6.262,0,0,1,1.962-.51c.266-.059.276.1.252.309a35.679,35.679,0,0,1-1.8,7.887c-.1.281-.28.3-.517.323-2.16.248-4.32.508-6.6.778" transform="translate(-20.216 -13.16)" fill="#dae9fe"/>
        <path id="Path_208688" data-name="Path 208688" d="M74.664,24.606a1.563,1.563,0,0,1-.767,1.982c-1.154.773-2.228,1.665-3.355,2.481a1.454,1.454,0,0,0-.675,1.346c.029.606-.019,1.217.015,1.822.024.436-.1.628-.563.687-1.73.223-3.455.488-5.183.73-.234.032-.593.144-.545-.263s-.492-.939.184-1.236a8.408,8.408,0,0,1,1.144-.4,3.6,3.6,0,0,0,2.79-2.8,2.9,2.9,0,0,1,2.134-2.311c1.634-.582,3.2-1.344,4.822-2.04" transform="translate(-14.869 -5.768)" fill="#dae9fe"/>
        <path id="Path_208689" data-name="Path 208689" d="M92.712,70.387a36.737,36.737,0,0,1-3.758,6.556c-.18.253-.328.338-.593.107-.752-.658-1.944-.926-2.275-1.914-.39-1.168-.083-2.453-.135-3.686-.011-.24.143-.289.333-.312.125-.016.248-.051.373-.065,1.978-.226,3.957-.449,6.054-.686" transform="translate(-20.133 -16.5)" fill="#94d5a3"/>
        <path id="Path_208690" data-name="Path 208690" d="M55.859,40.826c-1.165,1.665-1.175,1.673-2.356.1a13.255,13.255,0,0,1-2.4-4.338,3.738,3.738,0,0,1,3.232-4.834,1.228,1.228,0,0,1,.812.073c-.007.363-.28.568-.478.821a3,3,0,0,0-.827,2.181c-.049.547-.038,1.094-.051,1.641a1.837,1.837,0,0,0,.446,1.158A8.416,8.416,0,0,0,55.5,40.175c.124.214.327.386.359.652" transform="translate(-11.942 -7.437)" fill="#e4646d"/>
        <path id="Path_208691" data-name="Path 208691" d="M54.584,34.784c-.325-.891.3-1.487.694-2.139a5.621,5.621,0,0,1,.7-.782,3.652,3.652,0,0,1,3.069,4.788,12.268,12.268,0,0,1-2.353,4.208,8.532,8.532,0,0,1-1.765-2.867c-.016-.035.072-.117.111-.177a.459.459,0,0,1,.185-.126,1.567,1.567,0,0,0,1.235-2.121,1.008,1.008,0,0,0-1.439-.841c-.143.041-.279.121-.435.057" transform="translate(-12.774 -7.469)" fill="#fe7f85"/>
        <path id="Path_208692" data-name="Path 208692" d="M86.482,23.118a1.173,1.173,0,0,1-.59,1.023,1.009,1.009,0,0,1-1.205-.059,13.765,13.765,0,0,1-1.493-1.5,1,1,0,0,1,.024-1.328.963.963,0,0,1,1.269-.361,5.373,5.373,0,0,1,1.9,1.886,1.192,1.192,0,0,1,.1.334" transform="translate(-19.446 -4.871)" fill="#010101"/>
        <path id="Path_208693" data-name="Path 208693" d="M36.445,37.138a1.717,1.717,0,0,1-1.608-2.545c.413-.782.881-1.535,1.364-2.275a1.1,1.1,0,0,0,.126-1.062c-.12-.331-.216-.673-.315-1.012a2.4,2.4,0,0,1,.427-2.286c1.182-1.485,2.356-2.977,3.546-4.456a1.177,1.177,0,0,1,1.713-.354,1.07,1.07,0,0,1,.071,1.724,2.45,2.45,0,0,0-.507,3.093c.666,1.688,1.176,3.438,1.742,5.165a1.8,1.8,0,0,1-1.413,2.627q-2.261.639-4.526,1.259c-.242.066-.494.1-.621.122" transform="translate(-8.115 -5.371)"/>
        <path id="Path_208694" data-name="Path 208694" d="M30.328,34.855a1.129,1.129,0,0,1-1.073-1.616,21.17,21.17,0,0,1,1.714-2.494,1.117,1.117,0,0,1,1.819,1.262c-.514.838-1.095,1.635-1.667,2.437a1.091,1.091,0,0,1-.793.41" transform="translate(-6.827 -7.112)" fill="#010101"/>
        <path id="Path_208695" data-name="Path 208695" d="M49.517,70.71a1.135,1.135,0,0,1-1.07-1.581,14.439,14.439,0,0,1,1.142-2.047,1.029,1.029,0,0,1,1.472-.306,1,1,0,0,1,.48,1.365,20.2,20.2,0,0,1-1.177,2.115,1.073,1.073,0,0,1-.848.455" transform="translate(-11.334 -15.611)" fill="#010101"/>
        <path id="Path_208696" data-name="Path 208696" d="M54.531,35.555a1.2,1.2,0,0,1,1.446-.263,1.272,1.272,0,0,1,.612,1.282c0,.226.006.452,0,.678-.039,1.076-.455,1.421-1.6,1.332a2.627,2.627,0,0,1-.453-3.03" transform="translate(-12.721 -8.24)" fill="#020101"/>
        <path id="Path_208697" data-name="Path 208697" d="M38.539,36.186c.017-.1.012-.132.026-.149a3.852,3.852,0,0,0,.622-4.538c-.207-.4-.1-.471.782-1.36.545,1.652,1.072,3.262,1.61,4.869.09.27-.026.36-.259.422-.918.244-1.834.5-2.781.755" transform="translate(-9.034 -7.065)" fill="#94d4a2"/>
      </g>
    </g>
  </g>
</svg>
