<svg xmlns="http://www.w3.org/2000/svg" xmlns:xlink="http://www.w3.org/1999/xlink" width="400" height="285.909" viewBox="0 0 400 285.909">
  <defs>
    <clipPath id="clip-path">
      <path id="Path_189400" data-name="Path 189400" d="M12.323,25.908h380c5.523,0,10,4.923,10,11V300.821c0,6.073-4.477,11-10,11h-380c-5.523,0-10-4.923-10-11V36.9c0-6.073,4.477-11,10-11" transform="translate(-2.323 -51.817)" fill="#a6bbff"/>
    </clipPath>
    <clipPath id="clip-path-2">
      <rect id="Rectangle_338666" data-name="Rectangle 338666" width="529.064" height="450.564" fill="none"/>
    </clipPath>
    <clipPath id="clip-path-3">
      <path id="Path_208849" data-name="Path 208849" d="M89.01,102s6.33,2.035,6.094-3.091a5.249,5.249,0,0,0-2.552-.786c-1.352,0-2.868.776-3.542,3.877" transform="translate(-89.01 -98.12)" fill="none"/>
    </clipPath>
  </defs>
  <g id="Group_983132" data-name="Group 983132" transform="translate(-2 0.001)">
    <g id="Group_176387" data-name="Group 176387">
      <path id="Path_189401" data-name="Path 189401" d="M12.323,25.908h380a10,10,0,0,1,10,10v240a10,10,0,0,1-10,10h-380a10,10,0,0,1-10-10v-240a10,10,0,0,1,10-10" transform="translate(-0.323)" fill="#6b8dfc"/>
      <g id="Mask_Group_335" data-name="Mask Group 335" transform="translate(2.001 25.908)" clip-path="url(#clip-path)">
        <g id="Group_176397" data-name="Group 176397" transform="matrix(-0.995, -0.105, 0.105, -0.995, 512.557, 575.058)">
          <g id="Group_176396" data-name="Group 176396" transform="translate(0)">
            <g id="Group_176395" data-name="Group 176395">
              <path id="Path_189395" data-name="Path 189395" d="M524.627,264.253c-39.52-39.759-80.242-78.175-121.687-115.967,18.936,39.074,39.2,77.613,57.278,117.051,20.5,44.719,44.715,105.509,23.421,150.527-48.541,102.614-187.747-6.307-239.646-61.333-5.534-5.858-10.828-11.959-16.19-18,19.6,43.445,37.5,87.987,35.365,133.9-2.944,63.124-61.283,75.726-113.413,44.04C93.768,480.435,47.5,423.792,8.675,372.49c-32.971-43.572,36.352-80.612,69.052-37.653a629.153,629.153,0,0,0,58.253,66.247q-4.772-8.157-9.628-16.294c-21.447-35.839-42.656-71.806-60.5-109.313C31.666,203.645-18.57,104.084,17.131,31.687,35.126-4.795,81.065-6.555,116.475,10.175c47.59,22.487,81.938,69.012,114.814,108.554,34.317,41.288,64.86,84.868,96.838,127.78,13.368,17.932,26.731,36.11,41.849,52.731.346.378.714.733,1.061,1.119l-.412-1.144c-9.094-24.83-20.436-48.772-31.9-72.781-21.341-44.663-48.388-91.884-57.62-139.876-8.168-42.432,7.06-88.913,58.7-83.582,48.538,5.009,89.4,52.631,123.138,84.717C503.81,126.556,544,166.128,584.2,205.655,626.172,246.917,566.132,306,524.627,264.253Z" transform="translate(7.938 7.805)" fill="#3c3fa7"/>
              <path id="Path_189396" data-name="Path 189396" d="M342.776,2.721c-19-.838-34.828,5.01-46,17.071-15.526,16.765-21.3,44.934-15.446,75.358,7.62,39.647,26.765,78.152,45.282,115.389,4.426,8.916,8.816,17.739,12.99,26.466,3.95,8.279,8.108,16.975,12.247,25.964-2.432-3.238-4.841-6.475-7.225-9.68l-2.367-3.173c-8.309-11.147-16.518-22.343-24.727-33.524-23.026-31.4-46.844-63.878-72.41-94.624q-5.6-6.748-11.283-13.715C204.5,72.437,171.248,31.836,127.283,11.059,88.08-7.442,37.952-4.949,17.948,35.631c-35.954,72.888,10.778,170.79,44.9,242.28l3.881,8.121c10.04,21.116,21.165,41.787,32.9,62.392q-3.972-5-7.829-10.054c-20.208-26.562-53.578-27.648-74.173-13.35-17.032,11.825-25.855,34.816-7.155,59.53C51.9,439.315,97.976,494.692,154,528.756c31.105,18.892,64.4,23.206,89.115,11.534,21.754-10.276,34.475-31.938,35.835-61.018,1.589-34.105-7.391-67.22-19.685-98.961,42.046,40.533,119.038,98.794,178.461,93.1,27.3-2.628,47.831-18.1,61.018-45.981,21.687-45.85.3-105.058-23.481-156.938-11.32-24.689-23.659-49.376-35.593-73.244l-4.224-8.445c33.73,31.322,63.954,60.453,91.744,88.406h0c13.74,13.83,30.659,19.427,47.6,15.8,18.6-3.992,33.974-18.99,38.251-37.339,3.938-16.829-1.6-33.676-15.606-47.441l-4.572-4.5C554.8,166.31,515.448,127.615,476.079,90.176c-4.852-4.617-9.843-9.549-15-14.634-30.61-30.228-68.711-67.858-113.212-72.45C346.145,2.916,344.456,2.8,342.776,2.721Zm36.49,312.836a7.046,7.046,0,0,0,3.754-.837,6.9,6.9,0,0,0,3.319-8.606l-.419-1.144c-9.532-26.029-21.573-51.251-32.2-73.5-4.209-8.807-8.643-17.716-13.111-26.711-18.018-36.235-36.647-73.7-43.856-111.169-4.892-25.447-.276-49.525,12.051-62.838,9.13-9.861,22.177-13.943,38.8-12.284,38.528,3.982,72.7,37.721,102.847,67.5,5.229,5.166,10.31,10.178,15.235,14.86,39.263,37.334,78.569,75.98,116.581,113.359l4.564,4.5c12.381,12.167,12.75,24.266,10.877,32.28-3.043,13.021-14.367,24.1-27.549,26.915-8.022,1.728-20.115,1.21-32.223-10.975h0c-35.9-36.106-75.807-74.139-122.006-116.275a8.069,8.069,0,0,0-9.907-1.023,7.228,7.228,0,0,0-2.184,9.288c7.155,14.774,14.5,29.464,21.843,44.161,11.873,23.742,24.143,48.3,35.35,72.732C483.314,324.38,503.517,379.5,484.4,419.914c-11.119,23.5-27.331,35.962-49.559,38.1-55.4,5.306-136.454-57.274-177.383-100.665-4.359-4.626-8.576-9.408-12.8-14.182l-3.2-3.627a8.2,8.2,0,0,0-10.107-1.98,7.19,7.19,0,0,0-2.744,9.371c18.679,41.376,36.738,85.532,34.654,130.265-1.119,23.978-10.777,40.933-27.928,49.036-20.013,9.442-47.65,5.532-73.957-10.449-53.491-32.51-98.225-86.378-138.606-139.747C10,359.176,16.8,345.3,27.412,337.929c14.373-9.977,37.517-10.2,52.115,8.984a639.062,639.062,0,0,0,59.078,67.178,8.081,8.081,0,0,0,10.283,1.194,7.313,7.313,0,0,0,1.754-9.793q-4.8-8.2-9.678-16.366c-21.717-36.29-42.653-71.906-60.119-108.6l-3.882-8.144C44.227,203.8-.6,109.865,32.2,43.361,48.131,11.045,89.206,9.634,121.543,24.9c40.355,19.061,70.89,56.349,100.414,92.4q5.73,7,11.366,13.811c25.226,30.338,48.877,62.588,71.761,93.778q12.339,16.83,24.794,33.634l2.366,3.166c12.543,16.847,25.512,34.267,40.028,50.222l.74.781A9.461,9.461,0,0,0,379.266,315.557Zm153.3-43.5.078,0Z"/>
            </g>
            <path id="Path_189397" data-name="Path 189397" d="M38.011,191.428C6.526,132.946-12.788,65.17,9.855,4.8,13.207-4.124,28.571.517,25.178,9.575,3.914,66.261,21.6,129.224,51.216,184.23,56.095,193.305,42.915,200.543,38.011,191.428Z" transform="translate(33.776 52.834)"/>
            <path id="Path_189398" data-name="Path 189398" d="M22.6,15.16c-.133.009-.256.043-.381.06-.2.415-.385.854-.45.975l-.029.045c-.013.061.009.023-.011.115-.858,3.4-1.431,6.869-2.035,10.343q-2.124,12.109-4.233,24.219c-.686,3.918-5.487,6.374-9.42,4.967a8.679,8.679,0,0,1-5.9-9.745L4.922,18.753C6.258,11.147,8.483,1.2,17.754.072c4-.479,8.7,1.424,9.9,5.826C28.68,9.668,26.889,14.64,22.6,15.16Z" transform="translate(65.718 67.073)"/>
            <path id="Path_189399" data-name="Path 189399" d="M30.963,185.618c-8.7,4.289-17.238-9.4-8.517-13.693,12.032-5.931,15.193-18.947,15.107-31.867C37.46,125.38,35.1,110.186,32.029,95.6A315.363,315.363,0,0,0,1.068,11.4c-4.887-9.076,8.3-16.313,13.2-7.2a330.861,330.861,0,0,1,34.847,99.09C54.065,131.31,60.269,171.18,30.963,185.618Z" transform="translate(417.662 241.447)"/>
          </g>
        </g>
        <g id="Group_983392" data-name="Group 983392" transform="translate(-41.186 -25.909)">
          <path id="Path_208725" data-name="Path 208725" d="M295.454,49.019l-5.81-1.47,5.389,7.42Z" transform="translate(63.349 10.4)" fill="#db7e65"/>
          <g id="Group_983387" data-name="Group 983387">
            <g id="Group_983386" data-name="Group 983386" clip-path="url(#clip-path-2)">
              <path id="Path_208726" data-name="Path 208726" d="M293.493,56.222c-.436-10.641,3.632-20.343,16.288-19.7,8.984.457,17.092,6.145,17.092,16.8s-8.289,17.128-17.284,17.128-15.595-1.979-16.1-14.225" transform="translate(64.184 7.982)" fill="#db7e65"/>
              <path id="Path_208727" data-name="Path 208727" d="M325.956,53.319c0-10.65-8.108-16.338-17.092-16.8-5-.255-8.638,1.121-11.21,3.514.115,2.656,1.633,5.381,8.594,2.158,0,0-2.522,10.942,9.027,11.48l-.746,7.048L316.7,68.6a16.482,16.482,0,0,0,9.256-15.283" transform="translate(65.101 7.982)" fill="#ffb6c8"/>
              <path id="Path_208728" data-name="Path 208728" d="M309.529,51.769c1.918-2.255,5.07-2.725,7.039-1.049s2.011,4.861.093,7.116-5.071,2.725-7.039,1.049-2.011-4.861-.093-7.116" transform="translate(67.389 10.874)" fill="#db7e65"/>
              <path id="Path_208729" data-name="Path 208729" d="M310.7,55.5a.622.622,0,0,1-.264-1.185l4.536-2.13a.622.622,0,1,1,.528,1.126l-4.535,2.129a.606.606,0,0,1-.264.06" transform="translate(67.817 11.401)"/>
              <path id="Path_208730" data-name="Path 208730" d="M313.087,56.867a.62.62,0,0,1-.545-.322l-1.133-2.055a.622.622,0,1,1,1.088-.6l1.135,2.055a.623.623,0,0,1-.545.923" transform="translate(68.092 11.716)"/>
              <path id="Path_208731" data-name="Path 208731" d="M295.093,49.117s4.225-6.675,9.652-.124c0,0-5.73,6.448-9.652.124" transform="translate(64.54 10.086)" fill="#fff"/>
              <path id="Path_208732" data-name="Path 208732" d="M300.389,50.808A3.393,3.393,0,1,1,300,46.026a3.392,3.392,0,0,1,.385,4.782" transform="translate(64.391 9.89)"/>
              <path id="Path_208733" data-name="Path 208733" d="M295.2,57.955a.622.622,0,0,1-.021-1.244c1.98-.068,4.1-2.1,4.128-2.124a.622.622,0,0,1,.867.892c-.1.1-2.487,2.391-4.953,2.476Z" transform="translate(64.429 11.9)"/>
              <path id="Path_208734" data-name="Path 208734" d="M302.284,45.177a.625.625,0,0,1-.335-.1c-2.533-1.62-3.9-1.025-3.912-1.02a.626.626,0,0,1-.825-.29.615.615,0,0,1,.268-.821c.2-.1,2.006-.921,5.139,1.083a.622.622,0,0,1-.335,1.146" transform="translate(64.99 9.338)"/>
              <path id="Path_208735" data-name="Path 208735" d="M431.265,299.442H295.79a2.942,2.942,0,0,1-2.938-2.938V265.461a2.941,2.941,0,0,1,2.938-2.937H431.265a2.941,2.941,0,0,1,2.938,2.937V296.5a2.942,2.942,0,0,1-2.938,2.938m-135.474-35.7a1.721,1.721,0,0,0-1.72,1.718V296.5a1.722,1.722,0,0,0,1.72,1.72H431.265a1.722,1.722,0,0,0,1.72-1.72V265.461a1.721,1.721,0,0,0-1.72-1.718Z" transform="translate(64.05 57.417)" fill="#5774cd"/>
              <path id="Path_208736" data-name="Path 208736" d="M327.99,67.587S337,67.2,352.954,85.7s44.293,60.982,1.142,62.91S327.99,67.587,327.99,67.587" transform="translate(71.009 14.782)" fill="#5774cd"/>
              <path id="Path_208737" data-name="Path 208737" d="M355.118,226.331l.628,39.608-22.979-.6-1.394-43.156Z" transform="translate(72.475 48.595)" fill="#db7e65"/>
              <path id="Path_208738" data-name="Path 208738" d="M359.94,243.777l4.681,23.457-53.727-.076-.16-8.415c-.089-4.679,2.847-8.845,6.905-9.8l18.737-4.418s11.266,4.826,17.407,4.07,6.157-4.816,6.157-4.816" transform="translate(67.961 53.317)" fill="#6c85d3"/>
              <path id="Path_208739" data-name="Path 208739" d="M326.338,127.139s-3.355,98.911,1.615,131.307c0,0,18.922,5.795,34.792.129l-6.036-134.513Z" transform="translate(71.132 27.134)" fill="#a6bbff"/>
              <path id="Path_208740" data-name="Path 208740" d="M343.263,231.073a56.708,56.708,0,0,1-15.334-1.872.457.457,0,0,1,.252-.879c14.1,4.044,32.526.163,32.711.126a.456.456,0,1,1,.193.892,95.66,95.66,0,0,1-17.822,1.733" transform="translate(71.65 49.933)"/>
              <path id="Path_208741" data-name="Path 208741" d="M337.9,226.331l.628,39.608-22.978-.6-1.4-43.156Z" transform="translate(68.709 48.595)" fill="#db7e65"/>
              <path id="Path_208742" data-name="Path 208742" d="M309.12,127.728s-3.355,98.911,1.615,131.306c0,0,18.922,5.8,34.792.129l-2.189-109.8,5.791-5.548-1.4-22.45Z" transform="translate(67.366 26.545)" fill="#a6bbff"/>
              <path id="Path_208743" data-name="Path 208743" d="M326.25,231.073a57.656,57.656,0,0,1-15.539-1.872.457.457,0,1,1,.252-.879c14.107,4.045,33.26.166,33.451.127a.457.457,0,1,1,.186.895,102.676,102.676,0,0,1-18.351,1.729" transform="translate(67.884 49.933)"/>
              <path id="Path_208744" data-name="Path 208744" d="M320.17,261.352a.458.458,0,0,1-.457-.444l-4.023-138.1a.457.457,0,0,1,.914-.026l4.023,138.1a.457.457,0,0,1-.444.47Z" transform="translate(69.045 26.756)"/>
              <path id="Path_208745" data-name="Path 208745" d="M334.3,268.931a.458.458,0,0,1-.457-.44l-.414-11.63a.457.457,0,0,1,.373-.466c4.629-.868,5.552-3.041,5.669-3.379l-2.145-107.588a.458.458,0,0,1,.141-.339l5.791-5.549a.457.457,0,0,1,.633.661l-5.648,5.41,2.142,107.459c-.039.23-.737,3.031-6.03,4.147l.4,11.24a.458.458,0,0,1-.44.474Z" transform="translate(72.924 30.492)"/>
              <path id="Path_208746" data-name="Path 208746" d="M342.557,243.777l4.681,23.457-53.726-.076-.161-8.415c-.088-4.679,2.847-8.845,6.905-9.8l18.736-4.418s11.266,4.826,17.407,4.07,6.157-4.816,6.157-4.816" transform="translate(64.159 53.317)" fill="#5774cd"/>
              <path id="Path_208747" data-name="Path 208747" d="M293.649,260.579a.457.457,0,0,1,0-.914l52.35-.524h0a.457.457,0,0,1,0,.914l-52.35.524Z" transform="translate(64.125 56.677)"/>
              <path id="Path_208748" data-name="Path 208748" d="M303.367,250.005a.457.457,0,0,1-.112-.9l16.42-4.152a.456.456,0,1,1,.223.885l-16.418,4.152a.45.45,0,0,1-.112.015" transform="translate(66.25 53.571)"/>
              <path id="Path_208749" data-name="Path 208749" d="M304.97,263.17a.455.455,0,0,1-.453-.4l-1.8-15.571a.455.455,0,0,1,.4-.506.444.444,0,0,1,.506.4l1.8,15.571a.455.455,0,0,1-.4.506.4.4,0,0,1-.052,0" transform="translate(66.208 53.953)"/>
              <path id="Path_208750" data-name="Path 208750" d="M225.577,27.071s12.183,10.292,11.65,14.476-15.972-6.356-15.972-6.356Z" transform="translate(48.391 5.921)" fill="#db7e65"/>
              <path id="Path_208751" data-name="Path 208751" d="M318.687,61.587,328.4,68.84l-17.1,1.473-7.277-4.08Z" transform="translate(66.493 13.47)" fill="#5774cd"/>
              <path id="Path_208752" data-name="Path 208752" d="M240.182,34.344,328.628,73s19.672-1.242,26.1,4.28C383.9,102.325,380.2,148.709,380.2,148.709l-55.917,4.216a142.587,142.587,0,0,1-9.065-42.546L228.485,57.025Z" transform="translate(49.973 7.511)" fill="#5774cd"/>
              <path id="Path_208753" data-name="Path 208753" d="M198.787,69.613l50.85-46.439a2.525,2.525,0,0,0-1.025-4.3L181.135.1a2.525,2.525,0,0,0-3.124,3.055l16.627,65.222a2.524,2.524,0,0,0,4.149,1.241" transform="translate(38.916 0)" fill="#fc5f65"/>
              <path id="Path_208754" data-name="Path 208754" d="M305.6,66.018a.457.457,0,0,1-.134-.893l11.7-3.6a.453.453,0,0,1,.572.3.459.459,0,0,1-.3.572L305.73,66a.432.432,0,0,1-.134.021" transform="translate(66.738 13.453)"/>
              <path id="Path_208755" data-name="Path 208755" d="M239.642,53.177a57.659,57.659,0,0,1-11.288-3.839c-4.2-2.139-16.54-9.018-16.54-9.018a2.015,2.015,0,0,1-.881-2.525,1.853,1.853,0,0,1,2.5-.916l8.175,3.759L242.484,44.2Z" transform="translate(46.099 8.026)" fill="#db7e65"/>
              <path id="Path_208756" data-name="Path 208756" d="M227.19,45.915l-16.048-9.125a2.14,2.14,0,0,1-.936-2.681,1.967,1.967,0,0,1,2.66-.974l8.681,3.991,8.674,5.493Z" transform="translate(45.938 7.205)" fill="#db7e65"/>
              <path id="Path_208757" data-name="Path 208757" d="M238.711,50.907,210.839,33.4a2.244,2.244,0,0,1-.981-2.812,2.064,2.064,0,0,1,2.79-1.02l9.1,4.184,20.862,8.078Z" transform="translate(45.861 6.423)" fill="#db7e65"/>
              <path id="Path_208758" data-name="Path 208758" d="M230.1,40.646l-16.826-9.567a2.245,2.245,0,0,1-.982-2.812,2.065,2.065,0,0,1,2.79-1.02s7.248,3.106,9.524,4.152c2.348,1.079,19.09,11.168,19.09,11.168Z" transform="translate(46.393 5.915)" fill="#db7e65"/>
              <path id="Path_208759" data-name="Path 208759" d="M225.6,36.853a.443.443,0,0,1-.206-.05l-13.4-6.782a.457.457,0,1,1,.413-.815l13.4,6.782a.457.457,0,0,1-.206.865" transform="translate(46.31 6.377)"/>
              <path id="Path_208760" data-name="Path 208760" d="M223.531,39.7a.457.457,0,0,1-.206-.049L211.1,33.464a.457.457,0,0,1,.413-.815l12.227,6.19a.457.457,0,0,1-.206.865" transform="translate(46.114 7.13)"/>
              <path id="Path_208761" data-name="Path 208761" d="M221.638,42.108a.457.457,0,0,1-.206-.049l-9.583-4.852a.457.457,0,0,1,.413-.815l9.582,4.85a.457.457,0,0,1-.206.865" transform="translate(46.279 7.949)"/>
              <path id="Path_208762" data-name="Path 208762" d="M330.745,72.874c-1.316.061-2.117.129-2.117.129l-88.446-38.66-11.7,22.683,86.733,53.352c-.108.118,6.274,2.468,6.274,2.468,4.931-.583,14.573-7.5,15.931-21.507.8-8.246-3.228-14.616-6.678-18.465" transform="translate(49.973 7.511)" fill="#5774cd"/>
              <path id="Path_208763" data-name="Path 208763" d="M38.167,376.12h71.2a3.317,3.317,0,0,0,3.317-3.317v-30.15a3.317,3.317,0,0,0-3.317-3.317h-71.2a3.318,3.318,0,0,0-3.317,3.317V372.8a3.318,3.318,0,0,0,3.317,3.317" transform="translate(7.622 74.217)" fill="#ffb6c8"/>
              <path id="Path_208764" data-name="Path 208764" d="M337.614,383.54l-17.1-82.341a3.438,3.438,0,0,1,2.667-4.066l26.211-5.444a3.44,3.44,0,0,1,4.066,2.668l17.1,82.341a3.438,3.438,0,0,1-2.667,4.066l-26.211,5.444a3.44,3.44,0,0,1-4.066-2.668" transform="translate(70.085 63.78)" fill="#5774cd"/>
              <path id="Path_208765" data-name="Path 208765" d="M163.53,292.407l-12.56,15.849L140.6,295.5l7.884-11.113Z" transform="translate(30.751 62.198)" fill="#efa189"/>
              <path id="Path_208766" data-name="Path 208766" d="M131.866,331.031l2.367,25.941-12.1,1.015L116.9,332.519Z" transform="translate(25.568 72.401)" fill="#efa189"/>
              <path id="Path_208767" data-name="Path 208767" d="M144.657,290.867l-15.088,8.608,25.305,33.663,4.7-3.451a8.391,8.391,0,0,0,2.651-10.274L155.251,304.3l-8.04-6.1Z" transform="translate(28.338 63.616)" fill="#5774cd"/>
              <path id="Path_208768" data-name="Path 208768" d="M100.385,212.052s-9.014,31.231-3,74.764S111.335,358.4,121.594,358.4s21.554.221,22.334-11.464c2.849-42.67-9.807-89.3-9.807-89.3s9.591,1.121,15.657,8.258,8.6,14.8,4.646,22.023c-4.967,9.07,5.489,13.513,6.232,14.1s14.863,11.9,21.563,6.363,26.358-30.842,11.547-51.22c-15.731-21.646-47.018-35.477-67.046-44.047s-26.335-1.06-26.335-1.06" transform="translate(20.847 45.713)" fill="#ffc849"/>
              <path id="Path_208769" data-name="Path 208769" d="M104.188,160.318l13.178-23.48s9.934-4.144,12.183-11.919-2.869-4.075-2.869-4.075-12.63-2.658-16.321-.119c-1.235.849-2.171,7.861-3.568,10.274-.937,1.618-12.2,18.713-12.2,18.713Z" transform="translate(20.688 26.164)" fill="#efa189"/>
              <path id="Path_208770" data-name="Path 208770" d="M164.373,168.868,161,142.156s-7.645-7.577-6.8-15.628,4.191-2.7,4.191-2.7,12.7,2.289,15.167,6.029c.824,1.253-.947,8.1-.559,10.864.26,1.851-.234,22.828-.234,22.828Z" transform="translate(33.71 26.702)" fill="#efa189"/>
              <path id="Path_208771" data-name="Path 208771" d="M99.906,212.052s6.307-7.508,26.335,1.06c1.386.592,2.823,1.227,4.3,1.894-7.928,1.322-24.33,4.395-33.034,8.423a112.526,112.526,0,0,1,2.4-11.377" transform="translate(21.325 45.713)" fill="#efa189"/>
              <path id="Path_208772" data-name="Path 208772" d="M109.376,130.7c3.939.085,14.794,1.789,12.159,8.958s-22.584,26.964-15.062,37c10.414,13.895,21.171,15.218,21.171,15.218l7.412,1.878s11.538,2.534,20.761-11.936c13.249-20.783,14.336-42.1,18.927-44.457,2.753-1.416,17.2-2.445,18.065,1.481.947,4.32,11.528,32-36.876,99.447-3.137,4.37-55.668-5.858-71.833-19.893l4.479-12.45s-13.165-22.031-7.786-43.179c4.4-17.306,19.028-32.274,28.584-32.066" transform="translate(17.388 28.586)" fill="#5774cd"/>
              <path id="Path_208773" data-name="Path 208773" d="M127.425,250.245a.457.457,0,0,1-.455-.417,5.941,5.941,0,0,1,1.49-4.875c2.348-2.437,6.527-2.253,6.7-2.239a.458.458,0,0,1,.433.48.442.442,0,0,1-.48.431c-.037,0-3.943-.171-6,1.966a5.065,5.065,0,0,0-1.236,4.156.456.456,0,0,1-.414.495.246.246,0,0,1-.041,0" transform="translate(27.762 53.083)"/>
              <path id="Path_208774" data-name="Path 208774" d="M134.388,345.834l7.785,21.123H113.807l-.377-4.567a11.1,11.1,0,0,1,9.324-11.873l.936-.147,9.748,2.369Z" transform="translate(24.8 75.638)" fill="#5774cd"/>
              <path id="Path_208775" data-name="Path 208775" d="M118.474,190.3a.457.457,0,0,1-.177-.035c-6.917-2.886-8.028-11.29-8.073-11.647a.457.457,0,0,1,.4-.509.463.463,0,0,1,.509.4c.01.083,1.094,8.236,7.518,10.916a.457.457,0,0,1-.177.879" transform="translate(24.107 38.954)"/>
              <path id="Path_208776" data-name="Path 208776" d="M117.98,173.2l-.4,9.791,10.394,4.318V175.261Z" transform="translate(25.716 37.882)" fill="#efa189"/>
              <path id="Path_208777" data-name="Path 208777" d="M122.665,187.949c-7.992-1.6-9.384-6.747-9.78-9.491a25.455,25.455,0,0,0,7.328,2.592l7.541,2.262s1.922.286,7.056-.581c-.834,2.5-5.144,6.618-12.146,5.219" transform="translate(24.689 39.031)" fill="#efa189"/>
              <path id="Path_208778" data-name="Path 208778" d="M148.253,200.924a.453.453,0,0,1-.391-.222L135.5,180.232a.457.457,0,1,1,.781-.473l12.361,20.473a.456.456,0,0,1-.39.692" transform="translate(29.621 39.267)"/>
              <path id="Path_208779" data-name="Path 208779" d="M91.1,188.932a.458.458,0,0,1-.312-.792l15.548-14.5a.457.457,0,1,1,.624.669l-15.548,14.5a.453.453,0,0,1-.312.124" transform="translate(19.825 37.95)"/>
              <path id="Path_208780" data-name="Path 208780" d="M122.356,352.625l-3.007-4.354a2.164,2.164,0,0,1,1.489-3.375l4.44-.6a2.164,2.164,0,0,1,2.431,2.468l-.992,6.555Z" transform="translate(26.019 75.297)" fill="#5774cd"/>
              <path id="Path_208781" data-name="Path 208781" d="M149.158,301.858l4.476-3.091A2.224,2.224,0,0,1,157.1,300.3l.62,4.564a2.224,2.224,0,0,1-2.536,2.5l-6.738-1.019Z" transform="translate(32.467 65.257)" fill="#5774cd"/>
              <path id="Path_208782" data-name="Path 208782" d="M128.406,352.215a.343.343,0,0,1-.206-.068c-3.154-2.323-8.474-2.522-8.527-2.523a.348.348,0,0,1-.336-.36.339.339,0,0,1,.358-.338c.227.007,5.588.206,8.919,2.659a.349.349,0,0,1-.207.629" transform="translate(26.1 76.315)"/>
              <path id="Path_208783" data-name="Path 208783" d="M127.337,353.277a.343.343,0,0,1-.206-.068c-3.154-2.323-8.474-2.52-8.527-2.523a.348.348,0,0,1-.336-.36.343.343,0,0,1,.358-.338c.227.007,5.588.206,8.919,2.659a.349.349,0,0,1-.207.629" transform="translate(25.866 76.547)"/>
              <path id="Path_208784" data-name="Path 208784" d="M140.7,360.182H113.487a.349.349,0,1,1,0-.7H140.7a.349.349,0,1,1,0,.7" transform="translate(24.745 78.624)"/>
              <path id="Path_208785" data-name="Path 208785" d="M134.682,168.646a3.678,3.678,0,1,1-1.653,5.225,3.886,3.886,0,0,1,1.653-5.225" transform="translate(28.994 36.748)" fill="#efa189"/>
              <path id="Path_208786" data-name="Path 208786" d="M117.491,163.077a3.678,3.678,0,1,0-3.16,4.478,3.887,3.887,0,0,0,3.16-4.478" transform="translate(24.101 34.868)" fill="#efa189"/>
              <path id="Path_208787" data-name="Path 208787" d="M114.494,165.009a.56.56,0,0,1-.478-.267l-2.01-3.262a.561.561,0,1,1,.954-.589l2.01,3.264a.56.56,0,0,1-.477.854" transform="translate(24.479 35.131)"/>
              <path id="Path_208788" data-name="Path 208788" d="M112.118,164.525a.56.56,0,0,1-.253-1.06l1.629-.825a.56.56,0,0,1,.507,1l-1.632.825a.548.548,0,0,1-.251.061" transform="translate(24.399 35.558)"/>
              <path id="Path_208789" data-name="Path 208789" d="M140.08,173.5c3.5-8.408-.3-15.263-7.184-18.058s-14.639-.551-17.741,7.937c-2.966,8.117.378,15.082,7.184,18.058,8.212,3.594,14.761-.785,17.741-7.937" transform="translate(24.948 33.749)" fill="#efa189"/>
              <path id="Path_208790" data-name="Path 208790" d="M128.065,168.245a.56.56,0,0,1-.552-.472l-.484-3.03-1.945,1.172a.561.561,0,1,1-.579-.96l2.658-1.6a.56.56,0,0,1,.842.392l.614,3.85a.563.563,0,0,1-.555.648" transform="translate(27.171 35.71)"/>
              <path id="Path_208791" data-name="Path 208791" d="M124.828,165.692s-.6-9.089-7.112-6.211c0,0,.183,8.436,7.112,6.211" transform="translate(25.746 34.757)" fill="#fff"/>
              <path id="Path_208792" data-name="Path 208792" d="M128.852,166.705s6.553-5.567,8.834,1.181c0,0-5.793,5.432-8.834-1.181" transform="translate(28.182 35.988)" fill="#fff"/>
              <path id="Path_208793" data-name="Path 208793" d="M134.913,163.66a.557.557,0,0,1-.4-.165,4.452,4.452,0,0,0-3.343-1.057.561.561,0,0,1-.144-1.113,5.522,5.522,0,0,1,4.279,1.377.561.561,0,0,1-.4.957" transform="translate(28.551 35.278)"/>
              <path id="Path_208794" data-name="Path 208794" d="M125.813,171.981a5.561,5.561,0,0,1-4.654-2.855.561.561,0,0,1,1-.511,4.253,4.253,0,0,0,5.236,1.974.56.56,0,1,1,.349,1.065,6.153,6.153,0,0,1-1.928.327" transform="translate(26.486 36.812)"/>
              <path id="Path_208795" data-name="Path 208795" d="M125.313,159.47a.56.56,0,0,1-.438-.21,4.443,4.443,0,0,0-4.492-1.247.56.56,0,1,1-.26-1.09,5.557,5.557,0,0,1,5.627,1.637.56.56,0,0,1-.438.909" transform="translate(26.178 34.281)"/>
              <path id="Path_208796" data-name="Path 208796" d="M138.363,164.587c-5.117-2.844-10.081-8.23-11.753-10.14a15.524,15.524,0,0,1,3.543.968,13.03,13.03,0,0,1,8.21,9.172" transform="translate(27.691 33.779)"/>
              <path id="Path_208797" data-name="Path 208797" d="M119.366,162.576a3.319,3.319,0,1,0,3.319-3.319,3.318,3.318,0,0,0-3.319,3.319" transform="translate(26.107 34.831)"/>
              <path id="Path_208798" data-name="Path 208798" d="M130.284,166.882a3.319,3.319,0,1,0,3.319-3.319,3.318,3.318,0,0,0-3.319,3.319" transform="translate(28.495 35.773)"/>
              <path id="Path_208799" data-name="Path 208799" d="M129.956,157.163s4.268,1.43,5.8.544,2.38-4.62.632-5.45c-1.122-.535-2.286-.389-3.763,1.441-1.114,1.38-2.673,3.466-2.673,3.466" transform="translate(28.423 33.241)"/>
              <path id="Path_208800" data-name="Path 208800" d="M131.923,157.05s2.677,3.86,4.514,4.077,4.875-2.376,3.933-4.163c-.606-1.147-1.671-1.751-4.047-1.144-1.793.458-4.4,1.231-4.4,1.231" transform="translate(28.853 34.027)"/>
              <path id="Path_208801" data-name="Path 208801" d="M116.95,158.989a12.392,12.392,0,0,1,12.718-4.35,32.466,32.466,0,0,0-12.718,4.35" transform="translate(25.578 33.749)"/>
              <path id="Path_208802" data-name="Path 208802" d="M111.832,137.426l96.251-5.691c1.477-.088,2.631-.662,2.579-1.283l-2.117-24.936c-.052-.622-1.292-1.054-2.769-.966l-96.251,5.69c-1.477.088-2.631.662-2.579,1.283l2.117,24.937c.052.62,1.292,1.054,2.769.966" transform="translate(23.39 22.864)" fill="#ffb6c8"/>
              <path id="Path_208803" data-name="Path 208803" d="M404.082,386.521a46.852,46.852,0,1,1,46.851-46.852,46.9,46.9,0,0,1-46.851,46.852m0-92.484a45.633,45.633,0,1,0,45.632,45.632,45.683,45.683,0,0,0-45.632-45.632" transform="translate(78.131 64.043)" fill="#ffc849"/>
              <path id="Path_208804" data-name="Path 208804" d="M193.542,268.683a50.037,50.037,0,1,1,50.037,50.037,50.037,50.037,0,0,1-50.037-50.037" transform="translate(42.33 47.821)" fill="#5774cd"/>
              <path id="Path_208805" data-name="Path 208805" d="M227.94,197.97a2.6,2.6,0,0,1-2.593-2.467l-3.172-60.921a2.6,2.6,0,0,1,2.461-2.732l54.133-2.819a2.583,2.583,0,0,1,2.734,2.462l3.172,60.921a2.6,2.6,0,0,1-2.461,2.734l-54.133,2.819c-.046,0-.094,0-.14,0m-4.549-63.451,3.174,60.921a1.361,1.361,0,0,0,.456.954,1.324,1.324,0,0,0,1,.355l54.133-2.819a1.385,1.385,0,0,0,1.309-1.453l-3.172-60.922a1.4,1.4,0,0,0-1.453-1.306L224.7,133.067a1.384,1.384,0,0,0-1.309,1.452" transform="translate(48.592 28.22)" fill="#fd521b"/>
              <path id="Path_208806" data-name="Path 208806" d="M58.708,306.037A26.307,26.307,0,1,1,85.015,279.73a26.337,26.337,0,0,1-26.307,26.307m0-51.394A25.088,25.088,0,1,0,83.8,279.73a25.115,25.115,0,0,0-25.088-25.087" transform="translate(7.087 55.427)" fill="#ffc849"/>
              <path id="Path_208807" data-name="Path 208807" d="M243.191,192.627l-32.75-65.135a4.5,4.5,0,0,0-7.326-1.037l-65.059,70.229a4.5,4.5,0,0,0,3.538,7.555l97.809-5.093a4.5,4.5,0,0,0,3.788-6.519" transform="translate(29.93 27.342)" fill="#fc5f65"/>
              <path id="Path_208808" data-name="Path 208808" d="M156.743,190.3,271.1,184.34a3.233,3.233,0,0,1,3.4,3.061l1.767,33.934a3.235,3.235,0,0,1-3.061,3.4l-114.362,5.955a3.233,3.233,0,0,1-3.4-3.06l-1.767-33.934a3.234,3.234,0,0,1,3.061-3.4" transform="translate(33.611 40.316)" fill="#ffb6c8"/>
              <path id="Path_208809" data-name="Path 208809" d="M130.815,93.238c-.921-2.267,3.91-6.307,6.2-7.214L164.383,75.2a2.315,2.315,0,0,1,3.176,2.2,2.514,2.514,0,0,1-1.415,2.2L151.558,86.72a124.86,124.86,0,0,0-16.382,10.955Z" transform="translate(28.586 16.41)" fill="#efa189"/>
              <path id="Path_208810" data-name="Path 208810" d="M148.216,87a.457.457,0,0,1-.2-.869l12.726-6.147a1.9,1.9,0,0,0,.943-2.39,1.871,1.871,0,0,0-1-1.032,1.9,1.9,0,0,0-1.45-.018l-15.415,6.1a.457.457,0,0,1-.338-.849l15.415-6.1a2.8,2.8,0,0,1,2.147.029,2.767,2.767,0,0,1,1.494,1.534,2.812,2.812,0,0,1-1.4,3.549l-12.725,6.148a.463.463,0,0,1-.2.045" transform="translate(31.317 16.512)"/>
              <path id="Path_208811" data-name="Path 208811" d="M147.042,87.52a.457.457,0,0,1-.2-.869l7.413-3.579a1.6,1.6,0,0,0,.829-1.735,2.331,2.331,0,0,0-1.152-1.645,2,2,0,0,0-1.726-.134L136.6,85.732a.457.457,0,1,1-.336-.849l15.608-6.175a2.923,2.923,0,0,1,2.508.185,3.241,3.241,0,0,1,1.606,2.286,2.522,2.522,0,0,1-1.332,2.717l-7.412,3.579a.463.463,0,0,1-.2.045" transform="translate(29.739 17.171)"/>
              <path id="Path_208812" data-name="Path 208812" d="M188.2,84.263l-47.916,19.257a3.234,3.234,0,0,1-4.206-1.794L104.73,23.716a3.234,3.234,0,0,1,1.8-4.206L154.44.253a3.233,3.233,0,0,1,4.206,1.794L190,80.057a3.232,3.232,0,0,1-1.794,4.206" transform="translate(22.855 0.004)" fill="#3c3fa7"/>
              <path id="Path_208813" data-name="Path 208813" d="M115.948,39.138l-1.806-8.921a2.15,2.15,0,0,0-2.444-1.7,1.519,1.519,0,0,0-1.272,1.673L112.29,46.5l.151,13.182,7.093.049Z" transform="translate(24.149 6.232)" fill="#efa189"/>
              <path id="Path_208814" data-name="Path 208814" d="M114.414,42.146l-2.328-9.12a1.835,1.835,0,0,0-3.585.771l2.63,15.888.813,13.157,7.086-.306Z" transform="translate(23.725 6.923)" fill="#efa189"/>
              <path id="Path_208815" data-name="Path 208815" d="M114.777,45.623l-2.458-9.085a1.826,1.826,0,0,0-2.164-1.3,1.845,1.845,0,0,0-1.41,2.127s2.263,11.867,2.858,15.849c.734,4.918-6.036,14.253-6.036,14.253l13.034-6Z" transform="translate(23.089 7.696)" fill="#efa189"/>
              <path id="Path_208816" data-name="Path 208816" d="M113.769,47.339a.456.456,0,0,1-.447-.366l-3.044-14.99a.457.457,0,1,1,.9-.183l3.044,14.99a.458.458,0,0,1-.357.54.464.464,0,0,1-.091.009" transform="translate(24.117 6.875)"/>
              <path id="Path_208817" data-name="Path 208817" d="M111.509,46.789a.457.457,0,0,1-.444-.352l-2.5-10.546a.457.457,0,0,1,.888-.211l2.5,10.547a.456.456,0,0,1-.339.55.45.45,0,0,1-.106.012" transform="translate(23.741 7.727)"/>
              <path id="Path_208818" data-name="Path 208818" d="M118.3,40.488l-1.749-8.639a2.45,2.45,0,0,0-2.785-1.933,1.219,1.219,0,0,0-1.021,1.343l1.9,16.6-2.561,11.528,8.039-4.092Z" transform="translate(24.513 6.536)" fill="#efa189"/>
              <path id="Path_208819" data-name="Path 208819" d="M115.357,72.352s9.752-15.11,8.77-21.492c-.673-4.368-1.837-9.456-2.5-12.232a2.331,2.331,0,0,0-4.574.868l1.18,8.614L105.566,67.1Z" transform="translate(23.089 8.059)" fill="#efa189"/>
              <path id="Path_208820" data-name="Path 208820" d="M116.257,48.643a.456.456,0,0,1-.452-.395l-1.182-8.614a2.8,2.8,0,0,1,2.348-3.136.457.457,0,0,1,.136.9,1.878,1.878,0,0,0-1.578,2.107l1.18,8.614a.458.458,0,0,1-.391.516.5.5,0,0,1-.061,0" transform="translate(25.064 7.982)"/>
              <path id="Path_208821" data-name="Path 208821" d="M115.129,48.459a.458.458,0,0,1-.452-.391L112.253,31.4a1.677,1.677,0,0,1,1.4-1.861.461.461,0,0,1,.523.38.456.456,0,0,1-.38.523.762.762,0,0,0-.637.84l2.423,16.654a.458.458,0,0,1-.386.518.424.424,0,0,1-.067,0" transform="translate(24.549 6.46)"/>
              <path id="Path_208822" data-name="Path 208822" d="M42.118,197.892,42.156,305.8l16.077.47,2.882-108.8Z" transform="translate(9.212 43.19)" fill="#efa189"/>
              <path id="Path_208823" data-name="Path 208823" d="M42.272,250.757,41.5,294.15l16.077.472,2.266-43.351Z" transform="translate(9.076 54.844)" fill="#fd521b"/>
              <path id="Path_208824" data-name="Path 208824" d="M42.04,275.119l-1.993,15.792,38.588-.023.055-5.34a7.688,7.688,0,0,0-6.07-7.6l-14.909-3.206-8.894,2.535Z" transform="translate(8.759 60.09)" fill="#5774db"/>
              <path id="Path_208825" data-name="Path 208825" d="M78.616,285.12h-.007l-37.99-.927a.3.3,0,0,1,.015-.595l37.99.927a.3.3,0,0,1-.007.595" transform="translate(8.82 62.026)"/>
              <path id="Path_208826" data-name="Path 208826" d="M48.023,196.205,60.552,303.176l15.968-1.929L69.5,192.483Z" transform="translate(10.503 42.098)" fill="#efa189"/>
              <path id="Path_208827" data-name="Path 208827" d="M89.639,147.533l-1.166,74.642L16.4,207.986s23.81-58.022,39.848-74.06Z" transform="translate(3.586 29.291)" fill="#5774cd"/>
              <path id="Path_208828" data-name="Path 208828" d="M43.349,142.706l40.3,16.606.194-12.388-33.49-13a62.843,62.843,0,0,0-7,8.78" transform="translate(9.481 29.291)" fill="#efa189"/>
              <path id="Path_208829" data-name="Path 208829" d="M62.189,215.823h-.026a.457.457,0,0,1-.431-.481l3.6-65.11a.457.457,0,1,1,.913.05l-3.6,65.11a.457.457,0,0,1-.456.433" transform="translate(13.501 32.763)" fill="#fff"/>
              <path id="Path_208830" data-name="Path 208830" d="M66.738,165.123a13.9,13.9,0,0,1-2.274-.2.457.457,0,1,1,.15-.9,9.422,9.422,0,0,0,7.5-1.52c3.8-2.862,4.482-8.418,4.489-8.474a.458.458,0,0,1,.909.1c-.028.244-.729,5.994-4.843,9.1a9.583,9.583,0,0,1-5.925,1.891" transform="translate(14.015 33.6)" fill="#fff"/>
              <path id="Path_208831" data-name="Path 208831" d="M128.843,67.73,83.625,124.06,65.392,111.342l49.351-55Z" transform="translate(14.302 12.323)" fill="#ffc849"/>
              <path id="Path_208832" data-name="Path 208832" d="M74.625,111.725A13.713,13.713,0,0,1,99,99.158c3.406,6.6,3.829,13.648-2.9,17.118s-18.064,2.054-21.47-4.552" transform="translate(15.999 20.106)" fill="#efa189"/>
              <path id="Path_208833" data-name="Path 208833" d="M167.808,98.531l-60.025,44.226L100.3,166.863s-31.548-9.034-58.71-22.1c0,0,8.7-22.552,31.047-40.944l23.544,14.763s5.056-2.48,16.316-8.8,42.782-26.9,42.782-26.9Z" transform="translate(9.095 18.127)" fill="#ffc849"/>
              <path id="Path_208834" data-name="Path 208834" d="M94.121,100.436l4.343-1.962-2.732,6.8Z" transform="translate(20.585 21.537)" fill="#efa189"/>
              <path id="Path_208835" data-name="Path 208835" d="M97.511,93.319s-.233,4.245-6.955,12.744l2.3,5.677L80.241,146.58l-19.93-11.767,6.807-8.277-9.681,3.721-5.154-13.941S79.731,94.209,87.154,92.38s10.357.938,10.357.938" transform="translate(11.435 20.068)" fill="#5774cd"/>
              <path id="Path_208836" data-name="Path 208836" d="M53.932,255.12l5.327,35.258,15.968-1.928L72.122,251Z" transform="translate(11.796 54.896)" fill="#fd521b"/>
              <path id="Path_208837" data-name="Path 208837" d="M92.3,128.43a.454.454,0,0,1-.327-.138c-4.943-5.073-4.577-14.727-4.559-15.136a.447.447,0,0,1,.477-.436.459.459,0,0,1,.436.478c0,.1-.364,9.669,4.3,14.456a.457.457,0,0,1-.328.776" transform="translate(19.116 24.653)"/>
              <path id="Path_208838" data-name="Path 208838" d="M49.023,202.366,59.1,291.042a.3.3,0,0,0,.294.251.308.308,0,0,0,.046,0,.3.3,0,0,0,.247-.339l-10.05-88.508c-.206-.021-.409-.05-.613-.077" transform="translate(10.722 44.26)"/>
              <path id="Path_208839" data-name="Path 208839" d="M56.732,275.827l1.678,15.757,37.383-8.842-1.166-5.187a7.653,7.653,0,0,0-7.617-5.97l-15.179.3-8.039,4.489Z" transform="translate(12.408 59.398)" fill="#5774cd"/>
              <path id="Path_208840" data-name="Path 208840" d="M57.718,285.581a.3.3,0,0,1-.061-.587l37.021-7.784a.3.3,0,0,1,.352.23.3.3,0,0,1-.229.351l-37.022,7.784a.333.333,0,0,1-.061.006" transform="translate(12.559 60.628)"/>
              <path id="Path_208841" data-name="Path 208841" d="M68.16,274.243l-.947-4.87a2.029,2.029,0,0,1,2.547-2.339l4.041,1.149a2.03,2.03,0,0,1,1.161,3.033l-3.316,5.259Z" transform="translate(14.692 58.386)" fill="#5774cd"/>
              <path id="Path_208842" data-name="Path 208842" d="M69.225,275.78a.3.3,0,0,1-.185-.53l5.61-4.439a.3.3,0,0,1,.369.466l-5.61,4.439a.292.292,0,0,1-.184.065" transform="translate(15.075 59.216)"/>
              <path id="Path_208843" data-name="Path 208843" d="M72.065,275.754a.3.3,0,0,1-.185-.53l5.61-4.439a.3.3,0,0,1,.369.466l-5.61,4.438a.292.292,0,0,1-.184.065" transform="translate(15.697 59.21)"/>
              <path id="Path_208844" data-name="Path 208844" d="M87.673,103.983a3.968,3.968,0,1,0,.47,5.892,4.192,4.192,0,0,0-.47-5.892" transform="translate(17.664 22.455)" fill="#efa189"/>
              <path id="Path_208845" data-name="Path 208845" d="M86.362,107.119a.438.438,0,0,1-.146-.024L82.3,105.778a.457.457,0,1,1,.291-.866l3.919,1.319a.457.457,0,0,1-.146.89" transform="translate(17.931 22.94)"/>
              <path id="Path_208846" data-name="Path 208846" d="M83.956,108.561a.448.448,0,0,1-.18-.038.455.455,0,0,1-.239-.6l.781-1.811a.457.457,0,0,1,.838.362l-.781,1.81a.454.454,0,0,1-.419.277" transform="translate(18.262 23.148)"/>
              <path id="Path_208847" data-name="Path 208847" d="M89.01,102s6.33,2.035,6.094-3.089c0,0-4.741-3.128-6.094,3.089" transform="translate(19.468 21.46)" fill="#fff"/>
            </g>
          </g>
          <g id="Group_983389" data-name="Group 983389" transform="translate(108.478 119.58)">
            <g id="Group_983388" data-name="Group 983388" clip-path="url(#clip-path-3)">
              <path id="Path_208848" data-name="Path 208848" d="M93.9,97.6a2.385,2.385,0,1,0,1.378,3.108A2.4,2.4,0,0,0,93.9,97.6" transform="translate(-88.661 -98.271)"/>
            </g>
          </g>
          <g id="Group_983391" data-name="Group 983391">
            <g id="Group_983390" data-name="Group 983390" clip-path="url(#clip-path-2)">
              <path id="Path_208850" data-name="Path 208850" d="M88.435,98.342a.443.443,0,0,1-.208-.051.455.455,0,0,1-.2-.614,4.286,4.286,0,0,1,3.852-2.085.456.456,0,0,1,.436.474.434.434,0,0,1-.475.439,3.378,3.378,0,0,0-3,1.589.456.456,0,0,1-.407.249" transform="translate(19.242 20.907)"/>
              <path id="Path_208851" data-name="Path 208851" d="M94.355,105.505a4.684,4.684,0,0,1-1.956-.4.457.457,0,0,1,.407-.818,4.119,4.119,0,0,0,3.172-.015.457.457,0,1,1,.339.848,5.239,5.239,0,0,1-1.962.384" transform="translate(20.154 22.799)"/>
              <path id="Path_208852" data-name="Path 208852" d="M129.681,339.333H316.9a2.864,2.864,0,0,0,2.863-2.864V302.981a2.864,2.864,0,0,0-2.863-2.864H129.681a2.864,2.864,0,0,0-2.865,2.864v33.488a2.864,2.864,0,0,0,2.865,2.864" transform="translate(27.736 65.639)" fill="#fd521b"/>
              <path id="Path_208853" data-name="Path 208853" d="M224.948,317.791H118.4a3.843,3.843,0,0,1-3.208-5.96l58.085-88.014a3.843,3.843,0,0,1,6.574.263l48.46,88.014a3.843,3.843,0,0,1-3.366,5.7M176.485,223.31a2.6,2.6,0,0,0-2.186,1.179L116.213,312.5a2.623,2.623,0,0,0,2.19,4.07H224.948a2.624,2.624,0,0,0,2.3-3.89l-48.46-88.014a2.6,2.6,0,0,0-2.195-1.355c-.035,0-.072,0-.107,0" transform="translate(25.054 48.574)" fill="#fd521b"/>
              <path id="Path_208854" data-name="Path 208854" d="M147.839,377.746h207.64a3.347,3.347,0,0,0,3.347-3.347V335.642a3.347,3.347,0,0,0-3.347-3.347H147.839a3.347,3.347,0,0,0-3.347,3.347V374.4a3.347,3.347,0,0,0,3.347,3.347" transform="translate(31.602 72.677)" fill="#ffc849"/>
              <path id="Path_208855" data-name="Path 208855" d="M221.948,110.964s2.445,12.593,0,14.946-6.8-12.038-6.8-12.038Z" transform="translate(47.055 24.269)" fill="#ef9e86"/>
              <path id="Path_208856" data-name="Path 208856" d="M187.655,87.006a37.829,37.829,0,1,1,37.829,37.829,37.829,37.829,0,0,1-37.829-37.829" transform="translate(41.042 10.756)" fill="#a6bbff"/>
              <path id="Path_208857" data-name="Path 208857" d="M247.289,96.674l1.765-6.785a1.657,1.657,0,0,1,1.952-1.2,1.172,1.172,0,0,1,.908,1.342l-2.122,12.466-.671,10.134-5.459-.261Z" transform="translate(53.292 19.389)" fill="#ef9e86"/>
              <path id="Path_208858" data-name="Path 208858" d="M248.537,99.055l2.175-6.917a1.405,1.405,0,0,1,1.706-.936,1.422,1.422,0,0,1,1.019,1.681l-2.693,12.112-1.178,10.086-5.438-.534Z" transform="translate(53.394 19.936)" fill="#ef9e86"/>
              <path id="Path_208859" data-name="Path 208859" d="M248.419,101.738l2.274-6.886a1.406,1.406,0,0,1,1.72-.912,1.422,1.422,0,0,1,.995,1.7s-2.241,9.033-2.865,12.071c-.773,3.751,4.042,11.218,4.042,11.218l-9.773-5.169Z" transform="translate(53.543 20.534)" fill="#ef9e86"/>
              <path id="Path_208860" data-name="Path 208860" d="M247.806,103.066a.377.377,0,0,1-.089-.011.354.354,0,0,1-.252-.43l2.974-11.4a.353.353,0,0,1,.682.178l-2.974,11.4a.352.352,0,0,1-.341.263" transform="translate(54.121 19.894)"/>
              <path id="Path_208861" data-name="Path 208861" d="M249.459,102.739a.353.353,0,0,1-.338-.452l2.37-8.007a.352.352,0,0,1,.675.2l-2.37,8.007a.351.351,0,0,1-.338.252" transform="translate(54.483 20.565)"/>
              <path id="Path_208862" data-name="Path 208862" d="M245.233,97.618l1.709-6.571a1.887,1.887,0,0,1,2.224-1.37.94.94,0,0,1,.729,1.076l-2.158,12.684,1.483,8.976-6.011-3.487Z" transform="translate(53.193 19.604)" fill="#ef9e86"/>
              <path id="Path_208863" data-name="Path 208863" d="M247.536,122.34s-6.865-12.034-5.84-16.9c.7-3.332,1.81-7.2,2.44-9.3a1.8,1.8,0,0,1,3.482.859l-1.272,6.576,8.943,15.141Z" transform="translate(52.839 20.747)" fill="#ef9e86"/>
              <path id="Path_208864" data-name="Path 208864" d="M245.578,103.979a.642.642,0,0,1-.067,0,.355.355,0,0,1-.279-.414l1.272-6.576a1.448,1.448,0,0,0-1.126-1.687.351.351,0,0,1-.273-.416.347.347,0,0,1,.416-.273,2.156,2.156,0,0,1,1.674,2.511l-1.271,6.576a.352.352,0,0,1-.346.284" transform="translate(53.606 20.69)"/>
              <path id="Path_208865" data-name="Path 208865" d="M246.652,103.878a.335.335,0,0,1-.069-.007.351.351,0,0,1-.275-.414l2.568-12.717a.586.586,0,0,0-.459-.663.353.353,0,0,1-.269-.419.348.348,0,0,1,.418-.269,1.292,1.292,0,0,1,1,1.48L247,103.6a.352.352,0,0,1-.345.283" transform="translate(53.869 19.548)"/>
              <path id="Path_208866" data-name="Path 208866" d="M215.91,131.042a46.323,46.323,0,0,1-4.954-8.21c-1.473-3.49-5.5-14.119-5.5-14.119a1.621,1.621,0,0,1,.765-2.01,1.492,1.492,0,0,1,2.017.735l3.081,6.547,11,13.006Z" transform="translate(44.913 23.303)" fill="#ef9e86"/>
              <path id="Path_208867" data-name="Path 208867" d="M212.026,120.115l-5.144-13.929a1.722,1.722,0,0,1,.813-2.135,1.584,1.584,0,0,1,2.141.78l3.272,6.954,2.49,7.873Z" transform="translate(45.224 22.722)" fill="#ef9e86"/>
              <path id="Path_208868" data-name="Path 208868" d="M216.54,129.15l-8.075-25.211a1.8,1.8,0,0,1,.852-2.238,1.659,1.659,0,0,1,2.245.817l3.432,7.29,8.649,15.78Z" transform="translate(45.569 22.206)" fill="#ef9e86"/>
              <path id="Path_208869" data-name="Path 208869" d="M216.56,118.376l-5.394-14.6a1.8,1.8,0,0,1,.853-2.238,1.66,1.66,0,0,1,2.245.817s2.848,5.667,3.707,7.489c.885,1.882,5.957,16.762,5.957,16.762Z" transform="translate(46.16 22.169)" fill="#ef9e86"/>
              <path id="Path_208870" data-name="Path 208870" d="M215.78,113.888a.37.37,0,0,1-.339-.223l-4.729-11.116a.368.368,0,0,1,.678-.288l4.729,11.115a.368.368,0,0,1-.339.512" transform="translate(46.079 22.317)"/>
              <path id="Path_208871" data-name="Path 208871" d="M213.032,114.572a.37.37,0,0,1-.339-.223L208.378,104.2a.368.368,0,1,1,.678-.288l4.315,10.143a.368.368,0,0,1-.339.512" transform="translate(45.569 22.679)"/>
              <path id="Path_208872" data-name="Path 208872" d="M210.622,115.07a.37.37,0,0,1-.339-.223L206.9,106.9a.367.367,0,0,1,.676-.288l3.382,7.948a.368.368,0,0,1-.339.512" transform="translate(45.246 23.268)"/>
              <path id="Path_208873" data-name="Path 208873" d="M339.773,278.461l31.1-8.553,3.526,20.033-34.095,8.072Z" transform="translate(74.313 59.032)" fill="#ef9e86"/>
              <path id="Path_208874" data-name="Path 208874" d="M287.322,329.245l4.546,32.5-18.952,1.848-5.538-35.339Z" transform="translate(58.479 71.793)" fill="#ef9e86"/>
              <path id="Path_208875" data-name="Path 208875" d="M296.671,208.176s8.486,52.155,27.08,68.835c12.044,10.8,46.947,2.139,46.947,2.139l8.394,37.65s-66.326,20.466-89.931-8.118-30.393-97.962-30.393-97.962Z" transform="translate(56.596 45.531)" fill="#ffb6c8"/>
              <path id="Path_208876" data-name="Path 208876" d="M246.035,222.892s9.744,108.888,19.588,143.729c0,0,21.529,3.785,38.158-4.58l-17.3-120.07,5.6-6.869L287.5,210.682Z" transform="translate(53.811 46.079)" fill="#ffb6c8"/>
              <path id="Path_208877" data-name="Path 208877" d="M269.769,334.256a50.7,50.7,0,0,1-7.859-.574.457.457,0,0,1-.38-.523.442.442,0,0,1,.523-.379c16.024,2.524,35.7-4.236,35.9-4.3a.457.457,0,1,1,.3.864c-.168.059-14.317,4.916-28.485,4.916" transform="translate(57.198 71.836)"/>
              <path id="Path_208878" data-name="Path 208878" d="M267.487,107.733l45.787,121.805s-26.81,23.519-64.906,21.615l-10.1-47.364L208.03,127.94l19.041-6.607,33.171,71.215,14.583-5.277-27.458-70.328Z" transform="translate(45.499 23.563)" fill="#5774cd"/>
              <path id="Path_208879" data-name="Path 208879" d="M254.261,223.969l21.574,140.593a.46.46,0,0,0,.453.388.428.428,0,0,0,.068,0,.459.459,0,0,0,.384-.522L255.175,223.895c-.3.033-.609.051-.914.074" transform="translate(55.61 48.969)"/>
              <path id="Path_208880" data-name="Path 208880" d="M351.156,307.106a.458.458,0,0,1-.446-.357l-8.4-37.65a.458.458,0,0,1,.893-.2l8.395,37.65a.457.457,0,0,1-.346.546.479.479,0,0,1-.1.011" transform="translate(74.866 58.733)"/>
              <path id="Path_208881" data-name="Path 208881" d="M246.905,157.18c2.447-8.981,11.357-13.868,21.624-10.351,8.769,3,12.318,10.845,9.958,19.852s-11.005,4.868-20.16,6.3c-9.227,1.441-14.475-4.6-11.422-15.8" transform="translate(53.811 31.863)" fill="#ef9e86"/>
              <path id="Path_208882" data-name="Path 208882" d="M251.578,155.7l-6.222-4.192,2.815,11.38Z" transform="translate(53.663 33.136)" fill="#ef9e86"/>
              <path id="Path_208883" data-name="Path 208883" d="M259.562,145.717s-9.446,7.444-5.326,19.317l-.691,5.721s-3.933,5.037-2.977,14.373,10.08,2.909,11.219,9.571-5.65,15.041-2.589,23.235l38.723-18.54a8.6,8.6,0,0,1-4.385-6.34c-1.008-8.3-12.408-5.785-13.562-11.924-2.7-14.344,2.15-12.5-1.7-23.511-4.983-14.239-18.708-11.9-18.708-11.9" transform="translate(54.77 31.839)" fill="#fc5f65"/>
              <path id="Path_208884" data-name="Path 208884" d="M289.591,309.519a.456.456,0,0,1-.452-.391l-10.286-71.392a.46.46,0,0,1,.1-.355l5.6-6.869a.458.458,0,1,1,.709.579l-5.47,6.711L290.043,309a.457.457,0,0,1-.386.518.405.405,0,0,1-.066,0" transform="translate(60.988 50.379)"/>
              <path id="Path_208885" data-name="Path 208885" d="M253.882,161.638a4.763,4.763,0,1,1-.623,7.07,5.034,5.034,0,0,1,.623-7.07" transform="translate(55.133 35.014)" fill="#efa189"/>
              <path id="Path_208886" data-name="Path 208886" d="M253.13,165.007a.629.629,0,0,1-.195-1.226l4.716-1.544a.629.629,0,1,1,.39,1.2l-4.716,1.543a.6.6,0,0,1-.2.032" transform="translate(55.225 35.476)"/>
              <path id="Path_208887" data-name="Path 208887" d="M255.326,166.762a.63.63,0,0,1-.58-.384l-.921-2.18a.629.629,0,0,1,1.159-.49l.923,2.18a.629.629,0,0,1-.58.874" transform="translate(55.504 35.721)"/>
              <path id="Path_208888" data-name="Path 208888" d="M359.85,272.313l17.673-7.089,15.234,39.8-6.328,2.57c-3.517,1.43-7.528.419-9.434-2.376l-8.8-12.9s.377-9.939-1.984-14.37a11.791,11.791,0,0,0-6.359-5.628" transform="translate(78.704 58.008)" fill="#fd521b"/>
              <path id="Path_208889" data-name="Path 208889" d="M387.408,306.177a.335.335,0,0,1-.312-.212l-15.637-39.5a.335.335,0,0,1,.624-.246l15.637,39.5a.335.335,0,0,1-.312.459" transform="translate(81.237 58.179)"/>
              <path id="Path_208890" data-name="Path 208890" d="M374.693,297.011a.337.337,0,0,1-.274-.143l-7.925-11.227a.335.335,0,1,1,.548-.386l7.925,11.227a.336.336,0,0,1-.08.468.346.346,0,0,1-.194.061" transform="translate(80.143 62.358)"/>
              <path id="Path_208891" data-name="Path 208891" d="M372.067,296.683a.336.336,0,0,1-.156-.633l11.272-5.894a.336.336,0,1,1,.312.595l-11.272,5.892a.329.329,0,0,1-.156.039" transform="translate(81.302 63.452)"/>
              <path id="Path_208892" data-name="Path 208892" d="M293.313,345.887l3.816,19.445-44.509-.206-.11-6.972c-.062-3.876,2.381-7.32,5.746-8.1l15.533-3.61s9.321,4.029,14.41,3.42,5.114-3.974,5.114-3.974" transform="translate(55.227 75.65)" fill="#fd521b"/>
              <path id="Path_208893" data-name="Path 208893" d="M252.739,359.631a.342.342,0,0,1,0-.685l43.369-.294a.331.331,0,0,1,.346.34.344.344,0,0,1-.34.345l-43.37.294Z" transform="translate(55.202 78.442)"/>
              <path id="Path_208894" data-name="Path 208894" d="M260.821,350.914a.343.343,0,0,1-.083-.675l13.613-3.4a.343.343,0,1,1,.166.665L260.9,350.9a.393.393,0,0,1-.083.01" transform="translate(56.97 75.857)"/>
              <path id="Path_208895" data-name="Path 208895" d="M262.112,361.832a.344.344,0,0,1-.341-.3l-1.445-12.905a.343.343,0,1,1,.681-.077l1.447,12.9a.345.345,0,0,1-.3.38h-.038" transform="translate(56.936 76.165)"/>
              <path id="Path_208896" data-name="Path 208896" d="M249.038,151.964s-2.5,4.813,3.811,2.169c0,0,.313-6.864-3.811-2.169" transform="translate(54.361 32.877)" fill="#fff"/>
              <path id="Path_208897" data-name="Path 208897" d="M253.171,151.953a.628.628,0,0,1-.624-.557,3.036,3.036,0,0,0-.853-2.028.635.635,0,0,1-.113-.877.622.622,0,0,1,.867-.129,4.1,4.1,0,0,1,1.348,2.891.628.628,0,0,1-.552.7c-.024,0-.049,0-.072,0" transform="translate(54.996 32.422)"/>
              <path id="Path_208898" data-name="Path 208898" d="M249.149,151.017c.88-1.729,2.146-2.849,2.829-2.5s.52,2.03-.361,3.759-2.146,2.849-2.827,2.5-.52-2.03.36-3.759" transform="translate(54.321 32.468)"/>
              <path id="Path_208899" data-name="Path 208899" d="M144.75,351.079H3.343C1.5,351.079,0,349.115,0,346.7V292.39c0-2.415,1.5-4.38,3.343-4.38H144.75c1.843,0,3.343,1.965,3.343,4.38V346.7c0,2.414-1.5,4.379-3.343,4.379M3.343,289.607c-1.171,0-2.124,1.249-2.124,2.784V346.7c0,1.534.953,2.782,2.124,2.782H144.75c1.171,0,2.124-1.248,2.124-2.782V292.39c0-1.534-.953-2.784-2.124-2.784Z" transform="translate(0 62.991)" fill="#5774cd"/>
            </g>
          </g>
        </g>
      </g>
    </g>
  </g>
</svg>
