<svg xmlns="http://www.w3.org/2000/svg" xmlns:xlink="http://www.w3.org/1999/xlink" width="90" height="90" viewBox="0 0 90 90">
  <defs>
    <clipPath id="clip-path">
      <rect id="Rectangle_338758" data-name="Rectangle 338758" width="69.436" height="76.94" fill="none"/>
    </clipPath>
  </defs>
  <g id="_23" data-name="23" transform="translate(-8009 2760)">
    <rect id="Rectangle_338641" data-name="Rectangle 338641" width="90" height="90" rx="11" transform="translate(8009 -2760)" fill="#6b8dfc"/>
    <g id="Group_983642" data-name="Group 983642" transform="translate(8019 -2753)">
      <g id="Group_983641" data-name="Group 983641" clip-path="url(#clip-path)">
        <path id="Path_210733" data-name="Path 210733" d="M65,18.494a1.192,1.192,0,0,1,1.776.248c5.022,5.344,7.581,11.618,7.007,19a18.331,18.331,0,0,0,2.8,11.785,18.568,18.568,0,0,1,2.988,7.121,16.342,16.342,0,0,1-1.258,8.709c-.2.51-.417,1.014-.637,1.516a6.214,6.214,0,0,0,.068,5.493A10.735,10.735,0,0,1,78.8,75.312,5.225,5.225,0,0,1,73.467,81.5c-1.9.029-3.8.021-5.7-.006-.468-.006-.588.117-.569.584.042,1.1-.008,2.2.029,3.3a1.6,1.6,0,0,1-.734,1.571h-.75a1.109,1.109,0,0,1-.941-1.071,41.13,41.13,0,0,0-.308-6.58,19.671,19.671,0,0,0-7.3-12.368.933.933,0,0,0-1.334-.092c-.271.218-.6.356-.887.56a16.945,16.945,0,0,1-2.515,1.169,1.039,1.039,0,0,0-.785,1.185c.032.824.025,1.651,0,2.476A6.389,6.389,0,0,1,47.549,78.3a6.667,6.667,0,0,1-7.043-1.346,6.934,6.934,0,0,1-2.135-5.035c-.018-.8-.013-1.6,0-2.4a.841.841,0,0,0-.617-.909,16.134,16.134,0,0,1-3.6-1.834A.888.888,0,0,0,33,66.864,19.4,19.4,0,0,0,29.675,70.1c-.594.733-.964.79-1.831.42a1.417,1.417,0,0,1-.144-2.172,20.121,20.121,0,0,1,3-3.04c.7-.574.692-.637.063-1.274a19.819,19.819,0,0,1-4.4-6.649A1.033,1.033,0,0,0,25.07,56.6c-2.45.324-5.248-1.674-6.068-4.112a5.923,5.923,0,0,1,5.16-7.627c.589-.034.7-.315.7-.812q-.014-3.6,0-7.205a3.873,3.873,0,0,1,2.586-3.838c.347-.143.693-.289,1.051-.4a5.674,5.674,0,0,0,3.841-4.168,14.238,14.238,0,0,0,.5-2.5,1.692,1.692,0,0,1,1.246-1.608A1.617,1.617,0,0,1,36,25.156c1.419,2.326,3.615,3.114,6.175,3.168,1.323.028,2.644-.022,3.97-.108a8.394,8.394,0,0,1,6.475,2.455,9.3,9.3,0,0,0,5.407,2.846,15.48,15.48,0,0,0,3.136.213,3.955,3.955,0,0,1,4.182,4.108c.011,2,0,4,0,6,0,.923.007.916.938,1.027a5.794,5.794,0,0,1,2.676,1.107,8.758,8.758,0,0,1,1.775,2.087,5.76,5.76,0,0,1,.609,3.1,6,6,0,0,1-5.694,5.476,2.661,2.661,0,0,1-.374-.009c-1.133-.1-1.15-.108-1.584.923a19.092,19.092,0,0,1-4.445,6.511c-.636.607-.606.623.058,1.189A22.154,22.154,0,0,1,66.988,78.28a1.233,1.233,0,0,0,.261.686.541.541,0,0,0,.276.11c2.026.013,4.055.083,6.077-.031a2.843,2.843,0,0,0,2.626-3.927c-.279-.725-.593-1.433-.9-2.143a8.479,8.479,0,0,1,0-6.853A24.76,24.76,0,0,0,77.1,60.641a11.585,11.585,0,0,0-1.06-7.005c-.761-1.582-1.719-3.05-2.555-4.588A19.263,19.263,0,0,1,71.335,37.8a20.308,20.308,0,0,0-1.929-10.947,22.47,22.47,0,0,0-4.269-6.218,1.783,1.783,0,0,1-.632-1.313c.006-.37.072-.7.491-.829" transform="translate(-10.296 -10.008)"/>
        <path id="Path_210734" data-name="Path 210734" d="M13.261,76.94a1.579,1.579,0,0,1-.736-1.508c.038-1.1-.024-2.2.03-3.3.027-.553-.151-.654-.66-.646q-2.813.045-5.628.006a5.28,5.28,0,0,1-5.39-4.718,5.382,5.382,0,0,1,.654-3.262c1.546-2.716,1.28-5.321,0-8.07A14.7,14.7,0,0,1,.349,45.8a20.272,20.272,0,0,1,2.721-6.125,18.281,18.281,0,0,0,2.763-6.818A18.186,18.186,0,0,0,6,28.514C4.865,15.419,12.681,6.325,22.684,2.448c9.539-3.7,18.9-3.28,27.933,1.752.637.355,1.026.795.761,1.57a1.069,1.069,0,0,1-1.743.671,32.23,32.23,0,0,0-4.182-2,22.043,22.043,0,0,0-3.733-1.073,28.461,28.461,0,0,0-7.958-.833,27.81,27.81,0,0,0-16.47,5.671A22.539,22.539,0,0,0,8.416,23.663a21.985,21.985,0,0,0,.033,4.419,19.3,19.3,0,0,1-1.459,9.467c-.759,1.727-1.817,3.279-2.728,4.917A11.941,11.941,0,0,0,3.2,52.789c.429,1.175.866,2.347,1.287,3.525A9.255,9.255,0,0,1,4,63.944a7.68,7.68,0,0,0-.568,1.548,2.719,2.719,0,0,0,1.853,3.371,3.186,3.186,0,0,0,.879.189c1.951.049,3.9.012,5.854.022.539,0,.646-.356.724-.779a18.357,18.357,0,0,1,1.171-4.027c.436-1,1-1.222,2.044-.822a1.276,1.276,0,0,1,.5,1.642,24.191,24.191,0,0,0-1.328,9.366,4.671,4.671,0,0,1-.17,1.632,1.04,1.04,0,0,1-.8.855Z" transform="translate(0 0)"/>
        <path id="Path_210735" data-name="Path 210735" d="M92.842,7.117a23.859,23.859,0,0,1,7.194,2.656c.2.107.386.231.584.338.886.478,1.219.4,1.816-.428,0,.206.152.3.3.393,1.071.691,2.017,1.546,3.023,2.323-.508.774-.461,1.205.226,1.913a23.031,23.031,0,0,1,6,11.135,23.043,23.043,0,0,1,.258,6.785,19.18,19.18,0,0,0,2.809,11.75,23.484,23.484,0,0,1,2.705,5.418,13.189,13.189,0,0,1-.773,8.991,19.967,19.967,0,0,0-1.334,3.961,8.76,8.76,0,0,0,.924,5.146c.222.5.414,1.017.624,1.524a2.982,2.982,0,0,1-2.69,4.121c-2.172.108-4.352.032-6.529.028-.081,0-.162-.087-.243-.133a1.227,1.227,0,0,1,.927-.2c1.125-.009,2.251-.02,3.376,0a1.262,1.262,0,0,0,1.218-.7,4.138,4.138,0,0,0,.331-3.473,19.958,19.958,0,0,0-.964-2.2,7.336,7.336,0,0,1-.061-5.838c.312-.818.685-1.613.986-2.434a17.469,17.469,0,0,0,1.118-5.114,12.506,12.506,0,0,0-1.214-5.746,17.167,17.167,0,0,0-.96-1.868c-.126-.211-.221-.477-.559-.363a5.92,5.92,0,0,0-2.3-5.085c-1.251-3.407-.945-6.939-.86-10.457a19.886,19.886,0,0,0-1.533-8.039,24.518,24.518,0,0,0-5.735-8.522,27.009,27.009,0,0,0-7.426-5c-.453-.211-1.123-.184-1.24-.888" transform="translate(-51.057 -3.914)" fill="#664442"/>
        <path id="Path_210736" data-name="Path 210736" d="M44.538,6.046c.279.446.8.486,1.213.671a25.918,25.918,0,0,1,8.76,6.26A24.684,24.684,0,0,1,60.07,23.2a13.738,13.738,0,0,1,.541,3.828c-.033,2.188,0,4.377-.014,6.566a14.446,14.446,0,0,0,.732,4.622c.075.228.337.5,0,.741a5.672,5.672,0,0,0-3.291-1.078c-.528.027-.455-.331-.456-.652,0-2.052-.082-4.108.022-6.154a3.97,3.97,0,0,0-4.343-4.353,9.849,9.849,0,0,1-6.818-1.775c-.772-.592-1.465-1.285-2.226-1.893A8.508,8.508,0,0,0,37.9,21.3a14.784,14.784,0,0,1-6.092-.392,6.023,6.023,0,0,1-3.411-2.655c-.52-.877-1.077-1.15-1.837-.91a1.625,1.625,0,0,0-1.095,1.621,11.275,11.275,0,0,1-.875,3.47,5.654,5.654,0,0,1-3.425,3.153,10.718,10.718,0,0,0-1.725.716,3.507,3.507,0,0,0-1.943,3.227c.019,2.552-.007,5.1.014,7.656,0,.5-.1.685-.651.7a5.748,5.748,0,0,0-5.48,5.354,5.835,5.835,0,0,0,4.8,5.921,4.3,4.3,0,0,0,1.781,0,.636.636,0,0,1,.849.481,19.467,19.467,0,0,0,4.983,7.483c.334.316.361.482-.04.791a20.834,20.834,0,0,0-3.42,3.353c-.635.775-.629,1.239.056,1.943-.595,1.057-1.243,2.084-1.8,3.163-.985-.284-1.4-.093-1.757.825a18.17,18.17,0,0,0-1.138,4.1c-.077.572-.267.84-.942.818-1.849-.062-3.7-.055-5.552-.013A3.1,3.1,0,0,1,6.1,67.8a23.264,23.264,0,0,0,1.356-3.484A10.678,10.678,0,0,0,6.6,57.957a23.681,23.681,0,0,1-1.387-4.189A12.321,12.321,0,0,1,6.847,45.2a40.7,40.7,0,0,0,3.119-5.884,19.985,19.985,0,0,0,.986-8.709,21.26,21.26,0,0,1,4.337-14.989C19.55,9.892,25.409,6.787,32.36,5.6a30.473,30.473,0,0,1,11.752.307,4.259,4.259,0,0,1,.425.14" transform="translate(-2.753 -2.843)" fill="#735351"/>
        <path id="Path_210737" data-name="Path 210737" d="M45.425,39.849A10.664,10.664,0,0,0,53.3,42.727c.949,0,1.9-.045,2.846-.135a6.3,6.3,0,0,1,4.711,1.322,10,10,0,0,1,.865.719,12.134,12.134,0,0,0,9.58,3.423c1.525-.057,2.012.439,2.012,1.988,0,3.829.026,7.657-.006,11.486A17.79,17.79,0,0,1,38.06,65.079a19.886,19.886,0,0,1-.331-3.579c.007-4.2.016-8.408-.01-12.611a1.546,1.546,0,0,1,1.135-1.715,8.684,8.684,0,0,0,6.571-7.324" transform="translate(-20.743 -21.914)" fill="#fed7b9"/>
        <path id="Path_210738" data-name="Path 210738" d="M33.927,132.317a6.646,6.646,0,0,1,1.8-3.163,1.144,1.144,0,0,0,1.621-.421,19.677,19.677,0,0,1,3.545-3.438.688.688,0,0,1,.969-.057,16.086,16.086,0,0,0,3.989,2.034.712.712,0,0,1,.544.814,25.694,25.694,0,0,0,.1,3.894,6.447,6.447,0,0,0,12.8-.765c.038-1.074.019-2.151.018-3.226,0-.291.026-.5.365-.635,1.014-.414,2-.883,3-1.331.42-.169.653.121.891.374A21.445,21.445,0,0,1,69.5,139.356c.122,1.292.026,2.594.04,3.892.011,1.038.023,1.055,1.034,1.06.474,0,.95-.025,1.422.015.241.02.583-.076.633.334q-19.392-.007-38.785-.012c-.333,0-.707-.113-.948.252a60.939,60.939,0,0,1,.383-7.034,18.439,18.439,0,0,1,1.055-3.972,1.155,1.155,0,0,0-.41-1.573" transform="translate(-18.092 -68.778)" fill="#fe80b2"/>
        <path id="Path_210739" data-name="Path 210739" d="M119.78,90.857c.161-.117.1-.324.2-.557a13.037,13.037,0,0,1,1.5,2.68,12.278,12.278,0,0,1,1.249,6.006,19.338,19.338,0,0,1-1.771,6.6,8.014,8.014,0,0,0-.753,5.225,26.5,26.5,0,0,0,1.352,3.319,4.349,4.349,0,0,1-.6,4.377c-.226.306-.5.282-.794.282q-2.289,0-4.577,0a22.476,22.476,0,0,0-4.389-10.215,21.428,21.428,0,0,0-3.792-3.826c-.371-.288-.406-.453-.046-.786a19.158,19.158,0,0,0,5.065-7.6c.189-.518.55-.421.907-.36a5.744,5.744,0,0,0,6.18-3.9c.122-.4.183-.826.272-1.24" transform="translate(-58.9 -49.659)" fill="#735351"/>
        <path id="Path_210740" data-name="Path 210740" d="M109.021,144.8a7.666,7.666,0,0,0-2.577-.125c-.541-.009-.769-.137-.731-.715.046-.7-.007-1.4.014-2.1a20.721,20.721,0,0,0-3.769-12.562c-.676-.99-1.532-1.825-2.268-2.762a.84.84,0,0,0-.622-.374.611.611,0,0,1,.1-.1c1.586-1,1.6-1.023,3.019.212a19.588,19.588,0,0,1,6.924,14.334c.07,1.395.012,2.8.013,4.194l-.052.018Z" transform="translate(-54.481 -68.925)" fill="#fe6ba6"/>
        <path id="Path_210741" data-name="Path 210741" d="M76.278,133.87a8.2,8.2,0,0,1-.119,1.838,4.214,4.214,0,0,1-8.292-.807c-.048-.847,0-1.7-.023-2.549-.014-.415.157-.434.494-.366a18.827,18.827,0,0,0,7.44,0c.421-.084.531.029.507.43-.026.449-.006.9-.006,1.45" transform="translate(-37.31 -72.568)" fill="#fed7b9"/>
        <path id="Path_210742" data-name="Path 210742" d="M24.164,86.261A3.546,3.546,0,0,1,27.3,82.816c.521-.041.752.046.738.658a24.318,24.318,0,0,0,.387,5.748c.12.549-.3.435-.531.467a3.463,3.463,0,0,1-3.733-3.429" transform="translate(-13.289 -45.539)" fill="#f9c7a1"/>
        <path id="Path_210743" data-name="Path 210743" d="M125.077,86.355a3.5,3.5,0,0,1-3.657,3.375c-.364-.034-.681-.058-.577-.6a34.056,34.056,0,0,0,.406-5.678c.011-.51.154-.637.64-.571a3.523,3.523,0,0,1,3.189,3.476" transform="translate(-66.445 -45.569)" fill="#f9c7a1"/>
        <path id="Path_210744" data-name="Path 210744" d="M45.413,75.641A6.305,6.305,0,0,1,51.87,69.2a6.453,6.453,0,0,1-.015,12.9,6.315,6.315,0,0,1-6.442-6.462" transform="translate(-24.974 -38.055)"/>
        <path id="Path_210745" data-name="Path 210745" d="M93.321,75.47a6.413,6.413,0,1,1-12.823.282,6.413,6.413,0,0,1,12.823-.282" transform="translate(-44.268 -38.056)"/>
        <path id="Path_210746" data-name="Path 210746" d="M70.8,108.46a5.228,5.228,0,1,1,5.2-5.23,5.319,5.319,0,0,1-5.2,5.23" transform="translate(-36.044 -53.896)"/>
        <path id="Path_210747" data-name="Path 210747" d="M95.909,60.228A9.126,9.126,0,0,1,100.6,62a1.11,1.11,0,1,1-1.214,1.858,8.029,8.029,0,0,0-3.962-1.418,1.056,1.056,0,0,1-.937-1.226c.068-.647.567-1.015,1.427-.991" transform="translate(-51.955 -33.121)"/>
        <path id="Path_210748" data-name="Path 210748" d="M50.38,60.217c.847.008,1.334.438,1.349,1.1a1.089,1.089,0,0,1-1.118,1.143,7.3,7.3,0,0,0-3.484,1.211,1.621,1.621,0,0,1-.667.314,1.074,1.074,0,0,1-1.251-.582,1.022,1.022,0,0,1,.315-1.338,9.078,9.078,0,0,1,4.856-1.848" transform="translate(-24.794 -33.116)"/>
        <path id="Path_210749" data-name="Path 210749" d="M58.651,78.437a4.164,4.164,0,0,1-8.328.074,4.165,4.165,0,1,1,8.328-.074" transform="translate(-27.675 -40.825)" fill="#fefefe"/>
        <path id="Path_210750" data-name="Path 210750" d="M85.5,78.435a4.164,4.164,0,1,1,8.327.079,4.164,4.164,0,0,1-8.327-.079" transform="translate(-47.02 -40.825)" fill="#fefefe"/>
        <path id="Path_210751" data-name="Path 210751" d="M76.573,105.681a8.468,8.468,0,0,0-5.73.006,2.779,2.779,0,0,1,2.744-2.68,2.885,2.885,0,0,1,2.986,2.673" transform="translate(-38.958 -56.646)" fill="#fdfdfd"/>
        <path id="Path_210752" data-name="Path 210752" d="M74.531,112.872a5.374,5.374,0,0,1,1.907.3c.347.111.3.234.081.452a3.038,3.038,0,0,1-3.962.009c-.3-.291-.183-.376.139-.479a5.3,5.3,0,0,1,1.834-.28" transform="translate(-39.808 -62.07)" fill="#e46b6b"/>
        <path id="Path_210753" data-name="Path 210753" d="M59.324,78.8a1.046,1.046,0,0,1-1.033,1.137A1.115,1.115,0,1,1,59.324,78.8" transform="translate(-31.435 -42.738)" fill="#020202"/>
        <path id="Path_210754" data-name="Path 210754" d="M93.4,84.382a1.114,1.114,0,0,1,.02,2.229,1.043,1.043,0,0,1-1.072-1.1A1.062,1.062,0,0,1,93.4,84.382" transform="translate(-50.788 -46.405)" fill="#020202"/>
      </g>
    </g>
  </g>
</svg>
