<svg xmlns="http://www.w3.org/2000/svg" xmlns:xlink="http://www.w3.org/1999/xlink" width="293.556" height="522.905" viewBox="0 0 293.556 522.905">
  <defs>
    <clipPath id="clip-path">
      <rect id="Rectangle_45317" data-name="Rectangle 45317" width="249.006" height="522.905" fill="none"/>
    </clipPath>
    <clipPath id="clip-path-2">
      <rect id="Rectangle_45308" data-name="Rectangle 45308" width="249.005" height="522.906" fill="none"/>
    </clipPath>
    <clipPath id="clip-path-3">
      <rect id="Rectangle_45307" data-name="Rectangle 45307" width="5.401" height="5.994" fill="none"/>
    </clipPath>
    <clipPath id="clip-path-4">
      <rect id="Rectangle_45315" data-name="Rectangle 45315" width="55.095" height="35.714" rx="7.867" fill="none"/>
    </clipPath>
  </defs>
  <g id="_3" data-name="3" transform="translate(-1126.444 -1677.199)">
    <g id="Group_982936" data-name="Group 982936" transform="translate(1120.09 1677.201)">
      <g id="Group_174791" data-name="Group 174791" transform="translate(0 0)">
        <g id="Group_172620" data-name="Group 172620" transform="matrix(0.998, 0.07, -0.07, 0.998, 40.202, 0)">
          <g id="Group_157493" data-name="Group 157493" transform="translate(0)">
            <path id="Path_114544" data-name="Path 114544" d="M141.348,478.38c36.131-15.352,73.6-36.067,88.154-70.71,16.15-38.447-.755-81.5-.349-122.832.323-32.739,11.62-64.357,20.508-96.016s15.417-65.3,6.246-96.885c-6.139-21.146-19.179-40.279-36.014-55.461-29.645-26.734-72.357-41.2-112.94-35.086S29.5,35.364,17.639,72.319C.83,124.677,33.665,180.568,26.686,234.859c-2.73,21.243-11.469,41.333-17.4,61.995A239.442,239.442,0,0,0,0,364.3c.222,34.85,9.627,72.032,37.311,95.24C65.241,482.954,106.8,493.061,141.348,478.38Z" transform="translate(0 0)" fill="#3c3fa7"/>
          </g>
        </g>
      </g>
    </g>
    <g id="Group_175091" data-name="Group 175091" transform="translate(1145.594 1677.199)">
      <g id="Group_175090" data-name="Group 175090" clip-path="url(#clip-path)">
        <rect id="Rectangle_45305" data-name="Rectangle 45305" width="57.776" height="40.689" transform="translate(89.295 28.605)" fill="#5774cd"/>
        <path id="Path_183841" data-name="Path 183841" d="M94,585.808,57.065,717.582l12.154,8.477,49.573-127.171Z" transform="translate(-45.97 -471.914)" fill="#ea8271"/>
        <rect id="Rectangle_45306" data-name="Rectangle 45306" width="22.573" height="39.822" transform="translate(107.775 46.531)" fill="#ea8271"/>
        <path id="Path_183842" data-name="Path 183842" d="M180,774.384l24.072,14.582,2.255-5.784L182.571,765.2Z" transform="translate(-145.001 -616.425)"/>
        <g id="Group_175085" data-name="Group 175085" transform="translate(0 -0.001)">
          <g id="Group_175084" data-name="Group 175084" clip-path="url(#clip-path-2)">
            <path id="Path_183843" data-name="Path 183843" d="M900.4,533.243l53.939,64.993A13.342,13.342,0,0,1,935.7,617.153l-56.305-46.028Z" transform="translate(-708.42 -429.568)" fill="#ea8271"/>
            <path id="Path_183844" data-name="Path 183844" d="M970.574,666.847l6.183,5.054,18.385-29.4-1.729-4.467-3.287-3.961Z" transform="translate(-781.873 -510.798)"/>
            <path id="Path_183845" data-name="Path 183845" d="M334.66,2365.464l-3.146,43.963-22.807-14.387,3.418-34.408Z" transform="translate(-248.687 -1901.672)" fill="#ea8271"/>
            <path id="Path_183846" data-name="Path 183846" d="M899.748,2384.628l5.911,41.7,23.952-9.752-6.778-33.149Z" transform="translate(-724.817 -1920.038)" fill="#ea8271"/>
            <path id="Path_183847" data-name="Path 183847" d="M233.808,387.725s31.029,4.485,47.832,8.681a32.408,32.408,0,0,1,16.641,10.222l23.984,27.678L299,475.339,282.14,465.182s1.882,22.742-4.681,28.61-86.176.457-86.176.457-11.217-4.33-12.5-26.665l-7.922,15.693L138,459.473l28.375-51.8A30.677,30.677,0,0,1,186.66,395.1Z" transform="translate(-111.167 -312.342)" fill="#ffd4de"/>
            <path id="Path_183848" data-name="Path 183848" d="M245.934,1331.66,268.117,1082.3l96.492-14.943,53.338,268.418-54.844,5.091-41.973-218.591-4.048.367-16.6,211.679Z" transform="translate(-198.119 -859.836)" fill="#fff"/>
            <path id="Path_183849" data-name="Path 183849" d="M361.089,1339.335a.486.486,0,0,1-.477-.394l-41.89-218.159-3.2.29-16.567,211.269a.483.483,0,0,1-.508.448l-54.55-2.658a.487.487,0,0,1-.461-.529l22.184-249.362a.486.486,0,0,1,.41-.437l96.492-14.943a.486.486,0,0,1,.551.385l53.338,268.418a.486.486,0,0,1-.432.579l-54.844,5.092-.045,0m-41.972-219.563a.486.486,0,0,1,.477.394l41.89,218.158,53.868-5-53.142-267.432-95.655,14.813-22.105,248.48,53.573,2.61,16.562-211.208a.486.486,0,0,1,.441-.446l4.048-.367.044,0" transform="translate(-196.104 -857.823)"/>
            <path id="Path_183850" data-name="Path 183850" d="M435.1,950.221l14.274,70.211L335.5,994.119l14.131-45.349Z" transform="translate(-270.271 -764.307)" fill="#ffd4de"/>
            <path id="Path_183851" data-name="Path 183851" d="M556.465,386.668s-2.975,6.455-15.476,7.664a29.609,29.609,0,0,1-21.193-6.705l18.923-4.13Z" transform="translate(-418.737 -308.936)" fill="#ea8271"/>
            <path id="Path_183852" data-name="Path 183852" d="M513.686,413.364a31.275,31.275,0,0,1-16.957-4.614,22.571,22.571,0,0,1-6.506-5.936.583.583,0,0,1,.975-.64A21.9,21.9,0,0,0,497.4,407.8c3.895,2.453,10.571,5.172,20.255,4.2,7.689-.775,12.471-3.667,15.128-5.957a16.085,16.085,0,0,0,3.969-4.833.583.583,0,0,1,1.063.48,16.845,16.845,0,0,1-4.217,5.19c-2.789,2.419-7.8,5.472-15.827,6.281a40.743,40.743,0,0,1-4.092.21" transform="translate(-394.836 -322.924)"/>
            <path id="Path_183853" data-name="Path 183853" d="M853.919,499.637a.562.562,0,0,1-.085-.006.583.583,0,0,1-.493-.661,77.042,77.042,0,0,1,9.656-28.4,42.73,42.73,0,0,1,6.9-9.114.583.583,0,0,1,.787.861,42.585,42.585,0,0,0-6.717,8.9,75.908,75.908,0,0,0-9.475,27.916.583.583,0,0,1-.576.5" transform="translate(-687.428 -371.619)"/>
            <path id="Path_183854" data-name="Path 183854" d="M299.882,560.8a.583.583,0,0,1-.564-.437l-10.976-42.426a.583.583,0,1,1,1.129-.292l10.976,42.426a.583.583,0,0,1-.419.711.592.592,0,0,1-.146.019" transform="translate(-232.266 -416.647)"/>
            <path id="Path_183855" data-name="Path 183855" d="M576.907,266.014l-22.573-.813v13.276a35.412,35.412,0,0,0,7.886.346,43.488,43.488,0,0,0,14.687-3.478Z" transform="translate(-446.559 -213.639)"/>
            <path id="Path_183856" data-name="Path 183856" d="M394.25,923.384l.274,12.747,16.883.1,30.121,21.752a17.826,17.826,0,0,0,9.761,1.893l36.477-3.331a11.844,11.844,0,0,0,8.055-11.211c-.007-6.485-1.68-15.229-9.233-21.537Z" transform="translate(-317.599 -743.857)" fill="#fc5f65"/>
            <path id="Path_183857" data-name="Path 183857" d="M581.5,958.926h0l-76.553-.542a.583.583,0,0,1,0-1.167h0l76.553.542a.583.583,0,0,1,0,1.167" transform="translate(-406.306 -771.112)"/>
            <path id="Path_183858" data-name="Path 183858" d="M496.036,955.594l-1.591,9.844a1.66,1.66,0,0,0,1.518,1.92l5.469.4a1.66,1.66,0,0,0,1.673-2.243l-3.878-10.242a1.66,1.66,0,0,0-3.191.323" transform="translate(-398.296 -768.681)"/>
            <path id="Path_183859" data-name="Path 183859" d="M741.348,143.347s7.038-6.919,10.45-.213c4.029,7.917-7.573,14.935-11.149,7.908s.7-7.7.7-7.7" transform="translate(-595.502 -112.948)" fill="#ea8271"/>
            <path id="Path_183860" data-name="Path 183860" d="M459.064,30.182C459.064,13.51,472.038,0,488.043,0s28.979,13.515,28.979,30.187-12.974,30.187-28.979,30.187-28.979-13.515-28.979-30.187" transform="translate(-369.812 0.005)" fill="#ea8271"/>
            <path id="Path_183861" data-name="Path 183861" d="M516.672,25.381C514.832,9.375,500.917,0,488.058,0c-12.667,0-29.9,9.056-28.937,28.537C459.7,16.51,474.44,1.147,487.815,10.62c0,0,14.5-13.5,28.858,14.761" transform="translate(-369.827 0.005)" fill="#5774cd"/>
            <path id="Path_183862" data-name="Path 183862" d="M431.269,158.4s-7.038-6.919-10.45-.213c-4.028,7.917,7.573,14.935,11.149,7.908s-.7-7.7-.7-7.7" transform="translate(-338.327 -125.072)" fill="#ea8271"/>
            <path id="Path_183863" data-name="Path 183863" d="M595.176,166.82a.282.282,0,0,1-.219-.458l2.393-2.97a.282.282,0,0,1,.371-.061l4,2.558a.282.282,0,1,1-.3.475l-3.789-2.422-2.234,2.774a.281.281,0,0,1-.219.1" transform="translate(-479.234 -131.539)"/>
            <path id="Path_183864" data-name="Path 183864" d="M594.295,166.151a.495.495,0,0,1-.385-.8l2.393-2.97a.494.494,0,0,1,.651-.107l4,2.558a.495.495,0,1,1-.533.834l-3.628-2.319-2.115,2.625a.492.492,0,0,1-.385.184m2.393-3.534a.07.07,0,0,0-.054.026l-2.393,2.97a.069.069,0,0,0,.011.1.067.067,0,0,0,.043.015.069.069,0,0,0,.054-.025l2.234-2.774a.213.213,0,0,1,.28-.046l3.789,2.422a.069.069,0,0,0,.1-.021.069.069,0,0,0-.021-.1l-4-2.558a.068.068,0,0,0-.037-.011" transform="translate(-478.353 -130.656)"/>
            <path id="Path_183865" data-name="Path 183865" d="M644.133,86.161a.232.232,0,0,1-.121-.105.421.421,0,0,1,.092-.489,9.129,9.129,0,0,1,3.116-1.731,12.6,12.6,0,0,1,8.52.3.367.367,0,0,1-.244.668,12.145,12.145,0,0,0-8.171-.313,8.689,8.689,0,0,0-2.919,1.6.267.267,0,0,1-.273.072" transform="translate(-518.767 -67.053)"/>
            <path id="Path_183866" data-name="Path 183866" d="M643.33,85.5a.432.432,0,0,1-.15-.027h0a.442.442,0,0,1-.233-.2.637.637,0,0,1,.13-.75,9.379,9.379,0,0,1,3.193-1.777,12.8,12.8,0,0,1,8.662.3.46.46,0,0,1,.277.3.624.624,0,0,1-.013.4.534.534,0,0,1-.654.367,11.938,11.938,0,0,0-8.029-.311,8.554,8.554,0,0,0-2.842,1.553.5.5,0,0,1-.342.143m6.7-2.937a11.179,11.179,0,0,0-3.626.587,8.926,8.926,0,0,0-3.039,1.684.212.212,0,0,0-.053.228l-.064.212.073-.2a.08.08,0,0,0,.055-.028,8.886,8.886,0,0,1,3-1.645,12.357,12.357,0,0,1,8.312.315c.015.005.077-.027.108-.113a.2.2,0,0,0,.008-.126c-.006-.02-.015-.029-.018-.03a13.811,13.811,0,0,0-4.752-.884" transform="translate(-517.888 -66.171)"/>
            <path id="Path_183867" data-name="Path 183867" d="M513.309,93.714a.232.232,0,0,0,.121-.105.421.421,0,0,0-.092-.489,9.12,9.12,0,0,0-3.116-1.731,12.594,12.594,0,0,0-8.52.3.367.367,0,0,0,.244.668,12.145,12.145,0,0,1,8.17-.313,8.69,8.69,0,0,1,2.919,1.6.267.267,0,0,0,.273.072" transform="translate(-404.028 -73.138)"/>
            <path id="Path_183868" data-name="Path 183868" d="M512.35,93.058a.5.5,0,0,1-.342-.143,8.552,8.552,0,0,0-2.842-1.553,11.938,11.938,0,0,0-8.029.311.534.534,0,0,1-.654-.367.624.624,0,0,1-.013-.4.461.461,0,0,1,.277-.3,12.8,12.8,0,0,1,8.662-.3,9.341,9.341,0,0,1,3.193,1.777.636.636,0,0,1,.13.751.442.442,0,0,1-.232.2h0a.438.438,0,0,1-.15.026m.077-.227h0Zm-6.688-2.443a11.117,11.117,0,0,1,3.564.569,8.9,8.9,0,0,1,3,1.645c.027.025.047.029.054.028a.03.03,0,0,0,.009-.011.211.211,0,0,0-.053-.228,8.87,8.87,0,0,0-3.039-1.684,12.383,12.383,0,0,0-8.378.3.053.053,0,0,0-.017.03.2.2,0,0,0,.007.126c.031.086.095.117.108.113a13.8,13.8,0,0,1,4.748-.884" transform="translate(-403.146 -72.255)"/>
            <path id="Path_183869" data-name="Path 183869" d="M753.789,163.38a.282.282,0,0,1-.247-.418,9.491,9.491,0,0,1,4.65-4.421,6.267,6.267,0,0,1,2.544-.522.282.282,0,0,1-.035.562,5.85,5.85,0,0,0-2.324.493,8.954,8.954,0,0,0-4.341,4.159.281.281,0,0,1-.247.146" transform="translate(-607.01 -127.294)"/>
            <path id="Path_183870" data-name="Path 183870" d="M752.908,162.712a.495.495,0,0,1-.433-.734,9.7,9.7,0,0,1,4.756-4.515,6.482,6.482,0,0,1,2.639-.538.5.5,0,0,1,.294.867.486.486,0,0,1-.358.121,5.709,5.709,0,0,0-2.228.477,8.743,8.743,0,0,0-4.236,4.066.5.5,0,0,1-.434.256m6.83-5.363a6.422,6.422,0,0,0-2.346.509,9.282,9.282,0,0,0-4.544,4.327.069.069,0,0,0,.027.094.066.066,0,0,0,.093-.027A9.163,9.163,0,0,1,757.415,158a5.993,5.993,0,0,1,2.418-.509.068.068,0,0,0,.074-.064.069.069,0,0,0-.064-.073s-.038,0-.1,0" transform="translate(-606.128 -126.413)"/>
            <path id="Path_183871" data-name="Path 183871" d="M762.244,179.618a.282.282,0,0,1-.235-.126l-2.8-4.231a.282.282,0,1,1,.47-.311l2.8,4.231a.282.282,0,0,1-.235.437" transform="translate(-611.565 -140.833)"/>
            <path id="Path_183872" data-name="Path 183872" d="M761.361,178.947a.494.494,0,0,1-.413-.222l-2.8-4.231a.495.495,0,1,1,.825-.546l2.8,4.231a.495.495,0,0,1-.412.768m-2.8-4.795a.068.068,0,0,0-.067.055.067.067,0,0,0,.01.052l2.8,4.231a.06.06,0,0,0,.1.019.069.069,0,0,0,.019-.1l-2.8-4.231a.068.068,0,0,0-.044-.03h-.014" transform="translate(-610.683 -139.949)"/>
            <path id="Path_183873" data-name="Path 183873" d="M443.358,178.431a.282.282,0,0,0,.247-.418,9.491,9.491,0,0,0-4.65-4.421,6.265,6.265,0,0,0-2.544-.522.282.282,0,0,0,.035.562,5.851,5.851,0,0,1,2.324.493,8.954,8.954,0,0,1,4.341,4.159.281.281,0,0,0,.247.146" transform="translate(-351.35 -139.418)"/>
            <path id="Path_183874" data-name="Path 183874" d="M442.475,177.763a.5.5,0,0,1-.434-.256,8.742,8.742,0,0,0-4.237-4.065,5.7,5.7,0,0,0-2.231-.477.487.487,0,0,1-.355-.121.495.495,0,0,1,.295-.867,6.483,6.483,0,0,1,2.638.537,9.7,9.7,0,0,1,4.756,4.515.495.495,0,0,1-.433.733m-6.824-5.226a6.266,6.266,0,0,1,2.317.511,9.161,9.161,0,0,1,4.446,4.253.066.066,0,0,0,.093.027.067.067,0,0,0,.033-.041.069.069,0,0,0-.006-.052,9.281,9.281,0,0,0-4.544-4.326,6.125,6.125,0,0,0-2.449-.506.069.069,0,0,0-.065.073.071.071,0,0,0,.024.048.069.069,0,0,0,.048.016c.008,0,.043,0,.1,0" transform="translate(-350.467 -138.537)"/>
            <path id="Path_183875" data-name="Path 183875" d="M452.021,194.668a.281.281,0,0,0,.235-.126l2.8-4.231a.282.282,0,0,0-.47-.311l-2.8,4.231a.281.281,0,0,0,.08.39.278.278,0,0,0,.155.047" transform="translate(-363.912 -152.957)"/>
            <path id="Path_183876" data-name="Path 183876" d="M451.139,194a.495.495,0,0,1-.412-.768l2.8-4.231a.495.495,0,1,1,.825.546l-2.8,4.231a.494.494,0,0,1-.413.222m2.8-4.795h-.014a.068.068,0,0,0-.043.03l-2.8,4.231a.069.069,0,0,0,.019.1.07.07,0,0,0,.1-.02l2.8-4.231a.069.069,0,0,0,.01-.052.068.068,0,0,0-.03-.044.067.067,0,0,0-.038-.011" transform="translate(-363.03 -152.074)"/>
            <path id="Path_183877" data-name="Path 183877" d="M648.754,124.13s-.045-17.256,16.213-7.343c0,0-3.457,11.854-16.213,7.343" transform="translate(-522.622 -91.606)" fill="#fff"/>
            <path id="Path_183878" data-name="Path 183878" d="M662.151,114.556c-7.922-2.923-10.494,2.429-11.33,6.239a6.773,6.773,0,0,0,2.708,4.156,10.7,10.7,0,0,0,10.368-3.417,6.768,6.768,0,0,0-1.746-6.978" transform="translate(-524.287 -91.606)"/>
            <path id="Path_183879" data-name="Path 183879" d="M496.717,132.6s-1.956-17.145-16.955-5.413c0,0,4.808,11.373,16.955,5.413" transform="translate(-386.486 -99.152)" fill="#fff"/>
            <path id="Path_183880" data-name="Path 183880" d="M494.922,124.453c7.53-3.822,10.705,1.195,11.977,4.883a6.773,6.773,0,0,1-2.207,4.442A10.7,10.7,0,0,1,494,131.586a6.77,6.77,0,0,1,.925-7.133" transform="translate(-397.454 -99.153)"/>
            <path id="Path_183881" data-name="Path 183881" d="M1082.2,556.681,1049.4,476.612l-14.152,3.417,21.747,86.769Z" transform="translate(-833.97 -383.947)" fill="#ea8271"/>
            <path id="Path_183882" data-name="Path 183882" d="M1016.521,395.981l-3.493-11.034a9.3,9.3,0,0,0,1.655-5.781c-.257-3.254-2.246-16.342-2.246-16.342l-22.34,4.057s4.94,17.839,7.284,21.487,4.271,10.82,4.271,10.82Z" transform="translate(-797.601 -292.282)" fill="#ea8271"/>
            <path id="Path_183883" data-name="Path 183883" d="M943.367,403.359s-11.186-4.139-15.027-9.1c-3.277-4.23-5.217-7.888-6.859-10.024a1.44,1.44,0,0,1,.209-1.946,3.08,3.08,0,0,1,3.887-.294,23.826,23.826,0,0,1,5.047,4.886c1.336,1.908,7.752,2.554,7.752,2.554Z" transform="translate(-742.093 -307.277)" fill="#ea8271"/>
            <path id="Path_183884" data-name="Path 183884" d="M963.394,292.464l-6.668-19.855a2.625,2.625,0,0,1,1.886-3.278,2.665,2.665,0,0,1,3.346,1.474l7.222,19.949Z" transform="translate(-770.614 -216.859)" fill="#ea8271"/>
            <path id="Path_183885" data-name="Path 183885" d="M1001.44,277l-4.807-21.769a2.8,2.8,0,0,1,2.2-3.3,2.665,2.665,0,0,1,3.171,1.977l5.143,22.271Z" transform="translate(-802.815 -202.902)" fill="#ea8271"/>
            <path id="Path_183886" data-name="Path 183886" d="M1046.318,282.939l-.868-19.59a2.722,2.722,0,0,1,2.736-2.6,2.452,2.452,0,0,1,2.753,2.121l1.108,20.07Z" transform="translate(-842.19 -210.048)" fill="#ea8271"/>
            <path id="Path_183887" data-name="Path 183887" d="M1081.239,302.15l1.379-14.965a2.177,2.177,0,0,1,2.418-1.727,1.876,1.876,0,0,1,1.935,1.863l-1.241,15.352Z" transform="translate(-871.023 -229.953)" fill="#ea8271"/>
            <path id="Path_183888" data-name="Path 183888" d="M1003.615,368.927a.439.439,0,0,1-.154-.851A52.059,52.059,0,0,1,1020.8,365.5a.439.439,0,0,1-.008.878h-.008a51.054,51.054,0,0,0-17.017,2.521.439.439,0,0,1-.154.028" transform="translate(-808.136 -294.43)"/>
            <path id="Path_183889" data-name="Path 183889" d="M596.213,211.44s-10.663-3.024-15.528,2.977c0,0,6.893,6.469,15.528-2.977" transform="translate(-467.787 -169.717)"/>
            <path id="Path_183890" data-name="Path 183890" d="M584.413,215.5a9.237,9.237,0,0,0-3.729,2.715s5.8,5.433,13.425-.956c-.046-.041-2.719-2.384-9.7-1.759" transform="translate(-467.786 -173.52)" fill="#fe3a01"/>
            <path id="Path_183891" data-name="Path 183891" d="M42.458,1255.443s-6.544,12.563-6.063,25.814c.363,10,5.061,13.816,7.346,15.089a1.521,1.521,0,0,0,1.961-.429,2.7,2.7,0,0,0,.08-3.089,21.726,21.726,0,0,1-2.475-5.43c-1.509-4.837,6.126-11.616,9.035-18.417,4.639-10.845-4.207-9.279-4.207-9.279Z" transform="translate(-29.298 -1011.356)" fill="#ea8271"/>
            <path id="Path_183892" data-name="Path 183892" d="M34.814,1273.316s-6.544,12.563-6.063,25.813c.338,9.325,4.448,13.274,6.853,14.8a2.051,2.051,0,0,0,2.741-.524,2.009,2.009,0,0,0,.032-2.344,21.1,21.1,0,0,1-2.715-5.786c-1.509-4.837.434-13.51.434-13.51l4.394-14.187Z" transform="translate(-23.14 -1025.755)" fill="#ea8271"/>
            <path id="Path_183893" data-name="Path 183893" d="M25.56,1270.072s-10.527,11.885-12.295,26.595c-1.383,11.5,4.31,17.078,6.86,18.965a1.806,1.806,0,0,0,2.2-.039,2.766,2.766,0,0,0,.749-3.417,24.761,24.761,0,0,1-2.166-6.721c-1.04-5.763,2.972-14.726,2.972-14.726l8.1-14.3Z" transform="translate(-10.514 -1023.141)" fill="#ea8271"/>
            <path id="Path_183894" data-name="Path 183894" d="M12.92,1257.929S1.982,1270.3.214,1285.01c-1.387,11.539,4.347,17.115,6.885,18.984a1.768,1.768,0,0,0,2.146-.039h0a2.807,2.807,0,0,0,.758-3.464,24.792,24.792,0,0,1-2.152-6.693c-1.04-5.763,2.972-14.726,2.972-14.726l8.1-14.3Z" transform="translate(0 -1013.359)" fill="#ea8271"/>
            <path id="Path_183895" data-name="Path 183895" d="M48.179,1277.407s-6.627,11.356-9.328,17.671-4.6,6.01-6.551,5.055c-3.1-1.515-.691-7.626.927-11.408s.112-4.924.112-4.924l11.339-12.28Z" transform="translate(-24.812 -1024.31)" fill="#ea8271"/>
            <path id="Path_183896" data-name="Path 183896" d="M31.775,1323.867a4.536,4.536,0,0,1-1.966-.561c-3.18-1.553-1.669-6.652-.454-10.749.081-.273.161-.541.237-.8a19.727,19.727,0,0,0,1.047-5.1.374.374,0,0,1,.748-.035,19.492,19.492,0,0,1-1.077,5.346c-.076.261-.156.531-.237.805-1.074,3.624-2.546,8.588.065,9.863a2.859,2.859,0,0,0,2.322.361c1.188-.442,2.405-2.152,3.721-5.227,2.679-6.264,9.282-17.6,9.348-17.712a.374.374,0,1,1,.647.377c-.066.113-6.646,11.408-9.307,17.63-1.42,3.32-2.738,5.11-4.148,5.635a2.681,2.681,0,0,1-.945.171" transform="translate(-22.484 -1047.145)"/>
            <path id="Path_183897" data-name="Path 183897" d="M36,1432.863a2.139,2.139,0,0,1-1.269-.416.375.375,0,0,1,.444-.6,1.4,1.4,0,0,0,1.692-.03,2.446,2.446,0,0,0,.656-3,25.243,25.243,0,0,1-2.185-6.794,15.421,15.421,0,0,1,0-4.682.374.374,0,0,1,.742.1,14.688,14.688,0,0,0-.006,4.45,24.509,24.509,0,0,0,2.118,6.592,3.2,3.2,0,0,1-.861,3.925,2.141,2.141,0,0,1-1.332.462" transform="translate(-27.859 -1141.511)"/>
            <path id="Path_183898" data-name="Path 183898" d="M52.909,1432.161a.374.374,0,0,1-.335-.206c-.115-.23-.248-.48-.391-.749a19.668,19.668,0,0,1-2.525-12.3.374.374,0,1,1,.738.128,19.864,19.864,0,0,0,.234,6,19.369,19.369,0,0,0,2.214,5.82c.146.275.281.529.4.764a.374.374,0,0,1-.334.543" transform="translate(-39.873 -1142.787)"/>
            <path id="Path_183899" data-name="Path 183899" d="M65.1,1419.953a.373.373,0,0,1-.287-.134,23.593,23.593,0,0,1-3.127-5.016c-1.166-2.677-.624-6.733-.6-6.9a.374.374,0,1,1,.742.1c-.005.04-.537,4.021.545,6.5a23.23,23.23,0,0,0,3.015,4.834.375.375,0,0,1-.287.615" transform="translate(-49.09 -1133.911)"/>
            <g id="Group_175083" data-name="Group 175083" transform="translate(6.516 269.647)" style="mix-blend-mode: overlay;isolation: isolate">
              <g id="Group_175082" data-name="Group 175082">
                <g id="Group_175081" data-name="Group 175081" clip-path="url(#clip-path-3)">
                  <path id="Path_183900" data-name="Path 183900" d="M35.924,1392.906a2.311,2.311,0,0,1-.912-.187,3.092,3.092,0,0,1,2.4-5.622,2.445,2.445,0,0,1,1.368,1.585,3.429,3.429,0,0,1-1.682,3.932,2.61,2.61,0,0,1-1.179.292m.581-5.245a2.329,2.329,0,0,0-2.019,1.509,2.13,2.13,0,0,0,.821,2.862,1.708,1.708,0,0,0,1.459-.086,2.681,2.681,0,0,0,1.3-3.046,1.706,1.706,0,0,0-.946-1.114,1.559,1.559,0,0,0-.617-.125" transform="translate(-33.515 -1386.913)"/>
                </g>
              </g>
            </g>
          </g>
        </g>
        <g id="Group_175087" data-name="Group 175087" transform="translate(94.023 125.708)">
          <g id="Group_175086" data-name="Group 175086" clip-path="url(#clip-path-4)">
            <rect id="Rectangle_45309" data-name="Rectangle 45309" width="64.782" height="6.019" transform="translate(-4.843 0.406)" fill="#fe3a01"/>
            <rect id="Rectangle_45310" data-name="Rectangle 45310" width="64.782" height="6.019" transform="translate(-4.843 6.264)" fill="#ff8400"/>
            <rect id="Rectangle_45311" data-name="Rectangle 45311" width="64.782" height="6.019" transform="translate(-4.843 12.122)" fill="#ffc849"/>
            <rect id="Rectangle_45312" data-name="Rectangle 45312" width="64.782" height="6.019" transform="translate(-4.843 17.98)" fill="#51af55"/>
            <rect id="Rectangle_45313" data-name="Rectangle 45313" width="64.782" height="6.019" transform="translate(-4.843 23.837)" fill="#3b82ff"/>
            <rect id="Rectangle_45314" data-name="Rectangle 45314" width="64.782" height="6.019" transform="translate(-4.843 29.695)" fill="#b034c1"/>
          </g>
        </g>
        <g id="Group_175089" data-name="Group 175089" transform="translate(0 -0.001)">
          <g id="Group_175088" data-name="Group 175088" clip-path="url(#clip-path-2)">
            <path id="Path_183901" data-name="Path 183901" d="M933.935,654.054a.584.584,0,0,1-.509-.867L955.7,613.061a.583.583,0,0,1,1.02.566l-22.272,40.127a.583.583,0,0,1-.511.3" transform="translate(-751.888 -493.626)"/>
            <path id="Path_183902" data-name="Path 183902" d="M186.073,746.013a.581.581,0,0,1-.337-.108L152.9,722.58a.583.583,0,1,1,.676-.951l32.836,23.325a.583.583,0,0,1-.338,1.059" transform="translate(-122.975 -581.241)"/>
            <path id="Path_183903" data-name="Path 183903" d="M1059.783,582.555a.584.584,0,0,1-.536-.446l-15.395-64.062a.583.583,0,0,1,1.134-.273l15.395,64.062a.583.583,0,0,1-.6.719" transform="translate(-840.892 -416.746)"/>
            <path id="Path_183904" data-name="Path 183904" d="M871.836,738.861a.584.584,0,0,1-.574-.482l-2.635-14.986a.583.583,0,0,1,1.149-.2l2.635,14.987a.584.584,0,0,1-.474.676.573.573,0,0,1-.1.009" transform="translate(-699.74 -582.197)"/>
            <path id="Path_183905" data-name="Path 183905" d="M58.121,1201.364l-2.717,9.583a1.042,1.042,0,0,0,.569,1.232l13.247,6.066a1.042,1.042,0,0,0,1.4-.557l3.833-9.466a1.042,1.042,0,0,0-.554-1.349l-14.363-6.183a1.042,1.042,0,0,0-1.415.673" transform="translate(-44.6 -967.18)" fill="#fd521b"/>
            <path id="Path_183906" data-name="Path 183906" d="M217.466,2519.445l7.886,30.516-59.851.114s-1.061-13.457,4.469-16.527,16.167-6.319,16.167-6.319l7.526-10.22,7.9-.093,12.357,10.221Z" transform="translate(-133.258 -2027.571)" fill="#5774cd"/>
            <path id="Path_183907" data-name="Path 183907" d="M264.765,2502.542s1.119-8.9,6.438-9.116,7.584,2.047,5.926,6.552-12.695,13.153-12.695,13.153l-6.392-3.581Z" transform="translate(-207.873 -2008.637)" fill="#fd521b"/>
            <path id="Path_183908" data-name="Path 183908" d="M225.352,2594.606l-1.84-7.12H196.862c-.353-3.389-1.278-7.009-3.261-9.665-3-4.015-6.42-5.221-8.922-5.484-3.1,1-10.432,3.482-14.708,5.856-2.735,1.519-3.857,5.579-4.294,9.293h-.039c-.045.479-.079.986-.1,1.5a41.858,41.858,0,0,0-.032,5.733h31.336c0-.019,0-.041.007-.06Z" transform="translate(-133.258 -2072.218)" fill="#3d518f"/>
            <path id="Path_183909" data-name="Path 183909" d="M277.173,2532.98H262.959a.366.366,0,1,1,0-.733h12.079l-11.887-4.2a.366.366,0,0,1,.122-.711h17.652l-14.019-3.586a.367.367,0,0,1,.181-.71l16.838,4.308a.366.366,0,0,1-.091.721H265.408l11.887,4.2a.366.366,0,0,1-.122.712" transform="translate(-211.538 -2032.494)" fill="#fff"/>
            <path id="Path_183910" data-name="Path 183910" d="M887.709,2521.515l-7.875,30.516,59.77.115s1.06-13.457-4.463-16.528S919,2529.3,919,2529.3l-7.516-10.22-7.887-.093-12.341,10.22Z" transform="translate(-708.775 -2029.24)" fill="#5774cd"/>
            <path id="Path_183911" data-name="Path 183911" d="M1007.278,2504.613s-1.118-8.9-6.429-9.116-7.573,2.047-5.918,6.553,12.678,13.153,12.678,13.153l6.383-3.582Z" transform="translate(-801.065 -2010.305)" fill="#fd521b"/>
            <path id="Path_183912" data-name="Path 183912" d="M939.6,2659.565l-59.77-.115,1.837-7.119h57.8a69.307,69.307,0,0,1,.136,7.235" transform="translate(-708.775 -2136.658)" fill="#3d518f"/>
            <path id="Path_183913" data-name="Path 183913" d="M1028.678,2579.892c3-4.015,6.412-5.22,8.91-5.484,3.1,1,10.418,3.482,14.688,5.856,5.523,3.071,4.463,16.528,4.463,16.528h-31.293c-.482-4-.382-12.056,3.232-16.9" transform="translate(-825.91 -2073.886)" fill="#3d518f"/>
            <path id="Path_183914" data-name="Path 183914" d="M1000.859,2535.052h-14.2a.367.367,0,0,1-.122-.712l11.871-4.2h-18.4a.366.366,0,0,1-.091-.72l16.815-4.308a.366.366,0,0,1,.181.71l-14,3.586h17.628a.366.366,0,0,1,.122.711l-11.87,4.2h12.062a.366.366,0,0,1,0,.732" transform="translate(-789.182 -2034.164)" fill="#fff"/>
          </g>
        </g>
      </g>
    </g>
  </g>
</svg>
