<svg xmlns="http://www.w3.org/2000/svg" xmlns:xlink="http://www.w3.org/1999/xlink" width="193" height="197" viewBox="0 0 193 197">
  <defs>
    <clipPath id="clip-path">
      <rect id="Rectangle_338492" data-name="Rectangle 338492" width="157.708" height="122.222" fill="none"/>
    </clipPath>
  </defs>
  <g id="_5" data-name="5" transform="translate(-874 -1834)">
    <rect id="Rectangle_338462" data-name="Rectangle 338462" width="193" height="197" rx="13" transform="translate(874 1834)" fill="#a6bbff"/>
    <g id="Group_982984" data-name="Group 982984" transform="translate(892 1871)">
      <g id="Group_982983" data-name="Group 982983" clip-path="url(#clip-path)">
        <path id="Path_207306" data-name="Path 207306" d="M28.282,2.233C28.87.4,29.374.069,31.616.069H90.672C108.25.068,125.83.224,143.406,0c8.6-.11,14.22,6.186,14.252,14.011q.1,24.131-.021,48.262A14.983,14.983,0,0,1,142.25,77.8q-61.292.033-122.584.047c-1.594,0-3.191-.117-4.779-.041C6.51,78.205-.092,69.877,0,62.744c.217-16.6.172-33.2.012-49.8C-.041,7.308,4.858.159,12.506.077c2.776-.03,5.551,0,8.327-.011a2.488,2.488,0,0,1,2.771,2.3c.215,1.618-.638,2.631-2.441,2.749-1.846.122-3.7.028-5.55.043-.36,0-.72,0-1.08,0-6.391,0-9.658,3.237-9.676,9.7-.033,11.617-.009,23.235-.009,34.852,0,3.907-.081,7.816.024,11.72.1,3.749,1.3,7.057,4.435,9.416a8.426,8.426,0,0,0,.778.5c.839.5,1.241.252,1.241-.714,0-.411-.025-.823.012-1.234.128-2.089-.117-4.173.571-6.254a11.551,11.551,0,0,1,10.519-8.076c5.242-.393,10.478-.241,15.716-.246q46.723-.045,93.447-.018a28.948,28.948,0,0,1,4.148.271A11.649,11.649,0,0,1,146.124,66.9c.012,1.233,0,2.467.009,3.7.011.982.436,1.164,1.262.694a9.506,9.506,0,0,0,3.994-4.56,14.234,14.234,0,0,0,1.182-5.854q.018-23.053.005-46.107a11.515,11.515,0,0,0-2.128-6.8,7.679,7.679,0,0,0-5.65-2.744c-.82-.073-1.644-.039-2.466-.039q-54.646,0-109.294,0a17.993,17.993,0,0,1-2.617-.074c-1.7-.25-2.329-1.115-2.139-2.881"/>
        <path id="Path_207307" data-name="Path 207307" d="M11.734,69.449c.016.872.036,1.744.042,2.615a2.6,2.6,0,0,1-.135.527,10.282,10.282,0,0,1-6.263-6.178A13,13,0,0,1,4.416,61.3q0-23.424,0-46.847A10.281,10.281,0,0,1,6.688,7.587a7.8,7.8,0,0,1,6.22-2.861c2.62-.013,5.239.011,7.859-.01,1.8-.015,2.408-.546,2.837-2.356a16.71,16.71,0,0,0,4.679-.13c.353,2.013.935,2.489,3.152,2.489q20.736.009,41.474,0,35.54,0,71.077-.005c2.759,0,5.159.729,6.841,3.082-.8.674-1.761.463-2.663.464q-24.361.021-48.723.01-36.929,0-73.856-.012a37.181,37.181,0,0,0-5.373.413c-4.4.636-8.034,5.2-8.218,10.243-.067,1.849-.017,3.7-.018,5.551q0,18.348-.005,36.7c0,2.763-.655,5.509-.237,8.285" fill="#2375ea"/>
        <path id="Path_207308" data-name="Path 207308" d="M112.877,111.661c0-2.773-.155-5.557.036-8.318a8.026,8.026,0,0,1,7.365-7.6c3.466-.426,4.375-1.461,4.377-4.993,0-2.312-.017-4.625.006-6.938.017-1.774.936-2.81,2.387-2.765,1.377.041,2.24,1.065,2.251,2.757.019,2.826.062,5.655-.016,8.479a8.186,8.186,0,0,1-7.629,8.025c-3.014.258-4.15,1.486-4.159,4.55-.012,4.574,0,9.148-.006,13.722a9.778,9.778,0,0,1-.084,1.532,2.173,2.173,0,0,1-2.268,2.071,2.133,2.133,0,0,1-2.29-2.2c-.1-2.205-.052-4.418-.064-6.627,0-.565,0-1.13,0-1.7h.094"/>
        <path id="Path_207309" data-name="Path 207309" d="M54.924,111.353c0-2.518-.065-5.037.015-7.552a8.164,8.164,0,0,1,7.426-8.053c3.481-.432,4.344-1.391,4.347-4.837,0-2.312-.015-4.625.005-6.937.017-1.886.927-2.957,2.419-2.913,1.44.042,2.232,1.036,2.237,2.9.007,2.877.058,5.757-.052,8.63A8.108,8.108,0,0,1,63.9,100.3c-3.249.287-4.323,1.451-4.326,4.712q-.006,7.09,0,14.181a2.79,2.79,0,0,1-1.181,2.674,2.269,2.269,0,0,1-3.461-2.038c-.071-2.824-.018-5.651-.018-8.477h.005"/>
        <path id="Path_207310" data-name="Path 207310" d="M16.358,111.541c0-2.722-.135-5.453.031-8.165a8.05,8.05,0,0,1,7.344-7.625c3.52-.445,4.4-1.438,4.4-4.963,0-2.313-.014-4.626.005-6.938.015-1.774.925-2.828,2.363-2.8,1.386.024,2.262,1.035,2.276,2.726.023,2.775.053,5.552-.008,8.326a8.177,8.177,0,0,1-7.757,8.216c-2.838.262-4.023,1.516-4.035,4.359-.019,4.677,0,9.354-.01,14.03a8.479,8.479,0,0,1-.106,1.529,2.143,2.143,0,0,1-2.364,1.949,2.1,2.1,0,0,1-2.157-2.165c-.08-2.207-.048-4.418-.062-6.627,0-.616,0-1.233,0-1.85h.077"/>
        <path id="Path_207311" data-name="Path 207311" d="M74.163,111.21c.1-2.352-.215-5.238.138-8.1a8.136,8.136,0,0,1,7.458-7.369c3.282-.383,4.295-1.5,4.3-4.758.005-2.416-.02-4.832.009-7.247.021-1.689.911-2.684,2.307-2.682,1.379,0,2.319,1.025,2.34,2.689.036,2.775.081,5.553-.009,8.326a8.22,8.22,0,0,1-7.749,8.244c-2.88.256-4.1,1.543-4.111,4.472-.026,4.575-.006,9.149-.009,13.723a15.169,15.169,0,0,1-.048,1.539,2.142,2.142,0,0,1-2.191,2.138,2.065,2.065,0,0,1-2.318-1.983c-.145-1.579-.1-3.177-.116-4.767-.015-1.234,0-2.467,0-4.223"/>
        <path id="Path_207312" data-name="Path 207312" d="M35.563,111.568c0-2.415-.032-4.831.005-7.245a8.328,8.328,0,0,1,7.9-8.612c2.819-.3,3.95-1.542,3.978-4.429.024-2.518-.024-5.037.018-7.554.027-1.664.832-2.587,2.173-2.662a2.249,2.249,0,0,1,2.452,2.39,70.792,70.792,0,0,1-.159,10.006,8.119,8.119,0,0,1-7.28,6.836c-3.3.29-4.415,1.5-4.418,4.808-.005,4.779-.015,9.558.005,14.337.006,1.408-.5,2.422-1.943,2.722-1.46.3-2.684-.841-2.715-2.581-.048-2.671-.012-5.344-.012-8.016"/>
        <path id="Path_207313" data-name="Path 207313" d="M93.5,111.521c0-2.466-.032-4.933.007-7.4a8.238,8.238,0,0,1,7.6-8.39c3.24-.378,4.2-1.434,4.206-4.656.006-2.466-.056-4.934.02-7.4.066-2.108,1.784-3.227,3.436-2.345a2.272,2.272,0,0,1,1.207,2.169c-.006,3.081.081,6.169-.085,9.242a8.007,8.007,0,0,1-7.537,7.562c-3.007.261-4.193,1.532-4.2,4.544q-.013,7.32,0,14.642a2.439,2.439,0,0,1-1.563,2.57,2.164,2.164,0,0,1-2.408-.552,2.725,2.725,0,0,1-.69-2.13c.014-2.62,0-5.24.007-7.86"/>
        <path id="Path_207314" data-name="Path 207314" d="M11.734,69.449c-.414-.493-.24-1.085-.24-1.631q-.017-24.426-.008-48.851A11.1,11.1,0,0,1,19.447,8.308a17.1,17.1,0,0,1,4.4-.5q63.49-.034,126.983-.014a9.1,9.1,0,0,1,2.18,6.405c.029,15.775.071,31.55-.019,47.325-.026,4.858-2.03,8.744-6.668,10.9a4.916,4.916,0,0,1-.67.165c0-1.992.021-3.906,0-5.82a11.1,11.1,0,0,0-8.426-10.977,13.505,13.505,0,0,0-3.654-.422q-53.953.01-107.906.05c-2.243,0-4.517-.169-6.684.748a11.036,11.036,0,0,0-7.15,9.74c-.113,1.172-.066,2.36-.092,3.541" fill="#5493f9"/>
        <path id="Path_207315" data-name="Path 207315" d="M17.092,64.222a6.048,6.048,0,0,1,5.789-4.052c13.2-.291,26.412-.195,39.618-.207,6.477-.006,12.956-.112,19.43.023,17.319.361,34.638.083,51.956.149a6.618,6.618,0,0,1,6.467,3.807c-.536.487-1.124.266-1.647.269-5.757.019-11.514.011-17.272.011-.36,0-.72-.008-1.079,0a2.459,2.459,0,0,0-2.658,2.4,2.357,2.357,0,0,0,2.627,2.225c3.546.023,7.093.01,10.64.01,2.93,0,5.861.026,8.79-.014.879-.011,1.269.177,1.289,1.177.066,3.143.111,3.142-3.009,3.142q-59.757,0-119.515-.017c-.672,0-1.725.416-1.959-.34a8.284,8.284,0,0,1-.031-3.663c.04-.257.4-.274.661-.276.462-.005.925-.009,1.388-.009h90.214c.617,0,1.235.019,1.851-.011a2.257,2.257,0,0,0,2.311-2.181,2.342,2.342,0,0,0-2.119-2.419,12.557,12.557,0,0,0-1.541-.026q-45.108,0-90.215,0Z" fill="#4a4f54"/>
        <path id="Path_207316" data-name="Path 207316" d="M89.11,16.117a2.44,2.44,0,0,1,2.763-2.28,17.29,17.29,0,0,1,4.142.233A7.28,7.28,0,0,1,94.422,28.4c-1.537.09-3.083.03-4.625.03-8.686,0-17.373.017-26.059-.008-4.178-.011-7.189-2.573-7.731-6.479-.526-3.8,2.406-7.831,6.223-7.958,6.622-.22,13.256-.112,19.885-.114,1.519,0,2.118,1.031,2.373,2.358.353,1.191-.374,1.82-1.256,2.329a4.641,4.641,0,0,1-2.38.5c-5.475,0-10.95.061-16.423-.029-.356.043-.716.013-1.074.037a1.979,1.979,0,0,0-2.082,1.861,2.005,2.005,0,0,0,1.582,2.172,6.033,6.033,0,0,0,1.975.265c9.287.008,18.575.022,27.862-.008,2.426-.008,3.178-.589,3.539-2.5a2.277,2.277,0,0,0-2.584-1.862,8.48,8.48,0,0,1-2.876-.256,2.155,2.155,0,0,1-1.661-2.62"/>
        <path id="Path_207317" data-name="Path 207317" d="M138.839,27.914A6.748,6.748,0,0,1,132,21.1a6.845,6.845,0,0,1,6.854-6.839,6.916,6.916,0,0,1,6.789,6.783,6.8,6.8,0,0,1-6.808,6.87"/>
        <path id="Path_207318" data-name="Path 207318" d="M121.2,27.909a6.821,6.821,0,0,1-7-6.682,6.933,6.933,0,0,1,6.769-6.965,6.85,6.85,0,0,1,6.883,6.656,6.752,6.752,0,0,1-6.653,6.991"/>
        <path id="Path_207319" data-name="Path 207319" d="M89.11,16.117c.442,1.819,1.064,2.328,2.943,2.386.759.023,1.524-.026,2.278.046a2.257,2.257,0,0,1,2.319,2.139c-.291,1.03-1.178.806-1.877.819-2.663.052-5.327.021-7.99.021q-8.911,0-17.824.005a5.328,5.328,0,0,1-3.944-1.389c-.435-.423-.923-.844-.79-1.565q8.5-.036,17-.076c2.065-.012,2.63-.418,3.266-2.274a33.8,33.8,0,0,1,4.622-.112" fill="#a0feb9"/>
        <path id="Path_207320" data-name="Path 207320" d="M64.226,18.58a5.437,5.437,0,0,0,4.941,2.5c8.582-.088,17.165-.031,25.748-.046.587,0,1.25.229,1.736-.345.117,1.671-.443,2.562-1.927,2.913a8.065,8.065,0,0,1-1.826.16q-14.16.014-28.32.006c-.206,0-.411,0-.616,0-2.124-.044-3.409-1.126-3.313-2.787s1.373-2.524,3.577-2.4" fill="#78f2aa"/>
        <path id="Path_207321" data-name="Path 207321" d="M139.178,23.162a1.916,1.916,0,0,1-2.283-1.129,1.9,1.9,0,0,1,.2-2.173,1.845,1.845,0,0,1,2.417-.71c-.563,1.3-.295,2.668-.332,4.012" fill="#cf2e2e"/>
        <path id="Path_207322" data-name="Path 207322" d="M139.178,23.162c-.55-1.392-1.012-2.777.333-4.012a1.854,1.854,0,0,1,1.435,2.061,1.915,1.915,0,0,1-1.768,1.951" fill="#f45555"/>
        <path id="Path_207323" data-name="Path 207323" d="M121.3,23.158c-1.542-.027-2.549-.968-2.4-2.246.154-1.354,1.22-2.048,2.75-1.791-.355,1.325-.035,2.708-.346,4.037" fill="#cc2d2d"/>
        <path id="Path_207324" data-name="Path 207324" d="M121.3,23.158c-.316-1.383-.829-2.782.347-4.037a1.851,1.851,0,0,1,1.5,2.174,1.813,1.813,0,0,1-1.844,1.863" fill="#f75656"/>
      </g>
    </g>
  </g>
</svg>
