<svg xmlns="http://www.w3.org/2000/svg" xmlns:xlink="http://www.w3.org/1999/xlink" width="315.591" height="225.575" viewBox="0 0 315.591 225.575">
  <defs>
    <clipPath id="clip-path">
      <path id="Path_189400" data-name="Path 189400" d="M10.213,25.908H310.024c4.358,0,7.89,3.884,7.89,8.676V242.807c0,4.792-3.532,8.676-7.89,8.676H10.213c-4.358,0-7.89-3.884-7.89-8.676V34.584c0-4.792,3.532-8.676,7.89-8.676" transform="translate(-2.323 -46.349)" fill="#a6bbff"/>
    </clipPath>
    <clipPath id="clip-path-2">
      <rect id="Rectangle_338719" data-name="Rectangle 338719" width="312.248" height="501.284" fill="none"/>
    </clipPath>
    <clipPath id="clip-path-3">
      <path id="Path_209887" data-name="Path 209887" d="M72.765,26.755s5.526,13.067,18.972,4.636c0,0-3.578-8.829-10.409-8.829-2.444,0-5.3,1.128-8.563,4.192" transform="translate(-72.765 -22.563)" fill="none"/>
    </clipPath>
    <clipPath id="clip-path-4">
      <path id="Path_209889" data-name="Path 209889" d="M91.066,31.9c13.281,4.723,15.558-7.67,15.558-7.67-2.24-2.417-4.259-3.353-6.047-3.353-6.131,0-9.51,11.023-9.51,11.023" transform="translate(-91.066 -20.875)" fill="none"/>
    </clipPath>
  </defs>
  <g id="Group_983522" data-name="Group 983522" transform="translate(-1.578 0)">
    <g id="Group_176387" data-name="Group 176387">
      <path id="Path_189401" data-name="Path 189401" d="M10.213,25.908H310.024a7.89,7.89,0,0,1,7.89,7.89V223.152a7.89,7.89,0,0,1-7.89,7.89H10.213a7.89,7.89,0,0,1-7.89-7.89V33.8a7.89,7.89,0,0,1,7.89-7.89" transform="translate(-0.745 -5.467)" fill="#6b8dfc"/>
      <g id="Mask_Group_335" data-name="Mask Group 335" transform="translate(1.579 20.441)" clip-path="url(#clip-path)">
        <g id="Group_176397" data-name="Group 176397" transform="translate(-109.949 30.219) rotate(-6)">
          <g id="Group_176396" data-name="Group 176396" transform="translate(0 0)">
            <g id="Group_176395" data-name="Group 176395">
              <path id="Path_189395" data-name="Path 189395" d="M413.919,210.61c-31.181,31.369-63.309,61.678-96.008,91.5,14.94-30.829,30.924-61.235,45.191-92.351,16.172-35.282,35.279-83.244,18.479-118.763-38.3-80.96-148.128,4.976-189.076,48.39-4.366,4.622-8.543,9.436-12.774,14.2,15.466-34.277,29.586-69.42,27.9-105.642-2.323-49.8-48.351-59.746-89.48-34.746C73.981,40.047,37.476,84.737,6.845,125.213c-26.013,34.377,28.681,63.6,54.48,29.708a496.388,496.388,0,0,1,45.96-52.268q-3.765,6.435-7.6,12.856c-16.921,28.276-33.655,56.653-47.736,86.245C24.984,258.428-14.652,336.979,13.516,394.1c14.2,28.783,50.443,30.172,78.38,16.972,37.547-17.742,64.647-54.449,90.586-85.647,27.076-32.575,51.173-66.959,76.4-100.815,10.547-14.148,21.09-28.49,33.018-41.6.273-.3.564-.578.837-.883l-.325.9c-7.175,19.59-16.124,38.48-25.167,57.422-16.837,35.238-38.177,72.494-45.461,110.359-6.444,33.478,5.571,70.15,46.312,65.944,38.3-3.952,70.532-41.525,97.153-66.839,32.243-30.661,63.955-61.883,95.671-93.069C494.036,224.287,446.666,177.67,413.919,210.61Z" transform="translate(6.263 6.116)" fill="#3c3fa7"/>
              <path id="Path_189396" data-name="Path 189396" d="M270.443,429.227c-14.991.661-27.478-3.953-36.291-13.469-12.249-13.228-16.8-35.452-12.187-59.455,6.012-31.281,21.117-61.66,35.727-91.039,3.492-7.035,6.955-14,10.249-20.881,3.117-6.532,6.4-13.393,9.663-20.485-1.919,2.555-3.819,5.109-5.7,7.637l-1.867,2.5c-6.555,8.794-13.032,17.628-19.509,26.449-18.167,24.778-36.959,50.4-57.13,74.656q-4.419,5.324-8.9,10.821c-23.149,28.258-49.385,60.291-84.072,76.684-30.93,14.6-70.48,12.63-86.263-19.387-28.367-57.507,8.5-134.749,35.423-191.153l3.062-6.408c7.922-16.66,16.7-32.969,25.955-49.225q-3.134,3.943-6.177,7.932C56.48,185.364,30.152,186.221,13.9,174.94.466,165.61-6.5,147.471,8.258,127.973,40.952,84.765,77.3,41.074,121.506,14.2c24.541-14.905,50.81-18.309,70.309-9.1,17.163,8.107,27.2,25.2,28.273,48.142,1.254,26.908-5.831,53.035-15.531,78.078,33.173-31.98,93.918-77.946,140.8-73.455C366.9,59.936,383.1,72.143,393.5,94.14c17.111,36.174.235,82.888-18.526,123.82-8.932,19.479-18.666,38.957-28.082,57.788l-3.333,6.663c26.612-24.712,50.458-47.7,72.384-69.75h0c10.84-10.912,24.189-15.327,37.552-12.467a40.06,40.06,0,0,1,30.179,29.459c3.107,13.278-1.264,26.569-12.313,37.429l-3.607,3.548c-30.029,29.529-61.08,60.059-92.141,89.6-3.828,3.643-7.766,7.534-11.833,11.546-24.151,23.849-54.212,53.538-89.322,57.162C273.1,429.073,271.768,429.169,270.443,429.227Zm28.79-246.82a5.558,5.558,0,0,1,2.961.66,5.442,5.442,0,0,1,2.619,6.79l-.331.9c-7.52,20.536-17.021,40.436-25.4,57.986-3.321,6.948-6.819,13.977-10.344,21.075-14.216,28.588-28.914,58.147-34.6,87.71-3.86,20.077-.218,39.074,9.508,49.578,7.2,7.78,17.5,11,30.614,9.692,30.4-3.142,57.361-29.761,81.144-53.254,4.125-4.076,8.134-8.031,12.02-11.724,30.977-29.456,61.989-59.947,91.98-89.438l3.6-3.548c9.768-9.6,10.06-19.146,8.582-25.468a29.251,29.251,0,0,0-21.735-21.235c-6.329-1.364-15.871-.955-25.423,8.659h0c-28.326,28.487-59.81,58.494-96.26,91.738a6.367,6.367,0,0,1-7.817.807,5.7,5.7,0,0,1-1.723-7.328c5.645-11.656,11.442-23.246,17.234-34.842,9.368-18.732,19.048-38.1,27.891-57.384,17.576-38.337,33.516-81.828,18.431-113.711-8.773-18.54-21.564-28.373-39.1-30.063C299.37,65.822,235.42,115.2,203.128,149.431c-3.439,3.65-6.766,7.423-10.1,11.189l-2.526,2.861a6.472,6.472,0,0,1-7.974,1.562,5.672,5.672,0,0,1-2.165-7.394C195.1,125.006,209.349,90.168,207.7,54.875c-.883-18.918-8.5-32.3-22.035-38.689-15.79-7.45-37.6-4.365-58.35,8.244-42.2,25.649-77.5,68.151-109.357,110.257-10.07,13.305-4.708,24.257,3.665,30.069,11.34,7.871,29.6,8.051,41.118-7.088a504.2,504.2,0,0,1,46.611-53,6.376,6.376,0,0,1,8.113-.942,5.77,5.77,0,0,1,1.384,7.726q-3.785,6.473-7.636,12.912c-17.135,28.632-33.652,56.732-47.433,85.684l-3.063,6.426C34.894,270.583-.476,344.693,25.4,397.163c12.571,25.5,44.978,26.61,70.491,14.564,31.84-15.039,55.931-44.458,79.225-72.9q4.521-5.52,8.967-10.9c19.9-23.936,38.563-49.38,56.617-73.989q9.735-13.278,19.562-26.537l1.867-2.5c9.9-13.292,20.128-27.036,31.582-39.624l.584-.616A7.464,7.464,0,0,1,299.232,182.407Zm120.949,34.32.062,0Z"/>
            </g>
            <path id="Path_189397" data-name="Path 189397" d="M29.99,3.316C5.149,49.457-10.089,102.931,7.775,150.564c2.645,7.038,14.767,3.376,12.09-3.77C3.088,102.07,17.044,52.394,40.408,9,44.257,1.836,33.859-3.875,29.99,3.316Z" transform="translate(26.649 235.341)"/>
            <path id="Path_189398" data-name="Path 189398" d="M17.828,32.446c-.1-.007-.2-.034-.3-.047-.158-.328-.3-.674-.355-.769l-.023-.036c-.01-.048.007-.019-.008-.091-.677-2.684-1.129-5.42-1.606-8.161Q13.86,13.789,12.2,4.235C11.654,1.144,7.866-.794,4.764.316A6.847,6.847,0,0,0,.105,8L3.884,29.612c1.054,6,2.809,13.851,10.124,14.739,3.16.378,6.861-1.124,7.807-4.6C22.628,36.779,21.215,32.857,17.828,32.446Z" transform="translate(51.85 334.048)"/>
            <path id="Path_189399" data-name="Path 189399" d="M24.429.648c-6.863-3.384-13.6,7.414-6.72,10.8C27.2,16.131,29.7,26.4,29.629,36.594,29.555,48.174,27.7,60.163,25.27,71.671A248.814,248.814,0,0,1,.843,138.1c-3.856,7.16,6.549,12.87,10.418,5.679A261.041,261.041,0,0,0,38.755,65.6C42.656,43.5,47.551,12.04,24.429.648Z" transform="translate(329.526 93.782)"/>
          </g>
        </g>
        <g id="Group_983530" data-name="Group 983530" transform="translate(36.138 -20.441)">
          <path id="Path_209818" data-name="Path 209818" d="M120.859,261.421l22.8,54.716,25.429,1.228,11.574-14.557-23.5-63.659Z" transform="translate(77.215 152.787)" fill="#ed8c6b"/>
          <path id="Path_209819" data-name="Path 209819" d="M164.613,258.559l-37.037,16.88,11.79,28.3,25.429,1.228,11.575-14.556Z" transform="translate(81.506 165.188)" fill="#ffb6c8"/>
          <path id="Path_209820" data-name="Path 209820" d="M163.34,255.887l-6.179-16.738-36.3,22.272,6.721,16.132Z" transform="translate(77.215 152.787)"/>
          <g id="Group_983525" data-name="Group 983525">
            <g id="Group_983524" data-name="Group 983524" clip-path="url(#clip-path-2)">
              <path id="Path_209821" data-name="Path 209821" d="M135.47,280.319l-9.106,41.637,104.388.238.193-13.182c.131-9.014-6.7-16.869-16.358-18.791l-40.3-8.03-24.082,6.19Z" transform="translate(80.731 179.09)" fill="#5774cd"/>
              <path id="Path_209822" data-name="Path 209822" d="M150.609,290.208l-2.252-12.129c-.687-3.7,3.147-6.757,7.073-5.644l10.9,3.093c3.512,1,4.99,4.794,2.955,7.588l-9.351,12.836Z" transform="translate(94.731 173.905)" fill="#5774cd"/>
              <path id="Path_209823" data-name="Path 209823" d="M230.044,300.506H128.321a.615.615,0,0,1,0-1.229H230.044a.615.615,0,1,1,0,1.229" transform="translate(81.589 191.202)"/>
              <path id="Path_209824" data-name="Path 209824" d="M173.08,291.689a.606.606,0,0,1-.421-.167.617.617,0,0,1-.028-.869l4.638-4.94-22.264.536h-.015a.615.615,0,0,1-.1-1.221l19.139-3.217a.615.615,0,1,1,.2,1.213l-10.648,1.79,15.124-.364a.7.7,0,0,1,.577.364.616.616,0,0,1-.113.672l-5.643,6.01a.615.615,0,0,1-.447.193" transform="translate(98.628 180.04)"/>
              <path id="Path_209825" data-name="Path 209825" d="M46.172,253.935l3.178,59.19L72.9,322.789l15.778-9.843-.846-67.853Z" transform="translate(29.499 156.585)" fill="#ed8c6b"/>
              <path id="Path_209826" data-name="Path 209826" d="M87.7,265.173l-40.67,2.039L48.8,300.3l23.552,9.666,15.777-9.845Z" transform="translate(30.045 169.414)" fill="#ffb6c8"/>
              <path id="Path_209827" data-name="Path 209827" d="M87.834,245.093l-41.662,8.842.841,15.64,41.146,1.534Z" transform="translate(29.498 156.585)"/>
              <path id="Path_209828" data-name="Path 209828" d="M100.918,276.388l12.423,48.317H29.36l-.918-10.445C27.28,301.022,37.517,291.081,51.481,289l13.9.025,17.879,3.694Z" transform="translate(18.114 176.579)" fill="#5774cd"/>
              <path id="Path_209829" data-name="Path 209829" d="M53.211,293.115l-7.321-9.961a4.9,4.9,0,0,1,3.625-7.717l10.81-1.382a5.109,5.109,0,0,1,5.92,5.644l-2.414,15Z" transform="translate(28.719 175.059)" fill="#5774cd"/>
              <path id="Path_209830" data-name="Path 209830" d="M109.52,300.949H28.647a.615.615,0,1,1,0-1.229H109.52a.615.615,0,1,1,0,1.229" transform="translate(17.909 191.485)"/>
              <path id="Path_209831" data-name="Path 209831" d="M56.995,292.6a.65.65,0,0,1-.166-.023L36.4,286.865a.613.613,0,0,1-.428-.757.621.621,0,0,1,.757-.428l15.461,4.327L36.266,281.1a.616.616,0,0,1-.262-.782.608.608,0,0,1,.752-.339l30.037,9.679a.614.614,0,1,1-.377,1.169l-24.159-7.785,15.037,8.414a.614.614,0,0,1-.3,1.15" transform="translate(22.97 178.85)"/>
              <path id="Path_209832" data-name="Path 209832" d="M16.7,79.165,187.223,61.078a3.78,3.78,0,0,0,3.356-4.155L187.79,30.618a3.774,3.774,0,0,0-4.155-3.356L13.113,45.35A3.774,3.774,0,0,0,9.756,49.5L12.546,75.81A3.777,3.777,0,0,0,16.7,79.165" transform="translate(6.219 17.403)" fill="#a6bbff"/>
              <rect id="Rectangle_338717" data-name="Rectangle 338717" width="9.745" height="34.006" transform="translate(45.088 60.02) rotate(-6.053)"/>
              <rect id="Rectangle_338718" data-name="Rectangle 338718" width="9.745" height="34.006" transform="translate(159.863 47.844) rotate(-6.053)"/>
              <path id="Path_209833" data-name="Path 209833" d="M32.448,193.569,26.9,74.016A22.055,22.055,0,0,1,47.906,50.962l101.171-4.7a25.787,25.787,0,0,1,26.955,24.564l5.205,112.1a25.787,25.787,0,0,1-24.562,26.953L55.5,214.578a22.055,22.055,0,0,1-23.056-21.009" transform="translate(17.169 29.537)" fill="#5774cd"/>
              <path id="Path_209834" data-name="Path 209834" d="M49.851,71.106c4.654.054,19.36-18.593,18.27-23.118-3.784-15.717,2.817-33.42,14.566-43.217a36.347,36.347,0,0,1,53.432,22.9c3.22,13.216,6.243,28.618,19.486,33.286,1.152.406-50.591,22.1-105.755,10.145" transform="translate(31.849 0)" fill="#ffc849"/>
              <path id="Path_209835" data-name="Path 209835" d="M96.824,25.554c1.852-4.425,6.483-6.665,10.343-5.007s5.489,6.592,3.637,11.017-6.483,6.665-10.343,5.007-5.489-6.592-3.637-11.017" transform="translate(61.37 12.778)" fill="#ed8c6b"/>
              <path id="Path_209836" data-name="Path 209836" d="M99.475,29.775a.9.9,0,0,1-.669-.293.912.912,0,0,1,.051-1.29l5.951-5.484a.911.911,0,1,1,1.234,1.341l-5.949,5.485a.912.912,0,0,1-.618.241" transform="translate(62.971 14.353)"/>
              <path id="Path_209837" data-name="Path 209837" d="M103.561,29.485a.9.9,0,0,1-.631-.254l-2.76-2.65a.912.912,0,0,1,1.264-1.316l2.758,2.65a.912.912,0,0,1-.631,1.57" transform="translate(63.818 15.979)"/>
              <path id="Path_209838" data-name="Path 209838" d="M75.192,34.576,63.756,64.533l28.466,3.853L103.409,41.04Z" transform="translate(40.733 22.09)" fill="#ed8c6b"/>
              <path id="Path_209839" data-name="Path 209839" d="M69.281,40.817c5.489,3.95,15.656,10.369,25.758,12.051l4.84-11.828L71.662,34.576Z" transform="translate(44.262 22.09)"/>
              <path id="Path_209840" data-name="Path 209840" d="M64.166,34.907c0-17.862,13.375-32.342,29.872-32.342s29.874,9.91,29.874,32.342c0,17.862-9.31,32.835-25.807,32.835S64.166,52.769,64.166,34.907" transform="translate(40.994 1.639)" fill="#ed8c6b"/>
              <path id="Path_209841" data-name="Path 209841" d="M94.582,1.848c-16.777,0-30.409,15.869-31.268,33.8,6.862-3.817,21.3-13.262,21.9-25.421a70.277,70.277,0,0,0,39.413,15.51C120.7,10.39,108.722,1.848,94.582,1.848" transform="translate(40.45 1.181)" fill="#ffc849"/>
              <path id="Path_209842" data-name="Path 209842" d="M122.272,109.4l90.165,223.035L151.774,357.8,57.982,130.012Z" transform="translate(37.044 69.892)" fill="#fc5f65"/>
              <path id="Path_209843" data-name="Path 209843" d="M36.914,124.329,40.6,356.521l64.987-2.68-6.7-193,19.763-8.039,9.379-47.9Z" transform="translate(23.584 67.019)" fill="#fc5f65"/>
              <path id="Path_209844" data-name="Path 209844" d="M132.154,47.723S189.3,48.86,209.311,76.544l22.913,9.309s20.455,21.961,17.187,57.464-29.216,36.824-43.5,29S178.8,148.8,178.8,148.8L66.814,156.207s-7.645,44.217-41.354,41.711S-1.38,147.373,6.3,129.892,46.287,73.3,58.057,63.294s54.306-15.166,54.306-15.166Z" transform="translate(0 30.489)"/>
              <path id="Path_209845" data-name="Path 209845" d="M63.183,48.35s9.027,21.271,7.49,42.118l-16.9-6.256S51.588,58.831,45.3,49.183Z" transform="translate(28.939 30.89)" fill="#5774cd"/>
              <path id="Path_209846" data-name="Path 209846" d="M107.3,46.232a47.011,47.011,0,0,1-.778,41.968L94.413,82.948s7.717-17.3.615-36.182Z" transform="translate(60.319 29.537)" fill="#5774cd"/>
              <path id="Path_209847" data-name="Path 209847" d="M10.308,123.562a.837.837,0,0,1-.329-.069.82.82,0,0,1-.421-1.08C22.421,93.178,44.508,85.352,44.731,85.276a.819.819,0,0,1,.529,1.55c-.216.074-21.645,7.706-34.2,36.245a.82.82,0,0,1-.751.49" transform="translate(6.062 54.453)" fill="#fff"/>
              <path id="Path_209848" data-name="Path 209848" d="M7.434,105.1a.819.819,0,0,1-.192-1.616l10.425-2.507a.82.82,0,1,1,.383,1.595L7.624,105.075a.872.872,0,0,1-.19.023" transform="translate(4.225 64.497)" fill="#fff"/>
              <path id="Path_209849" data-name="Path 209849" d="M151.107,109.339a.817.817,0,0,1-.788-.6c-4.669-16.828-14.08-26.438-14.175-26.533a.819.819,0,1,1,1.162-1.155c.4.4,9.8,9.986,14.589,27.25a.816.816,0,0,1-.569,1.008.79.79,0,0,1-.22.031" transform="translate(86.828 51.628)" fill="#fff"/>
              <path id="Path_209850" data-name="Path 209850" d="M91.066,31.9s5.633-18.383,15.558-7.672c0,0-2.276,12.393-15.558,7.672" transform="translate(58.18 13.336)" fill="#fff"/>
              <path id="Path_209851" data-name="Path 209851" d="M91.737,31.392s-6.592-16.271-18.972-4.635c0,0,5.526,13.067,18.972,4.635" transform="translate(46.488 14.415)" fill="#fff"/>
              <path id="Path_209852" data-name="Path 209852" d="M87.462,31.819a.913.913,0,0,1-.788-1.372l2.948-5.054a.919.919,0,0,1,.775-.452.953.953,0,0,1,.788.428l2.632,4.214a.912.912,0,1,1-1.547.965l-1.834-2.932L88.25,31.367a.914.914,0,0,1-.788.452" transform="translate(55.295 15.934)"/>
              <path id="Path_209853" data-name="Path 209853" d="M86.519,42.711a.809.809,0,0,1-.206-.025.912.912,0,0,1-.682-1.095,12.814,12.814,0,0,0-1.17-9.17.913.913,0,0,1,.275-1.259.9.9,0,0,1,1.255.27,14.4,14.4,0,0,1,1.416,10.572.913.913,0,0,1-.888.7" transform="translate(53.869 19.816)"/>
              <path id="Path_209854" data-name="Path 209854" d="M86.813,37.144c-.247,0-.4-.01-.433-.011a.915.915,0,0,1-.842-.973.9.9,0,0,1,.973-.846,11.807,11.807,0,0,0,8.009-3.048A.911.911,0,1,1,95.764,33.6a13.424,13.424,0,0,1-8.952,3.547" transform="translate(54.647 20.456)"/>
              <path id="Path_209855" data-name="Path 209855" d="M74.416,22.045a.911.911,0,0,1-.539-1.645c7.2-5.261,13.357-2.922,13.616-2.819a.911.911,0,0,1-.667,1.7c-.22-.085-5.52-2.044-11.87,2.593a.905.905,0,0,1-.539.175" transform="translate(46.961 10.844)"/>
              <path id="Path_209856" data-name="Path 209856" d="M105.234,21.057a.917.917,0,0,1-.539-.175c-6.351-4.641-11.651-2.683-11.87-2.593a.912.912,0,0,1-.667-1.7c.262-.1,6.416-2.442,13.616,2.819a.912.912,0,0,1-.539,1.647" transform="translate(58.51 10.213)"/>
              <path id="Path_209857" data-name="Path 209857" d="M82.558,66.141c-16.022,0-22.285-16.017-22.348-16.179a.82.82,0,0,1,1.534-.582C61.8,49.532,67.682,64.5,82.558,64.5a.819.819,0,0,1,0,1.639" transform="translate(38.434 31.212)" fill="#fff"/>
              <path id="Path_209858" data-name="Path 209858" d="M91,47.234l-18.47.8s-4.041.816-9.166,1.631c2.483,5.141,7.5,13.588,24.7,11.861,7.963-.8,12.026-8.257,13.691-12.8C95.6,48.114,91,47.234,91,47.234" transform="translate(40.485 30.177)" fill="#ed8c6b"/>
              <path id="Path_209859" data-name="Path 209859" d="M97.155,171.449,161.482,149.8V46.152L97.155,67.8Z" transform="translate(62.07 29.486)" fill="#ffb6c8"/>
              <path id="Path_209860" data-name="Path 209860" d="M104.726,166.761,85.7,138.077l.613-84.586,18.41,9.619Z" transform="translate(54.754 34.174)" fill="#ffb6c8"/>
              <path id="Path_209861" data-name="Path 209861" d="M60.887,187.059l41.98-48.983-.611-84.584L60.887,80.269Z" transform="translate(38.899 34.175)" fill="#ffb6c8"/>
              <path id="Path_209862" data-name="Path 209862" d="M77.079,182.225,35.542,149.531,37.79,61.057,77.079,75.435Z" transform="translate(22.707 39.008)" fill="#ffb6c8"/>
              <path id="Path_209863" data-name="Path 209863" d="M76.641,186.076a.613.613,0,0,1-.615-.587l-1.473-33.771A15.981,15.981,0,0,1,86.6,135.728l7.858-1.957a.616.616,0,0,1,.3,1.195l-7.86,1.957a14.742,14.742,0,0,0-11.117,14.748l1.473,33.763a.618.618,0,0,1-.587.642Z" transform="translate(47.624 85.454)"/>
              <path id="Path_209864" data-name="Path 209864" d="M112.6,264.967a.615.615,0,0,1-.243-1.18l60.566-25.819a.615.615,0,0,1,.482,1.131l-60.566,25.819a.62.62,0,0,1-.239.049" transform="translate(71.547 152.001)"/>
              <path id="Path_209865" data-name="Path 209865" d="M39.295,253.68a.615.615,0,0,1-.03-1.229l64.767-2.994a.615.615,0,1,1,.057,1.229L39.324,253.68Z" transform="translate(24.712 159.372)"/>
              <path id="Path_209866" data-name="Path 209866" d="M97.551,163.865a.614.614,0,0,1-.615-.615V59.6a.615.615,0,1,1,1.229,0V163.251a.614.614,0,0,1-.615.615" transform="translate(61.931 37.684)"/>
              <path id="Path_209867" data-name="Path 209867" d="M86.368,139.982a.615.615,0,0,1-.615-.615V53.731a.615.615,0,0,1,1.229,0v85.636a.615.615,0,0,1-.615.615" transform="translate(54.786 33.935)"/>
              <path id="Path_209868" data-name="Path 209868" d="M61.127,177.474a.615.615,0,0,1-.615-.615V70.07a.615.615,0,0,1,1.229,0V176.859a.615.615,0,0,1-.615.615" transform="translate(38.66 44.373)"/>
              <path id="Path_209869" data-name="Path 209869" d="M51.7,78.189,35.238,77.9A4.814,4.814,0,0,0,30.4,82.975a5.166,5.166,0,0,0,5.321,5.081l16.4-.919a4.271,4.271,0,0,0,3.935-4.789A4.56,4.56,0,0,0,51.7,78.189" transform="translate(19.424 49.771)" fill="#ed8c6b"/>
              <path id="Path_209870" data-name="Path 209870" d="M54.272,92.963l-19.64.821a4.76,4.76,0,0,1-4.689-3.574l-.123-.446a4.531,4.531,0,0,1,4.1-5.91l19.763-.374a4.81,4.81,0,0,1,4.738,4.327,4.483,4.483,0,0,1-4.145,5.156" transform="translate(18.933 53.333)" fill="#ed8c6b"/>
              <path id="Path_209871" data-name="Path 209871" d="M53.031,92.858h0a4.148,4.148,0,0,0-4.119-3.53l-13.095.051a4.149,4.149,0,0,0-4.11,3.725L31.6,94.158a4.148,4.148,0,0,0,4.473,4.558l13.2-1.1a4.148,4.148,0,0,0,3.756-4.753" transform="translate(20.174 57.07)" fill="#ed8c6b"/>
              <path id="Path_209872" data-name="Path 209872" d="M49.827,97.089h0A3.6,3.6,0,0,0,46.441,94.5l-10.8.257a3.1,3.1,0,0,0-2.907,3.509l.1,1.2a3.626,3.626,0,0,0,3.887,3.44l10.707-1.455a3.232,3.232,0,0,0,2.406-4.363" transform="translate(20.904 60.375)" fill="#ed8c6b"/>
              <path id="Path_209873" data-name="Path 209873" d="M31.612,83.893l.008-.02a.4.4,0,0,1,.534-.185,7.191,7.191,0,0,0,2.8.469l17.379-.775a6.837,6.837,0,0,1,4.507,1.785,4.472,4.472,0,0,1,1.111,3.486C57.6,93.9,50.169,93.812,49.705,93.8l-10.35.623c-.778.046-5.022.1-6.111.039a.4.4,0,0,1,.046-.8c1.07.061,5.251.007,6.018-.038L49.676,93h.039c.07,0,7.132.216,7.437-4.4a3.712,3.712,0,0,0-.9-2.889,6.089,6.089,0,0,0-3.909-1.531l-17.352.774a7.9,7.9,0,0,1-3.186-.547.4.4,0,0,1-.193-.513" transform="translate(20.176 53.271)"/>
              <path id="Path_209874" data-name="Path 209874" d="M33.134,98.69a.4.4,0,0,1,.39-.244c1.059.061,7.408-.367,8.465-.482.99-.108,4.235-.336,4.373-.346.059,0,6.092-.5,5.825-4.407a3.05,3.05,0,0,0-2.437-2.789,7.755,7.755,0,0,0-2.419-.316.4.4,0,1,1-.046-.8c1.872-.107,5.472.561,5.7,3.846.256,3.761-4.181,5.084-6.564,5.258-.034,0-3.37.236-4.343.343-.995.108-7.444.552-8.6.487a.4.4,0,0,1-.377-.421.438.438,0,0,1,.031-.131" transform="translate(21.149 57.051)"/>
              <path id="Path_209875" data-name="Path 209875" d="M32.827,77.795a.4.4,0,0,1,.365-.244c.1,0,10.577-.066,14.838-.051,4.492.016,7.2,1.949,7.429,5.305.275,4.015-3.748,5.112-3.789,5.122a.4.4,0,1,1-.2-.772c.141-.038,3.424-.946,3.194-4.3-.2-2.927-2.557-4.546-6.636-4.561-4.258-.015-14.725.049-14.83.049a.4.4,0,0,1-.4-.4.406.406,0,0,1,.031-.156" transform="translate(20.953 49.512)"/>
              <path id="Path_209876" data-name="Path 209876" d="M130.1,66.036l15.11-.261a4.419,4.419,0,0,1,4.436,4.654,4.741,4.741,0,0,1-4.884,4.663L129.7,74.248a3.919,3.919,0,0,1-3.61-4.4,4.185,4.185,0,0,1,4.005-3.815" transform="translate(80.544 42.022)" fill="#ed8c6b"/>
              <path id="Path_209877" data-name="Path 209877" d="M128.858,79.6l18.028.754a4.37,4.37,0,0,0,4.3-3.281l.113-.41a4.159,4.159,0,0,0-3.76-5.425L129.4,70.893a4.415,4.415,0,0,0-4.348,3.971,4.115,4.115,0,0,0,3.8,4.733" transform="translate(79.873 45.292)" fill="#ed8c6b"/>
              <path id="Path_209878" data-name="Path 209878" d="M127.379,79.5h0a3.808,3.808,0,0,1,3.781-3.24l12.018.046a3.811,3.811,0,0,1,3.774,3.42l.1.965a3.808,3.808,0,0,1-4.105,4.186l-12.118-1.014a3.809,3.809,0,0,1-3.448-4.363" transform="translate(81.352 48.722)" fill="#ed8c6b"/>
              <path id="Path_209879" data-name="Path 209879" d="M128.815,83.385h0a3.3,3.3,0,0,1,3.107-2.375l9.915.234a2.845,2.845,0,0,1,2.67,3.222l-.087,1.1a3.331,3.331,0,0,1-3.569,3.156l-9.827-1.337a2.965,2.965,0,0,1-2.209-4" transform="translate(82.188 51.755)" fill="#ed8c6b"/>
              <path id="Path_209880" data-name="Path 209880" d="M148.786,71.272l-.008-.018a.365.365,0,0,0-.488-.17,6.581,6.581,0,0,1-2.568.431L129.77,70.8a6.272,6.272,0,0,0-4.138,1.639,4.108,4.108,0,0,0-1.019,3.2c.32,4.818,7.139,4.735,7.565,4.725l9.5.574c.715.041,4.61.092,5.61.034a.366.366,0,0,0-.043-.731c-.982.056-4.818.007-5.523-.034l-9.517-.574a.133.133,0,0,0-.036,0c-.066,0-6.546.2-6.826-4.043a3.4,3.4,0,0,1,.826-2.652,5.587,5.587,0,0,1,3.588-1.4l15.928.71a7.213,7.213,0,0,0,2.922-.5.364.364,0,0,0,.179-.47" transform="translate(79.604 45.235)"/>
              <path id="Path_209881" data-name="Path 209881" d="M145.066,84.854a.369.369,0,0,0-.359-.225c-.97.056-6.8-.336-7.768-.443-.91-.1-3.887-.308-4.014-.316-.056,0-5.592-.459-5.346-4.046a2.8,2.8,0,0,1,2.237-2.56,7.165,7.165,0,0,1,2.219-.29.366.366,0,0,0,.043-.731c-1.719-.1-5.023.515-5.23,3.532-.236,3.451,3.837,4.664,6.025,4.825.031,0,3.091.216,3.986.315.913.1,6.833.506,7.891.446a.365.365,0,0,0,.344-.385.337.337,0,0,0-.028-.121" transform="translate(81.034 48.704)"/>
              <path id="Path_209882" data-name="Path 209882" d="M146.345,65.674a.363.363,0,0,0-.336-.225c-.1,0-9.707-.059-13.619-.046-4.123.015-6.608,1.79-6.819,4.869-.252,3.684,3.44,4.69,3.478,4.7a.367.367,0,0,0,.185-.71,3.889,3.889,0,0,1-2.932-3.943c.184-2.686,2.347-4.173,6.09-4.186,3.909-.015,13.517.044,13.614.044a.365.365,0,0,0,.367-.364.346.346,0,0,0-.028-.143" transform="translate(80.217 41.784)"/>
              <path id="Path_209883" data-name="Path 209883" d="M74.179,27.884c-1.852-4.425-6.483-6.665-10.343-5.007S58.347,29.469,60.2,33.894s6.483,6.665,10.343,5.007,5.489-6.592,3.637-11.017" transform="translate(37.972 14.266)" fill="#ed8c6b"/>
              <path id="Path_209884" data-name="Path 209884" d="M68.511,32.106a.915.915,0,0,1-.618-.241l-5.949-5.485a.911.911,0,1,1,1.234-1.341l5.951,5.484a.912.912,0,0,1-.618,1.583" transform="translate(39.387 15.843)"/>
              <path id="Path_209885" data-name="Path 209885" d="M63.182,31.816a.912.912,0,0,1-.631-1.57L65.31,27.6a.912.912,0,0,1,1.264,1.316l-2.76,2.65a.9.9,0,0,1-.631.254" transform="translate(39.784 17.469)"/>
            </g>
          </g>
          <g id="Group_983527" data-name="Group 983527" transform="translate(119.253 36.978)">
            <g id="Group_983526" data-name="Group 983526" clip-path="url(#clip-path-3)">
              <path id="Path_209886" data-name="Path 209886" d="M90.953,30.361a7.8,7.8,0,1,1-7.8-7.8,7.8,7.8,0,0,1,7.8,7.8" transform="translate(-71.109 -22.563)"/>
            </g>
          </g>
          <g id="Group_983529" data-name="Group 983529" transform="translate(149.246 34.212)">
            <g id="Group_983528" data-name="Group 983528" clip-path="url(#clip-path-4)">
              <path id="Path_209888" data-name="Path 209888" d="M108.306,28.537a7.8,7.8,0,1,1-7.8-7.8,7.8,7.8,0,0,1,7.8,7.8" transform="translate(-90.016 -20.962)"/>
            </g>
          </g>
        </g>
      </g>
    </g>
  </g>
</svg>
