<svg xmlns="http://www.w3.org/2000/svg" xmlns:xlink="http://www.w3.org/1999/xlink" width="103" height="103" viewBox="0 0 103 103">
  <defs>
    <clipPath id="clip-path">
      <rect id="Rectangle_338657" data-name="Rectangle 338657" width="63.628" height="90.109" fill="none"/>
    </clipPath>
  </defs>
  <g id="_9" data-name="9" transform="translate(-407 -2725)">
    <rect id="Rectangle_338510" data-name="Rectangle 338510" width="103" height="103" rx="11" transform="translate(407 2725)" fill="#3c3fa7"/>
    <g id="Group_983366" data-name="Group 983366" transform="translate(427 2731)">
      <g id="Group_983366-2" data-name="Group 983366" clip-path="url(#clip-path)">
        <path id="Path_208594" data-name="Path 208594" d="M51.891,116.055H13.9c-.4-.459-.276-1.02-.276-1.543q-.014-13.073-.007-26.144a8.142,8.142,0,0,0-.039-1.252c-.055-.357-.121-.763-.586-.771-.48-.008-.528.4-.572.762a8.4,8.4,0,0,0-.026.984c-.012,3.345.264,3-3.059,3a8.827,8.827,0,0,1-2.668-.134c-.4-.25-.359-.664-.36-1.042-.013-3.671-.043-7.342.008-11.012a5.467,5.467,0,0,1,4.231-4.97q4.336-1.107,8.7-2.1a6.086,6.086,0,0,0,1.033-.292c.347-.147.672-.361.573-.791-.107-.465-.514-.428-.876-.378-.414.058-.818.17-1.224.268-2.785.669-5.577,1.314-8.353,2.02a6.772,6.772,0,0,0-5.237,5.2,13.693,13.693,0,0,0-.32,3.288c0,2.805,0,5.61-.005,8.415a2.063,2.063,0,0,1-.214,1.3c-1.414.5-1.9.187-1.908-1.267q-.015-5.149,0-10.3a9.012,9.012,0,0,1,6.5-8.687c4.745-1.318,9.568-2.332,14.348-3.518.873-.217,1.079-.02,1.37.941a8.212,8.212,0,0,0,15.773.469c.059-.2.1-.406.166-.6.271-.84.517-1,1.392-.8,1.4.315,2.787.665,4.178,1,3.218.787,6.457,1.492,9.653,2.366a9.158,9.158,0,0,1,6.744,6.649,6.235,6.235,0,0,1,.241,1.767c0,3.552,0,7.1,0,10.656,0,1.394-.143,1.531-1.545,1.536-2.238.007-4.477.011-6.715,0-1.227-.007-1.376-.17-1.394-1.409-.012-.836.019-1.672-.016-2.507-.017-.4-.089-.84-.586-.863s-.591.419-.642.814a9.052,9.052,0,0,0-.027,1.163q0,13.163-.007,26.326c0,.493.128,1.024-.252,1.458" transform="translate(-1.084 -26.786)" fill="#72c1e8"/>
        <path id="Path_208595" data-name="Path 208595" d="M50.807,89.269q.015-5.864.029-11.727.008-8.417,0-16.834a6.77,6.77,0,0,1,.01-.716c.058-.544.353-.92.915-.9a.842.842,0,0,1,.863.94c0,1.134.026,2.269-.006,3.4-.014.509.148.669.659.665q3.939-.032,7.879,0c.492,0,.675-.127.671-.648-.024-3.641.052-7.284-.043-10.923a8.813,8.813,0,0,0-6.893-8.611c-4.644-1.188-9.322-2.242-13.973-3.4-.634-.158-.738.031-.858.558a8.446,8.446,0,0,1-16.48.107c-.152-.685-.349-.807-1.039-.635-4.536,1.129-9.091,2.18-13.63,3.3A8.948,8.948,0,0,0,1.833,52.6c-.082,3.61-.014,7.223-.034,10.834,0,.5.135.72.653.661.353-.041.711-.041,1.067-.06a1.753,1.753,0,0,1,1.942,0c1.668.018,3.336.027,5,.062.455.01.545-.2.539-.6-.017-1.1.005-2.207-.009-3.31-.01-.633.231-1.094.89-1.093s.9.485.9,1.1c0,1.611,0,3.221,0,4.832q.014,12.123.029,24.245c-.162.466-.414.862-.969.839a.907.907,0,0,1-.878-.818,2.458,2.458,0,0,1-.226-1.478q-.008-9.844,0-19.687c0-.268,0-.537,0-.8-.026-1.073-.129-1.178-1.18-1.207-2.117-.058-4.235-.031-6.353-.036-.33,0-.664-.021-.892.288a3.081,3.081,0,0,0-.131,1.326q-.006,9.977,0,19.954a2.549,2.549,0,0,1-.4,1.787.869.869,0,0,1-1.112.629C.131,89.923.016,89.5.01,89.023c0-.149,0-.3,0-.447Q.008,70.94,0,53.3a11.125,11.125,0,0,1,4.135-9.1,12.668,12.668,0,0,1,5.34-2.354c4.346-1.026,8.683-2.085,13.031-3.1.666-.155.965-.424.854-1.132a4.87,4.87,0,0,1,0-1.25,1.215,1.215,0,0,0-.587-1.28A1.018,1.018,0,0,1,22.34,33.7c.6-.666,1.045-.7,1.9-.01a13.035,13.035,0,0,0,3.546,2.051A11.576,11.576,0,0,0,43.383,25c0-.746-.005-1.492,0-2.238a1.12,1.12,0,0,0-.722-1.114A4.769,4.769,0,0,1,39.8,16.9c.025-1.1-.01-2.208.008-3.312.011-.638-.234-.914-.893-.912q-7.117.015-14.234,0c-.61,0-.861.243-.855.851.013,1.253.019,2.507,0,3.76a4.579,4.579,0,0,1-2.645,4.246,1.459,1.459,0,0,0-.944,1.524A25.1,25.1,0,0,0,20.5,27.7c.187.831-.048,1.105-.861,1.364a1.052,1.052,0,0,1-1.119-1.036c-.093-.678-.267-1.349-.307-2.029-.026-.456-.14-.645-.607-.77a5.913,5.913,0,0,1-.014-11.559c.5-.128.573-.365.57-.807-.019-2.09.053-4.183-.02-6.27-.131-3.75,2.948-7.4,8.3-6.43a4.075,4.075,0,0,1,2.353,1.375c.253.289.388.336.673.019A4.657,4.657,0,0,1,33.233.035c1.94.038,3.881,0,5.822.012a6.2,6.2,0,0,1,6.41,6.362c.025,2.12.019,4.24,0,6.36-.005.51.081.777.659.915a5.907,5.907,0,0,1,.069,11.491.855.855,0,0,0-.788.909,13.01,13.01,0,0,1-4.382,8.826,2.041,2.041,0,0,0-.756,1.753c.04,1.855.015,1.849,1.848,2.292,4.4,1.063,8.8,2.116,13.2,3.206A10.585,10.585,0,0,1,63.54,52.1c.15,6.326.058,12.659.08,18.989a1.089,1.089,0,0,1-.867,1.15c-.843-.008-1.174-.32-1.252-1.312-.091-1.177-.017-2.359-.038-3.538a1.7,1.7,0,0,0-.2-1.106c-.3-.285-.673-.209-1.023-.209-2,0-4-.02-6,.029-1.279.032-1.361.092-1.362,1.387q-.009,10.158-.007,20.317a2.453,2.453,0,0,1-.225,1.478.912.912,0,0,1-.879.819c-.555.023-.807-.372-.968-.839" transform="translate(0 0)"/>
        <path id="Path_208596" data-name="Path 208596" d="M32.718,37.317a1.08,1.08,0,0,0,.626-1.459,23.517,23.517,0,0,1-.324-5.432c-.014-.408.241-.474.528-.586a4.514,4.514,0,0,0,3.134-4.6c.008-1.283.022-2.567-.008-3.849-.011-.507.067-.737.666-.734q7.565.038,15.13,0c.523,0,.653.169.642.665-.03,1.372-.021,2.745-.006,4.118a4.511,4.511,0,0,0,3.065,4.381c.266.1.592.1.591.533A20.128,20.128,0,0,1,56.1,37a11.87,11.87,0,0,1-18.9,5.155c-.579-.487-1.109-.829-1.779-.2-.1-.678-.651-1.011-1.093-1.427-.005-.029-.024-.064-.015-.086.5-1.276.167-1.225-.872-1.522a6.272,6.272,0,0,0-.719-1.605" transform="translate(-13.078 -8.258)" fill="#fdb59e"/>
        <path id="Path_208597" data-name="Path 208597" d="M96.879,109.876a42.612,42.612,0,0,1,.086,4.961c.012.69.239,1.141.942,1.283.133.585-.122,1.214.2,1.779-1.033.79-1.037.832-.2,1.806.128.585-.122,1.213.2,1.777a2.619,2.619,0,0,0-.955,2.429c.041,2.645.019,5.292.01,7.938a1.8,1.8,0,0,1-.247,1.281l-8.963.036c.137-.6.645-.418,1.014-.449,1.146-.1,1.18-.1,1.181-1.276q.009-9.934,0-19.866c0-1.783,0-1.8,1.734-1.777a49.684,49.684,0,0,1,4.994.078" transform="translate(-35.155 -43.877)" fill="#fdb59e"/>
        <path id="Path_208598" data-name="Path 208598" d="M2.963,133.311q.014-10.518.034-21.035a9.486,9.486,0,0,1,.089-2.4,3.382,3.382,0,0,1,1.654.006,2.2,2.2,0,0,1,.225,1.385q.012,5.907,0,11.814a5.882,5.882,0,0,0,.163,1.686c.087.295.2.6.57.583.316-.016.424-.288.5-.555a5.881,5.881,0,0,0,.171-1.686c0-3.968,0-7.936.005-11.9a1.844,1.844,0,0,1,.271-1.366c.8-.1,1.609-.007,2.411-.054.465-.026.647.211.7.618a8.9,8.9,0,0,1,.044,1.252q0,9.624,0,19.248c0,.3.014.6,0,.9-.023.642.271.892.912.918.447.019,1.043-.223,1.283.448q-4.007,0-8.013-.009a1.8,1.8,0,0,0-1.038.151" transform="translate(-1.184 -43.88)" fill="#fdb59e"/>
        <path id="Path_208599" data-name="Path 208599" d="M12.1,133.143c-.487-.35-1.046-.176-1.557-.147-.758.043-.949-.229-.947-.964.026-6.775.016-13.552.016-20.328,0-1.835,0-1.837-1.822-1.832-.358,0-.715.024-1.073.037a2.086,2.086,0,0,1-1.915,0l-1.63-.056c.091-.16.247-.137.392-.137,2.686,0,5.372.022,8.058.008.517,0,.655.179.653.677q-.032,11.372-.035,22.743l-.071.022Z" transform="translate(-1.267 -43.854)" fill="#e88e7b"/>
        <path id="Path_208600" data-name="Path 208600" d="M96.764,109.86c-1.818.006-3.638.052-5.455,0-.779-.022-1.008.182-1,.986.033,6.977.019,13.953.019,20.929,0,1.207,0,1.189-1.2,1.217-.429.01-.894-.173-1.288.158l-.071.022-.071-.022q-.013-11.372-.03-22.743c0-.408.035-.678.559-.675,2.776.013,5.551,0,8.327,0,.071,0,.142.082.213.126" transform="translate(-35.041 -43.861)" fill="#e88e7b"/>
        <path id="Path_208601" data-name="Path 208601" d="M12.109,55.1c-.333-.008-.624-.27-.759-.773a8.656,8.656,0,0,0-.613-1.858,3.77,3.77,0,0,0-2.284-1.737c-.482-.171-.85-.465-.81-1.038a.986.986,0,0,1,.848-.91,3.708,3.708,0,0,0,2.68-2.943c.077-.287.137-.581.241-.858a.882.882,0,0,1,.911-.591.867.867,0,0,1,.834.572c.114.306.182.629.27.944a3.683,3.683,0,0,0,2.642,2.871.99.99,0,0,1,.867.987.953.953,0,0,1-.8.95,3.829,3.829,0,0,0-2.8,3.255c-.131.558-.285,1.131-1.228,1.129" transform="translate(-3.054 -17.746)"/>
        <path id="Path_208602" data-name="Path 208602" d="M87.543,55.108a.864.864,0,0,1-.908-.583,4.169,4.169,0,0,1-.188-.689,3.717,3.717,0,0,0-2.663-3.061c-.513-.162-.944-.435-.916-1.051.025-.56.41-.811.914-.954A3.492,3.492,0,0,0,86.3,46.121c.094-.344.207-.683.3-1.026a.945.945,0,0,1,1.828.025c.05.2.119.4.17.6a3.785,3.785,0,0,0,2.758,3.087.949.949,0,0,1,.8.945.938.938,0,0,1-.782.961,3.84,3.84,0,0,0-2.812,3.245c-.131.553-.268,1.137-1.024,1.15" transform="translate(-33.123 -17.748)"/>
        <path id="Path_208603" data-name="Path 208603" d="M102.883,140.924c.019-3.45.045-6.9.053-10.349,0-.791.187-1.368,1.139-1.3.583.209.671.681.669,1.22q-.008,5.032,0,10.064c0,.534-.068,1.036-.7,1.183-.677.16-.954-.292-1.165-.818" transform="translate(-41.123 -51.67)" fill="#040303"/>
        <path id="Path_208604" data-name="Path 208604" d="M33.65,51a.9.9,0,0,1,1.246.308c.353.549.046.945-.358,1.3a.933.933,0,0,1-1.163-.411A.916.916,0,0,1,33.65,51" transform="translate(-13.291 -20.335)" fill="#060505"/>
        <path id="Path_208605" data-name="Path 208605" d="M103.938,125.113c-.554-.145-.989-.4-.891-1.072.091-.622.539-.767,1.089-.734a.909.909,0,0,1,.642.942c-.011.556-.469.665-.84.863" transform="translate(-41.183 -49.285)" fill="#030303"/>
        <path id="Path_208606" data-name="Path 208606" d="M7.8,92.82a6.747,6.747,0,0,1-1.942,0c0-3.371-.035-6.743.022-10.113a10.535,10.535,0,0,1,.529-3.772,7.182,7.182,0,0,1,5.236-4.552c3.14-.774,6.29-1.514,9.435-2.267.58-.139,1.206-.229,1.388.518.177.73-.3,1.055-.974,1.214-3.176.757-6.339,1.566-9.521,2.293a5.571,5.571,0,0,0-4.2,5.313c.094,3.787.026,7.577.027,11.366" transform="translate(-2.336 -28.788)" fill="#c4e4fd"/>
        <path id="Path_208607" data-name="Path 208607" d="M50.129,5.525a2.572,2.572,0,0,1,2.421-2.44c2.386-.054,4.777-.082,7.161.007A4.291,4.291,0,0,1,63.619,7c.083,1.428.02,2.864.046,4.3.008.441-.176.552-.585.552q-6.268-.015-12.535,0c-.454,0-.555-.187-.541-.589.023-.626,0-1.253.009-1.88A2.815,2.815,0,0,1,52.91,6.5c2.6-.023,5.193-.013,7.79,0,.6,0,1.04-.241,1.066-.835.027-.638-.408-.951-1.045-.958h-.09c-2.656,0-5.313,0-7.969.008a5.383,5.383,0,0,0-2.533.819" transform="translate(-19.987 -1.213)" fill="#868686"/>
        <path id="Path_208608" data-name="Path 208608" d="M55.192,63.956a6.678,6.678,0,1,1-13.253,0c.315-.136.579.037.849.147a14.928,14.928,0,0,0,11.472.035c.3-.116.582-.324.932-.181" transform="translate(-16.753 -25.543)" fill="#fdb59e"/>
        <path id="Path_208609" data-name="Path 208609" d="M41.444,5.615c-1.761-1.246-3.655-.866-5.484-.886a.819.819,0,0,0-.841.876.838.838,0,0,0,.917.884c.864.014,1.73-.006,2.594.013A2.787,2.787,0,0,1,41.5,9.394c0,.792.352,1.813-.164,2.317-.471.46-1.476.124-2.244.131-1.7.018-3.4-.014-5.1.017-.56.01-.8-.121-.773-.735.047-1.251-.007-2.506.025-3.757a4.389,4.389,0,0,1,4.284-4.3c.417-.013.836-.015,1.253,0a2.731,2.731,0,0,1,2.666,2.542" transform="translate(-13.276 -1.223)" fill="#868686"/>
        <path id="Path_208610" data-name="Path 208610" d="M27.961,29.774c0,1.162-.016,2.323.008,3.485.009.455-.091.554-.554.421a4.167,4.167,0,0,1-.13-7.882c.483-.154.7-.091.686.493-.035,1.16-.01,2.323-.01,3.484" transform="translate(-9.807 -10.283)" fill="#fcb49e"/>
        <path id="Path_208611" data-name="Path 208611" d="M75.747,33.748c0-2.558.007-5.056,0-7.555,0-.825.477-.475.822-.345a4.124,4.124,0,0,1-.818,7.9" transform="translate(-30.275 -10.258)" fill="#fcb49e"/>
        <path id="Path_208612" data-name="Path 208612" d="M55.181,62.956a14.666,14.666,0,0,1-13.253,0c-.015-.387-.034-.773-.041-1.159a2.5,2.5,0,0,1,.063-.393,13.9,13.9,0,0,0,13.211,0,4.658,4.658,0,0,1,.019,1.551" transform="translate(-16.743 -24.543)" fill="#e98e7b"/>
        <path id="Path_208613" data-name="Path 208613" d="M33.226,24.329c0-.983.047-1.969-.016-2.947-.048-.744.36-.755.876-.707.447.042,1.046-.239,1.01.658-.056,1.427-.01,2.859-.026,4.288A2.628,2.628,0,0,1,33.8,27.85c-.379.258-.583.22-.575-.3.016-1.072,0-2.144,0-3.216" transform="translate(-13.273 -8.257)" fill="#868686"/>
        <path id="Path_208614" data-name="Path 208614" d="M71.511,24.4c0,.983.009,1.966-.007,2.949,0,.215.14.524-.151.629-.24.087-.439-.135-.62-.279a2.529,2.529,0,0,1-1.061-1.978c-.022-1.489.01-2.979-.026-4.467-.021-.864.592-.543.991-.572s.921-.175.885.592c-.049,1.04-.012,2.084-.012,3.127" transform="translate(-27.838 -8.252)" fill="#868686"/>
        <path id="Path_208615" data-name="Path 208615" d="M49.515,47.949A5.271,5.271,0,0,1,44.257,43.1c-.037-.606-.007-1.2.761-1.277.746-.08.942.433,1.025,1.066a3.46,3.46,0,0,0,6.908.033c.078-.623.245-1.16,1-1.1s.83.629.8,1.248a5.272,5.272,0,0,1-5.228,4.886" transform="translate(-17.686 -16.712)"/>
        <path id="Path_208616" data-name="Path 208616" d="M51.5,31.927q0-1.34,0-2.679c0-.6.309-1,.9-.995s.89.405.89,1.007q0,2.724,0,5.447c0,.58-.226,1.008-.858,1.026-.68.02-.933-.412-.932-1.039V31.927" transform="translate(-20.587 -11.293)"/>
        <path id="Path_208617" data-name="Path 208617" d="M62.918,30.02a2.388,2.388,0,0,1-.051.583.866.866,0,0,1-1.68-.053,6.666,6.666,0,0,1-.055-1.328c.019-.584.326-.995.926-.978s.875.431.861,1.027c0,.178,0,.357,0,.748" transform="translate(-24.432 -11.289)" fill="#050303"/>
        <path id="Path_208618" data-name="Path 208618" d="M44.888,29.945a2,2,0,0,1-.037.555.849.849,0,0,1-.967.728.812.812,0,0,1-.778-.826c-.019-.385-.007-.773-.011-1.159-.008-.606.293-1,.89-.994s.875.426.9,1.007c.007.148,0,.3,0,.689" transform="translate(-17.226 -11.291)" fill="#040302"/>
        <path id="Path_208619" data-name="Path 208619" d="M5.876,110a7.661,7.661,0,0,1,1.916,0q.007,6.986.008,13.972a7.6,7.6,0,0,1-.164,1.235.745.745,0,0,1-.845.632.733.733,0,0,1-.76-.631,8.974,8.974,0,0,1-.162-1.235q-.01-6.986.008-13.972" transform="translate(-2.345 -43.944)" fill="#f9dedf"/>
        <path id="Path_208620" data-name="Path 208620" d="M6.034,140.786a4.435,4.435,0,0,1,.079-.7.733.733,0,0,1,.786-.592.731.731,0,0,1,.789.588,3.95,3.95,0,0,1-.01,1.681.721.721,0,0,1-.819.549.734.734,0,0,1-.759-.63c-.031-.236-.037-.475-.066-.893" transform="translate(-2.412 -55.756)" fill="#f9dfe0"/>
        <path id="Path_208621" data-name="Path 208621" d="M15.818,52.484a5.291,5.291,0,0,0-1.329,1.5,6.568,6.568,0,0,0-1.409-1.5c.042-.075.062-.169.118-.2.564-.328.8-1.34,1.334-1.24.493.092.85.911,1.286,1.432" transform="translate(-5.228 -20.403)" fill="#ecbc1f"/>
        <path id="Path_208622" data-name="Path 208622" d="M89.713,53.9a7.212,7.212,0,0,0-1.447-1.479,1.387,1.387,0,0,1,.119-.173q.672-.684,1.346-1.365l1.291,1.524A5.661,5.661,0,0,0,89.713,53.9" transform="translate(-35.281 -20.338)" fill="#ebbc1f"/>
      </g>
    </g>
  </g>
</svg>
