<svg id="a2" xmlns="http://www.w3.org/2000/svg" xmlns:xlink="http://www.w3.org/1999/xlink" width="56.127" height="66.328" viewBox="0 0 56.127 66.328">
  <defs>
    <clipPath id="clip-path">
      <rect id="Rectangle_338804" data-name="Rectangle 338804" width="56.127" height="66.329" fill="none"/>
    </clipPath>
  </defs>
  <g id="Group_983789" data-name="Group 983789" clip-path="url(#clip-path)">
    <path id="Path_211175" data-name="Path 211175" d="M29.068,69.377a.236.236,0,0,1-.156-.1.218.218,0,0,1-.052-.178c.818-2.967,1.86-5.961,2.772-8.535a.5.5,0,0,0-.789-.552c-2.14,1.765-4.148,3.324-6.136,4.765a.16.16,0,0,1-.077.037c-.015,0-.052-.022-.086-.071a.535.535,0,0,0-.058-.068.133.133,0,0,1-.039-.157c.543-1.979,1.207-4.075,2.152-6.794a.5.5,0,0,0-.467-.664l-.733,0s-2.076.009-2.52.009c-5.626,0-11.768-.423-13.452-5.471a.5.5,0,0,0-.318-.317,5.478,5.478,0,0,1-3.6-2.887c-1.064-2.477-1.067-5.3-1.07-8.032,0-.769,0-1.533-.026-2.285l-.068-2.153c-.127-3.985-.259-8.1-.257-12.156,0-.665-.01-1.36-.019-2.074C4,16.341,3.908,9.687,7.946,6.047c1.988-1.793,5.409-2,7.81-2,1.2,0,2.377.057,3.518.111.987.047,1.92.092,2.749.092l7.138-.008c4.706,0,9.741.038,14.676.315,4.115.231,8.61.834,9.867,5.082a.5.5,0,0,0,.3.324c4.8,1.859,4.812,7.13,4.822,11.78,0,.518,0,1.029.009,1.526.03,1.97.1,4.014.161,5.989.214,6.507.435,13.235-.566,19.522-.89,5.6-4.25,8.273-10.574,8.414-1.432.032-2.865.059-4.3.072-.326,0-.556.172-2.248,1.95-.35.368-.652.686-.8.823A131.5,131.5,0,0,1,29.12,69.355Z" transform="translate(-3.55 -3.548)" fill="#fff"/>
    <path id="Path_211176" data-name="Path 211176" d="M63.2,110.766c3.032-1.979,3.074-10.822,3.074-14.7,0-6.106-.758-11.876-7.5-11.876-4.254,0-5.939,4.127-6.317,7.369a89.785,89.785,0,0,0-.505,9.349c0,5.053.8,11.16,7.159,11.16a6.316,6.316,0,0,0,4.085-1.305m-6.823-10.738c0-.843-.041-1.937-.041-3.159,0-3.622.337-8,3.2-8,2.317,0,2.569,2.821,2.569,7.369v3.621c-.042,3.833-.547,7.244-3.453,7.244-1.895,0-2.275-3.705-2.275-7.074" transform="translate(-45.543 -73.806)"/>
    <path id="Path_211177" data-name="Path 211177" d="M188.95,114.653h.969c2.695,0,2.779-.505,2.779-1.1,0-3.032.042-6.653.042-10.738,0-.295.548-.463.8-.463,3.622.084,4.759,7.791,4.759,10.4v.969c0,.589.042.927.295.927l2.99-.043c.674,0,.716-.8.716-1.305v-.843c0-10.612-4.927-13.013-4.927-13.013a17.644,17.644,0,0,0,3.159-10.4V88.88c0-.968,0-2.569-1.179-2.611-.337,0-1.306-.043-1.642-.043-.969,0-1.727.084-1.727,1.264v2.232c0,3.284-1.263,7.5-3.116,8.085-.211,0-.211-.084-.211-.252,0-1.516-.043-8.76-.043-10.192V86.9c0-.884-.463-1.011-2.611-1.011-.632,0-1.348.127-1.39.8l-.126,25.521.042,2.021c.042.168.253.421.421.421" transform="translate(-165.234 -75.293)"/>
    <path id="Path_211178" data-name="Path 211178" d="M322.049,274.416c-1.053,0-1.727,1.263-1.727,2.359a2.122,2.122,0,0,0,2.107,2.148,2.216,2.216,0,0,0,1.895-2.275c0-1.685-.843-2.232-2.274-2.232" transform="translate(-280.804 -240.562)"/>
    <path id="Path_211179" data-name="Path 211179" d="M317.184,100.207h.505c1.053,0,1.6-.211,1.98-.885l-.085-19.414c0-.673-.295-1.095-.926-1.095l-2.612.043a.791.791,0,0,0-.842.463v1.516c0,6.065.379,12.508.631,18.4.043.885.716.969,1.348.969" transform="translate(-276.318 -69.09)"/>
    <path id="Path_211180" data-name="Path 211180" d="M55.784,19.716C55.708,14.6,56.3,8.147,50.633,5.95,49.281,1.38,44.562.75,40.316.511,33.055.1,25.743.21,18.474.2,14.331.2,7.439-.918,4.061,2.128-.689,6.41.041,14.422.039,20.215c0,4.776.178,9.551.326,14.324C.474,38.026.1,41.766,1.5,45.038A6,6,0,0,0,5.4,48.2c2.188,6.561,11.257,5.75,17.174,5.806-.784,2.257-1.53,4.527-2.162,6.826a.628.628,0,0,0,.171.646.58.58,0,0,0,.864.149c2.109-1.528,4.155-3.13,6.161-4.784-1,2.832-1.985,5.676-2.783,8.569-.153.554.514,1.174,1.035.8a131.229,131.229,0,0,0,11.431-9.35,28.318,28.318,0,0,1,2.718-2.642c1.435-.013,2.87-.04,4.3-.072,6.164-.137,10.064-2.591,11.056-8.835,1.317-8.281.535-17.237.411-25.6M52.881,48.5c-.461-.468-.9-.959-1.33-1.453-.6-.681-1.153-1.482-1.819-2.116.093-.173.19-.339.275-.525a10.716,10.716,0,0,0,.477-1.3c.516.638,1.117,1.234,1.627,1.838.442.522.885,1.044,1.34,1.555.084.094.153.177.219.249a8.365,8.365,0,0,1-.7,1.841c-.03-.031-.053-.057-.09-.094M54.29,13.615a23.388,23.388,0,0,1,.207,2.524c-.26-.267-.527-.514-.737-.729-.77-.79-1.423-1.9-2.26-2.67q-.046-1.324-.169-2.624c.447.615,1.063,1.172,1.5,1.692a20.732,20.732,0,0,0,1.462,1.808M51.453,24.344c.437.551.971,1.063,1.371,1.551.456.555.885,1.128,1.3,1.716a5.641,5.641,0,0,0,.407.563q.037,1.517.067,3.044c-.487-.6-1.028-1.166-1.464-1.745a24.91,24.91,0,0,0-1.678-2.244q0-1.443,0-2.885m3.039,2.383c-.324-.39-.684-.752-.929-1.042a14.65,14.65,0,0,0-2.113-2.33c0-.185,0-.371,0-.556,0-.619,0-1.247.012-1.881.424.572.9,1.119,1.315,1.638s.877,1.048,1.308,1.578a5.036,5.036,0,0,1,.361.525q.022,1.031.047,2.069M51.521,13.682a14.792,14.792,0,0,0,1.325,1.626c.414.447.849.872,1.258,1.323a5.23,5.23,0,0,1,.412.539c0,.874-.017,1.74-.041,2.569-.352-.423-.77-.809-1.029-1.1a16.938,16.938,0,0,0-1.911-2.3q.013-1.328-.014-2.657m1.223,31.129a22.807,22.807,0,0,0-2.091-2.282,18.661,18.661,0,0,0,.473-2.911c.054.07.105.138.15.2.441.642.925,1.256,1.393,1.877.428.569.854,1.139,1.265,1.72.078.111.148.232.221.35-.078.657-.164,1.312-.267,1.963-.009.057-.021.108-.031.164-.373-.4-.834-.775-1.113-1.085m.655-3.305q-.732-.922-1.468-1.841a9.6,9.6,0,0,0-.735-.952c.057-.9.087-1.8.117-2.667.354.559.769,1.094,1.128,1.573a21.335,21.335,0,0,0,2.034,2.526q-.071,1.19-.186,2.368c-.337-.4-.7-.763-.892-1.007m-.162-3.957a31.361,31.361,0,0,0-1.895-2.569q.043-1.442.07-2.884c.4.569.857,1.111,1.244,1.6.437.549.895,1.08,1.344,1.619.229.275.412.58.616.861q-.021,1.4-.08,2.8c-.424-.494-.9-.956-1.3-1.424m.365-3.64c-.7-.792-1.342-1.975-2.178-2.754q.019-1.482.026-2.964c.43.689.976,1.335,1.427,1.939a17.593,17.593,0,0,0,1.735,2.189q.018,1.338.013,2.677c-.357-.4-.746-.771-1.024-1.085m.141-11.184a31.551,31.551,0,0,0-2.266-2.75c.017-.943.036-1.9.05-2.856l.022.027c.359.474.69.969,1.06,1.436.462.584.956,1.141,1.4,1.739.165.224.282.456.43.66-.017.629-.03,1.23-.023,1.779,0,.227.007.455.01.683-.248-.262-.493-.507-.682-.718m.342-10.253c-.293-.348-.579-.7-.867-1.054a16.052,16.052,0,0,0-1.987-2.184c-.063-.525-.141-1.044-.229-1.558a6.848,6.848,0,0,1,3.083,4.8M2.339,43.3c-.95-2.879-.5-6.587-.59-9.6-.129-4.166-.259-8.33-.3-12.5-.061-6.969-1.2-19.4,8.658-19.559,6.126-.1,12.259-.04,18.384.016,3.349.03,6.7.08,10.046.188,3.118.1,7.127-.08,9.527,2.262,1.986,1.939,1.8,5.56,1.842,8.088q.077,4.334.116,8.669c.034,4.059.025,8.119-.046,12.177-.068,3.861.177,8.262-1.741,11.748-1.57,2.854-5.442,3.282-8.336,3.363-2.011.057-4.2-.521-5.7.946A118.8,118.8,0,0,1,22.372,59.186c.562-1.857,1.177-3.7,1.821-5.533a.668.668,0,0,0,.037-.105c.527-1.5,1.064-2.989,1.6-4.477a.71.71,0,0,0-.679-.892c-4.671-.082-9.335-.227-14-.525C7.6,47.426,3.626,47.2,2.339,43.3m43.3,8.674c-.288-.531-.536-1.084-.8-1.627a10.044,10.044,0,0,0-.721-1.34,11.258,11.258,0,0,0,1.862-.636,15.438,15.438,0,0,0,1.054,1.953A11.464,11.464,0,0,0,48.1,52.159a15.969,15.969,0,0,1-2.123.4c-.094-.191-.223-.372-.336-.58M47.595,50A15.418,15.418,0,0,0,46.57,48.09a7.973,7.973,0,0,0,1.357-.911,16.4,16.4,0,0,0,1.528,1.9c.389.514.752,1.046,1.093,1.592.086.137.147.251.208.352a8.425,8.425,0,0,1-1.924.92c-.343-.666-.891-1.312-1.238-1.939m-5.863.976a19.674,19.674,0,0,0,.814,1.8c-.485.011-.972.018-1.454.023-.257-.525-.669-1.022-.934-1.481-.313-.543-.542-1.19-.876-1.744.6-.02,1.2-.051,1.8-.1.172.52.443,1.03.653,1.5M37.409,54.7c-.47-.75-.98-1.471-1.478-2.206a11.732,11.732,0,0,0-1.292-1.864c.072-.069.145-.136.216-.2a2.369,2.369,0,0,1,1.393-.793,7.508,7.508,0,0,0,.98,1.636A24.736,24.736,0,0,1,38.6,53.553a10.717,10.717,0,0,0-1.2,1.15m-4.214,3.922A19.613,19.613,0,0,0,31.871,56.5c-.439-.673-.8-1.5-1.245-2.215.313-.273.631-.542.942-.818.184-.163.363-.332.547-.5.338.684.861,1.356,1.2,1.959.413.739.759,1.716,1.265,2.473-.459.408-.918.817-1.384,1.219m-3.409,2.825a10.9,10.9,0,0,0-1.447-2.414c.182-.525.362-1.05.547-1.574.221.431.487.845.673,1.2.275.531.542,1.067.792,1.61.116.251.156.421.223.55-.26.211-.526.416-.788.626m-1.567,1.245c-.17-.28-.339-.56-.518-.834-.064-.1-.134-.208-.209-.317.195-.59.388-1.181.59-1.769.351.719.762,1.418,1.132,2.129-.332.263-.66.532-.995.791m-.947-.484c.162.28.323.559.487.836-.323.246-.651.485-.976.73.159-.523.321-1.045.489-1.566m3.037-3.566a21.538,21.538,0,0,0-1.093-2.111l.523-1.474c.11-.094.219-.191.328-.285a12.02,12.02,0,0,0,.959,1.757c.516.863.988,1.781,1.508,2.65-.462.392-.921.787-1.389,1.172a7.47,7.47,0,0,0-.837-1.709m-7.4-6.038a13.821,13.821,0,0,0-1.131-2.332,8.641,8.641,0,0,0-.452-.749l2.831.047q-.547,1.515-1.086,3.035h-.162m-11.495-3.5a18.656,18.656,0,0,0,1.469,2.061c.24.353.467.753.714,1.139a15.125,15.125,0,0,1-2.416-.564A8.246,8.246,0,0,0,9.96,49.96c-.211-.294-.41-.7-.656-1.051q1.052.113,2.108.2M13.156,50.6c-.3-.416-.62-.971-1-1.43q1.192.087,2.388.147A7.844,7.844,0,0,0,15.6,51.125c.265.426.5.962.77,1.452-.634-.031-1.267-.078-1.89-.149-.381-.648-.922-1.265-1.325-1.827M7.108,48.628c.29.052.58.1.863.133.22.028.441.047.662.074a11.68,11.68,0,0,0,.861,1.4c.262.4.553.791.831,1.186l.006.01a6.28,6.28,0,0,1-3.223-2.8m10.061,3.98a12.245,12.245,0,0,0-.922-1.493,16.949,16.949,0,0,0-1.1-1.771q1.16.054,2.321.09a8.271,8.271,0,0,0,1.135,1.685c.332.49.631,1,.924,1.509-.767.006-1.56,0-2.36-.021m3.116.015a11.937,11.937,0,0,0-1.2-1.787c-.277-.39-.564-.774-.847-1.159-.054-.074-.1-.149-.148-.224q1.249.035,2.5.059c.191.375.492.738.669,1.064.356.653.614,1.365.951,2.028-.607,0-1.253.011-1.928.019M36.3,55.865c-.347.321-.7.63-1.055.946-.311-.66-.764-1.292-1.105-1.883a13.545,13.545,0,0,0-1.509-2.42q.831-.761,1.65-1.535a40.393,40.393,0,0,0,2.558,4.351c-.181.193-.36.377-.538.542m2.893-2.708a15.072,15.072,0,0,0-1.4-2.217c-.3-.415-.591-.911-.929-1.338.288,0,.629.01,1.061,0l.781-.016c.227.6.545,1.183.812,1.746.214.449.461.987.748,1.484a2.665,2.665,0,0,0-1.077.339m4.224-.411c-.273-.62-.662-1.22-.938-1.82-.213-.465-.42-1.031-.7-1.519.568-.061,1.128-.143,1.678-.253.045.069.092.138.138.211a16.813,16.813,0,0,1,.812,1.591,15.063,15.063,0,0,0,.77,1.683c-.578.052-1.167.085-1.758.107M51.323,50.6A8.883,8.883,0,0,0,50,48.756a10.712,10.712,0,0,0-1.616-2,7.555,7.555,0,0,0,1.051-1.316,19.226,19.226,0,0,0,1.638,2.082A6.725,6.725,0,0,0,52.6,49.2a6.437,6.437,0,0,1-1.28,1.405" transform="translate(0 0)"/>
    <path id="Path_211181" data-name="Path 211181" d="M32.627,26.927c2.56-1.3,5.789-.638,8.522-1.241a.172.172,0,0,0,0-.329c-6.383-1.789-13.04.843-12.962,8.19a.111.111,0,0,0,.205.056c1.221-2.467,1.563-5.321,4.235-6.676" transform="translate(-24.709 -21.754)"/>
    <path id="Path_211182" data-name="Path 211182" d="M144.024,26.382c.447,0,.847.012,1.143-.361a.141.141,0,0,0-.028-.216,1.537,1.537,0,0,0-1.115-.129,1.423,1.423,0,0,0-.947.252.162.162,0,0,0,0,.226,1.282,1.282,0,0,0,.947.228" transform="translate(-125.385 -22.473)"/>
    <path id="Path_211183" data-name="Path 211183" d="M318.829,335.724c2.194-.886,2.859-2.871,2.556-5.06-.023-.163-.254-.129-.3,0-.651,1.959-1.462,3.634-3.57,4.2-1.638.44-3.6.071-5.126.836a.066.066,0,0,0,0,.114c1.775.9,4.634.638,6.438-.09" transform="translate(-273.823 -289.774)"/>
    <path id="Path_211184" data-name="Path 211184" d="M385.532,301.1c1.018-.578.9-2.258.2-3a.167.167,0,0,0-.282.117c-.059.52-.12,1.028-.16,1.55a2.282,2.282,0,0,0,.141,1.309.079.079,0,0,0,.106.028" transform="translate(-337.727 -261.276)"/>
  </g>
</svg>
