<svg xmlns="http://www.w3.org/2000/svg" xmlns:xlink="http://www.w3.org/1999/xlink" width="1328" height="1500" viewBox="0 0 1328 1500">
  <defs>
    <clipPath id="clip-path">
      <rect id="Rectangle_338809" data-name="Rectangle 338809" width="1328" height="1500" transform="translate(136 2039)" fill="none" stroke="#707070" stroke-width="1"/>
    </clipPath>
  </defs>
  <g id="Mask_Group_468" data-name="Mask Group 468" transform="translate(-136 -2039)" clip-path="url(#clip-path)">
    <rect id="Rectangle_338544" data-name="Rectangle 338544" width="1328" height="722" transform="translate(136 2817)" fill="#ededed"/>
    <g id="Group_983196" data-name="Group 983196" transform="translate(0 1826.695)">
      <rect id="Rectangle_338523" data-name="Rectangle 338523" width="1328" height="640" transform="translate(136 350.305)" fill="#3c3fa7"/>
      <path id="Path_207794" data-name="Path 207794" d="M-507.937-74.641l1.134,15.306,1.134.189,5.48-14.928,89.947-201.059h58.2L-486.773,0h-56.689l-52.154-275.133h58.2Zm135.677-29.479q6.992-47.43,36.565-75.775t75.114-28.345q43.651,0,65.76,29.479t15.5,74.641l-.567,3.968q-7.37,47.808-36.848,75.964T-291.951,3.968q-43.651,0-65.76-29.384t-15.117-74.736Zm54.422,3.968Q-322.374-71.24-315-54.8t29.29,16.44q20.408,0,33.447-17.2t17.2-44.6l.567-3.968q3.968-28.156-3.307-44.879t-29.006-16.723q-20.6,0-33.636,17.479t-16.818,44.123ZM28.345-76.342h1.134L73.318-204.46h53.666L44.407,0H-1.7L-21.92-117.725l-1.134-.189L-78.8,0h-45.918L-146.07-204.46H-92.4l5.858,127.551,1.134.189,57.445-127.74H8.881ZM211.83,3.968q-43.84,0-66.327-28.439t-15.684-71.9l1.134-7.559q6.992-47.619,36-76.058t73.035-28.25q39.683,0,58.674,25.51t12.566,67.649l-4.157,28.534H185l-.378.945Q182.351-63.87,191.8-51.115T223.923-38.36a121.209,121.209,0,0,0,31.935-3.874,145.814,145.814,0,0,0,28.723-11.432l9.826,34.014Q280.424-9.637,258.5-2.834A156.622,156.622,0,0,1,211.83,3.968Zm21.92-169.69A35.3,35.3,0,0,0,207.011-154.2q-10.865,11.527-15.779,30.045l.378,1.134H258.5l.567-4.157q2.834-18.519-2.929-28.534T233.75-165.722ZM384.166,0H328.988l44.218-294.785h55.178ZM548.943-56.689q1.323-9.448-6.519-15.684T511.339-83.711q-34.77-7.181-51.4-21.731t-13.228-39.494q3.779-27.211,28.439-45.257t62.075-18.046q37.226,0,58.674,18.708t16.723,45.918l-.378,1.134H558.958q1.7-12.661-5.1-20.219t-21.92-7.559q-12.661,0-21.636,6.614T500-147.393q-1.323,9.826,5.763,15.5t31.274,10.582q36.47,7.559,52.816,22.2T602.8-58.768q-4.157,28.723-29.951,45.729T507.938,3.968q-39.3,0-60.847-20.975T430.273-63.87L430.84-65h50.454q-1.7,16.44,7.464,23.81t25.6,7.37q14.55,0,23.81-6.236T548.943-56.689Z" transform="translate(800.5 880.805)" fill="none" stroke="rgba(255,255,255,0.99)" stroke-width="1" opacity="0.278"/>
    </g>
  </g>
</svg>
