<svg xmlns="http://www.w3.org/2000/svg" xmlns:xlink="http://www.w3.org/1999/xlink" width="714.86" height="227" viewBox="0 0 714.86 227">
  <defs>
    <clipPath id="clip-path">
      <rect id="Rectangle_338292" data-name="Rectangle 338292" width="262" height="218" transform="translate(806 3498)" fill="none" stroke="#707070" stroke-width="1"/>
    </clipPath>
    <clipPath id="clip-path-2">
      <rect id="Rectangle_338809" data-name="Rectangle 338809" width="172.448" height="202.762" fill="none"/>
    </clipPath>
  </defs>
  <g id="c2" transform="translate(-705 -3469.292)">
    <g id="Group_982519" data-name="Group 982519" transform="translate(0 -28.708)">
      <g id="Group_982432" data-name="Group 982432" transform="translate(705 3480)">
        <path id="Rectangle_338258" data-name="Rectangle 338258" d="M61,0H653.86a61,61,0,0,1,61,61v60.685a0,0,0,0,1,0,0H0a0,0,0,0,1,0,0V61A61,61,0,0,1,61,0Z" transform="translate(0 123)" fill="#3c3fa7"/>
      </g>
      <rect id="Rectangle_338291" data-name="Rectangle 338291" width="610" height="9" transform="translate(758 3716)" fill="#fff"/>
      <g id="Mask_Group_420" data-name="Mask Group 420" clip-path="url(#clip-path)">
        <g id="Group_982516" data-name="Group 982516" transform="translate(-42.558 41.217)">
          <g id="Group_982514" data-name="Group 982514" transform="translate(848.233 3463)">
            <g id="Group_982518" data-name="Group 982518">
              <path id="Path_204646" data-name="Path 204646" d="M167.75,181.948l-.339-.615c5.593-3.079,7.53-10.123,6.969-15.739-.631-6.306-3.762-12.084-6.523-17.183-2.979-5.5-6.039-11.152-6.805-17.375-.678-5.515.512-11.048,1.665-16.4.55-2.551,1.119-5.188,1.474-7.787a51.319,51.319,0,0,0-10.242-38.238c-1.642-2.115-3.517-4.21-5.331-6.235-5.5-6.143-11.182-12.493-11.627-20.649l.7-.038c.434,7.909,6.036,14.168,11.451,20.219,1.822,2.035,3.707,4.138,5.362,6.273a52.022,52.022,0,0,1,10.384,38.763c-.361,2.624-.932,5.275-1.484,7.839-1.14,5.294-2.319,10.768-1.653,16.166.749,6.091,3.778,11.685,6.707,17.1,2.81,5.188,5.976,11.032,6.621,17.477.584,5.845-1.456,13.19-7.327,16.424" transform="translate(21.044 6.381)" fill="#e19e2c"/>
              <path id="Path_204647" data-name="Path 204647" d="M187.66,148.684c-5.449-9.02-9.282-19.88-9.381-26.4-.182-12.077,11.82-26.9-4.283-49.367-11.616-16.209-10.621-22.076-10.621-22.076L50.2,42.971S46.64,60.781,39.546,69.986s-18.614,16-12.731,35.961c4.828,16.374-6.318,32.133-12.39,41.076-5.98,8.81-3.446,18.118,3.617,39.712,0,0,5,3.129,9.047,5.319l1.631-9.2c1.541.662,2.831,11.269,4.672,11.83a48.455,48.455,0,0,0,5.88,1.4c-2.785-7.271-3.434-14.757-.561-20.787,10.647-24.633,17.987-49.216,9.87-75.789-5.812-19.935,9.377-35.738,25.851-39.325,23.068-4.8,42,8.262,61.965,16.859,6.644,2.124,15.491,4.214,18.9,10.837,6.8,12.133-5.1,26.773.607,40.035,3.44,8.846,12.371,16.5,15.829,26.456,3.966,9.953,4.237,20.5,1.91,30.872l.351.69a20.861,20.861,0,0,0,18.835-6.025c1.91-1.967,4.381-15.416-5.167-31.224" transform="translate(1.701 6.578)" fill="#e19e2c"/>
              <path id="Path_204648" data-name="Path 204648" d="M168.3,152.216c-3.457-9.959-12.389-17.61-15.829-26.456-5.71-13.262,6.189-27.9-.607-40.035-3.407-6.623-12.254-8.713-18.9-10.837C113,66.291,94.07,53.23,71,58.029,54.526,61.616,39.339,77.419,45.15,97.354c8.117,26.574.776,51.156-9.87,75.789-2.874,6.03-2.224,13.516.561,20.787a48,48,0,0,0,11.249.618l2.84-19.964,5.325,19.9s11.431,6.3,52.056-2.731,47.719-2.43,50.851-9.345-4.545-32.006-4.545-32.006l16.594,32.691c2.328-10.377,2.056-20.919-1.91-30.872" transform="translate(5.133 8.733)" fill="#d38a20"/>
              <path id="Path_204649" data-name="Path 204649" d="M115.1,110.763,114.593,101l-28.677,1.474-.478,8.924c9.886,1.757,19.774,1.2,29.662-.631" transform="translate(13.125 15.491)" fill="#d8a178"/>
              <path id="Path_204650" data-name="Path 204650" d="M138.908,119.235l-21.153-2.75-.681-7.023c-9.888,1.833-19.775,2.389-29.663.632l-.325,6.083s-9.565,4.026-12.978,4.868c.1,15.53-2.7,58.125-.925,73.774l67.682-.179s2-18.486,2.8-25.1c2.555-21.258-4.752-50.306-4.752-50.306" transform="translate(11.151 16.792)" fill="#ebbc8e"/>
              <path id="Path_204651" data-name="Path 204651" d="M76.875,88.476,70.159,71.74s-16.406-4.11-15.546,12.195S72.6,99.3,76.875,88.476" transform="translate(8.384 10.926)" fill="#ebbc8e"/>
              <path id="Path_204652" data-name="Path 204652" d="M125.682,86.061l2.022-17.92s14.722-8.325,18.228,7.622-13.254,19.592-20.251,10.3" transform="translate(19.307 10.111)" fill="#d8a178"/>
              <path id="Path_204653" data-name="Path 204653" d="M130.924,85.412a.326.326,0,0,0,.217-.505c-.048-.072-4.781-7.229.012-11.728a7.24,7.24,0,0,1,5.339-2.248,9.023,9.023,0,0,1,5.6,2.828.327.327,0,0,0,.491-.43,9.532,9.532,0,0,0-6.05-3.05A7.871,7.871,0,0,0,130.7,72.7c-5.2,4.882-.157,12.494-.106,12.57a.327.327,0,0,0,.325.14" transform="translate(19.717 10.772)" fill="#683935"/>
              <path id="Path_204654" data-name="Path 204654" d="M137.805,76.994a.327.327,0,0,0,.1-.614c-.061-.031-6.13-3.073-9.47,1.617a.327.327,0,1,0,.532.38c3.014-4.233,8.583-1.442,8.639-1.414a.321.321,0,0,0,.2.031" transform="translate(19.72 11.557)" fill="#683935"/>
              <path id="Path_204655" data-name="Path 204655" d="M138.774,37.074S146.6,52.56,149.043,76.1c1.9,18.37-10.9,37.871-33.177,41.651-20.938,3.553-43.719-2.664-53.354-31.549S59.748,32.812,85.9,23.462s45.5-4.162,52.878,13.613" transform="translate(8.965 2.878)" fill="#ebbc8e"/>
              <path id="Path_204656" data-name="Path 204656" d="M95.549,84.9c-.606,3.108-5.813,4.708-11.632,3.575s-10.046-4.571-9.44-7.678,5.812-4.707,11.631-3.574S96.153,81.8,95.549,84.9" transform="translate(11.432 11.784)" fill="#d8a178"/>
              <path id="Path_204657" data-name="Path 204657" d="M135.211,79.593c.681,3.066-3.422,6.586-9.164,7.862s-10.949-.175-11.63-3.242,3.422-6.586,9.163-7.862,10.949.175,11.631,3.242" transform="translate(17.565 11.635)" fill="#d8a178"/>
              <path id="Path_204658" data-name="Path 204658" d="M79.129,61.137s-3.26-2.877,3.6-6.513,9.28-2.848,10.4-1.046c1.022,1.643-.543,4.12-4.438,6.083-4.676,2.357-7.793,3.132-9.563,1.477" transform="translate(12.037 7.974)" fill="#d99e2e"/>
              <path id="Path_204659" data-name="Path 204659" d="M130.682,59.885s2.438-3.309-5.157-5.768-9.745-1.317-10.376.609c-.575,1.758,1.577,3.92,5.862,5.219,5.144,1.561,8.371,1.825,9.671-.06" transform="translate(17.675 8.075)" fill="#d99e2e"/>
              <path id="Path_204660" data-name="Path 204660" d="M123.317,69.945c.007,2.206-1.454,4-3.264,4.005s-3.283-1.778-3.291-3.983,1.455-4,3.264-4.005,3.284,1.778,3.291,3.983" transform="translate(17.937 10.11)"/>
              <path id="Path_204661" data-name="Path 204661" d="M91.993,69.945c.008,2.206-1.454,4-3.264,4.005s-3.283-1.778-3.291-3.983,1.455-4,3.264-4.005,3.284,1.778,3.291,3.983" transform="translate(13.125 10.11)"/>
              <path id="Path_204662" data-name="Path 204662" d="M71.113,89.288a.327.327,0,0,1-.344-.429c.028-.082,2.687-8.239-3.129-11.3A7.237,7.237,0,0,0,61.9,76.81a9.023,9.023,0,0,0-4.642,4.213.327.327,0,0,1-.588-.285,9.522,9.522,0,0,1,5.021-4.548,7.871,7.871,0,0,1,6.26.788c6.309,3.324,3.474,12,3.444,12.09a.326.326,0,0,1-.276.22" transform="translate(8.7 11.629)" fill="#683935"/>
              <path id="Path_204663" data-name="Path 204663" d="M61.72,83.1a.327.327,0,0,1-.255-.565c.05-.047,5.092-4.594,9.559-.96a.327.327,0,0,1-.412.508c-4.032-3.279-8.658.892-8.7.933a.325.325,0,0,1-.188.084" transform="translate(9.426 12.292)" fill="#683935"/>
              <path id="Path_204664" data-name="Path 204664" d="M108.968,81.764a.325.325,0,0,1-.137-.619,8.763,8.763,0,0,0,3.76-3.547c.9-1.826.606-4.563-.608-5.743a2.286,2.286,0,0,0-2.856-.164c-.036.018-.092.053-.17.1-3.983,2.33-5.785,1.3-6.6.016-1.489-2.349-.27-20.936-.126-23.048a.325.325,0,0,1,.648.045c-.389,5.679-1.137,20.82.025,22.656.958,1.51,2.884,1.435,5.724-.228.088-.051.153-.09.2-.112a2.917,2.917,0,0,1,3.609.272c1.415,1.376,1.762,4.411.738,6.495a9.254,9.254,0,0,1-4.071,3.851.322.322,0,0,1-.133.03" transform="translate(15.611 7.42)" fill="#683935"/>
              <path id="Path_204665" data-name="Path 204665" d="M103.979,87.923c2.118.692,3.775-.442,4.936-1.816A28.03,28.03,0,0,0,99.66,82.4c.509,2,1.667,4.658,4.319,5.525" transform="translate(15.309 12.635)" fill="#cc555f"/>
              <path id="Path_204666" data-name="Path 204666" d="M99.319,80.3a13.5,13.5,0,0,0,.393,2.418,28.03,28.03,0,0,1,9.255,3.709,12.732,12.732,0,0,0,1.951-3.306c-3.955-2.846-11.6-2.821-11.6-2.821" transform="translate(15.257 12.313)"/>
              <path id="Path_204667" data-name="Path 204667" d="M61.653,81.925s41.419-12.259,49.233-46.289c0,0,36.052,46.671,49.1,33.044,0,0,4.711-41.154-23.159-52.5-15.29-6.221-27.1-2.961-27.1-2.961-20.532-2.831-33.01-5.264-54.552,13.891-22.182,19.722-16.16,65.23,6.481,54.811" transform="translate(6.341 1.714)" fill="#e19e2c"/>
              <path id="Path_204668" data-name="Path 204668" d="M18.264,185.544A43.146,43.146,0,0,1,13.426,146a87.381,87.381,0,0,1,4.812-9.959c2.834-5.286,5.766-10.753,6.553-16.726.652-4.95-.19-10.122-1.006-15.123-1.1-6.772-2.243-13.773.4-20.162,2.17-5.25,6.517-9.093,10.722-12.81a68.519,68.519,0,0,0,6.843-6.637,33.067,33.067,0,0,0,7.6-24.3l.7-.07a33.777,33.777,0,0,1-7.762,24.821,69.12,69.12,0,0,1-6.912,6.707C31.035,75.576,26.941,79.2,24.831,84.3c-2.566,6.205-1.492,12.8-.354,19.781.823,5.052,1.673,10.274,1.008,15.327-.8,6.1-3.765,11.625-6.63,16.966a87.064,87.064,0,0,0-4.775,9.877,42.438,42.438,0,0,0,4.759,38.9Z" transform="translate(1.641 6.155)" fill="#e19e2c"/>
              <path id="Path_204669" data-name="Path 204669" d="M42.26,85.18c-.661,0-1.32-.009-1.981-.029l.02-.7A71.609,71.609,0,0,0,88.13,67.676a71.627,71.627,0,0,0,24.345-44.457l.7.093a72.343,72.343,0,0,1-24.588,44.9A72.4,72.4,0,0,1,42.26,85.18" transform="translate(6.187 3.544)" fill="#e19e2c"/>
              <path id="Path_204670" data-name="Path 204670" d="M149.175,66.937A78.731,78.731,0,0,1,92.5,15.4l.666-.217a78.015,78.015,0,0,0,56.163,51.074Z" transform="translate(14.209 2.309)" fill="#e19e2c"/>
              <path id="Path_204671" data-name="Path 204671" d="M86.642,186.7c6.381-.546,12.771-.991,19.181-1.147,11.772-.287,24.785.082,37.141,2.594-.76-2.959-1.234-4.672-1.234-4.672l-67.682-.18c-.689.769-1.432,1.68-2.21,2.706q7.4.277,14.8.7" transform="translate(11.035 28.134)" fill="#42354c"/>
              <path id="Path_204672" data-name="Path 204672" d="M105.383,185.306a2.185,2.185,0,0,0-3.507.058q1.739-.038,3.507-.058" transform="translate(15.65 28.312)" fill="#2f2537"/>
              <path id="Path_204673" data-name="Path 204673" d="M116.367,118.767c9.976,1.812,19.776,5.479,25.3,12.6,8.224,13.172,19.027,28.2,19.027,28.2l11.288-34.53s6.115-12.564,9.146-12.762.045,5.7.045,5.7,10.257-10.473,11.748-8.476-6.593,9.9-6.593,9.9,11.091-8.544,12.293-5.341c.633,1.914-9.529,8.168-9.529,8.168s10.62-5.55,11.413-3.561-9.626,6.88-9.626,6.88,8.889-3.394,9.563-1.291c.572,1.782-9.25,7.3-15.185,9.829-1.086,11.367-5.455,43.369-20.63,50.647-16.068,7.707-32.15-24.652-36.147-33.406" transform="translate(17.876 16.758)" fill="#ebbc8e"/>
              <path id="Path_204674" data-name="Path 204674" d="M153.3,157.983a.254.254,0,0,1-.1-.02.26.26,0,0,1-.147-.339c.028-.068,2.783-7.006,4.038-10.845a.261.261,0,1,1,.5.163c-1.26,3.854-4.022,10.807-4.049,10.876a.262.262,0,0,1-.242.165" transform="translate(23.509 22.497)" fill="#683935"/>
              <path id="Path_204675" data-name="Path 204675" d="M124.43,117.689s4.716-4.978,7.336-4.978-1.047,6.288.262,8.646,4.978.786,5.24,4.191-3.929,5.241-.786,8.384,6.55,4.454,4.716,7.336a34.55,34.55,0,0,0-3.144,7.6Z" transform="translate(19.114 17.291)" fill="#7671af"/>
              <path id="Path_204676" data-name="Path 204676" d="M63.239,195.314c15.8-42.16,29.177-55.586,29.177-55.586l-9.2-14.522a10.858,10.858,0,0,0-5.888-4.538c-4.426-1.405-11.264.766-15.91,8.893-10.928,20.194-17.864,45.113-22.139,65.765q11.976-.232,23.961-.013" transform="translate(6.034 18.452)" fill="#ebbc8e"/>
              <path id="Path_204677" data-name="Path 204677" d="M65.154,155.062l9.17,38.9c7.368,1.817,18.067,2.318,28.791,2.209,1.245-.051,2.49-.1,3.735-.132,1.6-.039,3.221-.063,4.859-.075,16.173-.593,30.3-2.182,30.3-2.182s6.445-26.4,6.266-38.068c-.262-17.161-11.069-38.908-13.951-39.17s-13.756-.72-13.756-.72c-18.34,4.454-32.338-.505-32.338-.505a49.474,49.474,0,0,0-18.457,1.389s7.7,7.565,7.172,22.5-11.79,15.851-11.79,15.851" transform="translate(10.009 17.646)" fill="#7671af"/>
              <path id="Path_204678" data-name="Path 204678" d="M95.005,173.384a.311.311,0,0,1-.155-.58,54.745,54.745,0,0,0,23.711-27.3.312.312,0,0,1,.579.231A55.375,55.375,0,0,1,95.16,173.344a.3.3,0,0,1-.155.04" transform="translate(14.547 22.299)" fill="#4d4b82"/>
              <path id="Path_204679" data-name="Path 204679" d="M104.47,182.423a.311.311,0,0,1-.225-.526,60.047,60.047,0,0,0,14.09-24.488.312.312,0,0,1,.6.173A60.669,60.669,0,0,1,104.7,182.326a.307.307,0,0,1-.225.1" transform="translate(16.001 24.123)" fill="#4d4b82"/>
              <path id="Path_204680" data-name="Path 204680" d="M70.05,116.726s-4.88-3.307-6.452-.949,4.716,6.55,6.026,8.121-4.716,3.669-3.93,6.55,6.027,4.454,5.5,8.123-5.765,5.763-5.765,8.383v8.123s11.528.262,12.052-14.673-7.434-23.678-7.434-23.678" transform="translate(9.731 17.632)" fill="#7671af"/>
              <path id="Path_204681" data-name="Path 204681" d="M173.2,130.864a.236.236,0,0,1-.04,0,.262.262,0,0,1-.218-.3,20.733,20.733,0,0,0-1.191-10.731.261.261,0,0,1,.486-.192,21.266,21.266,0,0,1,1.221,11,.26.26,0,0,1-.257.22" transform="translate(26.381 18.331)" fill="#683935"/>
            </g>
          </g>
          <g id="Group_982515" data-name="Group 982515" transform="translate(0 -22.706)">
            <g id="Group_982513" data-name="Group 982513">
              <path id="Path_204741" data-name="Path 204741" d="M218.109,19.435H163.673c-3.347,0-6.916.163-6.916,5.036s-.756,35.212-.084,39.806c.557,3.817,2.538,5.672,10.793,5.835s45.515-.115,49.751,0c2.676.073,7.7.073,8.031-5.684.34-5.863.248-33.866.213-39.143.035-6.254-7.353-5.848-7.353-5.848" transform="translate(872.258 3466.276)" fill="#e28279"/>
              <path id="Path_204742" data-name="Path 204742" d="M187.775,61.132s-.434,8.686-3.908,15.2c0,0,11.075-1.954,14.549-16.721Z" transform="translate(876.479 3472.449)" fill="#e28279"/>
            </g>
            <path id="Path_204743" data-name="Path 204743" d="M213.23,29.9H165.939c-.323,0-.668.01-.668.33s-.074,2.307-.008,2.608c.053.249.245.371,1.042.382s46.428-.006,46.838,0c.26,0,.744,0,.776-.373s.024-2.218.021-2.564c0-.41-.709-.383-.709-.383" transform="translate(873.616 3467.884)" fill="#fff"/>
            <path id="Path_204744" data-name="Path 204744" d="M213.23,40.836H165.939c-.323,0-.668.01-.668.33s-.074,2.307-.008,2.608c.053.249.245.371,1.042.382s46.428-.006,46.838,0c.26,0,.744,0,.776-.373s.024-2.218.021-2.564c0-.41-.709-.383-.709-.383" transform="translate(873.616 3469.564)" fill="#fff"/>
            <path id="Path_204745" data-name="Path 204745" d="M213.23,52.27H165.939c-.323,0-.668.01-.668.33s-.074,2.307-.008,2.608c.053.249.245.371,1.042.382s46.428-.006,46.838,0c.26,0,.744,0,.776-.373s.024-2.218.021-2.564c0-.41-.709-.383-.709-.383" transform="translate(873.616 3471.32)" fill="#fff"/>
          </g>
        </g>
      </g>
      <g id="Group_983805" data-name="Group 983805">
        <g id="Group_983807" data-name="Group 983807" transform="translate(1105.302 3513.723)">
          <g id="Group_983806" data-name="Group 983806" clip-path="url(#clip-path-2)">
            <path id="Path_211269" data-name="Path 211269" d="M87.1,144.242c6.5,20.8,19.142,32.5,41.374,38.1-5.689-8.332-3.685-20.693,5.917-25.991s20.154-10.5,20.131-21.176c-.037-16.647-12.682-14.748-5.372-25.53s7.841-29.03-5.4-37.829c-.188-.125-.364-.25-.547-.375-2.489-2.393-4.263-3-1.434-7.774,18.649-31.45-37.843-62.183-54.253-36.735-3.6-5.069-10.12-10.385-21.371-9.1-7,.8-24.887,8.088-32.836,21.152C20.1,60.7,39.772,60.316,30.253,71.578a15.338,15.338,0,0,0-2.759,2.755c-.115.1-.23.192-.346.284-12.458,9.8-9.409,24.249-2.1,35.032s-6.869,10.941-7.119,24.971c-.258,14.406,14.8,17.184,24.4,22.481s9.083,16.913,3.394,25.245c22.231-5.6,34.874-17.307,41.373-38.1" fill="#39271f" fill-rule="evenodd"/>
            <path id="Path_211270" data-name="Path 211270" d="M86.224,202.762h71.448c0-67.2-53.295-30.942-53.295-86.923H67.808c0,55.981-53.032,19.727-53.032,86.923Z" fill="#e4ae7c" fill-rule="evenodd"/>
            <path id="Path_211271" data-name="Path 211271" d="M47.15,81.794c-.172-1.9-7.936-4.14-10.523,2.07s2.07,15.008,10.868,15.7,6.21-.864,6.21-.864Z" fill="#e4ae7c" fill-rule="evenodd"/>
            <path id="Path_211272" data-name="Path 211272" d="M125.485,81.794c.172-1.9,7.935-4.14,10.522,2.07s-2.069,15.008-10.867,15.7-6.211-.864-6.211-.864Z" fill="#e4ae7c" fill-rule="evenodd"/>
            <path id="Path_211273" data-name="Path 211273" d="M104.674,114.267s-.1,2.6-.036,6.386c-7.008,17.607-28.767,19.588-36.841.733.089-4.176-.022-7.119-.022-7.119Z" fill="#d67f54" fill-rule="evenodd"/>
            <path id="Path_211274" data-name="Path 211274" d="M86.224,123.621c-45.773,1.1-68.884-111.776,0-108.885,68.884-2.891,45.773,109.985,0,108.885" fill="#e4ae7c" fill-rule="evenodd"/>
            <path id="Path_211275" data-name="Path 211275" d="M65.585,74.062a1.237,1.237,0,0,1-2.462.243,5.317,5.317,0,0,1,.153-1.916,5.349,5.349,0,0,1,8.291-2.938,5.342,5.342,0,0,1,2.205,4.692,1.239,1.239,0,1,1-2.472-.164,2.881,2.881,0,0,0-.262-1.421,2.835,2.835,0,0,0-.915-1.1,2.872,2.872,0,0,0-4.008.643,2.808,2.808,0,0,0-.443.928,2.838,2.838,0,0,0-.087,1.033" fill="#39271f" fill-rule="evenodd"/>
            <path id="Path_211276" data-name="Path 211276" d="M65.789,84.023c2.336,1.794,2.439,4.419.229,5.867s-5.9,1.165-8.233-.628-2.438-4.421-.228-5.867,5.9-1.166,8.232.628" fill="#da9077" fill-rule="evenodd"/>
            <path id="Path_211277" data-name="Path 211277" d="M106.914,84.023c-2.336,1.794-2.438,4.419-.228,5.867s5.9,1.165,8.233-.628,2.438-4.421.228-5.867-5.9-1.166-8.233.628" fill="#da9077" fill-rule="evenodd"/>
            <path id="Path_211278" data-name="Path 211278" d="M72.638,58.009c-.152-.066-.305-.129-.461-.188a11.819,11.819,0,0,0-5.238-.68,11.6,11.6,0,0,0-4.891,1.532c-.741.478-3.631,2.818-2.811,3.679.334.094,3.212-1.377,4.059-1.652a11.49,11.49,0,0,1,3.775-.508,10.146,10.146,0,0,1,3.461.7c.032.007.246.1.292.123,2.414,1.174,2.195,1.927,3.842.8,2.536-1.351-.074-2.793-2.028-3.809" fill="#3f2716" fill-rule="evenodd"/>
            <path id="Path_211279" data-name="Path 211279" d="M99.81,58.009c.153-.066.305-.129.461-.188a11.822,11.822,0,0,1,5.239-.68,11.608,11.608,0,0,1,4.891,1.532c.74.478,3.63,2.818,2.81,3.679-.334.094-3.213-1.377-4.058-1.652a11.5,11.5,0,0,0-3.776-.508,10.146,10.146,0,0,0-3.461.7c-.032.007-.246.1-.292.123-2.414,1.174-2.195,1.927-3.842.8-2.536-1.351.074-2.793,2.028-3.809" fill="#3f2716" fill-rule="evenodd"/>
            <path id="Path_211280" data-name="Path 211280" d="M74.351,93.6q6.329-.078,12.624-.079T99.6,93.6c0,6.619-6.528,8.983-12.6,8.983h-.045c-6.075,0-12.6-2.364-12.6-8.983" fill="#fff" fill-rule="evenodd"/>
            <path id="Path_211281" data-name="Path 211281" d="M84.072,106.527a.495.495,0,0,1,.5-.854,4.869,4.869,0,0,0,2.422.6,4.647,4.647,0,0,0,2.377-.6.494.494,0,1,1,.512.846,5.643,5.643,0,0,1-2.889.743,5.872,5.872,0,0,1-2.922-.739" fill="#d67f54" fill-rule="evenodd"/>
            <path id="Path_211282" data-name="Path 211282" d="M85.85,84.517a.5.5,0,0,1,0-.993,24.2,24.2,0,0,0,3.713-.2c.9-.153,1.569-.4,1.569-.81,0-1.427-1.447-10.3-1.451-10.327a.5.5,0,0,1,.978-.156c0,.026,1.465,8.994,1.465,10.483,0,1.045-1.016,1.553-2.4,1.787a24.781,24.781,0,0,1-3.876.213" fill="#d67f54" fill-rule="evenodd"/>
            <path id="Path_211283" data-name="Path 211283" d="M133.193,88.765a.5.5,0,1,1-.993,0,4.822,4.822,0,0,0-.679-2.969,1.182,1.182,0,0,0-.923-.461,2.724,2.724,0,0,0-1.352.416,8.93,8.93,0,0,0-3.4,4.006,18.7,18.7,0,0,0-.846,2.3,3.525,3.525,0,0,1,2.312-.671,2.208,2.208,0,0,1,1.069.388,1.752,1.752,0,0,1,.667.934,3.254,3.254,0,0,1-.685,2.686.495.495,0,0,1-.822-.55,2.359,2.359,0,0,0,.557-1.853.771.771,0,0,0-.295-.415,1.206,1.206,0,0,0-.588-.205,2.734,2.734,0,0,0-2.116.89,1.066,1.066,0,0,1-.5.318.542.542,0,0,1-.716-.48l-.005-.026a1.713,1.713,0,0,1,.014-.579,15.536,15.536,0,0,1,1.051-3.134,9.991,9.991,0,0,1,3.815-4.472,3.693,3.693,0,0,1,1.859-.544,2.139,2.139,0,0,1,1.671.825,5.685,5.685,0,0,1,.9,3.594" fill="#d67f54" fill-rule="evenodd"/>
            <path id="Path_211284" data-name="Path 211284" d="M40.247,88.765a.5.5,0,1,1-.992,0,5.686,5.686,0,0,1,.9-3.594,2.144,2.144,0,0,1,1.671-.825,3.694,3.694,0,0,1,1.86.544A9.984,9.984,0,0,1,47.5,89.362,15.55,15.55,0,0,1,48.556,92.5a1.713,1.713,0,0,1,.014.579l-.006.026a.542.542,0,0,1-.716.48,1.063,1.063,0,0,1-.5-.318,2.732,2.732,0,0,0-2.116-.89,1.207,1.207,0,0,0-.589.205.764.764,0,0,0-.294.415,2.353,2.353,0,0,0,.556,1.853.495.495,0,1,1-.822.55A3.253,3.253,0,0,1,43.4,92.71a1.75,1.75,0,0,1,.666-.934,2.212,2.212,0,0,1,1.07-.388,3.521,3.521,0,0,1,2.311.671,18.682,18.682,0,0,0-.845-2.3,8.931,8.931,0,0,0-3.4-4.006,2.721,2.721,0,0,0-1.351-.416,1.18,1.18,0,0,0-.923.461,4.814,4.814,0,0,0-.68,2.969" fill="#d67f54" fill-rule="evenodd"/>
            <path id="Path_211285" data-name="Path 211285" d="M47.8,88.828c-4.615-9.006-4.545-19.065-4.979-22.93C38.563,27.992,62.171,9.985,85.493,10.651c.245-.007.488-.01.731-.013V25.494c-4.278-1.4-7.925-2.253-9.856-2.253-.238,0-.474,0-.71-.013q-.351.013-.708.013c-5.374,0-8.044,8.961-14.231,11.387-3.546,1.389-.152,17.785-3.819,26.035-.9,2.02-5.587,6.748-6.671,7.225-3.172,3.23-3.5,6.854-2.431,20.94" fill="#462917" fill-rule="evenodd"/>
            <path id="Path_211286" data-name="Path 211286" d="M124.65,88.828c4.614-9.006,4.545-19.065,4.979-22.93,4.256-37.906-19.352-55.913-42.674-55.247-.245-.007-.488-.01-.73-.013V25.494c4.277-1.4,7.923-2.253,9.855-2.253.239,0,.474,0,.709-.013.235.009.47.013.709.013,5.373,0,8.045,11.456,14.231,13.881,3.545,1.39.151,15.291,3.819,23.541.9,2.02,5.587,6.748,6.671,7.225,3.172,3.23,3.5,6.854,2.431,20.94" fill="#462917" fill-rule="evenodd"/>
            <path id="Path_211287" data-name="Path 211287" d="M86.224,202.762h54.469l-3.023-18.676H34.777l-3.023,18.676Z" fill="#2e1e11" fill-rule="evenodd"/>
            <path id="Path_211288" data-name="Path 211288" d="M38.746,185.691a2.108,2.108,0,0,1-4.213-.132l4.2-30.635a2.108,2.108,0,0,1,4.213.133Z" fill="#2e1e11" fill-rule="evenodd"/>
            <path id="Path_211289" data-name="Path 211289" d="M133.7,185.691a2.108,2.108,0,0,0,4.213-.132l-4.2-30.635a2.108,2.108,0,0,0-4.214.133Z" fill="#2e1e11" fill-rule="evenodd"/>
            <path id="Path_211290" data-name="Path 211290" d="M101.409,74.062a1.236,1.236,0,0,1-2.461.243,5.343,5.343,0,1,1,10.648-.162,1.239,1.239,0,1,1-2.472-.164,2.892,2.892,0,0,0-.261-1.421,2.872,2.872,0,0,0-5.368.471,2.881,2.881,0,0,0-.086,1.033" fill="#39271f" fill-rule="evenodd"/>
            <path id="Path_211291" data-name="Path 211291" d="M59.031,36.982c20.7-14.425,11.785,11.157,29.27,11.225,8.7.034,16.673,3.549,16.53,10.932s-.195,10.654,7.788,14.488c15.471,7.428-14.054,33.03,24.7,34.456-4.052-18.708,15.173-24.757,8.669-40.99s-19.077-11.5-16.338-21.58C131.8,37.58,132.707,29,127.01,22.9c-8.229-8.814-16.367.167-21.637-8.316C100.952,7.462,98.366-3.1,79.684.862,55.9,5.9,54.891,24.909,59.031,36.982" fill="#623a1c" fill-rule="evenodd"/>
            <path id="Path_211292" data-name="Path 211292" d="M61.7,28.121a.494.494,0,1,1-.807-.569,10.625,10.625,0,0,1,4.92-3.118,14.89,14.89,0,0,1,5.173-.86,9.012,9.012,0,0,1,5.047,1.548A8.441,8.441,0,0,1,79.1,29.38c1.539,4.425,2.964,6.883,4.937,8.26s4.557,1.72,8.4,1.913c4,.2,8.767.836,12.61,2.967,3.9,2.163,6.828,5.836,7.031,12.087.195,5.942.892,9.247,2.171,11.255,1.242,1.946,3.1,2.7,5.63,3.52.186.06.357.119.51.177a8.45,8.45,0,0,1,5.227,4.77c.9,2.257.885,5.207-.327,8.938q-.177.546-.371,1.071a19.175,19.175,0,0,0-1.236,10.178,7.6,7.6,0,0,0,4.247,5.869.495.495,0,1,1-.388.91c-2.509-1.074-4.207-3.413-4.832-6.589a20.153,20.153,0,0,1,1.278-10.713c.135-.366.255-.709.36-1.032,1.137-3.5,1.167-6.222.351-8.268a7.5,7.5,0,0,0-4.654-4.2c-.169-.062-.326-.118-.471-.164-2.726-.887-4.74-1.71-6.157-3.932-1.379-2.162-2.126-5.618-2.326-11.755-.19-5.829-2.907-9.247-6.524-11.254-3.675-2.037-8.294-2.648-12.175-2.843-4.029-.2-6.757-.577-8.925-2.091S79.773,34.341,78.16,29.7a7.465,7.465,0,0,0-2.7-3.776,8.036,8.036,0,0,0-4.5-1.366,13.9,13.9,0,0,0-4.823.805A9.676,9.676,0,0,0,61.7,28.121" fill="#774d30" fill-rule="evenodd"/>
            <path id="Path_211293" data-name="Path 211293" d="M66.765,13.839a.5.5,0,1,1-.434-.892,19.3,19.3,0,0,1,3.265-1.21,20.4,20.4,0,0,1,8.907-.549,9.318,9.318,0,0,1,7.057,4.973,9.817,9.817,0,0,1,.634,1.7,13.284,13.284,0,0,0,5.735,8.078,15.146,15.146,0,0,0,10.26,1.805,16.469,16.469,0,0,1,2.452-.176,20.974,20.974,0,0,1,10.136,2.651c3.127,1.8,5.556,4.528,6.112,8.214a10.816,10.816,0,0,1,.12,1.618c0,1.643-.043,3.238-.082,4.693-.159,5.946-.253,9.441,3.119,11.425.273.161.525.306.8.464h0c5.265,3.039,18.218,10.519,13.6,22.591C133.687,91.629,132.6,93,132.593,93a.5.5,0,0,1-.787-.6c0-.005,1.005-1.255,5.707-13.532,4.322-11.286-8.111-18.465-13.165-21.383-.312-.181-.6-.346-.8-.467-3.876-2.28-3.777-5.99-3.607-12.3.037-1.384.078-2.9.078-4.67a9.851,9.851,0,0,0-.108-1.47c-.506-3.351-2.742-5.846-5.624-7.506a19.972,19.972,0,0,0-9.644-2.514,15.522,15.522,0,0,0-2.305.164A16.123,16.123,0,0,1,91.41,26.776a14.247,14.247,0,0,1-6.169-8.655,8.956,8.956,0,0,0-.573-1.525,8.371,8.371,0,0,0-6.348-4.435,19.39,19.39,0,0,0-8.461.53,18.212,18.212,0,0,0-3.094,1.148" fill="#774d30" fill-rule="evenodd"/>
          </g>
        </g>
        <g id="Group_982511" data-name="Group 982511" transform="translate(817.233 3447.088)">
          <g id="Group_982508" data-name="Group 982508" transform="translate(251.158 93.634)">
            <g id="Group_982512" data-name="Group 982512" transform="translate(0 0)">
              <path id="Path_204689" data-name="Path 204689" d="M225.609,78.362H283.76c3.575,0,7.388.174,7.388,5.379s.807,37.615.09,42.523c-.6,4.078-2.711,6.06-11.53,6.233s-48.622-.123-53.146,0c-2.86.078-8.222.078-8.58-6.072-.365-6.263-.266-36.177-.229-41.815-.037-6.681,7.855-6.247,7.855-6.247" transform="translate(-217.713 -78.356)" fill="#e19e2c"/>
              <path id="Path_204690" data-name="Path 204690" d="M266.239,120.163s.463,9.278,4.175,16.238c0,0-11.831-2.088-15.541-17.862Z" transform="translate(-209.079 -69.019)" fill="#e19e2c"/>
              <path id="Path_204691" data-name="Path 204691" d="M231.618,116.575c.672,0,4.852.075,5.485.009.526-.055.781-.255.8-1.083s-.016-4.566,0-4.991c.01-.269.01-.771-.783-.806-.808-.033-4.667-.025-5.394-.021a.7.7,0,0,0-.806.738v5.461c0,.335.022.694.694.694" transform="translate(-214.644 -71.078)" fill="#fff"/>
              <path id="Path_204692" data-name="Path 204692" d="M245.015,110.421v5.461c0,.336.022.694.694.694s4.852.076,5.485.009c.526-.055.781-.254.8-1.082s-.016-4.567,0-4.991c.01-.269.01-.773-.783-.806-.808-.035-4.667-.025-5.394-.021a.7.7,0,0,0-.806.737" transform="translate(-211.369 -71.078)" fill="#fff"/>
              <path id="Path_204693" data-name="Path 204693" d="M259.107,110.421v5.461c0,.336.021.694.693.694s4.853.076,5.485.009c.526-.055.781-.254.8-1.082s-.016-4.567,0-4.991c.01-.269.01-.773-.783-.806s-4.667-.025-5.394-.021a.7.7,0,0,0-.8.737" transform="translate(-208.095 -71.078)" fill="#fff"/>
              <path id="Path_204694" data-name="Path 204694" d="M231.618,110.594c.672,0,4.852.076,5.485.009.526-.057.781-.255.8-1.083s-.016-22.345,0-22.77c.01-.269.01-.771-.783-.806-.808-.035-4.667-.025-5.394-.021a.7.7,0,0,0-.806.737V109.9c0,.335.022.694.694.694" transform="translate(-214.644 -76.599)" fill="#fff"/>
              <path id="Path_204695" data-name="Path 204695" d="M245.015,86.659V109.9c0,.335.022.694.694.694s4.852.075,5.485.007c.526-.055.781-.254.8-1.082s-.016-22.345,0-22.77c.01-.269.01-.773-.783-.806-.808-.035-4.667-.026-5.394-.022a.7.7,0,0,0-.806.738" transform="translate(-211.369 -76.6)" fill="#fff"/>
              <path id="Path_204696" data-name="Path 204696" d="M259.107,86.659V109.9c0,.335.021.694.693.694s4.853.075,5.485.007c.526-.055.781-.254.8-1.082s-.016-22.345,0-22.77c.01-.269.01-.773-.783-.806s-4.667-.026-5.394-.022a.7.7,0,0,0-.8.738" transform="translate(-208.095 -76.6)" fill="#fff"/>
            </g>
          </g>
        </g>
      </g>
    </g>
  </g>
</svg>
