<svg id="l2" xmlns="http://www.w3.org/2000/svg" xmlns:xlink="http://www.w3.org/1999/xlink" width="95.519" height="75.298" viewBox="0 0 95.519 75.298">
  <defs>
    <clipPath id="clip-path">
      <rect id="Rectangle_338802" data-name="Rectangle 338802" width="95.519" height="75.298" fill="none"/>
    </clipPath>
  </defs>
  <g id="Group_983785" data-name="Group 983785" transform="translate(0 0)" clip-path="url(#clip-path)">
    <path id="Path_211117" data-name="Path 211117" d="M12.659,48.906q-.2.151-.389.315a5.475,5.475,0,0,0,.445.789,4.072,4.072,0,0,0,.548.649,3.682,3.682,0,0,0,2.73.97Z" transform="translate(-2.495 -9.945)"/>
    <path id="Path_211118" data-name="Path 211118" d="M12.758,48.906l3.334,2.723L12.759,48.9Z" transform="translate(-2.594 -9.945)"/>
    <path id="Path_211119" data-name="Path 211119" d="M11.724,48.7a1.57,1.57,0,0,0,.377.249c.127-.108.257-.213.39-.314-.216-.363-.264-.879-.727-1.018a.892.892,0,0,0-.22-.033.915.915,0,0,0,.181,1.117" transform="translate(-2.326 -9.677)"/>
    <path id="Path_211120" data-name="Path 211120" d="M12.573,48.646h0c-.217-.362-.264-.878-.727-1.017.464.139.511.654.727,1.017" transform="translate(-2.409 -9.686)"/>
    <path id="Path_211121" data-name="Path 211121" d="M11.569,47.583l0-.013-.01.012h.006" transform="translate(-2.351 -9.674)"/>
    <path id="Path_211122" data-name="Path 211122" d="M11.412,47.438l-.419-.539c-.051.084-.155.176-.143.249.056.337.263.419.562.29" transform="translate(-2.206 -9.537)"/>
    <path id="Path_211123" data-name="Path 211123" d="M11.571,47.57l-.016,0,.006.007Z" transform="translate(-2.35 -9.674)"/>
    <path id="Path_211124" data-name="Path 211124" d="M20.242,35.769c2.331-.139,3.719-1.541,3.968-4,.2-1.977-1.932-4.338-3.914-4.252-2.258.1-3.9,1.151-4.106,3.639a4.1,4.1,0,0,0,4.052,4.614M20.2,30.25a1.4,1.4,0,0,1,.262.014,1.223,1.223,0,0,1,.964,1.2,2.461,2.461,0,0,1-.008.319,1.2,1.2,0,0,1-.565.991,1.327,1.327,0,0,1-.388.147,1.982,1.982,0,0,1-.315.04c-.8.04-1.131-.538-1.2-1.218A1.22,1.22,0,0,1,20.2,30.25" transform="translate(-3.289 -5.595)"/>
    <path id="Path_211125" data-name="Path 211125" d="M88.753,85.472c-6.787.093-13.236.782-19.469,0,5.692,2.2,15.065,2.325,19.469,0" transform="translate(-14.09 -17.381)"/>
    <path id="Path_211126" data-name="Path 211126" d="M20.858,33.659a1.912,1.912,0,0,0,.316-.041,1.326,1.326,0,0,0,.388-.146,1.2,1.2,0,0,0,.564-.991,2.287,2.287,0,0,0,.008-.316,1.223,1.223,0,0,0-.964-1.2,1.329,1.329,0,0,0-.262-.014,1.221,1.221,0,0,0-1.255,1.492c.073.68.408,1.257,1.2,1.218" transform="translate(-3.994 -6.293)" fill="#fff"/>
    <path id="Path_211127" data-name="Path 211127" d="M22.052,33.864a1.2,1.2,0,0,0,.565-.991,1.2,1.2,0,0,1-.565.991" transform="translate(-4.485 -6.685)" fill="#fff"/>
    <path id="Path_211128" data-name="Path 211128" d="M21.953,34.117a1.327,1.327,0,0,1-.388.147,1.327,1.327,0,0,0,.388-.147" transform="translate(-4.385 -6.938)" fill="#fff"/>
    <path id="Path_211129" data-name="Path 211129" d="M54.744,12.629c-3.5-4.135-14.553-7.04-17.833-4.609C42.929,8.762,48.994,9.141,54,13.056c.245-.143.493-.284.74-.427" transform="translate(-7.506 -1.45)"/>
    <path id="Path_211130" data-name="Path 211130" d="M12.728,47.6a3.406,3.406,0,0,1,2.254,3.277,13.083,13.083,0,0,0,13.42,12.5c1.185-.015,2.77.415,3.5-.863.8-1.4-.945-1.845-1.5-2.75-1.623-2.662-2.637-5.679-1.562-8.546.805-2.148,3.676-.718,5.477-1.479a2.245,2.245,0,0,1,.318-.047c2.487-.61,3.385.049,3.653,2.911,1.132,12.107,7.523,20.262,19.423,22.124,2.328.365,4.7.452,5.971.57a56.836,56.836,0,0,0,19.358-3.421A16.9,16.9,0,0,0,89.2,67.891c5.04-5.041,6.49-11.558,6.3-18.149-.261-8.988-2.737-17.37-11.95-21.53-2.415-1.091-3.5-2.255-3.848-5a14.08,14.08,0,0,0-14.96-11.821c-1.123.115-2.183.335-2.67,1.409-.455,1,.491,1.506,1.075,2.092,2.192,2.2,2.427,4.918,2.064,7.783-.359,2.843-2.69,2.8-4.644,2.811-1.78.012-2.807-.829-2.942-3.093-.649-10.848-6-17.877-15.213-20.4A59.751,59.751,0,0,0,32.932.258,47.882,47.882,0,0,0,16.2,1.5C10.848,2.807,4.131,7.153,2.215,12.124A32.264,32.264,0,0,0,.839,31.212c1.6,7.166,5.255,12.915,11.889,16.385m47.6-20.073c2.1-.277,4.778,1.147,6.272-1.124,1.867-2.839,1.666-6.1.925-9.341-.208-.906-1.073-1.631-.761-2.678,6.008.525,10.76,5.228,10.612,11.155-.069,2.75,1.016,3.6,3.238,4.526C88.941,33.528,92.284,40.4,92.788,48.949c.48,8.162-1.709,15.2-9.263,19.518a31.267,31.267,0,0,1-14.864,3.727,66.184,66.184,0,0,1-9.987-.254A20.813,20.813,0,0,1,40.685,50.247a1.769,1.769,0,0,1,1.6-1.945c9.353-2.47,14.2-8.8,15.233-18.207.212-1.927,1-2.332,2.809-2.57m-57.268-7.4C4.314,10.008,8.965,4.939,19.142,3.289A54.144,54.144,0,0,1,42.084,4.752c8.35,2.254,11.2,8.808,12.729,16.223a25.1,25.1,0,0,1-1.68,14.853C51.2,40.5,47.742,43.2,43.259,45.394c-4.538,2.226-9.186,1.7-13.816,1.986-2.024.123-2.85.854-3.268,2.68a15.178,15.178,0,0,0,1.444,10.288,9.945,9.945,0,0,1-9.976-10.756c.109-2.283-.624-3.089-2.575-3.95C6.846,42.015,3.739,34.964,2.962,26.568a30.149,30.149,0,0,1,.094-6.444" transform="translate(0 0)"/>
    <path id="Path_211131" data-name="Path 211131" d="M15.792,46.321c1.951.86,2.685,1.667,2.575,3.95a9.946,9.946,0,0,0,9.976,10.756A15.177,15.177,0,0,1,26.9,50.739c.417-1.826,1.244-2.556,3.268-2.679,4.63-.282,9.278.24,13.816-1.986,4.482-2.2,7.945-4.9,9.874-9.567a25.1,25.1,0,0,0,1.68-14.853c-1.53-7.415-4.379-13.969-12.73-16.223A54.153,54.153,0,0,0,19.866,3.968C9.689,5.618,5.038,10.687,3.78,20.8a30.047,30.047,0,0,0-.094,6.444c.776,8.4,3.884,15.448,12.106,19.074M37.855,26.293A3.787,3.787,0,0,1,42.2,22.615c2.564.123,3.823,1.792,3.7,4.263a3.866,3.866,0,0,1-3.919,3.972,4.2,4.2,0,0,1-4.12-4.557M48.57,39.831h0v0h0l.069-.049.11.034-.173.017-.014.012a9.155,9.155,0,0,1-2.414,2.878,9.4,9.4,0,0,1-3.812,1.721,13.6,13.6,0,0,1-1.913.27c2.515-1.949,5.732-2.728,8.134-4.866l.008-.014m-.609-27.974c.132.37.237.769-.214.958-.086.037-.347-.343-.527-.531C42.211,8.37,36.146,7.991,30.129,7.249c3.28-2.431,14.336.474,17.832,4.609M29.73,22.576a3.816,3.816,0,0,1,4.037,4c-.16,2.149-.847,4.052-3.623,3.665-2.345-.032-4.479-1.9-4.349-3.875.158-2.41,1.632-3.63,3.935-3.786m-16.1,3.662c.2-2.488,1.847-3.541,4.106-3.639,1.981-.087,4.114,2.274,3.914,4.252-.25,2.461-1.637,3.862-3.968,4a4.1,4.1,0,0,1-4.052-4.614M9.51,38.04l.419.539.016,0,0,.013a.892.892,0,0,1,.22.033c.464.139.511.655.727,1.017h0l3.332,2.725a3.682,3.682,0,0,1-2.729-.97,4.069,4.069,0,0,1-.549-.649,5.442,5.442,0,0,1-.445-.789,1.57,1.57,0,0,1-.377-.249.915.915,0,0,1-.181-1.117H9.935l-.006-.008c-.3.129-.507.047-.562-.289-.012-.073.092-.167.143-.25" transform="translate(-0.723 -0.679)" fill="#fcfcfc"/>
    <path id="Path_211132" data-name="Path 211132" d="M60.061,49.147h0l-.008.014,0,0,.006-.011" transform="translate(-12.212 -9.994)" fill="#fcfcfc"/>
    <path id="Path_211133" data-name="Path 211133" d="M52.663,51.973a1.769,1.769,0,0,0-1.6,1.945A20.814,20.814,0,0,0,69.054,75.61a66.176,66.176,0,0,0,9.987.254,31.27,31.27,0,0,0,14.864-3.727c7.554-4.319,9.744-11.356,9.263-19.517-.5-8.549-3.846-15.421-12.178-18.887-2.221-.923-3.305-1.776-3.237-4.526.147-5.927-4.6-10.63-10.613-11.155-.311,1.048.553,1.772.761,2.678.742,3.238.942,6.5-.925,9.341-1.493,2.271-4.166.847-6.272,1.124-1.805.238-2.6.643-2.809,2.569-1.034,9.4-5.878,15.738-15.232,18.208M92.252,38.348l.229.229-.174.316c4.374,1.553,7.147,6.043,7.213,11.531-2.268-4.182-4.052-7.947-7.228-11.5l-.04.072c-.072-.072-.214-.159-.2-.212a2.032,2.032,0,0,1,.2-.433m-3.154,12c2.642-.159,3.877,1.413,4.28,3.9-.288,2.327-1.243,4.143-3.912,4.24-2.618.094-3.99-1.416-4.15-3.921-.167-2.595,1.218-4.063,3.782-4.216M73.085,54.138a3.769,3.769,0,0,1,3.982-3.8c2.391-.1,4.072,1.579,4.07,4.335A3.778,3.778,0,0,1,77.2,58.5a3.959,3.959,0,0,1-4.11-4.358M85.044,71.761c-4.4,2.326-13.777,2.2-19.47,0,6.233.781,12.683.092,19.47,0M68.913,54.727A3.675,3.675,0,0,1,65.159,58.5a4.046,4.046,0,0,1-4.22-4.221c.136-2.544,2.394-3.115,4.15-3.692,1.72-.566,3.79,1.851,3.825,4.143" transform="translate(-10.38 -3.671)" fill="#fcfcfc"/>
    <path id="Path_211134" data-name="Path 211134" d="M54.645,31.8c.127-2.47-1.131-4.14-3.7-4.263a3.787,3.787,0,0,0-4.344,3.678,4.2,4.2,0,0,0,4.12,4.557A3.866,3.866,0,0,0,54.645,31.8m-5.33-.1a1.214,1.214,0,0,1-.021-.307c.041-.664.681-.97,1.3-1.21a1.808,1.808,0,0,1,.58.163,1.339,1.339,0,0,1,.756,1.014,1.8,1.8,0,0,1,.025.282,1.336,1.336,0,0,1-1.142,1.324c-.938.163-1.364-.554-1.5-1.266" transform="translate(-9.473 -5.598)"/>
    <path id="Path_211135" data-name="Path 211135" d="M35.818,35.146c2.777.387,3.463-1.515,3.623-3.665a3.817,3.817,0,0,0-4.037-4c-2.3.157-3.777,1.377-3.935,3.787-.13,1.975,2,3.843,4.349,3.875M35,30.113a2.191,2.191,0,0,1,.333.006,1.511,1.511,0,0,1,1.218.778,2.154,2.154,0,0,1,.229.646,1.546,1.546,0,0,1-1.088,1.41,2.6,2.6,0,0,1-.282.082c-1.056.244-1.281-.518-1.334-1.261-.049-.7-.1-1.606.923-1.662" transform="translate(-6.399 -5.587)"/>
    <path id="Path_211136" data-name="Path 211136" d="M51.753,53.761a9.4,9.4,0,0,0,3.812-1.721,9.141,9.141,0,0,0,2.41-2.875c-2.4,2.138-5.619,2.916-8.135,4.866a13.614,13.614,0,0,0,1.914-.27" transform="translate(-10.135 -9.998)"/>
    <path id="Path_211137" data-name="Path 211137" d="M57.026,52.039a9.155,9.155,0,0,0,2.414-2.878l0,0a9.141,9.141,0,0,1-2.41,2.875" transform="translate(-11.597 -9.997)"/>
    <path id="Path_211138" data-name="Path 211138" d="M60.073,49.145h0" transform="translate(-12.215 -9.994)"/>
    <path id="Path_211139" data-name="Path 211139" d="M60.066,49.132h0l.069-.049Z" transform="translate(-12.215 -9.981)"/>
    <path id="Path_211140" data-name="Path 211140" d="M60.07,49.146h-.008l-.006.011.014-.012" transform="translate(-12.213 -9.994)"/>
    <path id="Path_211141" data-name="Path 211141" d="M60.247,49.116l-.11-.034c-.019.018-.041.032-.061.05l.171-.016" transform="translate(-12.217 -9.981)"/>
    <path id="Path_211142" data-name="Path 211142" d="M60.064,49.145h0v0l0,0" transform="translate(-12.215 -9.994)"/>
    <path id="Path_211143" data-name="Path 211143" d="M60.135,49.082l-.069.049h.008c.02-.018.041-.032.061-.049" transform="translate(-12.215 -9.981)"/>
    <path id="Path_211144" data-name="Path 211144" d="M58.893,14.991c.451-.19.346-.588.214-.958l-.741.426c.181.187.441.568.527.531" transform="translate(-11.869 -2.854)"/>
    <path id="Path_211145" data-name="Path 211145" d="M82.818,66.736a3.778,3.778,0,0,0,3.943-3.821c0-2.756-1.679-4.436-4.07-4.335a3.769,3.769,0,0,0-3.982,3.8,3.958,3.958,0,0,0,4.109,4.358m.029-5.4c.746,0,1.1.519,1.169,1.281-.065.8-.418,1.387-1.356,1.335A1.216,1.216,0,0,1,81.5,62.686c-.092-.957.514-1.35,1.346-1.35" transform="translate(-16.004 -11.912)"/>
    <path id="Path_211146" data-name="Path 211146" d="M98.212,66.727c2.669-.1,3.624-1.913,3.911-4.239-.4-2.485-1.639-4.056-4.28-3.9-2.564.154-3.949,1.622-3.782,4.217.161,2.5,1.533,4.014,4.15,3.92M98.1,61.312a1.326,1.326,0,0,1-.225,2.64c-.787-.027-1.066-.632-1.1-1.293-.053-.925.558-1.269,1.33-1.347" transform="translate(-19.126 -11.913)"/>
    <path id="Path_211147" data-name="Path 211147" d="M63.463,62.56a4.048,4.048,0,0,0,4.221,4.222,3.676,3.676,0,0,0,3.755-3.772c-.035-2.291-2.106-4.708-3.825-4.143-1.756.578-4.013,1.148-4.15,3.692m3.978-1.167c.964-.087,1.255.569,1.363,1.341-.153.7-.427,1.248-1.218,1.251-.933,0-1.329-.6-1.365-1.416-.035-.778.54-1.114,1.22-1.175" transform="translate(-12.905 -11.954)"/>
    <path id="Path_211148" data-name="Path 211148" d="M110.05,55.746c-.066-5.489-2.839-9.979-7.213-11.532l-.015.028c3.175,3.556,4.959,7.322,7.228,11.5" transform="translate(-20.91 -8.991)"/>
    <path id="Path_211149" data-name="Path 211149" d="M102.72,44.175l.04-.072c-.014-.017-.027-.034-.042-.051l.058.023.174-.315-.23-.23a2,2,0,0,0-.2.434c-.012.053.13.14.2.212" transform="translate(-20.848 -8.852)"/>
    <path id="Path_211150" data-name="Path 211150" d="M102.811,44.236l.015-.028c-.02-.006-.038-.016-.058-.023.015.017.028.034.043.051" transform="translate(-20.899 -8.985)"/>
    <path id="Path_211151" data-name="Path 211151" d="M52.645,32.318a1.8,1.8,0,0,0-.025-.282,1.341,1.341,0,0,0-.756-1.015,1.83,1.83,0,0,0-.576-.16c-.621.239-1.262.545-1.3,1.208a1.255,1.255,0,0,0,.022.307c.132.711.558,1.428,1.5,1.266a1.337,1.337,0,0,0,1.143-1.324" transform="translate(-10.165 -6.276)" fill="#fff"/>
    <path id="Path_211152" data-name="Path 211152" d="M53.1,32.077a1.34,1.34,0,0,0-.756-1.015,1.341,1.341,0,0,1,.756,1.015" transform="translate(-10.645 -6.317)" fill="#fff"/>
    <path id="Path_211153" data-name="Path 211153" d="M36.073,33.708a2.6,2.6,0,0,0,.282-.082,1.542,1.542,0,0,0,1.086-1.414,2.143,2.143,0,0,0-.227-.642A1.513,1.513,0,0,0,36,30.791a2.193,2.193,0,0,0-.333-.006c-1.02.056-.973.966-.923,1.662.053.743.278,1.5,1.334,1.261" transform="translate(-7.06 -6.26)" fill="#fff"/>
    <path id="Path_211154" data-name="Path 211154" d="M36.773,33.827a1.544,1.544,0,0,0,1.087-1.41,2.1,2.1,0,0,0-.229-.646,2.106,2.106,0,0,1,.228.642,1.542,1.542,0,0,1-1.086,1.414" transform="translate(-7.478 -6.461)" fill="#fff"/>
    <path id="Path_211155" data-name="Path 211155" d="M83.374,64.656c.938.052,1.291-.538,1.356-1.335-.072-.762-.422-1.282-1.169-1.281-.832,0-1.438.394-1.346,1.35a1.216,1.216,0,0,0,1.158,1.266" transform="translate(-16.718 -12.616)" fill="#fff"/>
    <path id="Path_211156" data-name="Path 211156" d="M98.569,64.649a1.326,1.326,0,0,0,.225-2.64c-.771.078-1.382.423-1.329,1.348.037.66.316,1.266,1.1,1.292" transform="translate(-19.82 -12.61)" fill="#fff"/>
    <path id="Path_211157" data-name="Path 211157" d="M68.292,64.648c.79,0,1.064-.549,1.218-1.251-.108-.772-.4-1.428-1.364-1.341-.68.061-1.255.4-1.22,1.175.037.817.432,1.42,1.366,1.416" transform="translate(-13.61 -12.618)" fill="#fff"/>
  </g>
</svg>
